<svg width="1128" height="276" viewBox="0 0 1128 276" fill="none" xmlns="http://www.w3.org/2000/svg">
<rect width="1128" height="276" fill="#F2F6F9"/>
<path d="M373.861 74L403.139 74" stroke="#37464B"/>
<line x1="403.5" y1="69" x2="403.5" y2="88" stroke="#37464B"/>
<line x1="373.5" y1="69" x2="373.5" y2="88" stroke="#37464B"/>
<path d="M384.207 63.1193C383.849 63.1136 383.491 63.0455 383.134 62.9148C382.776 62.7841 382.449 62.5639 382.153 62.2543C381.858 61.9418 381.621 61.5199 381.442 60.9886C381.263 60.4545 381.173 59.7841 381.173 58.9773C381.173 58.2045 381.246 57.5199 381.391 56.9233C381.536 56.3239 381.746 55.8196 382.021 55.4105C382.297 54.9986 382.629 54.6861 383.018 54.473C383.411 54.2599 383.852 54.1534 384.344 54.1534C384.832 54.1534 385.267 54.2514 385.648 54.4474C386.031 54.6406 386.344 54.9105 386.585 55.2571C386.827 55.6037 386.983 56.0028 387.054 56.4545H386.014C385.918 56.0625 385.73 55.7372 385.452 55.4787C385.173 55.2202 384.804 55.0909 384.344 55.0909C383.668 55.0909 383.135 55.3849 382.746 55.973C382.359 56.5611 382.165 57.3864 382.162 58.4489H382.23C382.389 58.2074 382.578 58.0014 382.797 57.831C383.018 57.6577 383.263 57.5241 383.53 57.4304C383.797 57.3366 384.08 57.2898 384.378 57.2898C384.878 57.2898 385.335 57.4148 385.75 57.6648C386.165 57.9119 386.497 58.2543 386.747 58.6918C386.997 59.1264 387.122 59.625 387.122 60.1875C387.122 60.7273 387.001 61.2216 386.76 61.6705C386.518 62.1165 386.179 62.4716 385.741 62.7358C385.307 62.9972 384.795 63.125 384.207 63.1193ZM384.207 62.1818C384.565 62.1818 384.886 62.0923 385.17 61.9134C385.457 61.7344 385.683 61.4943 385.848 61.1932C386.016 60.892 386.099 60.5568 386.099 60.1875C386.099 59.8267 386.018 59.4986 385.857 59.2031C385.697 58.9048 385.477 58.6676 385.196 58.4915C384.918 58.3153 384.599 58.2273 384.241 58.2273C383.972 58.2273 383.72 58.2812 383.487 58.3892C383.254 58.4943 383.05 58.6392 382.874 58.8239C382.7 59.0085 382.564 59.2202 382.464 59.4588C382.365 59.6946 382.315 59.9432 382.315 60.2045C382.315 60.5511 382.396 60.875 382.558 61.1761C382.723 61.4773 382.947 61.7202 383.232 61.9048C383.518 62.0895 383.844 62.1818 384.207 62.1818ZM388.593 61.2102V60.3409L392.429 54.2727H393.059V55.6193H392.633L389.735 60.2045V60.2727H394.9V61.2102H388.593ZM392.701 63V60.946V60.5412V54.2727H393.707V63H392.701Z" fill="#37464B"/>
<path d="M213 74L333.376 74" stroke="#37464B"/>
<line x1="333.5" y1="69" x2="333.5" y2="88" stroke="#37464B"/>
<line x1="213.5" y1="69" x2="213.5" y2="88" stroke="#37464B"/>
<path d="M262.817 63V62.233L265.698 59.0795C266.036 58.7102 266.315 58.3892 266.533 58.1165C266.752 57.8409 266.914 57.5824 267.019 57.3409C267.127 57.0966 267.181 56.8409 267.181 56.5739C267.181 56.267 267.107 56.0014 266.96 55.777C266.815 55.5526 266.616 55.3793 266.363 55.2571C266.11 55.1349 265.826 55.0739 265.511 55.0739C265.175 55.0739 264.883 55.1435 264.633 55.2827C264.386 55.419 264.194 55.6108 264.058 55.858C263.924 56.1051 263.857 56.3949 263.857 56.7273H262.852C262.852 56.2159 262.969 55.767 263.205 55.3807C263.441 54.9943 263.762 54.6932 264.168 54.4773C264.577 54.2614 265.036 54.1534 265.545 54.1534C266.056 54.1534 266.509 54.2614 266.904 54.4773C267.299 54.6932 267.609 54.9844 267.833 55.3509C268.058 55.7173 268.17 56.125 268.17 56.5739C268.17 56.8949 268.112 57.2088 267.995 57.5156C267.881 57.8196 267.683 58.1591 267.398 58.5341C267.117 58.9062 266.727 59.3608 266.227 59.8977L264.266 61.9943V62.0625H268.323V63H262.817ZM269.691 61.2102V60.3409L273.526 54.2727H274.157V55.6193H273.731L270.833 60.2045V60.2727H275.998V61.2102H269.691ZM273.799 63V60.946V60.5412V54.2727H274.805V63H273.799ZM280.39 63.1193C279.805 63.1193 279.288 63.0156 278.839 62.8082C278.393 62.598 278.045 62.3097 277.795 61.9432C277.545 61.5739 277.422 61.1534 277.424 60.6818C277.422 60.3125 277.494 59.9716 277.642 59.6591C277.789 59.3437 277.991 59.081 278.247 58.8707C278.505 58.6577 278.794 58.5227 279.112 58.4659V58.4148C278.694 58.3068 278.362 58.0724 278.115 57.7116C277.868 57.348 277.745 56.9347 277.748 56.4716C277.745 56.0284 277.858 55.6321 278.085 55.2827C278.312 54.9332 278.625 54.6577 279.022 54.456C279.423 54.2543 279.879 54.1534 280.39 54.1534C280.896 54.1534 281.348 54.2543 281.745 54.456C282.143 54.6577 282.456 54.9332 282.683 55.2827C282.913 55.6321 283.029 56.0284 283.032 56.4716C283.029 56.9347 282.903 57.348 282.653 57.7116C282.406 58.0724 282.078 58.3068 281.669 58.4148V58.4659C281.984 58.5227 282.268 58.6577 282.521 58.8707C282.774 59.081 282.975 59.3437 283.126 59.6591C283.277 59.9716 283.353 60.3125 283.356 60.6818C283.353 61.1534 283.225 61.5739 282.973 61.9432C282.723 62.3097 282.375 62.598 281.929 62.8082C281.485 63.0156 280.973 63.1193 280.39 63.1193ZM280.39 62.1818C280.785 62.1818 281.126 62.1179 281.413 61.9901C281.7 61.8622 281.922 61.6818 282.078 61.4489C282.234 61.2159 282.314 60.9432 282.316 60.6307C282.314 60.3011 282.228 60.0099 282.061 59.7571C281.893 59.5043 281.664 59.3054 281.375 59.1605C281.088 59.0156 280.76 58.9432 280.39 58.9432C280.018 58.9432 279.686 59.0156 279.393 59.1605C279.103 59.3054 278.875 59.5043 278.707 59.7571C278.542 60.0099 278.461 60.3011 278.464 60.6307C278.461 60.9432 278.537 61.2159 278.69 61.4489C278.846 61.6818 279.069 61.8622 279.359 61.9901C279.649 62.1179 279.993 62.1818 280.39 62.1818ZM280.39 58.0398C280.703 58.0398 280.98 57.9773 281.221 57.8523C281.466 57.7273 281.657 57.5526 281.797 57.3281C281.936 57.1037 282.007 56.8409 282.01 56.5398C282.007 56.2443 281.937 55.9872 281.801 55.7685C281.664 55.5469 281.475 55.3764 281.234 55.2571C280.993 55.1349 280.711 55.0739 280.39 55.0739C280.064 55.0739 279.778 55.1349 279.534 55.2571C279.289 55.3764 279.1 55.5469 278.967 55.7685C278.833 55.9872 278.768 56.2443 278.771 56.5398C278.768 56.8409 278.835 57.1037 278.971 57.3281C279.11 57.5526 279.302 57.7273 279.547 57.8523C279.791 57.9773 280.072 58.0398 280.39 58.0398Z" fill="#37464B"/>
<path d="M334 158L794 158" stroke="#37464B"/>
<line y1="-0.5" x2="19" y2="-0.5" transform="matrix(-3.27835e-08 -1 -1 5.82819e-08 793 163)" stroke="#37464B"/>
<line y1="-0.5" x2="19" y2="-0.5" transform="matrix(-3.27835e-08 -1 -1 5.82819e-08 334 163)" stroke="#37464B"/>
<path d="M556.238 168.153C556.596 168.156 556.954 168.224 557.312 168.358C557.67 168.491 557.997 168.713 558.292 169.023C558.588 169.33 558.825 169.749 559.004 170.28C559.183 170.811 559.273 171.477 559.273 172.278C559.273 173.054 559.199 173.743 559.051 174.345C558.906 174.945 558.696 175.45 558.42 175.862C558.148 176.274 557.815 176.587 557.423 176.8C557.034 177.013 556.594 177.119 556.102 177.119C555.613 177.119 555.177 177.023 554.794 176.83C554.413 176.634 554.101 176.362 553.856 176.016C553.615 175.666 553.46 175.261 553.392 174.801L554.432 174.801C554.525 175.202 554.711 175.533 554.99 175.794C555.271 176.053 555.642 176.182 556.102 176.182C556.775 176.182 557.307 175.888 557.696 175.3C558.088 174.712 558.284 173.881 558.284 172.807L558.216 172.807C558.057 173.045 557.868 173.251 557.649 173.425C557.43 173.598 557.187 173.732 556.92 173.825C556.653 173.919 556.369 173.966 556.068 173.966C555.568 173.966 555.109 173.842 554.692 173.595C554.277 173.345 553.944 173.003 553.694 172.568C553.447 172.131 553.324 171.631 553.324 171.068C553.324 170.534 553.443 170.045 553.682 169.602C553.923 169.156 554.261 168.801 554.696 168.537C555.133 168.273 555.648 168.145 556.238 168.153ZM556.238 169.091C555.881 169.091 555.558 169.18 555.271 169.359C554.987 169.536 554.761 169.774 554.594 170.075C554.429 170.374 554.346 170.705 554.346 171.068C554.346 171.432 554.426 171.763 554.585 172.061C554.747 172.357 554.967 172.592 555.246 172.768C555.527 172.942 555.846 173.028 556.204 173.028C556.474 173.028 556.726 172.976 556.959 172.871C557.192 172.763 557.395 172.616 557.568 172.432C557.744 172.244 557.882 172.033 557.981 171.797C558.081 171.558 558.131 171.31 558.131 171.051C558.131 170.71 558.048 170.391 557.883 170.092C557.721 169.794 557.497 169.553 557.21 169.368C556.926 169.183 556.602 169.091 556.238 169.091ZM560.744 175.21L560.744 174.341L564.579 168.273L565.21 168.273L565.21 169.619L564.784 169.619L561.886 174.205L561.886 174.273L567.051 174.273L567.051 175.21L560.744 175.21ZM564.852 177L564.852 174.946L564.852 174.541L564.852 168.273L565.857 168.273L565.857 177L564.852 177ZM568.443 175.21L568.443 174.341L572.278 168.273L572.909 168.273L572.909 169.619L572.483 169.619L569.585 174.205L569.585 174.273L574.75 174.273L574.75 175.21L568.443 175.21ZM572.551 177L572.551 174.946L572.551 174.541L572.551 168.273L573.557 168.273L573.557 177L572.551 177Z" fill="#37464B"/>
<path d="M213 204L915 204" stroke="#37464B"/>
<line y1="-0.5" x2="19" y2="-0.5" transform="matrix(-3.74669e-08 -1 -1 5.09966e-08 914 209)" stroke="#37464B"/>
<path d="M553.733 214.273L553.733 223L552.676 223L552.676 215.381L552.625 215.381L550.495 216.795L550.495 215.722L552.676 214.273L553.733 214.273ZM556.039 221.21L556.039 220.341L559.874 214.273L560.505 214.273L560.505 215.619L560.078 215.619L557.181 220.205L557.181 220.273L562.346 220.273L562.346 221.21L556.039 221.21ZM560.147 223L560.147 220.946L560.147 220.541L560.147 214.273L561.152 214.273L561.152 223L560.147 223ZM563.738 221.21L563.738 220.341L567.573 214.273L568.204 214.273L568.204 215.619L567.778 215.619L564.88 220.205L564.88 220.273L570.045 220.273L570.045 221.21L563.738 221.21ZM567.846 223L567.846 220.946L567.846 220.541L567.846 214.273L568.852 214.273L568.852 223L567.846 223ZM574.488 223.119C573.846 223.119 573.299 222.945 572.848 222.595C572.396 222.243 572.051 221.733 571.812 221.065C571.574 220.395 571.454 219.585 571.454 218.636C571.454 217.693 571.574 216.888 571.812 216.22C572.054 215.55 572.4 215.038 572.852 214.686C573.306 214.331 573.852 214.153 574.488 214.153C575.125 214.153 575.669 214.331 576.12 214.686C576.575 215.038 576.922 215.55 577.16 216.22C577.402 216.888 577.522 217.693 577.522 218.636C577.522 219.585 577.403 220.395 577.164 221.065C576.926 221.733 576.581 222.243 576.129 222.595C575.677 222.945 575.13 223.119 574.488 223.119ZM574.488 222.182C575.125 222.182 575.619 221.875 575.971 221.261C576.324 220.648 576.5 219.773 576.5 218.636C576.5 217.881 576.419 217.237 576.257 216.706C576.098 216.175 575.868 215.77 575.566 215.491C575.268 215.213 574.909 215.074 574.488 215.074C573.858 215.074 573.365 215.385 573.01 216.007C572.654 216.626 572.477 217.503 572.477 218.636C572.477 219.392 572.556 220.034 572.716 220.562C572.875 221.091 573.103 221.493 573.402 221.768C573.703 222.044 574.065 222.182 574.488 222.182Z" fill="#37464B"/>
<line y1="-0.5" x2="19" y2="-0.5" transform="matrix(-3.74669e-08 -1 -1 5.09966e-08 213 209)" stroke="#37464B"/>
<path d="M443 74H451" stroke="#37464B"/>
<line x1="450.5" y1="69" x2="450.5" y2="88" stroke="#37464B"/>
<line x1="443.5" y1="69" x2="443.5" y2="88" stroke="#37464B"/>
<path d="M444.438 54.2727V63H443.382V55.3807H443.33L441.2 56.7955V55.7216L443.382 54.2727H444.438ZM449.846 63.1193C449.488 63.1136 449.13 63.0455 448.772 62.9148C448.414 62.7841 448.088 62.5639 447.792 62.2543C447.497 61.9418 447.259 61.5199 447.08 60.9886C446.901 60.4545 446.812 59.7841 446.812 58.9773C446.812 58.2045 446.884 57.5199 447.029 56.9233C447.174 56.3239 447.384 55.8196 447.66 55.4105C447.936 54.9986 448.268 54.6861 448.657 54.473C449.049 54.2599 449.491 54.1534 449.982 54.1534C450.471 54.1534 450.906 54.2514 451.286 54.4474C451.67 54.6406 451.982 54.9105 452.224 55.2571C452.465 55.6037 452.622 56.0028 452.693 56.4545H451.653C451.556 56.0625 451.369 55.7372 451.09 55.4787C450.812 55.2202 450.443 55.0909 449.982 55.0909C449.306 55.0909 448.774 55.3849 448.384 55.973C447.998 56.5611 447.803 57.3864 447.801 58.4489H447.869C448.028 58.2074 448.217 58.0014 448.436 57.831C448.657 57.6577 448.901 57.5241 449.169 57.4304C449.436 57.3366 449.718 57.2898 450.017 57.2898C450.517 57.2898 450.974 57.4148 451.389 57.6648C451.803 57.9119 452.136 58.2543 452.386 58.6918C452.636 59.1264 452.761 59.625 452.761 60.1875C452.761 60.7273 452.64 61.2216 452.399 61.6705C452.157 62.1165 451.818 62.4716 451.38 62.7358C450.945 62.9972 450.434 63.125 449.846 63.1193ZM449.846 62.1818C450.204 62.1818 450.525 62.0923 450.809 61.9134C451.096 61.7344 451.322 61.4943 451.487 61.1932C451.654 60.892 451.738 60.5568 451.738 60.1875C451.738 59.8267 451.657 59.4986 451.495 59.2031C451.336 58.9048 451.116 58.6676 450.835 58.4915C450.556 58.3153 450.238 58.2273 449.88 58.2273C449.61 58.2273 449.359 58.2812 449.126 58.3892C448.893 58.4943 448.688 58.6392 448.512 58.8239C448.339 59.0085 448.203 59.2202 448.103 59.4588C448.004 59.6946 447.954 59.9432 447.954 60.2045C447.954 60.5511 448.035 60.875 448.197 61.1761C448.362 61.4773 448.586 61.7202 448.87 61.9048C449.157 62.0895 449.482 62.1818 449.846 62.1818Z" fill="#37464B"/>
<g clip-path="url(#clip0_1230_1628)">
<rect x="213" y="96" width="121" height="60" fill="#CDE8DC"/>
<rect x="334" y="96" width="31" height="60" fill="#FFCFBF"/>
<rect x="365" y="96" width="8" height="60" fill="#F2F6F9"/>
<rect x="373" y="96" width="31" height="60" fill="#FFCFBF"/>
<rect x="404" y="96" width="8" height="60" fill="#F2F6F9"/>
<rect x="412" y="96" width="31" height="60" fill="#FFCFBF"/>
<rect x="443" y="96" width="8" height="60" fill="#F2F6F9"/>
<rect x="451" y="96" width="31" height="60" fill="#FFCFBF"/>
<rect x="482" y="96" width="8" height="60" fill="#F2F6F9"/>
<rect x="490" y="96" width="31" height="60" fill="#FFCFBF"/>
<rect x="521" y="96" width="8" height="60" fill="#F2F6F9"/>
<rect x="529" y="96" width="31" height="60" fill="#FFCFBF"/>
<rect x="560" y="96" width="8" height="60" fill="#F2F6F9"/>
<rect x="568" y="96" width="31" height="60" fill="#FFCFBF"/>
<rect x="599" y="96" width="8" height="60" fill="#F2F6F9"/>
<rect x="607" y="96" width="31" height="60" fill="#FFCFBF"/>
<rect x="638" y="96" width="8" height="60" fill="#F2F6F9"/>
<rect x="646" y="96" width="31" height="60" fill="#FFCFBF"/>
<rect x="677" y="96" width="8" height="60" fill="#F2F6F9"/>
<rect x="685" y="96" width="31" height="60" fill="#FFCFBF"/>
<rect x="716" y="96" width="8" height="60" fill="#F2F6F9"/>
<rect x="724" y="96" width="31" height="60" fill="#FFCFBF"/>
<rect x="755" y="96" width="8" height="60" fill="#F2F6F9"/>
<rect x="763" y="96" width="31" height="60" fill="#FFCFBF"/>
<rect x="794" y="96" width="121" height="60" fill="#CDE8DC"/>
</g>
<defs>
<clipPath id="clip0_1230_1628">
<rect width="702" height="40" fill="white" transform="translate(213 96)"/>
</clipPath>
</defs>
</svg>
