<svg width="1128" height="276" viewBox="0 0 1128 276" fill="none" xmlns="http://www.w3.org/2000/svg">
<rect width="1128" height="276" fill="#F2F6F9"/>
<path d="M354.944 74L387.055 74" stroke="#37464B"/>
<line x1="387.5" y1="69" x2="387.5" y2="88" stroke="#37464B"/>
<line x1="354.5" y1="69" x2="354.5" y2="88" stroke="#37464B"/>
<path d="M367.36 63.1193C367.002 63.1136 366.644 63.0455 366.286 62.9148C365.928 62.7841 365.601 62.5639 365.306 62.2543C365.01 61.9418 364.773 61.5199 364.594 60.9886C364.415 60.4545 364.326 59.7841 364.326 58.9773C364.326 58.2045 364.398 57.5199 364.543 56.9233C364.688 56.3239 364.898 55.8196 365.174 55.4105C365.449 54.9986 365.782 54.6861 366.171 54.473C366.563 54.2599 367.005 54.1534 367.496 54.1534C367.985 54.1534 368.419 54.2514 368.8 54.4474C369.184 54.6406 369.496 54.9105 369.738 55.2571C369.979 55.6037 370.135 56.0028 370.206 56.4545H369.167C369.07 56.0625 368.882 55.7372 368.604 55.4787C368.326 55.2202 367.956 55.0909 367.496 55.0909C366.82 55.0909 366.287 55.3849 365.898 55.973C365.512 56.5611 365.317 57.3864 365.314 58.4489H365.382C365.542 58.2074 365.73 58.0014 365.949 57.831C366.171 57.6577 366.415 57.5241 366.682 57.4304C366.949 57.3366 367.232 57.2898 367.53 57.2898C368.03 57.2898 368.488 57.4148 368.902 57.6648C369.317 57.9119 369.65 58.2543 369.9 58.6918C370.15 59.1264 370.275 59.625 370.275 60.1875C370.275 60.7273 370.154 61.2216 369.912 61.6705C369.671 62.1165 369.331 62.4716 368.894 62.7358C368.459 62.9972 367.948 63.125 367.36 63.1193ZM367.36 62.1818C367.718 62.1818 368.039 62.0923 368.323 61.9134C368.61 61.7344 368.836 61.4943 369 61.1932C369.168 60.892 369.252 60.5568 369.252 60.1875C369.252 59.8267 369.171 59.4986 369.009 59.2031C368.85 58.9048 368.63 58.6676 368.348 58.4915C368.07 58.3153 367.752 58.2273 367.394 58.2273C367.124 58.2273 366.873 58.2812 366.64 58.3892C366.407 58.4943 366.202 58.6392 366.026 58.8239C365.853 59.0085 365.716 59.2202 365.617 59.4588C365.517 59.6946 365.468 59.9432 365.468 60.2045C365.468 60.5511 365.549 60.875 365.711 61.1761C365.875 61.4773 366.1 61.7202 366.384 61.9048C366.671 62.0895 366.996 62.1818 367.36 62.1818ZM374.746 63.1193C374.161 63.1193 373.643 63.0156 373.195 62.8082C372.749 62.598 372.401 62.3097 372.151 61.9432C371.901 61.5739 371.777 61.1534 371.78 60.6818C371.777 60.3125 371.849 59.9716 371.997 59.6591C372.145 59.3437 372.347 59.081 372.602 58.8707C372.861 58.6577 373.149 58.5227 373.467 58.4659V58.4148C373.05 58.3068 372.717 58.0724 372.47 57.7116C372.223 57.348 372.101 56.9347 372.104 56.4716C372.101 56.0284 372.213 55.6321 372.44 55.2827C372.668 54.9332 372.98 54.6577 373.378 54.456C373.778 54.2543 374.234 54.1534 374.746 54.1534C375.251 54.1534 375.703 54.2543 376.101 54.456C376.499 54.6577 376.811 54.9332 377.038 55.2827C377.268 55.6321 377.385 56.0284 377.388 56.4716C377.385 56.9347 377.259 57.348 377.009 57.7116C376.761 58.0724 376.433 58.3068 376.024 58.4148V58.4659C376.339 58.5227 376.624 58.6577 376.876 58.8707C377.129 59.081 377.331 59.3437 377.482 59.6591C377.632 59.9716 377.709 60.3125 377.712 60.6818C377.709 61.1534 377.581 61.5739 377.328 61.9432C377.078 62.3097 376.73 62.598 376.284 62.8082C375.841 63.0156 375.328 63.1193 374.746 63.1193ZM374.746 62.1818C375.141 62.1818 375.482 62.1179 375.768 61.9901C376.055 61.8622 376.277 61.6818 376.433 61.4489C376.589 61.2159 376.669 60.9432 376.672 60.6307C376.669 60.3011 376.584 60.0099 376.416 59.7571C376.249 59.5043 376.02 59.3054 375.73 59.1605C375.443 59.0156 375.115 58.9432 374.746 58.9432C374.374 58.9432 374.041 59.0156 373.749 59.1605C373.459 59.3054 373.23 59.5043 373.062 59.7571C372.898 60.0099 372.817 60.3011 372.82 60.6307C372.817 60.9432 372.892 61.2159 373.045 61.4489C373.202 61.6818 373.425 61.8622 373.714 61.9901C374.004 62.1179 374.348 62.1818 374.746 62.1818ZM374.746 58.0398C375.058 58.0398 375.335 57.9773 375.577 57.8523C375.821 57.7273 376.013 57.5526 376.152 57.3281C376.291 57.1037 376.362 56.8409 376.365 56.5398C376.362 56.2443 376.293 55.9872 376.156 55.7685C376.02 55.5469 375.831 55.3764 375.589 55.2571C375.348 55.1349 375.067 55.0739 374.746 55.0739C374.419 55.0739 374.134 55.1349 373.889 55.2571C373.645 55.3764 373.456 55.5469 373.322 55.7685C373.189 55.9872 373.124 56.2443 373.126 56.5398C373.124 56.8409 373.19 57.1037 373.327 57.3281C373.466 57.5526 373.658 57.7273 373.902 57.8523C374.146 57.9773 374.428 58.0398 374.746 58.0398Z" fill="#37464B"/>
<path d="M190 74L310.376 74" stroke="#37464B"/>
<line x1="310.5" y1="69" x2="310.5" y2="88" stroke="#37464B"/>
<line x1="190.5" y1="69" x2="190.5" y2="88" stroke="#37464B"/>
<path d="M239.87 63V62.233L242.751 59.0795C243.089 58.7102 243.367 58.3892 243.586 58.1165C243.805 57.8409 243.967 57.5824 244.072 57.3409C244.18 57.0966 244.234 56.8409 244.234 56.5739C244.234 56.267 244.16 56.0014 244.012 55.777C243.867 55.5526 243.669 55.3793 243.416 55.2571C243.163 55.1349 242.879 55.0739 242.563 55.0739C242.228 55.0739 241.936 55.1435 241.686 55.2827C241.438 55.419 241.247 55.6108 241.11 55.858C240.977 56.1051 240.91 56.3949 240.91 56.7273H239.904C239.904 56.2159 240.022 55.767 240.258 55.3807C240.494 54.9943 240.815 54.6932 241.221 54.4773C241.63 54.2614 242.089 54.1534 242.597 54.1534C243.109 54.1534 243.562 54.2614 243.957 54.4773C244.352 54.6932 244.661 54.9844 244.886 55.3509C245.11 55.7173 245.222 56.125 245.222 56.5739C245.222 56.8949 245.164 57.2088 245.048 57.5156C244.934 57.8196 244.735 58.1591 244.451 58.5341C244.17 58.9062 243.779 59.3608 243.279 59.8977L241.319 61.9943V62.0625H245.376V63H239.87ZM249.863 63.1193C249.363 63.1193 248.913 63.0199 248.512 62.821C248.112 62.6222 247.791 62.3494 247.549 62.0028C247.308 61.6562 247.176 61.2614 247.153 60.8182H248.176C248.215 61.2131 248.394 61.5398 248.713 61.7983C249.034 62.054 249.417 62.1818 249.863 62.1818C250.221 62.1818 250.539 62.098 250.818 61.9304C251.099 61.7628 251.319 61.5327 251.478 61.2401C251.64 60.9446 251.721 60.6108 251.721 60.2386C251.721 59.858 251.637 59.5185 251.47 59.2202C251.305 58.919 251.078 58.6818 250.788 58.5085C250.498 58.3352 250.167 58.2472 249.795 58.2443C249.528 58.2415 249.254 58.2827 248.972 58.3679C248.691 58.4503 248.46 58.5568 248.278 58.6875L247.289 58.5682L247.818 54.2727H252.352V55.2102H248.704L248.397 57.7841H248.448C248.627 57.642 248.852 57.5241 249.122 57.4304C249.392 57.3366 249.673 57.2898 249.965 57.2898C250.499 57.2898 250.975 57.4176 251.393 57.6733C251.813 57.9261 252.143 58.2727 252.382 58.7131C252.623 59.1534 252.744 59.6562 252.744 60.2216C252.744 60.7784 252.619 61.2756 252.369 61.7131C252.122 62.1477 251.781 62.4915 251.346 62.7443C250.911 62.9943 250.417 63.1193 249.863 63.1193ZM257.283 63.1193C256.641 63.1193 256.094 62.9446 255.643 62.5952C255.191 62.2429 254.846 61.733 254.607 61.0653C254.368 60.3949 254.249 59.5852 254.249 58.6364C254.249 57.6932 254.368 56.8878 254.607 56.2202C254.849 55.5497 255.195 55.0384 255.647 54.6861C256.101 54.331 256.647 54.1534 257.283 54.1534C257.92 54.1534 258.464 54.331 258.915 54.6861C259.37 55.0384 259.716 55.5497 259.955 56.2202C260.197 56.8878 260.317 57.6932 260.317 58.6364C260.317 59.5852 260.198 60.3949 259.959 61.0653C259.721 61.733 259.376 62.2429 258.924 62.5952C258.472 62.9446 257.925 63.1193 257.283 63.1193ZM257.283 62.1818C257.92 62.1818 258.414 61.875 258.766 61.2614C259.118 60.6477 259.295 59.7727 259.295 58.6364C259.295 57.8807 259.214 57.2372 259.052 56.706C258.893 56.1747 258.662 55.7699 258.361 55.4915C258.063 55.2131 257.704 55.0739 257.283 55.0739C256.653 55.0739 256.16 55.3849 255.805 56.0071C255.449 56.6264 255.272 57.5028 255.272 58.6364C255.272 59.392 255.351 60.0341 255.51 60.5625C255.67 61.0909 255.898 61.4929 256.197 61.7685C256.498 62.044 256.86 62.1818 257.283 62.1818Z" fill="#37464B"/>
<path d="M311 158L816.998 158" stroke="#37464B"/>
<line y1="-0.5" x2="19" y2="-0.5" transform="matrix(-4.37114e-08 -1 -1 4.37114e-08 816 163)" stroke="#37464B"/>
<line y1="-0.5" x2="19" y2="-0.5" transform="matrix(-4.37114e-08 -1 -1 4.37114e-08 311 163)" stroke="#37464B"/>
<path d="M553.868 168.273V177H552.811V169.381H552.76L550.629 170.795V169.722L552.811 168.273H553.868ZM559.225 177.119C558.583 177.119 558.036 176.945 557.584 176.595C557.132 176.243 556.787 175.733 556.548 175.065C556.31 174.395 556.191 173.585 556.191 172.636C556.191 171.693 556.31 170.888 556.548 170.22C556.79 169.55 557.137 169.038 557.588 168.686C558.043 168.331 558.588 168.153 559.225 168.153C559.861 168.153 560.405 168.331 560.857 168.686C561.311 169.038 561.658 169.55 561.896 170.22C562.138 170.888 562.259 171.693 562.259 172.636C562.259 173.585 562.139 174.395 561.901 175.065C561.662 175.733 561.317 176.243 560.865 176.595C560.414 176.945 559.867 177.119 559.225 177.119ZM559.225 176.182C559.861 176.182 560.355 175.875 560.708 175.261C561.06 174.648 561.236 173.773 561.236 172.636C561.236 171.881 561.155 171.237 560.993 170.706C560.834 170.175 560.604 169.77 560.303 169.491C560.004 169.213 559.645 169.074 559.225 169.074C558.594 169.074 558.101 169.385 557.746 170.007C557.391 170.626 557.213 171.503 557.213 172.636C557.213 173.392 557.293 174.034 557.452 174.562C557.611 175.091 557.84 175.493 558.138 175.768C558.439 176.044 558.801 176.182 559.225 176.182ZM566.827 177.119C566.264 177.119 565.763 177.023 565.323 176.83C564.885 176.636 564.537 176.368 564.279 176.024C564.023 175.678 563.884 175.276 563.861 174.818H564.935C564.958 175.099 565.054 175.342 565.225 175.547C565.395 175.749 565.618 175.905 565.894 176.016C566.169 176.126 566.475 176.182 566.81 176.182C567.185 176.182 567.517 176.116 567.807 175.986C568.097 175.855 568.324 175.673 568.489 175.44C568.654 175.207 568.736 174.938 568.736 174.631C568.736 174.31 568.656 174.027 568.497 173.783C568.338 173.536 568.105 173.342 567.798 173.203C567.492 173.064 567.117 172.994 566.673 172.994H565.975V172.057H566.673C567.02 172.057 567.324 171.994 567.585 171.869C567.85 171.744 568.056 171.568 568.203 171.341C568.354 171.114 568.429 170.847 568.429 170.54C568.429 170.244 568.364 169.987 568.233 169.768C568.102 169.55 567.918 169.379 567.679 169.257C567.443 169.135 567.165 169.074 566.844 169.074C566.543 169.074 566.259 169.129 565.992 169.24C565.727 169.348 565.512 169.506 565.344 169.713C565.176 169.918 565.085 170.165 565.071 170.455H564.048C564.066 169.997 564.203 169.597 564.462 169.253C564.72 168.906 565.058 168.636 565.476 168.443C565.896 168.25 566.358 168.153 566.861 168.153C567.401 168.153 567.864 168.263 568.25 168.482C568.637 168.697 568.933 168.983 569.141 169.338C569.348 169.693 569.452 170.077 569.452 170.489C569.452 170.98 569.323 171.399 569.064 171.746C568.808 172.092 568.46 172.332 568.02 172.466V172.534C568.571 172.625 569.002 172.859 569.311 173.237C569.621 173.612 569.776 174.077 569.776 174.631C569.776 175.105 569.646 175.531 569.388 175.909C569.132 176.284 568.783 176.58 568.34 176.795C567.896 177.011 567.392 177.119 566.827 177.119ZM574.416 177.119C574.058 177.114 573.7 177.045 573.343 176.915C572.985 176.784 572.658 176.564 572.362 176.254C572.067 175.942 571.83 175.52 571.651 174.989C571.472 174.455 571.382 173.784 571.382 172.977C571.382 172.205 571.455 171.52 571.6 170.923C571.744 170.324 571.955 169.82 572.23 169.411C572.506 168.999 572.838 168.686 573.227 168.473C573.619 168.26 574.061 168.153 574.553 168.153C575.041 168.153 575.476 168.251 575.857 168.447C576.24 168.641 576.553 168.911 576.794 169.257C577.036 169.604 577.192 170.003 577.263 170.455H576.223C576.127 170.062 575.939 169.737 575.661 169.479C575.382 169.22 575.013 169.091 574.553 169.091C573.877 169.091 573.344 169.385 572.955 169.973C572.568 170.561 572.374 171.386 572.371 172.449H572.439C572.598 172.207 572.787 172.001 573.006 171.831C573.227 171.658 573.472 171.524 573.739 171.43C574.006 171.337 574.289 171.29 574.587 171.29C575.087 171.29 575.544 171.415 575.959 171.665C576.374 171.912 576.706 172.254 576.956 172.692C577.206 173.126 577.331 173.625 577.331 174.188C577.331 174.727 577.21 175.222 576.969 175.67C576.727 176.116 576.388 176.472 575.95 176.736C575.516 176.997 575.004 177.125 574.416 177.119ZM574.416 176.182C574.774 176.182 575.095 176.092 575.379 175.913C575.666 175.734 575.892 175.494 576.057 175.193C576.225 174.892 576.308 174.557 576.308 174.188C576.308 173.827 576.227 173.499 576.066 173.203C575.906 172.905 575.686 172.668 575.405 172.491C575.127 172.315 574.808 172.227 574.45 172.227C574.181 172.227 573.929 172.281 573.696 172.389C573.463 172.494 573.259 172.639 573.083 172.824C572.909 173.009 572.773 173.22 572.673 173.459C572.574 173.695 572.524 173.943 572.524 174.205C572.524 174.551 572.605 174.875 572.767 175.176C572.932 175.477 573.156 175.72 573.441 175.905C573.727 176.089 574.053 176.182 574.416 176.182Z" fill="#37464B"/>
<path d="M190 204L938 204" stroke="#37464B"/>
<line y1="-0.5" x2="19" y2="-0.5" transform="matrix(-4.37114e-08 -1 -1 4.37114e-08 937 209)" stroke="#37464B"/>
<path d="M553.968 214.273V223H552.911V215.381H552.86L550.729 216.795V215.722L552.911 214.273H553.968ZM559.205 223.119C558.705 223.119 558.255 223.02 557.854 222.821C557.453 222.622 557.132 222.349 556.891 222.003C556.65 221.656 556.517 221.261 556.495 220.818H557.517C557.557 221.213 557.736 221.54 558.054 221.798C558.375 222.054 558.759 222.182 559.205 222.182C559.563 222.182 559.881 222.098 560.159 221.93C560.441 221.763 560.661 221.533 560.82 221.24C560.982 220.945 561.063 220.611 561.063 220.239C561.063 219.858 560.979 219.518 560.811 219.22C560.647 218.919 560.419 218.682 560.13 218.509C559.84 218.335 559.509 218.247 559.137 218.244C558.87 218.241 558.596 218.283 558.314 218.368C558.033 218.45 557.801 218.557 557.62 218.688L556.631 218.568L557.159 214.273H561.694V215.21H558.046L557.739 217.784H557.79C557.969 217.642 558.194 217.524 558.463 217.43C558.733 217.337 559.015 217.29 559.307 217.29C559.841 217.29 560.317 217.418 560.735 217.673C561.155 217.926 561.485 218.273 561.723 218.713C561.965 219.153 562.086 219.656 562.086 220.222C562.086 220.778 561.961 221.276 561.711 221.713C561.463 222.148 561.123 222.491 560.688 222.744C560.253 222.994 559.759 223.119 559.205 223.119ZM566.727 223.119C566.165 223.119 565.663 223.023 565.223 222.83C564.786 222.636 564.438 222.368 564.179 222.024C563.923 221.678 563.784 221.276 563.761 220.818H564.835C564.858 221.099 564.955 221.342 565.125 221.547C565.295 221.749 565.518 221.905 565.794 222.016C566.07 222.126 566.375 222.182 566.71 222.182C567.085 222.182 567.418 222.116 567.707 221.986C567.997 221.855 568.224 221.673 568.389 221.44C568.554 221.207 568.636 220.938 568.636 220.631C568.636 220.31 568.557 220.027 568.398 219.783C568.239 219.536 568.006 219.342 567.699 219.203C567.392 219.064 567.017 218.994 566.574 218.994H565.875V218.057H566.574C566.92 218.057 567.224 217.994 567.486 217.869C567.75 217.744 567.956 217.568 568.104 217.341C568.254 217.114 568.33 216.847 568.33 216.54C568.33 216.244 568.264 215.987 568.134 215.768C568.003 215.55 567.818 215.379 567.58 215.257C567.344 215.135 567.065 215.074 566.744 215.074C566.443 215.074 566.159 215.129 565.892 215.24C565.628 215.348 565.412 215.506 565.244 215.713C565.077 215.918 564.986 216.165 564.972 216.455H563.949C563.966 215.997 564.104 215.597 564.362 215.253C564.621 214.906 564.959 214.636 565.376 214.443C565.797 214.25 566.259 214.153 566.761 214.153C567.301 214.153 567.764 214.263 568.151 214.482C568.537 214.697 568.834 214.983 569.041 215.338C569.249 215.693 569.352 216.077 569.352 216.489C569.352 216.98 569.223 217.399 568.964 217.746C568.709 218.092 568.361 218.332 567.92 218.466V218.534C568.472 218.625 568.902 218.859 569.212 219.237C569.521 219.612 569.676 220.077 569.676 220.631C569.676 221.105 569.547 221.531 569.288 221.909C569.033 222.284 568.683 222.58 568.24 222.795C567.797 223.011 567.293 223.119 566.727 223.119ZM574.317 223.119C573.959 223.114 573.601 223.045 573.243 222.915C572.885 222.784 572.558 222.564 572.263 222.254C571.967 221.942 571.73 221.52 571.551 220.989C571.372 220.455 571.283 219.784 571.283 218.977C571.283 218.205 571.355 217.52 571.5 216.923C571.645 216.324 571.855 215.82 572.131 215.411C572.406 214.999 572.739 214.686 573.128 214.473C573.52 214.26 573.962 214.153 574.453 214.153C574.942 214.153 575.376 214.251 575.757 214.447C576.141 214.641 576.453 214.911 576.695 215.257C576.936 215.604 577.092 216.003 577.163 216.455H576.124C576.027 216.062 575.839 215.737 575.561 215.479C575.283 215.22 574.913 215.091 574.453 215.091C573.777 215.091 573.244 215.385 572.855 215.973C572.469 216.561 572.274 217.386 572.271 218.449H572.339C572.499 218.207 572.688 218.001 572.906 217.831C573.128 217.658 573.372 217.524 573.639 217.43C573.906 217.337 574.189 217.29 574.487 217.29C574.987 217.29 575.445 217.415 575.859 217.665C576.274 217.912 576.607 218.254 576.857 218.692C577.107 219.126 577.232 219.625 577.232 220.188C577.232 220.727 577.111 221.222 576.869 221.67C576.628 222.116 576.288 222.472 575.851 222.736C575.416 222.997 574.905 223.125 574.317 223.119ZM574.317 222.182C574.675 222.182 574.996 222.092 575.28 221.913C575.567 221.734 575.793 221.494 575.957 221.193C576.125 220.892 576.209 220.557 576.209 220.188C576.209 219.827 576.128 219.499 575.966 219.203C575.807 218.905 575.587 218.668 575.305 218.491C575.027 218.315 574.709 218.227 574.351 218.227C574.081 218.227 573.83 218.281 573.597 218.389C573.364 218.494 573.159 218.639 572.983 218.824C572.81 219.009 572.673 219.22 572.574 219.459C572.474 219.695 572.425 219.943 572.425 220.205C572.425 220.551 572.506 220.875 572.668 221.176C572.832 221.477 573.057 221.72 573.341 221.905C573.628 222.089 573.953 222.182 574.317 222.182Z" fill="#37464B"/>
<path d="M429 74H441" stroke="#37464B"/>
<path d="M440.5 69L440.5 88" stroke="#37464B"/>
<line x1="429.5" y1="69" x2="429.5" y2="88" stroke="#37464B"/>
<path d="M428.521 63V62.233L431.401 59.0795C431.739 58.7102 432.018 58.3892 432.237 58.1165C432.455 57.8409 432.617 57.5824 432.722 57.3409C432.83 57.0966 432.884 56.8409 432.884 56.5739C432.884 56.267 432.81 56.0014 432.663 55.777C432.518 55.5526 432.319 55.3793 432.066 55.2571C431.813 55.1349 431.529 55.0739 431.214 55.0739C430.879 55.0739 430.586 55.1435 430.336 55.2827C430.089 55.419 429.897 55.6108 429.761 55.858C429.627 56.1051 429.56 56.3949 429.56 56.7273H428.555C428.555 56.2159 428.673 55.767 428.908 55.3807C429.144 54.9943 429.465 54.6932 429.871 54.4773C430.281 54.2614 430.739 54.1534 431.248 54.1534C431.759 54.1534 432.212 54.2614 432.607 54.4773C433.002 54.6932 433.312 54.9844 433.536 55.3509C433.761 55.7173 433.873 56.125 433.873 56.5739C433.873 56.8949 433.815 57.2088 433.698 57.5156C433.585 57.8196 433.386 58.1591 433.102 58.5341C432.82 58.9062 432.43 59.3608 431.93 59.8977L429.969 61.9943V62.0625H434.026V63H428.521ZM438.633 63.1193C437.991 63.1193 437.444 62.9446 436.992 62.5952C436.54 62.2429 436.195 61.733 435.957 61.0653C435.718 60.3949 435.599 59.5852 435.599 58.6364C435.599 57.6932 435.718 56.8878 435.957 56.2202C436.198 55.5497 436.545 55.0384 436.996 54.6861C437.451 54.331 437.996 54.1534 438.633 54.1534C439.269 54.1534 439.813 54.331 440.265 54.6861C440.719 55.0384 441.066 55.5497 441.305 56.2202C441.546 56.8878 441.667 57.6932 441.667 58.6364C441.667 59.5852 441.548 60.3949 441.309 61.0653C441.07 61.733 440.725 62.2429 440.273 62.5952C439.822 62.9446 439.275 63.1193 438.633 63.1193ZM438.633 62.1818C439.269 62.1818 439.763 61.875 440.116 61.2614C440.468 60.6477 440.644 59.7727 440.644 58.6364C440.644 57.8807 440.563 57.2372 440.401 56.706C440.242 56.1747 440.012 55.7699 439.711 55.4915C439.413 55.2131 439.053 55.0739 438.633 55.0739C438.002 55.0739 437.509 55.3849 437.154 56.0071C436.799 56.6264 436.621 57.5028 436.621 58.6364C436.621 59.392 436.701 60.0341 436.86 60.5625C437.019 61.0909 437.248 61.4929 437.546 61.7685C437.847 62.044 438.21 62.1818 438.633 62.1818Z" fill="#37464B"/>
<line y1="-0.5" x2="19" y2="-0.5" transform="matrix(-4.37114e-08 -1 -1 4.37114e-08 190 209)" stroke="#37464B"/>
<g clip-path="url(#clip0_1230_1541)">
<rect x="190" y="96" width="121" height="60" fill="#CDE8DC"/>
<rect x="311" y="96" width="34" height="60" fill="#FFCFBF"/>
<rect x="345" y="96" width="9" height="60" fill="#F2F6F9"/>
<rect x="354" y="96" width="34" height="60" fill="#FFCFBF"/>
<rect x="388" y="96" width="9" height="60" fill="#F2F6F9"/>
<rect x="397" y="96" width="33" height="60" fill="#FFCFBF"/>
<rect x="430" y="96" width="10" height="60" fill="#F2F6F9"/>
<rect x="440" y="96" width="33" height="60" fill="#FFCFBF"/>
<rect x="473" y="96" width="10" height="60" fill="#F2F6F9"/>
<rect x="483" y="96" width="33" height="60" fill="#FFCFBF"/>
<rect x="516" y="96" width="10" height="60" fill="#F2F6F9"/>
<rect x="526" y="96" width="33" height="60" fill="#FFCFBF"/>
<rect x="559" y="96" width="10" height="60" fill="#F2F6F9"/>
<rect x="569" y="96" width="33" height="60" fill="#FFCFBF"/>
<rect x="602" y="96" width="10" height="60" fill="#F2F6F9"/>
<rect x="612" y="96" width="33" height="60" fill="#FFCFBF"/>
<rect x="645" y="96" width="10" height="60" fill="#F2F6F9"/>
<rect x="655" y="96" width="33" height="60" fill="#FFCFBF"/>
<rect x="688" y="96" width="10" height="60" fill="#F2F6F9"/>
<rect x="698" y="96" width="33" height="60" fill="#FFCFBF"/>
<rect x="731" y="96" width="9" height="60" fill="#F2F6F9"/>
<rect x="740" y="96" width="34" height="60" fill="#FFCFBF"/>
<rect x="774" y="96" width="9" height="60" fill="#F2F6F9"/>
<rect x="783" y="96" width="34" height="60" fill="#FFCFBF"/>
<rect x="817" y="96" width="121" height="60" fill="#CDE8DC"/>
</g>
<defs>
<clipPath id="clip0_1230_1541">
<rect width="748" height="40" fill="white" transform="translate(190 96)"/>
</clipPath>
</defs>
</svg>
