<svg width="1128" height="276" viewBox="0 0 1128 276" fill="none" xmlns="http://www.w3.org/2000/svg">
<rect width="1128" height="276" fill="#F2F6F9"/>
<g clip-path="url(#clip0_1228_3256)">
<rect x="96" y="96" width="193" height="60" fill="#CDE8DC"/>
<rect x="289" y="96" width="35" height="60" fill="#FFCFBF"/>
<rect x="324" y="96" width="12" height="60" fill="#F2F6F9"/>
<rect x="336" y="96" width="35" height="60" fill="#FFCFBF"/>
<rect x="371" y="96" width="12" height="60" fill="#F2F6F9"/>
<rect x="383" y="96" width="35" height="60" fill="#FFCFBF"/>
<rect x="418" y="96" width="11" height="60" fill="#F2F6F9"/>
<rect x="429" y="96" width="36" height="60" fill="#FFCFBF"/>
<rect x="465" y="96" width="11" height="60" fill="#F2F6F9"/>
<rect x="476" y="96" width="35" height="60" fill="#FFCFBF"/>
<rect x="511" y="96" width="12" height="60" fill="#F2F6F9"/>
<rect x="523" y="96" width="35" height="60" fill="#FFCFBF"/>
<rect x="558" y="96" width="12" height="60" fill="#F2F6F9"/>
<rect x="570" y="96" width="35" height="60" fill="#FFCFBF"/>
<rect x="605" y="96" width="12" height="60" fill="#F2F6F9"/>
<rect x="617" y="96" width="35" height="60" fill="#FFCFBF"/>
<rect x="652" y="96" width="11" height="60" fill="#F2F6F9"/>
<rect x="663" y="96" width="36" height="60" fill="#FFCFBF"/>
<rect x="699" y="96" width="11" height="60" fill="#F2F6F9"/>
<rect x="710" y="96" width="35" height="60" fill="#FFCFBF"/>
<rect x="745" y="96" width="12" height="60" fill="#F2F6F9"/>
<rect x="757" y="96" width="35" height="60" fill="#FFCFBF"/>
<rect x="792" y="96" width="12" height="60" fill="#F2F6F9"/>
<rect x="804" y="96" width="35" height="60" fill="#FFCFBF"/>
<rect x="839" y="96" width="193" height="60" fill="#CDE8DC"/>
</g>
<path d="M336 74L370 74" stroke="#37464B"/>
<line x1="370.5" y1="69" x2="370.5" y2="88" stroke="#37464B"/>
<line x1="335.5" y1="69" x2="335.5" y2="88" stroke="#37464B"/>
<path d="M347.116 63L351.019 55.2784V55.2102H346.519V54.2727H352.11V55.2614L348.224 63H347.116ZM353.698 63V62.233L356.579 59.0795C356.917 58.7102 357.195 58.3892 357.414 58.1165C357.633 57.8409 357.795 57.5824 357.9 57.3409C358.008 57.0966 358.062 56.8409 358.062 56.5739C358.062 56.267 357.988 56.0014 357.84 55.777C357.695 55.5526 357.497 55.3793 357.244 55.2571C356.991 55.1349 356.707 55.0739 356.392 55.0739C356.056 55.0739 355.764 55.1435 355.514 55.2827C355.267 55.419 355.075 55.6108 354.938 55.858C354.805 56.1051 354.738 56.3949 354.738 56.7273H353.732C353.732 56.2159 353.85 55.767 354.086 55.3807C354.322 54.9943 354.643 54.6932 355.049 54.4773C355.458 54.2614 355.917 54.1534 356.426 54.1534C356.937 54.1534 357.39 54.2614 357.785 54.4773C358.18 54.6932 358.49 54.9844 358.714 55.3509C358.938 55.7173 359.051 56.125 359.051 56.5739C359.051 56.8949 358.992 57.2088 358.876 57.5156C358.762 57.8196 358.563 58.1591 358.279 58.5341C357.998 58.9062 357.607 59.3608 357.107 59.8977L355.147 61.9943V62.0625H359.204V63H353.698Z" fill="#37464B"/>
<path d="M96 74L289 74" stroke="#37464B"/>
<line x1="289.5" y1="69" x2="289.5" y2="88" stroke="#37464B"/>
<line x1="96.5" y1="69" x2="96.5" y2="88" stroke="#37464B"/>
<path d="M185.544 63.1193C184.981 63.1193 184.48 63.0227 184.039 62.8295C183.602 62.6364 183.254 62.3679 182.995 62.0241C182.74 61.6776 182.6 61.2756 182.578 60.8182H183.652C183.674 61.0994 183.771 61.3423 183.941 61.5469C184.112 61.7486 184.335 61.9048 184.61 62.0156C184.886 62.1264 185.191 62.1818 185.527 62.1818C185.902 62.1818 186.234 62.1165 186.524 61.9858C186.814 61.8551 187.041 61.6733 187.206 61.4403C187.37 61.2074 187.453 60.9375 187.453 60.6307C187.453 60.3097 187.373 60.027 187.214 59.7827C187.055 59.5355 186.822 59.3423 186.515 59.2031C186.208 59.0639 185.833 58.9943 185.39 58.9943H184.691V58.0568H185.39C185.737 58.0568 186.041 57.9943 186.302 57.8693C186.566 57.7443 186.772 57.5682 186.92 57.3409C187.071 57.1136 187.146 56.8466 187.146 56.5398C187.146 56.2443 187.081 55.9872 186.95 55.7685C186.819 55.5497 186.635 55.3793 186.396 55.2571C186.16 55.1349 185.882 55.0739 185.561 55.0739C185.26 55.0739 184.975 55.1293 184.708 55.2401C184.444 55.348 184.228 55.5057 184.061 55.7131C183.893 55.9176 183.802 56.1648 183.788 56.4545H182.765C182.782 55.9972 182.92 55.5966 183.179 55.2528C183.437 54.9062 183.775 54.6364 184.193 54.4432C184.613 54.25 185.075 54.1534 185.578 54.1534C186.118 54.1534 186.581 54.2628 186.967 54.4815C187.353 54.6974 187.65 54.983 187.858 55.3381C188.065 55.6932 188.169 56.0767 188.169 56.4886C188.169 56.9801 188.039 57.3991 187.781 57.7457C187.525 58.0923 187.177 58.3324 186.737 58.4659V58.5341C187.288 58.625 187.718 58.8594 188.028 59.2372C188.338 59.6122 188.493 60.0767 188.493 60.6307C188.493 61.1051 188.363 61.5312 188.105 61.9091C187.849 62.2841 187.5 62.5795 187.056 62.7955C186.613 63.0114 186.109 63.1193 185.544 63.1193ZM193.014 54.1534C193.372 54.1562 193.73 54.2244 194.088 54.358C194.446 54.4915 194.772 54.7131 195.068 55.0227C195.363 55.3295 195.6 55.7486 195.779 56.2798C195.958 56.8111 196.048 57.4773 196.048 58.2784C196.048 59.054 195.974 59.7429 195.826 60.3452C195.681 60.9446 195.471 61.4503 195.196 61.8622C194.923 62.2741 194.591 62.5866 194.199 62.7997C193.809 63.0128 193.369 63.1193 192.877 63.1193C192.389 63.1193 191.953 63.0227 191.569 62.8295C191.189 62.6335 190.876 62.3622 190.632 62.0156C190.39 61.6662 190.235 61.2614 190.167 60.8011H191.207C191.301 61.2017 191.487 61.5327 191.765 61.794C192.047 62.0526 192.417 62.1818 192.877 62.1818C193.551 62.1818 194.082 61.8878 194.471 61.2997C194.863 60.7116 195.059 59.8807 195.059 58.8068H194.991C194.832 59.0455 194.643 59.2514 194.424 59.4247C194.206 59.598 193.963 59.7315 193.696 59.8253C193.429 59.919 193.145 59.9659 192.843 59.9659C192.343 59.9659 191.885 59.8423 191.467 59.5952C191.052 59.3452 190.72 59.0028 190.47 58.5682C190.223 58.1307 190.099 57.6307 190.099 57.0682C190.099 56.5341 190.218 56.0455 190.457 55.6023C190.699 55.1562 191.037 54.8011 191.471 54.5369C191.909 54.2727 192.423 54.1449 193.014 54.1534ZM193.014 55.0909C192.656 55.0909 192.333 55.1804 192.047 55.3594C191.762 55.5355 191.537 55.7741 191.369 56.0753C191.204 56.3736 191.122 56.7045 191.122 57.0682C191.122 57.4318 191.201 57.7628 191.36 58.0611C191.522 58.3565 191.743 58.5923 192.021 58.7685C192.302 58.9418 192.622 59.0284 192.98 59.0284C193.25 59.0284 193.501 58.9759 193.734 58.8707C193.967 58.7628 194.17 58.6165 194.343 58.4318C194.52 58.2443 194.657 58.0327 194.757 57.7969C194.856 57.5582 194.906 57.3097 194.906 57.0511C194.906 56.7102 194.824 56.3906 194.659 56.0923C194.497 55.794 194.272 55.5526 193.985 55.3679C193.701 55.1832 193.377 55.0909 193.014 55.0909ZM200.621 63.1193C200.263 63.1136 199.906 63.0455 199.548 62.9148C199.19 62.7841 198.863 62.5639 198.567 62.2543C198.272 61.9418 198.035 61.5199 197.856 60.9886C197.677 60.4545 197.587 59.7841 197.587 58.9773C197.587 58.2045 197.66 57.5199 197.805 56.9233C197.95 56.3239 198.16 55.8196 198.435 55.4105C198.711 54.9986 199.043 54.6861 199.433 54.473C199.825 54.2599 200.266 54.1534 200.758 54.1534C201.246 54.1534 201.681 54.2514 202.062 54.4474C202.445 54.6406 202.758 54.9105 202.999 55.2571C203.241 55.6037 203.397 56.0028 203.468 56.4545H202.428C202.332 56.0625 202.144 55.7372 201.866 55.4787C201.587 55.2202 201.218 55.0909 200.758 55.0909C200.082 55.0909 199.549 55.3849 199.16 55.973C198.773 56.5611 198.579 57.3864 198.576 58.4489H198.644C198.803 58.2074 198.992 58.0014 199.211 57.831C199.433 57.6577 199.677 57.5241 199.944 57.4304C200.211 57.3366 200.494 57.2898 200.792 57.2898C201.292 57.2898 201.749 57.4148 202.164 57.6648C202.579 57.9119 202.911 58.2543 203.161 58.6918C203.411 59.1264 203.536 59.625 203.536 60.1875C203.536 60.7273 203.415 61.2216 203.174 61.6705C202.933 62.1165 202.593 62.4716 202.156 62.7358C201.721 62.9972 201.21 63.125 200.621 63.1193ZM200.621 62.1818C200.979 62.1818 201.3 62.0923 201.585 61.9134C201.871 61.7344 202.097 61.4943 202.262 61.1932C202.43 60.892 202.513 60.5568 202.513 60.1875C202.513 59.8267 202.433 59.4986 202.271 59.2031C202.112 58.9048 201.891 58.6676 201.61 58.4915C201.332 58.3153 201.013 58.2273 200.656 58.2273C200.386 58.2273 200.134 58.2812 199.901 58.3892C199.668 58.4943 199.464 58.6392 199.288 58.8239C199.114 59.0085 198.978 59.2202 198.879 59.4588C198.779 59.6946 198.729 59.9432 198.729 60.2045C198.729 60.5511 198.81 60.875 198.972 61.1761C199.137 61.4773 199.362 61.7202 199.646 61.9048C199.933 62.0895 200.258 62.1818 200.621 62.1818Z" fill="#37464B"/>
<path d="M289 158L838.998 158" stroke="#37464B"/>
<line y1="-0.5" x2="19" y2="-0.5" transform="matrix(-4.37114e-08 -1 -1 4.37114e-08 838 163)" stroke="#37464B"/>
<line y1="-0.5" x2="19" y2="-0.5" transform="matrix(-4.37114e-08 -1 -1 4.37114e-08 289 163)" stroke="#37464B"/>
<path d="M555.063 168.273V177H554.007V169.381H553.955L551.825 170.795V169.722L554.007 168.273H555.063ZM560.642 168.273V177H559.585V169.381H559.534L557.403 170.795V169.722L559.585 168.273H560.642ZM563.151 177V176.233L566.032 173.08C566.37 172.71 566.649 172.389 566.867 172.116C567.086 171.841 567.248 171.582 567.353 171.341C567.461 171.097 567.515 170.841 567.515 170.574C567.515 170.267 567.441 170.001 567.294 169.777C567.149 169.553 566.95 169.379 566.697 169.257C566.444 169.135 566.16 169.074 565.845 169.074C565.509 169.074 565.217 169.143 564.967 169.283C564.72 169.419 564.528 169.611 564.392 169.858C564.258 170.105 564.191 170.395 564.191 170.727H563.186C563.186 170.216 563.303 169.767 563.539 169.381C563.775 168.994 564.096 168.693 564.502 168.477C564.911 168.261 565.37 168.153 565.879 168.153C566.39 168.153 566.843 168.261 567.238 168.477C567.633 168.693 567.943 168.984 568.167 169.351C568.392 169.717 568.504 170.125 568.504 170.574C568.504 170.895 568.445 171.209 568.329 171.516C568.215 171.82 568.017 172.159 567.732 172.534C567.451 172.906 567.061 173.361 566.561 173.898L564.6 175.994V176.062H568.657V177H563.151ZM573.213 177.119C572.627 177.119 572.11 177.016 571.661 176.808C571.215 176.598 570.867 176.31 570.617 175.943C570.367 175.574 570.244 175.153 570.247 174.682C570.244 174.312 570.316 173.972 570.464 173.659C570.612 173.344 570.813 173.081 571.069 172.871C571.328 172.658 571.616 172.523 571.934 172.466V172.415C571.517 172.307 571.184 172.072 570.937 171.712C570.69 171.348 570.568 170.935 570.57 170.472C570.568 170.028 570.68 169.632 570.907 169.283C571.134 168.933 571.447 168.658 571.845 168.456C572.245 168.254 572.701 168.153 573.213 168.153C573.718 168.153 574.17 168.254 574.568 168.456C574.965 168.658 575.278 168.933 575.505 169.283C575.735 169.632 575.852 170.028 575.855 170.472C575.852 170.935 575.725 171.348 575.475 171.712C575.228 172.072 574.9 172.307 574.491 172.415V172.466C574.806 172.523 575.09 172.658 575.343 172.871C575.596 173.081 575.798 173.344 575.948 173.659C576.099 173.972 576.176 174.312 576.178 174.682C576.176 175.153 576.048 175.574 575.795 175.943C575.545 176.31 575.197 176.598 574.751 176.808C574.308 177.016 573.795 177.119 573.213 177.119ZM573.213 176.182C573.607 176.182 573.948 176.118 574.235 175.99C574.522 175.862 574.744 175.682 574.9 175.449C575.056 175.216 575.136 174.943 575.139 174.631C575.136 174.301 575.051 174.01 574.883 173.757C574.715 173.504 574.487 173.305 574.197 173.161C573.91 173.016 573.582 172.943 573.213 172.943C572.84 172.943 572.508 173.016 572.215 173.161C571.926 173.305 571.697 173.504 571.529 173.757C571.365 174.01 571.284 174.301 571.286 174.631C571.284 174.943 571.359 175.216 571.512 175.449C571.669 175.682 571.892 175.862 572.181 175.99C572.471 176.118 572.815 176.182 573.213 176.182ZM573.213 172.04C573.525 172.04 573.802 171.977 574.044 171.852C574.288 171.727 574.48 171.553 574.619 171.328C574.758 171.104 574.829 170.841 574.832 170.54C574.829 170.244 574.759 169.987 574.623 169.768C574.487 169.547 574.298 169.376 574.056 169.257C573.815 169.135 573.534 169.074 573.213 169.074C572.886 169.074 572.6 169.135 572.356 169.257C572.112 169.376 571.923 169.547 571.789 169.768C571.656 169.987 571.59 170.244 571.593 170.54C571.59 170.841 571.657 171.104 571.794 171.328C571.933 171.553 572.124 171.727 572.369 171.852C572.613 171.977 572.894 172.04 573.213 172.04Z" fill="#37464B"/>
<path d="M96 204H1032" stroke="#37464B"/>
<line y1="-0.5" x2="19" y2="-0.5" transform="matrix(-4.37114e-08 -1 -1 4.37114e-08 1031 209)" stroke="#37464B"/>
<path d="M554.056 214.273V223H552.999V215.381H552.948L550.817 216.795V215.722L552.999 214.273H554.056ZM559.344 214.153C559.702 214.156 560.06 214.224 560.418 214.358C560.776 214.491 561.102 214.713 561.398 215.023C561.693 215.33 561.931 215.749 562.11 216.28C562.289 216.811 562.378 217.477 562.378 218.278C562.378 219.054 562.304 219.743 562.156 220.345C562.012 220.945 561.801 221.45 561.526 221.862C561.253 222.274 560.921 222.587 560.529 222.8C560.139 223.013 559.699 223.119 559.208 223.119C558.719 223.119 558.283 223.023 557.899 222.83C557.519 222.634 557.206 222.362 556.962 222.016C556.72 221.666 556.566 221.261 556.497 220.801H557.537C557.631 221.202 557.817 221.533 558.095 221.794C558.377 222.053 558.747 222.182 559.208 222.182C559.881 222.182 560.412 221.888 560.801 221.3C561.193 220.712 561.389 219.881 561.389 218.807H561.321C561.162 219.045 560.973 219.251 560.754 219.425C560.536 219.598 560.293 219.732 560.026 219.825C559.759 219.919 559.475 219.966 559.173 219.966C558.673 219.966 558.215 219.842 557.797 219.595C557.382 219.345 557.05 219.003 556.8 218.568C556.553 218.131 556.429 217.631 556.429 217.068C556.429 216.534 556.548 216.045 556.787 215.602C557.029 215.156 557.367 214.801 557.801 214.537C558.239 214.273 558.753 214.145 559.344 214.153ZM559.344 215.091C558.986 215.091 558.664 215.18 558.377 215.359C558.093 215.536 557.867 215.774 557.699 216.075C557.534 216.374 557.452 216.705 557.452 217.068C557.452 217.432 557.531 217.763 557.691 218.061C557.852 218.357 558.073 218.592 558.351 218.768C558.632 218.942 558.952 219.028 559.31 219.028C559.58 219.028 559.831 218.976 560.064 218.871C560.297 218.763 560.5 218.616 560.673 218.432C560.85 218.244 560.987 218.033 561.087 217.797C561.186 217.558 561.236 217.31 561.236 217.051C561.236 216.71 561.154 216.391 560.989 216.092C560.827 215.794 560.602 215.553 560.316 215.368C560.031 215.183 559.708 215.091 559.344 215.091ZM564.054 223V222.233L566.934 219.08C567.273 218.71 567.551 218.389 567.77 218.116C567.988 217.841 568.15 217.582 568.256 217.341C568.363 217.097 568.417 216.841 568.417 216.574C568.417 216.267 568.344 216.001 568.196 215.777C568.051 215.553 567.852 215.379 567.599 215.257C567.346 215.135 567.062 215.074 566.747 215.074C566.412 215.074 566.119 215.143 565.869 215.283C565.622 215.419 565.43 215.611 565.294 215.858C565.16 216.105 565.094 216.395 565.094 216.727H564.088C564.088 216.216 564.206 215.767 564.442 215.381C564.677 214.994 564.998 214.693 565.405 214.477C565.814 214.261 566.273 214.153 566.781 214.153C567.292 214.153 567.746 214.261 568.14 214.477C568.535 214.693 568.845 214.984 569.069 215.351C569.294 215.717 569.406 216.125 569.406 216.574C569.406 216.895 569.348 217.209 569.231 217.516C569.118 217.82 568.919 218.159 568.635 218.534C568.354 218.906 567.963 219.361 567.463 219.898L565.503 221.994V222.062H569.559V223H564.054ZM574.166 223.119C573.524 223.119 572.977 222.945 572.525 222.595C572.074 222.243 571.729 221.733 571.49 221.065C571.251 220.395 571.132 219.585 571.132 218.636C571.132 217.693 571.251 216.888 571.49 216.22C571.731 215.55 572.078 215.038 572.53 214.686C572.984 214.331 573.53 214.153 574.166 214.153C574.802 214.153 575.346 214.331 575.798 214.686C576.253 215.038 576.599 215.55 576.838 216.22C577.079 216.888 577.2 217.693 577.2 218.636C577.2 219.585 577.081 220.395 576.842 221.065C576.604 221.733 576.258 222.243 575.807 222.595C575.355 222.945 574.808 223.119 574.166 223.119ZM574.166 222.182C574.802 222.182 575.297 221.875 575.649 221.261C576.001 220.648 576.177 219.773 576.177 218.636C576.177 217.881 576.096 217.237 575.934 216.706C575.775 216.175 575.545 215.77 575.244 215.491C574.946 215.213 574.586 215.074 574.166 215.074C573.535 215.074 573.042 215.385 572.687 216.007C572.332 216.626 572.155 217.503 572.155 218.636C572.155 219.392 572.234 220.034 572.393 220.562C572.552 221.091 572.781 221.493 573.079 221.768C573.381 222.044 573.743 222.182 574.166 222.182Z" fill="#37464B"/>
<line y1="-0.5" x2="19" y2="-0.5" transform="matrix(-4.37114e-08 -1 -1 4.37114e-08 96 209)" stroke="#37464B"/>
<path d="M417.361 74L429.639 74" stroke="#37464B"/>
<line x1="429.5" y1="69" x2="429.5" y2="88" stroke="#37464B"/>
<line x1="417.5" y1="69" x2="417.5" y2="88" stroke="#37464B"/>
<path d="M417.515 63V62.233L420.395 59.0795C420.733 58.7102 421.012 58.3892 421.231 58.1165C421.449 57.8409 421.611 57.5824 421.716 57.3409C421.824 57.0966 421.878 56.8409 421.878 56.5739C421.878 56.267 421.805 56.0014 421.657 55.777C421.512 55.5526 421.313 55.3793 421.06 55.2571C420.807 55.1349 420.523 55.0739 420.208 55.0739C419.873 55.0739 419.58 55.1435 419.33 55.2827C419.083 55.419 418.891 55.6108 418.755 55.858C418.621 56.1051 418.555 56.3949 418.555 56.7273H417.549C417.549 56.2159 417.667 55.767 417.903 55.3807C418.138 54.9943 418.459 54.6932 418.866 54.4773C419.275 54.2614 419.733 54.1534 420.242 54.1534C420.753 54.1534 421.206 54.2614 421.601 54.4773C421.996 54.6932 422.306 54.9844 422.53 55.3509C422.755 55.7173 422.867 56.125 422.867 56.5739C422.867 56.8949 422.809 57.2088 422.692 57.5156C422.579 57.8196 422.38 58.1591 422.096 58.5341C421.814 58.9062 421.424 59.3608 420.924 59.8977L418.964 61.9943V62.0625H423.02V63H417.515ZM424.388 61.2102V60.3409L428.224 54.2727H428.854V55.6193H428.428L425.53 60.2045V60.2727H430.695V61.2102H424.388ZM428.496 63V60.946V60.5412V54.2727H429.502V63H428.496Z" fill="#37464B"/>
<defs>
<clipPath id="clip0_1228_3256">
<rect width="936" height="40" fill="white" transform="translate(96 96)"/>
</clipPath>
</defs>
</svg>
