<svg width="1128" height="276" viewBox="0 0 1128 276" fill="none" xmlns="http://www.w3.org/2000/svg">
<rect width="1128" height="276" fill="#F2F6F9"/>
<path d="M519.556 74L538.445 74" stroke="#37464B"/>
<line x1="538.5" y1="69" x2="538.5" y2="88" stroke="#37464B"/>
<line x1="519.5" y1="69" x2="519.5" y2="88" stroke="#37464B"/>
<path d="M522.599 61.2102V60.3409L526.434 54.2727H527.065V55.6193H526.639L523.741 60.2045V60.2727H528.906V61.2102H522.599ZM526.707 63V60.946V60.5412V54.2727H527.713V63H526.707ZM533.35 63.1193C532.708 63.1193 532.161 62.9446 531.709 62.5952C531.257 62.2429 530.912 61.733 530.673 61.0653C530.435 60.3949 530.316 59.5852 530.316 58.6364C530.316 57.6932 530.435 56.8878 530.673 56.2202C530.915 55.5497 531.262 55.0384 531.713 54.6861C532.168 54.331 532.713 54.1534 533.35 54.1534C533.986 54.1534 534.53 54.331 534.982 54.6861C535.436 55.0384 535.783 55.5497 536.021 56.2202C536.263 56.8878 536.384 57.6932 536.384 58.6364C536.384 59.5852 536.264 60.3949 536.026 61.0653C535.787 61.733 535.442 62.2429 534.99 62.5952C534.539 62.9446 533.992 63.1193 533.35 63.1193ZM533.35 62.1818C533.986 62.1818 534.48 61.875 534.833 61.2614C535.185 60.6477 535.361 59.7727 535.361 58.6364C535.361 57.8807 535.28 57.2372 535.118 56.706C534.959 56.1747 534.729 55.7699 534.428 55.4915C534.129 55.2131 533.77 55.0739 533.35 55.0739C532.719 55.0739 532.226 55.3849 531.871 56.0071C531.516 56.6264 531.338 57.5028 531.338 58.6364C531.338 59.392 531.418 60.0341 531.577 60.5625C531.736 61.0909 531.965 61.4929 532.263 61.7685C532.564 62.044 532.926 62.1818 533.35 62.1818Z" fill="#37464B"/>
<path d="M486 74L495.948 74" stroke="#37464B"/>
<line x1="495.5" y1="69" x2="495.5" y2="88" stroke="#37464B"/>
<line x1="486.5" y1="69" x2="486.5" y2="88" stroke="#37464B"/>
<path d="M484.521 63V62.233L487.401 59.0795C487.739 58.7102 488.018 58.3892 488.237 58.1165C488.455 57.8409 488.617 57.5824 488.722 57.3409C488.83 57.0966 488.884 56.8409 488.884 56.5739C488.884 56.267 488.81 56.0014 488.663 55.777C488.518 55.5526 488.319 55.3793 488.066 55.2571C487.813 55.1349 487.529 55.0739 487.214 55.0739C486.879 55.0739 486.586 55.1435 486.336 55.2827C486.089 55.419 485.897 55.6108 485.761 55.858C485.627 56.1051 485.56 56.3949 485.56 56.7273H484.555C484.555 56.2159 484.673 55.767 484.908 55.3807C485.144 54.9943 485.465 54.6932 485.871 54.4773C486.281 54.2614 486.739 54.1534 487.248 54.1534C487.759 54.1534 488.212 54.2614 488.607 54.4773C489.002 54.6932 489.312 54.9844 489.536 55.3509C489.761 55.7173 489.873 56.125 489.873 56.5739C489.873 56.8949 489.815 57.2088 489.698 57.5156C489.585 57.8196 489.386 58.1591 489.102 58.5341C488.82 58.9062 488.43 59.3608 487.93 59.8977L485.969 61.9943V62.0625H490.026V63H484.521ZM494.633 63.1193C493.991 63.1193 493.444 62.9446 492.992 62.5952C492.54 62.2429 492.195 61.733 491.957 61.0653C491.718 60.3949 491.599 59.5852 491.599 58.6364C491.599 57.6932 491.718 56.8878 491.957 56.2202C492.198 55.5497 492.545 55.0384 492.996 54.6861C493.451 54.331 493.996 54.1534 494.633 54.1534C495.269 54.1534 495.813 54.331 496.265 54.6861C496.719 55.0384 497.066 55.5497 497.305 56.2202C497.546 56.8878 497.667 57.6932 497.667 58.6364C497.667 59.5852 497.548 60.3949 497.309 61.0653C497.07 61.733 496.725 62.2429 496.273 62.5952C495.822 62.9446 495.275 63.1193 494.633 63.1193ZM494.633 62.1818C495.269 62.1818 495.763 61.875 496.116 61.2614C496.468 60.6477 496.644 59.7727 496.644 58.6364C496.644 57.8807 496.563 57.2372 496.401 56.706C496.242 56.1747 496.012 55.7699 495.711 55.4915C495.413 55.2131 495.053 55.0739 494.633 55.0739C494.002 55.0739 493.509 55.3849 493.154 56.0071C492.799 56.6264 492.621 57.5028 492.621 58.6364C492.621 59.392 492.701 60.0341 492.86 60.5625C493.019 61.0909 493.248 61.4929 493.546 61.7685C493.847 62.044 494.21 62.1818 494.633 62.1818Z" fill="#37464B"/>
<path d="M496 158L632 158" stroke="#37464B"/>
<line y1="-0.5" x2="19" y2="-0.5" transform="matrix(-3.27835e-08 -1 -1 5.82819e-08 631 163)" stroke="#37464B"/>
<path d="M553.823 177L553.823 176.233L556.704 173.08C557.042 172.71 557.32 172.389 557.539 172.116C557.758 171.841 557.92 171.582 558.025 171.341C558.133 171.097 558.187 170.841 558.187 170.574C558.187 170.267 558.113 170.001 557.965 169.777C557.82 169.553 557.622 169.379 557.369 169.257C557.116 169.135 556.832 169.074 556.517 169.074C556.181 169.074 555.889 169.143 555.639 169.283C555.392 169.419 555.2 169.611 555.063 169.858C554.93 170.105 554.863 170.395 554.863 170.727L553.857 170.727C553.857 170.216 553.975 169.767 554.211 169.381C554.447 168.994 554.768 168.693 555.174 168.477C555.583 168.261 556.042 168.153 556.551 168.153C557.062 168.153 557.515 168.261 557.91 168.477C558.305 168.693 558.615 168.984 558.839 169.351C559.063 169.717 559.176 170.125 559.176 170.574C559.176 170.895 559.117 171.209 559.001 171.516C558.887 171.82 558.688 172.159 558.404 172.534C558.123 172.906 557.732 173.361 557.232 173.898L555.272 175.994L555.272 176.062L559.329 176.062L559.329 177L553.823 177ZM563.884 177.119C563.299 177.119 562.782 177.016 562.333 176.808C561.887 176.598 561.539 176.31 561.289 175.943C561.039 175.574 560.916 175.153 560.919 174.682C560.916 174.312 560.988 173.972 561.136 173.659C561.284 173.344 561.485 173.081 561.741 172.871C561.999 172.658 562.288 172.523 562.606 172.466L562.606 172.415C562.188 172.307 561.856 172.072 561.609 171.712C561.362 171.348 561.24 170.935 561.242 170.472C561.24 170.028 561.352 169.632 561.579 169.283C561.806 168.933 562.119 168.658 562.517 168.456C562.917 168.254 563.373 168.153 563.884 168.153C564.39 168.153 564.842 168.254 565.24 168.456C565.637 168.658 565.95 168.933 566.177 169.283C566.407 169.632 566.524 170.028 566.526 170.472C566.524 170.935 566.397 171.348 566.147 171.712C565.9 172.072 565.572 172.307 565.163 172.415L565.163 172.466C565.478 172.523 565.762 172.658 566.015 172.871C566.268 173.081 566.47 173.344 566.62 173.659C566.771 173.972 566.847 174.312 566.85 174.682C566.847 175.153 566.72 175.574 566.467 175.943C566.217 176.31 565.869 176.598 565.423 176.808C564.98 177.016 564.467 177.119 563.884 177.119ZM563.884 176.182C564.279 176.182 564.62 176.118 564.907 175.99C565.194 175.862 565.416 175.682 565.572 175.449C565.728 175.216 565.808 174.943 565.811 174.631C565.808 174.301 565.722 174.01 565.555 173.757C565.387 173.504 565.159 173.305 564.869 173.161C564.582 173.016 564.254 172.943 563.884 172.943C563.512 172.943 563.18 173.016 562.887 173.161C562.597 173.305 562.369 173.504 562.201 173.757C562.036 174.01 561.955 174.301 561.958 174.631C561.955 174.943 562.031 175.216 562.184 175.449C562.34 175.682 562.563 175.862 562.853 175.99C563.143 176.118 563.487 176.182 563.884 176.182ZM563.884 172.04C564.197 172.04 564.474 171.977 564.715 171.852C564.96 171.727 565.151 171.553 565.291 171.328C565.43 171.104 565.501 170.841 565.504 170.54C565.501 170.244 565.431 169.987 565.295 169.768C565.159 169.547 564.97 169.376 564.728 169.257C564.487 169.135 564.205 169.074 563.884 169.074C563.558 169.074 563.272 169.135 563.028 169.257C562.784 169.376 562.595 169.547 562.461 169.768C562.328 169.987 562.262 170.244 562.265 170.54C562.262 170.841 562.329 171.104 562.465 171.328C562.605 171.553 562.796 171.727 563.041 171.852C563.285 171.977 563.566 172.04 563.884 172.04ZM571.33 177.119C570.688 177.119 570.141 176.945 569.689 176.595C569.238 176.243 568.893 175.733 568.654 175.065C568.415 174.395 568.296 173.585 568.296 172.636C568.296 171.693 568.415 170.888 568.654 170.22C568.895 169.55 569.242 169.038 569.694 168.686C570.148 168.331 570.694 168.153 571.33 168.153C571.966 168.153 572.51 168.331 572.962 168.686C573.417 169.038 573.763 169.55 574.002 170.22C574.243 170.888 574.364 171.693 574.364 172.636C574.364 173.585 574.245 174.395 574.006 175.065C573.768 175.733 573.422 176.243 572.971 176.595C572.519 176.945 571.972 177.119 571.33 177.119ZM571.33 176.182C571.966 176.182 572.461 175.875 572.813 175.261C573.165 174.648 573.341 173.773 573.341 172.636C573.341 171.881 573.26 171.237 573.099 170.706C572.939 170.175 572.709 169.77 572.408 169.491C572.11 169.213 571.751 169.074 571.33 169.074C570.699 169.074 570.206 169.385 569.851 170.007C569.496 170.626 569.319 171.503 569.319 172.636C569.319 173.392 569.398 174.034 569.557 174.562C569.716 175.091 569.945 175.493 570.243 175.768C570.545 176.044 570.907 176.182 571.33 176.182Z" fill="#37464B"/>
<line y1="-0.5" x2="19" y2="-0.5" transform="matrix(-3.27835e-08 -1 -1 5.82819e-08 496 163)" stroke="#37464B"/>
<path d="M486 204L642 204" stroke="#37464B"/>
<line y1="-0.5" x2="19" y2="-0.5" transform="matrix(-3.74669e-08 -1 -1 5.09966e-08 641 209)" stroke="#37464B"/>
<path d="M556.649 223.119C556.087 223.119 555.585 223.023 555.145 222.83C554.707 222.636 554.359 222.368 554.101 222.024C553.845 221.678 553.706 221.276 553.683 220.818L554.757 220.818C554.78 221.099 554.876 221.342 555.047 221.547C555.217 221.749 555.44 221.905 555.716 222.016C555.991 222.126 556.297 222.182 556.632 222.182C557.007 222.182 557.339 222.116 557.629 221.986C557.919 221.855 558.146 221.673 558.311 221.44C558.476 221.207 558.558 220.937 558.558 220.631C558.558 220.31 558.479 220.027 558.32 219.783C558.161 219.536 557.928 219.342 557.621 219.203C557.314 219.064 556.939 218.994 556.496 218.994L555.797 218.994L555.797 218.057L556.496 218.057C556.842 218.057 557.146 217.994 557.408 217.869C557.672 217.744 557.878 217.568 558.026 217.341C558.176 217.114 558.251 216.847 558.251 216.54C558.251 216.244 558.186 215.987 558.055 215.768C557.925 215.55 557.74 215.379 557.501 215.257C557.266 215.135 556.987 215.074 556.666 215.074C556.365 215.074 556.081 215.129 555.814 215.24C555.55 215.348 555.334 215.506 555.166 215.713C554.999 215.918 554.908 216.165 554.893 216.455L553.871 216.455C553.888 215.997 554.026 215.597 554.284 215.253C554.543 214.906 554.881 214.636 555.298 214.443C555.719 214.25 556.18 214.153 556.683 214.153C557.223 214.153 557.686 214.263 558.072 214.482C558.459 214.697 558.756 214.983 558.963 215.338C559.17 215.693 559.274 216.077 559.274 216.489C559.274 216.98 559.145 217.399 558.886 217.746C558.631 218.092 558.283 218.332 557.842 218.466L557.842 218.534C558.393 218.625 558.824 218.859 559.134 219.237C559.443 219.612 559.598 220.077 559.598 220.631C559.598 221.105 559.469 221.531 559.21 221.909C558.955 222.284 558.605 222.58 558.162 222.795C557.719 223.011 557.214 223.119 556.649 223.119ZM561.341 223L561.341 222.233L564.222 219.08C564.56 218.71 564.838 218.389 565.057 218.116C565.276 217.841 565.438 217.582 565.543 217.341C565.651 217.097 565.705 216.841 565.705 216.574C565.705 216.267 565.631 216.001 565.483 215.777C565.338 215.553 565.139 215.379 564.886 215.257C564.634 215.135 564.349 215.074 564.034 215.074C563.699 215.074 563.406 215.143 563.156 215.283C562.909 215.419 562.717 215.611 562.581 215.858C562.447 216.105 562.381 216.395 562.381 216.727L561.375 216.727C561.375 216.216 561.493 215.767 561.729 215.381C561.964 214.994 562.286 214.693 562.692 214.477C563.101 214.261 563.56 214.153 564.068 214.153C564.58 214.153 565.033 214.261 565.428 214.477C565.822 214.693 566.132 214.984 566.357 215.351C566.581 215.717 566.693 216.125 566.693 216.574C566.693 216.895 566.635 217.209 566.518 217.516C566.405 217.82 566.206 218.159 565.922 218.534C565.641 218.906 565.25 219.361 564.75 219.898L562.79 221.994L562.79 222.062L566.847 222.062L566.847 223L561.341 223ZM571.453 223.119C570.811 223.119 570.264 222.945 569.812 222.595C569.361 222.243 569.016 221.733 568.777 221.065C568.538 220.395 568.419 219.585 568.419 218.636C568.419 217.693 568.538 216.888 568.777 216.22C569.018 215.55 569.365 215.038 569.817 214.686C570.271 214.331 570.817 214.153 571.453 214.153C572.089 214.153 572.634 214.331 573.085 214.686C573.54 215.038 573.886 215.55 574.125 216.22C574.366 216.888 574.487 217.693 574.487 218.636C574.487 219.585 574.368 220.395 574.129 221.065C573.891 221.733 573.545 222.243 573.094 222.595C572.642 222.945 572.095 223.119 571.453 223.119ZM571.453 222.182C572.089 222.182 572.584 221.875 572.936 221.261C573.288 220.648 573.464 219.773 573.464 218.636C573.464 217.881 573.384 217.237 573.222 216.706C573.063 216.175 572.832 215.77 572.531 215.491C572.233 215.213 571.874 215.074 571.453 215.074C570.822 215.074 570.33 215.385 569.974 216.007C569.619 216.626 569.442 217.503 569.442 218.636C569.442 219.392 569.521 220.034 569.68 220.562C569.839 221.091 570.068 221.493 570.366 221.768C570.668 222.044 571.03 222.182 571.453 222.182Z" fill="#37464B"/>
<line y1="-0.5" x2="19" y2="-0.5" transform="matrix(-3.74669e-08 -1 -1 5.09966e-08 486 209)" stroke="#37464B"/>
<path d="M561 74H567" stroke="#37464B"/>
<line x1="566.5" y1="69" x2="566.5" y2="88" stroke="#37464B"/>
<path d="M564.002 63.1193C563.416 63.1193 562.899 63.0156 562.45 62.8082C562.004 62.598 561.656 62.3097 561.406 61.9432C561.156 61.5739 561.033 61.1534 561.036 60.6818C561.033 60.3125 561.105 59.9716 561.253 59.6591C561.401 59.3437 561.602 59.081 561.858 58.8707C562.117 58.6577 562.405 58.5227 562.723 58.4659V58.4148C562.306 58.3068 561.973 58.0724 561.726 57.7116C561.479 57.348 561.357 56.9347 561.36 56.4716C561.357 56.0284 561.469 55.6321 561.696 55.2827C561.923 54.9332 562.236 54.6577 562.634 54.456C563.034 54.2543 563.49 54.1534 564.002 54.1534C564.507 54.1534 564.959 54.2543 565.357 54.456C565.754 54.6577 566.067 54.9332 566.294 55.2827C566.524 55.6321 566.641 56.0284 566.644 56.4716C566.641 56.9347 566.514 57.348 566.264 57.7116C566.017 58.0724 565.689 58.3068 565.28 58.4148V58.4659C565.595 58.5227 565.879 58.6577 566.132 58.8707C566.385 59.081 566.587 59.3437 566.737 59.6591C566.888 59.9716 566.965 60.3125 566.968 60.6818C566.965 61.1534 566.837 61.5739 566.584 61.9432C566.334 62.3097 565.986 62.598 565.54 62.8082C565.097 63.0156 564.584 63.1193 564.002 63.1193ZM564.002 62.1818C564.396 62.1818 564.737 62.1179 565.024 61.9901C565.311 61.8622 565.533 61.6818 565.689 61.4489C565.845 61.2159 565.925 60.9432 565.928 60.6307C565.925 60.3011 565.84 60.0099 565.672 59.7571C565.504 59.5043 565.276 59.3054 564.986 59.1605C564.699 59.0156 564.371 58.9432 564.002 58.9432C563.629 58.9432 563.297 59.0156 563.004 59.1605C562.715 59.3054 562.486 59.5043 562.318 59.7571C562.154 60.0099 562.073 60.3011 562.075 60.6307C562.073 60.9432 562.148 61.2159 562.301 61.4489C562.458 61.6818 562.681 61.8622 562.97 61.9901C563.26 62.1179 563.604 62.1818 564.002 62.1818ZM564.002 58.0398C564.314 58.0398 564.591 57.9773 564.833 57.8523C565.077 57.7273 565.269 57.5526 565.408 57.3281C565.547 57.1037 565.618 56.8409 565.621 56.5398C565.618 56.2443 565.548 55.9872 565.412 55.7685C565.276 55.5469 565.087 55.3764 564.845 55.2571C564.604 55.1349 564.323 55.0739 564.002 55.0739C563.675 55.0739 563.389 55.1349 563.145 55.2571C562.901 55.3764 562.712 55.5469 562.578 55.7685C562.445 55.9872 562.379 56.2443 562.382 56.5398C562.379 56.8409 562.446 57.1037 562.583 57.3281C562.722 57.5526 562.914 57.7273 563.158 57.8523C563.402 57.9773 563.683 58.0398 564.002 58.0398Z" fill="#37464B"/>
<line x1="561.5" y1="69" x2="561.5" y2="88" stroke="#37464B"/>
<g clip-path="url(#clip0_1231_4117)">
<rect x="486" y="96" width="10" height="60" fill="#CDE8DC"/>
<rect x="496" y="96" width="19" height="60" fill="#FFCFBF"/>
<rect x="515" y="96" width="4" height="60" fill="#F2F6F9"/>
<rect x="519" y="96" width="20" height="60" fill="#FFCFBF"/>
<rect x="539" y="96" width="4" height="60" fill="#F2F6F9"/>
<rect x="543" y="96" width="19" height="60" fill="#FFCFBF"/>
<rect x="562" y="96" width="4" height="60" fill="#F2F6F9"/>
<rect x="566" y="96" width="19" height="60" fill="#FFCFBF"/>
<rect x="585" y="96" width="4" height="60" fill="#F2F6F9"/>
<rect x="589" y="96" width="20" height="60" fill="#FFCFBF"/>
<rect x="609" y="96" width="4" height="60" fill="#F2F6F9"/>
<rect x="613" y="96" width="19" height="60" fill="#FFCFBF"/>
<rect x="632" y="96" width="10" height="60" fill="#CDE8DC"/>
</g>
<defs>
<clipPath id="clip0_1231_4117">
<rect width="156" height="40" fill="white" transform="translate(486 96)"/>
</clipPath>
</defs>
</svg>
