<svg width="1128" height="276" viewBox="0 0 1128 276" fill="none" xmlns="http://www.w3.org/2000/svg">
<rect width="1128" height="276" fill="#F2F6F9"/>
<path d="M511.667 74L534.334 74" stroke="#37464B"/>
<line x1="534.5" y1="69" x2="534.5" y2="88" stroke="#37464B"/>
<line x1="511.5" y1="69" x2="511.5" y2="88" stroke="#37464B"/>
<path d="M516.152 61.2102V60.3409L519.987 54.2727H520.618V55.6193H520.192L517.294 60.2045V60.2727H522.459V61.2102H516.152ZM520.26 63V60.946V60.5412V54.2727H521.266V63H520.26ZM526.851 63.1193C526.266 63.1193 525.749 63.0156 525.3 62.8082C524.854 62.598 524.506 62.3097 524.256 61.9432C524.006 61.5739 523.882 61.1534 523.885 60.6818C523.882 60.3125 523.955 59.9716 524.103 59.6591C524.25 59.3437 524.452 59.081 524.708 58.8707C524.966 58.6577 525.255 58.5227 525.573 58.4659V58.4148C525.155 58.3068 524.823 58.0724 524.576 57.7116C524.328 57.348 524.206 56.9347 524.209 56.4716C524.206 56.0284 524.319 55.6321 524.546 55.2827C524.773 54.9332 525.086 54.6577 525.483 54.456C525.884 54.2543 526.34 54.1534 526.851 54.1534C527.357 54.1534 527.809 54.2543 528.206 54.456C528.604 54.6577 528.917 54.9332 529.144 55.2827C529.374 55.6321 529.49 56.0284 529.493 56.4716C529.49 56.9347 529.364 57.348 529.114 57.7116C528.867 58.0724 528.539 58.3068 528.13 58.4148V58.4659C528.445 58.5227 528.729 58.6577 528.982 58.8707C529.235 59.081 529.436 59.3437 529.587 59.6591C529.738 59.9716 529.814 60.3125 529.817 60.6818C529.814 61.1534 529.686 61.5739 529.434 61.9432C529.184 62.3097 528.836 62.598 528.39 62.8082C527.946 63.0156 527.434 63.1193 526.851 63.1193ZM526.851 62.1818C527.246 62.1818 527.587 62.1179 527.874 61.9901C528.161 61.8622 528.382 61.6818 528.539 61.4489C528.695 61.2159 528.775 60.9432 528.777 60.6307C528.775 60.3011 528.689 60.0099 528.522 59.7571C528.354 59.5043 528.125 59.3054 527.836 59.1605C527.549 59.0156 527.221 58.9432 526.851 58.9432C526.479 58.9432 526.147 59.0156 525.854 59.1605C525.564 59.3054 525.336 59.5043 525.168 59.7571C525.003 60.0099 524.922 60.3011 524.925 60.6307C524.922 60.9432 524.998 61.2159 525.151 61.4489C525.307 61.6818 525.53 61.8622 525.82 61.9901C526.11 62.1179 526.453 62.1818 526.851 62.1818ZM526.851 58.0398C527.164 58.0398 527.441 57.9773 527.682 57.8523C527.926 57.7273 528.118 57.5526 528.257 57.3281C528.397 57.1037 528.468 56.8409 528.471 56.5398C528.468 56.2443 528.398 55.9872 528.262 55.7685C528.125 55.5469 527.936 55.3764 527.695 55.2571C527.453 55.1349 527.172 55.0739 526.851 55.0739C526.525 55.0739 526.239 55.1349 525.995 55.2571C525.75 55.3764 525.561 55.5469 525.428 55.7685C525.294 55.9872 525.229 56.2443 525.232 56.5398C525.229 56.8409 525.296 57.1037 525.432 57.3281C525.571 57.5526 525.763 57.7273 526.007 57.8523C526.252 57.9773 526.533 58.0398 526.851 58.0398Z" fill="#37464B"/>
<path d="M472 74L483.938 74" stroke="#37464B"/>
<line x1="483.5" y1="69" x2="483.5" y2="88" stroke="#37464B"/>
<line x1="471.5" y1="69" x2="471.5" y2="88" stroke="#37464B"/>
<path d="M471.515 63V62.233L474.395 59.0795C474.733 58.7102 475.012 58.3892 475.231 58.1165C475.449 57.8409 475.611 57.5824 475.716 57.3409C475.824 57.0966 475.878 56.8409 475.878 56.5739C475.878 56.267 475.805 56.0014 475.657 55.777C475.512 55.5526 475.313 55.3793 475.06 55.2571C474.807 55.1349 474.523 55.0739 474.208 55.0739C473.873 55.0739 473.58 55.1435 473.33 55.2827C473.083 55.419 472.891 55.6108 472.755 55.858C472.621 56.1051 472.555 56.3949 472.555 56.7273H471.549C471.549 56.2159 471.667 55.767 471.903 55.3807C472.138 54.9943 472.459 54.6932 472.866 54.4773C473.275 54.2614 473.733 54.1534 474.242 54.1534C474.753 54.1534 475.206 54.2614 475.601 54.4773C475.996 54.6932 476.306 54.9844 476.53 55.3509C476.755 55.7173 476.867 56.125 476.867 56.5739C476.867 56.8949 476.809 57.2088 476.692 57.5156C476.579 57.8196 476.38 58.1591 476.096 58.5341C475.814 58.9062 475.424 59.3608 474.924 59.8977L472.964 61.9943V62.0625H477.02V63H471.515ZM478.388 61.2102V60.3409L482.224 54.2727H482.854V55.6193H482.428L479.53 60.2045V60.2727H484.695V61.2102H478.388ZM482.496 63V60.946V60.5412V54.2727H483.502V63H482.496Z" fill="#37464B"/>
<path d="M485 158L644 158" stroke="#37464B"/>
<line y1="-0.5" x2="19" y2="-0.5" transform="matrix(-3.27835e-08 -1 -1 5.82819e-08 643 163)" stroke="#37464B"/>
<path d="M556.702 177.119C556.139 177.119 555.638 177.023 555.198 176.83C554.76 176.636 554.412 176.368 554.154 176.024C553.898 175.678 553.759 175.276 553.736 174.818L554.81 174.818C554.833 175.099 554.929 175.342 555.1 175.547C555.27 175.749 555.493 175.905 555.769 176.016C556.044 176.126 556.35 176.182 556.685 176.182C557.06 176.182 557.392 176.116 557.682 175.986C557.972 175.855 558.199 175.673 558.364 175.44C558.529 175.207 558.611 174.937 558.611 174.631C558.611 174.31 558.531 174.027 558.372 173.783C558.213 173.536 557.98 173.342 557.673 173.203C557.367 173.064 556.992 172.994 556.548 172.994L555.85 172.994L555.85 172.057L556.548 172.057C556.895 172.057 557.199 171.994 557.46 171.869C557.725 171.744 557.931 171.568 558.078 171.341C558.229 171.114 558.304 170.847 558.304 170.54C558.304 170.244 558.239 169.987 558.108 169.768C557.977 169.55 557.793 169.379 557.554 169.257C557.318 169.135 557.04 169.074 556.719 169.074C556.418 169.074 556.134 169.129 555.867 169.24C555.602 169.348 555.387 169.506 555.219 169.713C555.051 169.918 554.96 170.165 554.946 170.455L553.923 170.455C553.941 169.997 554.078 169.597 554.337 169.253C554.595 168.906 554.933 168.636 555.351 168.443C555.771 168.25 556.233 168.153 556.736 168.153C557.276 168.153 557.739 168.263 558.125 168.482C558.512 168.697 558.808 168.983 559.016 169.338C559.223 169.693 559.327 170.077 559.327 170.489C559.327 170.98 559.198 171.399 558.939 171.746C558.683 172.092 558.335 172.332 557.895 172.466L557.895 172.534C558.446 172.625 558.877 172.859 559.186 173.237C559.496 173.612 559.651 174.077 559.651 174.631C559.651 175.105 559.521 175.531 559.263 175.909C559.007 176.284 558.658 176.58 558.215 176.795C557.771 177.011 557.267 177.119 556.702 177.119ZM561.394 177L561.394 176.233L564.274 173.08C564.612 172.71 564.891 172.389 565.11 172.116C565.328 171.841 565.49 171.582 565.595 171.341C565.703 171.097 565.757 170.841 565.757 170.574C565.757 170.267 565.683 170.001 565.536 169.777C565.391 169.553 565.192 169.379 564.939 169.257C564.686 169.135 564.402 169.074 564.087 169.074C563.752 169.074 563.459 169.143 563.209 169.283C562.962 169.419 562.77 169.611 562.634 169.858C562.5 170.105 562.433 170.395 562.433 170.727L561.428 170.727C561.428 170.216 561.546 169.767 561.781 169.381C562.017 168.994 562.338 168.693 562.744 168.477C563.154 168.261 563.612 168.153 564.121 168.153C564.632 168.153 565.085 168.261 565.48 168.477C565.875 168.693 566.185 168.984 566.409 169.351C566.634 169.717 566.746 170.125 566.746 170.574C566.746 170.895 566.688 171.209 566.571 171.516C566.458 171.82 566.259 172.159 565.975 172.534C565.693 172.906 565.303 173.361 564.803 173.898L562.843 175.994L562.843 176.062L566.899 176.062L566.899 177L561.394 177ZM571.455 177.119C570.869 177.119 570.352 177.016 569.904 176.808C569.458 176.598 569.11 176.31 568.86 175.943C568.61 175.574 568.486 175.153 568.489 174.682C568.486 174.312 568.558 173.972 568.706 173.659C568.854 173.344 569.056 173.081 569.311 172.871C569.57 172.658 569.858 172.523 570.176 172.466L570.176 172.415C569.759 172.307 569.426 172.072 569.179 171.712C568.932 171.348 568.81 170.935 568.813 170.472C568.81 170.028 568.922 169.632 569.149 169.283C569.377 168.933 569.689 168.658 570.087 168.456C570.487 168.254 570.943 168.153 571.455 168.153C571.96 168.153 572.412 168.254 572.81 168.456C573.208 168.658 573.52 168.933 573.747 169.283C573.977 169.632 574.094 170.028 574.097 170.472C574.094 170.935 573.968 171.348 573.718 171.712C573.47 172.072 573.142 172.307 572.733 172.415L572.733 172.466C573.048 172.523 573.333 172.658 573.585 172.871C573.838 173.081 574.04 173.344 574.191 173.659C574.341 173.972 574.418 174.312 574.421 174.682C574.418 175.153 574.29 175.574 574.037 175.943C573.787 176.31 573.439 176.598 572.993 176.808C572.55 177.016 572.037 177.119 571.455 177.119ZM571.455 176.182C571.85 176.182 572.191 176.118 572.477 175.99C572.764 175.862 572.986 175.682 573.142 175.449C573.298 175.216 573.378 174.943 573.381 174.631C573.378 174.301 573.293 174.01 573.125 173.757C572.958 173.504 572.729 173.305 572.439 173.161C572.152 173.016 571.824 172.943 571.455 172.943C571.083 172.943 570.75 173.016 570.458 173.161C570.168 173.305 569.939 173.504 569.771 173.757C569.607 174.01 569.526 174.301 569.529 174.631C569.526 174.943 569.601 175.216 569.754 175.449C569.911 175.682 570.134 175.862 570.423 175.99C570.713 176.118 571.057 176.182 571.455 176.182ZM571.455 172.04C571.767 172.04 572.044 171.977 572.286 171.852C572.53 171.727 572.722 171.553 572.861 171.328C573 171.104 573.071 170.841 573.074 170.54C573.071 170.244 573.002 169.987 572.865 169.768C572.729 169.547 572.54 169.376 572.298 169.257C572.057 169.135 571.776 169.074 571.455 169.074C571.128 169.074 570.843 169.135 570.598 169.257C570.354 169.376 570.165 169.547 570.031 169.768C569.898 169.987 569.833 170.244 569.835 170.54C569.833 170.841 569.899 171.104 570.036 171.328C570.175 171.553 570.367 171.727 570.611 171.852C570.855 171.977 571.137 172.04 571.455 172.04Z" fill="#37464B"/>
<path d="M471 204L656 204" stroke="#37464B"/>
<line y1="-0.5" x2="19" y2="-0.5" transform="matrix(-3.74669e-08 -1 -1 5.09966e-08 655 209)" stroke="#37464B"/>
<path d="M556.012 223.119C555.45 223.119 554.949 223.023 554.508 222.83C554.071 222.636 553.723 222.368 553.464 222.024C553.208 221.678 553.069 221.276 553.047 220.818L554.12 220.818C554.143 221.099 554.24 221.342 554.41 221.547C554.581 221.749 554.804 221.905 555.079 222.016C555.355 222.126 555.66 222.182 555.995 222.182C556.37 222.182 556.703 222.116 556.993 221.986C557.282 221.855 557.51 221.673 557.674 221.44C557.839 221.207 557.922 220.937 557.922 220.631C557.922 220.31 557.842 220.027 557.683 219.783C557.524 219.536 557.291 219.342 556.984 219.203C556.677 219.064 556.302 218.994 555.859 218.994L555.16 218.994L555.16 218.057L555.859 218.057C556.206 218.057 556.51 217.994 556.771 217.869C557.035 217.744 557.241 217.568 557.389 217.341C557.539 217.114 557.615 216.847 557.615 216.54C557.615 216.244 557.549 215.987 557.419 215.768C557.288 215.55 557.103 215.379 556.865 215.257C556.629 215.135 556.35 215.074 556.029 215.074C555.728 215.074 555.444 215.129 555.177 215.24C554.913 215.348 554.697 215.506 554.529 215.713C554.362 215.918 554.271 216.165 554.257 216.455L553.234 216.455C553.251 215.997 553.389 215.597 553.647 215.253C553.906 214.906 554.244 214.636 554.662 214.443C555.082 214.25 555.544 214.153 556.047 214.153C556.586 214.153 557.049 214.263 557.436 214.482C557.822 214.697 558.119 214.983 558.326 215.338C558.534 215.693 558.637 216.077 558.637 216.489C558.637 216.98 558.508 217.399 558.25 217.746C557.994 218.092 557.646 218.332 557.206 218.466L557.206 218.534C557.757 218.625 558.187 218.859 558.497 219.237C558.806 219.612 558.961 220.077 558.961 220.631C558.961 221.105 558.832 221.531 558.574 221.909C558.318 222.284 557.968 222.58 557.525 222.795C557.082 223.011 556.578 223.119 556.012 223.119ZM560.977 223L564.88 215.278L564.88 215.21L560.38 215.21L560.38 214.273L565.971 214.273L565.971 215.261L562.085 223L560.977 223ZM570.17 223.119C569.67 223.119 569.219 223.02 568.819 222.821C568.418 222.622 568.097 222.349 567.856 222.003C567.614 221.656 567.482 221.261 567.46 220.818L568.482 220.818C568.522 221.213 568.701 221.54 569.019 221.798C569.34 222.054 569.724 222.182 570.17 222.182C570.528 222.182 570.846 222.098 571.124 221.93C571.406 221.763 571.626 221.533 571.785 221.24C571.947 220.945 572.028 220.611 572.028 220.239C572.028 219.858 571.944 219.518 571.776 219.22C571.612 218.919 571.384 218.682 571.094 218.509C570.805 218.335 570.474 218.247 570.102 218.244C569.835 218.241 569.56 218.283 569.279 218.368C568.998 218.45 568.766 218.557 568.585 218.687L567.596 218.568L568.124 214.273L572.658 214.273L572.658 215.21L569.011 215.21L568.704 217.784L568.755 217.784C568.934 217.642 569.158 217.524 569.428 217.43C569.698 217.337 569.979 217.29 570.272 217.29C570.806 217.29 571.282 217.418 571.7 217.673C572.12 217.926 572.45 218.273 572.688 218.713C572.93 219.153 573.05 219.656 573.05 220.222C573.05 220.778 572.925 221.276 572.675 221.713C572.428 222.148 572.087 222.491 571.653 222.744C571.218 222.994 570.724 223.119 570.17 223.119Z" fill="#37464B"/>
<line y1="-0.5" x2="19" y2="-0.5" transform="matrix(-3.74669e-08 -1 -1 5.09966e-08 471 209)" stroke="#37464B"/>
<line y1="-0.5" x2="19" y2="-0.5" transform="matrix(-3.27835e-08 -1 -1 5.82819e-08 484 163)" stroke="#37464B"/>
<path d="M561 74H567" stroke="#37464B"/>
<line x1="566.5" y1="69" x2="566.5" y2="88" stroke="#37464B"/>
<path d="M564.002 63.1193C563.416 63.1193 562.899 63.0156 562.45 62.8082C562.004 62.598 561.656 62.3097 561.406 61.9432C561.156 61.5739 561.033 61.1534 561.036 60.6818C561.033 60.3125 561.105 59.9716 561.253 59.6591C561.401 59.3437 561.602 59.081 561.858 58.8707C562.117 58.6577 562.405 58.5227 562.723 58.4659V58.4148C562.306 58.3068 561.973 58.0724 561.726 57.7116C561.479 57.348 561.357 56.9347 561.36 56.4716C561.357 56.0284 561.469 55.6321 561.696 55.2827C561.923 54.9332 562.236 54.6577 562.634 54.456C563.034 54.2543 563.49 54.1534 564.002 54.1534C564.507 54.1534 564.959 54.2543 565.357 54.456C565.754 54.6577 566.067 54.9332 566.294 55.2827C566.524 55.6321 566.641 56.0284 566.644 56.4716C566.641 56.9347 566.514 57.348 566.264 57.7116C566.017 58.0724 565.689 58.3068 565.28 58.4148V58.4659C565.595 58.5227 565.879 58.6577 566.132 58.8707C566.385 59.081 566.587 59.3437 566.737 59.6591C566.888 59.9716 566.965 60.3125 566.968 60.6818C566.965 61.1534 566.837 61.5739 566.584 61.9432C566.334 62.3097 565.986 62.598 565.54 62.8082C565.097 63.0156 564.584 63.1193 564.002 63.1193ZM564.002 62.1818C564.396 62.1818 564.737 62.1179 565.024 61.9901C565.311 61.8622 565.533 61.6818 565.689 61.4489C565.845 61.2159 565.925 60.9432 565.928 60.6307C565.925 60.3011 565.84 60.0099 565.672 59.7571C565.504 59.5043 565.276 59.3054 564.986 59.1605C564.699 59.0156 564.371 58.9432 564.002 58.9432C563.629 58.9432 563.297 59.0156 563.004 59.1605C562.715 59.3054 562.486 59.5043 562.318 59.7571C562.154 60.0099 562.073 60.3011 562.075 60.6307C562.073 60.9432 562.148 61.2159 562.301 61.4489C562.458 61.6818 562.681 61.8622 562.97 61.9901C563.26 62.1179 563.604 62.1818 564.002 62.1818ZM564.002 58.0398C564.314 58.0398 564.591 57.9773 564.833 57.8523C565.077 57.7273 565.269 57.5526 565.408 57.3281C565.547 57.1037 565.618 56.8409 565.621 56.5398C565.618 56.2443 565.548 55.9872 565.412 55.7685C565.276 55.5469 565.087 55.3764 564.845 55.2571C564.604 55.1349 564.323 55.0739 564.002 55.0739C563.675 55.0739 563.389 55.1349 563.145 55.2571C562.901 55.3764 562.712 55.5469 562.578 55.7685C562.445 55.9872 562.379 56.2443 562.382 56.5398C562.379 56.8409 562.446 57.1037 562.583 57.3281C562.722 57.5526 562.914 57.7273 563.158 57.8523C563.402 57.9773 563.683 58.0398 564.002 58.0398Z" fill="#37464B"/>
<line x1="561.5" y1="69" x2="561.5" y2="88" stroke="#37464B"/>
<g clip-path="url(#clip0_1231_4042)">
<rect x="472" y="96" width="12" height="60" fill="#CDE8DC"/>
<rect x="484" y="96" width="23" height="60" fill="#FFCFBF"/>
<rect x="507" y="96" width="4" height="60" fill="#F2F6F9"/>
<rect x="511" y="96" width="24" height="60" fill="#FFCFBF"/>
<rect x="535" y="96" width="4" height="60" fill="#F2F6F9"/>
<rect x="539" y="96" width="23" height="60" fill="#FFCFBF"/>
<rect x="562" y="96" width="4" height="60" fill="#F2F6F9"/>
<rect x="566" y="96" width="23" height="60" fill="#FFCFBF"/>
<rect x="589" y="96" width="4" height="60" fill="#F2F6F9"/>
<rect x="593" y="96" width="24" height="60" fill="#FFCFBF"/>
<rect x="617" y="96" width="4" height="60" fill="#F2F6F9"/>
<rect x="621" y="96" width="23" height="60" fill="#FFCFBF"/>
<rect x="644" y="96" width="12" height="60" fill="#CDE8DC"/>
</g>
<defs>
<clipPath id="clip0_1231_4042">
<rect width="184" height="40" fill="white" transform="translate(472 96)"/>
</clipPath>
</defs>
</svg>
