<svg width="1128" height="276" viewBox="0 0 1128 276" fill="none" xmlns="http://www.w3.org/2000/svg">
<rect width="1128" height="276" fill="#F2F6F9"/>
<path d="M501.75 74L527.25 74" stroke="#37464B"/>
<line x1="527.5" y1="69" x2="527.5" y2="88" stroke="#37464B"/>
<line x1="501.5" y1="69" x2="501.5" y2="88" stroke="#37464B"/>
<path d="M510.236 63.1193C509.736 63.1193 509.286 63.0199 508.885 62.821C508.485 62.6222 508.164 62.3494 507.922 62.0028C507.681 61.6562 507.549 61.2614 507.526 60.8182H508.549C508.588 61.2131 508.767 61.5398 509.086 61.7983C509.407 62.054 509.79 62.1818 510.236 62.1818C510.594 62.1818 510.912 62.098 511.191 61.9304C511.472 61.7628 511.692 61.5327 511.851 61.2401C512.013 60.9446 512.094 60.6108 512.094 60.2386C512.094 59.858 512.01 59.5185 511.843 59.2202C511.678 58.919 511.451 58.6818 511.161 58.5085C510.871 58.3352 510.54 58.2472 510.168 58.2443C509.901 58.2415 509.627 58.2827 509.346 58.3679C509.064 58.4503 508.833 58.5568 508.651 58.6875L507.662 58.5682L508.191 54.2727H512.725V55.2102H509.077L508.77 57.7841H508.821C509 57.642 509.225 57.5241 509.495 57.4304C509.765 57.3366 510.046 57.2898 510.338 57.2898C510.873 57.2898 511.348 57.4176 511.766 57.6733C512.186 57.9261 512.516 58.2727 512.755 58.7131C512.996 59.1534 513.117 59.6562 513.117 60.2216C513.117 60.7784 512.992 61.2756 512.742 61.7131C512.495 62.1477 512.154 62.4915 511.719 62.7443C511.284 62.9943 510.79 63.1193 510.236 63.1193ZM517.707 63.1193C517.349 63.1136 516.991 63.0455 516.634 62.9148C516.276 62.7841 515.949 62.5639 515.653 62.2543C515.358 61.9418 515.121 61.5199 514.942 60.9886C514.763 60.4545 514.673 59.7841 514.673 58.9773C514.673 58.2045 514.746 57.5199 514.891 56.9233C515.036 56.3239 515.246 55.8196 515.521 55.4105C515.797 54.9986 516.129 54.6861 516.518 54.473C516.911 54.2599 517.352 54.1534 517.844 54.1534C518.332 54.1534 518.767 54.2514 519.148 54.4474C519.531 54.6406 519.844 54.9105 520.085 55.2571C520.327 55.6037 520.483 56.0028 520.554 56.4545H519.514C519.418 56.0625 519.23 55.7372 518.952 55.4787C518.673 55.2202 518.304 55.0909 517.844 55.0909C517.168 55.0909 516.635 55.3849 516.246 55.973C515.859 56.5611 515.665 57.3864 515.662 58.4489H515.73C515.889 58.2074 516.078 58.0014 516.297 57.831C516.518 57.6577 516.763 57.5241 517.03 57.4304C517.297 57.3366 517.58 57.2898 517.878 57.2898C518.378 57.2898 518.835 57.4148 519.25 57.6648C519.665 57.9119 519.997 58.2543 520.247 58.6918C520.497 59.1264 520.622 59.625 520.622 60.1875C520.622 60.7273 520.501 61.2216 520.26 61.6705C520.018 62.1165 519.679 62.4716 519.241 62.7358C518.807 62.9972 518.295 63.125 517.707 63.1193ZM517.707 62.1818C518.065 62.1818 518.386 62.0923 518.67 61.9134C518.957 61.7344 519.183 61.4943 519.348 61.1932C519.516 60.892 519.599 60.5568 519.599 60.1875C519.599 59.8267 519.518 59.4986 519.357 59.2031C519.197 58.9048 518.977 58.6676 518.696 58.4915C518.418 58.3153 518.099 58.2273 517.741 58.2273C517.472 58.2273 517.22 58.2812 516.987 58.3892C516.754 58.4943 516.55 58.6392 516.374 58.8239C516.2 59.0085 516.064 59.2202 515.964 59.4588C515.865 59.6946 515.815 59.9432 515.815 60.2045C515.815 60.5511 515.896 60.875 516.058 61.1761C516.223 61.4773 516.447 61.7202 516.732 61.9048C517.018 62.0895 517.344 62.1818 517.707 62.1818Z" fill="#37464B"/>
<path d="M447 74L466.897 74" stroke="#37464B"/>
<line x1="466.5" y1="69" x2="466.5" y2="88" stroke="#37464B"/>
<line x1="447.5" y1="69" x2="447.5" y2="88" stroke="#37464B"/>
<path d="M450.216 61.2102V60.3409L454.052 54.2727H454.682V55.6193H454.256L451.358 60.2045V60.2727H456.523V61.2102H450.216ZM454.324 63V60.946V60.5412V54.2727H455.33V63H454.324ZM458.12 63V62.233L461.001 59.0795C461.339 58.7102 461.617 58.3892 461.836 58.1165C462.055 57.8409 462.217 57.5824 462.322 57.3409C462.43 57.0966 462.484 56.8409 462.484 56.5739C462.484 56.267 462.41 56.0014 462.262 55.777C462.117 55.5526 461.919 55.3793 461.666 55.2571C461.413 55.1349 461.129 55.0739 460.813 55.0739C460.478 55.0739 460.186 55.1435 459.936 55.2827C459.688 55.419 459.497 55.6108 459.36 55.858C459.227 56.1051 459.16 56.3949 459.16 56.7273H458.154C458.154 56.2159 458.272 55.767 458.508 55.3807C458.744 54.9943 459.065 54.6932 459.471 54.4773C459.88 54.2614 460.339 54.1534 460.847 54.1534C461.359 54.1534 461.812 54.2614 462.207 54.4773C462.602 54.6932 462.911 54.9844 463.136 55.3509C463.36 55.7173 463.472 56.125 463.472 56.5739C463.472 56.8949 463.414 57.2088 463.298 57.5156C463.184 57.8196 462.985 58.1591 462.701 58.5341C462.42 58.9062 462.029 59.3608 461.529 59.8977L459.569 61.9943V62.0625H463.626V63H458.12Z" fill="#37464B"/>
<path d="M467 158L661 158" stroke="#37464B"/>
<line y1="-0.5" x2="19" y2="-0.5" transform="matrix(-3.27835e-08 -1 -1 5.82819e-08 660 163)" stroke="#37464B"/>
<path d="M556.544 177.119C555.981 177.119 555.48 177.023 555.039 176.83C554.602 176.636 554.254 176.368 553.995 176.024C553.74 175.678 553.6 175.276 553.578 174.818L554.652 174.818C554.674 175.099 554.771 175.342 554.941 175.547C555.112 175.749 555.335 175.905 555.61 176.016C555.886 176.126 556.191 176.182 556.527 176.182C556.902 176.182 557.234 176.116 557.524 175.986C557.814 175.855 558.041 175.673 558.206 175.44C558.37 175.207 558.453 174.937 558.453 174.631C558.453 174.31 558.373 174.027 558.214 173.783C558.055 173.536 557.822 173.342 557.515 173.203C557.208 173.064 556.833 172.994 556.39 172.994L555.691 172.994L555.691 172.057L556.39 172.057C556.737 172.057 557.041 171.994 557.302 171.869C557.566 171.744 557.772 171.568 557.92 171.341C558.071 171.114 558.146 170.847 558.146 170.54C558.146 170.244 558.081 169.987 557.95 169.768C557.819 169.55 557.635 169.379 557.396 169.257C557.16 169.135 556.882 169.074 556.561 169.074C556.26 169.074 555.975 169.129 555.708 169.24C555.444 169.348 555.228 169.506 555.061 169.713C554.893 169.918 554.802 170.165 554.788 170.455L553.765 170.455C553.782 169.997 553.92 169.597 554.179 169.253C554.437 168.906 554.775 168.636 555.193 168.443C555.613 168.25 556.075 168.153 556.578 168.153C557.118 168.153 557.581 168.263 557.967 168.482C558.353 168.697 558.65 168.983 558.858 169.338C559.065 169.693 559.169 170.077 559.169 170.489C559.169 170.98 559.039 171.399 558.781 171.746C558.525 172.092 558.177 172.332 557.737 172.466L557.737 172.534C558.288 172.625 558.718 172.859 559.028 173.237C559.338 173.612 559.493 174.077 559.493 174.631C559.493 175.105 559.363 175.531 559.105 175.909C558.849 176.284 558.5 176.58 558.056 176.795C557.613 177.011 557.109 177.119 556.544 177.119ZM564.014 168.153C564.372 168.156 564.73 168.224 565.088 168.358C565.446 168.491 565.772 168.713 566.068 169.023C566.363 169.33 566.6 169.749 566.779 170.28C566.958 170.811 567.048 171.477 567.048 172.278C567.048 173.054 566.974 173.743 566.826 174.345C566.681 174.945 566.471 175.45 566.196 175.862C565.923 176.274 565.591 176.587 565.199 176.8C564.809 177.013 564.369 177.119 563.877 177.119C563.389 177.119 562.953 177.023 562.569 176.83C562.189 176.634 561.876 176.362 561.632 176.016C561.39 175.666 561.235 175.261 561.167 174.801L562.207 174.801C562.301 175.202 562.487 175.533 562.765 175.794C563.047 176.053 563.417 176.182 563.877 176.182C564.551 176.182 565.082 175.888 565.471 175.3C565.863 174.712 566.059 173.881 566.059 172.807L565.991 172.807C565.832 173.045 565.643 173.251 565.424 173.425C565.206 173.598 564.963 173.732 564.696 173.825C564.429 173.919 564.145 173.966 563.843 173.966C563.343 173.966 562.885 173.842 562.467 173.595C562.052 173.345 561.72 173.003 561.47 172.568C561.223 172.131 561.099 171.631 561.099 171.068C561.099 170.534 561.218 170.045 561.457 169.602C561.699 169.156 562.037 168.801 562.471 168.537C562.909 168.273 563.423 168.145 564.014 168.153ZM564.014 169.091C563.656 169.091 563.333 169.18 563.047 169.359C562.762 169.536 562.537 169.774 562.369 170.075C562.204 170.374 562.122 170.705 562.122 171.068C562.122 171.432 562.201 171.763 562.36 172.061C562.522 172.357 562.743 172.592 563.021 172.768C563.302 172.942 563.622 173.028 563.98 173.028C564.25 173.028 564.501 172.976 564.734 172.871C564.967 172.763 565.17 172.616 565.343 172.432C565.52 172.244 565.657 172.033 565.757 171.797C565.856 171.558 565.906 171.31 565.906 171.051C565.906 170.71 565.824 170.391 565.659 170.092C565.497 169.794 565.272 169.553 564.985 169.368C564.701 169.183 564.377 169.091 564.014 169.091ZM571.621 177.119C571.263 177.114 570.906 177.045 570.548 176.915C570.19 176.784 569.863 176.564 569.567 176.254C569.272 175.942 569.035 175.52 568.856 174.989C568.677 174.455 568.587 173.784 568.587 172.977C568.587 172.205 568.66 171.52 568.805 170.923C568.95 170.324 569.16 169.82 569.435 169.411C569.711 168.999 570.043 168.686 570.433 168.473C570.825 168.26 571.266 168.153 571.758 168.153C572.246 168.153 572.681 168.251 573.062 168.447C573.445 168.641 573.758 168.911 573.999 169.257C574.241 169.604 574.397 170.003 574.468 170.455L573.428 170.455C573.332 170.062 573.144 169.737 572.866 169.479C572.587 169.22 572.218 169.091 571.758 169.091C571.082 169.091 570.549 169.385 570.16 169.973C569.773 170.561 569.579 171.386 569.576 172.449L569.644 172.449C569.803 172.207 569.992 172.001 570.211 171.831C570.433 171.658 570.677 171.524 570.944 171.43C571.211 171.337 571.494 171.29 571.792 171.29C572.292 171.29 572.749 171.415 573.164 171.665C573.579 171.912 573.911 172.254 574.161 172.692C574.411 173.126 574.536 173.625 574.536 174.187C574.536 174.727 574.415 175.222 574.174 175.67C573.933 176.116 573.593 176.472 573.156 176.736C572.721 176.997 572.21 177.125 571.621 177.119ZM571.621 176.182C571.979 176.182 572.3 176.092 572.585 175.913C572.871 175.734 573.097 175.494 573.262 175.193C573.43 174.892 573.513 174.557 573.513 174.187C573.513 173.827 573.433 173.499 573.271 173.203C573.112 172.905 572.891 172.668 572.61 172.491C572.332 172.315 572.013 172.227 571.656 172.227C571.386 172.227 571.134 172.281 570.901 172.389C570.668 172.494 570.464 172.639 570.288 172.824C570.114 173.009 569.978 173.22 569.879 173.459C569.779 173.695 569.729 173.943 569.729 174.205C569.729 174.551 569.81 174.875 569.972 175.176C570.137 175.477 570.362 175.72 570.646 175.905C570.933 176.089 571.258 176.182 571.621 176.182Z" fill="#37464B"/>
<path d="M447 204L681 204" stroke="#37464B"/>
<line y1="-0.5" x2="19" y2="-0.5" transform="matrix(-3.74669e-08 -1 -1 5.09966e-08 680 209)" stroke="#37464B"/>
<path d="M553.402 221.21L553.402 220.341L557.237 214.273L557.868 214.273L557.868 215.619L557.442 215.619L554.544 220.205L554.544 220.273L559.709 220.273L559.709 221.21L553.402 221.21ZM557.51 223L557.51 220.946L557.51 220.541L557.51 214.273L558.516 214.273L558.516 223L557.51 223ZM564.101 223.119C563.516 223.119 562.999 223.016 562.55 222.808C562.104 222.598 561.756 222.31 561.506 221.943C561.256 221.574 561.132 221.153 561.135 220.682C561.132 220.312 561.205 219.972 561.353 219.659C561.5 219.344 561.702 219.081 561.958 218.871C562.216 218.658 562.505 218.523 562.823 218.466L562.823 218.415C562.405 218.307 562.073 218.072 561.826 217.712C561.578 217.348 561.456 216.935 561.459 216.472C561.456 216.028 561.569 215.632 561.796 215.283C562.023 214.933 562.336 214.658 562.733 214.456C563.134 214.254 563.59 214.153 564.101 214.153C564.607 214.153 565.059 214.254 565.456 214.456C565.854 214.658 566.167 214.933 566.394 215.283C566.624 215.632 566.74 216.028 566.743 216.472C566.74 216.935 566.614 217.348 566.364 217.712C566.117 218.072 565.789 218.307 565.38 218.415L565.38 218.466C565.695 218.523 565.979 218.658 566.232 218.871C566.485 219.081 566.686 219.344 566.837 219.659C566.988 219.972 567.064 220.312 567.067 220.682C567.064 221.153 566.936 221.574 566.684 221.943C566.434 222.31 566.086 222.598 565.64 222.808C565.196 223.016 564.684 223.119 564.101 223.119ZM564.101 222.182C564.496 222.182 564.837 222.118 565.124 221.99C565.411 221.862 565.632 221.682 565.789 221.449C565.945 221.216 566.025 220.943 566.027 220.631C566.025 220.301 565.939 220.01 565.772 219.757C565.604 219.504 565.375 219.305 565.086 219.161C564.799 219.016 564.471 218.943 564.101 218.943C563.729 218.943 563.397 219.016 563.104 219.161C562.814 219.305 562.586 219.504 562.418 219.757C562.253 220.01 562.172 220.301 562.175 220.631C562.172 220.943 562.248 221.216 562.401 221.449C562.557 221.682 562.78 221.862 563.07 221.99C563.36 222.118 563.703 222.182 564.101 222.182ZM564.101 218.04C564.414 218.04 564.691 217.977 564.932 217.852C565.176 217.727 565.368 217.553 565.507 217.328C565.647 217.104 565.718 216.841 565.721 216.54C565.718 216.244 565.648 215.987 565.512 215.768C565.375 215.547 565.186 215.376 564.945 215.257C564.703 215.135 564.422 215.074 564.101 215.074C563.775 215.074 563.489 215.135 563.245 215.257C563 215.376 562.811 215.547 562.678 215.768C562.544 215.987 562.479 216.244 562.482 216.54C562.479 216.841 562.546 217.104 562.682 217.328C562.821 217.553 563.013 217.727 563.257 217.852C563.502 217.977 563.783 218.04 564.101 218.04ZM571.547 223.119C570.905 223.119 570.358 222.945 569.906 222.595C569.455 222.243 569.109 221.733 568.871 221.065C568.632 220.395 568.513 219.585 568.513 218.636C568.513 217.693 568.632 216.888 568.871 216.22C569.112 215.55 569.459 215.038 569.911 214.686C570.365 214.331 570.911 214.153 571.547 214.153C572.183 214.153 572.727 214.331 573.179 214.686C573.634 215.038 573.98 215.55 574.219 216.22C574.46 216.888 574.581 217.693 574.581 218.636C574.581 219.585 574.462 220.395 574.223 221.065C573.984 221.733 573.639 222.243 573.187 222.595C572.736 222.945 572.189 223.119 571.547 223.119ZM571.547 222.182C572.183 222.182 572.678 221.875 573.03 221.261C573.382 220.648 573.558 219.773 573.558 218.636C573.558 217.881 573.477 217.237 573.315 216.706C573.156 216.175 572.926 215.77 572.625 215.491C572.327 215.213 571.967 215.074 571.547 215.074C570.916 215.074 570.423 215.385 570.068 216.007C569.713 216.626 569.536 217.503 569.536 218.636C569.536 219.392 569.615 220.034 569.774 220.562C569.933 221.091 570.162 221.493 570.46 221.768C570.761 222.044 571.124 222.182 571.547 222.182Z" fill="#37464B"/>
<line y1="-0.5" x2="19" y2="-0.5" transform="matrix(-3.74669e-08 -1 -1 5.09966e-08 447 209)" stroke="#37464B"/>
<line y1="-0.5" x2="19" y2="-0.5" transform="matrix(-3.27835e-08 -1 -1 5.82819e-08 467 163)" stroke="#37464B"/>
<path d="M561 74H567" stroke="#37464B"/>
<line x1="567.5" y1="69" x2="567.5" y2="88" stroke="#37464B"/>
<path d="M561.55 54.2727V63H560.493V55.3807H560.442L558.311 56.7955V55.7216L560.493 54.2727H561.55ZM564.06 63V62.233L566.94 59.0795C567.278 58.7102 567.557 58.3892 567.776 58.1165C567.994 57.8409 568.156 57.5824 568.261 57.3409C568.369 57.0966 568.423 56.8409 568.423 56.5739C568.423 56.267 568.349 56.0014 568.202 55.777C568.057 55.5526 567.858 55.3793 567.605 55.2571C567.352 55.1349 567.068 55.0739 566.753 55.0739C566.418 55.0739 566.125 55.1435 565.875 55.2827C565.628 55.419 565.436 55.6108 565.3 55.858C565.166 56.1051 565.099 56.3949 565.099 56.7273H564.094C564.094 56.2159 564.212 55.767 564.447 55.3807C564.683 54.9943 565.004 54.6932 565.411 54.4773C565.82 54.2614 566.278 54.1534 566.787 54.1534C567.298 54.1534 567.751 54.2614 568.146 54.4773C568.541 54.6932 568.851 54.9844 569.075 55.3509C569.3 55.7173 569.412 56.125 569.412 56.5739C569.412 56.8949 569.354 57.2088 569.237 57.5156C569.124 57.8196 568.925 58.1591 568.641 58.5341C568.359 58.9062 567.969 59.3608 567.469 59.8977L565.509 61.9943V62.0625H569.565V63H564.06Z" fill="#37464B"/>
<line x1="560.5" y1="69" x2="560.5" y2="88" stroke="#37464B"/>
<g clip-path="url(#clip0_1231_3871)">
<rect x="447" y="96" width="20" height="60" fill="#CDE8DC"/>
<rect x="467" y="96" width="28" height="60" fill="#FFCFBF"/>
<rect x="495" y="96" width="6" height="60" fill="#F2F6F9"/>
<rect x="501" y="96" width="27" height="60" fill="#FFCFBF"/>
<rect x="528" y="96" width="6" height="60" fill="#F2F6F9"/>
<rect x="534" y="96" width="27" height="60" fill="#FFCFBF"/>
<rect x="561" y="96" width="6" height="60" fill="#F2F6F9"/>
<rect x="567" y="96" width="27" height="60" fill="#FFCFBF"/>
<rect x="594" y="96" width="6" height="60" fill="#F2F6F9"/>
<rect x="600" y="96" width="27" height="60" fill="#FFCFBF"/>
<rect x="627" y="96" width="6" height="60" fill="#F2F6F9"/>
<rect x="633" y="96" width="28" height="60" fill="#FFCFBF"/>
<rect x="661" y="96" width="20" height="60" fill="#CDE8DC"/>
</g>
<defs>
<clipPath id="clip0_1231_3871">
<rect width="234" height="40" fill="white" transform="translate(447 96)"/>
</clipPath>
</defs>
</svg>
