<svg width="1128" height="276" viewBox="0 0 1128 276" fill="none" xmlns="http://www.w3.org/2000/svg">
<rect width="1128" height="276" fill="#F2F6F9"/>
<path d="M450.889 74L481.111 74" stroke="#37464B"/>
<line x1="481.5" y1="69" x2="481.5" y2="88" stroke="#37464B"/>
<line x1="450.5" y1="69" x2="450.5" y2="88" stroke="#37464B"/>
<path d="M462.207 63.1193C461.849 63.1136 461.491 63.0455 461.134 62.9148C460.776 62.7841 460.449 62.5639 460.153 62.2543C459.858 61.9418 459.621 61.5199 459.442 60.9886C459.263 60.4545 459.173 59.7841 459.173 58.9773C459.173 58.2045 459.246 57.5199 459.391 56.9233C459.536 56.3239 459.746 55.8196 460.021 55.4105C460.297 54.9986 460.629 54.6861 461.018 54.473C461.411 54.2599 461.852 54.1534 462.344 54.1534C462.832 54.1534 463.267 54.2514 463.648 54.4474C464.031 54.6406 464.344 54.9105 464.585 55.2571C464.827 55.6037 464.983 56.0028 465.054 56.4545H464.014C463.918 56.0625 463.73 55.7372 463.452 55.4787C463.173 55.2202 462.804 55.0909 462.344 55.0909C461.668 55.0909 461.135 55.3849 460.746 55.973C460.359 56.5611 460.165 57.3864 460.162 58.4489H460.23C460.389 58.2074 460.578 58.0014 460.797 57.831C461.018 57.6577 461.263 57.5241 461.53 57.4304C461.797 57.3366 462.08 57.2898 462.378 57.2898C462.878 57.2898 463.335 57.4148 463.75 57.6648C464.165 57.9119 464.497 58.2543 464.747 58.6918C464.997 59.1264 465.122 59.625 465.122 60.1875C465.122 60.7273 465.001 61.2216 464.76 61.6705C464.518 62.1165 464.179 62.4716 463.741 62.7358C463.307 62.9972 462.795 63.125 462.207 63.1193ZM462.207 62.1818C462.565 62.1818 462.886 62.0923 463.17 61.9134C463.457 61.7344 463.683 61.4943 463.848 61.1932C464.016 60.892 464.099 60.5568 464.099 60.1875C464.099 59.8267 464.018 59.4986 463.857 59.2031C463.697 58.9048 463.477 58.6676 463.196 58.4915C462.918 58.3153 462.599 58.2273 462.241 58.2273C461.972 58.2273 461.72 58.2812 461.487 58.3892C461.254 58.4943 461.05 58.6392 460.874 58.8239C460.7 59.0085 460.564 59.2202 460.464 59.4588C460.365 59.6946 460.315 59.9432 460.315 60.2045C460.315 60.5511 460.396 60.875 460.558 61.1761C460.723 61.4773 460.947 61.7202 461.232 61.9048C461.518 62.0895 461.844 62.1818 462.207 62.1818ZM466.593 61.2102V60.3409L470.429 54.2727H471.059V55.6193H470.633L467.735 60.2045V60.2727H472.9V61.2102H466.593ZM470.701 63V60.946V60.5412V54.2727H471.707V63H470.701Z" fill="#37464B"/>
<path d="M377 74L410.825 74" stroke="#37464B"/>
<line x1="410.5" y1="69" x2="410.5" y2="88" stroke="#37464B"/>
<line x1="376.5" y1="69" x2="376.5" y2="88" stroke="#37464B"/>
<path d="M388.116 63L392.019 55.2784V55.2102H387.519V54.2727H393.11V55.2614L389.224 63H388.116ZM394.698 63V62.233L397.579 59.0795C397.917 58.7102 398.195 58.3892 398.414 58.1165C398.633 57.8409 398.795 57.5824 398.9 57.3409C399.008 57.0966 399.062 56.8409 399.062 56.5739C399.062 56.267 398.988 56.0014 398.84 55.777C398.695 55.5526 398.497 55.3793 398.244 55.2571C397.991 55.1349 397.707 55.0739 397.392 55.0739C397.056 55.0739 396.764 55.1435 396.514 55.2827C396.267 55.419 396.075 55.6108 395.938 55.858C395.805 56.1051 395.738 56.3949 395.738 56.7273H394.732C394.732 56.2159 394.85 55.767 395.086 55.3807C395.322 54.9943 395.643 54.6932 396.049 54.4773C396.458 54.2614 396.917 54.1534 397.426 54.1534C397.937 54.1534 398.39 54.2614 398.785 54.4773C399.18 54.6932 399.49 54.9844 399.714 55.3509C399.938 55.7173 400.051 56.125 400.051 56.5739C400.051 56.8949 399.992 57.2088 399.876 57.5156C399.762 57.8196 399.563 58.1591 399.279 58.5341C398.998 58.9062 398.607 59.3608 398.107 59.8977L396.147 61.9943V62.0625H400.204V63H394.698Z" fill="#37464B"/>
<path d="M411 158L717 158" stroke="#37464B"/>
<line y1="-0.5" x2="19" y2="-0.5" transform="matrix(-3.27835e-08 -1 -1 5.82819e-08 716 163)" stroke="#37464B"/>
<line y1="-0.5" x2="19" y2="-0.5" transform="matrix(-3.27835e-08 -1 -1 5.82819e-08 411 163)" stroke="#37464B"/>
<path d="M556.668 177.119C556.31 177.114 555.952 177.045 555.594 176.915C555.237 176.784 554.91 176.564 554.614 176.254C554.319 175.942 554.082 175.52 553.903 174.989C553.724 174.455 553.634 173.784 553.634 172.977C553.634 172.205 553.707 171.52 553.852 170.923C553.996 170.324 554.207 169.82 554.482 169.411C554.758 168.999 555.09 168.686 555.479 168.473C555.871 168.26 556.313 168.153 556.805 168.153C557.293 168.153 557.728 168.251 558.109 168.447C558.492 168.641 558.805 168.911 559.046 169.257C559.288 169.604 559.444 170.003 559.515 170.455L558.475 170.455C558.379 170.062 558.191 169.737 557.913 169.479C557.634 169.22 557.265 169.091 556.805 169.091C556.129 169.091 555.596 169.385 555.207 169.973C554.82 170.561 554.626 171.386 554.623 172.449L554.691 172.449C554.85 172.207 555.039 172.001 555.258 171.831C555.479 171.658 555.724 171.524 555.991 171.43C556.258 171.337 556.54 171.29 556.839 171.29C557.339 171.29 557.796 171.415 558.211 171.665C558.626 171.912 558.958 172.254 559.208 172.692C559.458 173.126 559.583 173.625 559.583 174.187C559.583 174.727 559.462 175.222 559.221 175.67C558.979 176.116 558.64 176.472 558.202 176.736C557.768 176.997 557.256 177.125 556.668 177.119ZM556.668 176.182C557.026 176.182 557.347 176.092 557.631 175.913C557.918 175.734 558.144 175.494 558.309 175.193C558.477 174.892 558.56 174.557 558.56 174.187C558.56 173.827 558.479 173.499 558.317 173.203C558.158 172.905 557.938 172.668 557.657 172.491C557.379 172.315 557.06 172.227 556.702 172.227C556.433 172.227 556.181 172.281 555.948 172.389C555.715 172.494 555.511 172.639 555.335 172.824C555.161 173.009 555.025 173.22 554.925 173.459C554.826 173.695 554.776 173.943 554.776 174.205C554.776 174.551 554.857 174.875 555.019 175.176C555.184 175.477 555.408 175.72 555.692 175.905C555.979 176.089 556.305 176.182 556.668 176.182ZM561.259 177L561.259 176.233L564.14 173.08C564.478 172.71 564.756 172.389 564.975 172.116C565.194 171.841 565.355 171.582 565.461 171.341C565.569 171.097 565.623 170.841 565.623 170.574C565.623 170.267 565.549 170.001 565.401 169.777C565.256 169.553 565.057 169.379 564.804 169.257C564.551 169.135 564.267 169.074 563.952 169.074C563.617 169.074 563.324 169.143 563.074 169.283C562.827 169.419 562.635 169.611 562.499 169.858C562.365 170.105 562.299 170.395 562.299 170.727L561.293 170.727C561.293 170.216 561.411 169.767 561.647 169.381C561.882 168.994 562.203 168.693 562.61 168.477C563.019 168.261 563.478 168.153 563.986 168.153C564.498 168.153 564.951 168.261 565.346 168.477C565.74 168.693 566.05 168.984 566.275 169.351C566.499 169.717 566.611 170.125 566.611 170.574C566.611 170.895 566.553 171.209 566.436 171.516C566.323 171.82 566.124 172.159 565.84 172.534C565.559 172.906 565.168 173.361 564.668 173.898L562.708 175.994L562.708 176.062L566.765 176.062L566.765 177L561.259 177ZM568.132 175.21L568.132 174.341L571.968 168.273L572.598 168.273L572.598 169.619L572.172 169.619L569.275 174.205L569.275 174.273L574.439 174.273L574.439 175.21L568.132 175.21ZM572.24 177L572.24 174.946L572.24 174.541L572.24 168.273L573.246 168.273L573.246 177L572.24 177Z" fill="#37464B"/>
<path d="M377 204L752 204" stroke="#37464B"/>
<line y1="-0.5" x2="19" y2="-0.5" transform="matrix(-3.74669e-08 -1 -1 5.09966e-08 751 209)" stroke="#37464B"/>
<path d="M554.401 223L558.304 215.278L558.304 215.21L553.804 215.21L553.804 214.273L559.395 214.273L559.395 215.261L555.509 223L554.401 223ZM563.694 223.119C563.336 223.114 562.978 223.045 562.62 222.915C562.262 222.784 561.935 222.564 561.64 222.254C561.344 221.942 561.107 221.52 560.928 220.989C560.749 220.455 560.66 219.784 560.66 218.977C560.66 218.205 560.732 217.52 560.877 216.923C561.022 216.324 561.232 215.82 561.508 215.411C561.783 214.999 562.116 214.686 562.505 214.473C562.897 214.26 563.339 214.153 563.83 214.153C564.319 214.153 564.753 214.251 565.134 214.447C565.518 214.641 565.83 214.911 566.072 215.257C566.313 215.604 566.469 216.003 566.54 216.455L565.501 216.455C565.404 216.062 565.216 215.737 564.938 215.479C564.66 215.22 564.29 215.091 563.83 215.091C563.154 215.091 562.621 215.385 562.232 215.973C561.846 216.561 561.651 217.386 561.648 218.449L561.716 218.449C561.876 218.207 562.064 218.001 562.283 217.831C562.505 217.658 562.749 217.524 563.016 217.43C563.283 217.337 563.566 217.29 563.864 217.29C564.364 217.29 564.822 217.415 565.236 217.665C565.651 217.912 565.983 218.254 566.233 218.692C566.483 219.126 566.608 219.625 566.608 220.187C566.608 220.727 566.488 221.222 566.246 221.67C566.005 222.116 565.665 222.472 565.228 222.736C564.793 222.997 564.282 223.125 563.694 223.119ZM563.694 222.182C564.052 222.182 564.373 222.092 564.657 221.913C564.944 221.734 565.17 221.494 565.334 221.193C565.502 220.892 565.586 220.557 565.586 220.187C565.586 219.827 565.505 219.499 565.343 219.203C565.184 218.905 564.964 218.668 564.682 218.491C564.404 218.315 564.086 218.227 563.728 218.227C563.458 218.227 563.206 218.281 562.974 218.389C562.741 218.494 562.536 218.639 562.36 218.824C562.187 219.009 562.05 219.22 561.951 219.459C561.851 219.695 561.802 219.943 561.802 220.205C561.802 220.551 561.883 220.875 562.045 221.176C562.209 221.477 562.434 221.72 562.718 221.905C563.005 222.089 563.33 222.182 563.694 222.182ZM571.08 223.119C570.494 223.119 569.977 223.016 569.529 222.808C569.083 222.598 568.735 222.31 568.485 221.943C568.235 221.574 568.111 221.153 568.114 220.682C568.111 220.312 568.183 219.972 568.331 219.659C568.479 219.344 568.681 219.081 568.936 218.871C569.195 218.658 569.483 218.523 569.801 218.466L569.801 218.415C569.384 218.307 569.051 218.072 568.804 217.712C568.557 217.348 568.435 216.935 568.438 216.472C568.435 216.028 568.547 215.632 568.774 215.283C569.002 214.933 569.314 214.658 569.712 214.456C570.112 214.254 570.568 214.153 571.08 214.153C571.585 214.153 572.037 214.254 572.435 214.456C572.833 214.658 573.145 214.933 573.372 215.283C573.602 215.632 573.719 216.028 573.722 216.472C573.719 216.935 573.593 217.348 573.343 217.712C573.095 218.072 572.767 218.307 572.358 218.415L572.358 218.466C572.673 218.523 572.958 218.658 573.21 218.871C573.463 219.081 573.665 219.344 573.816 219.659C573.966 219.972 574.043 220.312 574.046 220.682C574.043 221.153 573.915 221.574 573.662 221.943C573.412 222.31 573.064 222.598 572.618 222.808C572.175 223.016 571.662 223.119 571.08 223.119ZM571.08 222.182C571.475 222.182 571.816 222.118 572.102 221.99C572.389 221.862 572.611 221.682 572.767 221.449C572.923 221.216 573.003 220.943 573.006 220.631C573.003 220.301 572.918 220.01 572.75 219.757C572.583 219.504 572.354 219.305 572.064 219.161C571.777 219.016 571.449 218.943 571.08 218.943C570.708 218.943 570.375 219.016 570.083 219.161C569.793 219.305 569.564 219.504 569.396 219.757C569.232 220.01 569.151 220.301 569.154 220.631C569.151 220.943 569.226 221.216 569.379 221.449C569.536 221.682 569.759 221.862 570.048 221.99C570.338 222.118 570.682 222.182 571.08 222.182ZM571.08 218.04C571.392 218.04 571.669 217.977 571.911 217.852C572.155 217.727 572.347 217.553 572.486 217.328C572.625 217.104 572.696 216.841 572.699 216.54C572.696 216.244 572.627 215.987 572.49 215.768C572.354 215.547 572.165 215.376 571.923 215.257C571.682 215.135 571.401 215.074 571.08 215.074C570.753 215.074 570.468 215.135 570.223 215.257C569.979 215.376 569.79 215.547 569.656 215.768C569.523 215.987 569.458 216.244 569.46 216.54C569.458 216.841 569.524 217.104 569.661 217.328C569.8 217.553 569.992 217.727 570.236 217.852C570.48 217.977 570.762 218.04 571.08 218.04Z" fill="#37464B"/>
<line y1="-0.5" x2="19" y2="-0.5" transform="matrix(-3.74669e-08 -1 -1 5.09966e-08 377 209)" stroke="#37464B"/>
<path d="M521 74H529" stroke="#37464B"/>
<line x1="529.5" y1="69" x2="529.5" y2="88" stroke="#37464B"/>
<path d="M522.438 54.2727V63H521.382V55.3807H521.33L519.2 56.7955V55.7216L521.382 54.2727H522.438ZM527.846 63.1193C527.488 63.1136 527.13 63.0455 526.772 62.9148C526.414 62.7841 526.088 62.5639 525.792 62.2543C525.497 61.9418 525.259 61.5199 525.08 60.9886C524.901 60.4545 524.812 59.7841 524.812 58.9773C524.812 58.2045 524.884 57.5199 525.029 56.9233C525.174 56.3239 525.384 55.8196 525.66 55.4105C525.936 54.9986 526.268 54.6861 526.657 54.473C527.049 54.2599 527.491 54.1534 527.982 54.1534C528.471 54.1534 528.906 54.2514 529.286 54.4474C529.67 54.6406 529.982 54.9105 530.224 55.2571C530.465 55.6037 530.622 56.0028 530.693 56.4545H529.653C529.556 56.0625 529.369 55.7372 529.09 55.4787C528.812 55.2202 528.443 55.0909 527.982 55.0909C527.306 55.0909 526.774 55.3849 526.384 55.973C525.998 56.5611 525.803 57.3864 525.801 58.4489H525.869C526.028 58.2074 526.217 58.0014 526.436 57.831C526.657 57.6577 526.901 57.5241 527.169 57.4304C527.436 57.3366 527.718 57.2898 528.017 57.2898C528.517 57.2898 528.974 57.4148 529.389 57.6648C529.803 57.9119 530.136 58.2543 530.386 58.6918C530.636 59.1264 530.761 59.625 530.761 60.1875C530.761 60.7273 530.64 61.2216 530.399 61.6705C530.157 62.1165 529.818 62.4716 529.38 62.7358C528.945 62.9972 528.434 63.125 527.846 63.1193ZM527.846 62.1818C528.204 62.1818 528.525 62.0923 528.809 61.9134C529.096 61.7344 529.322 61.4943 529.487 61.1932C529.654 60.892 529.738 60.5568 529.738 60.1875C529.738 59.8267 529.657 59.4986 529.495 59.2031C529.336 58.9048 529.116 58.6676 528.835 58.4915C528.556 58.3153 528.238 58.2273 527.88 58.2273C527.61 58.2273 527.359 58.2812 527.126 58.3892C526.893 58.4943 526.688 58.6392 526.512 58.8239C526.339 59.0085 526.203 59.2202 526.103 59.4588C526.004 59.6946 525.954 59.9432 525.954 60.2045C525.954 60.5511 526.035 60.875 526.197 61.1761C526.362 61.4773 526.586 61.7202 526.87 61.9048C527.157 62.0895 527.482 62.1818 527.846 62.1818Z" fill="#37464B"/>
<line x1="520.5" y1="69" x2="520.5" y2="88" stroke="#37464B"/>
<rect x="376" y="96" width="35.25" height="40" fill="#CDE8DC"/>
<rect x="411.25" y="96" width="31.3333" height="40" fill="#FFCFBF"/>
<rect x="442.583" y="96" width="7.83333" height="40" fill="#F2F6F9"/>
<rect x="450.417" y="96" width="31.3333" height="40" fill="#FFCFBF"/>
<rect x="481.75" y="96" width="7.83333" height="40" fill="#F2F6F9"/>
<rect x="489.583" y="96" width="31.3333" height="40" fill="#FFCFBF"/>
<rect x="520.917" y="96" width="7.83333" height="40" fill="#F2F6F9"/>
<rect x="528.75" y="96" width="31.3333" height="40" fill="#FFCFBF"/>
<rect x="560.083" y="96" width="7.83333" height="40" fill="#F2F6F9"/>
<rect x="567.917" y="96" width="31.3333" height="40" fill="#FFCFBF"/>
<rect x="599.25" y="96" width="7.83333" height="40" fill="#F2F6F9"/>
<rect x="607.083" y="96" width="31.3333" height="40" fill="#FFCFBF"/>
<rect x="638.417" y="96" width="7.83333" height="40" fill="#F2F6F9"/>
<rect x="646.25" y="96" width="31.3333" height="40" fill="#FFCFBF"/>
<rect x="677.583" y="96" width="7.83333" height="40" fill="#F2F6F9"/>
<rect x="685.417" y="96" width="31.3333" height="40" fill="#FFCFBF"/>
<rect x="716.75" y="96" width="35.25" height="40" fill="#CDE8DC"/>
</svg>
