<svg xmlns="http://www.w3.org/2000/svg" width="1128" height="500" fill="none"><path fill="#058CD7" d="M0 0h1128v500H0z"/><path fill="#FFA5C3" d="M510.932 113.344h47.35v70.839h11.88v-82.627h-71.053v82.627h11.823v-70.839ZM428.113 184.239h11.823l4.898-17.345h30.628v17.289h11.824V101.5h-35.245v.112h-.225l-15.314 53.438h-5.011l-3.378 11.788h4.954l-4.954 17.401Zm31.923-70.895h15.426v41.762h-27.25l11.824-41.762ZM699.824 101.5h-34.625v.112h-.169l-15.371 53.438h-5.01l-3.378 11.788h5.01l-5.01 17.345h11.823l4.898-17.345h30.684v17.288H700.5V101.5h-.676Zm-38.454 53.55 11.824-41.762h15.482v41.762H661.37ZM641.158 128.275v-.112c0-14.202-10.754-25.877-24.266-26.551h-34.907v82.627h11.823v-29.245l21.676-.056c14.076 0 25.561-11.844 25.561-26.607v-.056h.113Zm-27.138 15.099h-20.155v-30.143h20.155c7.995 0 14.47 6.736 14.47 15.044 0 8.364-6.475 15.099-14.47 15.099ZM676.12 314.072h-34.907v82.627h11.823v-29.301l21.676-.056c14.076 0 25.561-11.844 25.561-26.607v-.112c.113-14.202-10.697-25.877-24.153-26.551Zm-2.871 41.706h-20.156v-30.143h20.156c7.994 0 14.469 6.736 14.469 15.044 0 8.363-6.475 15.099-14.469 15.099ZM539.663 345.995V314H498v82.626h30.29c14.076 0 25.561-11.843 25.561-26.606v-.169c0-10.44-5.799-19.477-14.188-23.856Zm-11.823-20.207v17.457h-17.96v-17.457h17.96Zm-1.07 59.219h-16.89v-30.143h16.89c7.995 0 14.47 6.736 14.47 15.044 0 8.363-6.475 15.099-14.47 15.099ZM483.964 384.967h-8.558v-70.839h-5.855v-.056H439.936v70.895h-8.502L428 396.755h35.583v.056h11.823v-.056h11.88l-3.322-11.788Zm-32.205 0v-59.051h11.824v59.051h-11.824ZM596.623 311.771c-20.043 0-36.258 19.534-36.258 43.614 0 24.081 16.215 43.615 36.258 43.615 20.044 0 36.259-19.534 36.259-43.615 0-24.08-16.215-43.614-36.259-43.614Zm0 75.441c-13.456 0-24.378-14.257-24.378-31.827 0-17.513 10.922-31.827 24.378-31.827 13.457 0 24.379 14.258 24.379 31.827.056 17.514-10.922 31.827-24.379 31.827ZM439.879 255.077h26.687l8.896 35.42h11.823l-11.823-47.207H454.63l32.599-35.476h-14.526l-32.824 35.195v-35.195h-11.823v82.627h11.823v-35.364ZM582.042 290.442l35.526-58.939v58.939h11.823v-82.683h-11.823l-35.526 59.276v-59.22h-11.88v82.627h11.88ZM688.62 243.234h-35.807v-35.42h-11.824v82.627h11.824v-35.42h35.807v35.42h11.824v-82.627H688.62v35.42ZM528.274 217.525c10.247 0 18.298 6.455 22.352 17.176 0 0 6.812-4.49 10.021-7.802-5.517-13.135-18.804-21.386-32.373-21.386-20.944 0-37.947 19.534-37.947 43.614 0 24.081 17.003 43.615 37.947 43.615 11.429 0 21.732-5.838 28.657-15.043-4.785-4.267-9.289-8.083-9.289-8.083-4.673 6.791-11.655 11.114-19.424 11.114-14.076 0-25.561-14.202-25.561-31.603.056-17.457 11.542-31.602 25.617-31.602Z"/></svg>