<svg width="552" height="276" viewBox="0 0 552 276" fill="none" xmlns="http://www.w3.org/2000/svg">
<rect width="552" height="276" fill="#F2F6F9"/>
<rect x="64.75" y="150.75" width="423.5" height="30.5" stroke="#FF9F7E" stroke-width="1.5"/>
<rect x="64.75" y="94.75" width="423.5" height="30.5" stroke="#FF9F7E" stroke-width="1.5"/>
<rect x="126.75" y="126.75" width="6.5" height="22.5" stroke="#8ECBB0" stroke-width="1.5"/>
<rect x="140.75" y="126.75" width="6.5" height="22.5" stroke="#8ECBB0" stroke-width="1.5"/>
<rect x="162.75" y="126.75" width="6.5" height="22.5" stroke="#8ECBB0" stroke-width="1.5"/>
<rect x="176.75" y="126.75" width="6.5" height="22.5" stroke="#8ECBB0" stroke-width="1.5"/>
<rect x="246.75" y="126.75" width="6.5" height="22.5" stroke="#8ECBB0" stroke-width="1.5"/>
<rect x="260.75" y="126.75" width="6.5" height="22.5" stroke="#8ECBB0" stroke-width="1.5"/>
<rect x="330.75" y="126.75" width="6.5" height="22.5" stroke="#8ECBB0" stroke-width="1.5"/>
<rect x="344.75" y="126.75" width="6.5" height="22.5" stroke="#8ECBB0" stroke-width="1.5"/>
<path d="M130.002 167.119C129.416 167.119 128.899 167.016 128.45 166.808C128.004 166.598 127.656 166.31 127.406 165.943C127.156 165.574 127.033 165.153 127.036 164.682C127.033 164.312 127.105 163.972 127.253 163.659C127.401 163.344 127.602 163.081 127.858 162.871C128.117 162.658 128.405 162.523 128.723 162.466V162.415C128.306 162.307 127.973 162.072 127.726 161.712C127.479 161.348 127.357 160.935 127.36 160.472C127.357 160.028 127.469 159.632 127.696 159.283C127.923 158.933 128.236 158.658 128.634 158.456C129.034 158.254 129.49 158.153 130.002 158.153C130.507 158.153 130.959 158.254 131.357 158.456C131.754 158.658 132.067 158.933 132.294 159.283C132.524 159.632 132.641 160.028 132.644 160.472C132.641 160.935 132.514 161.348 132.264 161.712C132.017 162.072 131.689 162.307 131.28 162.415V162.466C131.595 162.523 131.879 162.658 132.132 162.871C132.385 163.081 132.587 163.344 132.737 163.659C132.888 163.972 132.965 164.312 132.968 164.682C132.965 165.153 132.837 165.574 132.584 165.943C132.334 166.31 131.986 166.598 131.54 166.808C131.097 167.016 130.584 167.119 130.002 167.119ZM130.002 166.182C130.396 166.182 130.737 166.118 131.024 165.99C131.311 165.862 131.533 165.682 131.689 165.449C131.845 165.216 131.925 164.943 131.928 164.631C131.925 164.301 131.84 164.01 131.672 163.757C131.504 163.504 131.276 163.305 130.986 163.161C130.699 163.016 130.371 162.943 130.002 162.943C129.629 162.943 129.297 163.016 129.004 163.161C128.715 163.305 128.486 163.504 128.318 163.757C128.154 164.01 128.073 164.301 128.075 164.631C128.073 164.943 128.148 165.216 128.301 165.449C128.458 165.682 128.681 165.862 128.97 165.99C129.26 166.118 129.604 166.182 130.002 166.182ZM130.002 162.04C130.314 162.04 130.591 161.977 130.833 161.852C131.077 161.727 131.269 161.553 131.408 161.328C131.547 161.104 131.618 160.841 131.621 160.54C131.618 160.244 131.548 159.987 131.412 159.768C131.276 159.547 131.087 159.376 130.845 159.257C130.604 159.135 130.323 159.074 130.002 159.074C129.675 159.074 129.389 159.135 129.145 159.257C128.901 159.376 128.712 159.547 128.578 159.768C128.445 159.987 128.379 160.244 128.382 160.54C128.379 160.841 128.446 161.104 128.583 161.328C128.722 161.553 128.914 161.727 129.158 161.852C129.402 161.977 129.683 162.04 130.002 162.04Z" fill="#738287"/>
<path d="M144.002 167.119C143.416 167.119 142.899 167.016 142.45 166.808C142.004 166.598 141.656 166.31 141.406 165.943C141.156 165.574 141.033 165.153 141.036 164.682C141.033 164.312 141.105 163.972 141.253 163.659C141.401 163.344 141.602 163.081 141.858 162.871C142.117 162.658 142.405 162.523 142.723 162.466V162.415C142.306 162.307 141.973 162.072 141.726 161.712C141.479 161.348 141.357 160.935 141.36 160.472C141.357 160.028 141.469 159.632 141.696 159.283C141.923 158.933 142.236 158.658 142.634 158.456C143.034 158.254 143.49 158.153 144.002 158.153C144.507 158.153 144.959 158.254 145.357 158.456C145.754 158.658 146.067 158.933 146.294 159.283C146.524 159.632 146.641 160.028 146.644 160.472C146.641 160.935 146.514 161.348 146.264 161.712C146.017 162.072 145.689 162.307 145.28 162.415V162.466C145.595 162.523 145.879 162.658 146.132 162.871C146.385 163.081 146.587 163.344 146.737 163.659C146.888 163.972 146.965 164.312 146.968 164.682C146.965 165.153 146.837 165.574 146.584 165.943C146.334 166.31 145.986 166.598 145.54 166.808C145.097 167.016 144.584 167.119 144.002 167.119ZM144.002 166.182C144.396 166.182 144.737 166.118 145.024 165.99C145.311 165.862 145.533 165.682 145.689 165.449C145.845 165.216 145.925 164.943 145.928 164.631C145.925 164.301 145.84 164.01 145.672 163.757C145.504 163.504 145.276 163.305 144.986 163.161C144.699 163.016 144.371 162.943 144.002 162.943C143.629 162.943 143.297 163.016 143.004 163.161C142.715 163.305 142.486 163.504 142.318 163.757C142.154 164.01 142.073 164.301 142.075 164.631C142.073 164.943 142.148 165.216 142.301 165.449C142.458 165.682 142.681 165.862 142.97 165.99C143.26 166.118 143.604 166.182 144.002 166.182ZM144.002 162.04C144.314 162.04 144.591 161.977 144.833 161.852C145.077 161.727 145.269 161.553 145.408 161.328C145.547 161.104 145.618 160.841 145.621 160.54C145.618 160.244 145.548 159.987 145.412 159.768C145.276 159.547 145.087 159.376 144.845 159.257C144.604 159.135 144.323 159.074 144.002 159.074C143.675 159.074 143.389 159.135 143.145 159.257C142.901 159.376 142.712 159.547 142.578 159.768C142.445 159.987 142.379 160.244 142.382 160.54C142.379 160.841 142.446 161.104 142.583 161.328C142.722 161.553 142.914 161.727 143.158 161.852C143.402 161.977 143.683 162.04 144.002 162.04Z" fill="#738287"/>
<path d="M44.8991 170.119C44.3366 170.119 43.8352 170.023 43.3949 169.83C42.9574 169.636 42.6094 169.368 42.3509 169.024C42.0952 168.678 41.956 168.276 41.9332 167.818H43.0071C43.0298 168.099 43.1264 168.342 43.2969 168.547C43.4673 168.749 43.6903 168.905 43.9659 169.016C44.2415 169.126 44.5469 169.182 44.8821 169.182C45.2571 169.182 45.5895 169.116 45.8793 168.986C46.169 168.855 46.3963 168.673 46.5611 168.44C46.7259 168.207 46.8082 167.938 46.8082 167.631C46.8082 167.31 46.7287 167.027 46.5696 166.783C46.4105 166.536 46.1776 166.342 45.8707 166.203C45.5639 166.064 45.1889 165.994 44.7457 165.994H44.0469V165.057H44.7457C45.0923 165.057 45.3963 164.994 45.6577 164.869C45.9219 164.744 46.1278 164.568 46.2756 164.341C46.4261 164.114 46.5014 163.847 46.5014 163.54C46.5014 163.244 46.4361 162.987 46.3054 162.768C46.1747 162.55 45.9901 162.379 45.7514 162.257C45.5156 162.135 45.2372 162.074 44.9162 162.074C44.6151 162.074 44.331 162.129 44.0639 162.24C43.7997 162.348 43.5838 162.506 43.4162 162.713C43.2486 162.918 43.1577 163.165 43.1435 163.455H42.1207C42.1378 162.997 42.2756 162.597 42.5341 162.253C42.7926 161.906 43.1307 161.636 43.5483 161.443C43.9688 161.25 44.4304 161.153 44.9332 161.153C45.473 161.153 45.9361 161.263 46.3224 161.482C46.7088 161.697 47.0057 161.983 47.2131 162.338C47.4205 162.693 47.5241 163.077 47.5241 163.489C47.5241 163.98 47.3949 164.399 47.1364 164.746C46.8807 165.092 46.5327 165.332 46.0923 165.466V165.534C46.6435 165.625 47.0739 165.859 47.3835 166.237C47.6932 166.612 47.848 167.077 47.848 167.631C47.848 168.105 47.7188 168.531 47.4602 168.909C47.2045 169.284 46.8551 169.58 46.4119 169.795C45.9688 170.011 45.4645 170.119 44.8991 170.119ZM49.5909 170V169.233L52.4716 166.08C52.8097 165.71 53.0881 165.389 53.3068 165.116C53.5256 164.841 53.6875 164.582 53.7926 164.341C53.9006 164.097 53.9545 163.841 53.9545 163.574C53.9545 163.267 53.8807 163.001 53.733 162.777C53.5881 162.553 53.3892 162.379 53.1364 162.257C52.8835 162.135 52.5994 162.074 52.2841 162.074C51.9489 162.074 51.6562 162.143 51.4062 162.283C51.1591 162.419 50.9673 162.611 50.831 162.858C50.6974 163.105 50.6307 163.395 50.6307 163.727H49.625C49.625 163.216 49.7429 162.767 49.9787 162.381C50.2145 161.994 50.5355 161.693 50.9418 161.477C51.3509 161.261 51.8097 161.153 52.3182 161.153C52.8295 161.153 53.2827 161.261 53.6776 161.477C54.0724 161.693 54.3821 161.984 54.6065 162.351C54.831 162.717 54.9432 163.125 54.9432 163.574C54.9432 163.895 54.8849 164.209 54.7685 164.516C54.6548 164.82 54.456 165.159 54.1719 165.534C53.8906 165.906 53.5 166.361 53 166.898L51.0398 168.994V169.062H55.0966V170H49.5909Z" fill="#738287"/>
<path d="M44.8991 114.119C44.3366 114.119 43.8352 114.023 43.3949 113.83C42.9574 113.636 42.6094 113.368 42.3509 113.024C42.0952 112.678 41.956 112.276 41.9332 111.818H43.0071C43.0298 112.099 43.1264 112.342 43.2969 112.547C43.4673 112.749 43.6903 112.905 43.9659 113.016C44.2415 113.126 44.5469 113.182 44.8821 113.182C45.2571 113.182 45.5895 113.116 45.8793 112.986C46.169 112.855 46.3963 112.673 46.5611 112.44C46.7259 112.207 46.8082 111.938 46.8082 111.631C46.8082 111.31 46.7287 111.027 46.5696 110.783C46.4105 110.536 46.1776 110.342 45.8707 110.203C45.5639 110.064 45.1889 109.994 44.7457 109.994H44.0469V109.057H44.7457C45.0923 109.057 45.3963 108.994 45.6577 108.869C45.9219 108.744 46.1278 108.568 46.2756 108.341C46.4261 108.114 46.5014 107.847 46.5014 107.54C46.5014 107.244 46.4361 106.987 46.3054 106.768C46.1747 106.55 45.9901 106.379 45.7514 106.257C45.5156 106.135 45.2372 106.074 44.9162 106.074C44.6151 106.074 44.331 106.129 44.0639 106.24C43.7997 106.348 43.5838 106.506 43.4162 106.713C43.2486 106.918 43.1577 107.165 43.1435 107.455H42.1207C42.1378 106.997 42.2756 106.597 42.5341 106.253C42.7926 105.906 43.1307 105.636 43.5483 105.443C43.9688 105.25 44.4304 105.153 44.9332 105.153C45.473 105.153 45.9361 105.263 46.3224 105.482C46.7088 105.697 47.0057 105.983 47.2131 106.338C47.4205 106.693 47.5241 107.077 47.5241 107.489C47.5241 107.98 47.3949 108.399 47.1364 108.746C46.8807 109.092 46.5327 109.332 46.0923 109.466V109.534C46.6435 109.625 47.0739 109.859 47.3835 110.237C47.6932 110.612 47.848 111.077 47.848 111.631C47.848 112.105 47.7188 112.531 47.4602 112.909C47.2045 113.284 46.8551 113.58 46.4119 113.795C45.9688 114.011 45.4645 114.119 44.8991 114.119ZM49.5909 114V113.233L52.4716 110.08C52.8097 109.71 53.0881 109.389 53.3068 109.116C53.5256 108.841 53.6875 108.582 53.7926 108.341C53.9006 108.097 53.9545 107.841 53.9545 107.574C53.9545 107.267 53.8807 107.001 53.733 106.777C53.5881 106.553 53.3892 106.379 53.1364 106.257C52.8835 106.135 52.5994 106.074 52.2841 106.074C51.9489 106.074 51.6562 106.143 51.4062 106.283C51.1591 106.419 50.9673 106.611 50.831 106.858C50.6974 107.105 50.6307 107.395 50.6307 107.727H49.625C49.625 107.216 49.7429 106.767 49.9787 106.381C50.2145 105.994 50.5355 105.693 50.9418 105.477C51.3509 105.261 51.8097 105.153 52.3182 105.153C52.8295 105.153 53.2827 105.261 53.6776 105.477C54.0724 105.693 54.3821 105.984 54.6065 106.351C54.831 106.717 54.9432 107.125 54.9432 107.574C54.9432 107.895 54.8849 108.209 54.7685 108.516C54.6548 108.82 54.456 109.159 54.1719 109.534C53.8906 109.906 53.5 110.361 53 110.898L51.0398 112.994V113.062H55.0966V114H49.5909Z" fill="#738287"/>
<path d="M74.1136 132.364V144H72.7045V133.614H66.8409V144H65.4318V132.364H74.1136ZM77.6378 147.273C77.4105 147.273 77.2079 147.254 77.0298 147.216C76.8518 147.182 76.7287 147.148 76.6605 147.114L77.0014 145.932C77.3272 146.015 77.6151 146.045 77.8651 146.023C78.1151 146 78.3366 145.888 78.5298 145.688C78.7268 145.491 78.9067 145.17 79.0696 144.727L79.3196 144.045L76.0923 135.273H77.5469L79.956 142.227H80.0469L82.456 135.273H83.9105L80.206 145.273C80.0393 145.723 79.8329 146.097 79.5866 146.392C79.3404 146.691 79.0545 146.913 78.7287 147.057C78.4067 147.201 78.0431 147.273 77.6378 147.273ZM91.5213 139.023V140.273H86.7031V139.023H91.5213ZM87.0213 135.273V144H85.6804V135.273H87.0213ZM92.544 135.273V144H91.2031V135.273H92.544ZM94.9929 144V135.273H96.3338V139.068H97.2202L100.357 135.273H102.084L98.5611 139.477L102.129 144H100.402L97.5384 140.318H96.3338V144H94.9929ZM103.087 136.523V135.273H110.178V136.523H107.314V144H105.973V136.523H103.087ZM120.406 144.159C119.55 144.159 118.821 143.926 118.219 143.46C117.616 142.991 117.156 142.311 116.838 141.42C116.52 140.527 116.361 139.447 116.361 138.182C116.361 136.924 116.52 135.85 116.838 134.96C117.16 134.066 117.622 133.384 118.224 132.915C118.83 132.441 119.558 132.205 120.406 132.205C121.255 132.205 121.98 132.441 122.582 132.915C123.188 133.384 123.651 134.066 123.969 134.96C124.291 135.85 124.452 136.924 124.452 138.182C124.452 139.447 124.293 140.527 123.974 141.42C123.656 142.311 123.196 142.991 122.594 143.46C121.991 143.926 121.262 144.159 120.406 144.159ZM120.406 142.909C121.255 142.909 121.914 142.5 122.384 141.682C122.853 140.864 123.088 139.697 123.088 138.182C123.088 137.174 122.98 136.316 122.764 135.608C122.552 134.9 122.245 134.36 121.844 133.989C121.446 133.617 120.967 133.432 120.406 133.432C119.565 133.432 118.908 133.847 118.435 134.676C117.961 135.502 117.724 136.67 117.724 138.182C117.724 139.189 117.83 140.045 118.043 140.75C118.255 141.455 118.56 141.991 118.957 142.358C119.359 142.725 119.842 142.909 120.406 142.909Z" fill="#058C50"/>
<path d="M139.341 131.818L135.591 145.75H134.364L138.114 131.818H139.341Z" fill="#0A2832"/>
<circle cx="149" cy="138" r="1" fill="#058C50"/>
<circle cx="155" cy="138" r="1" fill="#058C50"/>
<circle cx="161" cy="138" r="1" fill="#058C50"/>
<path d="M175.341 131.818L171.591 145.75H170.364L174.114 131.818H175.341Z" fill="#0A2832"/>
<path d="M194.114 132.364V144H192.705V133.614H186.841V144H185.432V132.364H194.114ZM197.638 147.273C197.411 147.273 197.208 147.254 197.03 147.216C196.852 147.182 196.729 147.148 196.661 147.114L197.001 145.932C197.327 146.015 197.615 146.045 197.865 146.023C198.115 146 198.337 145.888 198.53 145.688C198.727 145.491 198.907 145.17 199.07 144.727L199.32 144.045L196.092 135.273H197.547L199.956 142.227H200.047L202.456 135.273H203.911L200.206 145.273C200.039 145.723 199.833 146.097 199.587 146.392C199.34 146.691 199.054 146.913 198.729 147.057C198.407 147.201 198.043 147.273 197.638 147.273ZM211.521 139.023V140.273H206.703V139.023H211.521ZM207.021 135.273V144H205.68V135.273H207.021ZM212.544 135.273V144H211.203V135.273H212.544ZM214.993 144V135.273H216.334V139.068H217.22L220.357 135.273H222.084L218.561 139.477L222.129 144H220.402L217.538 140.318H216.334V144H214.993ZM223.087 136.523V135.273H230.178V136.523H227.314V144H225.973V136.523H223.087ZM240.247 144.159C239.58 144.159 238.98 144.027 238.446 143.761C237.912 143.496 237.484 143.133 237.162 142.67C236.84 142.208 236.664 141.682 236.634 141.091H237.997C238.05 141.617 238.289 142.053 238.713 142.398C239.141 142.739 239.652 142.909 240.247 142.909C240.724 142.909 241.149 142.797 241.52 142.574C241.895 142.35 242.188 142.044 242.401 141.653C242.616 141.259 242.724 140.814 242.724 140.318C242.724 139.811 242.613 139.358 242.389 138.96C242.17 138.559 241.866 138.242 241.48 138.011C241.094 137.78 240.652 137.663 240.156 137.659C239.8 137.655 239.435 137.71 239.06 137.824C238.685 137.934 238.376 138.076 238.134 138.25L236.815 138.091L237.52 132.364H243.565V133.614H238.702L238.293 137.045H238.361C238.599 136.856 238.899 136.699 239.259 136.574C239.618 136.449 239.993 136.386 240.384 136.386C241.096 136.386 241.73 136.557 242.287 136.898C242.848 137.235 243.287 137.697 243.605 138.284C243.927 138.871 244.088 139.542 244.088 140.295C244.088 141.038 243.921 141.701 243.588 142.284C243.259 142.864 242.804 143.322 242.224 143.659C241.645 143.992 240.986 144.159 240.247 144.159Z" fill="#058C50"/>
<path d="M259.341 131.818L255.591 145.75H254.364L258.114 131.818H259.341Z" fill="#0A2832"/>
<path d="M278.114 132.364V144H276.705V133.614H270.841V144H269.432V132.364H278.114ZM281.638 147.273C281.411 147.273 281.208 147.254 281.03 147.216C280.852 147.182 280.729 147.148 280.661 147.114L281.001 145.932C281.327 146.015 281.615 146.045 281.865 146.023C282.115 146 282.337 145.888 282.53 145.688C282.727 145.491 282.907 145.17 283.07 144.727L283.32 144.045L280.092 135.273H281.547L283.956 142.227H284.047L286.456 135.273H287.911L284.206 145.273C284.039 145.723 283.833 146.097 283.587 146.392C283.34 146.691 283.054 146.913 282.729 147.057C282.407 147.201 282.043 147.273 281.638 147.273ZM295.521 139.023V140.273H290.703V139.023H295.521ZM291.021 135.273V144H289.68V135.273H291.021ZM296.544 135.273V144H295.203V135.273H296.544ZM298.993 144V135.273H300.334V139.068H301.22L304.357 135.273H306.084L302.561 139.477L306.129 144H304.402L301.538 140.318H300.334V144H298.993ZM307.087 136.523V135.273H314.178V136.523H311.314V144H309.973V136.523H307.087ZM324.474 144.159C323.997 144.152 323.52 144.061 323.043 143.886C322.565 143.712 322.13 143.419 321.736 143.006C321.342 142.589 321.026 142.027 320.787 141.318C320.548 140.606 320.429 139.712 320.429 138.636C320.429 137.606 320.526 136.693 320.719 135.898C320.912 135.098 321.192 134.426 321.56 133.881C321.927 133.331 322.37 132.915 322.889 132.631C323.412 132.347 324.001 132.205 324.656 132.205C325.308 132.205 325.887 132.335 326.395 132.597C326.906 132.854 327.323 133.214 327.645 133.676C327.967 134.138 328.175 134.67 328.27 135.273H326.884C326.755 134.75 326.505 134.316 326.134 133.972C325.762 133.627 325.27 133.455 324.656 133.455C323.755 133.455 323.045 133.847 322.526 134.631C322.01 135.415 321.751 136.515 321.747 137.932H321.838C322.05 137.61 322.302 137.335 322.594 137.108C322.889 136.877 323.215 136.699 323.571 136.574C323.927 136.449 324.304 136.386 324.702 136.386C325.368 136.386 325.978 136.553 326.531 136.886C327.084 137.216 327.527 137.672 327.861 138.256C328.194 138.835 328.361 139.5 328.361 140.25C328.361 140.97 328.2 141.629 327.878 142.227C327.556 142.822 327.103 143.295 326.52 143.648C325.94 143.996 325.259 144.167 324.474 144.159ZM324.474 142.909C324.952 142.909 325.38 142.79 325.759 142.551C326.141 142.312 326.442 141.992 326.662 141.591C326.885 141.189 326.997 140.742 326.997 140.25C326.997 139.769 326.889 139.331 326.673 138.938C326.461 138.54 326.168 138.223 325.793 137.989C325.421 137.754 324.997 137.636 324.52 137.636C324.16 137.636 323.825 137.708 323.514 137.852C323.204 137.992 322.931 138.186 322.696 138.432C322.465 138.678 322.283 138.96 322.151 139.278C322.018 139.593 321.952 139.924 321.952 140.273C321.952 140.735 322.06 141.167 322.276 141.568C322.495 141.97 322.795 142.294 323.173 142.54C323.556 142.786 323.99 142.909 324.474 142.909Z" fill="#058C50"/>
<path d="M343.341 131.818L339.591 145.75H338.364L342.114 131.818H343.341Z" fill="#0A2832"/>
<path d="M362.114 132.364V144H360.705V133.614H354.841V144H353.432V132.364H362.114ZM368.32 144.182C367.532 144.182 366.84 143.994 366.246 143.619C365.655 143.244 365.193 142.72 364.859 142.045C364.53 141.371 364.365 140.583 364.365 139.682C364.365 138.773 364.53 137.979 364.859 137.301C365.193 136.623 365.655 136.097 366.246 135.722C366.84 135.347 367.532 135.159 368.32 135.159C369.107 135.159 369.797 135.347 370.388 135.722C370.982 136.097 371.445 136.623 371.774 137.301C372.107 137.979 372.274 138.773 372.274 139.682C372.274 140.583 372.107 141.371 371.774 142.045C371.445 142.72 370.982 143.244 370.388 143.619C369.797 143.994 369.107 144.182 368.32 144.182ZM368.32 142.977C368.918 142.977 369.411 142.824 369.797 142.517C370.183 142.21 370.469 141.807 370.655 141.307C370.84 140.807 370.933 140.265 370.933 139.682C370.933 139.098 370.84 138.555 370.655 138.051C370.469 137.547 370.183 137.14 369.797 136.83C369.411 136.519 368.918 136.364 368.32 136.364C367.721 136.364 367.229 136.519 366.842 136.83C366.456 137.14 366.17 137.547 365.984 138.051C365.799 138.555 365.706 139.098 365.706 139.682C365.706 140.265 365.799 140.807 365.984 141.307C366.17 141.807 366.456 142.21 366.842 142.517C367.229 142.824 367.721 142.977 368.32 142.977ZM377.866 144.182C377.048 144.182 376.344 143.989 375.753 143.602C375.162 143.216 374.707 142.684 374.389 142.006C374.071 141.328 373.912 140.553 373.912 139.682C373.912 138.795 374.075 138.013 374.401 137.335C374.73 136.653 375.188 136.121 375.776 135.739C376.366 135.352 377.056 135.159 377.844 135.159C378.457 135.159 379.01 135.273 379.503 135.5C379.995 135.727 380.399 136.045 380.713 136.455C381.027 136.864 381.223 137.341 381.298 137.886H379.957C379.855 137.489 379.628 137.136 379.276 136.83C378.927 136.519 378.457 136.364 377.866 136.364C377.344 136.364 376.885 136.5 376.491 136.773C376.101 137.042 375.796 137.422 375.577 137.915C375.361 138.403 375.253 138.977 375.253 139.636C375.253 140.311 375.359 140.898 375.571 141.398C375.787 141.898 376.09 142.286 376.48 142.562C376.874 142.839 377.336 142.977 377.866 142.977C378.215 142.977 378.531 142.917 378.815 142.795C379.099 142.674 379.34 142.5 379.537 142.273C379.734 142.045 379.874 141.773 379.957 141.455H381.298C381.223 141.97 381.035 142.434 380.736 142.847C380.44 143.256 380.048 143.581 379.56 143.824C379.075 144.062 378.51 144.182 377.866 144.182ZM382.486 144V142.75H382.804C383.065 142.75 383.283 142.699 383.457 142.597C383.632 142.491 383.772 142.307 383.878 142.045C383.988 141.78 384.071 141.413 384.128 140.943C384.188 140.47 384.232 139.867 384.259 139.136L384.418 135.273H390.236V144H388.895V136.523H385.69L385.554 139.636C385.524 140.352 385.459 140.983 385.361 141.528C385.266 142.07 385.12 142.525 384.923 142.892C384.73 143.259 384.473 143.536 384.151 143.722C383.829 143.907 383.425 144 382.94 144H382.486ZM396.355 144.182C395.514 144.182 394.789 143.996 394.179 143.625C393.573 143.25 393.105 142.727 392.776 142.057C392.45 141.383 392.287 140.598 392.287 139.705C392.287 138.811 392.45 138.023 392.776 137.341C393.105 136.655 393.563 136.121 394.151 135.739C394.741 135.352 395.431 135.159 396.219 135.159C396.673 135.159 397.122 135.235 397.565 135.386C398.009 135.538 398.412 135.784 398.776 136.125C399.139 136.462 399.429 136.909 399.645 137.466C399.861 138.023 399.969 138.708 399.969 139.523V140.091H393.241V138.932H398.605C398.605 138.439 398.507 138 398.31 137.614C398.116 137.227 397.84 136.922 397.48 136.699C397.124 136.475 396.704 136.364 396.219 136.364C395.685 136.364 395.223 136.496 394.832 136.761C394.446 137.023 394.149 137.364 393.94 137.784C393.732 138.205 393.628 138.655 393.628 139.136V139.909C393.628 140.568 393.741 141.127 393.969 141.585C394.2 142.04 394.52 142.386 394.929 142.625C395.338 142.86 395.813 142.977 396.355 142.977C396.707 142.977 397.026 142.928 397.31 142.83C397.598 142.727 397.846 142.576 398.054 142.375C398.262 142.17 398.423 141.917 398.537 141.614L399.832 141.977C399.696 142.417 399.467 142.803 399.145 143.136C398.823 143.466 398.425 143.723 397.952 143.909C397.478 144.091 396.946 144.182 396.355 144.182ZM401.077 146.5V142.75H401.804C401.982 142.564 402.135 142.364 402.264 142.148C402.393 141.932 402.505 141.676 402.599 141.381C402.698 141.081 402.781 140.718 402.849 140.29C402.918 139.858 402.978 139.337 403.031 138.727L403.327 135.273H408.872V142.75H410.213V146.5H408.872V144H402.418V146.5H401.077ZM403.327 142.75H407.531V136.523H404.577L404.349 138.727C404.255 139.64 404.137 140.437 403.997 141.119C403.857 141.801 403.634 142.345 403.327 142.75ZM417.834 139.023V140.273H413.016V139.023H417.834ZM413.334 135.273V144H411.993V135.273H413.334ZM418.857 135.273V144H417.516V135.273H418.857ZM422.646 142.023L426.851 135.273H428.396V144H427.055V137.25L422.874 144H421.305V135.273H422.646V142.023ZM432.193 142.023L436.398 135.273H437.943V144H436.602V137.25L432.42 144H430.852V135.273H432.193V142.023ZM435.511 132.364H436.761C436.761 132.977 436.549 133.479 436.125 133.869C435.701 134.259 435.125 134.455 434.398 134.455C433.682 134.455 433.112 134.259 432.688 133.869C432.267 133.479 432.057 132.977 432.057 132.364H433.307C433.307 132.659 433.388 132.919 433.551 133.142C433.718 133.366 434 133.477 434.398 133.477C434.795 133.477 435.08 133.366 435.25 133.142C435.424 132.919 435.511 132.659 435.511 132.364ZM444.899 144V135.273H451.763V144H450.422V136.523H446.24V144H444.899ZM454.763 147.273C454.536 147.273 454.333 147.254 454.155 147.216C453.977 147.182 453.854 147.148 453.786 147.114L454.126 145.932C454.452 146.015 454.74 146.045 454.99 146.023C455.24 146 455.462 145.888 455.655 145.688C455.852 145.491 456.032 145.17 456.195 144.727L456.445 144.045L453.217 135.273H454.672L457.081 142.227H457.172L459.581 135.273H461.036L457.331 145.273C457.164 145.723 456.958 146.097 456.712 146.392C456.465 146.691 456.179 146.913 455.854 147.057C455.532 147.201 455.168 147.273 454.763 147.273ZM468.646 139.023V140.273H463.828V139.023H468.646ZM464.146 135.273V144H462.805V135.273H464.146ZM469.669 135.273V144H468.328V135.273H469.669ZM472.118 144V135.273H473.459V139.068H474.345L477.482 135.273H479.209L475.686 139.477L479.254 144H477.527L474.663 140.318H473.459V144H472.118ZM480.212 136.523V135.273H487.303V136.523H484.439V144H483.098V136.523H480.212Z" fill="#0A2832"/>
<path d="M20.5795 246.21V245.273H27.125V246.21H24.3807V254H23.3239V246.21H20.5795ZM30.4148 254.136C29.7841 254.136 29.2401 253.997 28.7827 253.719C28.3281 253.438 27.9773 253.045 27.7301 252.543C27.4858 252.037 27.3636 251.449 27.3636 250.778C27.3636 250.108 27.4858 249.517 27.7301 249.006C27.9773 248.491 28.321 248.091 28.7614 247.804C29.2045 247.514 29.7216 247.369 30.3125 247.369C30.6534 247.369 30.9901 247.426 31.3224 247.54C31.6548 247.653 31.9574 247.838 32.2301 248.094C32.5028 248.347 32.7202 248.682 32.8821 249.099C33.044 249.517 33.125 250.031 33.125 250.642V251.068H28.0795V250.199H32.1023C32.1023 249.83 32.0284 249.5 31.8807 249.21C31.7358 248.92 31.5284 248.692 31.2585 248.524C30.9915 248.357 30.6761 248.273 30.3125 248.273C29.9119 248.273 29.5653 248.372 29.2727 248.571C28.983 248.767 28.7599 249.023 28.6037 249.338C28.4474 249.653 28.3693 249.991 28.3693 250.352V250.932C28.3693 251.426 28.4545 251.845 28.625 252.189C28.7983 252.53 29.0384 252.79 29.3452 252.969C29.652 253.145 30.0085 253.233 30.4148 253.233C30.679 253.233 30.9176 253.196 31.1307 253.122C31.3466 253.045 31.5327 252.932 31.6889 252.781C31.8452 252.628 31.9659 252.437 32.0511 252.21L33.0227 252.483C32.9205 252.812 32.7486 253.102 32.5071 253.352C32.2656 253.599 31.9673 253.793 31.6122 253.932C31.2571 254.068 30.858 254.136 30.4148 254.136ZM35.229 247.455L36.7972 250.131L38.3654 247.455H39.5245L37.4109 250.727L39.5245 254H38.3654L36.7972 251.46L35.229 254H34.07L36.1495 250.727L34.07 247.455H35.229ZM43.8061 247.455V248.307H40.4141V247.455H43.8061ZM41.4027 245.886H42.4084V252.125C42.4084 252.409 42.4496 252.622 42.532 252.764C42.6172 252.903 42.7251 252.997 42.8558 253.045C42.9893 253.091 43.13 253.114 43.2777 253.114C43.3885 253.114 43.4794 253.108 43.5504 253.097C43.6214 253.082 43.6783 253.071 43.7209 253.062L43.9254 253.966C43.8572 253.991 43.7621 254.017 43.6399 254.043C43.5178 254.071 43.3629 254.085 43.1754 254.085C42.8913 254.085 42.6129 254.024 42.3402 253.902C42.0703 253.78 41.8459 253.594 41.6669 253.344C41.4908 253.094 41.4027 252.778 41.4027 252.398V245.886ZM53.3303 248.92L52.4268 249.176C52.37 249.026 52.2862 248.879 52.1754 248.737C52.0675 248.592 51.9197 248.473 51.7322 248.379C51.5447 248.286 51.3047 248.239 51.0121 248.239C50.6115 248.239 50.2777 248.331 50.0107 248.516C49.7464 248.697 49.6143 248.929 49.6143 249.21C49.6143 249.46 49.7053 249.658 49.8871 249.803C50.0689 249.947 50.353 250.068 50.7393 250.165L51.7109 250.403C52.2962 250.545 52.7322 250.763 53.0192 251.055C53.3061 251.345 53.4496 251.719 53.4496 252.176C53.4496 252.551 53.3416 252.886 53.1257 253.182C52.9126 253.477 52.6143 253.71 52.2308 253.881C51.8473 254.051 51.4013 254.136 50.8928 254.136C50.2251 254.136 49.6726 253.991 49.2351 253.702C48.7976 253.412 48.5206 252.989 48.4041 252.432L49.3587 252.193C49.4496 252.545 49.6214 252.81 49.8743 252.986C50.13 253.162 50.4638 253.25 50.8757 253.25C51.3445 253.25 51.7166 253.151 51.9922 252.952C52.2706 252.75 52.4098 252.509 52.4098 252.227C52.4098 252 52.3303 251.81 52.1712 251.656C52.0121 251.5 51.7678 251.384 51.4382 251.307L50.3473 251.051C49.7479 250.909 49.3075 250.689 49.0263 250.391C48.7479 250.089 48.6087 249.713 48.6087 249.261C48.6087 248.892 48.7124 248.565 48.9197 248.281C49.13 247.997 49.4155 247.774 49.7763 247.612C50.1399 247.45 50.5518 247.369 51.0121 247.369C51.6598 247.369 52.1683 247.511 52.5376 247.795C52.9098 248.08 53.174 248.455 53.3303 248.92ZM54.9634 254V247.455H55.9691V254H54.9634ZM55.4748 246.364C55.2788 246.364 55.1097 246.297 54.9677 246.163C54.8285 246.03 54.7589 245.869 54.7589 245.682C54.7589 245.494 54.8285 245.334 54.9677 245.2C55.1097 245.067 55.2788 245 55.4748 245C55.6708 245 55.8384 245.067 55.9776 245.2C56.1197 245.334 56.1907 245.494 56.1907 245.682C56.1907 245.869 56.1197 246.03 55.9776 246.163C55.8384 246.297 55.6708 246.364 55.4748 246.364ZM57.6236 254V253.233L61.3395 248.46V248.392H57.7429V247.455H62.6349V248.256L59.0213 252.994V253.062H62.7543V254H57.6236ZM66.8601 254.136C66.2294 254.136 65.6854 253.997 65.228 253.719C64.7734 253.438 64.4226 253.045 64.1754 252.543C63.9311 252.037 63.8089 251.449 63.8089 250.778C63.8089 250.108 63.9311 249.517 64.1754 249.006C64.4226 248.491 64.7663 248.091 65.2067 247.804C65.6499 247.514 66.1669 247.369 66.7578 247.369C67.0987 247.369 67.4354 247.426 67.7678 247.54C68.1001 247.653 68.4027 247.838 68.6754 248.094C68.9482 248.347 69.1655 248.682 69.3274 249.099C69.4893 249.517 69.5703 250.031 69.5703 250.642V251.068H64.5249V250.199H68.5476C68.5476 249.83 68.4737 249.5 68.326 249.21C68.1811 248.92 67.9737 248.692 67.7038 248.524C67.4368 248.357 67.1214 248.273 66.7578 248.273C66.3572 248.273 66.0107 248.372 65.718 248.571C65.4283 248.767 65.2053 249.023 65.049 249.338C64.8928 249.653 64.8146 249.991 64.8146 250.352V250.932C64.8146 251.426 64.8999 251.845 65.0703 252.189C65.2436 252.53 65.4837 252.79 65.7905 252.969C66.0973 253.145 66.4538 253.233 66.8601 253.233C67.1243 253.233 67.3629 253.196 67.576 253.122C67.7919 253.045 67.978 252.932 68.1342 252.781C68.2905 252.628 68.4112 252.437 68.4964 252.21L69.468 252.483C69.3658 252.812 69.1939 253.102 68.9524 253.352C68.7109 253.599 68.4126 253.793 68.0575 253.932C67.7024 254.068 67.3033 254.136 66.8601 254.136ZM74.8842 248.835V247.915H80.1342V248.835H74.8842ZM74.8842 251.358V250.438H80.1342V251.358H74.8842ZM88.8114 245.273V254H87.7546V246.381H87.7035L85.5728 247.795V246.722L87.7546 245.273H88.8114ZM94.2191 254.119C93.8612 254.114 93.5032 254.045 93.1452 253.915C92.7873 253.784 92.4606 253.564 92.1651 253.254C91.8697 252.942 91.6325 252.52 91.4535 251.989C91.2745 251.455 91.185 250.784 91.185 249.977C91.185 249.205 91.2575 248.52 91.4023 247.923C91.5472 247.324 91.7575 246.82 92.033 246.411C92.3086 245.999 92.641 245.686 93.0302 245.473C93.4222 245.26 93.864 245.153 94.3555 245.153C94.8441 245.153 95.2788 245.251 95.6594 245.447C96.043 245.641 96.3555 245.911 96.5969 246.257C96.8384 246.604 96.9947 247.003 97.0657 247.455H96.0259C95.9293 247.062 95.7418 246.737 95.4634 246.479C95.185 246.22 94.8157 246.091 94.3555 246.091C93.6793 246.091 93.1467 246.385 92.7575 246.973C92.3711 247.561 92.1765 248.386 92.1737 249.449H92.2418C92.4009 249.207 92.5898 249.001 92.8086 248.831C93.0302 248.658 93.2745 248.524 93.5415 248.43C93.8086 248.337 94.0913 248.29 94.3896 248.29C94.8896 248.29 95.3469 248.415 95.7617 248.665C96.1765 248.912 96.5089 249.254 96.7589 249.692C97.0089 250.126 97.1339 250.625 97.1339 251.188C97.1339 251.727 97.0131 252.222 96.7717 252.67C96.5302 253.116 96.1907 253.472 95.7532 253.736C95.3185 253.997 94.8072 254.125 94.2191 254.119ZM94.2191 253.182C94.5771 253.182 94.8981 253.092 95.1822 252.913C95.4691 252.734 95.695 252.494 95.8597 252.193C96.0273 251.892 96.1112 251.557 96.1112 251.188C96.1112 250.827 96.0302 250.499 95.8683 250.203C95.7092 249.905 95.489 249.668 95.2077 249.491C94.9293 249.315 94.6112 249.227 94.2532 249.227C93.9833 249.227 93.7319 249.281 93.4989 249.389C93.266 249.494 93.0614 249.639 92.8853 249.824C92.712 250.009 92.5756 250.22 92.4762 250.459C92.3768 250.695 92.3271 250.943 92.3271 251.205C92.3271 251.551 92.408 251.875 92.57 252.176C92.7347 252.477 92.9592 252.72 93.2433 252.905C93.5302 253.089 93.8555 253.182 94.2191 253.182Z" fill="#738287"/>
<path d="M525.015 142V141.233L527.895 138.08C528.233 137.71 528.512 137.389 528.731 137.116C528.949 136.841 529.111 136.582 529.216 136.341C529.324 136.097 529.378 135.841 529.378 135.574C529.378 135.267 529.305 135.001 529.157 134.777C529.012 134.553 528.813 134.379 528.56 134.257C528.307 134.135 528.023 134.074 527.708 134.074C527.373 134.074 527.08 134.143 526.83 134.283C526.583 134.419 526.391 134.611 526.255 134.858C526.121 135.105 526.055 135.395 526.055 135.727H525.049C525.049 135.216 525.167 134.767 525.403 134.381C525.638 133.994 525.959 133.693 526.366 133.477C526.775 133.261 527.233 133.153 527.742 133.153C528.253 133.153 528.706 133.261 529.101 133.477C529.496 133.693 529.806 133.984 530.03 134.351C530.255 134.717 530.367 135.125 530.367 135.574C530.367 135.895 530.309 136.209 530.192 136.516C530.079 136.82 529.88 137.159 529.596 137.534C529.314 137.906 528.924 138.361 528.424 138.898L526.464 140.994V141.062H530.52V142H525.015ZM531.888 140.21V139.341L535.724 133.273H536.354V134.619H535.928L533.03 139.205V139.273H538.195V140.21H531.888ZM535.996 142V139.946V139.541V133.273H537.002V142H535.996Z" fill="#738287"/>
<path d="M511 126L511 150" stroke="#738287"/>
<line x1="516" y1="149.5" x2="497" y2="149.5" stroke="#738287"/>
<line x1="516" y1="126.5" x2="497" y2="126.5" stroke="#738287"/>
</svg>
