<svg width="1128" height="340" viewBox="0 0 1128 340" fill="none" xmlns="http://www.w3.org/2000/svg">
<rect width="1128" height="340" fill="white"/>
<path d="M0.511364 112.523V107.438H1.44886C1.77083 107.144 2.07386 106.73 2.35795 106.195C2.64678 105.655 2.89062 104.935 3.08949 104.036C3.29309 103.131 3.42803 101.983 3.49432 100.591L3.80682 94.4545H12.4432V107.438H14.1193V112.494H12.4432V109H2.1875V112.523H0.511364ZM3.55114 107.438H10.767V96.017H5.39773L5.17045 100.591C5.11364 101.652 5.0142 102.613 4.87216 103.474C4.73011 104.331 4.54782 105.091 4.32528 105.754C4.10275 106.412 3.8447 106.973 3.55114 107.438ZM20.9854 109.227C20.0006 109.227 19.1365 108.993 18.3931 108.524C17.6545 108.055 17.0768 107.4 16.6602 106.557C16.2482 105.714 16.0423 104.729 16.0423 103.602C16.0423 102.466 16.2482 101.474 16.6602 100.626C17.0768 99.7789 17.6545 99.1207 18.3931 98.652C19.1365 98.1832 20.0006 97.9489 20.9854 97.9489C21.9703 97.9489 22.832 98.1832 23.5707 98.652C24.314 99.1207 24.8917 99.7789 25.3036 100.626C25.7203 101.474 25.9286 102.466 25.9286 103.602C25.9286 104.729 25.7203 105.714 25.3036 106.557C24.8917 107.4 24.314 108.055 23.5707 108.524C22.832 108.993 21.9703 109.227 20.9854 109.227ZM20.9854 107.722C21.7335 107.722 22.3491 107.53 22.832 107.146C23.315 106.763 23.6725 106.259 23.9045 105.634C24.1365 105.009 24.2525 104.331 24.2525 103.602C24.2525 102.873 24.1365 102.194 23.9045 101.564C23.6725 100.934 23.315 100.425 22.832 100.037C22.3491 99.6487 21.7335 99.4545 20.9854 99.4545C20.2373 99.4545 19.6218 99.6487 19.1388 100.037C18.6559 100.425 18.2984 100.934 18.0664 101.564C17.8344 102.194 17.7184 102.873 17.7184 103.602C17.7184 104.331 17.8344 105.009 18.0664 105.634C18.2984 106.259 18.6559 106.763 19.1388 107.146C19.6218 107.53 20.2373 107.722 20.9854 107.722ZM28.4872 109V98.0909H37.0668V109H35.3906V99.6534H30.1634V109H28.4872ZM44.5597 109.227C43.5748 109.227 42.7107 108.993 41.9673 108.524C41.2287 108.055 40.651 107.4 40.2344 106.557C39.8224 105.714 39.6165 104.729 39.6165 103.602C39.6165 102.466 39.8224 101.474 40.2344 100.626C40.651 99.7789 41.2287 99.1207 41.9673 98.652C42.7107 98.1832 43.5748 97.9489 44.5597 97.9489C45.5445 97.9489 46.4063 98.1832 47.1449 98.652C47.8883 99.1207 48.4659 99.7789 48.8778 100.626C49.2945 101.474 49.5028 102.466 49.5028 103.602C49.5028 104.729 49.2945 105.714 48.8778 106.557C48.4659 107.4 47.8883 108.055 47.1449 108.524C46.4063 108.993 45.5445 109.227 44.5597 109.227ZM44.5597 107.722C45.3078 107.722 45.9233 107.53 46.4062 107.146C46.8892 106.763 47.2467 106.259 47.4787 105.634C47.7107 105.009 47.8267 104.331 47.8267 103.602C47.8267 102.873 47.7107 102.194 47.4787 101.564C47.2467 100.934 46.8892 100.425 46.4062 100.037C45.9233 99.6487 45.3078 99.4545 44.5597 99.4545C43.8116 99.4545 43.196 99.6487 42.7131 100.037C42.2301 100.425 41.8726 100.934 41.6406 101.564C41.4086 102.194 41.2926 102.873 41.2926 103.602C41.2926 104.331 41.4086 105.009 41.6406 105.634C41.8726 106.259 42.2301 106.763 42.7131 107.146C43.196 107.53 43.8116 107.722 44.5597 107.722ZM51.0955 109V107.438H51.4933C51.82 107.438 52.0922 107.374 52.31 107.246C52.5278 107.113 52.703 106.884 52.8356 106.557C52.9729 106.225 53.0771 105.766 53.1481 105.179C53.2238 104.587 53.2783 103.834 53.3114 102.92L53.5103 98.0909H60.783V109H59.1069V99.6534H55.1012L54.9308 103.545C54.8929 104.44 54.8124 105.229 54.6893 105.911C54.5709 106.588 54.3886 107.156 54.1424 107.615C53.9009 108.074 53.579 108.42 53.1765 108.652C52.774 108.884 52.2698 109 51.6637 109H51.0955ZM71.1594 102.778V104.341H65.1367V102.778H71.1594ZM65.5344 98.0909V109H63.8583V98.0909H65.5344ZM72.4379 98.0909V109H70.7617V98.0909H72.4379ZM77.1751 106.528L82.4308 98.0909H84.3626V109H82.6864V100.562L77.4592 109H75.4989V98.0909H77.1751V106.528ZM85.9482 99.6534V98.0909H94.8118V99.6534H91.2322V109H89.5561V99.6534H85.9482ZM101.264 109.227C100.213 109.227 99.3063 108.995 98.544 108.531C97.7865 108.062 97.2017 107.409 96.7898 106.571C96.3826 105.728 96.179 104.748 96.179 103.631C96.179 102.513 96.3826 101.528 96.7898 100.676C97.2017 99.8191 97.7746 99.1515 98.5085 98.6733C99.2472 98.1903 100.109 97.9489 101.094 97.9489C101.662 97.9489 102.223 98.0436 102.777 98.233C103.331 98.4223 103.835 98.7301 104.29 99.1562C104.744 99.5777 105.107 100.136 105.376 100.832C105.646 101.528 105.781 102.385 105.781 103.403V104.114H97.3722V102.665H104.077C104.077 102.049 103.954 101.5 103.707 101.017C103.466 100.534 103.12 100.153 102.67 99.8736C102.225 99.5942 101.7 99.4545 101.094 99.4545C100.426 99.4545 99.8485 99.6203 99.3608 99.9517C98.8778 100.278 98.5062 100.705 98.2457 101.23C97.9853 101.756 97.8551 102.319 97.8551 102.92V103.886C97.8551 104.71 97.9972 105.409 98.2812 105.982C98.5701 106.55 98.9702 106.983 99.4815 107.281C99.9929 107.575 100.587 107.722 101.264 107.722C101.705 107.722 102.102 107.66 102.457 107.537C102.817 107.409 103.127 107.22 103.388 106.969C103.648 106.713 103.849 106.396 103.991 106.017L105.611 106.472C105.44 107.021 105.154 107.504 104.751 107.92C104.349 108.332 103.852 108.654 103.26 108.886C102.668 109.114 102.003 109.227 101.264 109.227ZM107.365 109V107.438H107.763C108.089 107.438 108.362 107.374 108.58 107.246C108.797 107.113 108.973 106.884 109.105 106.557C109.242 106.225 109.347 105.766 109.418 105.179C109.493 104.587 109.548 103.834 109.581 102.92L109.78 98.0909H117.053V109H115.376V99.6534H111.371L111.2 103.545C111.162 104.44 111.082 105.229 110.959 105.911C110.84 106.588 110.658 107.156 110.412 107.615C110.17 108.074 109.848 108.42 109.446 108.652C109.044 108.884 108.539 109 107.933 109H107.365ZM121.577 102.04H124.702C125.98 102.04 126.958 102.364 127.635 103.013C128.312 103.661 128.651 104.483 128.651 105.477C128.651 106.131 128.499 106.725 128.196 107.26C127.893 107.79 127.448 108.214 126.861 108.531C126.274 108.844 125.554 109 124.702 109H120.128V98.0909H121.804V107.438H124.702C125.365 107.438 125.909 107.262 126.335 106.912C126.761 106.562 126.974 106.112 126.974 105.562C126.974 104.985 126.761 104.514 126.335 104.149C125.909 103.785 125.365 103.602 124.702 103.602H121.577V102.04ZM138.503 102.778V104.341H132.48V102.778H138.503ZM132.878 98.0909V109H131.202V98.0909H132.878ZM139.782 98.0909V109H138.105V98.0909H139.782ZM147.275 109.227C146.29 109.227 145.426 108.993 144.682 108.524C143.944 108.055 143.366 107.4 142.949 106.557C142.537 105.714 142.331 104.729 142.331 103.602C142.331 102.466 142.537 101.474 142.949 100.626C143.366 99.7789 143.944 99.1207 144.682 98.652C145.426 98.1832 146.29 97.9489 147.275 97.9489C148.259 97.9489 149.121 98.1832 149.86 98.652C150.603 99.1207 151.181 99.7789 151.593 100.626C152.009 101.474 152.218 102.466 152.218 103.602C152.218 104.729 152.009 105.714 151.593 106.557C151.181 107.4 150.603 108.055 149.86 108.524C149.121 108.993 148.259 109.227 147.275 109.227ZM147.275 107.722C148.023 107.722 148.638 107.53 149.121 107.146C149.604 106.763 149.962 106.259 150.194 105.634C150.426 105.009 150.542 104.331 150.542 103.602C150.542 102.873 150.426 102.194 150.194 101.564C149.962 100.934 149.604 100.425 149.121 100.037C148.638 99.6487 148.023 99.4545 147.275 99.4545C146.526 99.4545 145.911 99.6487 145.428 100.037C144.945 100.425 144.587 100.934 144.355 101.564C144.123 102.194 144.007 102.873 144.007 103.602C144.007 104.331 144.123 105.009 144.355 105.634C144.587 106.259 144.945 106.763 145.428 107.146C145.911 107.53 146.526 107.722 147.275 107.722ZM159.35 109.227C158.299 109.227 157.392 108.995 156.63 108.531C155.872 108.062 155.288 107.409 154.876 106.571C154.469 105.728 154.265 104.748 154.265 103.631C154.265 102.513 154.469 101.528 154.876 100.676C155.288 99.8191 155.861 99.1515 156.594 98.6733C157.333 98.1903 158.195 97.9489 159.18 97.9489C159.748 97.9489 160.309 98.0436 160.863 98.233C161.417 98.4223 161.921 98.7301 162.376 99.1562C162.83 99.5777 163.192 100.136 163.462 100.832C163.732 101.528 163.867 102.385 163.867 103.403V104.114H155.458V102.665H162.163C162.163 102.049 162.04 101.5 161.793 101.017C161.552 100.534 161.206 100.153 160.756 99.8736C160.311 99.5942 159.786 99.4545 159.18 99.4545C158.512 99.4545 157.934 99.6203 157.447 99.9517C156.964 100.278 156.592 100.705 156.332 101.23C156.071 101.756 155.941 102.319 155.941 102.92V103.886C155.941 104.71 156.083 105.409 156.367 105.982C156.656 106.55 157.056 106.983 157.567 107.281C158.079 107.575 158.673 107.722 159.35 107.722C159.79 107.722 160.188 107.66 160.543 107.537C160.903 107.409 161.213 107.22 161.474 106.969C161.734 106.713 161.935 106.396 162.077 106.017L163.697 106.472C163.526 107.021 163.24 107.504 162.837 107.92C162.435 108.332 161.938 108.654 161.346 108.886C160.754 109.114 160.089 109.227 159.35 109.227ZM7.5 134.727L11.3068 126.091H12.8977L8.18182 137H6.81818L2.1875 126.091H3.75L7.5 134.727ZM3.21023 126.091V137H1.53409V126.091H3.21023ZM11.7898 137V126.091H13.4659V137H11.7898ZM21.108 137.227C20.0568 137.227 19.1501 136.995 18.3878 136.531C17.6302 136.062 17.0455 135.409 16.6335 134.571C16.2263 133.728 16.0227 132.748 16.0227 131.631C16.0227 130.513 16.2263 129.528 16.6335 128.676C17.0455 127.819 17.6184 127.152 18.3523 126.673C19.0909 126.19 19.9527 125.949 20.9375 125.949C21.5057 125.949 22.0668 126.044 22.6207 126.233C23.1747 126.422 23.679 126.73 24.1335 127.156C24.5881 127.578 24.9503 128.136 25.2202 128.832C25.4901 129.528 25.625 130.385 25.625 131.403V132.114H17.2159V130.665H23.9205C23.9205 130.049 23.7973 129.5 23.5511 129.017C23.3097 128.534 22.964 128.153 22.5142 127.874C22.0691 127.594 21.5436 127.455 20.9375 127.455C20.2699 127.455 19.6922 127.62 19.2045 127.952C18.7216 128.278 18.3499 128.705 18.0895 129.23C17.8291 129.756 17.6989 130.319 17.6989 130.92V131.886C17.6989 132.71 17.8409 133.409 18.125 133.982C18.4138 134.55 18.8139 134.983 19.3253 135.281C19.8366 135.575 20.4309 135.722 21.108 135.722C21.5483 135.722 21.946 135.66 22.3011 135.537C22.661 135.409 22.9711 135.22 23.2315 134.969C23.492 134.713 23.6932 134.396 23.8352 134.017L25.4545 134.472C25.2841 135.021 24.9976 135.504 24.5952 135.92C24.1927 136.332 23.6955 136.654 23.1037 136.886C22.5118 137.114 21.8466 137.227 21.108 137.227ZM35.4759 130.778V132.341H29.4531V130.778H35.4759ZM29.8509 126.091V137H28.1747V126.091H29.8509ZM36.7543 126.091V137H35.0781V126.091H36.7543ZM45.0426 130.864V132.426H39.2756V130.864H45.0426ZM40.696 126.091V137H39.0199V126.091H40.696ZM48.3949 137.227C47.41 137.227 46.5459 136.993 45.8026 136.524C45.0639 136.055 44.4863 135.4 44.0696 134.557C43.6577 133.714 43.4517 132.729 43.4517 131.602C43.4517 130.466 43.6577 129.474 44.0696 128.626C44.4863 127.779 45.0639 127.121 45.8026 126.652C46.5459 126.183 47.41 125.949 48.3949 125.949C49.3797 125.949 50.2415 126.183 50.9801 126.652C51.7235 127.121 52.3011 127.779 52.7131 128.626C53.1297 129.474 53.3381 130.466 53.3381 131.602C53.3381 132.729 53.1297 133.714 52.7131 134.557C52.3011 135.4 51.7235 136.055 50.9801 136.524C50.2415 136.993 49.3797 137.227 48.3949 137.227ZM48.3949 135.722C49.143 135.722 49.7585 135.53 50.2415 135.146C50.7244 134.763 51.0819 134.259 51.3139 133.634C51.5459 133.009 51.6619 132.331 51.6619 131.602C51.6619 130.873 51.5459 130.194 51.3139 129.564C51.0819 128.934 50.7244 128.425 50.2415 128.037C49.7585 127.649 49.143 127.455 48.3949 127.455C47.6468 127.455 47.0313 127.649 46.5483 128.037C46.0653 128.425 45.7079 128.934 45.4759 129.564C45.2438 130.194 45.1278 130.873 45.1278 131.602C45.1278 132.331 45.2438 133.009 45.4759 133.634C45.7079 134.259 46.0653 134.763 46.5483 135.146C47.0313 135.53 47.6468 135.722 48.3949 135.722Z" fill="#0A2832"/>
<path d="M12.642 186.455V201H10.8807V188.017H3.55114V201H1.78977V186.455H12.642ZM17.0472 205.091C16.7631 205.091 16.5098 205.067 16.2873 205.02C16.0647 204.977 15.9109 204.935 15.8256 204.892L16.2518 203.415C16.659 203.519 17.0188 203.557 17.3313 203.528C17.6438 203.5 17.9208 203.36 18.1623 203.109C18.4085 202.863 18.6334 202.463 18.837 201.909L19.1495 201.057L15.1154 190.091H16.9336L19.945 198.784H20.0586L23.07 190.091H24.8881L20.2575 202.591C20.0491 203.154 19.7911 203.621 19.4833 203.99C19.1755 204.364 18.8181 204.641 18.4109 204.821C18.0084 205.001 17.5539 205.091 17.0472 205.091ZM34.4016 194.778V196.341H28.3789V194.778H34.4016ZM28.7766 190.091V201H27.1005V190.091H28.7766ZM35.68 190.091V201H34.0039V190.091H35.68ZM38.7411 201V190.091H40.4173V194.835H41.5252L45.4457 190.091H47.6048L43.2013 195.347L47.6616 201H45.5025L41.9229 196.398H40.4173V201H38.7411ZM48.8583 191.653V190.091H57.7219V191.653H54.1424V201H52.4663V191.653H48.8583Z" fill="#0A2832"/>
<path d="M0.965909 280.017V278.455H11.875V280.017H7.30114V293H5.53977V280.017H0.965909ZM17.358 293.227C16.3068 293.227 15.4001 292.995 14.6378 292.531C13.8802 292.062 13.2955 291.409 12.8835 290.571C12.4763 289.728 12.2727 288.748 12.2727 287.631C12.2727 286.513 12.4763 285.528 12.8835 284.676C13.2955 283.819 13.8684 283.152 14.6023 282.673C15.3409 282.19 16.2027 281.949 17.1875 281.949C17.7557 281.949 18.3168 282.044 18.8707 282.233C19.4247 282.422 19.929 282.73 20.3835 283.156C20.8381 283.578 21.2003 284.136 21.4702 284.832C21.7401 285.528 21.875 286.385 21.875 287.403V288.114H13.4659V286.665H20.1705C20.1705 286.049 20.0473 285.5 19.8011 285.017C19.5597 284.534 19.214 284.153 18.7642 283.874C18.3191 283.594 17.7936 283.455 17.1875 283.455C16.5199 283.455 15.9422 283.62 15.4545 283.952C14.9716 284.278 14.5999 284.705 14.3395 285.23C14.0791 285.756 13.9489 286.319 13.9489 286.92V287.886C13.9489 288.71 14.0909 289.409 14.375 289.982C14.6638 290.55 15.0639 290.983 15.5753 291.281C16.0866 291.575 16.6809 291.722 17.358 291.722C17.7983 291.722 18.196 291.66 18.5511 291.537C18.911 291.409 19.2211 291.22 19.4815 290.969C19.742 290.713 19.9432 290.396 20.0852 290.017L21.7045 290.472C21.5341 291.021 21.2476 291.504 20.8452 291.92C20.4427 292.332 19.9455 292.654 19.3537 292.886C18.7618 293.114 18.0966 293.227 17.358 293.227ZM24.4247 293V282.091H26.1009V286.835H27.2088L31.1293 282.091H33.2884L28.8849 287.347L33.3452 293H31.1861L27.6065 288.398H26.1009V293H24.4247ZM36.2464 297.091C35.9624 297.091 35.709 297.067 35.4865 297.02C35.264 296.977 35.1101 296.935 35.0249 296.892L35.451 295.415C35.8582 295.519 36.218 295.557 36.5305 295.528C36.843 295.5 37.12 295.36 37.3615 295.109C37.6077 294.863 37.8326 294.463 38.0362 293.909L38.3487 293.057L34.3146 282.091H36.1328L39.1442 290.784H39.2578L42.2692 282.091H44.0874L39.4567 294.591C39.2483 295.154 38.9903 295.621 38.6825 295.99C38.3748 296.364 38.0173 296.641 37.6101 296.821C37.2076 297.001 36.7531 297.091 36.2464 297.091ZM61.1861 291.438L60.9872 296.125H59.2543V293H57.8338V291.438H61.1861ZM46.2997 282.091H47.9759V291.438H52.0952V282.091H53.7713V291.438H57.8906V282.091H59.5668V293H46.2997V282.091ZM65.3001 290.528L70.5558 282.091H72.4876V293H70.8114V284.562L65.5842 293H63.6239V282.091H65.3001V290.528ZM77.2337 290.528L82.4893 282.091H84.4212V293H82.745V284.562L77.5178 293H75.5575V282.091H77.2337V290.528ZM81.3814 278.455H82.9439C82.9439 279.222 82.6787 279.849 82.1484 280.337C81.6181 280.824 80.8984 281.068 79.9893 281.068C79.0945 281.068 78.3819 280.824 77.8516 280.337C77.326 279.849 77.0632 279.222 77.0632 278.455H78.6257C78.6257 278.824 78.7275 279.148 78.9311 279.428C79.1394 279.707 79.4922 279.847 79.9893 279.847C80.4865 279.847 80.8416 279.707 81.0547 279.428C81.2725 279.148 81.3814 278.824 81.3814 278.455ZM93.1161 293V282.091H101.696V293H100.02V283.653H94.7923V293H93.1161ZM105.446 297.091C105.162 297.091 104.908 297.067 104.686 297.02C104.463 296.977 104.309 296.935 104.224 296.892L104.65 295.415C105.057 295.519 105.417 295.557 105.73 295.528C106.042 295.5 106.319 295.36 106.561 295.109C106.807 294.863 107.032 294.463 107.235 293.909L107.548 293.057L103.514 282.091H105.332L108.343 290.784H108.457L111.468 282.091H113.287L108.656 294.591C108.448 295.154 108.19 295.621 107.882 295.99C107.574 296.364 107.217 296.641 106.809 296.821C106.407 297.001 105.952 297.091 105.446 297.091ZM122.8 286.778V288.341H116.777V286.778H122.8ZM117.175 282.091V293H115.499V282.091H117.175ZM124.078 282.091V293H122.402V282.091H124.078ZM127.14 293V282.091H128.816V286.835H129.924L133.844 282.091H136.003L131.6 287.347L136.06 293H133.901L130.321 288.398H128.816V293H127.14ZM137.257 283.653V282.091H146.12V283.653H142.541V293H140.865V283.653H137.257Z" fill="#0A2832"/>
<path d="M195 340L195 88" stroke="#738287" stroke-width="1.5"/>
<path d="M225.25 33H220.761V18.4545H225.449C226.86 18.4545 228.067 18.7457 229.071 19.3281C230.075 19.9058 230.844 20.7367 231.379 21.821C231.914 22.9006 232.182 24.1932 232.182 25.6989C232.182 27.214 231.912 28.5185 231.372 29.6122C230.832 30.7012 230.046 31.5393 229.014 32.1264C227.982 32.7088 226.727 33 225.25 33ZM222.523 31.4375H225.136C226.339 31.4375 227.336 31.2055 228.126 30.7415C228.917 30.2775 229.507 29.617 229.895 28.7599C230.283 27.9029 230.477 26.8826 230.477 25.6989C230.477 24.5246 230.286 23.5137 229.902 22.6662C229.518 21.8139 228.946 21.1605 228.183 20.706C227.421 20.2467 226.472 20.017 225.335 20.017H222.523V31.4375ZM239.483 33.2273C238.432 33.2273 237.525 32.9953 236.763 32.5312C236.005 32.0625 235.42 31.4091 235.009 30.571C234.601 29.7282 234.398 28.7481 234.398 27.6307C234.398 26.5133 234.601 25.5284 235.009 24.6761C235.42 23.8191 235.993 23.1515 236.727 22.6733C237.466 22.1903 238.328 21.9489 239.312 21.9489C239.881 21.9489 240.442 22.0436 240.996 22.233C241.55 22.4223 242.054 22.7301 242.509 23.1562C242.963 23.5777 243.325 24.1364 243.595 24.8324C243.865 25.5284 244 26.3854 244 27.4034V28.1136H235.591V26.6648H242.295C242.295 26.0492 242.172 25.5 241.926 25.017C241.685 24.5341 241.339 24.1529 240.889 23.8736C240.444 23.5942 239.919 23.4545 239.312 23.4545C238.645 23.4545 238.067 23.6203 237.58 23.9517C237.097 24.2784 236.725 24.7045 236.464 25.2301C236.204 25.7557 236.074 26.3191 236.074 26.9205V27.8864C236.074 28.7102 236.216 29.4086 236.5 29.9815C236.789 30.5497 237.189 30.983 237.7 31.2812C238.212 31.5748 238.806 31.7216 239.483 31.7216C239.923 31.7216 240.321 31.66 240.676 31.5369C241.036 31.4091 241.346 31.2197 241.607 30.9688C241.867 30.7131 242.068 30.3958 242.21 30.017L243.83 30.4716C243.659 31.0208 243.373 31.5038 242.97 31.9205C242.568 32.3324 242.071 32.6544 241.479 32.8864C240.887 33.1136 240.222 33.2273 239.483 33.2273ZM251.408 22.0909V23.5114H245.527V22.0909H251.408ZM247.288 33V20.5852C247.288 19.9602 247.435 19.4394 247.729 19.0227C248.022 18.6061 248.403 18.2936 248.872 18.0852C249.341 17.8769 249.836 17.7727 250.357 17.7727C250.768 17.7727 251.105 17.8059 251.365 17.8722C251.625 17.9384 251.82 18 251.947 18.0568L251.464 19.5057C251.379 19.4773 251.261 19.4418 251.109 19.3991C250.963 19.3565 250.768 19.3352 250.527 19.3352C249.973 19.3352 249.573 19.4749 249.327 19.7543C249.085 20.0336 248.964 20.4432 248.964 20.983V33H247.288ZM256.654 33.2557C255.963 33.2557 255.336 33.1255 254.772 32.8651C254.209 32.5999 253.761 32.2188 253.43 31.7216C253.099 31.2197 252.933 30.6136 252.933 29.9034C252.933 29.2784 253.056 28.7718 253.302 28.3835C253.548 27.9905 253.877 27.6828 254.289 27.4602C254.701 27.2377 255.156 27.072 255.653 26.9631C256.155 26.8494 256.659 26.7595 257.166 26.6932C257.829 26.608 258.366 26.544 258.778 26.5014C259.195 26.4541 259.498 26.3759 259.687 26.267C259.881 26.1581 259.978 25.9687 259.978 25.6989V25.642C259.978 24.9413 259.787 24.3968 259.403 24.0085C259.024 23.6203 258.449 23.4261 257.677 23.4261C256.877 23.4261 256.25 23.6013 255.795 23.9517C255.341 24.3021 255.021 24.6761 254.836 25.0739L253.245 24.5057C253.529 23.8428 253.908 23.3267 254.382 22.9574C254.86 22.5833 255.381 22.3229 255.944 22.1761C256.512 22.0246 257.071 21.9489 257.62 21.9489C257.971 21.9489 258.373 21.9915 258.828 22.0767C259.287 22.1572 259.73 22.3253 260.156 22.581C260.587 22.8366 260.944 23.2225 261.228 23.7386C261.512 24.2547 261.654 24.946 261.654 25.8125V33H259.978V31.5227H259.893C259.779 31.7595 259.59 32.0128 259.325 32.2827C259.06 32.5526 258.707 32.7822 258.267 32.9716C257.826 33.161 257.289 33.2557 256.654 33.2557ZM256.91 31.75C257.573 31.75 258.132 31.6198 258.586 31.3594C259.046 31.099 259.391 30.7628 259.623 30.3509C259.86 29.9389 259.978 29.5057 259.978 29.0511V27.517C259.907 27.6023 259.751 27.6804 259.51 27.7514C259.273 27.8177 258.998 27.8769 258.686 27.929C258.378 27.9763 258.077 28.0189 257.784 28.0568C257.495 28.09 257.261 28.1184 257.081 28.142C256.645 28.1989 256.238 28.2912 255.859 28.419C255.485 28.5421 255.182 28.7292 254.95 28.9801C254.723 29.2263 254.609 29.5625 254.609 29.9886C254.609 30.571 254.824 31.0114 255.255 31.3097C255.691 31.6032 256.243 31.75 256.91 31.75ZM271.589 28.5398V22.0909H273.265V33H271.589V31.1534H271.475C271.219 31.7074 270.822 32.1785 270.282 32.5668C269.742 32.9503 269.06 33.142 268.237 33.142C267.555 33.142 266.949 32.9929 266.418 32.6946C265.888 32.3916 265.471 31.937 265.168 31.331C264.865 30.7202 264.714 29.9508 264.714 29.0227V22.0909H266.39V28.9091C266.39 29.7045 266.612 30.339 267.058 30.8125C267.507 31.286 268.08 31.5227 268.776 31.5227C269.193 31.5227 269.617 31.4162 270.048 31.2031C270.483 30.9901 270.848 30.6634 271.141 30.223C271.44 29.7827 271.589 29.2216 271.589 28.5398ZM278.011 18.4545V33H276.335V18.4545H278.011ZM285.825 22.0909V23.5114H280.172V22.0909H285.825ZM281.82 19.4773H283.496V29.875C283.496 30.3485 283.564 30.7036 283.702 30.9403C283.844 31.1723 284.024 31.3286 284.241 31.4091C284.464 31.4848 284.698 31.5227 284.945 31.5227C285.129 31.5227 285.281 31.5133 285.399 31.4943C285.518 31.4706 285.612 31.4517 285.683 31.4375L286.024 32.9432C285.911 32.9858 285.752 33.0284 285.548 33.071C285.345 33.1184 285.087 33.142 284.774 33.142C284.301 33.142 283.837 33.0402 283.382 32.8366C282.932 32.633 282.558 32.3229 282.26 31.9062C281.966 31.4896 281.82 30.964 281.82 30.3295V19.4773Z" fill="#0A2832"/>
<path d="M409.761 33V18.4545H411.523V24.9318H419.278V18.4545H421.04V33H419.278V26.4943H411.523V33H409.761ZM428.771 33.2273C427.786 33.2273 426.922 32.9929 426.178 32.5241C425.44 32.0554 424.862 31.3996 424.445 30.5568C424.033 29.714 423.827 28.7292 423.827 27.6023C423.827 26.4659 424.033 25.474 424.445 24.6264C424.862 23.7789 425.44 23.1207 426.178 22.652C426.922 22.1832 427.786 21.9489 428.771 21.9489C429.755 21.9489 430.617 22.1832 431.356 22.652C432.099 23.1207 432.677 23.7789 433.089 24.6264C433.505 25.474 433.714 26.4659 433.714 27.6023C433.714 28.7292 433.505 29.714 433.089 30.5568C432.677 31.3996 432.099 32.0554 431.356 32.5241C430.617 32.9929 429.755 33.2273 428.771 33.2273ZM428.771 31.7216C429.519 31.7216 430.134 31.5298 430.617 31.1463C431.1 30.7628 431.458 30.2585 431.69 29.6335C431.922 29.0085 432.038 28.3314 432.038 27.6023C432.038 26.8731 431.922 26.1937 431.69 25.5639C431.458 24.9342 431.1 24.4252 430.617 24.0369C430.134 23.6487 429.519 23.4545 428.771 23.4545C428.022 23.4545 427.407 23.6487 426.924 24.0369C426.441 24.4252 426.084 24.9342 425.852 25.5639C425.62 26.1937 425.504 26.8731 425.504 27.6023C425.504 28.3314 425.62 29.0085 425.852 29.6335C426.084 30.2585 426.441 30.7628 426.924 31.1463C427.407 31.5298 428.022 31.7216 428.771 31.7216ZM444.802 22.0909L440.768 33H439.064L435.029 22.0909H436.848L439.859 30.7841H439.973L442.984 22.0909H444.802ZM451.198 33.2273C450.147 33.2273 449.24 32.9953 448.478 32.5312C447.72 32.0625 447.135 31.4091 446.723 30.571C446.316 29.7282 446.113 28.7481 446.113 27.6307C446.113 26.5133 446.316 25.5284 446.723 24.6761C447.135 23.8191 447.708 23.1515 448.442 22.6733C449.181 22.1903 450.042 21.9489 451.027 21.9489C451.596 21.9489 452.157 22.0436 452.711 22.233C453.265 22.4223 453.769 22.7301 454.223 23.1562C454.678 23.5777 455.04 24.1364 455.31 24.8324C455.58 25.5284 455.715 26.3854 455.715 27.4034V28.1136H447.306V26.6648H454.01C454.01 26.0492 453.887 25.5 453.641 25.017C453.4 24.5341 453.054 24.1529 452.604 23.8736C452.159 23.5942 451.633 23.4545 451.027 23.4545C450.36 23.4545 449.782 23.6203 449.294 23.9517C448.811 24.2784 448.44 24.7045 448.179 25.2301C447.919 25.7557 447.789 26.3191 447.789 26.9205V27.8864C447.789 28.7102 447.931 29.4086 448.215 29.9815C448.504 30.5497 448.904 30.983 449.415 31.2812C449.926 31.5748 450.521 31.7216 451.198 31.7216C451.638 31.7216 452.036 31.66 452.391 31.5369C452.751 31.4091 453.061 31.2197 453.321 30.9688C453.582 30.7131 453.783 30.3958 453.925 30.017L455.544 30.4716C455.374 31.0208 455.087 31.5038 454.685 31.9205C454.283 32.3324 453.785 32.6544 453.194 32.8864C452.602 33.1136 451.936 33.2273 451.198 33.2273ZM458.265 33V22.0909H459.884V23.7386H459.998C460.196 23.1989 460.556 22.7609 461.077 22.4247C461.598 22.0885 462.185 21.9205 462.838 21.9205C462.962 21.9205 463.115 21.9228 463.3 21.9276C463.485 21.9323 463.624 21.9394 463.719 21.9489V23.6534C463.662 23.6392 463.532 23.6179 463.328 23.5895C463.13 23.5563 462.919 23.5398 462.696 23.5398C462.166 23.5398 461.693 23.651 461.276 23.8736C460.864 24.0914 460.537 24.3944 460.296 24.7827C460.059 25.1662 459.941 25.6042 459.941 26.0966V33H458.265Z" fill="#0A2832"/>
<path d="M598.761 33V18.4545H603.676C604.817 18.4545 605.75 18.6605 606.474 19.0724C607.204 19.4796 607.743 20.0312 608.094 20.7273C608.444 21.4233 608.619 22.1998 608.619 23.0568C608.619 23.9138 608.444 24.6927 608.094 25.3935C607.748 26.0942 607.213 26.6529 606.489 27.0696C605.764 27.4815 604.836 27.6875 603.705 27.6875H600.182V26.125H603.648C604.429 26.125 605.056 25.9901 605.53 25.7202C606.003 25.4503 606.347 25.0857 606.56 24.6264C606.777 24.1624 606.886 23.6392 606.886 23.0568C606.886 22.4744 606.777 21.9536 606.56 21.4943C606.347 21.035 606.001 20.6752 605.523 20.4148C605.045 20.1496 604.41 20.017 603.619 20.017H600.523V33H598.761ZM611.229 33V22.0909H612.849V23.7386H612.962C613.161 23.1989 613.521 22.7609 614.042 22.4247C614.563 22.0885 615.15 21.9205 615.803 21.9205C615.926 21.9205 616.08 21.9228 616.265 21.9276C616.45 21.9323 616.589 21.9394 616.684 21.9489V23.6534C616.627 23.6392 616.497 23.6179 616.293 23.5895C616.094 23.5563 615.884 23.5398 615.661 23.5398C615.131 23.5398 614.657 23.651 614.241 23.8736C613.829 24.0914 613.502 24.3944 613.261 24.7827C613.024 25.1662 612.906 25.6042 612.906 26.0966V33H611.229ZM622.913 33.2273C621.862 33.2273 620.955 32.9953 620.192 32.5312C619.435 32.0625 618.85 31.4091 618.438 30.571C618.031 29.7282 617.827 28.7481 617.827 27.6307C617.827 26.5133 618.031 25.5284 618.438 24.6761C618.85 23.8191 619.423 23.1515 620.157 22.6733C620.896 22.1903 621.757 21.9489 622.742 21.9489C623.31 21.9489 623.871 22.0436 624.425 22.233C624.979 22.4223 625.484 22.7301 625.938 23.1562C626.393 23.5777 626.755 24.1364 627.025 24.8324C627.295 25.5284 627.43 26.3854 627.43 27.4034V28.1136H619.021V26.6648H625.725C625.725 26.0492 625.602 25.5 625.356 25.017C625.114 24.5341 624.769 24.1529 624.319 23.8736C623.874 23.5942 623.348 23.4545 622.742 23.4545C622.075 23.4545 621.497 23.6203 621.009 23.9517C620.526 24.2784 620.155 24.7045 619.894 25.2301C619.634 25.7557 619.504 26.3191 619.504 26.9205V27.8864C619.504 28.7102 619.646 29.4086 619.93 29.9815C620.219 30.5497 620.619 30.983 621.13 31.2812C621.641 31.5748 622.236 31.7216 622.913 31.7216C623.353 31.7216 623.751 31.66 624.106 31.5369C624.466 31.4091 624.776 31.2197 625.036 30.9688C625.297 30.7131 625.498 30.3958 625.64 30.017L627.259 30.4716C627.089 31.0208 626.802 31.5038 626.4 31.9205C625.997 32.3324 625.5 32.6544 624.908 32.8864C624.317 33.1136 623.651 33.2273 622.913 33.2273ZM637.707 24.5341L636.201 24.9602C636.106 24.7093 635.967 24.4654 635.782 24.2287C635.602 23.9872 635.356 23.7884 635.043 23.6321C634.731 23.4759 634.331 23.3977 633.843 23.3977C633.175 23.3977 632.619 23.5516 632.174 23.8594C631.734 24.1624 631.513 24.5483 631.513 25.017C631.513 25.4337 631.665 25.7628 631.968 26.0043C632.271 26.2457 632.745 26.447 633.388 26.608L635.008 27.0057C635.983 27.2424 636.71 27.6046 637.188 28.0923C637.666 28.5753 637.906 29.1979 637.906 29.9602C637.906 30.5852 637.726 31.1439 637.366 31.6364C637.011 32.1288 636.513 32.517 635.874 32.8011C635.235 33.0852 634.492 33.2273 633.644 33.2273C632.531 33.2273 631.611 32.9858 630.881 32.5028C630.152 32.0199 629.691 31.3144 629.496 30.3864L631.087 29.9886C631.239 30.5758 631.525 31.0161 631.947 31.3097C632.373 31.6032 632.929 31.75 633.616 31.75C634.397 31.75 635.017 31.5843 635.477 31.2528C635.941 30.9167 636.173 30.5142 636.173 30.0455C636.173 29.6667 636.04 29.3494 635.775 29.0938C635.51 28.8333 635.103 28.6392 634.553 28.5114L632.735 28.0852C631.736 27.8485 631.002 27.4815 630.533 26.9844C630.069 26.4825 629.837 25.8551 629.837 25.1023C629.837 24.4867 630.01 23.9422 630.356 23.4688C630.706 22.9953 631.182 22.6236 631.783 22.3537C632.389 22.0838 633.076 21.9489 633.843 21.9489C634.923 21.9489 635.77 22.1856 636.386 22.6591C637.006 23.1326 637.446 23.7576 637.707 24.5341ZM648.156 24.5341L646.65 24.9602C646.556 24.7093 646.416 24.4654 646.231 24.2287C646.051 23.9872 645.805 23.7884 645.493 23.6321C645.18 23.4759 644.78 23.3977 644.292 23.3977C643.625 23.3977 643.068 23.5516 642.623 23.8594C642.183 24.1624 641.963 24.5483 641.963 25.017C641.963 25.4337 642.114 25.7628 642.417 26.0043C642.72 26.2457 643.194 26.447 643.838 26.608L645.457 27.0057C646.432 27.2424 647.159 27.6046 647.637 28.0923C648.116 28.5753 648.355 29.1979 648.355 29.9602C648.355 30.5852 648.175 31.1439 647.815 31.6364C647.46 32.1288 646.963 32.517 646.324 32.8011C645.684 33.0852 644.941 33.2273 644.093 33.2273C642.981 33.2273 642.06 32.9858 641.331 32.5028C640.601 32.0199 640.14 31.3144 639.946 30.3864L641.537 29.9886C641.688 30.5758 641.975 31.0161 642.396 31.3097C642.822 31.6032 643.378 31.75 644.065 31.75C644.846 31.75 645.467 31.5843 645.926 31.2528C646.39 30.9167 646.622 30.5142 646.622 30.0455C646.622 29.6667 646.489 29.3494 646.224 29.0938C645.959 28.8333 645.552 28.6392 645.002 28.5114L643.184 28.0852C642.185 27.8485 641.451 27.4815 640.983 26.9844C640.519 26.4825 640.287 25.8551 640.287 25.1023C640.287 24.4867 640.459 23.9422 640.805 23.4688C641.155 22.9953 641.631 22.6236 642.233 22.3537C642.839 22.0838 643.525 21.9489 644.292 21.9489C645.372 21.9489 646.219 22.1856 646.835 22.6591C647.455 23.1326 647.895 23.7576 648.156 24.5341ZM655.452 33.2273C654.401 33.2273 653.494 32.9953 652.732 32.5312C651.974 32.0625 651.389 31.4091 650.977 30.571C650.57 29.7282 650.366 28.7481 650.366 27.6307C650.366 26.5133 650.57 25.5284 650.977 24.6761C651.389 23.8191 651.962 23.1515 652.696 22.6733C653.435 22.1903 654.296 21.9489 655.281 21.9489C655.849 21.9489 656.411 22.0436 656.964 22.233C657.518 22.4223 658.023 22.7301 658.477 23.1562C658.932 23.5777 659.294 24.1364 659.564 24.8324C659.834 25.5284 659.969 26.3854 659.969 27.4034V28.1136H651.56V26.6648H658.264C658.264 26.0492 658.141 25.5 657.895 25.017C657.653 24.5341 657.308 24.1529 656.858 23.8736C656.413 23.5942 655.887 23.4545 655.281 23.4545C654.614 23.4545 654.036 23.6203 653.548 23.9517C653.065 24.2784 652.694 24.7045 652.433 25.2301C652.173 25.7557 652.043 26.3191 652.043 26.9205V27.8864C652.043 28.7102 652.185 29.4086 652.469 29.9815C652.758 30.5497 653.158 30.983 653.669 31.2812C654.18 31.5748 654.775 31.7216 655.452 31.7216C655.892 31.7216 656.29 31.66 656.645 31.5369C657.005 31.4091 657.315 31.2197 657.575 30.9688C657.836 30.7131 658.037 30.3958 658.179 30.017L659.798 30.4716C659.628 31.0208 659.341 31.5038 658.939 31.9205C658.536 32.3324 658.039 32.6544 657.447 32.8864C656.856 33.1136 656.19 33.2273 655.452 33.2273ZM666.638 33.2273C665.729 33.2273 664.926 32.9976 664.23 32.5384C663.534 32.0743 662.99 31.4209 662.597 30.5781C662.204 29.7306 662.007 28.7292 662.007 27.5739C662.007 26.428 662.204 25.4337 662.597 24.5909C662.99 23.7481 663.536 23.0971 664.237 22.6378C664.938 22.1785 665.748 21.9489 666.666 21.9489C667.376 21.9489 667.938 22.0672 668.349 22.304C668.766 22.536 669.083 22.8011 669.301 23.0994C669.524 23.393 669.696 23.6345 669.82 23.8239H669.962V18.4545H671.638V33H670.018V31.3239H669.82C669.696 31.5227 669.521 31.7737 669.294 32.0767C669.067 32.375 668.742 32.6425 668.321 32.8793C667.9 33.1113 667.339 33.2273 666.638 33.2273ZM666.865 31.7216C667.537 31.7216 668.106 31.5464 668.57 31.196C669.034 30.8409 669.386 30.3509 669.628 29.7259C669.869 29.0961 669.99 28.3693 669.99 27.5455C669.99 26.7311 669.872 26.0185 669.635 25.4077C669.398 24.7921 669.048 24.3139 668.584 23.973C668.12 23.6274 667.547 23.4545 666.865 23.4545C666.155 23.4545 665.563 23.6368 665.089 24.0014C664.621 24.3613 664.268 24.8513 664.031 25.4716C663.799 26.0871 663.683 26.7784 663.683 27.5455C663.683 28.322 663.802 29.0275 664.038 29.6619C664.28 30.2917 664.635 30.7936 665.104 31.1676C665.577 31.5369 666.164 31.7216 666.865 31.7216Z" fill="#0A2832"/>
<path d="M792.25 33H787.761V18.4545H792.449C793.86 18.4545 795.067 18.7457 796.071 19.3281C797.075 19.9058 797.844 20.7367 798.379 21.821C798.914 22.9006 799.182 24.1932 799.182 25.6989C799.182 27.214 798.912 28.5185 798.372 29.6122C797.832 30.7012 797.046 31.5393 796.014 32.1264C794.982 32.7088 793.727 33 792.25 33ZM789.523 31.4375H792.136C793.339 31.4375 794.336 31.2055 795.126 30.7415C795.917 30.2775 796.507 29.617 796.895 28.7599C797.283 27.9029 797.477 26.8826 797.477 25.6989C797.477 24.5246 797.286 23.5137 796.902 22.6662C796.518 21.8139 795.946 21.1605 795.183 20.706C794.421 20.2467 793.472 20.017 792.335 20.017H789.523V31.4375ZM801.909 33V22.0909H803.585V33H801.909ZM802.761 20.2727C802.435 20.2727 802.153 20.1615 801.916 19.9389C801.684 19.7164 801.568 19.4489 801.568 19.1364C801.568 18.8239 801.684 18.5563 801.916 18.3338C802.153 18.1113 802.435 18 802.761 18C803.088 18 803.367 18.1113 803.599 18.3338C803.836 18.5563 803.955 18.8239 803.955 19.1364C803.955 19.4489 803.836 19.7164 803.599 19.9389C803.367 20.1615 803.088 20.2727 802.761 20.2727ZM814.382 24.5341L812.877 24.9602C812.782 24.7093 812.642 24.4654 812.458 24.2287C812.278 23.9872 812.032 23.7884 811.719 23.6321C811.407 23.4759 811.007 23.3977 810.519 23.3977C809.851 23.3977 809.295 23.5516 808.85 23.8594C808.409 24.1624 808.189 24.5483 808.189 25.017C808.189 25.4337 808.341 25.7628 808.644 26.0043C808.947 26.2457 809.42 26.447 810.064 26.608L811.684 27.0057C812.659 27.2424 813.386 27.6046 813.864 28.0923C814.342 28.5753 814.581 29.1979 814.581 29.9602C814.581 30.5852 814.401 31.1439 814.042 31.6364C813.686 32.1288 813.189 32.517 812.55 32.8011C811.911 33.0852 811.167 33.2273 810.32 33.2273C809.207 33.2273 808.286 32.9858 807.557 32.5028C806.828 32.0199 806.366 31.3144 806.172 30.3864L807.763 29.9886C807.915 30.5758 808.201 31.0161 808.623 31.3097C809.049 31.6032 809.605 31.75 810.292 31.75C811.073 31.75 811.693 31.5843 812.152 31.2528C812.616 30.9167 812.848 30.5142 812.848 30.0455C812.848 29.6667 812.716 29.3494 812.451 29.0938C812.185 28.8333 811.778 28.6392 811.229 28.5114L809.411 28.0852C808.412 27.8485 807.678 27.4815 807.209 26.9844C806.745 26.4825 806.513 25.8551 806.513 25.1023C806.513 24.4867 806.686 23.9422 807.032 23.4688C807.382 22.9953 807.858 22.6236 808.459 22.3537C809.065 22.0838 809.752 21.9489 810.519 21.9489C811.598 21.9489 812.446 22.1856 813.061 22.6591C813.682 23.1326 814.122 23.7576 814.382 24.5341ZM820.315 33.2557C819.623 33.2557 818.996 33.1255 818.433 32.8651C817.869 32.5999 817.422 32.2188 817.09 31.7216C816.759 31.2197 816.593 30.6136 816.593 29.9034C816.593 29.2784 816.716 28.7718 816.962 28.3835C817.209 27.9905 817.538 27.6828 817.95 27.4602C818.362 27.2377 818.816 27.072 819.313 26.9631C819.815 26.8494 820.319 26.7595 820.826 26.6932C821.489 26.608 822.026 26.544 822.438 26.5014C822.855 26.4541 823.158 26.3759 823.347 26.267C823.541 26.1581 823.638 25.9687 823.638 25.6989V25.642C823.638 24.9413 823.447 24.3968 823.063 24.0085C822.684 23.6203 822.109 23.4261 821.337 23.4261C820.537 23.4261 819.91 23.6013 819.455 23.9517C819.001 24.3021 818.681 24.6761 818.496 25.0739L816.906 24.5057C817.19 23.8428 817.568 23.3267 818.042 22.9574C818.52 22.5833 819.041 22.3229 819.604 22.1761C820.173 22.0246 820.731 21.9489 821.281 21.9489C821.631 21.9489 822.033 21.9915 822.488 22.0767C822.947 22.1572 823.39 22.3253 823.816 22.581C824.247 22.8366 824.604 23.2225 824.888 23.7386C825.173 24.2547 825.315 24.946 825.315 25.8125V33H823.638V31.5227H823.553C823.44 31.7595 823.25 32.0128 822.985 32.2827C822.72 32.5526 822.367 32.7822 821.927 32.9716C821.487 33.161 820.949 33.2557 820.315 33.2557ZM820.57 31.75C821.233 31.75 821.792 31.6198 822.246 31.3594C822.706 31.099 823.051 30.7628 823.283 30.3509C823.52 29.9389 823.638 29.5057 823.638 29.0511V27.517C823.567 27.6023 823.411 27.6804 823.17 27.7514C822.933 27.8177 822.658 27.8769 822.346 27.929C822.038 27.9763 821.737 28.0189 821.444 28.0568C821.155 28.09 820.921 28.1184 820.741 28.142C820.305 28.1989 819.898 28.2912 819.519 28.419C819.145 28.5421 818.842 28.7292 818.61 28.9801C818.383 29.2263 818.269 29.5625 818.269 29.9886C818.269 30.571 818.485 31.0114 818.915 31.3097C819.351 31.6032 819.903 31.75 820.57 31.75ZM828.601 33V18.4545H830.277V23.8239H830.419C830.542 23.6345 830.713 23.393 830.931 23.0994C831.153 22.8011 831.471 22.536 831.882 22.304C832.299 22.0672 832.863 21.9489 833.573 21.9489C834.491 21.9489 835.301 22.1785 836.002 22.6378C836.703 23.0971 837.249 23.7481 837.642 24.5909C838.035 25.4337 838.232 26.428 838.232 27.5739C838.232 28.7292 838.035 29.7306 837.642 30.5781C837.249 31.4209 836.705 32.0743 836.009 32.5384C835.313 32.9976 834.51 33.2273 833.601 33.2273C832.9 33.2273 832.339 33.1113 831.918 32.8793C831.497 32.6425 831.172 32.375 830.945 32.0767C830.718 31.7737 830.542 31.5227 830.419 31.3239H830.221V33H828.601ZM830.249 27.5455C830.249 28.3693 830.37 29.0961 830.611 29.7259C830.853 30.3509 831.205 30.8409 831.669 31.196C832.133 31.5464 832.702 31.7216 833.374 31.7216C834.075 31.7216 834.659 31.5369 835.128 31.1676C835.602 30.7936 835.957 30.2917 836.194 29.6619C836.435 29.0275 836.556 28.322 836.556 27.5455C836.556 26.7784 836.437 26.0871 836.201 25.4716C835.969 24.8513 835.616 24.3613 835.142 24.0014C834.674 23.6368 834.084 23.4545 833.374 23.4545C832.692 23.4545 832.119 23.6274 831.655 23.973C831.191 24.3139 830.841 24.7921 830.604 25.4077C830.367 26.0185 830.249 26.7311 830.249 27.5455ZM842.472 18.4545V33H840.796V18.4545H842.472ZM850.116 33.2273C849.065 33.2273 848.158 32.9953 847.396 32.5312C846.638 32.0625 846.053 31.4091 845.641 30.571C845.234 29.7282 845.031 28.7481 845.031 27.6307C845.031 26.5133 845.234 25.5284 845.641 24.6761C846.053 23.8191 846.626 23.1515 847.36 22.6733C848.099 22.1903 848.96 21.9489 849.945 21.9489C850.513 21.9489 851.075 22.0436 851.629 22.233C852.183 22.4223 852.687 22.7301 853.141 23.1562C853.596 23.5777 853.958 24.1364 854.228 24.8324C854.498 25.5284 854.633 26.3854 854.633 27.4034V28.1136H846.224V26.6648H852.928C852.928 26.0492 852.805 25.5 852.559 25.017C852.317 24.5341 851.972 24.1529 851.522 23.8736C851.077 23.5942 850.551 23.4545 849.945 23.4545C849.278 23.4545 848.7 23.6203 848.212 23.9517C847.729 24.2784 847.358 24.7045 847.097 25.2301C846.837 25.7557 846.707 26.3191 846.707 26.9205V27.8864C846.707 28.7102 846.849 29.4086 847.133 29.9815C847.422 30.5497 847.822 30.983 848.333 31.2812C848.844 31.5748 849.439 31.7216 850.116 31.7216C850.556 31.7216 850.954 31.66 851.309 31.5369C851.669 31.4091 851.979 31.2197 852.239 30.9688C852.5 30.7131 852.701 30.3958 852.843 30.017L854.462 30.4716C854.292 31.0208 854.005 31.5038 853.603 31.9205C853.201 32.3324 852.703 32.6544 852.112 32.8864C851.52 33.1136 850.854 33.2273 850.116 33.2273ZM861.302 33.2273C860.393 33.2273 859.59 32.9976 858.894 32.5384C858.198 32.0743 857.654 31.4209 857.261 30.5781C856.868 29.7306 856.671 28.7292 856.671 27.5739C856.671 26.428 856.868 25.4337 857.261 24.5909C857.654 23.7481 858.201 23.0971 858.901 22.6378C859.602 22.1785 860.412 21.9489 861.33 21.9489C862.04 21.9489 862.602 22.0672 863.013 22.304C863.43 22.536 863.747 22.8011 863.965 23.0994C864.188 23.393 864.361 23.6345 864.484 23.8239H864.626V18.4545H866.302V33H864.683V31.3239H864.484C864.361 31.5227 864.185 31.7737 863.958 32.0767C863.731 32.375 863.406 32.6425 862.985 32.8793C862.564 33.1113 862.003 33.2273 861.302 33.2273ZM861.529 31.7216C862.201 31.7216 862.77 31.5464 863.234 31.196C863.698 30.8409 864.05 30.3509 864.292 29.7259C864.533 29.0961 864.654 28.3693 864.654 27.5455C864.654 26.7311 864.536 26.0185 864.299 25.4077C864.062 24.7921 863.712 24.3139 863.248 23.973C862.784 23.6274 862.211 23.4545 861.529 23.4545C860.819 23.4545 860.227 23.6368 859.754 24.0014C859.285 24.3613 858.932 24.8513 858.695 25.4716C858.463 26.0871 858.347 26.7784 858.347 27.5455C858.347 28.322 858.466 29.0275 858.702 29.6619C858.944 30.2917 859.299 30.7936 859.768 31.1676C860.241 31.5369 860.828 31.7216 861.529 31.7216Z" fill="#0A2832"/>
<path d="M988.466 23H986.705C986.6 22.4934 986.418 22.0483 986.158 21.6648C985.902 21.2812 985.589 20.9593 985.22 20.6989C984.856 20.4337 984.451 20.2348 984.006 20.1023C983.561 19.9697 983.097 19.9034 982.614 19.9034C981.733 19.9034 980.935 20.1259 980.22 20.571C979.51 21.0161 978.944 21.6719 978.523 22.5384C978.106 23.4048 977.898 24.4678 977.898 25.7273C977.898 26.9867 978.106 28.0497 978.523 28.9162C978.944 29.7827 979.51 30.4384 980.22 30.8835C980.935 31.3286 981.733 31.5511 982.614 31.5511C983.097 31.5511 983.561 31.4848 984.006 31.3523C984.451 31.2197 984.856 31.0232 985.22 30.7628C985.589 30.4976 985.902 30.1733 986.158 29.7898C986.418 29.4015 986.6 28.9564 986.705 28.4545H988.466C988.333 29.1979 988.092 29.8632 987.741 30.4503C987.391 31.0374 986.955 31.5369 986.435 31.9489C985.914 32.3561 985.329 32.6662 984.68 32.8793C984.036 33.0923 983.348 33.1989 982.614 33.1989C981.373 33.1989 980.27 32.8958 979.304 32.2898C978.338 31.6837 977.578 30.822 977.024 29.7045C976.47 28.5871 976.193 27.2614 976.193 25.7273C976.193 24.1932 976.47 22.8674 977.024 21.75C977.578 20.6326 978.338 19.7708 979.304 19.1648C980.27 18.5587 981.373 18.2557 982.614 18.2557C983.348 18.2557 984.036 18.3622 984.68 18.5753C985.329 18.7884 985.914 19.1009 986.435 19.5128C986.955 19.92 987.391 20.4171 987.741 21.0043C988.092 21.5866 988.333 22.2519 988.466 23ZM992.761 18.4545V33H991.085V18.4545H992.761ZM995.831 33V22.0909H997.507V33H995.831ZM996.683 20.2727C996.357 20.2727 996.075 20.1615 995.838 19.9389C995.606 19.7164 995.49 19.4489 995.49 19.1364C995.49 18.8239 995.606 18.5563 995.838 18.3338C996.075 18.1113 996.357 18 996.683 18C997.01 18 997.289 18.1113 997.521 18.3338C997.758 18.5563 997.876 18.8239 997.876 19.1364C997.876 19.4489 997.758 19.7164 997.521 19.9389C997.289 20.1615 997.01 20.2727 996.683 20.2727ZM1005.01 33.2273C1003.99 33.2273 1003.11 32.9858 1002.37 32.5028C1001.63 32.0199 1001.06 31.3546 1000.66 30.5071C1000.26 29.6596 1000.07 28.6913 1000.07 27.6023C1000.07 26.4943 1000.27 25.5166 1000.68 24.669C1001.09 23.8168 1001.66 23.1515 1002.4 22.6733C1003.13 22.1903 1004 21.9489 1004.98 21.9489C1005.75 21.9489 1006.44 22.0909 1007.05 22.375C1007.67 22.6591 1008.17 23.0568 1008.57 23.5682C1008.96 24.0795 1009.2 24.6761 1009.3 25.358H1007.62C1007.49 24.8608 1007.21 24.4205 1006.77 24.0369C1006.33 23.6487 1005.75 23.4545 1005.01 23.4545C1004.36 23.4545 1003.78 23.625 1003.29 23.9659C1002.8 24.3021 1002.42 24.7779 1002.15 25.3935C1001.88 26.0043 1001.74 26.7216 1001.74 27.5455C1001.74 28.3883 1001.87 29.1222 1002.14 29.7472C1002.41 30.3722 1002.79 30.8575 1003.28 31.2031C1003.77 31.5488 1004.35 31.7216 1005.01 31.7216C1005.44 31.7216 1005.84 31.6458 1006.19 31.4943C1006.55 31.3428 1006.85 31.125 1007.1 30.8409C1007.34 30.5568 1007.52 30.2159 1007.62 29.8182H1009.3C1009.2 30.4621 1008.97 31.0421 1008.6 31.5582C1008.23 32.0696 1007.74 32.4768 1007.13 32.7798C1006.52 33.0781 1005.81 33.2273 1005.01 33.2273ZM1013.31 29.0227L1013.28 26.9489H1013.62L1018.4 22.0909H1020.47L1015.39 27.233H1015.24L1013.31 29.0227ZM1011.75 33V18.4545H1013.43V33H1011.75ZM1018.68 33L1014.42 27.6023L1015.61 26.4375L1020.81 33H1018.68ZM1026.75 33.2273C1025.7 33.2273 1024.79 32.9953 1024.03 32.5312C1023.27 32.0625 1022.69 31.4091 1022.28 30.571C1021.87 29.7282 1021.67 28.7481 1021.67 27.6307C1021.67 26.5133 1021.87 25.5284 1022.28 24.6761C1022.69 23.8191 1023.26 23.1515 1024 22.6733C1024.74 22.1903 1025.6 21.9489 1026.58 21.9489C1027.15 21.9489 1027.71 22.0436 1028.27 22.233C1028.82 22.4223 1029.32 22.7301 1029.78 23.1562C1030.23 23.5777 1030.59 24.1364 1030.86 24.8324C1031.13 25.5284 1031.27 26.3854 1031.27 27.4034V28.1136H1022.86V26.6648H1029.56C1029.56 26.0492 1029.44 25.5 1029.2 25.017C1028.95 24.5341 1028.61 24.1529 1028.16 23.8736C1027.71 23.5942 1027.19 23.4545 1026.58 23.4545C1025.91 23.4545 1025.34 23.6203 1024.85 23.9517C1024.37 24.2784 1023.99 24.7045 1023.73 25.2301C1023.47 25.7557 1023.34 26.3191 1023.34 26.9205V27.8864C1023.34 28.7102 1023.49 29.4086 1023.77 29.9815C1024.06 30.5497 1024.46 30.983 1024.97 31.2812C1025.48 31.5748 1026.08 31.7216 1026.75 31.7216C1027.19 31.7216 1027.59 31.66 1027.95 31.5369C1028.31 31.4091 1028.62 31.2197 1028.88 30.9688C1029.14 30.7131 1029.34 30.3958 1029.48 30.017L1031.1 30.4716C1030.93 31.0208 1030.64 31.5038 1030.24 31.9205C1029.84 32.3324 1029.34 32.6544 1028.75 32.8864C1028.16 33.1136 1027.49 33.2273 1026.75 33.2273ZM1037.94 33.2273C1037.03 33.2273 1036.23 32.9976 1035.53 32.5384C1034.83 32.0743 1034.29 31.4209 1033.9 30.5781C1033.5 29.7306 1033.31 28.7292 1033.31 27.5739C1033.31 26.428 1033.5 25.4337 1033.9 24.5909C1034.29 23.7481 1034.84 23.0971 1035.54 22.6378C1036.24 22.1785 1037.05 21.9489 1037.97 21.9489C1038.68 21.9489 1039.24 22.0672 1039.65 22.304C1040.07 22.536 1040.38 22.8011 1040.6 23.0994C1040.82 23.393 1041 23.6345 1041.12 23.8239H1041.26V18.4545H1042.94V33H1041.32V31.3239H1041.12C1041 31.5227 1040.82 31.7737 1040.59 32.0767C1040.37 32.375 1040.04 32.6425 1039.62 32.8793C1039.2 33.1113 1038.64 33.2273 1037.94 33.2273ZM1038.17 31.7216C1038.84 31.7216 1039.41 31.5464 1039.87 31.196C1040.33 30.8409 1040.69 30.3509 1040.93 29.7259C1041.17 29.0961 1041.29 28.3693 1041.29 27.5455C1041.29 26.7311 1041.17 26.0185 1040.94 25.4077C1040.7 24.7921 1040.35 24.3139 1039.88 23.973C1039.42 23.6274 1038.85 23.4545 1038.17 23.4545C1037.46 23.4545 1036.86 23.6368 1036.39 24.0014C1035.92 24.3613 1035.57 24.8513 1035.33 25.4716C1035.1 26.0871 1034.98 26.7784 1034.98 27.5455C1034.98 28.322 1035.1 29.0275 1035.34 29.6619C1035.58 30.2917 1035.94 30.7936 1036.4 31.1676C1036.88 31.5369 1037.47 31.7216 1038.17 31.7216Z" fill="#0A2832"/>
<path d="M219 64H1127" stroke="#738287" stroke-width="1.5"/>
<circle cx="220" cy="100" r="1" fill="#058C50"/>
<circle cx="226" cy="100" r="1" fill="#058C50"/>
<circle cx="232" cy="100" r="1" fill="#058C50"/>
<path d="M246.341 93.8182L242.591 107.75H241.364L245.114 93.8182H246.341Z" fill="#0A2832"/>
<circle cx="409" cy="100" r="1" fill="#37A373"/>
<circle cx="415" cy="100" r="1" fill="#37A373"/>
<circle cx="421" cy="100" r="1" fill="#37A373"/>
<path d="M435.341 93.8182L431.591 107.75H430.364L434.114 93.8182H435.341Z" fill="#0A2832"/>
<circle cx="598" cy="100" r="1" fill="#047040"/>
<circle cx="604" cy="100" r="1" fill="#047040"/>
<circle cx="610" cy="100" r="1" fill="#047040"/>
<path d="M624.341 93.8182L620.591 107.75H619.364L623.114 93.8182H624.341Z" fill="#0A2832"/>
<circle cx="787" cy="100" r="1" fill="#738287"/>
<circle cx="793" cy="100" r="1" fill="#738287"/>
<circle cx="799" cy="100" r="1" fill="#738287"/>
<path d="M813.341 93.8182L809.591 107.75H808.364L812.114 93.8182H813.341Z" fill="#0A2832"/>
<circle cx="976" cy="100" r="1" fill="#058C50"/>
<circle cx="982" cy="100" r="1" fill="#058C50"/>
<circle cx="988" cy="100" r="1" fill="#058C50"/>
<path d="M1002.34 93.8182L998.591 107.75H997.364L1001.11 93.8182H1002.34Z" fill="#0A2832"/>
<rect width="94" height="120" transform="translate(975 116)" fill="#E1EBF0"/>
<path d="M1001.11 130.364V142H999.705V131.614H993.841V142H992.432V130.364H1001.11ZM1004.64 145.273C1004.41 145.273 1004.21 145.254 1004.03 145.216C1003.85 145.182 1003.73 145.148 1003.66 145.114L1004 143.932C1004.33 144.015 1004.62 144.045 1004.87 144.023C1005.12 144 1005.34 143.888 1005.53 143.688C1005.73 143.491 1005.91 143.17 1006.07 142.727L1006.32 142.045L1003.09 133.273H1004.55L1006.96 140.227H1007.05L1009.46 133.273H1010.91L1007.21 143.273C1007.04 143.723 1006.83 144.097 1006.59 144.392C1006.34 144.691 1006.05 144.913 1005.73 145.057C1005.41 145.201 1005.04 145.273 1004.64 145.273ZM1018.52 137.023V138.273H1013.7V137.023H1018.52ZM1014.02 133.273V142H1012.68V133.273H1014.02ZM1019.54 133.273V142H1018.2V133.273H1019.54ZM1021.99 142V133.273H1023.33V137.068H1024.22L1027.36 133.273H1029.08L1025.56 137.477L1029.13 142H1027.4L1024.54 138.318H1023.33V142H1021.99ZM1030.09 134.523V133.273H1037.18V134.523H1034.31V142H1032.97V134.523H1030.09ZM1047.7 130.364V142H1046.29V131.841H1046.22L1043.38 133.727V132.295L1046.29 130.364H1047.7Z" fill="#0A2832"/>
<path d="M1001.11 170.364V182H999.705V171.614H993.841V182H992.432V170.364H1001.11ZM1004.64 185.273C1004.41 185.273 1004.21 185.254 1004.03 185.216C1003.85 185.182 1003.73 185.148 1003.66 185.114L1004 183.932C1004.33 184.015 1004.62 184.045 1004.87 184.023C1005.12 184 1005.34 183.888 1005.53 183.688C1005.73 183.491 1005.91 183.17 1006.07 182.727L1006.32 182.045L1003.09 173.273H1004.55L1006.96 180.227H1007.05L1009.46 173.273H1010.91L1007.21 183.273C1007.04 183.723 1006.83 184.097 1006.59 184.392C1006.34 184.691 1006.05 184.913 1005.73 185.057C1005.41 185.201 1005.04 185.273 1004.64 185.273ZM1018.52 177.023V178.273H1013.7V177.023H1018.52ZM1014.02 173.273V182H1012.68V173.273H1014.02ZM1019.54 173.273V182H1018.2V173.273H1019.54ZM1021.99 182V173.273H1023.33V177.068H1024.22L1027.36 173.273H1029.08L1025.56 177.477L1029.13 182H1027.4L1024.54 178.318H1023.33V182H1021.99ZM1030.09 174.523V173.273H1037.18V174.523H1034.31V182H1032.97V174.523H1030.09ZM1043.61 182V180.977L1047.45 176.773C1047.9 176.28 1048.27 175.852 1048.57 175.489C1048.86 175.121 1049.07 174.777 1049.21 174.455C1049.36 174.129 1049.43 173.788 1049.43 173.432C1049.43 173.023 1049.33 172.669 1049.13 172.369C1048.94 172.07 1048.68 171.839 1048.34 171.676C1048 171.513 1047.62 171.432 1047.2 171.432C1046.75 171.432 1046.36 171.525 1046.03 171.71C1045.7 171.892 1045.45 172.148 1045.26 172.477C1045.09 172.807 1045 173.193 1045 173.636H1043.66C1043.66 172.955 1043.81 172.356 1044.13 171.841C1044.44 171.326 1044.87 170.924 1045.41 170.636C1045.96 170.348 1046.57 170.205 1047.25 170.205C1047.93 170.205 1048.53 170.348 1049.06 170.636C1049.59 170.924 1050 171.312 1050.3 171.801C1050.6 172.29 1050.75 172.833 1050.75 173.432C1050.75 173.86 1050.67 174.278 1050.51 174.688C1050.36 175.093 1050.1 175.545 1049.72 176.045C1049.34 176.542 1048.82 177.148 1048.16 177.864L1045.54 180.659V180.75H1050.95V182H1043.61Z" fill="#0A2832"/>
<path d="M1001.11 210.364V222H999.705V211.614H993.841V222H992.432V210.364H1001.11ZM1004.64 225.273C1004.41 225.273 1004.21 225.254 1004.03 225.216C1003.85 225.182 1003.73 225.148 1003.66 225.114L1004 223.932C1004.33 224.015 1004.62 224.045 1004.87 224.023C1005.12 224 1005.34 223.888 1005.53 223.688C1005.73 223.491 1005.91 223.17 1006.07 222.727L1006.32 222.045L1003.09 213.273H1004.55L1006.96 220.227H1007.05L1009.46 213.273H1010.91L1007.21 223.273C1007.04 223.723 1006.83 224.097 1006.59 224.392C1006.34 224.691 1006.05 224.913 1005.73 225.057C1005.41 225.201 1005.04 225.273 1004.64 225.273ZM1018.52 217.023V218.273H1013.7V217.023H1018.52ZM1014.02 213.273V222H1012.68V213.273H1014.02ZM1019.54 213.273V222H1018.2V213.273H1019.54ZM1021.99 222V213.273H1023.33V217.068H1024.22L1027.36 213.273H1029.08L1025.56 217.477L1029.13 222H1027.4L1024.54 218.318H1023.33V222H1021.99ZM1030.09 214.523V213.273H1037.18V214.523H1034.31V222H1032.97V214.523H1030.09ZM1047.54 222.159C1046.79 222.159 1046.12 222.03 1045.54 221.773C1044.95 221.515 1044.49 221.157 1044.14 220.699C1043.8 220.237 1043.62 219.701 1043.59 219.091H1045.02C1045.05 219.466 1045.18 219.79 1045.41 220.062C1045.63 220.331 1045.93 220.54 1046.3 220.688C1046.67 220.835 1047.07 220.909 1047.52 220.909C1048.02 220.909 1048.46 220.822 1048.85 220.648C1049.24 220.473 1049.54 220.231 1049.76 219.92C1049.98 219.61 1050.09 219.25 1050.09 218.841C1050.09 218.413 1049.98 218.036 1049.77 217.71C1049.56 217.381 1049.25 217.123 1048.84 216.938C1048.43 216.752 1047.93 216.659 1047.34 216.659H1046.41V215.409H1047.34C1047.8 215.409 1048.21 215.326 1048.55 215.159C1048.91 214.992 1049.18 214.758 1049.38 214.455C1049.58 214.152 1049.68 213.795 1049.68 213.386C1049.68 212.992 1049.59 212.65 1049.42 212.358C1049.24 212.066 1049 211.839 1048.68 211.676C1048.36 211.513 1047.99 211.432 1047.57 211.432C1047.16 211.432 1046.79 211.506 1046.43 211.653C1046.08 211.797 1045.79 212.008 1045.57 212.284C1045.34 212.557 1045.22 212.886 1045.2 213.273H1043.84C1043.86 212.663 1044.04 212.129 1044.39 211.67C1044.73 211.208 1045.18 210.848 1045.74 210.591C1046.3 210.333 1046.92 210.205 1047.59 210.205C1048.31 210.205 1048.93 210.35 1049.44 210.642C1049.96 210.93 1050.35 211.311 1050.63 211.784C1050.9 212.258 1051.04 212.769 1051.04 213.318C1051.04 213.973 1050.87 214.532 1050.53 214.994C1050.18 215.456 1049.72 215.777 1049.13 215.955V216.045C1049.87 216.167 1050.44 216.479 1050.86 216.983C1051.27 217.483 1051.47 218.102 1051.47 218.841C1051.47 219.473 1051.3 220.042 1050.96 220.545C1050.62 221.045 1050.15 221.439 1049.56 221.727C1048.97 222.015 1048.3 222.159 1047.54 222.159Z" fill="#0A2832"/>
<path d="M975 116L982 109L989 116H975Z" fill="#E1EBF0"/>
<path d="M229.114 186.364V198H227.705V187.614H221.841V198H220.432V186.364H229.114ZM232.638 201.273C232.411 201.273 232.208 201.254 232.03 201.216C231.852 201.182 231.729 201.148 231.661 201.114L232.001 199.932C232.327 200.015 232.615 200.045 232.865 200.023C233.115 200 233.337 199.888 233.53 199.688C233.727 199.491 233.907 199.17 234.07 198.727L234.32 198.045L231.092 189.273H232.547L234.956 196.227H235.047L237.456 189.273H238.911L235.206 199.273C235.039 199.723 234.833 200.097 234.587 200.392C234.34 200.691 234.054 200.913 233.729 201.057C233.407 201.201 233.043 201.273 232.638 201.273ZM246.521 193.023V194.273H241.703V193.023H246.521ZM242.021 189.273V198H240.68V189.273H242.021ZM247.544 189.273V198H246.203V189.273H247.544ZM249.993 198V189.273H251.334V193.068H252.22L255.357 189.273H257.084L253.561 193.477L257.129 198H255.402L252.538 194.318H251.334V198H249.993ZM258.087 190.523V189.273H265.178V190.523H262.314V198H260.973V190.523H258.087Z" fill="#058C50"/>
<path d="M279.341 185.818L275.591 199.75H274.364L278.114 185.818H279.341Z" fill="#0A2832"/>
<path d="M418.114 186.364V198H416.705V187.614H410.841V198H409.432V186.364H418.114ZM421.638 201.273C421.411 201.273 421.208 201.254 421.03 201.216C420.852 201.182 420.729 201.148 420.661 201.114L421.001 199.932C421.327 200.015 421.615 200.045 421.865 200.023C422.115 200 422.337 199.888 422.53 199.688C422.727 199.491 422.907 199.17 423.07 198.727L423.32 198.045L420.092 189.273H421.547L423.956 196.227H424.047L426.456 189.273H427.911L424.206 199.273C424.039 199.723 423.833 200.097 423.587 200.392C423.34 200.691 423.054 200.913 422.729 201.057C422.407 201.201 422.043 201.273 421.638 201.273ZM435.521 193.023V194.273H430.703V193.023H435.521ZM431.021 189.273V198H429.68V189.273H431.021ZM436.544 189.273V198H435.203V189.273H436.544ZM438.993 198V189.273H440.334V193.068H441.22L444.357 189.273H446.084L442.561 193.477L446.129 198H444.402L441.538 194.318H440.334V198H438.993ZM447.087 190.523V189.273H454.178V190.523H451.314V198H449.973V190.523H447.087Z" fill="#37A373"/>
<path d="M468.341 185.818L464.591 199.75H463.364L467.114 185.818H468.341Z" fill="#0A2832"/>
<path d="M607.114 186.364V198H605.705V187.614H599.841V198H598.432V186.364H607.114ZM610.638 201.273C610.411 201.273 610.208 201.254 610.03 201.216C609.852 201.182 609.729 201.148 609.661 201.114L610.001 199.932C610.327 200.015 610.615 200.045 610.865 200.023C611.115 200 611.337 199.888 611.53 199.688C611.727 199.491 611.907 199.17 612.07 198.727L612.32 198.045L609.092 189.273H610.547L612.956 196.227H613.047L615.456 189.273H616.911L613.206 199.273C613.039 199.723 612.833 200.097 612.587 200.392C612.34 200.691 612.054 200.913 611.729 201.057C611.407 201.201 611.043 201.273 610.638 201.273ZM624.521 193.023V194.273H619.703V193.023H624.521ZM620.021 189.273V198H618.68V189.273H620.021ZM625.544 189.273V198H624.203V189.273H625.544ZM627.993 198V189.273H629.334V193.068H630.22L633.357 189.273H635.084L631.561 193.477L635.129 198H633.402L630.538 194.318H629.334V198H627.993ZM636.087 190.523V189.273H643.178V190.523H640.314V198H638.973V190.523H636.087Z" fill="#047040"/>
<path d="M657.341 185.818L653.591 199.75H652.364L656.114 185.818H657.341Z" fill="#0A2832"/>
<path d="M796.114 186.364V198H794.705V187.614H788.841V198H787.432V186.364H796.114ZM799.638 201.273C799.411 201.273 799.208 201.254 799.03 201.216C798.852 201.182 798.729 201.148 798.661 201.114L799.001 199.932C799.327 200.015 799.615 200.045 799.865 200.023C800.115 200 800.337 199.888 800.53 199.688C800.727 199.491 800.907 199.17 801.07 198.727L801.32 198.045L798.092 189.273H799.547L801.956 196.227H802.047L804.456 189.273H805.911L802.206 199.273C802.039 199.723 801.833 200.097 801.587 200.392C801.34 200.691 801.054 200.913 800.729 201.057C800.407 201.201 800.043 201.273 799.638 201.273ZM813.521 193.023V194.273H808.703V193.023H813.521ZM809.021 189.273V198H807.68V189.273H809.021ZM814.544 189.273V198H813.203V189.273H814.544ZM816.993 198V189.273H818.334V193.068H819.22L822.357 189.273H824.084L820.561 193.477L824.129 198H822.402L819.538 194.318H818.334V198H816.993ZM825.087 190.523V189.273H832.178V190.523H829.314V198H827.973V190.523H825.087Z" fill="#738287"/>
<path d="M846.341 185.818L842.591 199.75H841.364L845.114 185.818H846.341Z" fill="#738287"/>
<path d="M229.114 278.364V290H227.705V279.614H221.841V290H220.432V278.364H229.114ZM232.638 293.273C232.411 293.273 232.208 293.254 232.03 293.216C231.852 293.182 231.729 293.148 231.661 293.114L232.001 291.932C232.327 292.015 232.615 292.045 232.865 292.023C233.115 292 233.337 291.888 233.53 291.688C233.727 291.491 233.907 291.17 234.07 290.727L234.32 290.045L231.092 281.273H232.547L234.956 288.227H235.047L237.456 281.273H238.911L235.206 291.273C235.039 291.723 234.833 292.097 234.587 292.392C234.34 292.691 234.054 292.913 233.729 293.057C233.407 293.201 233.043 293.273 232.638 293.273ZM246.521 285.023V286.273H241.703V285.023H246.521ZM242.021 281.273V290H240.68V281.273H242.021ZM247.544 281.273V290H246.203V281.273H247.544ZM249.993 290V281.273H251.334V285.068H252.22L255.357 281.273H257.084L253.561 285.477L257.129 290H255.402L252.538 286.318H251.334V290H249.993ZM258.087 282.523V281.273H265.178V282.523H262.314V290H260.973V282.523H258.087Z" fill="#0A2832"/>
<path d="M195 340L195 -1.17719e-05" stroke="#738287" stroke-width="1.5"/>
<path d="M0 64H364" stroke="#738287" stroke-width="1.5"/>
</svg>
