<svg width="1128" height="276" viewBox="0 0 1128 276" fill="none" xmlns="http://www.w3.org/2000/svg">
<g clip-path="url(#clip0_1691_4560)">
<rect width="1128" height="276" fill="#F2F6F9"/>
<rect x="48" width="1032" height="228" fill="white"/>
<g clip-path="url(#clip1_1691_4560)">
<rect x="619.75" y="45.75" width="20.5" height="20.5" fill="white" stroke="#C8D2D7" stroke-width="1.5"/>
</g>
<path d="M670.642 48.4545V63H668.881V50.017H661.551V63H659.79V48.4545H670.642ZM678.4 63.2273C677.415 63.2273 676.551 62.9929 675.807 62.5241C675.069 62.0554 674.491 61.3996 674.074 60.5568C673.662 59.714 673.456 58.7292 673.456 57.6023C673.456 56.4659 673.662 55.474 674.074 54.6264C674.491 53.7789 675.069 53.1207 675.807 52.652C676.551 52.1832 677.415 51.9489 678.4 51.9489C679.384 51.9489 680.246 52.1832 680.985 52.652C681.728 53.1207 682.306 53.7789 682.718 54.6264C683.134 55.474 683.343 56.4659 683.343 57.6023C683.343 58.7292 683.134 59.714 682.718 60.5568C682.306 61.3996 681.728 62.0554 680.985 62.5241C680.246 62.9929 679.384 63.2273 678.4 63.2273ZM678.4 61.7216C679.148 61.7216 679.763 61.5298 680.246 61.1463C680.729 60.7628 681.087 60.2585 681.319 59.6335C681.551 59.0085 681.667 58.3314 681.667 57.6023C681.667 56.8731 681.551 56.1937 681.319 55.5639C681.087 54.9342 680.729 54.4252 680.246 54.0369C679.763 53.6487 679.148 53.4545 678.4 53.4545C677.651 53.4545 677.036 53.6487 676.553 54.0369C676.07 54.4252 675.712 54.9342 675.48 55.5639C675.248 56.1937 675.132 56.8731 675.132 57.6023C675.132 58.3314 675.248 59.0085 675.48 59.6335C675.712 60.2585 676.07 60.7628 676.553 61.1463C677.036 61.5298 677.651 61.7216 678.4 61.7216ZM684.737 66.125V61.4375H685.646C685.868 61.2055 686.06 60.9545 686.221 60.6847C686.382 60.4148 686.522 60.0952 686.64 59.7259C686.763 59.3518 686.867 58.8973 686.952 58.3622C687.038 57.8224 687.113 57.1714 687.18 56.4091L687.549 52.0909H694.481V61.4375H696.157V66.125H694.481V63H686.413V66.125H684.737ZM687.549 61.4375H692.805V53.6534H689.112L688.827 56.4091C688.709 57.5502 688.562 58.5469 688.387 59.3991C688.212 60.2514 687.933 60.9309 687.549 61.4375ZM698.382 63V52.0909H706.961V63H705.285V53.6534H700.058V63H698.382ZM711.699 60.5284L716.954 52.0909H718.886V63H717.21V54.5625L711.983 63H710.022V52.0909H711.699V60.5284ZM726.388 63.2273C725.365 63.2273 724.484 62.9858 723.746 62.5028C723.007 62.0199 722.439 61.3546 722.041 60.5071C721.643 59.6596 721.445 58.6913 721.445 57.6023C721.445 56.4943 721.648 55.5166 722.055 54.669C722.467 53.8168 723.04 53.1515 723.774 52.6733C724.513 52.1903 725.375 51.9489 726.359 51.9489C727.126 51.9489 727.818 52.0909 728.433 52.375C729.049 52.6591 729.553 53.0568 729.946 53.5682C730.339 54.0795 730.583 54.6761 730.678 55.358H729.001C728.874 54.8608 728.589 54.4205 728.149 54.0369C727.714 53.6487 727.126 53.4545 726.388 53.4545C725.734 53.4545 725.161 53.625 724.669 53.9659C724.181 54.3021 723.8 54.7779 723.526 55.3935C723.256 56.0043 723.121 56.7216 723.121 57.5455C723.121 58.3883 723.253 59.1222 723.518 59.7472C723.788 60.3722 724.167 60.8575 724.655 61.2031C725.147 61.5488 725.725 61.7216 726.388 61.7216C726.823 61.7216 727.219 61.6458 727.574 61.4943C727.929 61.3428 728.23 61.125 728.476 60.8409C728.722 60.5568 728.897 60.2159 729.001 59.8182H730.678C730.583 60.4621 730.348 61.0421 729.974 61.5582C729.605 62.0696 729.115 62.4768 728.504 62.7798C727.898 63.0781 727.193 63.2273 726.388 63.2273ZM736.338 63.2557C735.647 63.2557 735.019 63.1255 734.456 62.8651C733.893 62.5999 733.445 62.2188 733.114 61.7216C732.782 61.2197 732.616 60.6136 732.616 59.9034C732.616 59.2784 732.74 58.7718 732.986 58.3835C733.232 57.9905 733.561 57.6828 733.973 57.4602C734.385 57.2377 734.839 57.072 735.337 56.9631C735.839 56.8494 736.343 56.7595 736.849 56.6932C737.512 56.608 738.05 56.544 738.462 56.5014C738.878 56.4541 739.181 56.3759 739.371 56.267C739.565 56.1581 739.662 55.9687 739.662 55.6989V55.642C739.662 54.9413 739.47 54.3968 739.087 54.0085C738.708 53.6203 738.133 53.4261 737.361 53.4261C736.561 53.4261 735.933 53.6013 735.479 53.9517C735.024 54.3021 734.705 54.6761 734.52 55.0739L732.929 54.5057C733.213 53.8428 733.592 53.3267 734.065 52.9574C734.544 52.5833 735.064 52.3229 735.628 52.1761C736.196 52.0246 736.755 51.9489 737.304 51.9489C737.654 51.9489 738.057 51.9915 738.511 52.0767C738.971 52.1572 739.413 52.3253 739.839 52.581C740.27 52.8366 740.628 53.2225 740.912 53.7386C741.196 54.2547 741.338 54.946 741.338 55.8125V63H739.662V61.5227H739.577C739.463 61.7595 739.274 62.0128 739.009 62.2827C738.743 62.5526 738.391 62.7822 737.95 62.9716C737.51 63.161 736.973 63.2557 736.338 63.2557ZM736.594 61.75C737.257 61.75 737.815 61.6198 738.27 61.3594C738.729 61.099 739.075 60.7628 739.307 60.3509C739.544 59.9389 739.662 59.5057 739.662 59.0511V57.517C739.591 57.6023 739.435 57.6804 739.193 57.7514C738.956 57.8177 738.682 57.8769 738.369 57.929C738.062 57.9763 737.761 58.0189 737.467 58.0568C737.179 58.09 736.944 58.1184 736.764 58.142C736.329 58.1989 735.921 58.2912 735.543 58.419C735.169 58.5421 734.866 58.7292 734.634 58.9801C734.406 59.2263 734.293 59.5625 734.293 59.9886C734.293 60.571 734.508 61.0114 734.939 61.3097C735.375 61.6032 735.926 61.75 736.594 61.75ZM742.913 53.6534V52.0909H751.777V53.6534H748.197V63H746.521V53.6534H742.913ZM755.67 56.0398H758.795C760.074 56.0398 761.052 56.3641 761.729 57.0128C762.406 57.6615 762.744 58.483 762.744 59.4773C762.744 60.1307 762.593 60.7249 762.29 61.2599C761.987 61.7902 761.542 62.214 760.955 62.5312C760.367 62.8438 759.648 63 758.795 63H754.222V52.0909H755.898V61.4375H758.795C759.458 61.4375 760.003 61.2623 760.429 60.9119C760.855 60.5616 761.068 60.1117 761.068 59.5625C761.068 58.9848 760.855 58.5137 760.429 58.1491C760.003 57.7846 759.458 57.6023 758.795 57.6023H755.67V56.0398ZM769.728 63.2273C768.705 63.2273 767.824 62.9858 767.086 62.5028C766.347 62.0199 765.779 61.3546 765.381 60.5071C764.983 59.6596 764.784 58.6913 764.784 57.6023C764.784 56.4943 764.988 55.5166 765.395 54.669C765.807 53.8168 766.38 53.1515 767.114 52.6733C767.853 52.1903 768.714 51.9489 769.699 51.9489C770.466 51.9489 771.158 52.0909 771.773 52.375C772.389 52.6591 772.893 53.0568 773.286 53.5682C773.679 54.0795 773.923 54.6761 774.017 55.358H772.341C772.213 54.8608 771.929 54.4205 771.489 54.0369C771.053 53.6487 770.466 53.4545 769.728 53.4545C769.074 53.4545 768.501 53.625 768.009 53.9659C767.521 54.3021 767.14 54.7779 766.865 55.3935C766.596 56.0043 766.461 56.7216 766.461 57.5455C766.461 58.3883 766.593 59.1222 766.858 59.7472C767.128 60.3722 767.507 60.8575 767.995 61.2031C768.487 61.5488 769.065 61.7216 769.728 61.7216C770.163 61.7216 770.559 61.6458 770.914 61.4943C771.269 61.3428 771.569 61.125 771.816 60.8409C772.062 60.5568 772.237 60.2159 772.341 59.8182H774.017C773.923 60.4621 773.688 61.0421 773.314 61.5582C772.945 62.0696 772.455 62.4768 771.844 62.7798C771.238 63.0781 770.533 63.2273 769.728 63.2273ZM783.03 63V53.625H780.132C779.479 53.625 778.965 53.7765 778.591 54.0795C778.217 54.3826 778.03 54.7992 778.03 55.3295C778.03 55.8504 778.198 56.2599 778.534 56.5582C778.875 56.8565 779.342 57.0057 779.934 57.0057H783.456V58.5682H779.934C779.195 58.5682 778.558 58.438 778.023 58.1776C777.488 57.9171 777.076 57.5455 776.787 57.0625C776.498 56.5748 776.354 55.9972 776.354 55.3295C776.354 54.6572 776.506 54.0795 776.809 53.5966C777.112 53.1136 777.545 52.742 778.108 52.4815C778.676 52.2211 779.351 52.0909 780.132 52.0909H784.621V63H783.03ZM775.757 63L778.854 57.5739H780.672L777.576 63H775.757ZM800.624 56.7784V58.3409H794.602V56.7784H800.624ZM794.999 52.0909V63H793.323V52.0909H794.999ZM801.903 52.0909V63H800.227V52.0909H801.903ZM808.174 63.2557C807.483 63.2557 806.855 63.1255 806.292 62.8651C805.728 62.5999 805.281 62.2188 804.95 61.7216C804.618 61.2197 804.452 60.6136 804.452 59.9034C804.452 59.2784 804.576 58.7718 804.822 58.3835C805.068 57.9905 805.397 57.6828 805.809 57.4602C806.221 57.2377 806.675 57.072 807.173 56.9631C807.674 56.8494 808.179 56.7595 808.685 56.6932C809.348 56.608 809.886 56.544 810.298 56.5014C810.714 56.4541 811.017 56.3759 811.207 56.267C811.401 56.1581 811.498 55.9687 811.498 55.6989V55.642C811.498 54.9413 811.306 54.3968 810.923 54.0085C810.544 53.6203 809.969 53.4261 809.197 53.4261C808.397 53.4261 807.769 53.6013 807.315 53.9517C806.86 54.3021 806.54 54.6761 806.356 55.0739L804.765 54.5057C805.049 53.8428 805.428 53.3267 805.901 52.9574C806.379 52.5833 806.9 52.3229 807.464 52.1761C808.032 52.0246 808.591 51.9489 809.14 51.9489C809.49 51.9489 809.893 51.9915 810.347 52.0767C810.807 52.1572 811.249 52.3253 811.675 52.581C812.106 52.8366 812.464 53.2225 812.748 53.7386C813.032 54.2547 813.174 54.946 813.174 55.8125V63H811.498V61.5227H811.413C811.299 61.7595 811.11 62.0128 810.844 62.2827C810.579 62.5526 810.227 62.7822 809.786 62.9716C809.346 63.161 808.808 63.2557 808.174 63.2557ZM808.43 61.75C809.093 61.75 809.651 61.6198 810.106 61.3594C810.565 61.099 810.911 60.7628 811.143 60.3509C811.379 59.9389 811.498 59.5057 811.498 59.0511V57.517C811.427 57.6023 811.271 57.6804 811.029 57.7514C810.792 57.8177 810.518 57.8769 810.205 57.929C809.897 57.9763 809.597 58.0189 809.303 58.0568C809.014 58.09 808.78 58.1184 808.6 58.142C808.165 58.1989 807.757 58.2912 807.379 58.419C807.004 58.5421 806.701 58.7292 806.469 58.9801C806.242 59.2263 806.129 59.5625 806.129 59.9886C806.129 60.571 806.344 61.0114 806.775 61.3097C807.21 61.6032 807.762 61.75 808.43 61.75ZM829.159 56.7784V58.3409H823.137V56.7784H829.159ZM823.534 52.0909V63H821.858V52.0909H823.534ZM830.438 52.0909V63H828.762V52.0909H830.438ZM837.931 63.2273C836.946 63.2273 836.082 62.9929 835.338 62.5241C834.6 62.0554 834.022 61.3996 833.605 60.5568C833.194 59.714 832.988 58.7292 832.988 57.6023C832.988 56.4659 833.194 55.474 833.605 54.6264C834.022 53.7789 834.6 53.1207 835.338 52.652C836.082 52.1832 836.946 51.9489 837.931 51.9489C838.916 51.9489 839.777 52.1832 840.516 52.652C841.259 53.1207 841.837 53.7789 842.249 54.6264C842.666 55.474 842.874 56.4659 842.874 57.6023C842.874 58.7292 842.666 59.714 842.249 60.5568C841.837 61.3996 841.259 62.0554 840.516 62.5241C839.777 62.9929 838.916 63.2273 837.931 63.2273ZM837.931 61.7216C838.679 61.7216 839.294 61.5298 839.777 61.1463C840.26 60.7628 840.618 60.2585 840.85 59.6335C841.082 59.0085 841.198 58.3314 841.198 57.6023C841.198 56.8731 841.082 56.1937 840.85 55.5639C840.618 54.9342 840.26 54.4252 839.777 54.0369C839.294 53.6487 838.679 53.4545 837.931 53.4545C837.183 53.4545 836.567 53.6487 836.084 54.0369C835.601 54.4252 835.244 54.9342 835.012 55.5639C834.78 56.1937 834.664 56.8731 834.664 57.6023C834.664 58.3314 834.78 59.0085 835.012 59.6335C835.244 60.2585 835.601 60.7628 836.084 61.1463C836.567 61.5298 837.183 61.7216 837.931 61.7216ZM845.433 63V52.0909H849.893C851.067 52.0909 852 52.3561 852.691 52.8864C853.382 53.4167 853.728 54.1174 853.728 54.9886C853.728 55.6515 853.531 56.1652 853.138 56.5298C852.746 56.8897 852.241 57.1335 851.626 57.2614C852.028 57.3182 852.419 57.4602 852.798 57.6875C853.181 57.9148 853.498 58.2273 853.749 58.625C854 59.018 854.126 59.5009 854.126 60.0739C854.126 60.6326 853.984 61.1321 853.7 61.5724C853.415 62.0128 853.008 62.3608 852.478 62.6165C851.948 62.8722 851.313 63 850.575 63H845.433ZM847.023 61.4659H850.575C851.152 61.4659 851.604 61.3286 851.931 61.054C852.258 60.7794 852.421 60.4053 852.421 59.9318C852.421 59.3684 852.258 58.9257 851.931 58.6037C851.604 58.277 851.152 58.1136 850.575 58.1136H847.023V61.4659ZM847.023 56.6648H849.893C850.343 56.6648 850.728 56.6032 851.05 56.4801C851.372 56.3523 851.619 56.1723 851.789 55.9403C851.964 55.7036 852.052 55.4242 852.052 55.1023C852.052 54.643 851.86 54.2831 851.477 54.0227C851.093 53.7576 850.565 53.625 849.893 53.625H847.023V56.6648ZM861.095 63.2273C860.11 63.2273 859.246 62.9929 858.502 62.5241C857.764 62.0554 857.186 61.3996 856.77 60.5568C856.358 59.714 856.152 58.7292 856.152 57.6023C856.152 56.4659 856.358 55.474 856.77 54.6264C857.186 53.7789 857.764 53.1207 858.502 52.652C859.246 52.1832 860.11 51.9489 861.095 51.9489C862.08 51.9489 862.941 52.1832 863.68 52.652C864.423 53.1207 865.001 53.7789 865.413 54.6264C865.83 55.474 866.038 56.4659 866.038 57.6023C866.038 58.7292 865.83 59.714 865.413 60.5568C865.001 61.3996 864.423 62.0554 863.68 62.5241C862.941 62.9929 862.08 63.2273 861.095 63.2273ZM861.095 61.7216C861.843 61.7216 862.458 61.5298 862.941 61.1463C863.424 60.7628 863.782 60.2585 864.014 59.6335C864.246 59.0085 864.362 58.3314 864.362 57.6023C864.362 56.8731 864.246 56.1937 864.014 55.5639C863.782 54.9342 863.424 54.4252 862.941 54.0369C862.458 53.6487 861.843 53.4545 861.095 53.4545C860.347 53.4545 859.731 53.6487 859.248 54.0369C858.765 54.4252 858.408 54.9342 858.176 55.5639C857.944 56.1937 857.828 56.8731 857.828 57.6023C857.828 58.3314 857.944 59.0085 858.176 59.6335C858.408 60.2585 858.765 60.7628 859.248 61.1463C859.731 61.5298 860.347 61.7216 861.095 61.7216ZM873.028 63.2273C872.006 63.2273 871.125 62.9858 870.386 62.5028C869.648 62.0199 869.08 61.3546 868.682 60.5071C868.284 59.6596 868.085 58.6913 868.085 57.6023C868.085 56.4943 868.289 55.5166 868.696 54.669C869.108 53.8168 869.681 53.1515 870.415 52.6733C871.153 52.1903 872.015 51.9489 873 51.9489C873.767 51.9489 874.458 52.0909 875.074 52.375C875.689 52.6591 876.194 53.0568 876.587 53.5682C876.98 54.0795 877.223 54.6761 877.318 55.358H875.642C875.514 54.8608 875.23 54.4205 874.79 54.0369C874.354 53.6487 873.767 53.4545 873.028 53.4545C872.375 53.4545 871.802 53.625 871.31 53.9659C870.822 54.3021 870.441 54.7779 870.166 55.3935C869.896 56.0043 869.761 56.7216 869.761 57.5455C869.761 58.3883 869.894 59.1222 870.159 59.7472C870.429 60.3722 870.808 60.8575 871.295 61.2031C871.788 61.5488 872.366 61.7216 873.028 61.7216C873.464 61.7216 873.859 61.6458 874.214 61.4943C874.57 61.3428 874.87 61.125 875.116 60.8409C875.363 60.5568 875.538 60.2159 875.642 59.8182H877.318C877.223 60.4621 876.989 61.0421 876.615 61.5582C876.246 62.0696 875.756 62.4768 875.145 62.7798C874.539 63.0781 873.833 63.2273 873.028 63.2273ZM878.909 53.6534V52.0909H887.773V53.6534H884.193V63H882.517V53.6534H878.909ZM891.894 60.5284L897.15 52.0909H899.081V63H897.405V54.5625L892.178 63H890.218V52.0909H891.894V60.5284ZM909.452 60.5284L914.708 52.0909H916.64V63H914.964V54.5625L909.737 63H907.776V52.0909H909.452V60.5284ZM929.767 63.2273C928.744 63.2273 927.863 62.9858 927.125 62.5028C926.386 62.0199 925.818 61.3546 925.42 60.5071C925.022 59.6596 924.824 58.6913 924.824 57.6023C924.824 56.4943 925.027 55.5166 925.434 54.669C925.846 53.8168 926.419 53.1515 927.153 52.6733C927.892 52.1903 928.753 51.9489 929.738 51.9489C930.505 51.9489 931.197 52.0909 931.812 52.375C932.428 52.6591 932.932 53.0568 933.325 53.5682C933.718 54.0795 933.962 54.6761 934.056 55.358H932.38C932.252 54.8608 931.968 54.4205 931.528 54.0369C931.092 53.6487 930.505 53.4545 929.767 53.4545C929.113 53.4545 928.54 53.625 928.048 53.9659C927.56 54.3021 927.179 54.7779 926.904 55.3935C926.635 56.0043 926.5 56.7216 926.5 57.5455C926.5 58.3883 926.632 59.1222 926.897 59.7472C927.167 60.3722 927.546 60.8575 928.034 61.2031C928.526 61.5488 929.104 61.7216 929.767 61.7216C930.202 61.7216 930.598 61.6458 930.953 61.4943C931.308 61.3428 931.609 61.125 931.855 60.8409C932.101 60.5568 932.276 60.2159 932.38 59.8182H934.056C933.962 60.4621 933.727 61.0421 933.353 61.5582C932.984 62.0696 932.494 62.4768 931.883 62.7798C931.277 63.0781 930.572 63.2273 929.767 63.2273ZM936.507 63V52.0909H938.183V56.8352H939.291L943.211 52.0909H945.37L940.967 57.3466L945.427 63H943.268L939.689 58.3977H938.183V63H936.507ZM948.925 60.5284L954.181 52.0909H956.113V63H954.436V54.5625L949.209 63H947.249V52.0909H948.925V60.5284ZM958.018 66.125V61.4375H958.927C959.149 61.2055 959.341 60.9545 959.502 60.6847C959.663 60.4148 959.803 60.0952 959.921 59.7259C960.044 59.3518 960.148 58.8973 960.234 58.3622C960.319 57.8224 960.395 57.1714 960.461 56.4091L960.83 52.0909H967.762V61.4375H969.438V66.125H967.762V63H959.694V66.125H958.018ZM960.83 61.4375H966.086V53.6534H962.393L962.109 56.4091C961.99 57.5502 961.844 58.5469 961.668 59.3991C961.493 60.2514 961.214 60.9309 960.83 61.4375ZM971.663 63V52.0909H973.339V56.8352H974.447L978.368 52.0909H980.527L976.123 57.3466L980.583 63H978.424L974.845 58.3977H973.339V63H971.663ZM984.081 60.5284L989.337 52.0909H991.269V63H989.593V54.5625L984.365 63H982.405V52.0909H984.081V60.5284Z" fill="#0A2832"/>
<path d="M618 -52H1032V12H618V-52Z" fill="#F2F6F9"/>
<path d="M150.622 147.727C150.622 149.28 150.338 150.616 149.769 151.733C149.201 152.846 148.422 153.703 147.433 154.304C146.448 154.901 145.328 155.199 144.073 155.199C142.814 155.199 141.689 154.901 140.7 154.304C139.715 153.703 138.938 152.843 138.37 151.726C137.802 150.608 137.518 149.276 137.518 147.727C137.518 146.174 137.802 144.841 138.37 143.729C138.938 142.611 139.715 141.754 140.7 141.158C141.689 140.556 142.814 140.256 144.073 140.256C145.328 140.256 146.448 140.556 147.433 141.158C148.422 141.754 149.201 142.611 149.769 143.729C150.338 144.841 150.622 146.174 150.622 147.727ZM148.448 147.727C148.448 146.544 148.257 145.547 147.873 144.737C147.494 143.923 146.973 143.307 146.311 142.891C145.652 142.469 144.907 142.259 144.073 142.259C143.235 142.259 142.487 142.469 141.829 142.891C141.171 143.307 140.65 143.923 140.267 144.737C139.888 145.547 139.698 146.544 139.698 147.727C139.698 148.911 139.888 149.91 140.267 150.724C140.65 151.534 141.171 152.15 141.829 152.571C142.487 152.988 143.235 153.196 144.073 153.196C144.907 153.196 145.652 152.988 146.311 152.571C146.973 152.15 147.494 151.534 147.873 150.724C148.257 149.91 148.448 148.911 148.448 147.727ZM152.577 145.923V144.091H161.781V145.923H158.223V155H156.149V145.923H152.577ZM170.149 152.372L173.672 144.091H175.504L170.938 155H169.361L164.887 144.091H166.698L170.149 152.372ZM166.108 144.091V155H164.027V144.091H166.108ZM174.247 155V144.091H176.314V155H174.247ZM183.846 155.22C182.771 155.22 181.846 154.991 181.069 154.531C180.297 154.067 179.701 153.416 179.279 152.578C178.863 151.735 178.654 150.748 178.654 149.616C178.654 148.499 178.863 147.514 179.279 146.662C179.701 145.81 180.288 145.144 181.041 144.666C181.798 144.188 182.684 143.949 183.697 143.949C184.312 143.949 184.909 144.051 185.487 144.254C186.064 144.458 186.583 144.777 187.042 145.213C187.501 145.649 187.864 146.214 188.129 146.911C188.394 147.602 188.526 148.442 188.526 149.432V150.185H179.855V148.594H186.445C186.445 148.035 186.332 147.54 186.105 147.109C185.877 146.674 185.558 146.33 185.146 146.08C184.739 145.829 184.26 145.703 183.711 145.703C183.115 145.703 182.594 145.85 182.149 146.143C181.708 146.432 181.367 146.811 181.126 147.28C180.889 147.744 180.771 148.248 180.771 148.793V150.036C180.771 150.765 180.899 151.385 181.154 151.896C181.415 152.408 181.777 152.798 182.241 153.068C182.705 153.333 183.247 153.466 183.867 153.466C184.27 153.466 184.637 153.409 184.968 153.295C185.3 153.177 185.586 153.002 185.828 152.77C186.069 152.538 186.254 152.251 186.382 151.911L188.392 152.273C188.231 152.865 187.942 153.383 187.525 153.828C187.113 154.268 186.595 154.612 185.97 154.858C185.349 155.099 184.642 155.22 183.846 155.22ZM198.276 148.629V150.469H192.367V148.629H198.276ZM192.964 144.091V155H190.883V144.091H192.964ZM199.76 144.091V155H197.687V144.091H199.76ZM204.682 152.024L209.491 144.091H211.778V155H209.697V147.06L204.91 155H202.601V144.091H204.682V152.024ZM213.28 145.923V144.091H222.484V145.923H218.926V155H216.852V145.923H213.28ZM226.328 147.841H229.496C230.831 147.841 231.859 148.172 232.578 148.835C233.298 149.498 233.658 150.353 233.658 151.399C233.658 152.081 233.497 152.694 233.175 153.239C232.853 153.783 232.382 154.214 231.762 154.531C231.141 154.844 230.386 155 229.496 155H224.73V144.091H226.811V153.168H229.496C230.107 153.168 230.609 153.009 231.002 152.692C231.395 152.37 231.591 151.96 231.591 151.463C231.591 150.937 231.395 150.509 231.002 150.178C230.609 149.841 230.107 149.673 229.496 149.673H226.328V147.841Z" fill="#058C50"/>
<rect x="722.75" y="116.75" width="141.5" height="62.5" stroke="#058C50" stroke-width="1.5"/>
<path d="M764.844 155V140.455H767.039V146.776H774.29V140.455H776.492V155H774.29V148.658H767.039V155H764.844ZM782.692 155.241C782.001 155.241 781.376 155.114 780.817 154.858C780.258 154.598 779.816 154.221 779.489 153.729C779.167 153.236 779.006 152.633 779.006 151.918C779.006 151.302 779.124 150.795 779.361 150.398C779.598 150 779.917 149.685 780.32 149.453C780.722 149.221 781.172 149.046 781.669 148.928C782.167 148.809 782.673 148.719 783.189 148.658C783.843 148.582 784.373 148.52 784.78 148.473C785.187 148.421 785.483 148.338 785.668 148.224C785.853 148.111 785.945 147.926 785.945 147.67V147.621C785.945 147 785.77 146.52 785.419 146.179C785.074 145.838 784.558 145.668 783.871 145.668C783.156 145.668 782.593 145.826 782.181 146.143C781.774 146.456 781.492 146.804 781.336 147.188L779.34 146.733C779.577 146.07 779.922 145.535 780.377 145.128C780.836 144.716 781.364 144.418 781.961 144.233C782.557 144.044 783.185 143.949 783.843 143.949C784.278 143.949 784.74 144.001 785.228 144.105C785.72 144.205 786.179 144.389 786.605 144.659C787.036 144.929 787.389 145.315 787.664 145.817C787.938 146.314 788.076 146.96 788.076 147.756V155H786.002V153.509H785.917C785.779 153.783 785.573 154.053 785.299 154.318C785.024 154.583 784.671 154.804 784.24 154.979C783.81 155.154 783.293 155.241 782.692 155.241ZM783.154 153.537C783.741 153.537 784.243 153.421 784.659 153.189C785.081 152.957 785.4 152.654 785.618 152.28C785.841 151.901 785.952 151.496 785.952 151.065V149.659C785.876 149.735 785.73 149.806 785.512 149.872C785.299 149.934 785.055 149.988 784.78 150.036C784.506 150.078 784.238 150.118 783.978 150.156C783.717 150.189 783.499 150.218 783.324 150.241C782.912 150.294 782.536 150.381 782.195 150.504C781.859 150.627 781.589 150.805 781.385 151.037C781.186 151.264 781.087 151.567 781.087 151.946C781.087 152.472 781.281 152.869 781.669 153.139C782.058 153.404 782.552 153.537 783.154 153.537ZM790.258 152.116H792.431C792.46 152.562 792.661 152.905 793.035 153.146C793.414 153.388 793.904 153.509 794.505 153.509C795.116 153.509 795.637 153.378 796.067 153.118C796.498 152.853 796.714 152.443 796.714 151.889C796.714 151.558 796.631 151.269 796.465 151.023C796.304 150.772 796.075 150.578 795.776 150.44C795.483 150.303 795.135 150.234 794.732 150.234H792.957V148.565H794.732C795.334 148.565 795.783 148.428 796.082 148.153C796.38 147.879 796.529 147.536 796.529 147.124C796.529 146.679 796.368 146.321 796.046 146.051C795.729 145.777 795.286 145.639 794.718 145.639C794.14 145.639 793.66 145.769 793.276 146.03C792.893 146.286 792.692 146.617 792.673 147.024H790.528C790.542 146.413 790.727 145.878 791.082 145.419C791.442 144.955 791.924 144.595 792.531 144.339C793.141 144.079 793.835 143.949 794.612 143.949C795.421 143.949 796.122 144.079 796.714 144.339C797.306 144.6 797.763 144.96 798.085 145.419C798.411 145.878 798.575 146.406 798.575 147.003C798.575 147.604 798.395 148.097 798.035 148.48C797.68 148.859 797.216 149.131 796.643 149.297V149.411C797.064 149.439 797.438 149.567 797.765 149.794C798.092 150.021 798.347 150.322 798.532 150.696C798.717 151.07 798.809 151.494 798.809 151.967C798.809 152.635 798.624 153.213 798.255 153.7C797.89 154.188 797.384 154.564 796.735 154.83C796.091 155.09 795.355 155.22 794.526 155.22C793.721 155.22 792.999 155.095 792.36 154.844C791.726 154.588 791.221 154.228 790.847 153.764C790.478 153.3 790.281 152.751 790.258 152.116ZM804.176 155.241C803.485 155.241 802.86 155.114 802.301 154.858C801.743 154.598 801.3 154.221 800.973 153.729C800.651 153.236 800.49 152.633 800.49 151.918C800.49 151.302 800.609 150.795 800.846 150.398C801.082 150 801.402 149.685 801.804 149.453C802.207 149.221 802.657 149.046 803.154 148.928C803.651 148.809 804.158 148.719 804.674 148.658C805.327 148.582 805.857 148.52 806.265 148.473C806.672 148.421 806.968 148.338 807.152 148.224C807.337 148.111 807.429 147.926 807.429 147.67V147.621C807.429 147 807.254 146.52 806.904 146.179C806.558 145.838 806.042 145.668 805.355 145.668C804.641 145.668 804.077 145.826 803.665 146.143C803.258 146.456 802.976 146.804 802.82 147.188L800.824 146.733C801.061 146.07 801.407 145.535 801.861 145.128C802.32 144.716 802.848 144.418 803.445 144.233C804.042 144.044 804.669 143.949 805.327 143.949C805.763 143.949 806.224 144.001 806.712 144.105C807.204 144.205 807.664 144.389 808.09 144.659C808.521 144.929 808.873 145.315 809.148 145.817C809.423 146.314 809.56 146.96 809.56 147.756V155H807.486V153.509H807.401C807.264 153.783 807.058 154.053 806.783 154.318C806.508 154.583 806.156 154.804 805.725 154.979C805.294 155.154 804.778 155.241 804.176 155.241ZM804.638 153.537C805.225 153.537 805.727 153.421 806.144 153.189C806.565 152.957 806.885 152.654 807.103 152.28C807.325 151.901 807.436 151.496 807.436 151.065V149.659C807.361 149.735 807.214 149.806 806.996 149.872C806.783 149.934 806.539 149.988 806.265 150.036C805.99 150.078 805.722 150.118 805.462 150.156C805.202 150.189 804.984 150.218 804.809 150.241C804.397 150.294 804.02 150.381 803.679 150.504C803.343 150.627 803.073 150.805 802.87 151.037C802.671 151.264 802.571 151.567 802.571 151.946C802.571 152.472 802.766 152.869 803.154 153.139C803.542 153.404 804.037 153.537 804.638 153.537ZM811.323 158.146V153.161H812.211C812.438 152.952 812.63 152.704 812.786 152.415C812.947 152.126 813.082 151.783 813.191 151.385C813.305 150.987 813.399 150.523 813.475 149.993C813.551 149.458 813.617 148.847 813.674 148.161L814.015 144.091H821.43V153.161H823.106V158.146H821.032V155H813.425V158.146H811.323ZM814.484 153.161H819.356V145.909H815.918L815.691 148.161C815.582 149.306 815.445 150.301 815.279 151.143C815.113 151.982 814.848 152.654 814.484 153.161Z" fill="#058C50"/>
<rect x="889" y="116" width="143" height="64" fill="#058C50"/>
<path d="M929.982 158.516V153.139H930.94C931.267 152.865 931.572 152.474 931.857 151.967C932.141 151.461 932.382 150.777 932.581 149.915C932.78 149.053 932.917 147.947 932.993 146.598L933.334 140.455H942.304V153.139H943.952V158.494H941.849V155H932.084V158.516H929.982ZM933.526 153.139H940.202V142.344H935.322L935.095 146.598C935.034 147.625 934.932 148.549 934.79 149.368C934.652 150.187 934.475 150.911 934.257 151.541C934.044 152.166 933.8 152.699 933.526 153.139ZM949.36 155.241C948.669 155.241 948.044 155.114 947.485 154.858C946.926 154.598 946.484 154.221 946.157 153.729C945.835 153.236 945.674 152.633 945.674 151.918C945.674 151.302 945.792 150.795 946.029 150.398C946.266 150 946.585 149.685 946.988 149.453C947.39 149.221 947.84 149.046 948.337 148.928C948.835 148.809 949.341 148.719 949.857 148.658C950.511 148.582 951.041 148.52 951.448 148.473C951.855 148.421 952.151 148.338 952.336 148.224C952.521 148.111 952.613 147.926 952.613 147.67V147.621C952.613 147 952.438 146.52 952.087 146.179C951.742 145.838 951.226 145.668 950.539 145.668C949.824 145.668 949.261 145.826 948.849 146.143C948.442 146.456 948.16 146.804 948.004 147.188L946.008 146.733C946.245 146.07 946.59 145.535 947.045 145.128C947.504 144.716 948.032 144.418 948.629 144.233C949.225 144.044 949.853 143.949 950.511 143.949C950.946 143.949 951.408 144.001 951.896 144.105C952.388 144.205 952.847 144.389 953.273 144.659C953.704 144.929 954.057 145.315 954.332 145.817C954.606 146.314 954.744 146.96 954.744 147.756V155H952.67V153.509H952.585C952.447 153.783 952.241 154.053 951.967 154.318C951.692 154.583 951.339 154.804 950.908 154.979C950.478 155.154 949.961 155.241 949.36 155.241ZM949.822 153.537C950.409 153.537 950.911 153.421 951.327 153.189C951.749 152.957 952.068 152.654 952.286 152.28C952.509 151.901 952.62 151.496 952.62 151.065V149.659C952.544 149.735 952.397 149.806 952.18 149.872C951.967 149.934 951.723 149.988 951.448 150.036C951.174 150.078 950.906 150.118 950.646 150.156C950.385 150.189 950.167 150.218 949.992 150.241C949.58 150.294 949.204 150.381 948.863 150.504C948.527 150.627 948.257 150.805 948.053 151.037C947.854 151.264 947.755 151.567 947.755 151.946C947.755 152.472 947.949 152.869 948.337 153.139C948.726 153.404 949.22 153.537 949.822 153.537ZM956.713 155L956.706 153.161H957.096C957.399 153.161 957.653 153.097 957.856 152.969C958.065 152.836 958.235 152.614 958.368 152.301C958.5 151.989 958.602 151.558 958.673 151.009C958.744 150.455 958.796 149.759 958.829 148.92L959.021 144.091H966.635V155H964.554V145.923H960.988L960.818 149.631C960.775 150.53 960.683 151.316 960.541 151.989C960.404 152.661 960.202 153.222 959.937 153.672C959.672 154.117 959.331 154.451 958.914 154.673C958.498 154.891 957.991 155 957.395 155H956.713ZM974.168 155.22C973.094 155.22 972.168 154.991 971.391 154.531C970.62 154.067 970.023 153.416 969.602 152.578C969.185 151.735 968.977 150.748 968.977 149.616C968.977 148.499 969.185 147.514 969.602 146.662C970.023 145.81 970.61 145.144 971.363 144.666C972.121 144.188 973.006 143.949 974.019 143.949C974.635 143.949 975.231 144.051 975.809 144.254C976.387 144.458 976.905 144.777 977.364 145.213C977.824 145.649 978.186 146.214 978.451 146.911C978.716 147.602 978.849 148.442 978.849 149.432V150.185H970.177V148.594H976.768C976.768 148.035 976.654 147.54 976.427 147.109C976.2 146.674 975.88 146.33 975.468 146.08C975.061 145.829 974.583 145.703 974.033 145.703C973.437 145.703 972.916 145.85 972.471 146.143C972.031 146.432 971.69 146.811 971.448 147.28C971.211 147.744 971.093 148.248 971.093 148.793V150.036C971.093 150.765 971.221 151.385 971.477 151.896C971.737 152.408 972.099 152.798 972.563 153.068C973.027 153.333 973.569 153.466 974.19 153.466C974.592 153.466 974.959 153.409 975.29 153.295C975.622 153.177 975.908 153.002 976.15 152.77C976.391 152.538 976.576 152.251 976.704 151.911L978.714 152.273C978.553 152.865 978.264 153.383 977.847 153.828C977.435 154.268 976.917 154.612 976.292 154.858C975.672 155.099 974.964 155.22 974.168 155.22ZM985.907 155.22C984.832 155.22 983.906 154.991 983.13 154.531C982.358 154.067 981.761 153.416 981.34 152.578C980.923 151.735 980.715 150.748 980.715 149.616C980.715 148.499 980.923 147.514 981.34 146.662C981.761 145.81 982.348 145.144 983.101 144.666C983.859 144.188 984.744 143.949 985.757 143.949C986.373 143.949 986.97 144.051 987.547 144.254C988.125 144.458 988.643 144.777 989.103 145.213C989.562 145.649 989.924 146.214 990.189 146.911C990.454 147.602 990.587 148.442 990.587 149.432V150.185H981.915V148.594H988.506C988.506 148.035 988.392 147.54 988.165 147.109C987.938 146.674 987.618 146.33 987.206 146.08C986.799 145.829 986.321 145.703 985.772 145.703C985.175 145.703 984.654 145.85 984.209 146.143C983.769 146.432 983.428 146.811 983.186 147.28C982.95 147.744 982.831 148.248 982.831 148.793V150.036C982.831 150.765 982.959 151.385 983.215 151.896C983.475 152.408 983.837 152.798 984.301 153.068C984.766 153.333 985.308 153.466 985.928 153.466C986.33 153.466 986.697 153.409 987.029 153.295C987.36 153.177 987.647 153.002 987.888 152.77C988.13 152.538 988.314 152.251 988.442 151.911L990.452 152.273C990.291 152.865 990.002 153.383 989.586 153.828C989.174 154.268 988.655 154.612 988.03 154.858C987.41 155.099 986.702 155.22 985.907 155.22Z" fill="white"/>
<rect x="96" y="-496" width="490" height="564" fill="#E1EBF0"/>
</g>
<defs>
<clipPath id="clip0_1691_4560">
<rect width="1128" height="276" fill="white"/>
</clipPath>
<clipPath id="clip1_1691_4560">
<rect width="24" height="24" fill="white" transform="translate(618 44)"/>
</clipPath>
</defs>
</svg>
