<svg width="552" height="276" viewBox="0 0 552 276" fill="none" xmlns="http://www.w3.org/2000/svg">
<g clip-path="url(#clip0_1283_5409)">
<rect width="552" height="276" fill="#F2F6F9"/>
<rect y="-15" width="552" height="276" fill="#F2F6F9"/>
<path d="M218.55 65.2727V74H217.493V66.3807H217.442L215.311 67.7955V66.7216L217.493 65.2727H218.55ZM221.06 74V73.233L223.94 70.0795C224.278 69.7102 224.557 69.3892 224.776 69.1165C224.994 68.8409 225.156 68.5824 225.261 68.3409C225.369 68.0966 225.423 67.8409 225.423 67.5739C225.423 67.267 225.349 67.0014 225.202 66.777C225.057 66.5526 224.858 66.3793 224.605 66.2571C224.352 66.1349 224.068 66.0739 223.753 66.0739C223.418 66.0739 223.125 66.1435 222.875 66.2827C222.628 66.419 222.436 66.6108 222.3 66.858C222.166 67.1051 222.099 67.3949 222.099 67.7273H221.094C221.094 67.2159 221.212 66.767 221.447 66.3807C221.683 65.9943 222.004 65.6932 222.411 65.4773C222.82 65.2614 223.278 65.1534 223.787 65.1534C224.298 65.1534 224.751 65.2614 225.146 65.4773C225.541 65.6932 225.851 65.9844 226.075 66.3509C226.3 66.7173 226.412 67.125 226.412 67.5739C226.412 67.8949 226.354 68.2088 226.237 68.5156C226.124 68.8196 225.925 69.1591 225.641 69.5341C225.359 69.9062 224.969 70.3608 224.469 70.8977L222.509 72.9943V73.0625H226.565V74H221.06Z" fill="#738287"/>
<path d="M214 84L228 84" stroke="#738287"/>
<line x1="227.5" y1="79" x2="227.5" y2="98" stroke="#738287"/>
<line x1="214.5" y1="79" x2="214.5" y2="98" stroke="#738287"/>
<path d="M64.3915 133.273V142H63.3347V134.381H63.2836L61.1529 135.795V134.722L63.3347 133.273H64.3915ZM69.7992 142.119C69.4412 142.114 69.0833 142.045 68.7253 141.915C68.3674 141.784 68.0407 141.564 67.7452 141.254C67.4498 140.942 67.2125 140.52 67.0336 139.989C66.8546 139.455 66.7651 138.784 66.7651 137.977C66.7651 137.205 66.8375 136.52 66.9824 135.923C67.1273 135.324 67.3375 134.82 67.6131 134.411C67.8887 133.999 68.2211 133.686 68.6103 133.473C69.0023 133.26 69.4441 133.153 69.9355 133.153C70.4242 133.153 70.8588 133.251 71.2395 133.447C71.623 133.641 71.9355 133.911 72.177 134.257C72.4185 134.604 72.5748 135.003 72.6458 135.455H71.606C71.5094 135.062 71.3219 134.737 71.0435 134.479C70.7651 134.22 70.3958 134.091 69.9355 134.091C69.2594 134.091 68.7267 134.385 68.3375 134.973C67.9512 135.561 67.7566 136.386 67.7537 137.449H67.8219C67.981 137.207 68.1699 137.001 68.3887 136.831C68.6103 136.658 68.8546 136.524 69.1216 136.43C69.3887 136.337 69.6713 136.29 69.9696 136.29C70.4696 136.29 70.927 136.415 71.3418 136.665C71.7566 136.912 72.089 137.254 72.339 137.692C72.589 138.126 72.714 138.625 72.714 139.188C72.714 139.727 72.5932 140.222 72.3517 140.67C72.1103 141.116 71.7708 141.472 71.3333 141.736C70.8986 141.997 70.3873 142.125 69.7992 142.119ZM69.7992 141.182C70.1571 141.182 70.4782 141.092 70.7623 140.913C71.0492 140.734 71.275 140.494 71.4398 140.193C71.6074 139.892 71.6912 139.557 71.6912 139.188C71.6912 138.827 71.6103 138.499 71.4483 138.203C71.2892 137.905 71.0691 137.668 70.7878 137.491C70.5094 137.315 70.1912 137.227 69.8333 137.227C69.5634 137.227 69.312 137.281 69.079 137.389C68.8461 137.494 68.6415 137.639 68.4654 137.824C68.2921 138.009 68.1557 138.22 68.0563 138.459C67.9569 138.695 67.9071 138.943 67.9071 139.205C67.9071 139.551 67.9881 139.875 68.15 140.176C68.3148 140.477 68.5392 140.72 68.8233 140.905C69.1103 141.089 69.4355 141.182 69.7992 141.182ZM75.4966 140.807L75.4284 141.267C75.3801 141.591 75.3063 141.938 75.2069 142.307C75.1103 142.676 75.0094 143.024 74.9043 143.351C74.7992 143.678 74.7125 143.938 74.6444 144.131H73.8773C73.9142 143.949 73.9625 143.709 74.0222 143.411C74.0819 143.112 74.1415 142.778 74.2012 142.409C74.2637 142.043 74.3148 141.668 74.3546 141.284L74.4057 140.807H75.4966ZM80.7179 142V141.233L83.5985 138.08C83.9366 137.71 84.215 137.389 84.4338 137.116C84.6525 136.841 84.8145 136.582 84.9196 136.341C85.0275 136.097 85.0815 135.841 85.0815 135.574C85.0815 135.267 85.0076 135.001 84.8599 134.777C84.715 134.553 84.5162 134.379 84.2633 134.257C84.0105 134.135 83.7264 134.074 83.411 134.074C83.0758 134.074 82.7832 134.143 82.5332 134.283C82.286 134.419 82.0943 134.611 81.9579 134.858C81.8244 135.105 81.7576 135.395 81.7576 135.727H80.752C80.752 135.216 80.8699 134.767 81.1056 134.381C81.3414 133.994 81.6625 133.693 82.0687 133.477C82.4778 133.261 82.9366 133.153 83.4451 133.153C83.9565 133.153 84.4096 133.261 84.8045 133.477C85.1994 133.693 85.5091 133.984 85.7335 134.351C85.9579 134.717 86.0701 135.125 86.0701 135.574C86.0701 135.895 86.0119 136.209 85.8954 136.516C85.7818 136.82 85.5829 137.159 85.2988 137.534C85.0176 137.906 84.627 138.361 84.127 138.898L82.1667 140.994V141.062H86.2235V142H80.7179ZM87.5914 140.21V139.341L91.4267 133.273H92.0574V134.619H91.6312L88.7335 139.205V139.273H93.8983V140.21H87.5914ZM91.6994 142V139.946V139.541V133.273H92.7051V142H91.6994ZM96.6021 140.807L96.5339 141.267C96.4856 141.591 96.4118 141.938 96.3123 142.307C96.2157 142.676 96.1149 143.024 96.0098 143.351C95.9047 143.678 95.818 143.938 95.7498 144.131H94.9828C95.0197 143.949 95.068 143.709 95.1277 143.411C95.1873 143.112 95.247 142.778 95.3066 142.409C95.3691 142.043 95.4203 141.668 95.46 141.284L95.5112 140.807H96.6021ZM101.823 142V141.233L104.704 138.08C105.042 137.71 105.32 137.389 105.539 137.116C105.758 136.841 105.92 136.582 106.025 136.341C106.133 136.097 106.187 135.841 106.187 135.574C106.187 135.267 106.113 135.001 105.965 134.777C105.82 134.553 105.622 134.379 105.369 134.257C105.116 134.135 104.832 134.074 104.517 134.074C104.181 134.074 103.889 134.143 103.639 134.283C103.392 134.419 103.2 134.611 103.063 134.858C102.93 135.105 102.863 135.395 102.863 135.727H101.857C101.857 135.216 101.975 134.767 102.211 134.381C102.447 133.994 102.768 133.693 103.174 133.477C103.583 133.261 104.042 133.153 104.551 133.153C105.062 133.153 105.515 133.261 105.91 133.477C106.305 133.693 106.615 133.984 106.839 134.351C107.063 134.717 107.176 135.125 107.176 135.574C107.176 135.895 107.117 136.209 107.001 136.516C106.887 136.82 106.688 137.159 106.404 137.534C106.123 137.906 105.732 138.361 105.232 138.898L103.272 140.994V141.062H107.329V142H101.823ZM111.884 142.119C111.299 142.119 110.782 142.016 110.333 141.808C109.887 141.598 109.539 141.31 109.289 140.943C109.039 140.574 108.916 140.153 108.919 139.682C108.916 139.312 108.988 138.972 109.136 138.659C109.284 138.344 109.485 138.081 109.741 137.871C109.999 137.658 110.288 137.523 110.606 137.466V137.415C110.188 137.307 109.856 137.072 109.609 136.712C109.362 136.348 109.24 135.935 109.242 135.472C109.24 135.028 109.352 134.632 109.579 134.283C109.806 133.933 110.119 133.658 110.517 133.456C110.917 133.254 111.373 133.153 111.884 133.153C112.39 133.153 112.842 133.254 113.24 133.456C113.637 133.658 113.95 133.933 114.177 134.283C114.407 134.632 114.524 135.028 114.526 135.472C114.524 135.935 114.397 136.348 114.147 136.712C113.9 137.072 113.572 137.307 113.163 137.415V137.466C113.478 137.523 113.762 137.658 114.015 137.871C114.268 138.081 114.47 138.344 114.62 138.659C114.771 138.972 114.847 139.312 114.85 139.682C114.847 140.153 114.72 140.574 114.467 140.943C114.217 141.31 113.869 141.598 113.423 141.808C112.98 142.016 112.467 142.119 111.884 142.119ZM111.884 141.182C112.279 141.182 112.62 141.118 112.907 140.99C113.194 140.862 113.416 140.682 113.572 140.449C113.728 140.216 113.808 139.943 113.811 139.631C113.808 139.301 113.722 139.01 113.555 138.757C113.387 138.504 113.159 138.305 112.869 138.161C112.582 138.016 112.254 137.943 111.884 137.943C111.512 137.943 111.18 138.016 110.887 138.161C110.597 138.305 110.369 138.504 110.201 138.757C110.036 139.01 109.955 139.301 109.958 139.631C109.955 139.943 110.031 140.216 110.184 140.449C110.34 140.682 110.563 140.862 110.853 140.99C111.143 141.118 111.487 141.182 111.884 141.182ZM111.884 137.04C112.197 137.04 112.474 136.977 112.715 136.852C112.96 136.727 113.151 136.553 113.291 136.328C113.43 136.104 113.501 135.841 113.504 135.54C113.501 135.244 113.431 134.987 113.295 134.768C113.159 134.547 112.97 134.376 112.728 134.257C112.487 134.135 112.205 134.074 111.884 134.074C111.558 134.074 111.272 134.135 111.028 134.257C110.784 134.376 110.595 134.547 110.461 134.768C110.328 134.987 110.262 135.244 110.265 135.54C110.262 135.841 110.329 136.104 110.465 136.328C110.605 136.553 110.796 136.727 111.041 136.852C111.285 136.977 111.566 137.04 111.884 137.04Z" fill="#738287"/>
<path d="M129 150V126" stroke="#738287"/>
<line x1="124" y1="126.5" x2="143" y2="126.5" stroke="#738287"/>
<line x1="124" y1="149.5" x2="143" y2="149.5" stroke="#738287"/>
<path d="M179.392 201.273V210H178.335V202.381H178.284L176.153 203.795V202.722L178.335 201.273H179.392ZM184.799 210.119C184.441 210.114 184.083 210.045 183.725 209.915C183.367 209.784 183.041 209.564 182.745 209.254C182.45 208.942 182.213 208.52 182.034 207.989C181.855 207.455 181.765 206.784 181.765 205.977C181.765 205.205 181.838 204.52 181.982 203.923C182.127 203.324 182.338 202.82 182.613 202.411C182.889 201.999 183.221 201.686 183.61 201.473C184.002 201.26 184.444 201.153 184.936 201.153C185.424 201.153 185.859 201.251 186.24 201.447C186.623 201.641 186.936 201.911 187.177 202.257C187.419 202.604 187.575 203.003 187.646 203.455H186.606C186.509 203.062 186.322 202.737 186.044 202.479C185.765 202.22 185.396 202.091 184.936 202.091C184.259 202.091 183.727 202.385 183.338 202.973C182.951 203.561 182.757 204.386 182.754 205.449H182.822C182.981 205.207 183.17 205.001 183.389 204.831C183.61 204.658 183.855 204.524 184.122 204.43C184.389 204.337 184.671 204.29 184.97 204.29C185.47 204.29 185.927 204.415 186.342 204.665C186.757 204.912 187.089 205.254 187.339 205.692C187.589 206.126 187.714 206.625 187.714 207.188C187.714 207.727 187.593 208.222 187.352 208.67C187.11 209.116 186.771 209.472 186.333 209.736C185.899 209.997 185.387 210.125 184.799 210.119ZM184.799 209.182C185.157 209.182 185.478 209.092 185.762 208.913C186.049 208.734 186.275 208.494 186.44 208.193C186.607 207.892 186.691 207.557 186.691 207.188C186.691 206.827 186.61 206.499 186.448 206.203C186.289 205.905 186.069 205.668 185.788 205.491C185.509 205.315 185.191 205.227 184.833 205.227C184.563 205.227 184.312 205.281 184.079 205.389C183.846 205.494 183.642 205.639 183.465 205.824C183.292 206.009 183.156 206.22 183.056 206.459C182.957 206.695 182.907 206.943 182.907 207.205C182.907 207.551 182.988 207.875 183.15 208.176C183.315 208.477 183.539 208.72 183.823 208.905C184.11 209.089 184.436 209.182 184.799 209.182ZM190.497 208.807L190.428 209.267C190.38 209.591 190.306 209.938 190.207 210.307C190.11 210.676 190.009 211.024 189.904 211.351C189.799 211.678 189.713 211.938 189.644 212.131H188.877C188.914 211.949 188.963 211.709 189.022 211.411C189.082 211.112 189.142 210.778 189.201 210.409C189.264 210.043 189.315 209.668 189.355 209.284L189.406 208.807H190.497ZM195.718 210V209.233L198.599 206.08C198.937 205.71 199.215 205.389 199.434 205.116C199.653 204.841 199.814 204.582 199.92 204.341C200.028 204.097 200.081 203.841 200.081 203.574C200.081 203.267 200.008 203.001 199.86 202.777C199.715 202.553 199.516 202.379 199.263 202.257C199.01 202.135 198.726 202.074 198.411 202.074C198.076 202.074 197.783 202.143 197.533 202.283C197.286 202.419 197.094 202.611 196.958 202.858C196.824 203.105 196.758 203.395 196.758 203.727H195.752C195.752 203.216 195.87 202.767 196.106 202.381C196.341 201.994 196.662 201.693 197.069 201.477C197.478 201.261 197.937 201.153 198.445 201.153C198.956 201.153 199.41 201.261 199.805 201.477C200.199 201.693 200.509 201.984 200.733 202.351C200.958 202.717 201.07 203.125 201.07 203.574C201.07 203.895 201.012 204.209 200.895 204.516C200.782 204.82 200.583 205.159 200.299 205.534C200.018 205.906 199.627 206.361 199.127 206.898L197.167 208.994V209.062H201.224V210H195.718ZM202.591 208.21V207.341L206.427 201.273H207.057V202.619H206.631L203.733 207.205V207.273H208.898V208.21H202.591ZM206.699 210V207.946V207.541V201.273H207.705V210H206.699ZM211.602 208.807L211.534 209.267C211.486 209.591 211.412 209.938 211.312 210.307C211.216 210.676 211.115 211.024 211.01 211.351C210.905 211.678 210.818 211.938 210.75 212.131H209.983C210.02 211.949 210.068 211.709 210.128 211.411C210.187 211.112 210.247 210.778 210.307 210.409C210.369 210.043 210.42 209.668 210.46 209.284L210.511 208.807H211.602ZM216.823 210V209.233L219.704 206.08C220.042 205.71 220.32 205.389 220.539 205.116C220.758 204.841 220.92 204.582 221.025 204.341C221.133 204.097 221.187 203.841 221.187 203.574C221.187 203.267 221.113 203.001 220.965 202.777C220.82 202.553 220.622 202.379 220.369 202.257C220.116 202.135 219.832 202.074 219.517 202.074C219.181 202.074 218.889 202.143 218.639 202.283C218.392 202.419 218.2 202.611 218.063 202.858C217.93 203.105 217.863 203.395 217.863 203.727H216.857C216.857 203.216 216.975 202.767 217.211 202.381C217.447 201.994 217.768 201.693 218.174 201.477C218.583 201.261 219.042 201.153 219.551 201.153C220.062 201.153 220.515 201.261 220.91 201.477C221.305 201.693 221.615 201.984 221.839 202.351C222.063 202.717 222.176 203.125 222.176 203.574C222.176 203.895 222.117 204.209 222.001 204.516C221.887 204.82 221.688 205.159 221.404 205.534C221.123 205.906 220.732 206.361 220.232 206.898L218.272 208.994V209.062H222.329V210H216.823ZM226.884 210.119C226.299 210.119 225.782 210.016 225.333 209.808C224.887 209.598 224.539 209.31 224.289 208.943C224.039 208.574 223.916 208.153 223.919 207.682C223.916 207.312 223.988 206.972 224.136 206.659C224.284 206.344 224.485 206.081 224.741 205.871C224.999 205.658 225.288 205.523 225.606 205.466V205.415C225.188 205.307 224.856 205.072 224.609 204.712C224.362 204.348 224.24 203.935 224.242 203.472C224.24 203.028 224.352 202.632 224.579 202.283C224.806 201.933 225.119 201.658 225.517 201.456C225.917 201.254 226.373 201.153 226.884 201.153C227.39 201.153 227.842 201.254 228.24 201.456C228.637 201.658 228.95 201.933 229.177 202.283C229.407 202.632 229.524 203.028 229.526 203.472C229.524 203.935 229.397 204.348 229.147 204.712C228.9 205.072 228.572 205.307 228.163 205.415V205.466C228.478 205.523 228.762 205.658 229.015 205.871C229.268 206.081 229.47 206.344 229.62 206.659C229.771 206.972 229.847 207.312 229.85 207.682C229.847 208.153 229.72 208.574 229.467 208.943C229.217 209.31 228.869 209.598 228.423 209.808C227.98 210.016 227.467 210.119 226.884 210.119ZM226.884 209.182C227.279 209.182 227.62 209.118 227.907 208.99C228.194 208.862 228.416 208.682 228.572 208.449C228.728 208.216 228.808 207.943 228.811 207.631C228.808 207.301 228.722 207.01 228.555 206.757C228.387 206.504 228.159 206.305 227.869 206.161C227.582 206.016 227.254 205.943 226.884 205.943C226.512 205.943 226.18 206.016 225.887 206.161C225.597 206.305 225.369 206.504 225.201 206.757C225.036 207.01 224.955 207.301 224.958 207.631C224.955 207.943 225.031 208.216 225.184 208.449C225.34 208.682 225.563 208.862 225.853 208.99C226.143 209.118 226.487 209.182 226.884 209.182ZM226.884 205.04C227.197 205.04 227.474 204.977 227.715 204.852C227.96 204.727 228.151 204.553 228.291 204.328C228.43 204.104 228.501 203.841 228.504 203.54C228.501 203.244 228.431 202.987 228.295 202.768C228.159 202.547 227.97 202.376 227.728 202.257C227.487 202.135 227.205 202.074 226.884 202.074C226.558 202.074 226.272 202.135 226.028 202.257C225.784 202.376 225.595 202.547 225.461 202.768C225.328 202.987 225.262 203.244 225.265 203.54C225.262 203.841 225.329 204.104 225.465 204.328C225.605 204.553 225.796 204.727 226.041 204.852C226.285 204.977 226.566 205.04 226.884 205.04Z" fill="#738287"/>
<path d="M215 192L191 192" stroke="#738287"/>
<line x1="191.5" y1="197" x2="191.5" y2="178" stroke="#738287"/>
<line x1="214.5" y1="197" x2="214.5" y2="178" stroke="#738287"/>
<rect x="151" y="106" width="251" height="64" fill="#058C50"/>
<path d="M203.001 129.818C204.216 128.751 205.799 128.198 207.414 128.277C209.03 128.356 210.551 129.06 211.657 130.24C212.762 131.421 213.365 132.985 213.338 134.602C213.311 136.219 212.656 137.762 211.511 138.905L206.287 144.13L203 147.415L195.72 140.136L194.49 138.904C193.349 137.761 192.697 136.219 192.671 134.603C192.646 132.988 193.249 131.426 194.353 130.247C195.457 129.068 196.976 128.364 198.59 128.284C200.203 128.204 201.785 128.754 203 129.818H203.001ZM206.286 141.303L210.097 137.491C210.49 137.098 210.801 136.632 211.014 136.119C211.226 135.606 211.336 135.056 211.336 134.501C211.336 133.946 211.226 133.396 211.014 132.883C210.801 132.37 210.49 131.904 210.097 131.511C209.704 131.118 209.238 130.807 208.725 130.594C208.212 130.382 207.662 130.273 207.107 130.273C206.552 130.273 206.002 130.382 205.489 130.594C204.976 130.807 204.51 131.118 204.117 131.511L203 132.627L201.883 131.51C201.09 130.717 200.015 130.272 198.893 130.272C197.772 130.272 196.696 130.717 195.903 131.51C195.11 132.303 194.665 133.379 194.665 134.5C194.665 135.622 195.11 136.697 195.903 137.49L197.135 138.722L203 144.587L206.285 141.302L206.286 141.303Z" fill="white"/>
<path d="M228.705 130.455H230.879V141.136H231.014L238.414 130.455H240.445V145H238.251V134.332H238.116L230.73 145H228.705V130.455ZM243.476 145V134.091H245.6V138.665H246.623L250.224 134.091H252.851L248.626 139.396L252.901 145H250.266L246.978 140.639H245.6V145H243.476ZM258.697 145.22C257.674 145.22 256.781 144.986 256.019 144.517C255.257 144.048 254.665 143.393 254.243 142.55C253.822 141.707 253.611 140.722 253.611 139.595C253.611 138.464 253.822 137.474 254.243 136.626C254.665 135.779 255.257 135.121 256.019 134.652C256.781 134.183 257.674 133.949 258.697 133.949C259.719 133.949 260.612 134.183 261.374 134.652C262.136 135.121 262.728 135.779 263.15 136.626C263.571 137.474 263.782 138.464 263.782 139.595C263.782 140.722 263.571 141.707 263.15 142.55C262.728 143.393 262.136 144.048 261.374 144.517C260.612 144.986 259.719 145.22 258.697 145.22ZM258.704 143.438C259.367 143.438 259.916 143.262 260.351 142.912C260.787 142.562 261.109 142.095 261.317 141.513C261.53 140.93 261.637 140.289 261.637 139.588C261.637 138.892 261.53 138.253 261.317 137.67C261.109 137.083 260.787 136.612 260.351 136.257C259.916 135.902 259.367 135.724 258.704 135.724C258.036 135.724 257.482 135.902 257.042 136.257C256.606 136.612 256.282 137.083 256.069 137.67C255.86 138.253 255.756 138.892 255.756 139.588C255.756 140.289 255.86 140.93 256.069 141.513C256.282 142.095 256.606 142.562 257.042 142.912C257.482 143.262 258.036 143.438 258.704 143.438ZM273.546 138.629V140.469H267.637V138.629H273.546ZM268.233 134.091V145H266.152V134.091H268.233ZM275.03 134.091V145H272.956V134.091H275.03ZM277.871 145V134.091H279.994V138.665H281.017L284.618 134.091H287.246L283.02 139.396L287.296 145H284.661L281.372 140.639H279.994V145H277.871ZM292.12 145.241C291.429 145.241 290.804 145.114 290.245 144.858C289.686 144.598 289.243 144.221 288.917 143.729C288.595 143.236 288.434 142.633 288.434 141.918C288.434 141.302 288.552 140.795 288.789 140.398C289.026 140 289.345 139.685 289.748 139.453C290.15 139.221 290.6 139.046 291.097 138.928C291.594 138.809 292.101 138.719 292.617 138.658C293.27 138.582 293.801 138.52 294.208 138.473C294.615 138.421 294.911 138.338 295.096 138.224C295.28 138.111 295.373 137.926 295.373 137.67V137.621C295.373 137 295.198 136.52 294.847 136.179C294.501 135.838 293.985 135.668 293.299 135.668C292.584 135.668 292.02 135.826 291.608 136.143C291.201 136.456 290.92 136.804 290.763 137.188L288.768 136.733C289.004 136.07 289.35 135.535 289.805 135.128C290.264 134.716 290.792 134.418 291.388 134.233C291.985 134.044 292.612 133.949 293.27 133.949C293.706 133.949 294.168 134.001 294.655 134.105C295.148 134.205 295.607 134.389 296.033 134.659C296.464 134.929 296.817 135.315 297.091 135.817C297.366 136.314 297.503 136.96 297.503 137.756V145H295.43V143.509H295.344C295.207 143.783 295.001 144.053 294.726 144.318C294.452 144.583 294.099 144.804 293.668 144.979C293.237 145.154 292.721 145.241 292.12 145.241ZM292.581 143.537C293.169 143.537 293.671 143.421 294.087 143.189C294.509 142.957 294.828 142.654 295.046 142.28C295.269 141.901 295.38 141.496 295.38 141.065V139.659C295.304 139.735 295.157 139.806 294.939 139.872C294.726 139.934 294.483 139.988 294.208 140.036C293.933 140.078 293.666 140.118 293.405 140.156C293.145 140.189 292.927 140.218 292.752 140.241C292.34 140.294 291.964 140.381 291.623 140.504C291.287 140.627 291.017 140.805 290.813 141.037C290.614 141.264 290.515 141.567 290.515 141.946C290.515 142.472 290.709 142.869 291.097 143.139C291.485 143.404 291.98 143.537 292.581 143.537ZM310.22 145.22C309.164 145.22 308.255 144.981 307.493 144.503C306.735 144.02 306.153 143.355 305.746 142.507C305.338 141.66 305.135 140.689 305.135 139.595C305.135 138.487 305.343 137.509 305.76 136.662C306.176 135.81 306.764 135.144 307.521 134.666C308.279 134.188 309.171 133.949 310.199 133.949C311.027 133.949 311.766 134.103 312.415 134.411C313.063 134.714 313.586 135.14 313.984 135.689C314.387 136.238 314.626 136.88 314.702 137.614H312.635C312.521 137.102 312.261 136.662 311.854 136.293C311.451 135.923 310.911 135.739 310.234 135.739C309.642 135.739 309.124 135.895 308.679 136.207C308.238 136.515 307.895 136.955 307.649 137.528C307.403 138.097 307.28 138.769 307.28 139.545C307.28 140.341 307.4 141.027 307.642 141.605C307.883 142.183 308.224 142.63 308.665 142.947C309.11 143.265 309.633 143.423 310.234 143.423C310.637 143.423 311.001 143.35 311.328 143.203C311.659 143.052 311.936 142.836 312.159 142.557C312.386 142.277 312.545 141.941 312.635 141.548H314.702C314.626 142.254 314.396 142.884 314.013 143.438C313.629 143.991 313.115 144.427 312.471 144.744C311.832 145.062 311.082 145.22 310.22 145.22ZM316.113 145L316.106 143.161H316.497C316.8 143.161 317.053 143.097 317.257 142.969C317.465 142.836 317.635 142.614 317.768 142.301C317.901 141.989 318.002 141.558 318.073 141.009C318.144 140.455 318.196 139.759 318.23 138.92L318.421 134.091H326.035V145H323.954V135.923H320.389L320.218 139.631C320.176 140.53 320.083 141.316 319.941 141.989C319.804 142.661 319.603 143.222 319.338 143.672C319.072 144.117 318.731 144.451 318.315 144.673C317.898 144.891 317.392 145 316.795 145H316.113ZM333.569 145.22C332.494 145.22 331.568 144.991 330.792 144.531C330.02 144.067 329.423 143.416 329.002 142.578C328.585 141.735 328.377 140.748 328.377 139.616C328.377 138.499 328.585 137.514 329.002 136.662C329.423 135.81 330.01 135.144 330.763 134.666C331.521 134.188 332.406 133.949 333.42 133.949C334.035 133.949 334.632 134.051 335.209 134.254C335.787 134.458 336.305 134.777 336.765 135.213C337.224 135.649 337.586 136.214 337.851 136.911C338.117 137.602 338.249 138.442 338.249 139.432V140.185H329.577V138.594H336.168C336.168 138.035 336.055 137.54 335.827 137.109C335.6 136.674 335.28 136.33 334.868 136.08C334.461 135.829 333.983 135.703 333.434 135.703C332.837 135.703 332.316 135.85 331.871 136.143C331.431 136.432 331.09 136.811 330.849 137.28C330.612 137.744 330.493 138.248 330.493 138.793V140.036C330.493 140.765 330.621 141.385 330.877 141.896C331.137 142.408 331.5 142.798 331.964 143.068C332.428 143.333 332.97 143.466 333.59 143.466C333.992 143.466 334.359 143.409 334.691 143.295C335.022 143.177 335.309 143.002 335.55 142.77C335.792 142.538 335.976 142.251 336.104 141.911L338.114 142.273C337.953 142.865 337.664 143.383 337.248 143.828C336.836 144.268 336.317 144.612 335.692 144.858C335.072 145.099 334.364 145.22 333.569 145.22ZM340.605 145V134.091H345.129C346.36 134.091 347.336 134.354 348.056 134.879C348.775 135.4 349.135 136.108 349.135 137.003C349.135 137.642 348.932 138.149 348.524 138.523C348.117 138.897 347.577 139.148 346.905 139.276C347.393 139.332 347.84 139.479 348.247 139.716C348.655 139.948 348.981 140.26 349.227 140.653C349.478 141.046 349.604 141.515 349.604 142.06C349.604 142.637 349.455 143.149 349.156 143.594C348.858 144.034 348.425 144.38 347.857 144.631C347.293 144.877 346.614 145 345.818 145H340.605ZM342.601 143.224H345.818C346.344 143.224 346.756 143.099 347.054 142.848C347.352 142.597 347.502 142.256 347.502 141.825C347.502 141.319 347.352 140.921 347.054 140.632C346.756 140.339 346.344 140.192 345.818 140.192H342.601V143.224ZM342.601 138.636H345.151C345.548 138.636 345.889 138.58 346.173 138.466C346.462 138.352 346.682 138.191 346.834 137.983C346.99 137.77 347.068 137.519 347.068 137.23C347.068 136.809 346.896 136.48 346.55 136.243C346.204 136.006 345.731 135.888 345.129 135.888H342.601V138.636ZM355.108 145.241C354.417 145.241 353.792 145.114 353.233 144.858C352.674 144.598 352.232 144.221 351.905 143.729C351.583 143.236 351.422 142.633 351.422 141.918C351.422 141.302 351.54 140.795 351.777 140.398C352.014 140 352.334 139.685 352.736 139.453C353.138 139.221 353.588 139.046 354.085 138.928C354.583 138.809 355.089 138.719 355.605 138.658C356.259 138.582 356.789 138.52 357.196 138.473C357.603 138.421 357.899 138.338 358.084 138.224C358.269 138.111 358.361 137.926 358.361 137.67V137.621C358.361 137 358.186 136.52 357.835 136.179C357.49 135.838 356.974 135.668 356.287 135.668C355.572 135.668 355.009 135.826 354.597 136.143C354.19 136.456 353.908 136.804 353.752 137.188L351.756 136.733C351.993 136.07 352.338 135.535 352.793 135.128C353.252 134.716 353.78 134.418 354.377 134.233C354.973 134.044 355.601 133.949 356.259 133.949C356.694 133.949 357.156 134.001 357.644 134.105C358.136 134.205 358.595 134.389 359.021 134.659C359.452 134.929 359.805 135.315 360.08 135.817C360.354 136.314 360.492 136.96 360.492 137.756V145H358.418V143.509H358.333C358.195 143.783 357.989 144.053 357.715 144.318C357.44 144.583 357.087 144.804 356.656 144.979C356.226 145.154 355.709 145.241 355.108 145.241ZM355.57 143.537C356.157 143.537 356.659 143.421 357.075 143.189C357.497 142.957 357.816 142.654 358.034 142.28C358.257 141.901 358.368 141.496 358.368 141.065V139.659C358.292 139.735 358.146 139.806 357.928 139.872C357.715 139.934 357.471 139.988 357.196 140.036C356.922 140.078 356.654 140.118 356.394 140.156C356.133 140.189 355.915 140.218 355.74 140.241C355.328 140.294 354.952 140.381 354.611 140.504C354.275 140.627 354.005 140.805 353.801 141.037C353.602 141.264 353.503 141.567 353.503 141.946C353.503 142.472 353.697 142.869 354.085 143.139C354.474 143.404 354.968 143.537 355.57 143.537Z" fill="white"/>
</g>
<defs>
<clipPath id="clip0_1283_5409">
<rect width="552" height="276" fill="white"/>
</clipPath>
</defs>
</svg>
