<svg width="552" height="276" viewBox="0 0 552 276" fill="none" xmlns="http://www.w3.org/2000/svg">
<g clip-path="url(#clip0_1283_5585)">
<rect width="552" height="276" fill="#F2F6F9"/>
<rect y="-15" width="552" height="276" fill="#F2F6F9"/>
<path d="M335.55 65.2727V74H334.493V66.3807H334.442L332.311 67.7955V66.7216L334.493 65.2727H335.55ZM338.06 74V73.233L340.94 70.0795C341.278 69.7102 341.557 69.3892 341.776 69.1165C341.994 68.8409 342.156 68.5824 342.261 68.3409C342.369 68.0966 342.423 67.8409 342.423 67.5739C342.423 67.267 342.349 67.0014 342.202 66.777C342.057 66.5526 341.858 66.3793 341.605 66.2571C341.352 66.1349 341.068 66.0739 340.753 66.0739C340.418 66.0739 340.125 66.1435 339.875 66.2827C339.628 66.419 339.436 66.6108 339.3 66.858C339.166 67.1051 339.099 67.3949 339.099 67.7273H338.094C338.094 67.2159 338.212 66.767 338.447 66.3807C338.683 65.9943 339.004 65.6932 339.411 65.4773C339.82 65.2614 340.278 65.1534 340.787 65.1534C341.298 65.1534 341.751 65.2614 342.146 65.4773C342.541 65.6932 342.851 65.9844 343.075 66.3509C343.3 66.7173 343.412 67.125 343.412 67.5739C343.412 67.8949 343.354 68.2088 343.237 68.5156C343.124 68.8196 342.925 69.1591 342.641 69.5341C342.359 69.9062 341.969 70.3608 341.469 70.8977L339.509 72.9943V73.0625H343.565V74H338.06Z" fill="#738287"/>
<path d="M331 84L345 84" stroke="#738287"/>
<line x1="344.5" y1="79" x2="344.5" y2="98" stroke="#738287"/>
<line x1="331.5" y1="79" x2="331.5" y2="98" stroke="#738287"/>
<path d="M447.392 133.273V142H446.335V134.381H446.284L444.153 135.795V134.722L446.335 133.273H447.392ZM452.799 142.119C452.441 142.114 452.083 142.045 451.725 141.915C451.367 141.784 451.041 141.564 450.745 141.254C450.45 140.942 450.213 140.52 450.034 139.989C449.855 139.455 449.765 138.784 449.765 137.977C449.765 137.205 449.838 136.52 449.982 135.923C450.127 135.324 450.338 134.82 450.613 134.411C450.889 133.999 451.221 133.686 451.61 133.473C452.002 133.26 452.444 133.153 452.936 133.153C453.424 133.153 453.859 133.251 454.24 133.447C454.623 133.641 454.936 133.911 455.177 134.257C455.419 134.604 455.575 135.003 455.646 135.455H454.606C454.509 135.062 454.322 134.737 454.044 134.479C453.765 134.22 453.396 134.091 452.936 134.091C452.259 134.091 451.727 134.385 451.338 134.973C450.951 135.561 450.757 136.386 450.754 137.449H450.822C450.981 137.207 451.17 137.001 451.389 136.831C451.61 136.658 451.855 136.524 452.122 136.43C452.389 136.337 452.671 136.29 452.97 136.29C453.47 136.29 453.927 136.415 454.342 136.665C454.757 136.912 455.089 137.254 455.339 137.692C455.589 138.126 455.714 138.625 455.714 139.188C455.714 139.727 455.593 140.222 455.352 140.67C455.11 141.116 454.771 141.472 454.333 141.736C453.899 141.997 453.387 142.125 452.799 142.119ZM452.799 141.182C453.157 141.182 453.478 141.092 453.762 140.913C454.049 140.734 454.275 140.494 454.44 140.193C454.607 139.892 454.691 139.557 454.691 139.188C454.691 138.827 454.61 138.499 454.448 138.203C454.289 137.905 454.069 137.668 453.788 137.491C453.509 137.315 453.191 137.227 452.833 137.227C452.563 137.227 452.312 137.281 452.079 137.389C451.846 137.494 451.642 137.639 451.465 137.824C451.292 138.009 451.156 138.22 451.056 138.459C450.957 138.695 450.907 138.943 450.907 139.205C450.907 139.551 450.988 139.875 451.15 140.176C451.315 140.477 451.539 140.72 451.823 140.905C452.11 141.089 452.436 141.182 452.799 141.182ZM458.497 140.807L458.428 141.267C458.38 141.591 458.306 141.938 458.207 142.307C458.11 142.676 458.009 143.024 457.904 143.351C457.799 143.678 457.713 143.938 457.644 144.131H456.877C456.914 143.949 456.963 143.709 457.022 143.411C457.082 143.112 457.142 142.778 457.201 142.409C457.264 142.043 457.315 141.668 457.355 141.284L457.406 140.807H458.497ZM463.718 142V141.233L466.599 138.08C466.937 137.71 467.215 137.389 467.434 137.116C467.653 136.841 467.814 136.582 467.92 136.341C468.028 136.097 468.081 135.841 468.081 135.574C468.081 135.267 468.008 135.001 467.86 134.777C467.715 134.553 467.516 134.379 467.263 134.257C467.01 134.135 466.726 134.074 466.411 134.074C466.076 134.074 465.783 134.143 465.533 134.283C465.286 134.419 465.094 134.611 464.958 134.858C464.824 135.105 464.758 135.395 464.758 135.727H463.752C463.752 135.216 463.87 134.767 464.106 134.381C464.341 133.994 464.662 133.693 465.069 133.477C465.478 133.261 465.937 133.153 466.445 133.153C466.956 133.153 467.41 133.261 467.805 133.477C468.199 133.693 468.509 133.984 468.733 134.351C468.958 134.717 469.07 135.125 469.07 135.574C469.07 135.895 469.012 136.209 468.895 136.516C468.782 136.82 468.583 137.159 468.299 137.534C468.018 137.906 467.627 138.361 467.127 138.898L465.167 140.994V141.062H469.224V142H463.718ZM470.591 140.21V139.341L474.427 133.273H475.057V134.619H474.631L471.733 139.205V139.273H476.898V140.21H470.591ZM474.699 142V139.946V139.541V133.273H475.705V142H474.699ZM479.602 140.807L479.534 141.267C479.486 141.591 479.412 141.938 479.312 142.307C479.216 142.676 479.115 143.024 479.01 143.351C478.905 143.678 478.818 143.938 478.75 144.131H477.983C478.02 143.949 478.068 143.709 478.128 143.411C478.187 143.112 478.247 142.778 478.307 142.409C478.369 142.043 478.42 141.668 478.46 141.284L478.511 140.807H479.602ZM484.823 142V141.233L487.704 138.08C488.042 137.71 488.32 137.389 488.539 137.116C488.758 136.841 488.92 136.582 489.025 136.341C489.133 136.097 489.187 135.841 489.187 135.574C489.187 135.267 489.113 135.001 488.965 134.777C488.82 134.553 488.622 134.379 488.369 134.257C488.116 134.135 487.832 134.074 487.517 134.074C487.181 134.074 486.889 134.143 486.639 134.283C486.392 134.419 486.2 134.611 486.063 134.858C485.93 135.105 485.863 135.395 485.863 135.727H484.857C484.857 135.216 484.975 134.767 485.211 134.381C485.447 133.994 485.768 133.693 486.174 133.477C486.583 133.261 487.042 133.153 487.551 133.153C488.062 133.153 488.515 133.261 488.91 133.477C489.305 133.693 489.615 133.984 489.839 134.351C490.063 134.717 490.176 135.125 490.176 135.574C490.176 135.895 490.117 136.209 490.001 136.516C489.887 136.82 489.688 137.159 489.404 137.534C489.123 137.906 488.732 138.361 488.232 138.898L486.272 140.994V141.062H490.329V142H484.823ZM494.884 142.119C494.299 142.119 493.782 142.016 493.333 141.808C492.887 141.598 492.539 141.31 492.289 140.943C492.039 140.574 491.916 140.153 491.919 139.682C491.916 139.312 491.988 138.972 492.136 138.659C492.284 138.344 492.485 138.081 492.741 137.871C492.999 137.658 493.288 137.523 493.606 137.466V137.415C493.188 137.307 492.856 137.072 492.609 136.712C492.362 136.348 492.24 135.935 492.242 135.472C492.24 135.028 492.352 134.632 492.579 134.283C492.806 133.933 493.119 133.658 493.517 133.456C493.917 133.254 494.373 133.153 494.884 133.153C495.39 133.153 495.842 133.254 496.24 133.456C496.637 133.658 496.95 133.933 497.177 134.283C497.407 134.632 497.524 135.028 497.526 135.472C497.524 135.935 497.397 136.348 497.147 136.712C496.9 137.072 496.572 137.307 496.163 137.415V137.466C496.478 137.523 496.762 137.658 497.015 137.871C497.268 138.081 497.47 138.344 497.62 138.659C497.771 138.972 497.847 139.312 497.85 139.682C497.847 140.153 497.72 140.574 497.467 140.943C497.217 141.31 496.869 141.598 496.423 141.808C495.98 142.016 495.467 142.119 494.884 142.119ZM494.884 141.182C495.279 141.182 495.62 141.118 495.907 140.99C496.194 140.862 496.416 140.682 496.572 140.449C496.728 140.216 496.808 139.943 496.811 139.631C496.808 139.301 496.722 139.01 496.555 138.757C496.387 138.504 496.159 138.305 495.869 138.161C495.582 138.016 495.254 137.943 494.884 137.943C494.512 137.943 494.18 138.016 493.887 138.161C493.597 138.305 493.369 138.504 493.201 138.757C493.036 139.01 492.955 139.301 492.958 139.631C492.955 139.943 493.031 140.216 493.184 140.449C493.34 140.682 493.563 140.862 493.853 140.99C494.143 141.118 494.487 141.182 494.884 141.182ZM494.884 137.04C495.197 137.04 495.474 136.977 495.715 136.852C495.96 136.727 496.151 136.553 496.291 136.328C496.43 136.104 496.501 135.841 496.504 135.54C496.501 135.244 496.431 134.987 496.295 134.768C496.159 134.547 495.97 134.376 495.728 134.257C495.487 134.135 495.205 134.074 494.884 134.074C494.558 134.074 494.272 134.135 494.028 134.257C493.784 134.376 493.595 134.547 493.461 134.768C493.328 134.987 493.262 135.244 493.265 135.54C493.262 135.841 493.329 136.104 493.465 136.328C493.605 136.553 493.796 136.727 494.041 136.852C494.285 136.977 494.566 137.04 494.884 137.04Z" fill="#738287"/>
<path d="M430 126L430 150" stroke="#738287"/>
<line x1="435" y1="149.5" x2="416" y2="149.5" stroke="#738287"/>
<line x1="435" y1="126.5" x2="416" y2="126.5" stroke="#738287"/>
<path d="M332.392 201.273V210H331.335V202.381H331.284L329.153 203.795V202.722L331.335 201.273H332.392ZM337.799 210.119C337.441 210.114 337.083 210.045 336.725 209.915C336.367 209.784 336.041 209.564 335.745 209.254C335.45 208.942 335.213 208.52 335.034 207.989C334.855 207.455 334.765 206.784 334.765 205.977C334.765 205.205 334.838 204.52 334.982 203.923C335.127 203.324 335.338 202.82 335.613 202.411C335.889 201.999 336.221 201.686 336.61 201.473C337.002 201.26 337.444 201.153 337.936 201.153C338.424 201.153 338.859 201.251 339.24 201.447C339.623 201.641 339.936 201.911 340.177 202.257C340.419 202.604 340.575 203.003 340.646 203.455H339.606C339.509 203.062 339.322 202.737 339.044 202.479C338.765 202.22 338.396 202.091 337.936 202.091C337.259 202.091 336.727 202.385 336.338 202.973C335.951 203.561 335.757 204.386 335.754 205.449H335.822C335.981 205.207 336.17 205.001 336.389 204.831C336.61 204.658 336.855 204.524 337.122 204.43C337.389 204.337 337.671 204.29 337.97 204.29C338.47 204.29 338.927 204.415 339.342 204.665C339.757 204.912 340.089 205.254 340.339 205.692C340.589 206.126 340.714 206.625 340.714 207.188C340.714 207.727 340.593 208.222 340.352 208.67C340.11 209.116 339.771 209.472 339.333 209.736C338.899 209.997 338.387 210.125 337.799 210.119ZM337.799 209.182C338.157 209.182 338.478 209.092 338.762 208.913C339.049 208.734 339.275 208.494 339.44 208.193C339.607 207.892 339.691 207.557 339.691 207.188C339.691 206.827 339.61 206.499 339.448 206.203C339.289 205.905 339.069 205.668 338.788 205.491C338.509 205.315 338.191 205.227 337.833 205.227C337.563 205.227 337.312 205.281 337.079 205.389C336.846 205.494 336.642 205.639 336.465 205.824C336.292 206.009 336.156 206.22 336.056 206.459C335.957 206.695 335.907 206.943 335.907 207.205C335.907 207.551 335.988 207.875 336.15 208.176C336.315 208.477 336.539 208.72 336.823 208.905C337.11 209.089 337.436 209.182 337.799 209.182ZM343.497 208.807L343.428 209.267C343.38 209.591 343.306 209.938 343.207 210.307C343.11 210.676 343.009 211.024 342.904 211.351C342.799 211.678 342.713 211.938 342.644 212.131H341.877C341.914 211.949 341.963 211.709 342.022 211.411C342.082 211.112 342.142 210.778 342.201 210.409C342.264 210.043 342.315 209.668 342.355 209.284L342.406 208.807H343.497ZM348.718 210V209.233L351.599 206.08C351.937 205.71 352.215 205.389 352.434 205.116C352.653 204.841 352.814 204.582 352.92 204.341C353.028 204.097 353.081 203.841 353.081 203.574C353.081 203.267 353.008 203.001 352.86 202.777C352.715 202.553 352.516 202.379 352.263 202.257C352.01 202.135 351.726 202.074 351.411 202.074C351.076 202.074 350.783 202.143 350.533 202.283C350.286 202.419 350.094 202.611 349.958 202.858C349.824 203.105 349.758 203.395 349.758 203.727H348.752C348.752 203.216 348.87 202.767 349.106 202.381C349.341 201.994 349.662 201.693 350.069 201.477C350.478 201.261 350.937 201.153 351.445 201.153C351.956 201.153 352.41 201.261 352.805 201.477C353.199 201.693 353.509 201.984 353.733 202.351C353.958 202.717 354.07 203.125 354.07 203.574C354.07 203.895 354.012 204.209 353.895 204.516C353.782 204.82 353.583 205.159 353.299 205.534C353.018 205.906 352.627 206.361 352.127 206.898L350.167 208.994V209.062H354.224V210H348.718ZM355.591 208.21V207.341L359.427 201.273H360.057V202.619H359.631L356.733 207.205V207.273H361.898V208.21H355.591ZM359.699 210V207.946V207.541V201.273H360.705V210H359.699ZM364.602 208.807L364.534 209.267C364.486 209.591 364.412 209.938 364.312 210.307C364.216 210.676 364.115 211.024 364.01 211.351C363.905 211.678 363.818 211.938 363.75 212.131H362.983C363.02 211.949 363.068 211.709 363.128 211.411C363.187 211.112 363.247 210.778 363.307 210.409C363.369 210.043 363.42 209.668 363.46 209.284L363.511 208.807H364.602ZM369.823 210V209.233L372.704 206.08C373.042 205.71 373.32 205.389 373.539 205.116C373.758 204.841 373.92 204.582 374.025 204.341C374.133 204.097 374.187 203.841 374.187 203.574C374.187 203.267 374.113 203.001 373.965 202.777C373.82 202.553 373.622 202.379 373.369 202.257C373.116 202.135 372.832 202.074 372.517 202.074C372.181 202.074 371.889 202.143 371.639 202.283C371.392 202.419 371.2 202.611 371.063 202.858C370.93 203.105 370.863 203.395 370.863 203.727H369.857C369.857 203.216 369.975 202.767 370.211 202.381C370.447 201.994 370.768 201.693 371.174 201.477C371.583 201.261 372.042 201.153 372.551 201.153C373.062 201.153 373.515 201.261 373.91 201.477C374.305 201.693 374.615 201.984 374.839 202.351C375.063 202.717 375.176 203.125 375.176 203.574C375.176 203.895 375.117 204.209 375.001 204.516C374.887 204.82 374.688 205.159 374.404 205.534C374.123 205.906 373.732 206.361 373.232 206.898L371.272 208.994V209.062H375.329V210H369.823ZM379.884 210.119C379.299 210.119 378.782 210.016 378.333 209.808C377.887 209.598 377.539 209.31 377.289 208.943C377.039 208.574 376.916 208.153 376.919 207.682C376.916 207.312 376.988 206.972 377.136 206.659C377.284 206.344 377.485 206.081 377.741 205.871C377.999 205.658 378.288 205.523 378.606 205.466V205.415C378.188 205.307 377.856 205.072 377.609 204.712C377.362 204.348 377.24 203.935 377.242 203.472C377.24 203.028 377.352 202.632 377.579 202.283C377.806 201.933 378.119 201.658 378.517 201.456C378.917 201.254 379.373 201.153 379.884 201.153C380.39 201.153 380.842 201.254 381.24 201.456C381.637 201.658 381.95 201.933 382.177 202.283C382.407 202.632 382.524 203.028 382.526 203.472C382.524 203.935 382.397 204.348 382.147 204.712C381.9 205.072 381.572 205.307 381.163 205.415V205.466C381.478 205.523 381.762 205.658 382.015 205.871C382.268 206.081 382.47 206.344 382.62 206.659C382.771 206.972 382.847 207.312 382.85 207.682C382.847 208.153 382.72 208.574 382.467 208.943C382.217 209.31 381.869 209.598 381.423 209.808C380.98 210.016 380.467 210.119 379.884 210.119ZM379.884 209.182C380.279 209.182 380.62 209.118 380.907 208.99C381.194 208.862 381.416 208.682 381.572 208.449C381.728 208.216 381.808 207.943 381.811 207.631C381.808 207.301 381.722 207.01 381.555 206.757C381.387 206.504 381.159 206.305 380.869 206.161C380.582 206.016 380.254 205.943 379.884 205.943C379.512 205.943 379.18 206.016 378.887 206.161C378.597 206.305 378.369 206.504 378.201 206.757C378.036 207.01 377.955 207.301 377.958 207.631C377.955 207.943 378.031 208.216 378.184 208.449C378.34 208.682 378.563 208.862 378.853 208.99C379.143 209.118 379.487 209.182 379.884 209.182ZM379.884 205.04C380.197 205.04 380.474 204.977 380.715 204.852C380.96 204.727 381.151 204.553 381.291 204.328C381.43 204.104 381.501 203.841 381.504 203.54C381.501 203.244 381.431 202.987 381.295 202.768C381.159 202.547 380.97 202.376 380.728 202.257C380.487 202.135 380.205 202.074 379.884 202.074C379.558 202.074 379.272 202.135 379.028 202.257C378.784 202.376 378.595 202.547 378.461 202.768C378.328 202.987 378.262 203.244 378.265 203.54C378.262 203.841 378.329 204.104 378.465 204.328C378.605 204.553 378.796 204.727 379.041 204.852C379.285 204.977 379.566 205.04 379.884 205.04Z" fill="#738287"/>
<path d="M368 192L344 192" stroke="#738287"/>
<line x1="344.5" y1="197" x2="344.5" y2="178" stroke="#738287"/>
<line x1="367.5" y1="197" x2="367.5" y2="178" stroke="#738287"/>
<rect x="145" y="106" width="263" height="64" fill="#058C50"/>
<path d="M186.787 130.455H188.961V141.136H189.096L196.496 130.455H198.528V145H196.333V134.332H196.198L188.812 145H186.787V130.455ZM201.558 145V134.091H203.682V138.665H204.705L208.306 134.091H210.933L206.708 139.396L210.983 145H208.348L205.06 140.639H203.682V145H201.558ZM216.779 145.22C215.756 145.22 214.863 144.986 214.101 144.517C213.339 144.048 212.747 143.393 212.325 142.55C211.904 141.707 211.693 140.722 211.693 139.595C211.693 138.464 211.904 137.474 212.325 136.626C212.747 135.779 213.339 135.121 214.101 134.652C214.863 134.183 215.756 133.949 216.779 133.949C217.801 133.949 218.694 134.183 219.456 134.652C220.218 135.121 220.81 135.779 221.232 136.626C221.653 137.474 221.864 138.464 221.864 139.595C221.864 140.722 221.653 141.707 221.232 142.55C220.81 143.393 220.218 144.048 219.456 144.517C218.694 144.986 217.801 145.22 216.779 145.22ZM216.786 143.438C217.449 143.438 217.998 143.262 218.433 142.912C218.869 142.562 219.191 142.095 219.399 141.513C219.612 140.93 219.719 140.289 219.719 139.588C219.719 138.892 219.612 138.253 219.399 137.67C219.191 137.083 218.869 136.612 218.433 136.257C217.998 135.902 217.449 135.724 216.786 135.724C216.118 135.724 215.564 135.902 215.124 136.257C214.688 136.612 214.364 137.083 214.151 137.67C213.942 138.253 213.838 138.892 213.838 139.588C213.838 140.289 213.942 140.93 214.151 141.513C214.364 142.095 214.688 142.562 215.124 142.912C215.564 143.262 216.118 143.438 216.786 143.438ZM231.628 138.629V140.469H225.719V138.629H231.628ZM226.315 134.091V145H224.234V134.091H226.315ZM233.112 134.091V145H231.038V134.091H233.112ZM235.953 145V134.091H238.077V138.665H239.099L242.7 134.091H245.328L241.102 139.396L245.378 145H242.743L239.454 140.639H238.077V145H235.953ZM250.202 145.241C249.511 145.241 248.886 145.114 248.327 144.858C247.768 144.598 247.325 144.221 246.999 143.729C246.677 143.236 246.516 142.633 246.516 141.918C246.516 141.302 246.634 140.795 246.871 140.398C247.108 140 247.427 139.685 247.83 139.453C248.232 139.221 248.682 139.046 249.179 138.928C249.676 138.809 250.183 138.719 250.699 138.658C251.352 138.582 251.883 138.52 252.29 138.473C252.697 138.421 252.993 138.338 253.178 138.224C253.362 138.111 253.455 137.926 253.455 137.67V137.621C253.455 137 253.28 136.52 252.929 136.179C252.584 135.838 252.067 135.668 251.381 135.668C250.666 135.668 250.102 135.826 249.691 136.143C249.283 136.456 249.002 136.804 248.845 137.188L246.85 136.733C247.086 136.07 247.432 135.535 247.887 135.128C248.346 134.716 248.874 134.418 249.47 134.233C250.067 134.044 250.694 133.949 251.352 133.949C251.788 133.949 252.25 134.001 252.737 134.105C253.23 134.205 253.689 134.389 254.115 134.659C254.546 134.929 254.899 135.315 255.173 135.817C255.448 136.314 255.585 136.96 255.585 137.756V145H253.512V143.509H253.426C253.289 143.783 253.083 144.053 252.808 144.318C252.534 144.583 252.181 144.804 251.75 144.979C251.319 145.154 250.803 145.241 250.202 145.241ZM250.664 143.537C251.251 143.537 251.753 143.421 252.169 143.189C252.591 142.957 252.91 142.654 253.128 142.28C253.351 141.901 253.462 141.496 253.462 141.065V139.659C253.386 139.735 253.239 139.806 253.021 139.872C252.808 139.934 252.565 139.988 252.29 140.036C252.015 140.078 251.748 140.118 251.487 140.156C251.227 140.189 251.009 140.218 250.834 140.241C250.422 140.294 250.046 140.381 249.705 140.504C249.369 140.627 249.099 140.805 248.895 141.037C248.696 141.264 248.597 141.567 248.597 141.946C248.597 142.472 248.791 142.869 249.179 143.139C249.567 143.404 250.062 143.537 250.664 143.537ZM268.302 145.22C267.246 145.22 266.337 144.981 265.575 144.503C264.817 144.02 264.235 143.355 263.828 142.507C263.42 141.66 263.217 140.689 263.217 139.595C263.217 138.487 263.425 137.509 263.842 136.662C264.258 135.81 264.846 135.144 265.603 134.666C266.361 134.188 267.253 133.949 268.281 133.949C269.109 133.949 269.848 134.103 270.497 134.411C271.145 134.714 271.669 135.14 272.066 135.689C272.469 136.238 272.708 136.88 272.784 137.614H270.717C270.603 137.102 270.343 136.662 269.936 136.293C269.533 135.923 268.993 135.739 268.316 135.739C267.724 135.739 267.206 135.895 266.761 136.207C266.32 136.515 265.977 136.955 265.731 137.528C265.485 138.097 265.362 138.769 265.362 139.545C265.362 140.341 265.482 141.027 265.724 141.605C265.965 142.183 266.306 142.63 266.747 142.947C267.192 143.265 267.715 143.423 268.316 143.423C268.719 143.423 269.083 143.35 269.41 143.203C269.741 143.052 270.018 142.836 270.241 142.557C270.468 142.277 270.627 141.941 270.717 141.548H272.784C272.708 142.254 272.478 142.884 272.095 143.438C271.711 143.991 271.197 144.427 270.553 144.744C269.914 145.062 269.164 145.22 268.302 145.22ZM275.055 145V134.091H283.954V145H281.873V135.923H277.121V145H275.055ZM286.793 149.091V134.091H288.867V135.859H289.044C289.167 135.632 289.345 135.369 289.577 135.071C289.809 134.773 290.131 134.512 290.543 134.29C290.955 134.062 291.499 133.949 292.176 133.949C293.057 133.949 293.843 134.171 294.534 134.616C295.226 135.062 295.768 135.703 296.161 136.541C296.558 137.379 296.757 138.388 296.757 139.567C296.757 140.746 296.561 141.757 296.168 142.599C295.775 143.437 295.235 144.084 294.548 144.538C293.862 144.988 293.078 145.213 292.198 145.213C291.535 145.213 290.993 145.102 290.571 144.879C290.155 144.657 289.828 144.396 289.591 144.098C289.354 143.8 289.172 143.535 289.044 143.303H288.916V149.091H286.793ZM288.874 139.545C288.874 140.312 288.985 140.985 289.208 141.562C289.43 142.14 289.752 142.592 290.173 142.919C290.595 143.241 291.111 143.402 291.722 143.402C292.356 143.402 292.887 143.234 293.313 142.898C293.739 142.557 294.061 142.095 294.279 141.513C294.501 140.93 294.612 140.275 294.612 139.545C294.612 138.826 294.503 138.179 294.286 137.607C294.073 137.034 293.751 136.581 293.32 136.25C292.894 135.919 292.361 135.753 291.722 135.753C291.106 135.753 290.585 135.911 290.159 136.229C289.738 136.546 289.418 136.989 289.2 137.557C288.983 138.125 288.874 138.788 288.874 139.545ZM302.311 145.241C301.62 145.241 300.995 145.114 300.436 144.858C299.878 144.598 299.435 144.221 299.108 143.729C298.786 143.236 298.625 142.633 298.625 141.918C298.625 141.302 298.744 140.795 298.98 140.398C299.217 140 299.537 139.685 299.939 139.453C300.342 139.221 300.791 139.046 301.289 138.928C301.786 138.809 302.292 138.719 302.808 138.658C303.462 138.582 303.992 138.52 304.399 138.473C304.807 138.421 305.102 138.338 305.287 138.224C305.472 138.111 305.564 137.926 305.564 137.67V137.621C305.564 137 305.389 136.52 305.039 136.179C304.693 135.838 304.177 135.668 303.49 135.668C302.775 135.668 302.212 135.826 301.8 136.143C301.393 136.456 301.111 136.804 300.955 137.188L298.959 136.733C299.196 136.07 299.541 135.535 299.996 135.128C300.455 134.716 300.983 134.418 301.58 134.233C302.176 134.044 302.804 133.949 303.462 133.949C303.897 133.949 304.359 134.001 304.847 134.105C305.339 134.205 305.798 134.389 306.225 134.659C306.655 134.929 307.008 135.315 307.283 135.817C307.557 136.314 307.695 136.96 307.695 137.756V145H305.621V143.509H305.536C305.398 143.783 305.192 144.053 304.918 144.318C304.643 144.583 304.29 144.804 303.86 144.979C303.429 145.154 302.913 145.241 302.311 145.241ZM302.773 143.537C303.36 143.537 303.862 143.421 304.279 143.189C304.7 142.957 305.02 142.654 305.237 142.28C305.46 141.901 305.571 141.496 305.571 141.065V139.659C305.495 139.735 305.349 139.806 305.131 139.872C304.918 139.934 304.674 139.988 304.399 140.036C304.125 140.078 303.857 140.118 303.597 140.156C303.336 140.189 303.119 140.218 302.943 140.241C302.531 140.294 302.155 140.381 301.814 140.504C301.478 140.627 301.208 140.805 301.004 141.037C300.806 141.264 300.706 141.567 300.706 141.946C300.706 142.472 300.9 142.869 301.289 143.139C301.677 143.404 302.172 143.537 302.773 143.537ZM310.523 145V134.091H315.047C316.278 134.091 317.254 134.354 317.974 134.879C318.693 135.4 319.053 136.108 319.053 137.003C319.053 137.642 318.849 138.149 318.442 138.523C318.035 138.897 317.495 139.148 316.823 139.276C317.311 139.332 317.758 139.479 318.165 139.716C318.573 139.948 318.899 140.26 319.145 140.653C319.396 141.046 319.522 141.515 319.522 142.06C319.522 142.637 319.373 143.149 319.074 143.594C318.776 144.034 318.343 144.38 317.775 144.631C317.211 144.877 316.532 145 315.736 145H310.523ZM312.519 143.224H315.736C316.262 143.224 316.674 143.099 316.972 142.848C317.27 142.597 317.42 142.256 317.42 141.825C317.42 141.319 317.27 140.921 316.972 140.632C316.674 140.339 316.262 140.192 315.736 140.192H312.519V143.224ZM312.519 138.636H315.069C315.466 138.636 315.807 138.58 316.091 138.466C316.38 138.352 316.6 138.191 316.752 137.983C316.908 137.77 316.986 137.519 316.986 137.23C316.986 136.809 316.814 136.48 316.468 136.243C316.122 136.006 315.649 135.888 315.047 135.888H312.519V138.636ZM325.026 145.241C324.335 145.241 323.71 145.114 323.151 144.858C322.592 144.598 322.15 144.221 321.823 143.729C321.501 143.236 321.34 142.633 321.34 141.918C321.34 141.302 321.458 140.795 321.695 140.398C321.932 140 322.251 139.685 322.654 139.453C323.056 139.221 323.506 139.046 324.003 138.928C324.501 138.809 325.007 138.719 325.523 138.658C326.177 138.582 326.707 138.52 327.114 138.473C327.521 138.421 327.817 138.338 328.002 138.224C328.187 138.111 328.279 137.926 328.279 137.67V137.621C328.279 137 328.104 136.52 327.753 136.179C327.408 135.838 326.892 135.668 326.205 135.668C325.49 135.668 324.927 135.826 324.515 136.143C324.108 136.456 323.826 136.804 323.67 137.188L321.674 136.733C321.911 136.07 322.256 135.535 322.711 135.128C323.17 134.716 323.698 134.418 324.295 134.233C324.891 134.044 325.519 133.949 326.177 133.949C326.612 133.949 327.074 134.001 327.562 134.105C328.054 134.205 328.513 134.389 328.939 134.659C329.37 134.929 329.723 135.315 329.998 135.817C330.272 136.314 330.41 136.96 330.41 137.756V145H328.336V143.509H328.251C328.113 143.783 327.907 144.053 327.633 144.318C327.358 144.583 327.005 144.804 326.574 144.979C326.144 145.154 325.627 145.241 325.026 145.241ZM325.488 143.537C326.075 143.537 326.577 143.421 326.993 143.189C327.415 142.957 327.734 142.654 327.952 142.28C328.175 141.901 328.286 141.496 328.286 141.065V139.659C328.21 139.735 328.064 139.806 327.846 139.872C327.633 139.934 327.389 139.988 327.114 140.036C326.84 140.078 326.572 140.118 326.312 140.156C326.051 140.189 325.833 140.218 325.658 140.241C325.246 140.294 324.87 140.381 324.529 140.504C324.193 140.627 323.923 140.805 323.719 141.037C323.52 141.264 323.421 141.567 323.421 141.946C323.421 142.472 323.615 142.869 324.003 143.139C324.392 143.404 324.886 143.537 325.488 143.537Z" fill="white"/>
<path d="M344 127H348.764L351.764 138H362.279L365.367 128.735L367.265 129.368L363.72 140H351.78L351.28 142H366V144H348.72L349.966 139.011L347.236 129H344V127ZM358 128V131H361V133H358V136H356V133H353V131H356V128H358ZM348 147C348 146.47 348.211 145.961 348.586 145.586C348.961 145.211 349.47 145 350 145C350.53 145 351.039 145.211 351.414 145.586C351.789 145.961 352 146.47 352 147C352 147.53 351.789 148.039 351.414 148.414C351.039 148.789 350.53 149 350 149C349.47 149 348.961 148.789 348.586 148.414C348.211 148.039 348 147.53 348 147ZM362 147C362 146.47 362.211 145.961 362.586 145.586C362.961 145.211 363.47 145 364 145C364.53 145 365.039 145.211 365.414 145.586C365.789 145.961 366 146.47 366 147C366 147.53 365.789 148.039 365.414 148.414C365.039 148.789 364.53 149 364 149C363.47 149 362.961 148.789 362.586 148.414C362.211 148.039 362 147.53 362 147Z" fill="white"/>
</g>
<defs>
<clipPath id="clip0_1283_5585">
<rect width="552" height="276" fill="white"/>
</clipPath>
</defs>
</svg>
