<svg width="552" height="276" viewBox="0 0 552 276" fill="none" xmlns="http://www.w3.org/2000/svg">
<rect width="552" height="276" fill="#F2F6F9"/>
<path d="M144.152 66.2102V65.3409L147.987 59.2727H148.618V60.6193H148.192L145.294 65.2045V65.2727H150.459V66.2102H144.152ZM148.26 68V65.946V65.5412V59.2727H149.266V68H148.26ZM154.851 68.1193C154.266 68.1193 153.749 68.0156 153.3 67.8082C152.854 67.598 152.506 67.3097 152.256 66.9432C152.006 66.5739 151.882 66.1534 151.885 65.6818C151.882 65.3125 151.955 64.9716 152.103 64.6591C152.25 64.3437 152.452 64.081 152.708 63.8707C152.966 63.6577 153.255 63.5227 153.573 63.4659V63.4148C153.155 63.3068 152.823 63.0724 152.576 62.7116C152.328 62.348 152.206 61.9347 152.209 61.4716C152.206 61.0284 152.319 60.6321 152.546 60.2827C152.773 59.9332 153.086 59.6577 153.483 59.456C153.884 59.2543 154.34 59.1534 154.851 59.1534C155.357 59.1534 155.809 59.2543 156.206 59.456C156.604 59.6577 156.917 59.9332 157.144 60.2827C157.374 60.6321 157.49 61.0284 157.493 61.4716C157.49 61.9347 157.364 62.348 157.114 62.7116C156.867 63.0724 156.539 63.3068 156.13 63.4148V63.4659C156.445 63.5227 156.729 63.6577 156.982 63.8707C157.235 64.081 157.436 64.3437 157.587 64.6591C157.738 64.9716 157.814 65.3125 157.817 65.6818C157.814 66.1534 157.686 66.5739 157.434 66.9432C157.184 67.3097 156.836 67.598 156.39 67.8082C155.946 68.0156 155.434 68.1193 154.851 68.1193ZM154.851 67.1818C155.246 67.1818 155.587 67.1179 155.874 66.9901C156.161 66.8622 156.382 66.6818 156.539 66.4489C156.695 66.2159 156.775 65.9432 156.777 65.6307C156.775 65.3011 156.689 65.0099 156.522 64.7571C156.354 64.5043 156.125 64.3054 155.836 64.1605C155.549 64.0156 155.221 63.9432 154.851 63.9432C154.479 63.9432 154.147 64.0156 153.854 64.1605C153.564 64.3054 153.336 64.5043 153.168 64.7571C153.003 65.0099 152.922 65.3011 152.925 65.6307C152.922 65.9432 152.998 66.2159 153.151 66.4489C153.307 66.6818 153.53 66.8622 153.82 66.9901C154.11 67.1179 154.453 67.1818 154.851 67.1818ZM154.851 63.0398C155.164 63.0398 155.441 62.9773 155.682 62.8523C155.926 62.7273 156.118 62.5526 156.257 62.3281C156.397 62.1037 156.468 61.8409 156.471 61.5398C156.468 61.2443 156.398 60.9872 156.262 60.7685C156.125 60.5469 155.936 60.3764 155.695 60.2571C155.453 60.1349 155.172 60.0739 154.851 60.0739C154.525 60.0739 154.239 60.1349 153.995 60.2571C153.75 60.3764 153.561 60.5469 153.428 60.7685C153.294 60.9872 153.229 61.2443 153.232 61.5398C153.229 61.8409 153.296 62.1037 153.432 62.3281C153.571 62.5526 153.763 62.7273 154.007 62.8523C154.252 62.9773 154.533 63.0398 154.851 63.0398Z" fill="#738287"/>
<path d="M132 78L171 78" stroke="#738287"/>
<line x1="170.5" y1="73" x2="170.5" y2="92" stroke="#738287"/>
<line x1="131.5" y1="73" x2="131.5" y2="92" stroke="#738287"/>
<path d="M395.152 66.2102V65.3409L398.987 59.2727H399.618V60.6193H399.192L396.294 65.2045V65.2727H401.459V66.2102H395.152ZM399.26 68V65.946V65.5412V59.2727H400.266V68H399.26ZM405.851 68.1193C405.266 68.1193 404.749 68.0156 404.3 67.8082C403.854 67.598 403.506 67.3097 403.256 66.9432C403.006 66.5739 402.882 66.1534 402.885 65.6818C402.882 65.3125 402.955 64.9716 403.103 64.6591C403.25 64.3437 403.452 64.081 403.708 63.8707C403.966 63.6577 404.255 63.5227 404.573 63.4659V63.4148C404.155 63.3068 403.823 63.0724 403.576 62.7116C403.328 62.348 403.206 61.9347 403.209 61.4716C403.206 61.0284 403.319 60.6321 403.546 60.2827C403.773 59.9332 404.086 59.6577 404.483 59.456C404.884 59.2543 405.34 59.1534 405.851 59.1534C406.357 59.1534 406.809 59.2543 407.206 59.456C407.604 59.6577 407.917 59.9332 408.144 60.2827C408.374 60.6321 408.49 61.0284 408.493 61.4716C408.49 61.9347 408.364 62.348 408.114 62.7116C407.867 63.0724 407.539 63.3068 407.13 63.4148V63.4659C407.445 63.5227 407.729 63.6577 407.982 63.8707C408.235 64.081 408.436 64.3437 408.587 64.6591C408.738 64.9716 408.814 65.3125 408.817 65.6818C408.814 66.1534 408.686 66.5739 408.434 66.9432C408.184 67.3097 407.836 67.598 407.39 67.8082C406.946 68.0156 406.434 68.1193 405.851 68.1193ZM405.851 67.1818C406.246 67.1818 406.587 67.1179 406.874 66.9901C407.161 66.8622 407.382 66.6818 407.539 66.4489C407.695 66.2159 407.775 65.9432 407.777 65.6307C407.775 65.3011 407.689 65.0099 407.522 64.7571C407.354 64.5043 407.125 64.3054 406.836 64.1605C406.549 64.0156 406.221 63.9432 405.851 63.9432C405.479 63.9432 405.147 64.0156 404.854 64.1605C404.564 64.3054 404.336 64.5043 404.168 64.7571C404.003 65.0099 403.922 65.3011 403.925 65.6307C403.922 65.9432 403.998 66.2159 404.151 66.4489C404.307 66.6818 404.53 66.8622 404.82 66.9901C405.11 67.1179 405.453 67.1818 405.851 67.1818ZM405.851 63.0398C406.164 63.0398 406.441 62.9773 406.682 62.8523C406.926 62.7273 407.118 62.5526 407.257 62.3281C407.397 62.1037 407.468 61.8409 407.471 61.5398C407.468 61.2443 407.398 60.9872 407.262 60.7685C407.125 60.5469 406.936 60.3764 406.695 60.2571C406.453 60.1349 406.172 60.0739 405.851 60.0739C405.525 60.0739 405.239 60.1349 404.995 60.2571C404.75 60.3764 404.561 60.5469 404.428 60.7685C404.294 60.9872 404.229 61.2443 404.232 61.5398C404.229 61.8409 404.296 62.1037 404.432 62.3281C404.571 62.5526 404.763 62.7273 405.007 62.8523C405.252 62.9773 405.533 63.0398 405.851 63.0398Z" fill="#738287"/>
<path d="M383 78L422 78" stroke="#738287"/>
<line x1="421.5" y1="73" x2="421.5" y2="92" stroke="#738287"/>
<line x1="382.5" y1="73" x2="382.5" y2="92" stroke="#738287"/>
<path d="M82.598 142L86.5014 134.278V134.21H82.0014V133.273H87.5923V134.261L83.706 142H82.598ZM91.891 142.119C91.533 142.114 91.1751 142.045 90.8171 141.915C90.4592 141.784 90.1325 141.564 89.837 141.254C89.5415 140.942 89.3043 140.52 89.1254 139.989C88.9464 139.455 88.8569 138.784 88.8569 137.977C88.8569 137.205 88.9293 136.52 89.0742 135.923C89.2191 135.324 89.4293 134.82 89.7049 134.411C89.9805 133.999 90.3129 133.686 90.7021 133.473C91.0941 133.26 91.5359 133.153 92.0273 133.153C92.516 133.153 92.9506 133.251 93.3313 133.447C93.7148 133.641 94.0273 133.911 94.2688 134.257C94.5103 134.604 94.6665 135.003 94.7376 135.455H93.6978C93.6012 135.062 93.4137 134.737 93.1353 134.479C92.8569 134.22 92.4876 134.091 92.0273 134.091C91.3512 134.091 90.8185 134.385 90.4293 134.973C90.043 135.561 89.8484 136.386 89.8455 137.449H89.9137C90.0728 137.207 90.2617 137.001 90.4805 136.831C90.7021 136.658 90.9464 136.524 91.2134 136.43C91.4805 136.337 91.7631 136.29 92.0614 136.29C92.5614 136.29 93.0188 136.415 93.4336 136.665C93.8484 136.912 94.1808 137.254 94.4308 137.692C94.6808 138.126 94.8058 138.625 94.8058 139.188C94.8058 139.727 94.685 140.222 94.4435 140.67C94.2021 141.116 93.8626 141.472 93.4251 141.736C92.9904 141.997 92.479 142.125 91.891 142.119ZM91.891 141.182C92.2489 141.182 92.57 141.092 92.854 140.913C93.141 140.734 93.3668 140.494 93.5316 140.193C93.6992 139.892 93.783 139.557 93.783 139.188C93.783 138.827 93.7021 138.499 93.5401 138.203C93.381 137.905 93.1609 137.668 92.8796 137.491C92.6012 137.315 92.283 137.227 91.9251 137.227C91.6552 137.227 91.4038 137.281 91.1708 137.389C90.9379 137.494 90.7333 137.639 90.5572 137.824C90.3839 138.009 90.2475 138.22 90.1481 138.459C90.0487 138.695 89.9989 138.943 89.9989 139.205C89.9989 139.551 90.0799 139.875 90.2418 140.176C90.4066 140.477 90.631 140.72 90.9151 140.905C91.2021 141.089 91.5273 141.182 91.891 141.182Z" fill="#738287"/>
<path d="M109 176L109 100" stroke="#738287"/>
<line x1="104" y1="100.5" x2="123" y2="100.5" stroke="#738287"/>
<line x1="104" y1="175.5" x2="123" y2="175.5" stroke="#738287"/>
<rect x="131" y="100" width="291" height="76" fill="#058C50"/>
<path d="M181.187 147V129.545H192.071V131.812H183.821V136.585H187.724C189.02 136.585 190.119 136.795 191.022 137.216C191.931 137.636 192.625 138.23 193.102 138.997C193.585 139.764 193.826 140.668 193.826 141.707C193.826 142.747 193.585 143.665 193.102 144.46C192.625 145.256 191.931 145.878 191.022 146.327C190.119 146.776 189.02 147 187.724 147H181.187ZM183.821 144.784H187.724C188.474 144.784 189.108 144.636 189.625 144.341C190.147 144.045 190.542 143.662 190.809 143.19C191.082 142.719 191.218 142.213 191.218 141.673C191.218 140.889 190.917 140.216 190.315 139.653C189.713 139.085 188.849 138.801 187.724 138.801H183.821V144.784ZM202.247 147.264C201.02 147.264 199.949 146.983 199.034 146.42C198.119 145.858 197.409 145.071 196.903 144.06C196.397 143.048 196.145 141.866 196.145 140.514C196.145 139.156 196.397 137.969 196.903 136.952C197.409 135.935 198.119 135.145 199.034 134.582C199.949 134.02 201.02 133.739 202.247 133.739C203.474 133.739 204.545 134.02 205.46 134.582C206.375 135.145 207.085 135.935 207.591 136.952C208.096 137.969 208.349 139.156 208.349 140.514C208.349 141.866 208.096 143.048 207.591 144.06C207.085 145.071 206.375 145.858 205.46 146.42C204.545 146.983 203.474 147.264 202.247 147.264ZM202.255 145.125C203.051 145.125 203.71 144.915 204.233 144.494C204.755 144.074 205.142 143.514 205.392 142.815C205.647 142.116 205.775 141.347 205.775 140.506C205.775 139.67 205.647 138.903 205.392 138.205C205.142 137.5 204.755 136.935 204.233 136.509C203.71 136.082 203.051 135.869 202.255 135.869C201.454 135.869 200.789 136.082 200.261 136.509C199.738 136.935 199.349 137.5 199.093 138.205C198.843 138.903 198.718 139.67 198.718 140.506C198.718 141.347 198.843 142.116 199.093 142.815C199.349 143.514 199.738 144.074 200.261 144.494C200.789 144.915 201.454 145.125 202.255 145.125ZM210.162 147L210.154 144.793H210.623C210.986 144.793 211.29 144.716 211.534 144.562C211.784 144.403 211.989 144.136 212.148 143.761C212.307 143.386 212.429 142.869 212.515 142.21C212.6 141.545 212.662 140.71 212.702 139.705L212.932 133.909H222.069V147H219.571V136.108H215.293L215.088 140.557C215.037 141.636 214.926 142.58 214.756 143.386C214.591 144.193 214.35 144.866 214.032 145.406C213.713 145.94 213.304 146.341 212.804 146.608C212.304 146.869 211.696 147 210.98 147H210.162ZM227.385 138.409H231.186C232.788 138.409 234.021 138.807 234.885 139.602C235.748 140.398 236.18 141.423 236.18 142.679C236.18 143.497 235.987 144.233 235.6 144.886C235.214 145.54 234.649 146.057 233.904 146.438C233.16 146.812 232.254 147 231.186 147H225.467V133.909H227.964V144.801H231.186C231.919 144.801 232.521 144.611 232.993 144.23C233.464 143.844 233.7 143.352 233.7 142.756C233.7 142.125 233.464 141.611 232.993 141.213C232.521 140.81 231.919 140.608 231.186 140.608H227.385V138.409ZM239.037 133.909H241.534V144.793H246.06V133.909H248.557V144.793H253.083V133.909H255.58V147H239.037V133.909ZM262.792 147.29C261.963 147.29 261.213 147.136 260.542 146.83C259.872 146.517 259.341 146.065 258.949 145.474C258.562 144.884 258.369 144.159 258.369 143.301C258.369 142.562 258.511 141.955 258.795 141.477C259.079 141 259.463 140.622 259.946 140.344C260.429 140.065 260.968 139.855 261.565 139.713C262.162 139.571 262.77 139.463 263.389 139.389C264.173 139.298 264.809 139.224 265.298 139.168C265.787 139.105 266.142 139.006 266.363 138.869C266.585 138.733 266.696 138.511 266.696 138.205V138.145C266.696 137.401 266.485 136.824 266.065 136.415C265.65 136.006 265.031 135.801 264.207 135.801C263.349 135.801 262.673 135.991 262.179 136.372C261.69 136.747 261.352 137.165 261.164 137.625L258.77 137.08C259.054 136.284 259.468 135.642 260.014 135.153C260.565 134.659 261.199 134.301 261.914 134.08C262.63 133.852 263.383 133.739 264.173 133.739C264.696 133.739 265.25 133.801 265.835 133.926C266.426 134.045 266.977 134.267 267.488 134.591C268.005 134.915 268.429 135.378 268.758 135.98C269.088 136.577 269.252 137.352 269.252 138.307V147H266.764V145.21H266.662C266.497 145.54 266.25 145.864 265.92 146.182C265.591 146.5 265.167 146.764 264.65 146.974C264.133 147.185 263.514 147.29 262.792 147.29ZM263.346 145.244C264.051 145.244 264.653 145.105 265.153 144.827C265.659 144.548 266.042 144.185 266.304 143.736C266.571 143.281 266.704 142.795 266.704 142.278V140.591C266.613 140.682 266.437 140.767 266.176 140.847C265.92 140.92 265.627 140.986 265.298 141.043C264.968 141.094 264.647 141.142 264.335 141.188C264.022 141.227 263.761 141.261 263.551 141.29C263.056 141.352 262.605 141.457 262.196 141.605C261.792 141.753 261.468 141.966 261.224 142.244C260.985 142.517 260.866 142.881 260.866 143.335C260.866 143.966 261.099 144.443 261.565 144.767C262.031 145.085 262.625 145.244 263.346 145.244ZM280.453 147V136.082H277.317C276.573 136.082 275.993 136.256 275.578 136.602C275.164 136.949 274.956 137.403 274.956 137.966C274.956 138.523 275.147 138.972 275.527 139.312C275.914 139.648 276.453 139.815 277.147 139.815H281.195V141.878H277.147C276.181 141.878 275.346 141.719 274.641 141.401C273.942 141.077 273.402 140.619 273.022 140.028C272.647 139.437 272.459 138.739 272.459 137.932C272.459 137.108 272.652 136.398 273.039 135.801C273.431 135.199 273.99 134.733 274.718 134.403C275.451 134.074 276.317 133.909 277.317 133.909H282.848V147H280.453ZM271.863 147L275.553 140.386H278.161L274.471 147H271.863ZM292.592 147V133.909H295.14V139.398H296.368L300.689 133.909H303.842L298.771 140.276L303.902 147H300.74L296.794 141.767H295.14V147H292.592ZM314.753 139.355V141.562H307.662V139.355H314.753ZM308.378 133.909V147H305.881V133.909H308.378ZM316.534 133.909V147H314.046V133.909H316.534ZM325.458 147.264C324.23 147.264 323.159 146.983 322.245 146.42C321.33 145.858 320.62 145.071 320.114 144.06C319.608 143.048 319.355 141.866 319.355 140.514C319.355 139.156 319.608 137.969 320.114 136.952C320.62 135.935 321.33 135.145 322.245 134.582C323.159 134.02 324.23 133.739 325.458 133.739C326.685 133.739 327.756 134.02 328.671 134.582C329.586 135.145 330.296 135.935 330.801 136.952C331.307 137.969 331.56 139.156 331.56 140.514C331.56 141.866 331.307 143.048 330.801 144.06C330.296 145.071 329.586 145.858 328.671 146.42C327.756 146.983 326.685 147.264 325.458 147.264ZM325.466 145.125C326.262 145.125 326.921 144.915 327.444 144.494C327.966 144.074 328.353 143.514 328.603 142.815C328.858 142.116 328.986 141.347 328.986 140.506C328.986 139.67 328.858 138.903 328.603 138.205C328.353 137.5 327.966 136.935 327.444 136.509C326.921 136.082 326.262 135.869 325.466 135.869C324.665 135.869 324 136.082 323.472 136.509C322.949 136.935 322.56 137.5 322.304 138.205C322.054 138.903 321.929 139.67 321.929 140.506C321.929 141.347 322.054 142.116 322.304 142.815C322.56 143.514 322.949 144.074 323.472 144.494C324 144.915 324.665 145.125 325.466 145.125ZM334.404 147V133.909H345.083V147H342.586V136.108H336.885V147H334.404ZM348.49 147V133.909H351.039V139.398H352.266L356.587 133.909H359.74L354.669 140.276L359.8 147H356.638L352.692 141.767H351.039V147H348.49ZM365.589 147.29C364.76 147.29 364.01 147.136 363.339 146.83C362.669 146.517 362.137 146.065 361.745 145.474C361.359 144.884 361.166 144.159 361.166 143.301C361.166 142.562 361.308 141.955 361.592 141.477C361.876 141 362.26 140.622 362.743 140.344C363.225 140.065 363.765 139.855 364.362 139.713C364.958 139.571 365.566 139.463 366.186 139.389C366.97 139.298 367.606 139.224 368.095 139.168C368.583 139.105 368.939 139.006 369.16 138.869C369.382 138.733 369.493 138.511 369.493 138.205V138.145C369.493 137.401 369.282 136.824 368.862 136.415C368.447 136.006 367.828 135.801 367.004 135.801C366.146 135.801 365.47 135.991 364.975 136.372C364.487 136.747 364.149 137.165 363.961 137.625L361.566 137.08C361.85 136.284 362.265 135.642 362.811 135.153C363.362 134.659 363.995 134.301 364.711 134.08C365.427 133.852 366.18 133.739 366.97 133.739C367.493 133.739 368.047 133.801 368.632 133.926C369.223 134.045 369.774 134.267 370.285 134.591C370.802 134.915 371.225 135.378 371.555 135.98C371.885 136.577 372.049 137.352 372.049 138.307V147H369.561V145.21H369.458C369.294 145.54 369.047 145.864 368.717 146.182C368.387 146.5 367.964 146.764 367.447 146.974C366.93 147.185 366.311 147.29 365.589 147.29ZM366.143 145.244C366.848 145.244 367.45 145.105 367.95 144.827C368.456 144.548 368.839 144.185 369.1 143.736C369.368 143.281 369.501 142.795 369.501 142.278V140.591C369.41 140.682 369.234 140.767 368.973 140.847C368.717 140.92 368.424 140.986 368.095 141.043C367.765 141.094 367.444 141.142 367.132 141.188C366.819 141.227 366.558 141.261 366.348 141.29C365.853 141.352 365.402 141.457 364.993 141.605C364.589 141.753 364.265 141.966 364.021 142.244C363.782 142.517 363.663 142.881 363.663 143.335C363.663 143.966 363.896 144.443 364.362 144.767C364.828 145.085 365.422 145.244 366.143 145.244Z" fill="white"/>
<path d="M462.015 116V115.233L464.895 112.08C465.233 111.71 465.512 111.389 465.731 111.116C465.949 110.841 466.111 110.582 466.216 110.341C466.324 110.097 466.378 109.841 466.378 109.574C466.378 109.267 466.305 109.001 466.157 108.777C466.012 108.553 465.813 108.379 465.56 108.257C465.307 108.135 465.023 108.074 464.708 108.074C464.373 108.074 464.08 108.143 463.83 108.283C463.583 108.419 463.391 108.611 463.255 108.858C463.121 109.105 463.055 109.395 463.055 109.727H462.049C462.049 109.216 462.167 108.767 462.403 108.381C462.638 107.994 462.959 107.693 463.366 107.477C463.775 107.261 464.233 107.153 464.742 107.153C465.253 107.153 465.706 107.261 466.101 107.477C466.496 107.693 466.806 107.984 467.03 108.351C467.255 108.717 467.367 109.125 467.367 109.574C467.367 109.895 467.309 110.209 467.192 110.516C467.079 110.82 466.88 111.159 466.596 111.534C466.314 111.906 465.924 112.361 465.424 112.898L463.464 114.994V115.062H467.52V116H462.015ZM468.888 114.21V113.341L472.724 107.273H473.354V108.619H472.928L470.03 113.205V113.273H475.195V114.21H468.888ZM472.996 116V113.946V113.541V107.273H474.002V116H472.996Z" fill="#738287"/>
<path d="M448 100L448 124" stroke="#738287"/>
<line x1="453" y1="123.5" x2="434" y2="123.5" stroke="#738287"/>
<line x1="453" y1="100.5" x2="434" y2="100.5" stroke="#738287"/>
<path d="M462.015 168V167.233L464.895 164.08C465.233 163.71 465.512 163.389 465.731 163.116C465.949 162.841 466.111 162.582 466.216 162.341C466.324 162.097 466.378 161.841 466.378 161.574C466.378 161.267 466.305 161.001 466.157 160.777C466.012 160.553 465.813 160.379 465.56 160.257C465.307 160.135 465.023 160.074 464.708 160.074C464.373 160.074 464.08 160.143 463.83 160.283C463.583 160.419 463.391 160.611 463.255 160.858C463.121 161.105 463.055 161.395 463.055 161.727H462.049C462.049 161.216 462.167 160.767 462.403 160.381C462.638 159.994 462.959 159.693 463.366 159.477C463.775 159.261 464.233 159.153 464.742 159.153C465.253 159.153 465.706 159.261 466.101 159.477C466.496 159.693 466.806 159.984 467.03 160.351C467.255 160.717 467.367 161.125 467.367 161.574C467.367 161.895 467.309 162.209 467.192 162.516C467.079 162.82 466.88 163.159 466.596 163.534C466.314 163.906 465.924 164.361 465.424 164.898L463.464 166.994V167.062H467.52V168H462.015ZM468.888 166.21V165.341L472.724 159.273H473.354V160.619H472.928L470.03 165.205V165.273H475.195V166.21H468.888ZM472.996 168V165.946V165.541V159.273H474.002V168H472.996Z" fill="#738287"/>
<path d="M448 152L448 176" stroke="#738287"/>
<line x1="453" y1="175.5" x2="434" y2="175.5" stroke="#738287"/>
<line x1="453" y1="152.5" x2="434" y2="152.5" stroke="#738287"/>
<path d="M462.073 142V141.233L464.954 138.08C465.292 137.71 465.57 137.389 465.789 137.116C466.008 136.841 466.17 136.582 466.275 136.341C466.383 136.097 466.437 135.841 466.437 135.574C466.437 135.267 466.363 135.001 466.215 134.777C466.07 134.553 465.872 134.379 465.619 134.257C465.366 134.135 465.082 134.074 464.767 134.074C464.431 134.074 464.139 134.143 463.889 134.283C463.642 134.419 463.45 134.611 463.313 134.858C463.18 135.105 463.113 135.395 463.113 135.727H462.107C462.107 135.216 462.225 134.767 462.461 134.381C462.697 133.994 463.018 133.693 463.424 133.477C463.833 133.261 464.292 133.153 464.801 133.153C465.312 133.153 465.765 133.261 466.16 133.477C466.555 133.693 466.865 133.984 467.089 134.351C467.313 134.717 467.426 135.125 467.426 135.574C467.426 135.895 467.367 136.209 467.251 136.516C467.137 136.82 466.938 137.159 466.654 137.534C466.373 137.906 465.982 138.361 465.482 138.898L463.522 140.994V141.062H467.579V142H462.073ZM472.134 142.119C471.549 142.119 471.032 142.016 470.583 141.808C470.137 141.598 469.789 141.31 469.539 140.943C469.289 140.574 469.166 140.153 469.169 139.682C469.166 139.312 469.238 138.972 469.386 138.659C469.534 138.344 469.735 138.081 469.991 137.871C470.249 137.658 470.538 137.523 470.856 137.466V137.415C470.438 137.307 470.106 137.072 469.859 136.712C469.612 136.348 469.49 135.935 469.492 135.472C469.49 135.028 469.602 134.632 469.829 134.283C470.056 133.933 470.369 133.658 470.767 133.456C471.167 133.254 471.623 133.153 472.134 133.153C472.64 133.153 473.092 133.254 473.49 133.456C473.887 133.658 474.2 133.933 474.427 134.283C474.657 134.632 474.774 135.028 474.776 135.472C474.774 135.935 474.647 136.348 474.397 136.712C474.15 137.072 473.822 137.307 473.413 137.415V137.466C473.728 137.523 474.012 137.658 474.265 137.871C474.518 138.081 474.72 138.344 474.87 138.659C475.021 138.972 475.097 139.312 475.1 139.682C475.097 140.153 474.97 140.574 474.717 140.943C474.467 141.31 474.119 141.598 473.673 141.808C473.23 142.016 472.717 142.119 472.134 142.119ZM472.134 141.182C472.529 141.182 472.87 141.118 473.157 140.99C473.444 140.862 473.666 140.682 473.822 140.449C473.978 140.216 474.058 139.943 474.061 139.631C474.058 139.301 473.972 139.01 473.805 138.757C473.637 138.504 473.409 138.305 473.119 138.161C472.832 138.016 472.504 137.943 472.134 137.943C471.762 137.943 471.43 138.016 471.137 138.161C470.847 138.305 470.619 138.504 470.451 138.757C470.286 139.01 470.205 139.301 470.208 139.631C470.205 139.943 470.281 140.216 470.434 140.449C470.59 140.682 470.813 140.862 471.103 140.99C471.393 141.118 471.737 141.182 472.134 141.182ZM472.134 137.04C472.447 137.04 472.724 136.977 472.965 136.852C473.21 136.727 473.401 136.553 473.541 136.328C473.68 136.104 473.751 135.841 473.754 135.54C473.751 135.244 473.681 134.987 473.545 134.768C473.409 134.547 473.22 134.376 472.978 134.257C472.737 134.135 472.455 134.074 472.134 134.074C471.808 134.074 471.522 134.135 471.278 134.257C471.034 134.376 470.845 134.547 470.711 134.768C470.578 134.987 470.512 135.244 470.515 135.54C470.512 135.841 470.579 136.104 470.715 136.328C470.855 136.553 471.046 136.727 471.291 136.852C471.535 136.977 471.816 137.04 472.134 137.04Z" fill="#738287"/>
<path d="M448 123L448 153" stroke="#738287"/>
<line x1="453" y1="152.5" x2="434" y2="152.5" stroke="#738287"/>
<line x1="453" y1="123.5" x2="434" y2="123.5" stroke="#738287"/>
<path d="M21.5795 246.21V245.273H28.125V246.21H25.3807V254H24.3239V246.21H21.5795ZM31.4148 254.136C30.7841 254.136 30.2401 253.997 29.7827 253.719C29.3281 253.438 28.9773 253.045 28.7301 252.543C28.4858 252.037 28.3636 251.449 28.3636 250.778C28.3636 250.108 28.4858 249.517 28.7301 249.006C28.9773 248.491 29.321 248.091 29.7614 247.804C30.2045 247.514 30.7216 247.369 31.3125 247.369C31.6534 247.369 31.9901 247.426 32.3224 247.54C32.6548 247.653 32.9574 247.838 33.2301 248.094C33.5028 248.347 33.7202 248.682 33.8821 249.099C34.044 249.517 34.125 250.031 34.125 250.642V251.068H29.0795V250.199H33.1023C33.1023 249.83 33.0284 249.5 32.8807 249.21C32.7358 248.92 32.5284 248.692 32.2585 248.524C31.9915 248.357 31.6761 248.273 31.3125 248.273C30.9119 248.273 30.5653 248.372 30.2727 248.571C29.983 248.767 29.7599 249.023 29.6037 249.338C29.4474 249.653 29.3693 249.991 29.3693 250.352V250.932C29.3693 251.426 29.4545 251.845 29.625 252.189C29.7983 252.53 30.0384 252.79 30.3452 252.969C30.652 253.145 31.0085 253.233 31.4148 253.233C31.679 253.233 31.9176 253.196 32.1307 253.122C32.3466 253.045 32.5327 252.932 32.6889 252.781C32.8452 252.628 32.9659 252.437 33.0511 252.21L34.0227 252.483C33.9205 252.812 33.7486 253.102 33.5071 253.352C33.2656 253.599 32.9673 253.793 32.6122 253.932C32.2571 254.068 31.858 254.136 31.4148 254.136ZM36.229 247.455L37.7972 250.131L39.3654 247.455H40.5245L38.4109 250.727L40.5245 254H39.3654L37.7972 251.46L36.229 254H35.07L37.1495 250.727L35.07 247.455H36.229ZM44.8061 247.455V248.307H41.4141V247.455H44.8061ZM42.4027 245.886H43.4084V252.125C43.4084 252.409 43.4496 252.622 43.532 252.764C43.6172 252.903 43.7251 252.997 43.8558 253.045C43.9893 253.091 44.13 253.114 44.2777 253.114C44.3885 253.114 44.4794 253.108 44.5504 253.097C44.6214 253.082 44.6783 253.071 44.7209 253.062L44.9254 253.966C44.8572 253.991 44.7621 254.017 44.6399 254.043C44.5178 254.071 44.3629 254.085 44.1754 254.085C43.8913 254.085 43.6129 254.024 43.3402 253.902C43.0703 253.78 42.8459 253.594 42.6669 253.344C42.4908 253.094 42.4027 252.778 42.4027 252.398V245.886ZM54.3303 248.92L53.4268 249.176C53.37 249.026 53.2862 248.879 53.1754 248.737C53.0675 248.592 52.9197 248.473 52.7322 248.379C52.5447 248.286 52.3047 248.239 52.0121 248.239C51.6115 248.239 51.2777 248.331 51.0107 248.516C50.7464 248.697 50.6143 248.929 50.6143 249.21C50.6143 249.46 50.7053 249.658 50.8871 249.803C51.0689 249.947 51.353 250.068 51.7393 250.165L52.7109 250.403C53.2962 250.545 53.7322 250.763 54.0192 251.055C54.3061 251.345 54.4496 251.719 54.4496 252.176C54.4496 252.551 54.3416 252.886 54.1257 253.182C53.9126 253.477 53.6143 253.71 53.2308 253.881C52.8473 254.051 52.4013 254.136 51.8928 254.136C51.2251 254.136 50.6726 253.991 50.2351 253.702C49.7976 253.412 49.5206 252.989 49.4041 252.432L50.3587 252.193C50.4496 252.545 50.6214 252.81 50.8743 252.986C51.13 253.162 51.4638 253.25 51.8757 253.25C52.3445 253.25 52.7166 253.151 52.9922 252.952C53.2706 252.75 53.4098 252.509 53.4098 252.227C53.4098 252 53.3303 251.81 53.1712 251.656C53.0121 251.5 52.7678 251.384 52.4382 251.307L51.3473 251.051C50.7479 250.909 50.3075 250.689 50.0263 250.391C49.7479 250.089 49.6087 249.713 49.6087 249.261C49.6087 248.892 49.7124 248.565 49.9197 248.281C50.13 247.997 50.4155 247.774 50.7763 247.612C51.1399 247.45 51.5518 247.369 52.0121 247.369C52.6598 247.369 53.1683 247.511 53.5376 247.795C53.9098 248.08 54.174 248.455 54.3303 248.92ZM55.9634 254V247.455H56.9691V254H55.9634ZM56.4748 246.364C56.2788 246.364 56.1097 246.297 55.9677 246.163C55.8285 246.03 55.7589 245.869 55.7589 245.682C55.7589 245.494 55.8285 245.334 55.9677 245.2C56.1097 245.067 56.2788 245 56.4748 245C56.6708 245 56.8384 245.067 56.9776 245.2C57.1197 245.334 57.1907 245.494 57.1907 245.682C57.1907 245.869 57.1197 246.03 56.9776 246.163C56.8384 246.297 56.6708 246.364 56.4748 246.364ZM58.6236 254V253.233L62.3395 248.46V248.392H58.7429V247.455H63.6349V248.256L60.0213 252.994V253.062H63.7543V254H58.6236ZM67.8601 254.136C67.2294 254.136 66.6854 253.997 66.228 253.719C65.7734 253.438 65.4226 253.045 65.1754 252.543C64.9311 252.037 64.8089 251.449 64.8089 250.778C64.8089 250.108 64.9311 249.517 65.1754 249.006C65.4226 248.491 65.7663 248.091 66.2067 247.804C66.6499 247.514 67.1669 247.369 67.7578 247.369C68.0987 247.369 68.4354 247.426 68.7678 247.54C69.1001 247.653 69.4027 247.838 69.6754 248.094C69.9482 248.347 70.1655 248.682 70.3274 249.099C70.4893 249.517 70.5703 250.031 70.5703 250.642V251.068H65.5249V250.199H69.5476C69.5476 249.83 69.4737 249.5 69.326 249.21C69.1811 248.92 68.9737 248.692 68.7038 248.524C68.4368 248.357 68.1214 248.273 67.7578 248.273C67.3572 248.273 67.0107 248.372 66.718 248.571C66.4283 248.767 66.2053 249.023 66.049 249.338C65.8928 249.653 65.8146 249.991 65.8146 250.352V250.932C65.8146 251.426 65.8999 251.845 66.0703 252.189C66.2436 252.53 66.4837 252.79 66.7905 252.969C67.0973 253.145 67.4538 253.233 67.8601 253.233C68.1243 253.233 68.3629 253.196 68.576 253.122C68.7919 253.045 68.978 252.932 69.1342 252.781C69.2905 252.628 69.4112 252.437 69.4964 252.21L70.468 252.483C70.3658 252.812 70.1939 253.102 69.9524 253.352C69.7109 253.599 69.4126 253.793 69.0575 253.932C68.7024 254.068 68.3033 254.136 67.8601 254.136ZM75.8842 248.835V247.915H81.1342V248.835H75.8842ZM75.8842 251.358V250.438H81.1342V251.358H75.8842ZM86.7433 254V253.233L89.6239 250.08C89.962 249.71 90.2404 249.389 90.4592 249.116C90.6779 248.841 90.8398 248.582 90.945 248.341C91.0529 248.097 91.1069 247.841 91.1069 247.574C91.1069 247.267 91.033 247.001 90.8853 246.777C90.7404 246.553 90.5415 246.379 90.2887 246.257C90.0359 246.135 89.7518 246.074 89.4364 246.074C89.1012 246.074 88.8086 246.143 88.5586 246.283C88.3114 246.419 88.1197 246.611 87.9833 246.858C87.8498 247.105 87.783 247.395 87.783 247.727H86.7773C86.7773 247.216 86.8952 246.767 87.131 246.381C87.3668 245.994 87.6879 245.693 88.0941 245.477C88.5032 245.261 88.962 245.153 89.4705 245.153C89.9819 245.153 90.435 245.261 90.8299 245.477C91.2248 245.693 91.5344 245.984 91.7589 246.351C91.9833 246.717 92.0955 247.125 92.0955 247.574C92.0955 247.895 92.0373 248.209 91.9208 248.516C91.8072 248.82 91.6083 249.159 91.3242 249.534C91.043 249.906 90.6523 250.361 90.1523 250.898L88.1921 252.994V253.062H92.2489V254H86.7433ZM96.8043 254.119C96.2191 254.119 95.7021 254.016 95.2532 253.808C94.8072 253.598 94.4592 253.31 94.2092 252.943C93.9592 252.574 93.8356 252.153 93.8384 251.682C93.8356 251.312 93.908 250.972 94.0558 250.659C94.2035 250.344 94.4052 250.081 94.6609 249.871C94.9194 249.658 95.2077 249.523 95.5259 249.466V249.415C95.1083 249.307 94.7759 249.072 94.5288 248.712C94.2816 248.348 94.1594 247.935 94.1623 247.472C94.1594 247.028 94.2717 246.632 94.4989 246.283C94.7262 245.933 95.0387 245.658 95.4364 245.456C95.837 245.254 96.293 245.153 96.8043 245.153C97.31 245.153 97.7617 245.254 98.1594 245.456C98.5572 245.658 98.8697 245.933 99.0969 246.283C99.3271 246.632 99.4435 247.028 99.4464 247.472C99.4435 247.935 99.3171 248.348 99.0671 248.712C98.82 249.072 98.4918 249.307 98.0827 249.415V249.466C98.3981 249.523 98.6822 249.658 98.935 249.871C99.1879 250.081 99.3896 250.344 99.5401 250.659C99.6907 250.972 99.7674 251.312 99.7702 251.682C99.7674 252.153 99.6396 252.574 99.3867 252.943C99.1367 253.31 98.7887 253.598 98.3427 253.808C97.8995 254.016 97.3867 254.119 96.8043 254.119ZM96.8043 253.182C97.1992 253.182 97.5401 253.118 97.8271 252.99C98.114 252.862 98.3356 252.682 98.4918 252.449C98.6481 252.216 98.7276 251.943 98.7305 251.631C98.7276 251.301 98.6424 251.01 98.4748 250.757C98.3072 250.504 98.0785 250.305 97.7887 250.161C97.5018 250.016 97.1737 249.943 96.8043 249.943C96.4322 249.943 96.0998 250.016 95.8072 250.161C95.5174 250.305 95.2887 250.504 95.1211 250.757C94.9563 251.01 94.8754 251.301 94.8782 251.631C94.8754 251.943 94.9506 252.216 95.104 252.449C95.2603 252.682 95.4833 252.862 95.7731 252.99C96.0629 253.118 96.4066 253.182 96.8043 253.182ZM96.8043 249.04C97.1168 249.04 97.3938 248.977 97.6353 248.852C97.8796 248.727 98.0714 248.553 98.2106 248.328C98.3498 248.104 98.4208 247.841 98.4237 247.54C98.4208 247.244 98.3512 246.987 98.2148 246.768C98.0785 246.547 97.8896 246.376 97.6481 246.257C97.4066 246.135 97.1254 246.074 96.8043 246.074C96.4776 246.074 96.1921 246.135 95.9478 246.257C95.7035 246.376 95.5146 246.547 95.381 246.768C95.2475 246.987 95.1822 247.244 95.185 247.54C95.1822 247.841 95.2489 248.104 95.3853 248.328C95.5245 248.553 95.7163 248.727 95.9606 248.852C96.2049 248.977 96.4862 249.04 96.8043 249.04Z" fill="#738287"/>
</svg>
