<svg width="552" height="276" viewBox="0 0 552 276" fill="none" xmlns="http://www.w3.org/2000/svg">
<g clip-path="url(#clip0_1283_5454)">
<rect width="552" height="654" fill="#F2F6F9"/>
<rect x="100" y="104" width="76" height="76" fill="#058C50"/>
<path d="M138.001 132.455C139.419 131.21 141.265 130.565 143.15 130.657C145.035 130.749 146.81 131.571 148.099 132.948C149.389 134.325 150.093 136.15 150.061 138.037C150.029 139.923 149.265 141.723 147.93 143.057L141.835 149.152L138 152.985L129.507 144.493L128.072 143.055C126.74 141.721 125.98 139.922 125.95 138.038C125.92 136.154 126.623 134.331 127.912 132.956C129.2 131.58 130.972 130.759 132.855 130.666C134.737 130.572 136.582 131.214 138 132.455H138.001ZM141.834 145.854L146.28 141.407C146.738 140.949 147.101 140.405 147.349 139.806C147.597 139.208 147.725 138.566 147.725 137.919C147.725 137.271 147.597 136.629 147.349 136.031C147.101 135.432 146.738 134.888 146.28 134.43C145.822 133.972 145.278 133.609 144.679 133.361C144.081 133.113 143.439 132.985 142.792 132.985C142.144 132.985 141.502 133.113 140.904 133.361C140.305 133.609 139.761 133.972 139.303 134.43L138 135.732L136.697 134.429C135.772 133.504 134.517 132.984 133.209 132.984C131.9 132.984 130.645 133.504 129.72 134.429C128.795 135.354 128.275 136.609 128.275 137.917C128.275 139.226 128.795 140.481 129.72 141.406L131.158 142.843L138 149.686L141.833 145.853L141.834 145.854Z" fill="white"/>
<rect x="256" y="110" width="64" height="64" fill="#058C50"/>
<path d="M288.001 133.818C289.216 132.751 290.799 132.198 292.414 132.277C294.03 132.356 295.551 133.06 296.657 134.24C297.762 135.421 298.365 136.985 298.338 138.602C298.311 140.219 297.656 141.762 296.511 142.905L291.287 148.13L288 151.415L280.72 144.136L279.49 142.904C278.349 141.761 277.697 140.219 277.671 138.603C277.646 136.988 278.249 135.426 279.353 134.247C280.457 133.068 281.976 132.364 283.59 132.284C285.203 132.204 286.785 132.754 288 133.818H288.001ZM291.286 145.303L295.097 141.491C295.49 141.098 295.801 140.632 296.014 140.119C296.226 139.606 296.336 139.056 296.336 138.501C296.336 137.946 296.226 137.396 296.014 136.883C295.801 136.37 295.49 135.904 295.097 135.511C294.704 135.118 294.238 134.807 293.725 134.594C293.212 134.382 292.662 134.273 292.107 134.273C291.552 134.273 291.002 134.382 290.489 134.594C289.976 134.807 289.51 135.118 289.117 135.511L288 136.627L286.883 135.51C286.09 134.717 285.015 134.272 283.893 134.272C282.772 134.272 281.696 134.717 280.903 135.51C280.11 136.303 279.665 137.379 279.665 138.5C279.665 139.622 280.11 140.697 280.903 141.49L282.135 142.722L288 148.587L291.285 145.302L291.286 145.303Z" fill="white"/>
<rect x="400" y="116" width="52" height="52" fill="#058C50"/>
<path d="M426.001 135.181C427.014 134.292 428.333 133.831 429.679 133.897C431.025 133.962 432.293 134.549 433.214 135.533C434.135 136.517 434.638 137.82 434.615 139.168C434.592 140.515 434.046 141.801 433.093 142.754L428.739 147.108L426 149.845L419.934 143.779L418.909 142.753C417.958 141.8 417.414 140.515 417.393 139.169C417.371 137.823 417.874 136.521 418.794 135.539C419.714 134.556 420.98 133.97 422.325 133.903C423.669 133.836 424.987 134.294 426 135.181H426.001ZM428.739 144.752L431.914 141.575C432.242 141.248 432.501 140.86 432.678 140.432C432.855 140.005 432.946 139.546 432.946 139.084C432.946 138.621 432.855 138.163 432.678 137.735C432.501 137.308 432.242 136.919 431.914 136.592C431.587 136.265 431.199 136.005 430.771 135.828C430.344 135.651 429.885 135.56 429.423 135.56C428.96 135.56 428.502 135.651 428.074 135.828C427.647 136.005 427.258 136.265 426.931 136.592L426 137.522L425.069 136.591C424.409 135.93 423.512 135.559 422.578 135.559C421.643 135.559 420.747 135.93 420.086 136.591C419.425 137.252 419.054 138.148 419.054 139.083C419.054 140.017 419.425 140.914 420.086 141.574L421.113 142.601L426 147.489L428.738 144.751L428.739 144.752Z" fill="white"/>
<path d="M353.847 146.119C353.347 146.119 352.897 146.02 352.497 145.821C352.096 145.622 351.775 145.349 351.534 145.003C351.292 144.656 351.16 144.261 351.137 143.818H352.16C352.2 144.213 352.379 144.54 352.697 144.798C353.018 145.054 353.401 145.182 353.847 145.182C354.205 145.182 354.524 145.098 354.802 144.93C355.083 144.763 355.303 144.533 355.463 144.24C355.624 143.945 355.705 143.611 355.705 143.239C355.705 142.858 355.622 142.518 355.454 142.22C355.289 141.919 355.062 141.682 354.772 141.509C354.482 141.335 354.151 141.247 353.779 141.244C353.512 141.241 353.238 141.283 352.957 141.368C352.676 141.45 352.444 141.557 352.262 141.688L351.274 141.568L351.802 137.273H356.336V138.21H352.688L352.382 140.784H352.433C352.612 140.642 352.836 140.524 353.106 140.43C353.376 140.337 353.657 140.29 353.95 140.29C354.484 140.29 354.96 140.418 355.377 140.673C355.798 140.926 356.127 141.273 356.366 141.713C356.607 142.153 356.728 142.656 356.728 143.222C356.728 143.778 356.603 144.276 356.353 144.713C356.106 145.148 355.765 145.491 355.33 145.744C354.896 145.994 354.401 146.119 353.847 146.119ZM358.421 146V145.233L361.302 142.08C361.64 141.71 361.918 141.389 362.137 141.116C362.356 140.841 362.518 140.582 362.623 140.341C362.731 140.097 362.785 139.841 362.785 139.574C362.785 139.267 362.711 139.001 362.563 138.777C362.418 138.553 362.219 138.379 361.966 138.257C361.714 138.135 361.43 138.074 361.114 138.074C360.779 138.074 360.486 138.143 360.236 138.283C359.989 138.419 359.797 138.611 359.661 138.858C359.528 139.105 359.461 139.395 359.461 139.727H358.455C358.455 139.216 358.573 138.767 358.809 138.381C359.045 137.994 359.366 137.693 359.772 137.477C360.181 137.261 360.64 137.153 361.148 137.153C361.66 137.153 362.113 137.261 362.508 137.477C362.903 137.693 363.212 137.984 363.437 138.351C363.661 138.717 363.773 139.125 363.773 139.574C363.773 139.895 363.715 140.209 363.599 140.516C363.485 140.82 363.286 141.159 363.002 141.534C362.721 141.906 362.33 142.361 361.83 142.898L359.87 144.994V145.062H363.927V146H358.421Z" fill="#738287"/>
<path d="M378 168L378 116" stroke="#738287"/>
<line x1="373" y1="116.5" x2="392" y2="116.5" stroke="#738287"/>
<line x1="373" y1="167.5" x2="392" y2="167.5" stroke="#738287"/>
<path d="M209.207 146.119C208.849 146.114 208.491 146.045 208.134 145.915C207.776 145.784 207.449 145.564 207.153 145.254C206.858 144.942 206.621 144.52 206.442 143.989C206.263 143.455 206.173 142.784 206.173 141.977C206.173 141.205 206.246 140.52 206.391 139.923C206.536 139.324 206.746 138.82 207.021 138.411C207.297 137.999 207.629 137.686 208.018 137.473C208.411 137.26 208.852 137.153 209.344 137.153C209.832 137.153 210.267 137.251 210.648 137.447C211.031 137.641 211.344 137.911 211.585 138.257C211.827 138.604 211.983 139.003 212.054 139.455H211.014C210.918 139.062 210.73 138.737 210.452 138.479C210.173 138.22 209.804 138.091 209.344 138.091C208.668 138.091 208.135 138.385 207.746 138.973C207.359 139.561 207.165 140.386 207.162 141.449H207.23C207.389 141.207 207.578 141.001 207.797 140.831C208.018 140.658 208.263 140.524 208.53 140.43C208.797 140.337 209.08 140.29 209.378 140.29C209.878 140.29 210.335 140.415 210.75 140.665C211.165 140.912 211.497 141.254 211.747 141.692C211.997 142.126 212.122 142.625 212.122 143.188C212.122 143.727 212.001 144.222 211.76 144.67C211.518 145.116 211.179 145.472 210.741 145.736C210.307 145.997 209.795 146.125 209.207 146.119ZM209.207 145.182C209.565 145.182 209.886 145.092 210.17 144.913C210.457 144.734 210.683 144.494 210.848 144.193C211.016 143.892 211.099 143.557 211.099 143.188C211.099 142.827 211.018 142.499 210.857 142.203C210.697 141.905 210.477 141.668 210.196 141.491C209.918 141.315 209.599 141.227 209.241 141.227C208.972 141.227 208.72 141.281 208.487 141.389C208.254 141.494 208.05 141.639 207.874 141.824C207.7 142.009 207.564 142.22 207.464 142.459C207.365 142.695 207.315 142.943 207.315 143.205C207.315 143.551 207.396 143.875 207.558 144.176C207.723 144.477 207.947 144.72 208.232 144.905C208.518 145.089 208.844 145.182 209.207 145.182ZM213.593 144.21V143.341L217.429 137.273H218.059V138.619H217.633L214.735 143.205V143.273H219.9V144.21H213.593ZM217.701 146V143.946V143.541V137.273H218.707V146H217.701Z" fill="#738287"/>
<path d="M234 174L234 110" stroke="#738287"/>
<line x1="229" y1="110.5" x2="248" y2="110.5" stroke="#738287"/>
<line x1="229" y1="173.5" x2="248" y2="173.5" stroke="#738287"/>
<path d="M51.598 146L55.5014 138.278V138.21H51.0014V137.273H56.5923V138.261L52.706 146H51.598ZM60.891 146.119C60.533 146.114 60.1751 146.045 59.8171 145.915C59.4592 145.784 59.1325 145.564 58.837 145.254C58.5415 144.942 58.3043 144.52 58.1254 143.989C57.9464 143.455 57.8569 142.784 57.8569 141.977C57.8569 141.205 57.9293 140.52 58.0742 139.923C58.2191 139.324 58.4293 138.82 58.7049 138.411C58.9805 137.999 59.3129 137.686 59.7021 137.473C60.0941 137.26 60.5359 137.153 61.0273 137.153C61.516 137.153 61.9506 137.251 62.3313 137.447C62.7148 137.641 63.0273 137.911 63.2688 138.257C63.5103 138.604 63.6665 139.003 63.7376 139.455H62.6978C62.6012 139.062 62.4137 138.737 62.1353 138.479C61.8569 138.22 61.4876 138.091 61.0273 138.091C60.3512 138.091 59.8185 138.385 59.4293 138.973C59.043 139.561 58.8484 140.386 58.8455 141.449H58.9137C59.0728 141.207 59.2617 141.001 59.4805 140.831C59.7021 140.658 59.9464 140.524 60.2134 140.43C60.4805 140.337 60.7631 140.29 61.0614 140.29C61.5614 140.29 62.0188 140.415 62.4336 140.665C62.8484 140.912 63.1808 141.254 63.4308 141.692C63.6808 142.126 63.8058 142.625 63.8058 143.188C63.8058 143.727 63.685 144.222 63.4435 144.67C63.2021 145.116 62.8626 145.472 62.4251 145.736C61.9904 145.997 61.479 146.125 60.891 146.119ZM60.891 145.182C61.2489 145.182 61.57 145.092 61.854 144.913C62.141 144.734 62.3668 144.494 62.5316 144.193C62.6992 143.892 62.783 143.557 62.783 143.188C62.783 142.827 62.7021 142.499 62.5401 142.203C62.381 141.905 62.1609 141.668 61.8796 141.491C61.6012 141.315 61.283 141.227 60.9251 141.227C60.6552 141.227 60.4038 141.281 60.1708 141.389C59.9379 141.494 59.7333 141.639 59.5572 141.824C59.3839 142.009 59.2475 142.22 59.1481 142.459C59.0487 142.695 58.9989 142.943 58.9989 143.205C58.9989 143.551 59.0799 143.875 59.2418 144.176C59.4066 144.477 59.631 144.72 59.9151 144.905C60.2021 145.089 60.5273 145.182 60.891 145.182Z" fill="#738287"/>
<path d="M78 180L78 104" stroke="#738287"/>
<line x1="73" y1="104.5" x2="92" y2="104.5" stroke="#738287"/>
<line x1="73" y1="179.5" x2="92" y2="179.5" stroke="#738287"/>
<path d="M281.515 214V213.233L284.395 210.08C284.733 209.71 285.012 209.389 285.231 209.116C285.449 208.841 285.611 208.582 285.716 208.341C285.824 208.097 285.878 207.841 285.878 207.574C285.878 207.267 285.805 207.001 285.657 206.777C285.512 206.553 285.313 206.379 285.06 206.257C284.807 206.135 284.523 206.074 284.208 206.074C283.873 206.074 283.58 206.143 283.33 206.283C283.083 206.419 282.891 206.611 282.755 206.858C282.621 207.105 282.555 207.395 282.555 207.727H281.549C281.549 207.216 281.667 206.767 281.903 206.381C282.138 205.994 282.459 205.693 282.866 205.477C283.275 205.261 283.733 205.153 284.242 205.153C284.753 205.153 285.206 205.261 285.601 205.477C285.996 205.693 286.306 205.984 286.53 206.351C286.755 206.717 286.867 207.125 286.867 207.574C286.867 207.895 286.809 208.209 286.692 208.516C286.579 208.82 286.38 209.159 286.096 209.534C285.814 209.906 285.424 210.361 284.924 210.898L282.964 212.994V213.062H287.02V214H281.515ZM288.388 212.21V211.341L292.224 205.273H292.854V206.619H292.428L289.53 211.205V211.273H294.695V212.21H288.388ZM292.496 214V211.946V211.541V205.273H293.502V214H292.496Z" fill="#738287"/>
<path d="M300 196L276 196" stroke="#738287"/>
<line x1="276.5" y1="201" x2="276.5" y2="182" stroke="#738287"/>
<line x1="299.5" y1="201" x2="299.5" y2="182" stroke="#738287"/>
<path d="M423.438 199.273V208H422.382V200.381H422.33L420.2 201.795V200.722L422.382 199.273H423.438ZM428.846 208.119C428.488 208.114 428.13 208.045 427.772 207.915C427.414 207.784 427.088 207.564 426.792 207.254C426.497 206.942 426.259 206.52 426.08 205.989C425.901 205.455 425.812 204.784 425.812 203.977C425.812 203.205 425.884 202.52 426.029 201.923C426.174 201.324 426.384 200.82 426.66 200.411C426.936 199.999 427.268 199.686 427.657 199.473C428.049 199.26 428.491 199.153 428.982 199.153C429.471 199.153 429.906 199.251 430.286 199.447C430.67 199.641 430.982 199.911 431.224 200.257C431.465 200.604 431.622 201.003 431.693 201.455H430.653C430.556 201.062 430.369 200.737 430.09 200.479C429.812 200.22 429.443 200.091 428.982 200.091C428.306 200.091 427.774 200.385 427.384 200.973C426.998 201.561 426.803 202.386 426.801 203.449H426.869C427.028 203.207 427.217 203.001 427.436 202.831C427.657 202.658 427.901 202.524 428.169 202.43C428.436 202.337 428.718 202.29 429.017 202.29C429.517 202.29 429.974 202.415 430.389 202.665C430.803 202.912 431.136 203.254 431.386 203.692C431.636 204.126 431.761 204.625 431.761 205.188C431.761 205.727 431.64 206.222 431.399 206.67C431.157 207.116 430.818 207.472 430.38 207.736C429.945 207.997 429.434 208.125 428.846 208.119ZM428.846 207.182C429.204 207.182 429.525 207.092 429.809 206.913C430.096 206.734 430.322 206.494 430.487 206.193C430.654 205.892 430.738 205.557 430.738 205.188C430.738 204.827 430.657 204.499 430.495 204.203C430.336 203.905 430.116 203.668 429.835 203.491C429.556 203.315 429.238 203.227 428.88 203.227C428.61 203.227 428.359 203.281 428.126 203.389C427.893 203.494 427.688 203.639 427.512 203.824C427.339 204.009 427.203 204.22 427.103 204.459C427.004 204.695 426.954 204.943 426.954 205.205C426.954 205.551 427.035 205.875 427.197 206.176C427.362 206.477 427.586 206.72 427.87 206.905C428.157 207.089 428.482 207.182 428.846 207.182Z" fill="#738287"/>
<path d="M434 190L418 190" stroke="#738287"/>
<line x1="418.5" y1="195" x2="418.5" y2="176" stroke="#738287"/>
<line x1="433.5" y1="195" x2="433.5" y2="176" stroke="#738287"/>
<path d="M131.573 220V219.233L134.454 216.08C134.792 215.71 135.07 215.389 135.289 215.116C135.508 214.841 135.67 214.582 135.775 214.341C135.883 214.097 135.937 213.841 135.937 213.574C135.937 213.267 135.863 213.001 135.715 212.777C135.57 212.553 135.372 212.379 135.119 212.257C134.866 212.135 134.582 212.074 134.267 212.074C133.931 212.074 133.639 212.143 133.389 212.283C133.142 212.419 132.95 212.611 132.813 212.858C132.68 213.105 132.613 213.395 132.613 213.727H131.607C131.607 213.216 131.725 212.767 131.961 212.381C132.197 211.994 132.518 211.693 132.924 211.477C133.333 211.261 133.792 211.153 134.301 211.153C134.812 211.153 135.265 211.261 135.66 211.477C136.055 211.693 136.365 211.984 136.589 212.351C136.813 212.717 136.926 213.125 136.926 213.574C136.926 213.895 136.867 214.209 136.751 214.516C136.637 214.82 136.438 215.159 136.154 215.534C135.873 215.906 135.482 216.361 134.982 216.898L133.022 218.994V219.062H137.079V220H131.573ZM141.634 220.119C141.049 220.119 140.532 220.016 140.083 219.808C139.637 219.598 139.289 219.31 139.039 218.943C138.789 218.574 138.666 218.153 138.669 217.682C138.666 217.312 138.738 216.972 138.886 216.659C139.034 216.344 139.235 216.081 139.491 215.871C139.749 215.658 140.038 215.523 140.356 215.466V215.415C139.938 215.307 139.606 215.072 139.359 214.712C139.112 214.348 138.99 213.935 138.992 213.472C138.99 213.028 139.102 212.632 139.329 212.283C139.556 211.933 139.869 211.658 140.267 211.456C140.667 211.254 141.123 211.153 141.634 211.153C142.14 211.153 142.592 211.254 142.99 211.456C143.387 211.658 143.7 211.933 143.927 212.283C144.157 212.632 144.274 213.028 144.276 213.472C144.274 213.935 144.147 214.348 143.897 214.712C143.65 215.072 143.322 215.307 142.913 215.415V215.466C143.228 215.523 143.512 215.658 143.765 215.871C144.018 216.081 144.22 216.344 144.37 216.659C144.521 216.972 144.597 217.312 144.6 217.682C144.597 218.153 144.47 218.574 144.217 218.943C143.967 219.31 143.619 219.598 143.173 219.808C142.73 220.016 142.217 220.119 141.634 220.119ZM141.634 219.182C142.029 219.182 142.37 219.118 142.657 218.99C142.944 218.862 143.166 218.682 143.322 218.449C143.478 218.216 143.558 217.943 143.561 217.631C143.558 217.301 143.472 217.01 143.305 216.757C143.137 216.504 142.909 216.305 142.619 216.161C142.332 216.016 142.004 215.943 141.634 215.943C141.262 215.943 140.93 216.016 140.637 216.161C140.347 216.305 140.119 216.504 139.951 216.757C139.786 217.01 139.705 217.301 139.708 217.631C139.705 217.943 139.781 218.216 139.934 218.449C140.09 218.682 140.313 218.862 140.603 218.99C140.893 219.118 141.237 219.182 141.634 219.182ZM141.634 215.04C141.947 215.04 142.224 214.977 142.465 214.852C142.71 214.727 142.901 214.553 143.041 214.328C143.18 214.104 143.251 213.841 143.254 213.54C143.251 213.244 143.181 212.987 143.045 212.768C142.909 212.547 142.72 212.376 142.478 212.257C142.237 212.135 141.955 212.074 141.634 212.074C141.308 212.074 141.022 212.135 140.778 212.257C140.534 212.376 140.345 212.547 140.211 212.768C140.078 212.987 140.012 213.244 140.015 213.54C140.012 213.841 140.079 214.104 140.215 214.328C140.355 214.553 140.546 214.727 140.791 214.852C141.035 214.977 141.316 215.04 141.634 215.04Z" fill="#738287"/>
<path d="M152 202H124" stroke="#738287"/>
<line x1="124.5" y1="207" x2="124.5" y2="188" stroke="#738287"/>
<line x1="151.5" y1="207" x2="151.5" y2="188" stroke="#738287"/>
</g>
<defs>
<clipPath id="clip0_1283_5454">
<rect width="552" height="276" fill="white"/>
</clipPath>
</defs>
</svg>
