<svg width="552" height="276" viewBox="0 0 552 276" fill="none" xmlns="http://www.w3.org/2000/svg">
<g clip-path="url(#clip0_1530_6150)">
<rect width="552" height="276" fill="#F2F6F9"/>
<rect x="176" y="66" width="201" height="64" fill="#058C50"/>
<path d="M229.115 90.4545V105H226.928V92.3295H220.081V105H217.894V90.4545H229.115ZM237.002 105.22C235.927 105.22 235.002 104.991 234.225 104.531C233.454 104.067 232.857 103.416 232.436 102.578C232.019 101.735 231.811 100.748 231.811 99.6165C231.811 98.4991 232.019 97.5142 232.436 96.6619C232.857 95.8097 233.444 95.1444 234.197 94.6662C234.954 94.188 235.84 93.9489 236.853 93.9489C237.469 93.9489 238.065 94.0507 238.643 94.2543C239.221 94.4579 239.739 94.7775 240.198 95.2131C240.658 95.6487 241.02 96.2145 241.285 96.9105C241.55 97.6018 241.683 98.4422 241.683 99.4318V100.185H233.011V98.5938H239.602C239.602 98.035 239.488 97.5402 239.261 97.1094C239.034 96.6738 238.714 96.3305 238.302 96.0795C237.895 95.8286 237.417 95.7031 236.867 95.7031C236.271 95.7031 235.75 95.8499 235.305 96.1435C234.865 96.4323 234.524 96.8111 234.282 97.2798C234.045 97.7438 233.927 98.2481 233.927 98.7926V100.036C233.927 100.765 234.055 101.385 234.311 101.896C234.571 102.408 234.933 102.798 235.397 103.068C235.861 103.333 236.403 103.466 237.024 103.466C237.426 103.466 237.793 103.409 238.124 103.295C238.456 103.177 238.742 103.002 238.984 102.77C239.225 102.538 239.41 102.251 239.538 101.911L241.548 102.273C241.387 102.865 241.098 103.383 240.681 103.828C240.269 104.268 239.751 104.612 239.126 104.858C238.506 105.099 237.798 105.22 237.002 105.22ZM244.039 109.091V94.0909H246.113V95.8594H246.29C246.413 95.6321 246.591 95.3693 246.823 95.071C247.055 94.7727 247.377 94.5123 247.789 94.2898C248.201 94.0625 248.745 93.9489 249.422 93.9489C250.303 93.9489 251.089 94.1714 251.78 94.6165C252.472 95.0616 253.014 95.7031 253.407 96.5412C253.805 97.3793 254.003 98.3878 254.003 99.5668C254.003 100.746 253.807 101.757 253.414 102.599C253.021 103.437 252.481 104.084 251.795 104.538C251.108 104.988 250.324 105.213 249.444 105.213C248.781 105.213 248.239 105.102 247.817 104.879C247.401 104.657 247.074 104.396 246.837 104.098C246.6 103.8 246.418 103.535 246.29 103.303H246.162V109.091H244.039ZM246.12 99.5455C246.12 100.312 246.231 100.985 246.454 101.562C246.676 102.14 246.998 102.592 247.42 102.919C247.841 103.241 248.357 103.402 248.968 103.402C249.602 103.402 250.133 103.234 250.559 102.898C250.985 102.557 251.307 102.095 251.525 101.513C251.747 100.93 251.858 100.275 251.858 99.5455C251.858 98.8258 251.75 98.1795 251.532 97.6065C251.319 97.0336 250.997 96.5814 250.566 96.25C250.14 95.9186 249.607 95.7528 248.968 95.7528C248.352 95.7528 247.831 95.9115 247.405 96.2287C246.984 96.5459 246.664 96.9886 246.447 97.5568C246.229 98.125 246.12 98.7879 246.12 99.5455ZM261.084 105.22C260.01 105.22 259.084 104.991 258.307 104.531C257.536 104.067 256.939 103.416 256.518 102.578C256.101 101.735 255.893 100.748 255.893 99.6165C255.893 98.4991 256.101 97.5142 256.518 96.6619C256.939 95.8097 257.526 95.1444 258.279 94.6662C259.037 94.188 259.922 93.9489 260.935 93.9489C261.551 93.9489 262.147 94.0507 262.725 94.2543C263.303 94.4579 263.821 94.7775 264.28 95.2131C264.74 95.6487 265.102 96.2145 265.367 96.9105C265.632 97.6018 265.765 98.4422 265.765 99.4318V100.185H257.093V98.5938H263.684C263.684 98.035 263.57 97.5402 263.343 97.1094C263.116 96.6738 262.796 96.3305 262.384 96.0795C261.977 95.8286 261.499 95.7031 260.949 95.7031C260.353 95.7031 259.832 95.8499 259.387 96.1435C258.947 96.4323 258.606 96.8111 258.364 97.2798C258.127 97.7438 258.009 98.2481 258.009 98.7926V100.036C258.009 100.765 258.137 101.385 258.393 101.896C258.653 102.408 259.015 102.798 259.479 103.068C259.943 103.333 260.485 103.466 261.106 103.466C261.508 103.466 261.875 103.409 262.206 103.295C262.538 103.177 262.824 103.002 263.066 102.77C263.307 102.538 263.492 102.251 263.62 101.911L265.63 102.273C265.469 102.865 265.18 103.383 264.763 103.828C264.351 104.268 263.833 104.612 263.208 104.858C262.588 105.099 261.88 105.22 261.084 105.22ZM270.202 102.024L275.01 94.0909H277.297V105H275.216V97.0597L270.429 105H268.121V94.0909H270.202V102.024ZM274.101 90.3977H275.848C275.848 91.1979 275.564 91.849 274.996 92.3509C274.432 92.848 273.67 93.0966 272.709 93.0966C271.753 93.0966 270.993 92.848 270.429 92.3509C269.866 91.849 269.584 91.1979 269.584 90.3977H271.324C271.324 90.7528 271.428 91.0677 271.637 91.3423C271.845 91.6122 272.202 91.7472 272.709 91.7472C273.206 91.7472 273.561 91.6122 273.774 91.3423C273.992 91.0724 274.101 90.7576 274.101 90.3977ZM278.799 95.9233V94.0909H288.004V95.9233H284.445V105H282.372V95.9233H278.799ZM292.331 102.024L297.139 94.0909H299.426V105H297.345V97.0597L292.558 105H290.25V94.0909H292.331V102.024Z" fill="white"/>
<path d="M317.5 96.9999H329.086L324.586 92.4999L326 91.0859L332.914 97.9999L326 104.914L324.586 103.5L329.086 98.9999H317.5V96.9999Z" fill="white"/>
<rect x="176.75" y="146.75" width="199.5" height="62.5" stroke="#058C50" stroke-width="1.5"/>
<path d="M231.051 170.455V185H228.863V172.33H222.017V185H219.829V170.455H231.051ZM234.236 189.091V174.091H236.31V175.859H236.488C236.611 175.632 236.788 175.369 237.02 175.071C237.252 174.773 237.574 174.512 237.986 174.29C238.398 174.062 238.943 173.949 239.62 173.949C240.5 173.949 241.286 174.171 241.978 174.616C242.669 175.062 243.211 175.703 243.604 176.541C244.002 177.379 244.201 178.388 244.201 179.567C244.201 180.746 244.004 181.757 243.611 182.599C243.218 183.437 242.678 184.084 241.992 184.538C241.305 184.988 240.522 185.213 239.641 185.213C238.978 185.213 238.436 185.102 238.015 184.879C237.598 184.657 237.271 184.396 237.034 184.098C236.798 183.8 236.615 183.535 236.488 183.303H236.36V189.091H234.236ZM236.317 179.545C236.317 180.312 236.428 180.985 236.651 181.562C236.873 182.14 237.195 182.592 237.617 182.919C238.038 183.241 238.554 183.402 239.165 183.402C239.8 183.402 240.33 183.234 240.756 182.898C241.182 182.557 241.504 182.095 241.722 181.513C241.944 180.93 242.056 180.275 242.056 179.545C242.056 178.826 241.947 178.179 241.729 177.607C241.516 177.034 241.194 176.581 240.763 176.25C240.337 175.919 239.804 175.753 239.165 175.753C238.55 175.753 238.029 175.911 237.603 176.229C237.181 176.546 236.862 176.989 236.644 177.557C236.426 178.125 236.317 178.788 236.317 179.545ZM251.175 185.22C250.152 185.22 249.26 184.986 248.498 184.517C247.735 184.048 247.143 183.393 246.722 182.55C246.301 181.707 246.09 180.722 246.09 179.595C246.09 178.464 246.301 177.474 246.722 176.626C247.143 175.779 247.735 175.121 248.498 174.652C249.26 174.183 250.152 173.949 251.175 173.949C252.198 173.949 253.09 174.183 253.853 174.652C254.615 175.121 255.207 175.779 255.628 176.626C256.05 177.474 256.26 178.464 256.26 179.595C256.26 180.722 256.05 181.707 255.628 182.55C255.207 183.393 254.615 184.048 253.853 184.517C253.09 184.986 252.198 185.22 251.175 185.22ZM251.182 183.438C251.845 183.438 252.394 183.262 252.83 182.912C253.266 182.562 253.587 182.095 253.796 181.513C254.009 180.93 254.115 180.289 254.115 179.588C254.115 178.892 254.009 178.253 253.796 177.67C253.587 177.083 253.266 176.612 252.83 176.257C252.394 175.902 251.845 175.724 251.182 175.724C250.515 175.724 249.961 175.902 249.52 176.257C249.085 176.612 248.76 177.083 248.547 177.67C248.339 178.253 248.235 178.892 248.235 179.588C248.235 180.289 248.339 180.93 248.547 181.513C248.76 182.095 249.085 182.562 249.52 182.912C249.961 183.262 250.515 183.438 251.182 183.438ZM258.631 185V174.091H267.53V185H265.449V175.923H260.697V185H258.631ZM271.321 189.091C271.003 189.091 270.715 189.065 270.454 189.013C270.194 188.965 270 188.913 269.872 188.857L270.383 187.116C270.771 187.221 271.117 187.266 271.42 187.251C271.723 187.237 271.991 187.124 272.223 186.911C272.459 186.697 272.668 186.349 272.848 185.866L273.11 185.142L269.119 174.091H271.392L274.154 182.557H274.268L277.031 174.091H279.311L274.815 186.456C274.607 187.024 274.342 187.505 274.02 187.898C273.698 188.295 273.314 188.594 272.869 188.793C272.424 188.991 271.908 189.091 271.321 189.091ZM285.531 185.22C284.475 185.22 283.566 184.981 282.803 184.503C282.046 184.02 281.463 183.355 281.056 182.507C280.649 181.66 280.445 180.689 280.445 179.595C280.445 178.487 280.654 177.509 281.07 176.662C281.487 175.81 282.074 175.144 282.832 174.666C283.589 174.188 284.482 173.949 285.509 173.949C286.338 173.949 287.076 174.103 287.725 174.411C288.374 174.714 288.897 175.14 289.295 175.689C289.697 176.238 289.936 176.88 290.012 177.614H287.945C287.832 177.102 287.571 176.662 287.164 176.293C286.762 175.923 286.222 175.739 285.545 175.739C284.953 175.739 284.434 175.895 283.989 176.207C283.549 176.515 283.206 176.955 282.96 177.528C282.713 178.097 282.59 178.769 282.59 179.545C282.59 180.341 282.711 181.027 282.952 181.605C283.194 182.183 283.535 182.63 283.975 182.947C284.42 183.265 284.943 183.423 285.545 183.423C285.947 183.423 286.312 183.35 286.638 183.203C286.97 183.052 287.247 182.836 287.469 182.557C287.697 182.277 287.855 181.941 287.945 181.548H290.012C289.936 182.254 289.707 182.884 289.323 183.438C288.94 183.991 288.426 184.427 287.782 184.744C287.143 185.062 286.392 185.22 285.531 185.22ZM291.457 175.923V174.091H300.662V175.923H297.104V185H295.03V175.923H291.457ZM304.989 182.024L309.797 174.091H312.084V185H310.003V177.06L305.216 185H302.908V174.091H304.989V182.024ZM313.586 175.923V174.091H322.791V175.923H319.233V185H317.159V175.923H313.586ZM326.635 177.841H329.803C331.138 177.841 332.165 178.172 332.885 178.835C333.605 179.498 333.964 180.353 333.964 181.399C333.964 182.081 333.804 182.694 333.482 183.239C333.16 183.783 332.688 184.214 332.068 184.531C331.448 184.844 330.693 185 329.803 185H325.037V174.091H327.118V183.168H329.803C330.413 183.168 330.915 183.009 331.308 182.692C331.701 182.37 331.898 181.96 331.898 181.463C331.898 180.937 331.701 180.509 331.308 180.178C330.915 179.841 330.413 179.673 329.803 179.673H326.635V177.841Z" fill="#058C50"/>
<path d="M118.679 224.773V223.818H124.168V224.773H118.679ZM124.168 221.159L118.679 223.136V222.097L122.514 220.835L122.48 220.903V220.733L122.514 220.801L118.679 219.54V218.5L124.168 220.477V221.159ZM129.657 226V225.233L132.538 222.08C132.876 221.71 133.154 221.389 133.373 221.116C133.592 220.841 133.754 220.582 133.859 220.341C133.967 220.097 134.021 219.841 134.021 219.574C134.021 219.267 133.947 219.001 133.799 218.777C133.654 218.553 133.456 218.379 133.203 218.257C132.95 218.135 132.666 218.074 132.35 218.074C132.015 218.074 131.723 218.143 131.473 218.283C131.225 218.419 131.034 218.611 130.897 218.858C130.764 219.105 130.697 219.395 130.697 219.727H129.691C129.691 219.216 129.809 218.767 130.045 218.381C130.281 217.994 130.602 217.693 131.008 217.477C131.417 217.261 131.876 217.153 132.385 217.153C132.896 217.153 133.349 217.261 133.744 217.477C134.139 217.693 134.449 217.984 134.673 218.351C134.897 218.717 135.01 219.125 135.01 219.574C135.01 219.895 134.951 220.209 134.835 220.516C134.721 220.82 134.522 221.159 134.238 221.534C133.957 221.906 133.566 222.361 133.066 222.898L131.106 224.994V225.062H135.163V226H129.657ZM136.531 224.21V223.341L140.366 217.273H140.997V218.619H140.571L137.673 223.205V223.273H142.838V224.21H136.531ZM140.639 226V223.946V223.541V217.273H141.645V226H140.639Z" fill="#738287"/>
<path d="M151.679 249.773V248.818H157.168V249.773H151.679ZM157.168 246.159L151.679 248.136V247.097L155.514 245.835L155.48 245.903V245.733L155.514 245.801L151.679 244.54V243.5L157.168 245.477V246.159ZM162.657 251V250.233L165.538 247.08C165.876 246.71 166.154 246.389 166.373 246.116C166.592 245.841 166.754 245.582 166.859 245.341C166.967 245.097 167.021 244.841 167.021 244.574C167.021 244.267 166.947 244.001 166.799 243.777C166.654 243.553 166.456 243.379 166.203 243.257C165.95 243.135 165.666 243.074 165.35 243.074C165.015 243.074 164.723 243.143 164.473 243.283C164.225 243.419 164.034 243.611 163.897 243.858C163.764 244.105 163.697 244.395 163.697 244.727H162.691C162.691 244.216 162.809 243.767 163.045 243.381C163.281 242.994 163.602 242.693 164.008 242.477C164.417 242.261 164.876 242.153 165.385 242.153C165.896 242.153 166.349 242.261 166.744 242.477C167.139 242.693 167.449 242.984 167.673 243.351C167.897 243.717 168.01 244.125 168.01 244.574C168.01 244.895 167.951 245.209 167.835 245.516C167.721 245.82 167.522 246.159 167.238 246.534C166.957 246.906 166.566 247.361 166.066 247.898L164.106 249.994V250.062H168.163V251H162.657ZM169.531 249.21V248.341L173.366 242.273H173.997V243.619H173.571L170.673 248.205V248.273H175.838V249.21H169.531ZM173.639 251V248.946V248.541V242.273H174.645V251H173.639Z" fill="#738287"/>
<rect x="175.25" y="65.25" width="202.5" height="145.5" stroke="#FF9F7E" stroke-width="1.5"/>
<rect x="152.75" y="42.75" width="246.5" height="190.5" stroke="#FF9F7E" stroke-width="1.5"/>
<rect x="176.75" y="130.75" width="199.5" height="14.5" stroke="#8ECBB0" stroke-width="1.5"/>
<path d="M412.087 133.773V142.5H411.03V134.881H410.979L408.848 136.295V135.222L411.03 133.773H412.087ZM417.494 142.619C417.137 142.614 416.779 142.545 416.421 142.415C416.063 142.284 415.736 142.064 415.441 141.754C415.145 141.442 414.908 141.02 414.729 140.489C414.55 139.955 414.46 139.284 414.46 138.477C414.46 137.705 414.533 137.02 414.678 136.423C414.823 135.824 415.033 135.32 415.308 134.911C415.584 134.499 415.916 134.186 416.306 133.973C416.698 133.76 417.139 133.653 417.631 133.653C418.119 133.653 418.554 133.751 418.935 133.947C419.318 134.141 419.631 134.411 419.872 134.757C420.114 135.104 420.27 135.503 420.341 135.955H419.301C419.205 135.562 419.017 135.237 418.739 134.979C418.46 134.72 418.091 134.591 417.631 134.591C416.955 134.591 416.422 134.885 416.033 135.473C415.646 136.061 415.452 136.886 415.449 137.949H415.517C415.676 137.707 415.865 137.501 416.084 137.331C416.306 137.158 416.55 137.024 416.817 136.93C417.084 136.837 417.367 136.79 417.665 136.79C418.165 136.79 418.622 136.915 419.037 137.165C419.452 137.412 419.784 137.754 420.034 138.192C420.284 138.626 420.409 139.125 420.409 139.688C420.409 140.227 420.289 140.722 420.047 141.17C419.806 141.616 419.466 141.972 419.029 142.236C418.594 142.497 418.083 142.625 417.494 142.619ZM417.494 141.682C417.852 141.682 418.173 141.592 418.458 141.413C418.744 141.234 418.97 140.994 419.135 140.693C419.303 140.392 419.387 140.057 419.387 139.688C419.387 139.327 419.306 138.999 419.144 138.703C418.985 138.405 418.764 138.168 418.483 137.991C418.205 137.815 417.887 137.727 417.529 137.727C417.259 137.727 417.007 137.781 416.774 137.889C416.541 137.994 416.337 138.139 416.161 138.324C415.987 138.509 415.851 138.72 415.752 138.959C415.652 139.195 415.602 139.443 415.602 139.705C415.602 140.051 415.683 140.375 415.845 140.676C416.01 140.977 416.235 141.22 416.519 141.405C416.806 141.589 417.131 141.682 417.494 141.682ZM428.562 133.364L425.75 143.812H424.829L427.642 133.364H428.562ZM433.112 142.5V141.733L435.993 138.58C436.331 138.21 436.61 137.889 436.828 137.616C437.047 137.341 437.209 137.082 437.314 136.841C437.422 136.597 437.476 136.341 437.476 136.074C437.476 135.767 437.402 135.501 437.254 135.277C437.11 135.053 436.911 134.879 436.658 134.757C436.405 134.635 436.121 134.574 435.806 134.574C435.47 134.574 435.178 134.643 434.928 134.783C434.681 134.919 434.489 135.111 434.352 135.358C434.219 135.605 434.152 135.895 434.152 136.227H433.146C433.146 135.716 433.264 135.267 433.5 134.881C433.736 134.494 434.057 134.193 434.463 133.977C434.872 133.761 435.331 133.653 435.84 133.653C436.351 133.653 436.804 133.761 437.199 133.977C437.594 134.193 437.904 134.484 438.128 134.851C438.352 135.217 438.465 135.625 438.465 136.074C438.465 136.395 438.406 136.709 438.29 137.016C438.176 137.32 437.977 137.659 437.693 138.034C437.412 138.406 437.021 138.861 436.521 139.398L434.561 141.494V141.562H438.618V142.5H433.112ZM439.986 140.71V139.841L443.821 133.773H444.452V135.119H444.026L441.128 139.705V139.773H446.293V140.71H439.986ZM444.094 142.5V140.446V140.041V133.773H445.1V142.5H444.094ZM451.282 144.955V135.955H452.253V136.994H452.373C452.447 136.881 452.549 136.736 452.68 136.56C452.813 136.381 453.003 136.222 453.251 136.082C453.501 135.94 453.839 135.869 454.265 135.869C454.816 135.869 455.302 136.007 455.722 136.283C456.143 136.558 456.471 136.949 456.706 137.455C456.942 137.96 457.06 138.557 457.06 139.244C457.06 139.938 456.942 140.538 456.706 141.047C456.471 141.553 456.144 141.945 455.726 142.223C455.309 142.499 454.827 142.636 454.282 142.636C453.861 142.636 453.525 142.567 453.272 142.428C453.019 142.286 452.824 142.125 452.688 141.946C452.552 141.764 452.447 141.614 452.373 141.494H452.287V144.955H451.282ZM452.27 139.227C452.27 139.722 452.343 140.158 452.488 140.536C452.633 140.911 452.844 141.205 453.123 141.418C453.401 141.628 453.742 141.733 454.145 141.733C454.566 141.733 454.917 141.622 455.198 141.401C455.482 141.176 455.695 140.875 455.837 140.497C455.982 140.116 456.055 139.693 456.055 139.227C456.055 138.767 455.983 138.352 455.841 137.983C455.702 137.611 455.491 137.317 455.206 137.101C454.925 136.882 454.572 136.773 454.145 136.773C453.736 136.773 453.393 136.876 453.114 137.084C452.836 137.288 452.626 137.575 452.483 137.945C452.341 138.311 452.27 138.739 452.27 139.227ZM459.075 135.955L460.643 138.631L462.211 135.955H463.37L461.257 139.227L463.37 142.5H462.211L460.643 139.96L459.075 142.5H457.916L459.995 139.227L457.916 135.955H459.075Z" fill="#738287"/>
</g>
<defs>
<clipPath id="clip0_1530_6150">
<rect width="552" height="276" fill="white"/>
</clipPath>
</defs>
</svg>
