<svg width="552" height="276" viewBox="0 0 552 276" fill="none" xmlns="http://www.w3.org/2000/svg">
<g clip-path="url(#clip0_1530_6128)">
<rect width="552" height="276" fill="#F2F6F9"/>
<line x1="249.75" y1="170" x2="249.75" y2="106" stroke="#8ECBB0" stroke-width="1.5"/>
<line x1="250" y1="169.25" x2="269" y2="169.25" stroke="#8ECBB0" stroke-width="1.5"/>
<line x1="250" y1="106.75" x2="269" y2="106.75" stroke="#8ECBB0" stroke-width="1.5"/>
<line x1="268.25" y1="170" x2="268.25" y2="106" stroke="#8ECBB0" stroke-width="1.5"/>
<path d="M12.679 185.773V184.818H18.1676V185.773H12.679ZM18.1676 182.159L12.679 184.136V183.097L16.5142 181.835L16.4801 181.903V181.733L16.5142 181.801L12.679 180.54V179.5L18.1676 181.477V182.159ZM23.6573 187V186.233L26.538 183.08C26.8761 182.71 27.1545 182.389 27.3732 182.116C27.592 181.841 27.7539 181.582 27.859 181.341C27.967 181.097 28.021 180.841 28.021 180.574C28.021 180.267 27.9471 180.001 27.7994 179.777C27.6545 179.553 27.4556 179.379 27.2028 179.257C26.9499 179.135 26.6658 179.074 26.3505 179.074C26.0153 179.074 25.7227 179.143 25.4727 179.283C25.2255 179.419 25.0337 179.611 24.8974 179.858C24.7638 180.105 24.6971 180.395 24.6971 180.727H23.6914C23.6914 180.216 23.8093 179.767 24.0451 179.381C24.2809 178.994 24.6019 178.693 25.0082 178.477C25.4173 178.261 25.8761 178.153 26.3846 178.153C26.896 178.153 27.3491 178.261 27.744 178.477C28.1388 178.693 28.4485 178.984 28.6729 179.351C28.8974 179.717 29.0096 180.125 29.0096 180.574C29.0096 180.895 28.9513 181.209 28.8349 181.516C28.7212 181.82 28.5224 182.159 28.2383 182.534C27.957 182.906 27.5664 183.361 27.0664 183.898L25.1062 185.994V186.062H29.163V187H23.6573ZM30.5309 185.21V184.341L34.3661 178.273H34.9968V179.619H34.5707L31.6729 184.205V184.273H36.8377V185.21H30.5309ZM34.6388 187V184.946V184.541V178.273H35.6445V187H34.6388Z" fill="#738287"/>
<path d="M252.515 187V186.233L255.395 183.08C255.733 182.71 256.012 182.389 256.231 182.116C256.449 181.841 256.611 181.582 256.716 181.341C256.824 181.097 256.878 180.841 256.878 180.574C256.878 180.267 256.805 180.001 256.657 179.777C256.512 179.553 256.313 179.379 256.06 179.257C255.807 179.135 255.523 179.074 255.208 179.074C254.873 179.074 254.58 179.143 254.33 179.283C254.083 179.419 253.891 179.611 253.755 179.858C253.621 180.105 253.555 180.395 253.555 180.727H252.549C252.549 180.216 252.667 179.767 252.903 179.381C253.138 178.994 253.459 178.693 253.866 178.477C254.275 178.261 254.733 178.153 255.242 178.153C255.753 178.153 256.206 178.261 256.601 178.477C256.996 178.693 257.306 178.984 257.53 179.351C257.755 179.717 257.867 180.125 257.867 180.574C257.867 180.895 257.809 181.209 257.692 181.516C257.579 181.82 257.38 182.159 257.096 182.534C256.814 182.906 256.424 183.361 255.924 183.898L253.964 185.994V186.062H258.02V187H252.515ZM259.388 185.21V184.341L263.224 178.273H263.854V179.619H263.428L260.53 184.205V184.273H265.695V185.21H259.388ZM263.496 187V184.946V184.541V178.273H264.502V187H263.496Z" fill="#738287"/>
<path d="M46.679 209.773V208.818H52.1676V209.773H46.679ZM52.1676 206.159L46.679 208.136V207.097L50.5142 205.835L50.4801 205.903V205.733L50.5142 205.801L46.679 204.54V203.5L52.1676 205.477V206.159ZM57.6573 211V210.233L60.538 207.08C60.8761 206.71 61.1545 206.389 61.3732 206.116C61.592 205.841 61.7539 205.582 61.859 205.341C61.967 205.097 62.021 204.841 62.021 204.574C62.021 204.267 61.9471 204.001 61.7994 203.777C61.6545 203.553 61.4556 203.379 61.2028 203.257C60.9499 203.135 60.6658 203.074 60.3505 203.074C60.0153 203.074 59.7227 203.143 59.4727 203.283C59.2255 203.419 59.0337 203.611 58.8974 203.858C58.7638 204.105 58.6971 204.395 58.6971 204.727H57.6914C57.6914 204.216 57.8093 203.767 58.0451 203.381C58.2809 202.994 58.6019 202.693 59.0082 202.477C59.4173 202.261 59.8761 202.153 60.3846 202.153C60.896 202.153 61.3491 202.261 61.744 202.477C62.1388 202.693 62.4485 202.984 62.6729 203.351C62.8974 203.717 63.0096 204.125 63.0096 204.574C63.0096 204.895 62.9513 205.209 62.8349 205.516C62.7212 205.82 62.5224 206.159 62.2383 206.534C61.957 206.906 61.5664 207.361 61.0664 207.898L59.1062 209.994V210.062H63.163V211H57.6573ZM64.5309 209.21V208.341L68.3661 202.273H68.9968V203.619H68.5707L65.6729 208.205V208.273H70.8377V209.21H64.5309ZM68.6388 211V208.946V208.541V202.273H69.6445V211H68.6388Z" fill="#738287"/>
<rect x="70.75" y="106.75" width="177.5" height="62.5" stroke="#058C50" stroke-width="1.5"/>
<path d="M124.622 137.727C124.622 139.28 124.338 140.616 123.769 141.733C123.201 142.846 122.422 143.703 121.433 144.304C120.448 144.901 119.328 145.199 118.073 145.199C116.814 145.199 115.689 144.901 114.7 144.304C113.715 143.703 112.938 142.843 112.37 141.726C111.802 140.608 111.518 139.276 111.518 137.727C111.518 136.174 111.802 134.841 112.37 133.729C112.938 132.611 113.715 131.754 114.7 131.158C115.689 130.556 116.814 130.256 118.073 130.256C119.328 130.256 120.448 130.556 121.433 131.158C122.422 131.754 123.201 132.611 123.769 133.729C124.338 134.841 124.622 136.174 124.622 137.727ZM122.448 137.727C122.448 136.544 122.257 135.547 121.873 134.737C121.494 133.923 120.973 133.307 120.311 132.891C119.652 132.469 118.907 132.259 118.073 132.259C117.235 132.259 116.487 132.469 115.829 132.891C115.171 133.307 114.65 133.923 114.267 134.737C113.888 135.547 113.698 136.544 113.698 137.727C113.698 138.911 113.888 139.91 114.267 140.724C114.65 141.534 115.171 142.15 115.829 142.571C116.487 142.988 117.235 143.196 118.073 143.196C118.907 143.196 119.652 142.988 120.311 142.571C120.973 142.15 121.494 141.534 121.873 140.724C122.257 139.91 122.448 138.911 122.448 137.727ZM126.577 135.923V134.091H135.781V135.923H132.223V145H130.149V135.923H126.577ZM144.149 142.372L147.672 134.091H149.504L144.938 145H143.361L138.887 134.091H140.698L144.149 142.372ZM140.108 134.091V145H138.027V134.091H140.108ZM148.247 145V134.091H150.314V145H148.247ZM157.846 145.22C156.771 145.22 155.846 144.991 155.069 144.531C154.297 144.067 153.701 143.416 153.279 142.578C152.863 141.735 152.654 140.748 152.654 139.616C152.654 138.499 152.863 137.514 153.279 136.662C153.701 135.81 154.288 135.144 155.041 134.666C155.798 134.188 156.684 133.949 157.697 133.949C158.312 133.949 158.909 134.051 159.487 134.254C160.064 134.458 160.583 134.777 161.042 135.213C161.501 135.649 161.864 136.214 162.129 136.911C162.394 137.602 162.526 138.442 162.526 139.432V140.185H153.855V138.594H160.445C160.445 138.035 160.332 137.54 160.105 137.109C159.877 136.674 159.558 136.33 159.146 136.08C158.739 135.829 158.26 135.703 157.711 135.703C157.115 135.703 156.594 135.85 156.149 136.143C155.708 136.432 155.367 136.811 155.126 137.28C154.889 137.744 154.771 138.248 154.771 138.793V140.036C154.771 140.765 154.899 141.385 155.154 141.896C155.415 142.408 155.777 142.798 156.241 143.068C156.705 143.333 157.247 143.466 157.867 143.466C158.27 143.466 158.637 143.409 158.968 143.295C159.3 143.177 159.586 143.002 159.828 142.77C160.069 142.538 160.254 142.251 160.382 141.911L162.392 142.273C162.231 142.865 161.942 143.383 161.525 143.828C161.113 144.268 160.595 144.612 159.97 144.858C159.349 145.099 158.642 145.22 157.846 145.22ZM172.276 138.629V140.469H166.367V138.629H172.276ZM166.964 134.091V145H164.883V134.091H166.964ZM173.76 134.091V145H171.687V134.091H173.76ZM178.682 142.024L183.491 134.091H185.778V145H183.697V137.06L178.91 145H176.601V134.091H178.682V142.024ZM187.28 135.923V134.091H196.484V135.923H192.926V145H190.852V135.923H187.28ZM200.328 137.841H203.496C204.831 137.841 205.859 138.172 206.578 138.835C207.298 139.498 207.658 140.353 207.658 141.399C207.658 142.081 207.497 142.694 207.175 143.239C206.853 143.783 206.382 144.214 205.762 144.531C205.141 144.844 204.386 145 203.496 145H198.73V134.091H200.811V143.168H203.496C204.107 143.168 204.609 143.009 205.002 142.692C205.395 142.37 205.591 141.96 205.591 141.463C205.591 140.937 205.395 140.509 205.002 140.178C204.609 139.841 204.107 139.673 203.496 139.673H200.328V137.841Z" fill="#058C50"/>
<rect x="269" y="106" width="213" height="64" fill="#058C50"/>
<path d="M322.443 130.455V145H320.256V132.33H313.409V145H311.222V130.455H322.443ZM330.224 145.22C329.201 145.22 328.309 144.986 327.546 144.517C326.784 144.048 326.192 143.393 325.771 142.55C325.349 141.707 325.139 140.722 325.139 139.595C325.139 138.464 325.349 137.474 325.771 136.626C326.192 135.779 326.784 135.121 327.546 134.652C328.309 134.183 329.201 133.949 330.224 133.949C331.247 133.949 332.139 134.183 332.901 134.652C333.664 135.121 334.256 135.779 334.677 136.626C335.098 137.474 335.309 138.464 335.309 139.595C335.309 140.722 335.098 141.707 334.677 142.55C334.256 143.393 333.664 144.048 332.901 144.517C332.139 144.986 331.247 145.22 330.224 145.22ZM330.231 143.438C330.894 143.438 331.443 143.262 331.879 142.912C332.314 142.562 332.636 142.095 332.845 141.513C333.058 140.93 333.164 140.289 333.164 139.588C333.164 138.892 333.058 138.253 332.845 137.67C332.636 137.083 332.314 136.612 331.879 136.257C331.443 135.902 330.894 135.724 330.231 135.724C329.563 135.724 329.009 135.902 328.569 136.257C328.133 136.612 327.809 137.083 327.596 137.67C327.388 138.253 327.284 138.892 327.284 139.588C327.284 140.289 327.388 140.93 327.596 141.513C327.809 142.095 328.133 142.562 328.569 142.912C329.009 143.262 329.563 143.438 330.231 143.438ZM336.614 148.146V143.161H337.502C337.729 142.952 337.921 142.704 338.077 142.415C338.238 142.126 338.373 141.783 338.482 141.385C338.596 140.987 338.69 140.523 338.766 139.993C338.842 139.458 338.908 138.847 338.965 138.161L339.306 134.091H346.721V143.161H348.397V148.146H346.323V145H338.716V148.146H336.614ZM339.775 143.161H344.647V135.909H341.209L340.982 138.161C340.873 139.306 340.736 140.301 340.57 141.143C340.404 141.982 340.139 142.654 339.775 143.161ZM349.862 135.923V134.091H359.066V135.923H355.508V145H353.434V135.923H349.862ZM361.312 145V134.091H365.836C367.068 134.091 368.043 134.354 368.763 134.879C369.482 135.4 369.842 136.108 369.842 137.003C369.842 137.642 369.639 138.149 369.231 138.523C368.824 138.897 368.284 139.148 367.612 139.276C368.1 139.332 368.547 139.479 368.954 139.716C369.362 139.948 369.688 140.26 369.934 140.653C370.185 141.046 370.311 141.515 370.311 142.06C370.311 142.637 370.162 143.149 369.863 143.594C369.565 144.034 369.132 144.38 368.564 144.631C368 144.877 367.321 145 366.525 145H361.312ZM363.308 143.224H366.525C367.051 143.224 367.463 143.099 367.761 142.848C368.059 142.597 368.209 142.256 368.209 141.825C368.209 141.319 368.059 140.921 367.761 140.632C367.463 140.339 367.051 140.192 366.525 140.192H363.308V143.224ZM363.308 138.636H365.858C366.256 138.636 366.596 138.58 366.881 138.466C367.169 138.352 367.39 138.191 367.541 137.983C367.697 137.77 367.775 137.519 367.775 137.23C367.775 136.809 367.603 136.48 367.257 136.243C366.911 136.006 366.438 135.888 365.836 135.888H363.308V138.636ZM377.342 145.22C376.267 145.22 375.342 144.991 374.565 144.531C373.793 144.067 373.197 143.416 372.775 142.578C372.359 141.735 372.15 140.748 372.15 139.616C372.15 138.499 372.359 137.514 372.775 136.662C373.197 135.81 373.784 135.144 374.537 134.666C375.294 134.188 376.18 133.949 377.193 133.949C377.809 133.949 378.405 134.051 378.983 134.254C379.56 134.458 380.079 134.777 380.538 135.213C380.997 135.649 381.36 136.214 381.625 136.911C381.89 137.602 382.023 138.442 382.023 139.432V140.185H373.351V138.594H379.942C379.942 138.035 379.828 137.54 379.601 137.109C379.373 136.674 379.054 136.33 378.642 136.08C378.235 135.829 377.756 135.703 377.207 135.703C376.611 135.703 376.09 135.85 375.645 136.143C375.204 136.432 374.863 136.811 374.622 137.28C374.385 137.744 374.267 138.248 374.267 138.793V140.036C374.267 140.765 374.395 141.385 374.65 141.896C374.911 142.408 375.273 142.798 375.737 143.068C376.201 143.333 376.743 143.466 377.363 143.466C377.766 143.466 378.133 143.409 378.464 143.295C378.796 143.177 379.082 143.002 379.324 142.77C379.565 142.538 379.75 142.251 379.878 141.911L381.888 142.273C381.727 142.865 381.438 143.383 381.021 143.828C380.609 144.268 380.091 144.612 379.466 144.858C378.845 145.099 378.138 145.22 377.342 145.22ZM384.379 149.091V134.091H386.453V135.859H386.63C386.753 135.632 386.931 135.369 387.163 135.071C387.395 134.773 387.717 134.512 388.129 134.29C388.541 134.062 389.085 133.949 389.762 133.949C390.643 133.949 391.429 134.171 392.12 134.616C392.811 135.062 393.354 135.703 393.747 136.541C394.144 137.379 394.343 138.388 394.343 139.567C394.343 140.746 394.147 141.757 393.754 142.599C393.361 143.437 392.821 144.084 392.134 144.538C391.448 144.988 390.664 145.213 389.784 145.213C389.121 145.213 388.579 145.102 388.157 144.879C387.74 144.657 387.414 144.396 387.177 144.098C386.94 143.8 386.758 143.535 386.63 143.303H386.502V149.091H384.379ZM386.46 139.545C386.46 140.312 386.571 140.985 386.794 141.562C387.016 142.14 387.338 142.592 387.759 142.919C388.181 143.241 388.697 143.402 389.308 143.402C389.942 143.402 390.472 143.234 390.899 142.898C391.325 142.557 391.647 142.095 391.865 141.513C392.087 140.93 392.198 140.275 392.198 139.545C392.198 138.826 392.089 138.179 391.872 137.607C391.659 137.034 391.337 136.581 390.906 136.25C390.48 135.919 389.947 135.753 389.308 135.753C388.692 135.753 388.171 135.911 387.745 136.229C387.324 136.546 387.004 136.989 386.786 137.557C386.569 138.125 386.46 138.788 386.46 139.545ZM395.657 148.146V143.161H396.545C396.772 142.952 396.964 142.704 397.12 142.415C397.281 142.126 397.416 141.783 397.525 141.385C397.639 140.987 397.733 140.523 397.809 139.993C397.885 139.458 397.951 138.847 398.008 138.161L398.349 134.091H405.764V143.161H407.44V148.146H405.366V145H397.759V148.146H395.657ZM398.818 143.161H403.69V135.909H400.252L400.025 138.161C399.916 139.306 399.779 140.301 399.613 141.143C399.447 141.982 399.182 142.654 398.818 143.161ZM411.596 142.024L416.405 134.091H418.692V145H416.611V137.06L411.824 145H409.515V134.091H411.596V142.024ZM420.194 135.923V134.091H429.398V135.923H425.84V145H423.766V135.923H420.194ZM433.242 137.841H436.41C437.745 137.841 438.773 138.172 439.492 138.835C440.212 139.498 440.572 140.353 440.572 141.399C440.572 142.081 440.411 142.694 440.089 143.239C439.767 143.783 439.296 144.214 438.676 144.531C438.055 144.844 437.3 145 436.41 145H431.644V134.091H433.725V143.168H436.41C437.021 143.168 437.523 143.009 437.916 142.692C438.309 142.37 438.505 141.96 438.505 141.463C438.505 140.937 438.309 140.509 437.916 140.178C437.523 139.841 437.021 139.673 436.41 139.673H433.242V137.841Z" fill="white"/>
<rect x="69.25" y="105.25" width="413.5" height="65.5" stroke="#FF9F7E" stroke-width="1.5"/>
<rect x="46.75" y="82.75" width="458.5" height="110.5" stroke="#FF9F7E" stroke-width="1.5"/>
</g>
<defs>
<clipPath id="clip0_1530_6128">
<rect width="552" height="276" fill="white"/>
</clipPath>
</defs>
</svg>
