<svg width="552" height="552" viewBox="0 0 552 552" fill="none" xmlns="http://www.w3.org/2000/svg">
<rect width="552" height="552" fill="#F2F6F9"/>
<rect x="200" y="124" width="152" height="64" fill="#058C50"/>
<path d="M250.573 163L245.687 156.48H244.138V163H241.944V148.455H244.138V154.598H244.856L250.353 148.455H253.03L247.214 154.967L253.251 163H250.573ZM262.507 156.629V158.469H256.597V156.629H262.507ZM257.194 152.091V163H255.113V152.091H257.194ZM263.991 152.091V163H261.917V152.091H263.991ZM271.427 163.22C270.404 163.22 269.512 162.986 268.749 162.517C267.987 162.048 267.395 161.393 266.974 160.55C266.552 159.707 266.342 158.722 266.342 157.595C266.342 156.464 266.552 155.474 266.974 154.626C267.395 153.779 267.987 153.121 268.749 152.652C269.512 152.183 270.404 151.949 271.427 151.949C272.45 151.949 273.342 152.183 274.105 152.652C274.867 153.121 275.459 153.779 275.88 154.626C276.302 155.474 276.512 156.464 276.512 157.595C276.512 158.722 276.302 159.707 275.88 160.55C275.459 161.393 274.867 162.048 274.105 162.517C273.342 162.986 272.45 163.22 271.427 163.22ZM271.434 161.438C272.097 161.438 272.646 161.262 273.082 160.912C273.517 160.562 273.839 160.095 274.048 159.513C274.261 158.93 274.367 158.289 274.367 157.588C274.367 156.892 274.261 156.253 274.048 155.67C273.839 155.083 273.517 154.612 273.082 154.257C272.646 153.902 272.097 153.724 271.434 153.724C270.767 153.724 270.213 153.902 269.772 154.257C269.337 154.612 269.012 155.083 268.799 155.67C268.591 156.253 268.487 156.892 268.487 157.588C268.487 158.289 268.591 158.93 268.799 159.513C269.012 160.095 269.337 160.562 269.772 160.912C270.213 161.262 270.767 161.438 271.434 161.438ZM278.883 163V152.091H287.782V163H285.701V153.923H280.949V163H278.883ZM290.621 163V152.091H292.744V156.665H293.767L297.368 152.091H299.996L295.77 157.396L300.046 163H297.411L294.122 158.639H292.744V163H290.621ZM304.87 163.241C304.179 163.241 303.554 163.114 302.995 162.858C302.436 162.598 301.993 162.221 301.667 161.729C301.345 161.236 301.184 160.633 301.184 159.918C301.184 159.302 301.302 158.795 301.539 158.398C301.776 158 302.095 157.685 302.498 157.453C302.9 157.221 303.35 157.046 303.847 156.928C304.344 156.809 304.851 156.719 305.367 156.658C306.02 156.582 306.551 156.52 306.958 156.473C307.365 156.421 307.661 156.338 307.846 156.224C308.03 156.111 308.123 155.926 308.123 155.67V155.621C308.123 155 307.948 154.52 307.597 154.179C307.251 153.838 306.735 153.668 306.049 153.668C305.334 153.668 304.77 153.826 304.358 154.143C303.951 154.456 303.67 154.804 303.513 155.188L301.518 154.733C301.754 154.07 302.1 153.535 302.555 153.128C303.014 152.716 303.542 152.418 304.138 152.233C304.735 152.044 305.362 151.949 306.02 151.949C306.456 151.949 306.918 152.001 307.405 152.105C307.898 152.205 308.357 152.389 308.783 152.659C309.214 152.929 309.567 153.315 309.841 153.817C310.116 154.314 310.253 154.96 310.253 155.756V163H308.18V161.509H308.094C307.957 161.783 307.751 162.053 307.476 162.318C307.202 162.583 306.849 162.804 306.418 162.979C305.987 163.154 305.471 163.241 304.87 163.241ZM305.331 161.537C305.919 161.537 306.421 161.421 306.837 161.189C307.259 160.957 307.578 160.654 307.796 160.28C308.019 159.901 308.13 159.496 308.13 159.065V157.659C308.054 157.735 307.907 157.806 307.689 157.872C307.476 157.934 307.233 157.988 306.958 158.036C306.683 158.078 306.416 158.118 306.155 158.156C305.895 158.189 305.677 158.218 305.502 158.241C305.09 158.294 304.714 158.381 304.373 158.504C304.037 158.627 303.767 158.805 303.563 159.037C303.364 159.264 303.265 159.567 303.265 159.946C303.265 160.472 303.459 160.869 303.847 161.139C304.235 161.404 304.73 161.537 305.331 161.537Z" fill="white"/>
<rect x="182" y="204" width="188" height="64" fill="#058C50"/>
<path d="M234.001 227.818C235.216 226.751 236.799 226.198 238.414 226.277C240.03 226.356 241.551 227.06 242.657 228.24C243.762 229.421 244.365 230.985 244.338 232.602C244.311 234.219 243.656 235.762 242.511 236.905L237.287 242.13L234 245.415L226.72 238.136L225.49 236.904C224.349 235.761 223.697 234.219 223.671 232.603C223.646 230.988 224.249 229.426 225.353 228.247C226.457 227.068 227.976 226.364 229.59 226.284C231.203 226.204 232.785 226.754 234 227.818H234.001ZM237.286 239.303L241.097 235.491C241.49 235.098 241.801 234.632 242.014 234.119C242.226 233.606 242.336 233.056 242.336 232.501C242.336 231.946 242.226 231.396 242.014 230.883C241.801 230.37 241.49 229.904 241.097 229.511C240.704 229.118 240.238 228.807 239.725 228.594C239.212 228.382 238.662 228.273 238.107 228.273C237.552 228.273 237.002 228.382 236.489 228.594C235.976 228.807 235.51 229.118 235.117 229.511L234 230.627L232.883 229.51C232.09 228.717 231.015 228.272 229.893 228.272C228.772 228.272 227.696 228.717 226.903 229.51C226.11 230.303 225.665 231.379 225.665 232.5C225.665 233.622 226.11 234.697 226.903 235.49L228.135 236.722L234 242.587L237.285 239.302L237.286 239.303Z" fill="white"/>
<path d="M268.573 243L263.687 236.48H262.138V243H259.944V228.455H262.138V234.598H262.856L268.353 228.455H271.03L265.214 234.967L271.251 243H268.573ZM280.507 236.629V238.469H274.597V236.629H280.507ZM275.194 232.091V243H273.113V232.091H275.194ZM281.991 232.091V243H279.917V232.091H281.991ZM289.427 243.22C288.404 243.22 287.512 242.986 286.749 242.517C285.987 242.048 285.395 241.393 284.974 240.55C284.552 239.707 284.342 238.722 284.342 237.595C284.342 236.464 284.552 235.474 284.974 234.626C285.395 233.779 285.987 233.121 286.749 232.652C287.512 232.183 288.404 231.949 289.427 231.949C290.45 231.949 291.342 232.183 292.105 232.652C292.867 233.121 293.459 233.779 293.88 234.626C294.302 235.474 294.512 236.464 294.512 237.595C294.512 238.722 294.302 239.707 293.88 240.55C293.459 241.393 292.867 242.048 292.105 242.517C291.342 242.986 290.45 243.22 289.427 243.22ZM289.434 241.438C290.097 241.438 290.646 241.262 291.082 240.912C291.517 240.562 291.839 240.095 292.048 239.513C292.261 238.93 292.367 238.289 292.367 237.588C292.367 236.892 292.261 236.253 292.048 235.67C291.839 235.083 291.517 234.612 291.082 234.257C290.646 233.902 290.097 233.724 289.434 233.724C288.767 233.724 288.213 233.902 287.772 234.257C287.337 234.612 287.012 235.083 286.799 235.67C286.591 236.253 286.487 236.892 286.487 237.588C286.487 238.289 286.591 238.93 286.799 239.513C287.012 240.095 287.337 240.562 287.772 240.912C288.213 241.262 288.767 241.438 289.434 241.438ZM296.883 243V232.091H305.782V243H303.701V233.923H298.949V243H296.883ZM308.621 243V232.091H310.744V236.665H311.767L315.368 232.091H317.996L313.77 237.396L318.046 243H315.411L312.122 238.639H310.744V243H308.621ZM322.87 243.241C322.179 243.241 321.554 243.114 320.995 242.858C320.436 242.598 319.993 242.221 319.667 241.729C319.345 241.236 319.184 240.633 319.184 239.918C319.184 239.302 319.302 238.795 319.539 238.398C319.776 238 320.095 237.685 320.498 237.453C320.9 237.221 321.35 237.046 321.847 236.928C322.344 236.809 322.851 236.719 323.367 236.658C324.02 236.582 324.551 236.52 324.958 236.473C325.365 236.421 325.661 236.338 325.846 236.224C326.03 236.111 326.123 235.926 326.123 235.67V235.621C326.123 235 325.948 234.52 325.597 234.179C325.251 233.838 324.735 233.668 324.049 233.668C323.334 233.668 322.77 233.826 322.358 234.143C321.951 234.456 321.67 234.804 321.513 235.188L319.518 234.733C319.754 234.07 320.1 233.535 320.555 233.128C321.014 232.716 321.542 232.418 322.138 232.233C322.735 232.044 323.362 231.949 324.02 231.949C324.456 231.949 324.918 232.001 325.405 232.105C325.898 232.205 326.357 232.389 326.783 232.659C327.214 232.929 327.567 233.315 327.841 233.817C328.116 234.314 328.253 234.96 328.253 235.756V243H326.18V241.509H326.094C325.957 241.783 325.751 242.053 325.476 242.318C325.202 242.583 324.849 242.804 324.418 242.979C323.987 243.154 323.471 243.241 322.87 243.241ZM323.331 241.537C323.919 241.537 324.421 241.421 324.837 241.189C325.259 240.957 325.578 240.654 325.796 240.28C326.019 239.901 326.13 239.496 326.13 239.065V237.659C326.054 237.735 325.907 237.806 325.689 237.872C325.476 237.934 325.233 237.988 324.958 238.036C324.683 238.078 324.416 238.118 324.155 238.156C323.895 238.189 323.677 238.218 323.502 238.241C323.09 238.294 322.714 238.381 322.373 238.504C322.037 238.627 321.767 238.805 321.563 239.037C321.364 239.264 321.265 239.567 321.265 239.946C321.265 240.472 321.459 240.869 321.847 241.139C322.235 241.404 322.73 241.537 323.331 241.537Z" fill="white"/>
<rect x="182" y="284" width="188" height="64" fill="#058C50"/>
<path d="M232.573 323L227.687 316.48H226.138V323H223.944V308.455H226.138V314.598H226.856L232.353 308.455H235.03L229.214 314.967L235.251 323H232.573ZM244.507 316.629V318.469H238.597V316.629H244.507ZM239.194 312.091V323H237.113V312.091H239.194ZM245.991 312.091V323H243.917V312.091H245.991ZM253.427 323.22C252.404 323.22 251.512 322.986 250.749 322.517C249.987 322.048 249.395 321.393 248.974 320.55C248.552 319.707 248.342 318.722 248.342 317.595C248.342 316.464 248.552 315.474 248.974 314.626C249.395 313.779 249.987 313.121 250.749 312.652C251.512 312.183 252.404 311.949 253.427 311.949C254.45 311.949 255.342 312.183 256.105 312.652C256.867 313.121 257.459 313.779 257.88 314.626C258.302 315.474 258.512 316.464 258.512 317.595C258.512 318.722 258.302 319.707 257.88 320.55C257.459 321.393 256.867 322.048 256.105 322.517C255.342 322.986 254.45 323.22 253.427 323.22ZM253.434 321.438C254.097 321.438 254.646 321.262 255.082 320.912C255.517 320.562 255.839 320.095 256.048 319.513C256.261 318.93 256.367 318.289 256.367 317.588C256.367 316.892 256.261 316.253 256.048 315.67C255.839 315.083 255.517 314.612 255.082 314.257C254.646 313.902 254.097 313.724 253.434 313.724C252.767 313.724 252.213 313.902 251.772 314.257C251.337 314.612 251.012 315.083 250.799 315.67C250.591 316.253 250.487 316.892 250.487 317.588C250.487 318.289 250.591 318.93 250.799 319.513C251.012 320.095 251.337 320.562 251.772 320.912C252.213 321.262 252.767 321.438 253.434 321.438ZM260.883 323V312.091H269.782V323H267.701V313.923H262.949V323H260.883ZM272.621 323V312.091H274.744V316.665H275.767L279.368 312.091H281.996L277.77 317.396L282.046 323H279.411L276.122 318.639H274.744V323H272.621ZM286.87 323.241C286.179 323.241 285.554 323.114 284.995 322.858C284.436 322.598 283.993 322.221 283.667 321.729C283.345 321.236 283.184 320.633 283.184 319.918C283.184 319.302 283.302 318.795 283.539 318.398C283.776 318 284.095 317.685 284.498 317.453C284.9 317.221 285.35 317.046 285.847 316.928C286.344 316.809 286.851 316.719 287.367 316.658C288.02 316.582 288.551 316.52 288.958 316.473C289.365 316.421 289.661 316.338 289.846 316.224C290.03 316.111 290.123 315.926 290.123 315.67V315.621C290.123 315 289.948 314.52 289.597 314.179C289.251 313.838 288.735 313.668 288.049 313.668C287.334 313.668 286.77 313.826 286.358 314.143C285.951 314.456 285.67 314.804 285.513 315.188L283.518 314.733C283.754 314.07 284.1 313.535 284.555 313.128C285.014 312.716 285.542 312.418 286.138 312.233C286.735 312.044 287.362 311.949 288.02 311.949C288.456 311.949 288.918 312.001 289.405 312.105C289.898 312.205 290.357 312.389 290.783 312.659C291.214 312.929 291.567 313.315 291.841 313.817C292.116 314.314 292.253 314.96 292.253 315.756V323H290.18V321.509H290.094C289.957 321.783 289.751 322.053 289.476 322.318C289.202 322.583 288.849 322.804 288.418 322.979C287.987 323.154 287.471 323.241 286.87 323.241ZM287.331 321.537C287.919 321.537 288.421 321.421 288.837 321.189C289.259 320.957 289.578 320.654 289.796 320.28C290.019 319.901 290.13 319.496 290.13 319.065V317.659C290.054 317.735 289.907 317.806 289.689 317.872C289.476 317.934 289.233 317.988 288.958 318.036C288.683 318.078 288.416 318.118 288.155 318.156C287.895 318.189 287.677 318.218 287.502 318.241C287.09 318.294 286.714 318.381 286.373 318.504C286.037 318.627 285.767 318.805 285.563 319.037C285.364 319.264 285.265 319.567 285.265 319.946C285.265 320.472 285.459 320.869 285.847 321.139C286.235 321.404 286.73 321.537 287.331 321.537Z" fill="white"/>
<path d="M306 305H310.764L313.764 316H324.279L327.367 306.735L329.265 307.368L325.72 318H313.78L313.28 320H328V322H310.72L311.966 317.011L309.236 307H306V305ZM320 306V309H323V311H320V314H318V311H315V309H318V306H320ZM310 325C310 324.47 310.211 323.961 310.586 323.586C310.961 323.211 311.47 323 312 323C312.53 323 313.039 323.211 313.414 323.586C313.789 323.961 314 324.47 314 325C314 325.53 313.789 326.039 313.414 326.414C313.039 326.789 312.53 327 312 327C311.47 327 310.961 326.789 310.586 326.414C310.211 326.039 310 325.53 310 325ZM324 325C324 324.47 324.211 323.961 324.586 323.586C324.961 323.211 325.47 323 326 323C326.53 323 327.039 323.211 327.414 323.586C327.789 323.961 328 324.47 328 325C328 325.53 327.789 326.039 327.414 326.414C327.039 326.789 326.53 327 326 327C325.47 327 324.961 326.789 324.586 326.414C324.211 326.039 324 325.53 324 325Z" fill="white"/>
<rect x="244" y="364" width="64" height="64" fill="#058C50"/>
<path d="M276.001 387.818C277.216 386.751 278.799 386.198 280.414 386.277C282.03 386.356 283.551 387.06 284.657 388.24C285.762 389.421 286.365 390.985 286.338 392.602C286.311 394.219 285.656 395.762 284.511 396.905L279.287 402.13L276 405.415L268.72 398.136L267.49 396.904C266.349 395.761 265.697 394.219 265.671 392.603C265.646 390.988 266.249 389.426 267.353 388.247C268.457 387.068 269.976 386.364 271.59 386.284C273.203 386.204 274.785 386.754 276 387.818H276.001ZM279.286 399.303L283.097 395.491C283.49 395.098 283.801 394.632 284.014 394.119C284.226 393.606 284.336 393.056 284.336 392.501C284.336 391.946 284.226 391.396 284.014 390.883C283.801 390.37 283.49 389.904 283.097 389.511C282.704 389.118 282.238 388.807 281.725 388.594C281.212 388.382 280.662 388.273 280.107 388.273C279.552 388.273 279.002 388.382 278.489 388.594C277.976 388.807 277.51 389.118 277.117 389.511L276 390.627L274.883 389.51C274.09 388.717 273.015 388.272 271.893 388.272C270.772 388.272 269.696 388.717 268.903 389.51C268.11 390.303 267.665 391.379 267.665 392.5C267.665 393.622 268.11 394.697 268.903 395.49L270.135 396.722L276 402.587L279.285 399.302L279.286 399.303Z" fill="white"/>
<rect width="24" height="24" transform="translate(126 224)" fill="#8ECBB0"/>
<path d="M134.361 242V240.977L138.202 236.773C138.652 236.28 139.024 235.852 139.315 235.489C139.607 235.121 139.823 234.777 139.963 234.455C140.107 234.129 140.179 233.788 140.179 233.432C140.179 233.023 140.08 232.669 139.884 232.369C139.69 232.07 139.425 231.839 139.088 231.676C138.751 231.513 138.372 231.432 137.952 231.432C137.505 231.432 137.115 231.525 136.781 231.71C136.452 231.892 136.196 232.148 136.014 232.477C135.836 232.807 135.747 233.193 135.747 233.636H134.406C134.406 232.955 134.563 232.356 134.878 231.841C135.192 231.326 135.62 230.924 136.162 230.636C136.707 230.348 137.319 230.205 137.997 230.205C138.679 230.205 139.283 230.348 139.81 230.636C140.336 230.924 140.749 231.312 141.048 231.801C141.348 232.29 141.497 232.833 141.497 233.432C141.497 233.86 141.42 234.278 141.264 234.688C141.113 235.093 140.848 235.545 140.469 236.045C140.094 236.542 139.573 237.148 138.906 237.864L136.293 240.659V240.75H141.702V242H134.361Z" fill="#0A2832"/>
<path d="M150 236H214" stroke="#8ECBB0" stroke-width="1.5"/>
<rect width="24" height="24" transform="translate(126 384)" fill="#8ECBB0"/>
<path d="M133.799 399.614V398.455L138.913 390.364H139.754V392.159H139.185L135.322 398.273V398.364H142.208V399.614H133.799ZM139.276 402V399.261V398.722V390.364H140.617V402H139.276Z" fill="#0A2832"/>
<path d="M150 396H256" stroke="#8ECBB0" stroke-width="1.5"/>
<rect width="24" height="24" transform="translate(126 144)" fill="#8ECBB0"/>
<path d="M139.577 150.364V162H138.168V151.841H138.099L135.259 153.727V152.295L138.168 150.364H139.577Z" fill="#0A2832"/>
<path d="M150 156H232" stroke="#8ECBB0" stroke-width="1.5"/>
<path d="M338 316H402" stroke="#8ECBB0" stroke-width="1.5"/>
<rect width="24" height="24" transform="translate(402 304)" fill="#8ECBB0"/>
<path d="M414.043 322.159C413.293 322.159 412.624 322.03 412.037 321.773C411.454 321.515 410.99 321.157 410.645 320.699C410.304 320.237 410.118 319.701 410.088 319.091H411.52C411.55 319.466 411.679 319.79 411.906 320.062C412.134 320.331 412.431 320.54 412.798 320.688C413.166 320.835 413.573 320.909 414.02 320.909C414.52 320.909 414.963 320.822 415.349 320.648C415.736 320.473 416.039 320.231 416.259 319.92C416.478 319.61 416.588 319.25 416.588 318.841C416.588 318.413 416.482 318.036 416.27 317.71C416.058 317.381 415.747 317.123 415.338 316.938C414.929 316.752 414.429 316.659 413.838 316.659H412.906V315.409H413.838C414.3 315.409 414.705 315.326 415.054 315.159C415.406 314.992 415.681 314.758 415.878 314.455C416.079 314.152 416.179 313.795 416.179 313.386C416.179 312.992 416.092 312.65 415.918 312.358C415.743 312.066 415.497 311.839 415.179 311.676C414.865 311.513 414.493 311.432 414.065 311.432C413.664 311.432 413.285 311.506 412.929 311.653C412.577 311.797 412.289 312.008 412.065 312.284C411.842 312.557 411.721 312.886 411.702 313.273H410.338C410.361 312.663 410.545 312.129 410.889 311.67C411.234 311.208 411.685 310.848 412.241 310.591C412.802 310.333 413.418 310.205 414.088 310.205C414.808 310.205 415.425 310.35 415.94 310.642C416.455 310.93 416.851 311.311 417.128 311.784C417.404 312.258 417.543 312.769 417.543 313.318C417.543 313.973 417.37 314.532 417.026 314.994C416.685 315.456 416.221 315.777 415.634 315.955V316.045C416.368 316.167 416.942 316.479 417.355 316.983C417.768 317.483 417.974 318.102 417.974 318.841C417.974 319.473 417.802 320.042 417.457 320.545C417.116 321.045 416.651 321.439 416.06 321.727C415.469 322.015 414.796 322.159 414.043 322.159Z" fill="#0A2832"/>
</svg>
