<svg width="1128" height="552" viewBox="0 0 1128 552" fill="none" xmlns="http://www.w3.org/2000/svg">
<rect width="1128" height="552" fill="#F2F6F9"/>
<path d="M319.691 487.25L564 64.4989L808.31 487.25H319.691Z" stroke="#C8D2D7" stroke-width="1.5"/>
<mask id="path-2-inside-1_1283_4543" fill="white">
<path fill-rule="evenodd" clip-rule="evenodd" d="M399.797 347.136L481.899 205.068H646.103L728.204 347.136H399.797Z"/>
</mask>
<path d="M399.797 347.136L398.499 346.386L397.198 348.636H399.797V347.136ZM481.899 205.068V203.568H481.033L480.6 204.318L481.899 205.068ZM646.103 205.068L647.401 204.318L646.968 203.568H646.103V205.068ZM728.204 347.136V348.636H730.804L729.503 346.386L728.204 347.136ZM401.096 347.887L483.198 205.819L480.6 204.318L398.499 346.386L401.096 347.887ZM481.899 206.568H646.103V203.568H481.899V206.568ZM644.804 205.819L726.906 347.887L729.503 346.386L647.401 204.318L644.804 205.819ZM728.204 345.636H399.797V348.636H728.204V345.636Z" fill="#058C50" mask="url(#path-2-inside-1_1283_4543)"/>
<path fill-rule="evenodd" clip-rule="evenodd" d="M646.101 205.068L563.999 63L481.897 205.068H646.101Z" fill="#058C50"/>
<path d="M110.034 128.727C110.034 130.261 109.757 131.587 109.203 132.705C108.649 133.822 107.889 134.684 106.923 135.29C105.957 135.896 104.854 136.199 103.614 136.199C102.373 136.199 101.27 135.896 100.304 135.29C99.3381 134.684 98.5781 133.822 98.0241 132.705C97.4702 131.587 97.1932 130.261 97.1932 128.727C97.1932 127.193 97.4702 125.867 98.0241 124.75C98.5781 123.633 99.3381 122.771 100.304 122.165C101.27 121.559 102.373 121.256 103.614 121.256C104.854 121.256 105.957 121.559 106.923 122.165C107.889 122.771 108.649 123.633 109.203 124.75C109.757 125.867 110.034 127.193 110.034 128.727ZM108.33 128.727C108.33 127.468 108.119 126.405 107.697 125.538C107.281 124.672 106.715 124.016 106 123.571C105.29 123.126 104.494 122.903 103.614 122.903C102.733 122.903 101.935 123.126 101.22 123.571C100.51 124.016 99.9441 124.672 99.5227 125.538C99.1061 126.405 98.8977 127.468 98.8977 128.727C98.8977 129.987 99.1061 131.05 99.5227 131.916C99.9441 132.783 100.51 133.438 101.22 133.884C101.935 134.329 102.733 134.551 103.614 134.551C104.494 134.551 105.29 134.329 106 133.884C106.715 133.438 107.281 132.783 107.697 131.916C108.119 131.05 108.33 129.987 108.33 128.727ZM117.2 136.227C116.178 136.227 115.297 135.986 114.558 135.503C113.82 135.02 113.251 134.355 112.854 133.507C112.456 132.66 112.257 131.691 112.257 130.602C112.257 129.494 112.461 128.517 112.868 127.669C113.28 126.817 113.853 126.152 114.587 125.673C115.325 125.19 116.187 124.949 117.172 124.949C117.939 124.949 118.63 125.091 119.246 125.375C119.861 125.659 120.366 126.057 120.759 126.568C121.152 127.08 121.395 127.676 121.49 128.358H119.814C119.686 127.861 119.402 127.42 118.962 127.037C118.526 126.649 117.939 126.455 117.2 126.455C116.547 126.455 115.974 126.625 115.482 126.966C114.994 127.302 114.613 127.778 114.338 128.393C114.068 129.004 113.933 129.722 113.933 130.545C113.933 131.388 114.066 132.122 114.331 132.747C114.601 133.372 114.98 133.857 115.467 134.203C115.96 134.549 116.537 134.722 117.2 134.722C117.636 134.722 118.031 134.646 118.386 134.494C118.741 134.343 119.042 134.125 119.288 133.841C119.535 133.557 119.71 133.216 119.814 132.818H121.49C121.395 133.462 121.161 134.042 120.787 134.558C120.418 135.07 119.928 135.477 119.317 135.78C118.711 136.078 118.005 136.227 117.2 136.227ZM131.241 129.778V131.341H125.219V129.778H131.241ZM125.616 125.091V136H123.94V125.091H125.616ZM132.52 125.091V136H130.844V125.091H132.52ZM140.013 136.227C139.028 136.227 138.164 135.993 137.42 135.524C136.682 135.055 136.104 134.4 135.688 133.557C135.276 132.714 135.07 131.729 135.07 130.602C135.07 129.466 135.276 128.474 135.688 127.626C136.104 126.779 136.682 126.121 137.42 125.652C138.164 125.183 139.028 124.949 140.013 124.949C140.998 124.949 141.859 125.183 142.598 125.652C143.341 126.121 143.919 126.779 144.331 127.626C144.748 128.474 144.956 129.466 144.956 130.602C144.956 131.729 144.748 132.714 144.331 133.557C143.919 134.4 143.341 135.055 142.598 135.524C141.859 135.993 140.998 136.227 140.013 136.227ZM140.013 134.722C140.761 134.722 141.376 134.53 141.859 134.146C142.342 133.763 142.7 133.259 142.932 132.634C143.164 132.009 143.28 131.331 143.28 130.602C143.28 129.873 143.164 129.194 142.932 128.564C142.7 127.934 142.342 127.425 141.859 127.037C141.376 126.649 140.761 126.455 140.013 126.455C139.265 126.455 138.649 126.649 138.166 127.037C137.683 127.425 137.326 127.934 137.094 128.564C136.862 129.194 136.746 129.873 136.746 130.602C136.746 131.331 136.862 132.009 137.094 132.634C137.326 133.259 137.683 133.763 138.166 134.146C138.649 134.53 139.265 134.722 140.013 134.722ZM147.515 136V125.091H151.975C153.149 125.091 154.082 125.356 154.773 125.886C155.464 126.417 155.81 127.117 155.81 127.989C155.81 128.652 155.614 129.165 155.221 129.53C154.828 129.89 154.323 130.134 153.708 130.261C154.11 130.318 154.501 130.46 154.88 130.688C155.263 130.915 155.58 131.227 155.831 131.625C156.082 132.018 156.208 132.501 156.208 133.074C156.208 133.633 156.066 134.132 155.782 134.572C155.498 135.013 155.09 135.361 154.56 135.616C154.03 135.872 153.395 136 152.657 136H147.515ZM149.105 134.466H152.657C153.234 134.466 153.686 134.329 154.013 134.054C154.34 133.779 154.503 133.405 154.503 132.932C154.503 132.368 154.34 131.926 154.013 131.604C153.686 131.277 153.234 131.114 152.657 131.114H149.105V134.466ZM149.105 129.665H151.975C152.425 129.665 152.81 129.603 153.132 129.48C153.454 129.352 153.701 129.172 153.871 128.94C154.046 128.704 154.134 128.424 154.134 128.102C154.134 127.643 153.942 127.283 153.559 127.023C153.175 126.758 152.647 126.625 151.975 126.625H149.105V129.665ZM166.046 129.778V131.341H160.023V129.778H166.046ZM160.421 125.091V136H158.745V125.091H160.421ZM167.325 125.091V136H165.648V125.091H167.325ZM173.596 136.256C172.905 136.256 172.277 136.125 171.714 135.865C171.15 135.6 170.703 135.219 170.371 134.722C170.04 134.22 169.874 133.614 169.874 132.903C169.874 132.278 169.997 131.772 170.244 131.384C170.49 130.991 170.819 130.683 171.231 130.46C171.643 130.238 172.097 130.072 172.594 129.963C173.096 129.849 173.601 129.759 174.107 129.693C174.77 129.608 175.308 129.544 175.719 129.501C176.136 129.454 176.439 129.376 176.629 129.267C176.823 129.158 176.92 128.969 176.92 128.699V128.642C176.92 127.941 176.728 127.397 176.344 127.009C175.966 126.62 175.39 126.426 174.619 126.426C173.818 126.426 173.191 126.601 172.737 126.952C172.282 127.302 171.962 127.676 171.778 128.074L170.187 127.506C170.471 126.843 170.85 126.327 171.323 125.957C171.801 125.583 172.322 125.323 172.886 125.176C173.454 125.025 174.013 124.949 174.562 124.949C174.912 124.949 175.315 124.991 175.769 125.077C176.228 125.157 176.671 125.325 177.097 125.581C177.528 125.837 177.886 126.223 178.17 126.739C178.454 127.255 178.596 127.946 178.596 128.812V136H176.92V134.523H176.835C176.721 134.759 176.531 135.013 176.266 135.283C176.001 135.553 175.648 135.782 175.208 135.972C174.768 136.161 174.23 136.256 173.596 136.256ZM173.852 134.75C174.514 134.75 175.073 134.62 175.528 134.359C175.987 134.099 176.333 133.763 176.565 133.351C176.801 132.939 176.92 132.506 176.92 132.051V130.517C176.849 130.602 176.692 130.68 176.451 130.751C176.214 130.818 175.94 130.877 175.627 130.929C175.319 130.976 175.019 131.019 174.725 131.057C174.436 131.09 174.202 131.118 174.022 131.142C173.586 131.199 173.179 131.291 172.8 131.419C172.426 131.542 172.123 131.729 171.891 131.98C171.664 132.226 171.55 132.562 171.55 132.989C171.55 133.571 171.766 134.011 172.197 134.31C172.632 134.603 173.184 134.75 173.852 134.75ZM188.218 136V126.625H185.32C184.667 126.625 184.153 126.777 183.779 127.08C183.405 127.383 183.218 127.799 183.218 128.33C183.218 128.85 183.386 129.26 183.722 129.558C184.063 129.857 184.529 130.006 185.121 130.006H188.644V131.568H185.121C184.382 131.568 183.746 131.438 183.211 131.178C182.676 130.917 182.264 130.545 181.975 130.062C181.686 129.575 181.542 128.997 181.542 128.33C181.542 127.657 181.693 127.08 181.996 126.597C182.299 126.114 182.732 125.742 183.296 125.482C183.864 125.221 184.539 125.091 185.32 125.091H189.809V136H188.218ZM180.945 136L184.042 130.574H185.86L182.763 136H180.945ZM198.511 136V125.091H200.187V129.835H201.295L205.215 125.091H207.374L202.971 130.347L207.431 136H205.272L201.692 131.398H200.187V136H198.511ZM216.554 129.778V131.341H210.531V129.778H216.554ZM210.929 125.091V136H209.253V125.091H210.929ZM217.832 125.091V136H216.156V125.091H217.832ZM225.325 136.227C224.34 136.227 223.476 135.993 222.733 135.524C221.994 135.055 221.417 134.4 221 133.557C220.588 132.714 220.382 131.729 220.382 130.602C220.382 129.466 220.588 128.474 221 127.626C221.417 126.779 221.994 126.121 222.733 125.652C223.476 125.183 224.34 124.949 225.325 124.949C226.31 124.949 227.172 125.183 227.911 125.652C228.654 126.121 229.232 126.779 229.643 127.626C230.06 128.474 230.268 129.466 230.268 130.602C230.268 131.729 230.06 132.714 229.643 133.557C229.232 134.4 228.654 135.055 227.911 135.524C227.172 135.993 226.31 136.227 225.325 136.227ZM225.325 134.722C226.073 134.722 226.689 134.53 227.172 134.146C227.655 133.763 228.012 133.259 228.244 132.634C228.476 132.009 228.592 131.331 228.592 130.602C228.592 129.873 228.476 129.194 228.244 128.564C228.012 127.934 227.655 127.425 227.172 127.037C226.689 126.649 226.073 126.455 225.325 126.455C224.577 126.455 223.962 126.649 223.479 127.037C222.996 127.425 222.638 127.934 222.406 128.564C222.174 129.194 222.058 129.873 222.058 130.602C222.058 131.331 222.174 132.009 222.406 132.634C222.638 133.259 222.996 133.763 223.479 134.146C223.962 134.53 224.577 134.722 225.325 134.722ZM232.827 136V125.091H241.407V136H239.73V126.653H234.503V136H232.827ZM244.468 136V125.091H246.144V129.835H247.252L251.172 125.091H253.331L248.928 130.347L253.388 136H251.229L247.65 131.398H246.144V136H244.468ZM258.42 136.256C257.729 136.256 257.101 136.125 256.538 135.865C255.975 135.6 255.527 135.219 255.196 134.722C254.864 134.22 254.699 133.614 254.699 132.903C254.699 132.278 254.822 131.772 255.068 131.384C255.314 130.991 255.643 130.683 256.055 130.46C256.467 130.238 256.922 130.072 257.419 129.963C257.921 129.849 258.425 129.759 258.931 129.693C259.594 129.608 260.132 129.544 260.544 129.501C260.96 129.454 261.263 129.376 261.453 129.267C261.647 129.158 261.744 128.969 261.744 128.699V128.642C261.744 127.941 261.552 127.397 261.169 127.009C260.79 126.62 260.215 126.426 259.443 126.426C258.643 126.426 258.015 126.601 257.561 126.952C257.106 127.302 256.787 127.676 256.602 128.074L255.011 127.506C255.295 126.843 255.674 126.327 256.147 125.957C256.626 125.583 257.146 125.323 257.71 125.176C258.278 125.025 258.837 124.949 259.386 124.949C259.736 124.949 260.139 124.991 260.593 125.077C261.053 125.157 261.495 125.325 261.922 125.581C262.352 125.837 262.71 126.223 262.994 126.739C263.278 127.255 263.42 127.946 263.42 128.812V136H261.744V134.523H261.659C261.545 134.759 261.356 135.013 261.091 135.283C260.825 135.553 260.473 135.782 260.032 135.972C259.592 136.161 259.055 136.256 258.42 136.256ZM258.676 134.75C259.339 134.75 259.897 134.62 260.352 134.359C260.811 134.099 261.157 133.763 261.389 133.351C261.626 132.939 261.744 132.506 261.744 132.051V130.517C261.673 130.602 261.517 130.68 261.275 130.751C261.038 130.818 260.764 130.877 260.451 130.929C260.144 130.976 259.843 131.019 259.549 131.057C259.261 131.09 259.026 131.118 258.846 131.142C258.411 131.199 258.003 131.291 257.625 131.419C257.251 131.542 256.948 131.729 256.716 131.98C256.488 132.226 256.375 132.562 256.375 132.989C256.375 133.571 256.59 134.011 257.021 134.31C257.457 134.603 258.008 134.75 258.676 134.75Z" fill="#0A2832"/>
<path d="M97.7614 259V244.455H102.847C103.86 244.455 104.696 244.63 105.354 244.98C106.012 245.326 106.502 245.792 106.824 246.379C107.146 246.962 107.307 247.608 107.307 248.318C107.307 248.943 107.196 249.459 106.973 249.866C106.755 250.274 106.466 250.596 106.107 250.832C105.751 251.069 105.366 251.244 104.949 251.358V251.5C105.394 251.528 105.841 251.685 106.291 251.969C106.741 252.253 107.117 252.66 107.42 253.19C107.723 253.721 107.875 254.369 107.875 255.136C107.875 255.866 107.709 256.521 107.378 257.104C107.046 257.686 106.523 258.148 105.808 258.489C105.093 258.83 104.163 259 103.017 259H97.7614ZM99.5227 257.438H103.017C104.168 257.438 104.984 257.215 105.467 256.77C105.955 256.32 106.199 255.776 106.199 255.136C106.199 254.644 106.073 254.189 105.822 253.773C105.571 253.351 105.214 253.015 104.75 252.764C104.286 252.509 103.737 252.381 103.102 252.381H99.5227V257.438ZM99.5227 250.847H102.79C103.32 250.847 103.798 250.742 104.224 250.534C104.655 250.326 104.996 250.032 105.247 249.653C105.503 249.275 105.631 248.83 105.631 248.318C105.631 247.679 105.408 247.137 104.963 246.692C104.518 246.242 103.813 246.017 102.847 246.017H99.5227V250.847ZM109.917 249.653V248.091H118.781V249.653H115.201V259H113.525V249.653H109.917ZM125.091 259.227C124.106 259.227 123.242 258.993 122.499 258.524C121.76 258.055 121.182 257.4 120.766 256.557C120.354 255.714 120.148 254.729 120.148 253.602C120.148 252.466 120.354 251.474 120.766 250.626C121.182 249.779 121.76 249.121 122.499 248.652C123.242 248.183 124.106 247.949 125.091 247.949C126.076 247.949 126.938 248.183 127.676 248.652C128.42 249.121 128.997 249.779 129.409 250.626C129.826 251.474 130.034 252.466 130.034 253.602C130.034 254.729 129.826 255.714 129.409 256.557C128.997 257.4 128.42 258.055 127.676 258.524C126.938 258.993 126.076 259.227 125.091 259.227ZM125.091 257.722C125.839 257.722 126.455 257.53 126.938 257.146C127.42 256.763 127.778 256.259 128.01 255.634C128.242 255.009 128.358 254.331 128.358 253.602C128.358 252.873 128.242 252.194 128.01 251.564C127.778 250.934 127.42 250.425 126.938 250.037C126.455 249.649 125.839 249.455 125.091 249.455C124.343 249.455 123.727 249.649 123.244 250.037C122.761 250.425 122.404 250.934 122.172 251.564C121.94 252.194 121.824 252.873 121.824 253.602C121.824 254.331 121.94 255.009 122.172 255.634C122.404 256.259 122.761 256.763 123.244 257.146C123.727 257.53 124.343 257.722 125.091 257.722ZM132.593 263.091V248.091H134.212V249.824H134.411C134.534 249.634 134.704 249.393 134.922 249.099C135.145 248.801 135.462 248.536 135.874 248.304C136.291 248.067 136.854 247.949 137.564 247.949C138.483 247.949 139.292 248.179 139.993 248.638C140.694 249.097 141.241 249.748 141.634 250.591C142.027 251.434 142.223 252.428 142.223 253.574C142.223 254.729 142.027 255.731 141.634 256.578C141.241 257.421 140.696 258.074 140 258.538C139.304 258.998 138.502 259.227 137.593 259.227C136.892 259.227 136.331 259.111 135.909 258.879C135.488 258.643 135.164 258.375 134.936 258.077C134.709 257.774 134.534 257.523 134.411 257.324H134.269V263.091H132.593ZM134.24 253.545C134.24 254.369 134.361 255.096 134.603 255.726C134.844 256.351 135.197 256.841 135.661 257.196C136.125 257.546 136.693 257.722 137.365 257.722C138.066 257.722 138.651 257.537 139.12 257.168C139.593 256.794 139.948 256.292 140.185 255.662C140.426 255.027 140.547 254.322 140.547 253.545C140.547 252.778 140.429 252.087 140.192 251.472C139.96 250.851 139.607 250.361 139.134 250.001C138.665 249.637 138.076 249.455 137.365 249.455C136.684 249.455 136.111 249.627 135.647 249.973C135.183 250.314 134.832 250.792 134.596 251.408C134.359 252.018 134.24 252.731 134.24 253.545ZM149.212 259.227C148.227 259.227 147.363 258.993 146.62 258.524C145.881 258.055 145.303 257.4 144.887 256.557C144.475 255.714 144.269 254.729 144.269 253.602C144.269 252.466 144.475 251.474 144.887 250.626C145.303 249.779 145.881 249.121 146.62 248.652C147.363 248.183 148.227 247.949 149.212 247.949C150.197 247.949 151.059 248.183 151.797 248.652C152.541 249.121 153.118 249.779 153.53 250.626C153.947 251.474 154.155 252.466 154.155 253.602C154.155 254.729 153.947 255.714 153.53 256.557C153.118 257.4 152.541 258.055 151.797 258.524C151.059 258.993 150.197 259.227 149.212 259.227ZM149.212 257.722C149.96 257.722 150.576 257.53 151.059 257.146C151.542 256.763 151.899 256.259 152.131 255.634C152.363 255.009 152.479 254.331 152.479 253.602C152.479 252.873 152.363 252.194 152.131 251.564C151.899 250.934 151.542 250.425 151.059 250.037C150.576 249.649 149.96 249.455 149.212 249.455C148.464 249.455 147.848 249.649 147.365 250.037C146.882 250.425 146.525 250.934 146.293 251.564C146.061 252.194 145.945 252.873 145.945 253.602C145.945 254.331 146.061 255.009 146.293 255.634C146.525 256.259 146.882 256.763 147.365 257.146C147.848 257.53 148.464 257.722 149.212 257.722ZM161.146 259.227C160.123 259.227 159.242 258.986 158.504 258.503C157.765 258.02 157.197 257.355 156.799 256.507C156.401 255.66 156.202 254.691 156.202 253.602C156.202 252.494 156.406 251.517 156.813 250.669C157.225 249.817 157.798 249.152 158.532 248.673C159.271 248.19 160.132 247.949 161.117 247.949C161.884 247.949 162.576 248.091 163.191 248.375C163.807 248.659 164.311 249.057 164.704 249.568C165.097 250.08 165.341 250.676 165.435 251.358H163.759C163.631 250.861 163.347 250.42 162.907 250.037C162.471 249.649 161.884 249.455 161.146 249.455C160.492 249.455 159.919 249.625 159.427 249.966C158.939 250.302 158.558 250.778 158.283 251.393C158.013 252.004 157.879 252.722 157.879 253.545C157.879 254.388 158.011 255.122 158.276 255.747C158.546 256.372 158.925 256.857 159.413 257.203C159.905 257.549 160.483 257.722 161.146 257.722C161.581 257.722 161.977 257.646 162.332 257.494C162.687 257.343 162.987 257.125 163.234 256.841C163.48 256.557 163.655 256.216 163.759 255.818H165.435C165.341 256.462 165.106 257.042 164.732 257.558C164.363 258.07 163.873 258.477 163.262 258.78C162.656 259.078 161.951 259.227 161.146 259.227ZM167.026 249.653V248.091H175.89V249.653H172.31V259H170.634V249.653H167.026ZM182.342 259.227C181.291 259.227 180.384 258.995 179.622 258.531C178.865 258.062 178.28 257.409 177.868 256.571C177.461 255.728 177.257 254.748 177.257 253.631C177.257 252.513 177.461 251.528 177.868 250.676C178.28 249.819 178.853 249.152 179.587 248.673C180.325 248.19 181.187 247.949 182.172 247.949C182.74 247.949 183.301 248.044 183.855 248.233C184.409 248.422 184.913 248.73 185.368 249.156C185.822 249.578 186.185 250.136 186.455 250.832C186.724 251.528 186.859 252.385 186.859 253.403V254.114H178.45V252.665H185.155C185.155 252.049 185.032 251.5 184.786 251.017C184.544 250.534 184.198 250.153 183.749 249.874C183.304 249.594 182.778 249.455 182.172 249.455C181.504 249.455 180.927 249.62 180.439 249.952C179.956 250.278 179.584 250.705 179.324 251.23C179.063 251.756 178.933 252.319 178.933 252.92V253.886C178.933 254.71 179.075 255.409 179.359 255.982C179.648 256.55 180.048 256.983 180.56 257.281C181.071 257.575 181.665 257.722 182.342 257.722C182.783 257.722 183.18 257.66 183.536 257.537C183.895 257.409 184.205 257.22 184.466 256.969C184.726 256.713 184.928 256.396 185.07 256.017L186.689 256.472C186.518 257.021 186.232 257.504 185.83 257.92C185.427 258.332 184.93 258.654 184.338 258.886C183.746 259.114 183.081 259.227 182.342 259.227ZM189.409 259V248.091H197.989V259H196.312V249.653H191.085V259H189.409ZM205.624 259.227C204.572 259.227 203.666 258.995 202.903 258.531C202.146 258.062 201.561 257.409 201.149 256.571C200.742 255.728 200.538 254.748 200.538 253.631C200.538 252.513 200.742 251.528 201.149 250.676C201.561 249.819 202.134 249.152 202.868 248.673C203.607 248.19 204.468 247.949 205.453 247.949C206.021 247.949 206.582 248.044 207.136 248.233C207.69 248.422 208.195 248.73 208.649 249.156C209.104 249.578 209.466 250.136 209.736 250.832C210.006 251.528 210.141 252.385 210.141 253.403V254.114H201.732V252.665H208.436C208.436 252.049 208.313 251.5 208.067 251.017C207.825 250.534 207.48 250.153 207.03 249.874C206.585 249.594 206.059 249.455 205.453 249.455C204.786 249.455 204.208 249.62 203.72 249.952C203.237 250.278 202.866 250.705 202.605 251.23C202.345 251.756 202.214 252.319 202.214 252.92V253.886C202.214 254.71 202.357 255.409 202.641 255.982C202.929 256.55 203.33 256.983 203.841 257.281C204.352 257.575 204.946 257.722 205.624 257.722C206.064 257.722 206.462 257.66 206.817 257.537C207.177 257.409 207.487 257.22 207.747 256.969C208.008 256.713 208.209 256.396 208.351 256.017L209.97 256.472C209.8 257.021 209.513 257.504 209.111 257.92C208.708 258.332 208.211 258.654 207.619 258.886C207.027 259.114 206.362 259.227 205.624 259.227ZM219.991 252.778V254.341H213.969V252.778H219.991ZM214.366 248.091V259H212.69V248.091H214.366ZM221.27 248.091V259H219.594V248.091H221.27ZM231.632 252.778V254.341H225.609V252.778H231.632ZM226.007 248.091V259H224.331V248.091H226.007ZM232.911 248.091V259H231.234V248.091H232.911ZM239.182 259.256C238.491 259.256 237.863 259.125 237.3 258.865C236.736 258.6 236.289 258.219 235.957 257.722C235.626 257.22 235.46 256.614 235.46 255.903C235.46 255.278 235.583 254.772 235.83 254.384C236.076 253.991 236.405 253.683 236.817 253.46C237.229 253.238 237.683 253.072 238.18 252.963C238.682 252.849 239.187 252.759 239.693 252.693C240.356 252.608 240.893 252.544 241.305 252.501C241.722 252.454 242.025 252.376 242.214 252.267C242.409 252.158 242.506 251.969 242.506 251.699V251.642C242.506 250.941 242.314 250.397 241.93 250.009C241.552 249.62 240.976 249.426 240.205 249.426C239.404 249.426 238.777 249.601 238.322 249.952C237.868 250.302 237.548 250.676 237.364 251.074L235.773 250.506C236.057 249.843 236.436 249.327 236.909 248.957C237.387 248.583 237.908 248.323 238.472 248.176C239.04 248.025 239.598 247.949 240.148 247.949C240.498 247.949 240.901 247.991 241.355 248.077C241.814 248.157 242.257 248.325 242.683 248.581C243.114 248.837 243.472 249.223 243.756 249.739C244.04 250.255 244.182 250.946 244.182 251.812V259H242.506V257.523H242.42C242.307 257.759 242.117 258.013 241.852 258.283C241.587 258.553 241.234 258.782 240.794 258.972C240.354 259.161 239.816 259.256 239.182 259.256ZM239.438 257.75C240.1 257.75 240.659 257.62 241.114 257.359C241.573 257.099 241.919 256.763 242.151 256.351C242.387 255.939 242.506 255.506 242.506 255.051V253.517C242.435 253.602 242.278 253.68 242.037 253.751C241.8 253.818 241.526 253.877 241.213 253.929C240.905 253.976 240.605 254.019 240.311 254.057C240.022 254.09 239.788 254.118 239.608 254.142C239.172 254.199 238.765 254.291 238.386 254.419C238.012 254.542 237.709 254.729 237.477 254.98C237.25 255.226 237.136 255.562 237.136 255.989C237.136 256.571 237.352 257.011 237.783 257.31C238.218 257.603 238.77 257.75 239.438 257.75ZM253.804 259V249.625H250.906C250.252 249.625 249.739 249.777 249.365 250.08C248.991 250.383 248.804 250.799 248.804 251.33C248.804 251.85 248.972 252.26 249.308 252.558C249.649 252.857 250.115 253.006 250.707 253.006H254.23V254.568H250.707C249.968 254.568 249.332 254.438 248.797 254.178C248.261 253.917 247.85 253.545 247.561 253.062C247.272 252.575 247.127 251.997 247.127 251.33C247.127 250.657 247.279 250.08 247.582 249.597C247.885 249.114 248.318 248.742 248.882 248.482C249.45 248.221 250.125 248.091 250.906 248.091H255.395V259H253.804ZM246.531 259L249.627 253.574H251.446L248.349 259H246.531ZM264.097 259V248.091H265.773V252.835H266.881L270.801 248.091H272.96L268.557 253.347L273.017 259H270.858L267.278 254.398H265.773V259H264.097ZM282.14 252.778V254.341H276.117V252.778H282.14ZM276.515 248.091V259H274.839V248.091H276.515ZM283.418 248.091V259H281.742V248.091H283.418ZM290.911 259.227C289.926 259.227 289.062 258.993 288.319 258.524C287.58 258.055 287.003 257.4 286.586 256.557C286.174 255.714 285.968 254.729 285.968 253.602C285.968 252.466 286.174 251.474 286.586 250.626C287.003 249.779 287.58 249.121 288.319 248.652C289.062 248.183 289.926 247.949 290.911 247.949C291.896 247.949 292.758 248.183 293.496 248.652C294.24 249.121 294.817 249.779 295.229 250.626C295.646 251.474 295.854 252.466 295.854 253.602C295.854 254.729 295.646 255.714 295.229 256.557C294.817 257.4 294.24 258.055 293.496 258.524C292.758 258.993 291.896 259.227 290.911 259.227ZM290.911 257.722C291.659 257.722 292.275 257.53 292.758 257.146C293.241 256.763 293.598 256.259 293.83 255.634C294.062 255.009 294.178 254.331 294.178 253.602C294.178 252.873 294.062 252.194 293.83 251.564C293.598 250.934 293.241 250.425 292.758 250.037C292.275 249.649 291.659 249.455 290.911 249.455C290.163 249.455 289.548 249.649 289.065 250.037C288.582 250.425 288.224 250.934 287.992 251.564C287.76 252.194 287.644 252.873 287.644 253.602C287.644 254.331 287.76 255.009 287.992 255.634C288.224 256.259 288.582 256.763 289.065 257.146C289.548 257.53 290.163 257.722 290.911 257.722ZM298.413 259V248.091H306.993V259H305.316V249.653H300.089V259H298.413ZM310.054 259V248.091H311.73V252.835H312.838L316.758 248.091H318.917L314.514 253.347L318.974 259H316.815L313.235 254.398H311.73V259H310.054ZM324.006 259.256C323.315 259.256 322.687 259.125 322.124 258.865C321.56 258.6 321.113 258.219 320.782 257.722C320.45 257.22 320.284 256.614 320.284 255.903C320.284 255.278 320.408 254.772 320.654 254.384C320.9 253.991 321.229 253.683 321.641 253.46C322.053 253.238 322.507 253.072 323.005 252.963C323.507 252.849 324.011 252.759 324.517 252.693C325.18 252.608 325.718 252.544 326.13 252.501C326.546 252.454 326.849 252.376 327.039 252.267C327.233 252.158 327.33 251.969 327.33 251.699V251.642C327.33 250.941 327.138 250.397 326.755 250.009C326.376 249.62 325.801 249.426 325.029 249.426C324.229 249.426 323.601 249.601 323.147 249.952C322.692 250.302 322.373 250.676 322.188 251.074L320.597 250.506C320.881 249.843 321.26 249.327 321.733 248.957C322.212 248.583 322.732 248.323 323.296 248.176C323.864 248.025 324.423 247.949 324.972 247.949C325.322 247.949 325.725 247.991 326.179 248.077C326.639 248.157 327.081 248.325 327.507 248.581C327.938 248.837 328.296 249.223 328.58 249.739C328.864 250.255 329.006 250.946 329.006 251.812V259H327.33V257.523H327.245C327.131 257.759 326.942 258.013 326.676 258.283C326.411 258.553 326.059 258.782 325.618 258.972C325.178 259.161 324.641 259.256 324.006 259.256ZM324.262 257.75C324.925 257.75 325.483 257.62 325.938 257.359C326.397 257.099 326.743 256.763 326.975 256.351C327.212 255.939 327.33 255.506 327.33 255.051V253.517C327.259 253.602 327.103 253.68 326.861 253.751C326.624 253.818 326.35 253.877 326.037 253.929C325.73 253.976 325.429 254.019 325.135 254.057C324.846 254.09 324.612 254.118 324.432 254.142C323.997 254.199 323.589 254.291 323.211 254.419C322.837 254.542 322.533 254.729 322.301 254.98C322.074 255.226 321.961 255.562 321.961 255.989C321.961 256.571 322.176 257.011 322.607 257.31C323.042 257.603 323.594 257.75 324.262 257.75Z" fill="#0A2832"/>
<path d="M96.9659 389.017V387.455H107.875V389.017H103.301V402H101.54V389.017H96.9659ZM109.233 406.091V391.091H110.853V392.824H111.051C111.175 392.634 111.345 392.393 111.563 392.099C111.785 391.801 112.103 391.536 112.515 391.304C112.931 391.067 113.495 390.949 114.205 390.949C115.123 390.949 115.933 391.179 116.634 391.638C117.335 392.097 117.882 392.748 118.275 393.591C118.667 394.434 118.864 395.428 118.864 396.574C118.864 397.729 118.667 398.731 118.275 399.578C117.882 400.421 117.337 401.074 116.641 401.538C115.945 401.998 115.142 402.227 114.233 402.227C113.533 402.227 112.971 402.111 112.55 401.879C112.129 401.643 111.804 401.375 111.577 401.077C111.35 400.774 111.175 400.523 111.051 400.324H110.909V406.091H109.233ZM110.881 396.545C110.881 397.369 111.002 398.096 111.243 398.726C111.485 399.351 111.837 399.841 112.301 400.196C112.766 400.546 113.334 400.722 114.006 400.722C114.707 400.722 115.292 400.537 115.76 400.168C116.234 399.794 116.589 399.292 116.826 398.662C117.067 398.027 117.188 397.322 117.188 396.545C117.188 395.778 117.069 395.087 116.833 394.472C116.601 393.851 116.248 393.361 115.775 393.001C115.306 392.637 114.716 392.455 114.006 392.455C113.324 392.455 112.751 392.627 112.287 392.973C111.823 393.314 111.473 393.792 111.236 394.408C110.999 395.018 110.881 395.731 110.881 396.545ZM125.995 402.227C124.944 402.227 124.037 401.995 123.275 401.531C122.517 401.062 121.932 400.409 121.52 399.571C121.113 398.728 120.909 397.748 120.909 396.631C120.909 395.513 121.113 394.528 121.52 393.676C121.932 392.819 122.505 392.152 123.239 391.673C123.978 391.19 124.839 390.949 125.824 390.949C126.392 390.949 126.953 391.044 127.507 391.233C128.061 391.422 128.566 391.73 129.02 392.156C129.475 392.578 129.837 393.136 130.107 393.832C130.377 394.528 130.512 395.385 130.512 396.403V397.114H122.103V395.665H128.807C128.807 395.049 128.684 394.5 128.438 394.017C128.196 393.534 127.851 393.153 127.401 392.874C126.956 392.594 126.43 392.455 125.824 392.455C125.157 392.455 124.579 392.62 124.091 392.952C123.608 393.278 123.237 393.705 122.976 394.23C122.716 394.756 122.586 395.319 122.586 395.92V396.886C122.586 397.71 122.728 398.409 123.012 398.982C123.301 399.55 123.701 399.983 124.212 400.281C124.723 400.575 125.318 400.722 125.995 400.722C126.435 400.722 126.833 400.66 127.188 400.537C127.548 400.409 127.858 400.22 128.118 399.969C128.379 399.713 128.58 399.396 128.722 399.017L130.341 399.472C130.171 400.021 129.884 400.504 129.482 400.92C129.079 401.332 128.582 401.654 127.99 401.886C127.399 402.114 126.733 402.227 125.995 402.227ZM132.046 392.653V391.091H140.909V392.653H137.33V402H135.654V392.653H132.046ZM144.803 395.04H147.928C149.207 395.04 150.184 395.364 150.862 396.013C151.539 396.661 151.877 397.483 151.877 398.477C151.877 399.131 151.726 399.725 151.423 400.26C151.12 400.79 150.674 401.214 150.087 401.531C149.5 401.844 148.781 402 147.928 402H143.354V391.091H145.031V400.438H147.928C148.591 400.438 149.136 400.262 149.562 399.912C149.988 399.562 150.201 399.112 150.201 398.562C150.201 397.985 149.988 397.514 149.562 397.149C149.136 396.785 148.591 396.602 147.928 396.602H144.803V395.04ZM159.002 402.227C157.951 402.227 157.045 401.995 156.282 401.531C155.525 401.062 154.94 400.409 154.528 399.571C154.121 398.728 153.917 397.748 153.917 396.631C153.917 395.513 154.121 394.528 154.528 393.676C154.94 392.819 155.513 392.152 156.247 391.673C156.985 391.19 157.847 390.949 158.832 390.949C159.4 390.949 159.961 391.044 160.515 391.233C161.069 391.422 161.574 391.73 162.028 392.156C162.483 392.578 162.845 393.136 163.115 393.832C163.385 394.528 163.52 395.385 163.52 396.403V397.114H155.11V395.665H161.815C161.815 395.049 161.692 394.5 161.446 394.017C161.204 393.534 160.859 393.153 160.409 392.874C159.964 392.594 159.438 392.455 158.832 392.455C158.164 392.455 157.587 392.62 157.099 392.952C156.616 393.278 156.244 393.705 155.984 394.23C155.724 394.756 155.593 395.319 155.593 395.92V396.886C155.593 397.71 155.735 398.409 156.02 398.982C156.308 399.55 156.708 399.983 157.22 400.281C157.731 400.575 158.325 400.722 159.002 400.722C159.443 400.722 159.841 400.66 160.196 400.537C160.556 400.409 160.866 400.22 161.126 399.969C161.386 399.713 161.588 399.396 161.73 399.017L163.349 399.472C163.179 400.021 162.892 400.504 162.49 400.92C162.087 401.332 161.59 401.654 160.998 401.886C160.406 402.114 159.741 402.227 159.002 402.227ZM170.501 402.227C169.478 402.227 168.598 401.986 167.859 401.503C167.12 401.02 166.552 400.355 166.154 399.507C165.757 398.66 165.558 397.691 165.558 396.602C165.558 395.494 165.761 394.517 166.169 393.669C166.581 392.817 167.154 392.152 167.887 391.673C168.626 391.19 169.488 390.949 170.473 390.949C171.24 390.949 171.931 391.091 172.547 391.375C173.162 391.659 173.666 392.057 174.059 392.568C174.452 393.08 174.696 393.676 174.791 394.358H173.115C172.987 393.861 172.703 393.42 172.262 393.037C171.827 392.649 171.24 392.455 170.501 392.455C169.848 392.455 169.275 392.625 168.782 392.966C168.295 393.302 167.913 393.778 167.639 394.393C167.369 395.004 167.234 395.722 167.234 396.545C167.234 397.388 167.367 398.122 167.632 398.747C167.902 399.372 168.28 399.857 168.768 400.203C169.261 400.549 169.838 400.722 170.501 400.722C170.937 400.722 171.332 400.646 171.687 400.494C172.042 400.343 172.343 400.125 172.589 399.841C172.835 399.557 173.011 399.216 173.115 398.818H174.791C174.696 399.462 174.462 400.042 174.088 400.558C173.718 401.07 173.228 401.477 172.618 401.78C172.011 402.078 171.306 402.227 170.501 402.227ZM176.382 392.653V391.091H185.245V392.653H181.666V402H179.99V392.653H176.382ZM191.698 402.227C190.647 402.227 189.74 401.995 188.978 401.531C188.22 401.062 187.635 400.409 187.223 399.571C186.816 398.728 186.613 397.748 186.613 396.631C186.613 395.513 186.816 394.528 187.223 393.676C187.635 392.819 188.208 392.152 188.942 391.673C189.681 391.19 190.542 390.949 191.527 390.949C192.096 390.949 192.657 391.044 193.211 391.233C193.765 391.422 194.269 391.73 194.723 392.156C195.178 392.578 195.54 393.136 195.81 393.832C196.08 394.528 196.215 395.385 196.215 396.403V397.114H187.806V395.665H194.51C194.51 395.049 194.387 394.5 194.141 394.017C193.9 393.534 193.554 393.153 193.104 392.874C192.659 392.594 192.133 392.455 191.527 392.455C190.86 392.455 190.282 392.62 189.794 392.952C189.311 393.278 188.94 393.705 188.679 394.23C188.419 394.756 188.289 395.319 188.289 395.92V396.886C188.289 397.71 188.431 398.409 188.715 398.982C189.004 399.55 189.404 399.983 189.915 400.281C190.426 400.575 191.021 400.722 191.698 400.722C192.138 400.722 192.536 400.66 192.891 400.537C193.251 400.409 193.561 400.22 193.821 399.969C194.082 399.713 194.283 399.396 194.425 399.017L196.044 399.472C195.874 400.021 195.587 400.504 195.185 400.92C194.783 401.332 194.285 401.654 193.694 401.886C193.102 402.114 192.436 402.227 191.698 402.227ZM198.765 402V391.091H207.344V402H205.668V392.653H200.441V402H198.765ZM214.979 402.227C213.928 402.227 213.021 401.995 212.259 401.531C211.501 401.062 210.917 400.409 210.505 399.571C210.097 398.728 209.894 397.748 209.894 396.631C209.894 395.513 210.097 394.528 210.505 393.676C210.917 392.819 211.489 392.152 212.223 391.673C212.962 391.19 213.824 390.949 214.809 390.949C215.377 390.949 215.938 391.044 216.492 391.233C217.046 391.422 217.55 391.73 218.005 392.156C218.459 392.578 218.821 393.136 219.091 393.832C219.361 394.528 219.496 395.385 219.496 396.403V397.114H211.087V395.665H217.792C217.792 395.049 217.668 394.5 217.422 394.017C217.181 393.534 216.835 393.153 216.385 392.874C215.94 392.594 215.415 392.455 214.809 392.455C214.141 392.455 213.563 392.62 213.076 392.952C212.593 393.278 212.221 393.705 211.961 394.23C211.7 394.756 211.57 395.319 211.57 395.92V396.886C211.57 397.71 211.712 398.409 211.996 398.982C212.285 399.55 212.685 399.983 213.196 400.281C213.708 400.575 214.302 400.722 214.979 400.722C215.419 400.722 215.817 400.66 216.172 400.537C216.532 400.409 216.842 400.22 217.103 399.969C217.363 399.713 217.564 399.396 217.706 399.017L219.326 399.472C219.155 400.021 218.869 400.504 218.466 400.92C218.064 401.332 217.567 401.654 216.975 401.886C216.383 402.114 215.718 402.227 214.979 402.227ZM229.347 395.778V397.341H223.324V395.778H229.347ZM223.722 391.091V402H222.046V391.091H223.722ZM230.625 391.091V402H228.949V391.091H230.625ZM240.988 395.778V397.341H234.965V395.778H240.988ZM235.363 391.091V402H233.686V391.091H235.363ZM242.266 391.091V402H240.59V391.091H242.266ZM248.537 402.256C247.846 402.256 247.219 402.125 246.655 401.865C246.092 401.6 245.644 401.219 245.313 400.722C244.981 400.22 244.816 399.614 244.816 398.903C244.816 398.278 244.939 397.772 245.185 397.384C245.431 396.991 245.76 396.683 246.172 396.46C246.584 396.238 247.039 396.072 247.536 395.963C248.038 395.849 248.542 395.759 249.049 395.693C249.712 395.608 250.249 395.544 250.661 395.501C251.078 395.454 251.381 395.376 251.57 395.267C251.764 395.158 251.861 394.969 251.861 394.699V394.642C251.861 393.941 251.669 393.397 251.286 393.009C250.907 392.62 250.332 392.426 249.56 392.426C248.76 392.426 248.132 392.601 247.678 392.952C247.223 393.302 246.904 393.676 246.719 394.074L245.128 393.506C245.412 392.843 245.791 392.327 246.265 391.957C246.743 391.583 247.264 391.323 247.827 391.176C248.395 391.025 248.954 390.949 249.503 390.949C249.854 390.949 250.256 390.991 250.711 391.077C251.17 391.157 251.613 391.325 252.039 391.581C252.47 391.837 252.827 392.223 253.111 392.739C253.395 393.255 253.537 393.946 253.537 394.812V402H251.861V400.523H251.776C251.662 400.759 251.473 401.013 251.208 401.283C250.943 401.553 250.59 401.782 250.15 401.972C249.709 402.161 249.172 402.256 248.537 402.256ZM248.793 400.75C249.456 400.75 250.015 400.62 250.469 400.359C250.928 400.099 251.274 399.763 251.506 399.351C251.743 398.939 251.861 398.506 251.861 398.051V396.517C251.79 396.602 251.634 396.68 251.392 396.751C251.156 396.818 250.881 396.877 250.569 396.929C250.261 396.976 249.96 397.019 249.667 397.057C249.378 397.09 249.143 397.118 248.963 397.142C248.528 397.199 248.121 397.291 247.742 397.419C247.368 397.542 247.065 397.729 246.833 397.98C246.605 398.226 246.492 398.562 246.492 398.989C246.492 399.571 246.707 400.011 247.138 400.31C247.574 400.603 248.125 400.75 248.793 400.75ZM263.159 402V392.625H260.261C259.608 392.625 259.094 392.777 258.72 393.08C258.346 393.383 258.159 393.799 258.159 394.33C258.159 394.85 258.327 395.26 258.663 395.558C259.004 395.857 259.471 396.006 260.062 396.006H263.585V397.568H260.062C259.324 397.568 258.687 397.438 258.152 397.178C257.617 396.917 257.205 396.545 256.916 396.062C256.627 395.575 256.483 394.997 256.483 394.33C256.483 393.657 256.634 393.08 256.938 392.597C257.241 392.114 257.674 391.742 258.237 391.482C258.805 391.221 259.48 391.091 260.261 391.091H264.75V402H263.159ZM255.886 402L258.983 396.574H260.801L257.705 402H255.886ZM273.452 402V391.091H275.128V395.835H276.236L280.157 391.091H282.316L277.912 396.347L282.373 402H280.213L276.634 397.398H275.128V402H273.452ZM291.495 395.778V397.341H285.473V395.778H291.495ZM285.87 391.091V402H284.194V391.091H285.87ZM292.774 391.091V402H291.098V391.091H292.774ZM300.267 402.227C299.282 402.227 298.418 401.993 297.674 401.524C296.936 401.055 296.358 400.4 295.941 399.557C295.529 398.714 295.324 397.729 295.324 396.602C295.324 395.466 295.529 394.474 295.941 393.626C296.358 392.779 296.936 392.121 297.674 391.652C298.418 391.183 299.282 390.949 300.267 390.949C301.252 390.949 302.113 391.183 302.852 391.652C303.595 392.121 304.173 392.779 304.585 393.626C305.002 394.474 305.21 395.466 305.21 396.602C305.21 397.729 305.002 398.714 304.585 399.557C304.173 400.4 303.595 401.055 302.852 401.524C302.113 401.993 301.252 402.227 300.267 402.227ZM300.267 400.722C301.015 400.722 301.63 400.53 302.113 400.146C302.596 399.763 302.954 399.259 303.186 398.634C303.418 398.009 303.534 397.331 303.534 396.602C303.534 395.873 303.418 395.194 303.186 394.564C302.954 393.934 302.596 393.425 302.113 393.037C301.63 392.649 301.015 392.455 300.267 392.455C299.519 392.455 298.903 392.649 298.42 393.037C297.937 393.425 297.58 393.934 297.348 394.564C297.116 395.194 297 395.873 297 396.602C297 397.331 297.116 398.009 297.348 398.634C297.58 399.259 297.937 399.763 298.42 400.146C298.903 400.53 299.519 400.722 300.267 400.722ZM307.768 402V391.091H316.348V402H314.672V392.653H309.445V402H307.768ZM319.409 402V391.091H321.085V395.835H322.193L326.114 391.091H328.273L323.869 396.347L328.33 402H326.17L322.591 397.398H321.085V402H319.409ZM333.362 402.256C332.67 402.256 332.043 402.125 331.479 401.865C330.916 401.6 330.469 401.219 330.137 400.722C329.806 400.22 329.64 399.614 329.64 398.903C329.64 398.278 329.763 397.772 330.009 397.384C330.255 396.991 330.585 396.683 330.996 396.46C331.408 396.238 331.863 396.072 332.36 395.963C332.862 395.849 333.366 395.759 333.873 395.693C334.536 395.608 335.073 395.544 335.485 395.501C335.902 395.454 336.205 395.376 336.394 395.267C336.588 395.158 336.685 394.969 336.685 394.699V394.642C336.685 393.941 336.494 393.397 336.11 393.009C335.731 392.62 335.156 392.426 334.384 392.426C333.584 392.426 332.957 392.601 332.502 392.952C332.048 393.302 331.728 393.676 331.543 394.074L329.952 393.506C330.237 392.843 330.615 392.327 331.089 391.957C331.567 391.583 332.088 391.323 332.651 391.176C333.219 391.025 333.778 390.949 334.327 390.949C334.678 390.949 335.08 390.991 335.535 391.077C335.994 391.157 336.437 391.325 336.863 391.581C337.294 391.837 337.651 392.223 337.935 392.739C338.219 393.255 338.362 393.946 338.362 394.812V402H336.685V400.523H336.6C336.487 400.759 336.297 401.013 336.032 401.283C335.767 401.553 335.414 401.782 334.974 401.972C334.533 402.161 333.996 402.256 333.362 402.256ZM333.617 400.75C334.28 400.75 334.839 400.62 335.293 400.359C335.753 400.099 336.098 399.763 336.33 399.351C336.567 398.939 336.685 398.506 336.685 398.051V396.517C336.614 396.602 336.458 396.68 336.217 396.751C335.98 396.818 335.705 396.877 335.393 396.929C335.085 396.976 334.784 397.019 334.491 397.057C334.202 397.09 333.968 397.118 333.788 397.142C333.352 397.199 332.945 397.291 332.566 397.419C332.192 397.542 331.889 397.729 331.657 397.98C331.43 398.226 331.316 398.562 331.316 398.989C331.316 399.571 331.531 400.011 331.962 400.31C332.398 400.603 332.95 400.75 333.617 400.75Z" fill="#0A2832"/>
<path d="M96 417L564 417" stroke="#738287"/>
<path d="M96 274L564 274" stroke="#738287"/>
<path d="M96 151L564 151" stroke="#738287"/>
</svg>
