<svg width="552" height="276" viewBox="0 0 552 276" fill="none" xmlns="http://www.w3.org/2000/svg">
<rect width="552" height="276" fill="#F2F6F9"/>
<path d="M20.7768 246.21V245.273H27.3223V246.21H24.5779V254H23.5211V246.21H20.7768ZM30.612 254.136C29.9814 254.136 29.4373 253.997 28.9799 253.719C28.5254 253.438 28.1745 253.045 27.9274 252.543C27.6831 252.037 27.5609 251.449 27.5609 250.778C27.5609 250.108 27.6831 249.517 27.9274 249.006C28.1745 248.491 28.5183 248.091 28.9586 247.804C29.4018 247.514 29.9189 247.369 30.5098 247.369C30.8507 247.369 31.1873 247.426 31.5197 247.54C31.8521 247.653 32.1547 247.838 32.4274 248.094C32.7001 248.347 32.9174 248.682 33.0794 249.099C33.2413 249.517 33.3223 250.031 33.3223 250.642V251.068H28.2768V250.199H32.2995C32.2995 249.83 32.2257 249.5 32.0779 249.21C31.9331 248.92 31.7257 248.692 31.4558 248.524C31.1887 248.357 30.8734 248.273 30.5098 248.273C30.1092 248.273 29.7626 248.372 29.47 248.571C29.1802 248.767 28.9572 249.023 28.801 249.338C28.6447 249.653 28.5666 249.991 28.5666 250.352V250.932C28.5666 251.426 28.6518 251.845 28.8223 252.189C28.9956 252.53 29.2356 252.79 29.5424 252.969C29.8493 253.145 30.2058 253.233 30.612 253.233C30.8762 253.233 31.1149 253.196 31.3279 253.122C31.5439 253.045 31.7299 252.932 31.8862 252.781C32.0424 252.628 32.1632 252.437 32.2484 252.21L33.22 252.483C33.1177 252.812 32.9458 253.102 32.7044 253.352C32.4629 253.599 32.1646 253.793 31.8095 253.932C31.4544 254.068 31.0552 254.136 30.612 254.136ZM35.4263 247.455L36.9945 250.131L38.5627 247.455H39.7218L37.6081 250.727L39.7218 254H38.5627L36.9945 251.46L35.4263 254H34.2672L36.3468 250.727L34.2672 247.455H35.4263ZM44.0034 247.455V248.307H40.6113V247.455H44.0034ZM41.6 245.886H42.6056V252.125C42.6056 252.409 42.6468 252.622 42.7292 252.764C42.8145 252.903 42.9224 252.997 43.0531 253.045C43.1866 253.091 43.3272 253.114 43.475 253.114C43.5858 253.114 43.6767 253.108 43.7477 253.097C43.8187 253.082 43.8755 253.071 43.9181 253.062L44.1227 253.966C44.0545 253.991 43.9593 254.017 43.8372 254.043C43.715 254.071 43.5602 254.085 43.3727 254.085C43.0886 254.085 42.8102 254.024 42.5375 253.902C42.2676 253.78 42.0431 253.594 41.8642 253.344C41.688 253.094 41.6 252.778 41.6 252.398V245.886ZM53.5275 248.92L52.6241 249.176C52.5673 249.026 52.4835 248.879 52.3727 248.737C52.2647 248.592 52.117 248.473 51.9295 248.379C51.742 248.286 51.502 248.239 51.2093 248.239C50.8088 248.239 50.475 248.331 50.2079 248.516C49.9437 248.697 49.8116 248.929 49.8116 249.21C49.8116 249.46 49.9025 249.658 50.0843 249.803C50.2662 249.947 50.5502 250.068 50.9366 250.165L51.9082 250.403C52.4934 250.545 52.9295 250.763 53.2164 251.055C53.5034 251.345 53.6468 251.719 53.6468 252.176C53.6468 252.551 53.5389 252.886 53.323 253.182C53.1099 253.477 52.8116 253.71 52.4281 253.881C52.0446 254.051 51.5985 254.136 51.09 254.136C50.4224 254.136 49.8699 253.991 49.4324 253.702C48.9949 253.412 48.7179 252.989 48.6014 252.432L49.5559 252.193C49.6468 252.545 49.8187 252.81 50.0716 252.986C50.3272 253.162 50.661 253.25 51.073 253.25C51.5417 253.25 51.9139 253.151 52.1895 252.952C52.4679 252.75 52.6071 252.509 52.6071 252.227C52.6071 252 52.5275 251.81 52.3684 251.656C52.2093 251.5 51.965 251.384 51.6355 251.307L50.5446 251.051C49.9451 250.909 49.5048 250.689 49.2235 250.391C48.9451 250.089 48.8059 249.713 48.8059 249.261C48.8059 248.892 48.9096 248.565 49.117 248.281C49.3272 247.997 49.6127 247.774 49.9735 247.612C50.3372 247.45 50.7491 247.369 51.2093 247.369C51.8571 247.369 52.3656 247.511 52.7349 247.795C53.1071 248.08 53.3713 248.455 53.5275 248.92ZM55.1607 254V247.455H56.1664V254H55.1607ZM55.6721 246.364C55.476 246.364 55.307 246.297 55.165 246.163C55.0257 246.03 54.9561 245.869 54.9561 245.682C54.9561 245.494 55.0257 245.334 55.165 245.2C55.307 245.067 55.476 245 55.6721 245C55.8681 245 56.0357 245.067 56.1749 245.2C56.3169 245.334 56.388 245.494 56.388 245.682C56.388 245.869 56.3169 246.03 56.1749 246.163C56.0357 246.297 55.8681 246.364 55.6721 246.364ZM57.8208 254V253.233L61.5368 248.46V248.392H57.9402V247.455H62.8322V248.256L59.2186 252.994V253.062H62.9515V254H57.8208ZM67.0574 254.136C66.4267 254.136 65.8826 253.997 65.4252 253.719C64.9707 253.438 64.6199 253.045 64.3727 252.543C64.1284 252.037 64.0062 251.449 64.0062 250.778C64.0062 250.108 64.1284 249.517 64.3727 249.006C64.6199 248.491 64.9636 248.091 65.4039 247.804C65.8471 247.514 66.3642 247.369 66.9551 247.369C67.296 247.369 67.6326 247.426 67.965 247.54C68.2974 247.653 68.6 247.838 68.8727 248.094C69.1454 248.347 69.3627 248.682 69.5247 249.099C69.6866 249.517 69.7676 250.031 69.7676 250.642V251.068H64.7221V250.199H68.7449C68.7449 249.83 68.671 249.5 68.5233 249.21C68.3784 248.92 68.171 248.692 67.9011 248.524C67.6341 248.357 67.3187 248.273 66.9551 248.273C66.5545 248.273 66.2079 248.372 65.9153 248.571C65.6255 248.767 65.4025 249.023 65.2463 249.338C65.09 249.653 65.0119 249.991 65.0119 250.352V250.932C65.0119 251.426 65.0971 251.845 65.2676 252.189C65.4409 252.53 65.6809 252.79 65.9877 252.969C66.2946 253.145 66.6511 253.233 67.0574 253.233C67.3216 253.233 67.5602 253.196 67.7733 253.122C67.9892 253.045 68.1752 252.932 68.3315 252.781C68.4877 252.628 68.6085 252.437 68.6937 252.21L69.6653 252.483C69.563 252.812 69.3912 253.102 69.1497 253.352C68.9082 253.599 68.6099 253.793 68.2548 253.932C67.8997 254.068 67.5005 254.136 67.0574 254.136ZM75.0815 248.835V247.915H80.3315V248.835H75.0815ZM75.0815 251.358V250.438H80.3315V251.358H75.0815ZM85.9405 254V253.233L88.8212 250.08C89.1593 249.71 89.4377 249.389 89.6564 249.116C89.8752 248.841 90.0371 248.582 90.1422 248.341C90.2502 248.097 90.3042 247.841 90.3042 247.574C90.3042 247.267 90.2303 247.001 90.0826 246.777C89.9377 246.553 89.7388 246.379 89.486 246.257C89.2331 246.135 88.949 246.074 88.6337 246.074C88.2985 246.074 88.0059 246.143 87.7559 246.283C87.5087 246.419 87.3169 246.611 87.1806 246.858C87.0471 247.105 86.9803 247.395 86.9803 247.727H85.9746C85.9746 247.216 86.0925 246.767 86.3283 246.381C86.5641 245.994 86.8851 245.693 87.2914 245.477C87.7005 245.261 88.1593 245.153 88.6678 245.153C89.1792 245.153 89.6323 245.261 90.0272 245.477C90.4221 245.693 90.7317 245.984 90.9561 246.351C91.1806 246.717 91.2928 247.125 91.2928 247.574C91.2928 247.895 91.2346 248.209 91.1181 248.516C91.0044 248.82 90.8056 249.159 90.5215 249.534C90.2402 249.906 89.8496 250.361 89.3496 250.898L87.3894 252.994V253.062H91.4462V254H85.9405ZM96.0527 254.119C95.4107 254.119 94.8638 253.945 94.4121 253.595C93.9604 253.243 93.6152 252.733 93.3766 252.065C93.138 251.395 93.0186 250.585 93.0186 249.636C93.0186 248.693 93.138 247.888 93.3766 247.22C93.6181 246.55 93.9647 246.038 94.4164 245.686C94.8709 245.331 95.4164 245.153 96.0527 245.153C96.6891 245.153 97.2331 245.331 97.6848 245.686C98.1394 246.038 98.486 246.55 98.7246 247.22C98.9661 247.888 99.0868 248.693 99.0868 249.636C99.0868 250.585 98.9675 251.395 98.7289 252.065C98.4902 252.733 98.1451 253.243 97.6934 253.595C97.2417 253.945 96.6948 254.119 96.0527 254.119ZM96.0527 253.182C96.6891 253.182 97.1834 252.875 97.5357 252.261C97.888 251.648 98.0641 250.773 98.0641 249.636C98.0641 248.881 97.9831 248.237 97.8212 247.706C97.6621 247.175 97.432 246.77 97.1309 246.491C96.8326 246.213 96.4732 246.074 96.0527 246.074C95.4221 246.074 94.9292 246.385 94.574 247.007C94.2189 247.626 94.0414 248.503 94.0414 249.636C94.0414 250.392 94.1209 251.034 94.28 251.562C94.4391 252.091 94.6678 252.493 94.9661 252.768C95.2672 253.044 95.6294 253.182 96.0527 253.182Z" fill="#738287"/>
<path d="M169.099 72.2102V71.3409L172.934 65.2727H173.565V66.6193H173.139L170.241 71.2045V71.2727H175.406V72.2102H169.099ZM173.207 74V71.946V71.5412V65.2727H174.213V74H173.207ZM179.85 74.1193C179.208 74.1193 178.661 73.9446 178.209 73.5952C177.757 73.2429 177.412 72.733 177.173 72.0653C176.935 71.3949 176.816 70.5852 176.816 69.6364C176.816 68.6932 176.935 67.8878 177.173 67.2202C177.415 66.5497 177.762 66.0384 178.213 65.6861C178.668 65.331 179.213 65.1534 179.85 65.1534C180.486 65.1534 181.03 65.331 181.482 65.6861C181.936 66.0384 182.283 66.5497 182.521 67.2202C182.763 67.8878 182.884 68.6932 182.884 69.6364C182.884 70.5852 182.764 71.3949 182.526 72.0653C182.287 72.733 181.942 73.2429 181.49 73.5952C181.039 73.9446 180.492 74.1193 179.85 74.1193ZM179.85 73.1818C180.486 73.1818 180.98 72.875 181.333 72.2614C181.685 71.6477 181.861 70.7727 181.861 69.6364C181.861 68.8807 181.78 68.2372 181.618 67.706C181.459 67.1747 181.229 66.7699 180.928 66.4915C180.629 66.2131 180.27 66.0739 179.85 66.0739C179.219 66.0739 178.726 66.3849 178.371 67.0071C178.016 67.6264 177.838 68.5028 177.838 69.6364C177.838 70.392 177.918 71.0341 178.077 71.5625C178.236 72.0909 178.465 72.4929 178.763 72.7685C179.064 73.044 179.426 73.1818 179.85 73.1818Z" fill="#738287"/>
<path d="M157 84L196 84" stroke="#738287"/>
<line x1="195.5" y1="79" x2="195.5" y2="98" stroke="#738287"/>
<line x1="156.5" y1="79" x2="156.5" y2="98" stroke="#738287"/>
<path d="M370.099 72.2102V71.3409L373.934 65.2727H374.565V66.6193H374.139L371.241 71.2045V71.2727H376.406V72.2102H370.099ZM374.207 74V71.946V71.5412V65.2727H375.213V74H374.207ZM380.85 74.1193C380.208 74.1193 379.661 73.9446 379.209 73.5952C378.757 73.2429 378.412 72.733 378.173 72.0653C377.935 71.3949 377.816 70.5852 377.816 69.6364C377.816 68.6932 377.935 67.8878 378.173 67.2202C378.415 66.5497 378.762 66.0384 379.213 65.6861C379.668 65.331 380.213 65.1534 380.85 65.1534C381.486 65.1534 382.03 65.331 382.482 65.6861C382.936 66.0384 383.283 66.5497 383.521 67.2202C383.763 67.8878 383.884 68.6932 383.884 69.6364C383.884 70.5852 383.764 71.3949 383.526 72.0653C383.287 72.733 382.942 73.2429 382.49 73.5952C382.039 73.9446 381.492 74.1193 380.85 74.1193ZM380.85 73.1818C381.486 73.1818 381.98 72.875 382.333 72.2614C382.685 71.6477 382.861 70.7727 382.861 69.6364C382.861 68.8807 382.78 68.2372 382.618 67.706C382.459 67.1747 382.229 66.7699 381.928 66.4915C381.629 66.2131 381.27 66.0739 380.85 66.0739C380.219 66.0739 379.726 66.3849 379.371 67.0071C379.016 67.6264 378.838 68.5028 378.838 69.6364C378.838 70.392 378.918 71.0341 379.077 71.5625C379.236 72.0909 379.465 72.4929 379.763 72.7685C380.064 73.044 380.426 73.1818 380.85 73.1818Z" fill="#738287"/>
<path d="M358 84L397 84" stroke="#738287"/>
<line x1="396.5" y1="79" x2="396.5" y2="98" stroke="#738287"/>
<line x1="357.5" y1="79" x2="357.5" y2="98" stroke="#738287"/>
<path d="M109.207 142.119C108.849 142.114 108.491 142.045 108.134 141.915C107.776 141.784 107.449 141.564 107.153 141.254C106.858 140.942 106.621 140.52 106.442 139.989C106.263 139.455 106.173 138.784 106.173 137.977C106.173 137.205 106.246 136.52 106.391 135.923C106.536 135.324 106.746 134.82 107.021 134.411C107.297 133.999 107.629 133.686 108.018 133.473C108.411 133.26 108.852 133.153 109.344 133.153C109.832 133.153 110.267 133.251 110.648 133.447C111.031 133.641 111.344 133.911 111.585 134.257C111.827 134.604 111.983 135.003 112.054 135.455H111.014C110.918 135.062 110.73 134.737 110.452 134.479C110.173 134.22 109.804 134.091 109.344 134.091C108.668 134.091 108.135 134.385 107.746 134.973C107.359 135.561 107.165 136.386 107.162 137.449H107.23C107.389 137.207 107.578 137.001 107.797 136.831C108.018 136.658 108.263 136.524 108.53 136.43C108.797 136.337 109.08 136.29 109.378 136.29C109.878 136.29 110.335 136.415 110.75 136.665C111.165 136.912 111.497 137.254 111.747 137.692C111.997 138.126 112.122 138.625 112.122 139.188C112.122 139.727 112.001 140.222 111.76 140.67C111.518 141.116 111.179 141.472 110.741 141.736C110.307 141.997 109.795 142.125 109.207 142.119ZM109.207 141.182C109.565 141.182 109.886 141.092 110.17 140.913C110.457 140.734 110.683 140.494 110.848 140.193C111.016 139.892 111.099 139.557 111.099 139.188C111.099 138.827 111.018 138.499 110.857 138.203C110.697 137.905 110.477 137.668 110.196 137.491C109.918 137.315 109.599 137.227 109.241 137.227C108.972 137.227 108.72 137.281 108.487 137.389C108.254 137.494 108.05 137.639 107.874 137.824C107.7 138.009 107.564 138.22 107.464 138.459C107.365 138.695 107.315 138.943 107.315 139.205C107.315 139.551 107.396 139.875 107.558 140.176C107.723 140.477 107.947 140.72 108.232 140.905C108.518 141.089 108.844 141.182 109.207 141.182ZM113.593 140.21V139.341L117.429 133.273H118.059V134.619H117.633L114.735 139.205V139.273H119.9V140.21H113.593ZM117.701 142V139.946V139.541V133.273H118.707V142H117.701Z" fill="#738287"/>
<path d="M134 170L134 106" stroke="#738287"/>
<line x1="129" y1="106.5" x2="148" y2="106.5" stroke="#738287"/>
<line x1="129" y1="169.5" x2="148" y2="169.5" stroke="#738287"/>
<rect x="156" y="106" width="241" height="64" fill="#058C50"/>
<path d="M210.032 135.185H207.817C207.731 134.711 207.573 134.295 207.341 133.935C207.109 133.575 206.825 133.269 206.488 133.018C206.152 132.768 205.776 132.578 205.359 132.45C204.947 132.322 204.509 132.259 204.045 132.259C203.207 132.259 202.457 132.469 201.794 132.891C201.136 133.312 200.615 133.93 200.231 134.744C199.853 135.559 199.663 136.553 199.663 137.727C199.663 138.911 199.853 139.91 200.231 140.724C200.615 141.539 201.138 142.154 201.801 142.571C202.464 142.988 203.21 143.196 204.038 143.196C204.497 143.196 204.933 143.134 205.345 143.011C205.762 142.884 206.138 142.696 206.474 142.45C206.81 142.204 207.095 141.903 207.327 141.548C207.563 141.188 207.727 140.777 207.817 140.312L210.032 140.32C209.914 141.035 209.684 141.693 209.344 142.294C209.007 142.891 208.574 143.407 208.044 143.842C207.518 144.273 206.917 144.607 206.24 144.844C205.563 145.08 204.824 145.199 204.024 145.199C202.765 145.199 201.642 144.901 200.657 144.304C199.673 143.703 198.896 142.843 198.328 141.726C197.765 140.608 197.483 139.276 197.483 137.727C197.483 136.174 197.767 134.841 198.335 133.729C198.903 132.611 199.68 131.754 200.665 131.158C201.649 130.556 202.769 130.256 204.024 130.256C204.796 130.256 205.515 130.367 206.183 130.589C206.855 130.807 207.459 131.129 207.994 131.555C208.529 131.977 208.972 132.493 209.322 133.104C209.673 133.71 209.909 134.403 210.032 135.185ZM212.488 149.091V134.091H214.562V135.859H214.74C214.863 135.632 215.04 135.369 215.272 135.071C215.504 134.773 215.826 134.512 216.238 134.29C216.65 134.062 217.195 133.949 217.872 133.949C218.752 133.949 219.538 134.171 220.23 134.616C220.921 135.062 221.463 135.703 221.856 136.541C222.254 137.379 222.453 138.388 222.453 139.567C222.453 140.746 222.256 141.757 221.863 142.599C221.47 143.437 220.93 144.084 220.244 144.538C219.557 144.988 218.774 145.213 217.893 145.213C217.23 145.213 216.688 145.102 216.267 144.879C215.85 144.657 215.523 144.396 215.286 144.098C215.05 143.8 214.867 143.535 214.74 143.303H214.612V149.091H212.488ZM214.569 139.545C214.569 140.312 214.68 140.985 214.903 141.562C215.125 142.14 215.447 142.592 215.869 142.919C216.29 143.241 216.806 143.402 217.417 143.402C218.052 143.402 218.582 143.234 219.008 142.898C219.434 142.557 219.756 142.095 219.974 141.513C220.196 140.93 220.308 140.275 220.308 139.545C220.308 138.826 220.199 138.179 219.981 137.607C219.768 137.034 219.446 136.581 219.015 136.25C218.589 135.919 218.056 135.753 217.417 135.753C216.802 135.753 216.281 135.911 215.855 136.229C215.433 136.546 215.114 136.989 214.896 137.557C214.678 138.125 214.569 138.788 214.569 139.545ZM229.534 145.22C228.459 145.22 227.533 144.991 226.757 144.531C225.985 144.067 225.388 143.416 224.967 142.578C224.55 141.735 224.342 140.748 224.342 139.616C224.342 138.499 224.55 137.514 224.967 136.662C225.388 135.81 225.975 135.144 226.728 134.666C227.486 134.188 228.371 133.949 229.384 133.949C230 133.949 230.597 134.051 231.174 134.254C231.752 134.458 232.27 134.777 232.73 135.213C233.189 135.649 233.551 136.214 233.816 136.911C234.081 137.602 234.214 138.442 234.214 139.432V140.185H225.542V138.594H232.133C232.133 138.035 232.019 137.54 231.792 137.109C231.565 136.674 231.245 136.33 230.833 136.08C230.426 135.829 229.948 135.703 229.399 135.703C228.802 135.703 228.281 135.85 227.836 136.143C227.396 136.432 227.055 136.811 226.813 137.28C226.577 137.744 226.458 138.248 226.458 138.793V140.036C226.458 140.765 226.586 141.385 226.842 141.896C227.102 142.408 227.464 142.798 227.928 143.068C228.392 143.333 228.935 143.466 229.555 143.466C229.957 143.466 230.324 143.409 230.656 143.295C230.987 143.177 231.274 143.002 231.515 142.77C231.757 142.538 231.941 142.251 232.069 141.911L234.079 142.273C233.918 142.865 233.629 143.383 233.213 143.828C232.801 144.268 232.282 144.612 231.657 144.858C231.037 145.099 230.329 145.22 229.534 145.22ZM235.505 148.146V143.161H236.393C236.62 142.952 236.812 142.704 236.968 142.415C237.129 142.126 237.264 141.783 237.373 141.385C237.486 140.987 237.581 140.523 237.657 139.993C237.733 139.458 237.799 138.847 237.856 138.161L238.197 134.091H245.611V143.161H247.287V148.146H245.214V145H237.607V148.146H235.505ZM238.665 143.161H243.537V135.909H240.1L239.873 138.161C239.764 139.306 239.626 140.301 239.461 141.143C239.295 141.982 239.03 142.654 238.665 143.161ZM256.757 138.629V140.469H250.847V138.629H256.757ZM251.444 134.091V145H249.363V134.091H251.444ZM258.241 134.091V145H256.167V134.091H258.241ZM267.588 145V135.902H264.974C264.354 135.902 263.871 136.046 263.525 136.335C263.179 136.624 263.007 137.003 263.007 137.472C263.007 137.936 263.165 138.31 263.482 138.594C263.804 138.873 264.254 139.013 264.832 139.013H268.205V140.732H264.832C264.027 140.732 263.331 140.599 262.744 140.334C262.161 140.064 261.712 139.683 261.394 139.19C261.082 138.698 260.926 138.116 260.926 137.443C260.926 136.757 261.087 136.165 261.409 135.668C261.735 135.166 262.202 134.777 262.808 134.503C263.419 134.228 264.141 134.091 264.974 134.091H269.583V145H267.588ZM260.428 145L263.504 139.489H265.677L262.602 145H260.428ZM278.916 145V135.902H276.302C275.682 135.902 275.199 136.046 274.853 136.335C274.508 136.624 274.335 137.003 274.335 137.472C274.335 137.936 274.493 138.31 274.811 138.594C275.133 138.873 275.582 139.013 276.16 139.013H279.534V140.732H276.16C275.355 140.732 274.659 140.599 274.072 140.334C273.49 140.064 273.04 139.683 272.722 139.19C272.41 138.698 272.254 138.116 272.254 137.443C272.254 136.757 272.415 136.165 272.737 135.668C273.063 135.166 273.53 134.777 274.136 134.503C274.747 134.228 275.469 134.091 276.302 134.091H280.911V145H278.916ZM271.757 145L274.832 139.489H277.005L273.93 145H271.757ZM289.031 145V134.091H291.155V138.665H292.177L295.778 134.091H298.406L294.18 139.396L298.456 145H295.821L292.532 140.639H291.155V145H289.031ZM307.499 138.629V140.469H301.59V138.629H307.499ZM302.186 134.091V145H300.105V134.091H302.186ZM308.983 134.091V145H306.909V134.091H308.983ZM316.419 145.22C315.396 145.22 314.504 144.986 313.742 144.517C312.979 144.048 312.387 143.393 311.966 142.55C311.545 141.707 311.334 140.722 311.334 139.595C311.334 138.464 311.545 137.474 311.966 136.626C312.387 135.779 312.979 135.121 313.742 134.652C314.504 134.183 315.396 133.949 316.419 133.949C317.442 133.949 318.334 134.183 319.097 134.652C319.859 135.121 320.451 135.779 320.872 136.626C321.294 137.474 321.504 138.464 321.504 139.595C321.504 140.722 321.294 141.707 320.872 142.55C320.451 143.393 319.859 144.048 319.097 144.517C318.334 144.986 317.442 145.22 316.419 145.22ZM316.426 143.438C317.089 143.438 317.638 143.262 318.074 142.912C318.51 142.562 318.832 142.095 319.04 141.513C319.253 140.93 319.36 140.289 319.36 139.588C319.36 138.892 319.253 138.253 319.04 137.67C318.832 137.083 318.51 136.612 318.074 136.257C317.638 135.902 317.089 135.724 316.426 135.724C315.759 135.724 315.205 135.902 314.764 136.257C314.329 136.612 314.004 137.083 313.791 137.67C313.583 138.253 313.479 138.892 313.479 139.588C313.479 140.289 313.583 140.93 313.791 141.513C314.004 142.095 314.329 142.562 314.764 142.912C315.205 143.262 315.759 143.438 316.426 143.438ZM323.875 145V134.091H332.774V145H330.693V135.923H325.942V145H323.875ZM335.613 145V134.091H337.737V138.665H338.759L342.36 134.091H344.988L340.762 139.396L345.038 145H342.403L339.115 140.639H337.737V145H335.613ZM349.862 145.241C349.171 145.241 348.546 145.114 347.987 144.858C347.428 144.598 346.986 144.221 346.659 143.729C346.337 143.236 346.176 142.633 346.176 141.918C346.176 141.302 346.294 140.795 346.531 140.398C346.768 140 347.087 139.685 347.49 139.453C347.892 139.221 348.342 139.046 348.839 138.928C349.336 138.809 349.843 138.719 350.359 138.658C351.013 138.582 351.543 138.52 351.95 138.473C352.357 138.421 352.653 138.338 352.838 138.224C353.023 138.111 353.115 137.926 353.115 137.67V137.621C353.115 137 352.94 136.52 352.589 136.179C352.244 135.838 351.728 135.668 351.041 135.668C350.326 135.668 349.763 135.826 349.351 136.143C348.943 136.456 348.662 136.804 348.506 137.188L346.51 136.733C346.747 136.07 347.092 135.535 347.547 135.128C348.006 134.716 348.534 134.418 349.131 134.233C349.727 134.044 350.354 133.949 351.013 133.949C351.448 133.949 351.91 134.001 352.398 134.105C352.89 134.205 353.349 134.389 353.775 134.659C354.206 134.929 354.559 135.315 354.834 135.817C355.108 136.314 355.246 136.96 355.246 137.756V145H353.172V143.509H353.086C352.949 143.783 352.743 144.053 352.469 144.318C352.194 144.583 351.841 144.804 351.41 144.979C350.979 145.154 350.463 145.241 349.862 145.241ZM350.324 143.537C350.911 143.537 351.413 143.421 351.829 143.189C352.251 142.957 352.57 142.654 352.788 142.28C353.011 141.901 353.122 141.496 353.122 141.065V139.659C353.046 139.735 352.899 139.806 352.682 139.872C352.469 139.934 352.225 139.988 351.95 140.036C351.675 140.078 351.408 140.118 351.148 140.156C350.887 140.189 350.669 140.218 350.494 140.241C350.082 140.294 349.706 140.381 349.365 140.504C349.029 140.627 348.759 140.805 348.555 141.037C348.356 141.264 348.257 141.567 348.257 141.946C348.257 142.472 348.451 142.869 348.839 143.139C349.228 143.404 349.722 143.537 350.324 143.537Z" fill="white"/>
<path d="M433.021 120V119.233L435.901 116.08C436.239 115.71 436.518 115.389 436.737 115.116C436.955 114.841 437.117 114.582 437.222 114.341C437.33 114.097 437.384 113.841 437.384 113.574C437.384 113.267 437.31 113.001 437.163 112.777C437.018 112.553 436.819 112.379 436.566 112.257C436.313 112.135 436.029 112.074 435.714 112.074C435.379 112.074 435.086 112.143 434.836 112.283C434.589 112.419 434.397 112.611 434.261 112.858C434.127 113.105 434.06 113.395 434.06 113.727H433.055C433.055 113.216 433.173 112.767 433.408 112.381C433.644 111.994 433.965 111.693 434.371 111.477C434.781 111.261 435.239 111.153 435.748 111.153C436.259 111.153 436.712 111.261 437.107 111.477C437.502 111.693 437.812 111.984 438.036 112.351C438.261 112.717 438.373 113.125 438.373 113.574C438.373 113.895 438.315 114.209 438.198 114.516C438.085 114.82 437.886 115.159 437.602 115.534C437.32 115.906 436.93 116.361 436.43 116.898L434.469 118.994V119.062H438.526V120H433.021ZM443.133 120.119C442.491 120.119 441.944 119.945 441.492 119.595C441.04 119.243 440.695 118.733 440.457 118.065C440.218 117.395 440.099 116.585 440.099 115.636C440.099 114.693 440.218 113.888 440.457 113.22C440.698 112.55 441.045 112.038 441.496 111.686C441.951 111.331 442.496 111.153 443.133 111.153C443.769 111.153 444.313 111.331 444.765 111.686C445.219 112.038 445.566 112.55 445.805 113.22C446.046 113.888 446.167 114.693 446.167 115.636C446.167 116.585 446.048 117.395 445.809 118.065C445.57 118.733 445.225 119.243 444.773 119.595C444.322 119.945 443.775 120.119 443.133 120.119ZM443.133 119.182C443.769 119.182 444.263 118.875 444.616 118.261C444.968 117.648 445.144 116.773 445.144 115.636C445.144 114.881 445.063 114.237 444.901 113.706C444.742 113.175 444.512 112.77 444.211 112.491C443.913 112.213 443.553 112.074 443.133 112.074C442.502 112.074 442.009 112.385 441.654 113.007C441.299 113.626 441.121 114.503 441.121 115.636C441.121 116.392 441.201 117.034 441.36 117.562C441.519 118.091 441.748 118.493 442.046 118.768C442.347 119.044 442.71 119.182 443.133 119.182Z" fill="#738287"/>
<path d="M419 106L419 126" stroke="#738287"/>
<line x1="424" y1="125.5" x2="405" y2="125.5" stroke="#738287"/>
<line x1="424" y1="106.5" x2="405" y2="106.5" stroke="#738287"/>
<path d="M433.021 164V163.233L435.901 160.08C436.239 159.71 436.518 159.389 436.737 159.116C436.955 158.841 437.117 158.582 437.222 158.341C437.33 158.097 437.384 157.841 437.384 157.574C437.384 157.267 437.31 157.001 437.163 156.777C437.018 156.553 436.819 156.379 436.566 156.257C436.313 156.135 436.029 156.074 435.714 156.074C435.379 156.074 435.086 156.143 434.836 156.283C434.589 156.419 434.397 156.611 434.261 156.858C434.127 157.105 434.06 157.395 434.06 157.727H433.055C433.055 157.216 433.173 156.767 433.408 156.381C433.644 155.994 433.965 155.693 434.371 155.477C434.781 155.261 435.239 155.153 435.748 155.153C436.259 155.153 436.712 155.261 437.107 155.477C437.502 155.693 437.812 155.984 438.036 156.351C438.261 156.717 438.373 157.125 438.373 157.574C438.373 157.895 438.315 158.209 438.198 158.516C438.085 158.82 437.886 159.159 437.602 159.534C437.32 159.906 436.93 160.361 436.43 160.898L434.469 162.994V163.062H438.526V164H433.021ZM443.133 164.119C442.491 164.119 441.944 163.945 441.492 163.595C441.04 163.243 440.695 162.733 440.457 162.065C440.218 161.395 440.099 160.585 440.099 159.636C440.099 158.693 440.218 157.888 440.457 157.22C440.698 156.55 441.045 156.038 441.496 155.686C441.951 155.331 442.496 155.153 443.133 155.153C443.769 155.153 444.313 155.331 444.765 155.686C445.219 156.038 445.566 156.55 445.805 157.22C446.046 157.888 446.167 158.693 446.167 159.636C446.167 160.585 446.048 161.395 445.809 162.065C445.57 162.733 445.225 163.243 444.773 163.595C444.322 163.945 443.775 164.119 443.133 164.119ZM443.133 163.182C443.769 163.182 444.263 162.875 444.616 162.261C444.968 161.648 445.144 160.773 445.144 159.636C445.144 158.881 445.063 158.237 444.901 157.706C444.742 157.175 444.512 156.77 444.211 156.491C443.913 156.213 443.553 156.074 443.133 156.074C442.502 156.074 442.009 156.385 441.654 157.007C441.299 157.626 441.121 158.503 441.121 159.636C441.121 160.392 441.201 161.034 441.36 161.562C441.519 162.091 441.748 162.493 442.046 162.768C442.347 163.044 442.71 163.182 443.133 163.182Z" fill="#738287"/>
<path d="M419 150L419 170" stroke="#738287"/>
<line x1="424" y1="169.5" x2="405" y2="169.5" stroke="#738287"/>
<line x1="424" y1="150.5" x2="405" y2="150.5" stroke="#738287"/>
<path d="M433.015 142V141.233L435.895 138.08C436.233 137.71 436.512 137.389 436.731 137.116C436.949 136.841 437.111 136.582 437.216 136.341C437.324 136.097 437.378 135.841 437.378 135.574C437.378 135.267 437.305 135.001 437.157 134.777C437.012 134.553 436.813 134.379 436.56 134.257C436.307 134.135 436.023 134.074 435.708 134.074C435.373 134.074 435.08 134.143 434.83 134.283C434.583 134.419 434.391 134.611 434.255 134.858C434.121 135.105 434.055 135.395 434.055 135.727H433.049C433.049 135.216 433.167 134.767 433.403 134.381C433.638 133.994 433.959 133.693 434.366 133.477C434.775 133.261 435.233 133.153 435.742 133.153C436.253 133.153 436.706 133.261 437.101 133.477C437.496 133.693 437.806 133.984 438.03 134.351C438.255 134.717 438.367 135.125 438.367 135.574C438.367 135.895 438.309 136.209 438.192 136.516C438.079 136.82 437.88 137.159 437.596 137.534C437.314 137.906 436.924 138.361 436.424 138.898L434.464 140.994V141.062H438.52V142H433.015ZM439.888 140.21V139.341L443.724 133.273H444.354V134.619H443.928L441.03 139.205V139.273H446.195V140.21H439.888ZM443.996 142V139.946V139.541V133.273H445.002V142H443.996Z" fill="#738287"/>
<path d="M419 125L419 151" stroke="#738287"/>
<line x1="424" y1="150.5" x2="405" y2="150.5" stroke="#738287"/>
<line x1="424" y1="125.5" x2="405" y2="125.5" stroke="#738287"/>
</svg>
