<svg width="552" height="276" viewBox="0 0 552 276" fill="none" xmlns="http://www.w3.org/2000/svg">
<g clip-path="url(#clip0_1283_4689)">
<rect width="552" height="276" fill="#F2F6F9"/>
<rect y="-13" width="552" height="276" fill="#F2F6F9"/>
<path d="M181.899 80.1193C181.337 80.1193 180.835 80.0227 180.395 79.8295C179.957 79.6364 179.609 79.3679 179.351 79.0241C179.095 78.6776 178.956 78.2756 178.933 77.8182H180.007C180.03 78.0994 180.126 78.3423 180.297 78.5469C180.467 78.7486 180.69 78.9048 180.966 79.0156C181.241 79.1264 181.547 79.1818 181.882 79.1818C182.257 79.1818 182.589 79.1165 182.879 78.9858C183.169 78.8551 183.396 78.6733 183.561 78.4403C183.726 78.2074 183.808 77.9375 183.808 77.6307C183.808 77.3097 183.729 77.027 183.57 76.7827C183.411 76.5355 183.178 76.3423 182.871 76.2031C182.564 76.0639 182.189 75.9943 181.746 75.9943H181.047V75.0568H181.746C182.092 75.0568 182.396 74.9943 182.658 74.8693C182.922 74.7443 183.128 74.5682 183.276 74.3409C183.426 74.1136 183.501 73.8466 183.501 73.5398C183.501 73.2443 183.436 72.9872 183.305 72.7685C183.175 72.5497 182.99 72.3793 182.751 72.2571C182.516 72.1349 182.237 72.0739 181.916 72.0739C181.615 72.0739 181.331 72.1293 181.064 72.2401C180.8 72.348 180.584 72.5057 180.416 72.7131C180.249 72.9176 180.158 73.1648 180.143 73.4545H179.121C179.138 72.9972 179.276 72.5966 179.534 72.2528C179.793 71.9062 180.131 71.6364 180.548 71.4432C180.969 71.25 181.43 71.1534 181.933 71.1534C182.473 71.1534 182.936 71.2628 183.322 71.4815C183.709 71.6974 184.006 71.983 184.213 72.3381C184.42 72.6932 184.524 73.0767 184.524 73.4886C184.524 73.9801 184.395 74.3991 184.136 74.7457C183.881 75.0923 183.533 75.3324 183.092 75.4659V75.5341C183.643 75.625 184.074 75.8594 184.384 76.2372C184.693 76.6122 184.848 77.0767 184.848 77.6307C184.848 78.1051 184.719 78.5312 184.46 78.9091C184.205 79.2841 183.855 79.5795 183.412 79.7955C182.969 80.0114 182.464 80.1193 181.899 80.1193ZM186.591 80V79.233L189.472 76.0795C189.81 75.7102 190.088 75.3892 190.307 75.1165C190.526 74.8409 190.688 74.5824 190.793 74.3409C190.901 74.0966 190.955 73.8409 190.955 73.5739C190.955 73.267 190.881 73.0014 190.733 72.777C190.588 72.5526 190.389 72.3793 190.136 72.2571C189.884 72.1349 189.599 72.0739 189.284 72.0739C188.949 72.0739 188.656 72.1435 188.406 72.2827C188.159 72.419 187.967 72.6108 187.831 72.858C187.697 73.1051 187.631 73.3949 187.631 73.7273H186.625C186.625 73.2159 186.743 72.767 186.979 72.3807C187.214 71.9943 187.536 71.6932 187.942 71.4773C188.351 71.2614 188.81 71.1534 189.318 71.1534C189.83 71.1534 190.283 71.2614 190.678 71.4773C191.072 71.6932 191.382 71.9844 191.607 72.3509C191.831 72.7173 191.943 73.125 191.943 73.5739C191.943 73.8949 191.885 74.2088 191.768 74.5156C191.655 74.8196 191.456 75.1591 191.172 75.5341C190.891 75.9062 190.5 76.3608 190 76.8977L188.04 78.9943V79.0625H192.097V80H186.591Z" fill="#738287"/>
<path d="M171 90L202 90" stroke="#738287"/>
<line x1="201.5" y1="85" x2="201.5" y2="104" stroke="#738287"/>
<line x1="170.5" y1="85" x2="170.5" y2="104" stroke="#738287"/>
<path d="M361.899 80.1193C361.337 80.1193 360.835 80.0227 360.395 79.8295C359.957 79.6364 359.609 79.3679 359.351 79.0241C359.095 78.6776 358.956 78.2756 358.933 77.8182H360.007C360.03 78.0994 360.126 78.3423 360.297 78.5469C360.467 78.7486 360.69 78.9048 360.966 79.0156C361.241 79.1264 361.547 79.1818 361.882 79.1818C362.257 79.1818 362.589 79.1165 362.879 78.9858C363.169 78.8551 363.396 78.6733 363.561 78.4403C363.726 78.2074 363.808 77.9375 363.808 77.6307C363.808 77.3097 363.729 77.027 363.57 76.7827C363.411 76.5355 363.178 76.3423 362.871 76.2031C362.564 76.0639 362.189 75.9943 361.746 75.9943H361.047V75.0568H361.746C362.092 75.0568 362.396 74.9943 362.658 74.8693C362.922 74.7443 363.128 74.5682 363.276 74.3409C363.426 74.1136 363.501 73.8466 363.501 73.5398C363.501 73.2443 363.436 72.9872 363.305 72.7685C363.175 72.5497 362.99 72.3793 362.751 72.2571C362.516 72.1349 362.237 72.0739 361.916 72.0739C361.615 72.0739 361.331 72.1293 361.064 72.2401C360.8 72.348 360.584 72.5057 360.416 72.7131C360.249 72.9176 360.158 73.1648 360.143 73.4545H359.121C359.138 72.9972 359.276 72.5966 359.534 72.2528C359.793 71.9062 360.131 71.6364 360.548 71.4432C360.969 71.25 361.43 71.1534 361.933 71.1534C362.473 71.1534 362.936 71.2628 363.322 71.4815C363.709 71.6974 364.006 71.983 364.213 72.3381C364.42 72.6932 364.524 73.0767 364.524 73.4886C364.524 73.9801 364.395 74.3991 364.136 74.7457C363.881 75.0923 363.533 75.3324 363.092 75.4659V75.5341C363.643 75.625 364.074 75.8594 364.384 76.2372C364.693 76.6122 364.848 77.0767 364.848 77.6307C364.848 78.1051 364.719 78.5312 364.46 78.9091C364.205 79.2841 363.855 79.5795 363.412 79.7955C362.969 80.0114 362.464 80.1193 361.899 80.1193ZM366.591 80V79.233L369.472 76.0795C369.81 75.7102 370.088 75.3892 370.307 75.1165C370.526 74.8409 370.688 74.5824 370.793 74.3409C370.901 74.0966 370.955 73.8409 370.955 73.5739C370.955 73.267 370.881 73.0014 370.733 72.777C370.588 72.5526 370.389 72.3793 370.136 72.2571C369.884 72.1349 369.599 72.0739 369.284 72.0739C368.949 72.0739 368.656 72.1435 368.406 72.2827C368.159 72.419 367.967 72.6108 367.831 72.858C367.697 73.1051 367.631 73.3949 367.631 73.7273H366.625C366.625 73.2159 366.743 72.767 366.979 72.3807C367.214 71.9943 367.536 71.6932 367.942 71.4773C368.351 71.2614 368.81 71.1534 369.318 71.1534C369.83 71.1534 370.283 71.2614 370.678 71.4773C371.072 71.6932 371.382 71.9844 371.607 72.3509C371.831 72.7173 371.943 73.125 371.943 73.5739C371.943 73.8949 371.885 74.2088 371.768 74.5156C371.655 74.8196 371.456 75.1591 371.172 75.5341C370.891 75.9062 370.5 76.3608 370 76.8977L368.04 78.9943V79.0625H372.097V80H366.591Z" fill="#738287"/>
<path d="M351 90L382 90" stroke="#738287"/>
<line x1="381.5" y1="85" x2="381.5" y2="104" stroke="#738287"/>
<line x1="350.5" y1="85" x2="350.5" y2="104" stroke="#738287"/>
<path d="M123.847 142.119C123.347 142.119 122.897 142.02 122.497 141.821C122.096 141.622 121.775 141.349 121.534 141.003C121.292 140.656 121.16 140.261 121.137 139.818H122.16C122.2 140.213 122.379 140.54 122.697 140.798C123.018 141.054 123.401 141.182 123.847 141.182C124.205 141.182 124.524 141.098 124.802 140.93C125.083 140.763 125.303 140.533 125.463 140.24C125.624 139.945 125.705 139.611 125.705 139.239C125.705 138.858 125.622 138.518 125.454 138.22C125.289 137.919 125.062 137.682 124.772 137.509C124.482 137.335 124.151 137.247 123.779 137.244C123.512 137.241 123.238 137.283 122.957 137.368C122.676 137.45 122.444 137.557 122.262 137.688L121.274 137.568L121.802 133.273H126.336V134.21H122.688L122.382 136.784H122.433C122.612 136.642 122.836 136.524 123.106 136.43C123.376 136.337 123.657 136.29 123.95 136.29C124.484 136.29 124.96 136.418 125.377 136.673C125.798 136.926 126.127 137.273 126.366 137.713C126.607 138.153 126.728 138.656 126.728 139.222C126.728 139.778 126.603 140.276 126.353 140.713C126.106 141.148 125.765 141.491 125.33 141.744C124.896 141.994 124.401 142.119 123.847 142.119ZM128.421 142V141.233L131.302 138.08C131.64 137.71 131.918 137.389 132.137 137.116C132.356 136.841 132.518 136.582 132.623 136.341C132.731 136.097 132.785 135.841 132.785 135.574C132.785 135.267 132.711 135.001 132.563 134.777C132.418 134.553 132.219 134.379 131.966 134.257C131.714 134.135 131.43 134.074 131.114 134.074C130.779 134.074 130.486 134.143 130.236 134.283C129.989 134.419 129.797 134.611 129.661 134.858C129.528 135.105 129.461 135.395 129.461 135.727H128.455C128.455 135.216 128.573 134.767 128.809 134.381C129.045 133.994 129.366 133.693 129.772 133.477C130.181 133.261 130.64 133.153 131.148 133.153C131.66 133.153 132.113 133.261 132.508 133.477C132.903 133.693 133.212 133.984 133.437 134.351C133.661 134.717 133.773 135.125 133.773 135.574C133.773 135.895 133.715 136.209 133.599 136.516C133.485 136.82 133.286 137.159 133.002 137.534C132.721 137.906 132.33 138.361 131.83 138.898L129.87 140.994V141.062H133.927V142H128.421Z" fill="#738287"/>
<path d="M148 164L148 112" stroke="#738287"/>
<line x1="143" y1="112.5" x2="162" y2="112.5" stroke="#738287"/>
<line x1="143" y1="163.5" x2="162" y2="163.5" stroke="#738287"/>
<path d="M421.438 115.023V123.75H420.382V116.131H420.33L418.2 117.545V116.472L420.382 115.023H421.438ZM426.846 123.869C426.488 123.864 426.13 123.795 425.772 123.665C425.414 123.534 425.088 123.314 424.792 123.004C424.497 122.692 424.259 122.27 424.08 121.739C423.901 121.205 423.812 120.534 423.812 119.727C423.812 118.955 423.884 118.27 424.029 117.673C424.174 117.074 424.384 116.57 424.66 116.161C424.936 115.749 425.268 115.436 425.657 115.223C426.049 115.01 426.491 114.903 426.982 114.903C427.471 114.903 427.906 115.001 428.286 115.197C428.67 115.391 428.982 115.661 429.224 116.007C429.465 116.354 429.622 116.753 429.693 117.205H428.653C428.556 116.812 428.369 116.487 428.09 116.229C427.812 115.97 427.443 115.841 426.982 115.841C426.306 115.841 425.774 116.135 425.384 116.723C424.998 117.311 424.803 118.136 424.801 119.199H424.869C425.028 118.957 425.217 118.751 425.436 118.581C425.657 118.408 425.901 118.274 426.169 118.18C426.436 118.087 426.718 118.04 427.017 118.04C427.517 118.04 427.974 118.165 428.389 118.415C428.803 118.662 429.136 119.004 429.386 119.442C429.636 119.876 429.761 120.375 429.761 120.938C429.761 121.477 429.64 121.972 429.399 122.42C429.157 122.866 428.818 123.222 428.38 123.486C427.945 123.747 427.434 123.875 426.846 123.869ZM426.846 122.932C427.204 122.932 427.525 122.842 427.809 122.663C428.096 122.484 428.322 122.244 428.487 121.943C428.654 121.642 428.738 121.307 428.738 120.938C428.738 120.577 428.657 120.249 428.495 119.953C428.336 119.655 428.116 119.418 427.835 119.241C427.556 119.065 427.238 118.977 426.88 118.977C426.61 118.977 426.359 119.031 426.126 119.139C425.893 119.244 425.688 119.389 425.512 119.574C425.339 119.759 425.203 119.97 425.103 120.209C425.004 120.445 424.954 120.693 424.954 120.955C424.954 121.301 425.035 121.625 425.197 121.926C425.362 122.227 425.586 122.47 425.87 122.655C426.157 122.839 426.482 122.932 426.846 122.932Z" fill="#738287"/>
<path d="M404 112.5V127.5" stroke="#738287"/>
<line x1="409" y1="127.5" x2="390" y2="127.5" stroke="#738287"/>
<line x1="409" y1="112.5" x2="390" y2="112.5" stroke="#738287"/>
<path d="M421.438 151.023V159.75H420.382V152.131H420.33L418.2 153.545V152.472L420.382 151.023H421.438ZM426.846 159.869C426.488 159.864 426.13 159.795 425.772 159.665C425.414 159.534 425.088 159.314 424.792 159.004C424.497 158.692 424.259 158.27 424.08 157.739C423.901 157.205 423.812 156.534 423.812 155.727C423.812 154.955 423.884 154.27 424.029 153.673C424.174 153.074 424.384 152.57 424.66 152.161C424.936 151.749 425.268 151.436 425.657 151.223C426.049 151.01 426.491 150.903 426.982 150.903C427.471 150.903 427.906 151.001 428.286 151.197C428.67 151.391 428.982 151.661 429.224 152.007C429.465 152.354 429.622 152.753 429.693 153.205H428.653C428.556 152.812 428.369 152.487 428.09 152.229C427.812 151.97 427.443 151.841 426.982 151.841C426.306 151.841 425.774 152.135 425.384 152.723C424.998 153.311 424.803 154.136 424.801 155.199H424.869C425.028 154.957 425.217 154.751 425.436 154.581C425.657 154.408 425.901 154.274 426.169 154.18C426.436 154.087 426.718 154.04 427.017 154.04C427.517 154.04 427.974 154.165 428.389 154.415C428.803 154.662 429.136 155.004 429.386 155.442C429.636 155.876 429.761 156.375 429.761 156.938C429.761 157.477 429.64 157.972 429.399 158.42C429.157 158.866 428.818 159.222 428.38 159.486C427.945 159.747 427.434 159.875 426.846 159.869ZM426.846 158.932C427.204 158.932 427.525 158.842 427.809 158.663C428.096 158.484 428.322 158.244 428.487 157.943C428.654 157.642 428.738 157.307 428.738 156.938C428.738 156.577 428.657 156.249 428.495 155.953C428.336 155.655 428.116 155.418 427.835 155.241C427.556 155.065 427.238 154.977 426.88 154.977C426.61 154.977 426.359 155.031 426.126 155.139C425.893 155.244 425.688 155.389 425.512 155.574C425.339 155.759 425.203 155.97 425.103 156.209C425.004 156.445 424.954 156.693 424.954 156.955C424.954 157.301 425.035 157.625 425.197 157.926C425.362 158.227 425.586 158.47 425.87 158.655C426.157 158.839 426.482 158.932 426.846 158.932Z" fill="#738287"/>
<path d="M404 148.5V163.5" stroke="#738287"/>
<line x1="409" y1="163.5" x2="390" y2="163.5" stroke="#738287"/>
<line x1="409" y1="148.5" x2="390" y2="148.5" stroke="#738287"/>
<path d="M418.021 142V141.233L420.901 138.08C421.239 137.71 421.518 137.389 421.737 137.116C421.955 136.841 422.117 136.582 422.222 136.341C422.33 136.097 422.384 135.841 422.384 135.574C422.384 135.267 422.31 135.001 422.163 134.777C422.018 134.553 421.819 134.379 421.566 134.257C421.313 134.135 421.029 134.074 420.714 134.074C420.379 134.074 420.086 134.143 419.836 134.283C419.589 134.419 419.397 134.611 419.261 134.858C419.127 135.105 419.06 135.395 419.06 135.727H418.055C418.055 135.216 418.173 134.767 418.408 134.381C418.644 133.994 418.965 133.693 419.371 133.477C419.781 133.261 420.239 133.153 420.748 133.153C421.259 133.153 421.712 133.261 422.107 133.477C422.502 133.693 422.812 133.984 423.036 134.351C423.261 134.717 423.373 135.125 423.373 135.574C423.373 135.895 423.315 136.209 423.198 136.516C423.085 136.82 422.886 137.159 422.602 137.534C422.32 137.906 421.93 138.361 421.43 138.898L419.469 140.994V141.062H423.526V142H418.021ZM428.133 142.119C427.491 142.119 426.944 141.945 426.492 141.595C426.04 141.243 425.695 140.733 425.457 140.065C425.218 139.395 425.099 138.585 425.099 137.636C425.099 136.693 425.218 135.888 425.457 135.22C425.698 134.55 426.045 134.038 426.496 133.686C426.951 133.331 427.496 133.153 428.133 133.153C428.769 133.153 429.313 133.331 429.765 133.686C430.219 134.038 430.566 134.55 430.805 135.22C431.046 135.888 431.167 136.693 431.167 137.636C431.167 138.585 431.048 139.395 430.809 140.065C430.57 140.733 430.225 141.243 429.773 141.595C429.322 141.945 428.775 142.119 428.133 142.119ZM428.133 141.182C428.769 141.182 429.263 140.875 429.616 140.261C429.968 139.648 430.144 138.773 430.144 137.636C430.144 136.881 430.063 136.237 429.901 135.706C429.742 135.175 429.512 134.77 429.211 134.491C428.913 134.213 428.553 134.074 428.133 134.074C427.502 134.074 427.009 134.385 426.654 135.007C426.299 135.626 426.121 136.503 426.121 137.636C426.121 138.392 426.201 139.034 426.36 139.562C426.519 140.091 426.748 140.493 427.046 140.768C427.347 141.044 427.71 141.182 428.133 141.182Z" fill="#738287"/>
<path d="M404 127L404 149" stroke="#738287"/>
<line x1="409" y1="148.5" x2="390" y2="148.5" stroke="#738287"/>
<line x1="409" y1="127.5" x2="390" y2="127.5" stroke="#738287"/>
<rect x="170" y="112" width="212" height="52" fill="#058C50"/>
<path d="M203.63 132.364H205.761L209.465 141.409H209.602L213.306 132.364H215.437V144H213.766V135.58H213.658L210.227 143.983H208.84L205.408 135.574H205.3V144H203.63V132.364ZM220.393 144.193C219.84 144.193 219.34 144.091 218.893 143.886C218.446 143.678 218.092 143.377 217.83 142.983C217.573 142.589 217.444 142.106 217.444 141.534C217.444 141.042 217.539 140.636 217.728 140.318C217.917 140 218.173 139.748 218.495 139.562C218.817 139.377 219.177 139.237 219.575 139.142C219.972 139.047 220.378 138.975 220.79 138.926C221.313 138.866 221.737 138.816 222.063 138.778C222.389 138.737 222.626 138.67 222.773 138.58C222.921 138.489 222.995 138.341 222.995 138.136V138.097C222.995 137.6 222.855 137.216 222.575 136.943C222.298 136.67 221.885 136.534 221.336 136.534C220.764 136.534 220.313 136.661 219.984 136.915C219.658 137.165 219.433 137.443 219.308 137.75L217.711 137.386C217.9 136.856 218.177 136.428 218.54 136.102C218.908 135.773 219.33 135.534 219.808 135.386C220.285 135.235 220.787 135.159 221.313 135.159C221.662 135.159 222.031 135.201 222.421 135.284C222.815 135.364 223.183 135.511 223.523 135.727C223.868 135.943 224.15 136.252 224.37 136.653C224.59 137.051 224.7 137.568 224.7 138.205V144H223.04V142.807H222.972C222.862 143.027 222.698 143.242 222.478 143.455C222.258 143.667 221.976 143.843 221.631 143.983C221.287 144.123 220.874 144.193 220.393 144.193ZM220.762 142.83C221.232 142.83 221.633 142.737 221.967 142.551C222.304 142.366 222.559 142.123 222.734 141.824C222.912 141.521 223.001 141.197 223.001 140.852V139.727C222.94 139.788 222.823 139.845 222.648 139.898C222.478 139.947 222.283 139.991 222.063 140.028C221.844 140.062 221.629 140.095 221.421 140.125C221.213 140.152 221.039 140.174 220.898 140.193C220.569 140.235 220.268 140.305 219.995 140.403C219.726 140.502 219.51 140.644 219.347 140.83C219.188 141.011 219.109 141.254 219.109 141.557C219.109 141.977 219.264 142.295 219.575 142.511C219.885 142.723 220.281 142.83 220.762 142.83ZM226.275 144L226.269 142.528H226.582C226.824 142.528 227.027 142.477 227.19 142.375C227.356 142.269 227.493 142.091 227.599 141.841C227.705 141.591 227.786 141.246 227.843 140.807C227.9 140.364 227.942 139.807 227.968 139.136L228.121 135.273H234.212V144H232.548V136.739H229.695L229.559 139.705C229.525 140.424 229.451 141.053 229.337 141.591C229.228 142.129 229.067 142.578 228.854 142.938C228.642 143.294 228.37 143.561 228.036 143.739C227.703 143.913 227.298 144 226.82 144H226.275ZM240.239 144.176C239.379 144.176 238.639 143.992 238.018 143.625C237.4 143.254 236.923 142.733 236.586 142.062C236.253 141.388 236.086 140.598 236.086 139.693C236.086 138.799 236.253 138.011 236.586 137.33C236.923 136.648 237.393 136.116 237.995 135.733C238.601 135.35 239.309 135.159 240.12 135.159C240.612 135.159 241.09 135.241 241.552 135.403C242.014 135.566 242.429 135.822 242.796 136.17C243.164 136.519 243.453 136.972 243.665 137.528C243.878 138.081 243.984 138.754 243.984 139.545V140.148H237.046V138.875H242.319C242.319 138.428 242.228 138.032 242.046 137.688C241.864 137.339 241.609 137.064 241.279 136.864C240.953 136.663 240.571 136.562 240.131 136.562C239.654 136.562 239.237 136.68 238.881 136.915C238.529 137.146 238.256 137.449 238.063 137.824C237.874 138.195 237.779 138.598 237.779 139.034V140.028C237.779 140.612 237.881 141.108 238.086 141.517C238.294 141.926 238.584 142.239 238.955 142.455C239.326 142.667 239.76 142.773 240.256 142.773C240.578 142.773 240.872 142.727 241.137 142.636C241.402 142.542 241.631 142.402 241.825 142.216C242.018 142.03 242.165 141.801 242.268 141.528L243.876 141.818C243.747 142.292 243.516 142.706 243.183 143.062C242.853 143.415 242.438 143.689 241.938 143.886C241.442 144.08 240.876 144.176 240.239 144.176ZM251.783 138.903V140.375H247.056V138.903H251.783ZM247.533 135.273V144H245.869V135.273H247.533ZM252.971 135.273V144H251.312V135.273H252.971ZM256.522 138.273H259.056C260.124 138.273 260.946 138.538 261.522 139.068C262.098 139.598 262.386 140.282 262.386 141.119C262.386 141.665 262.257 142.155 261.999 142.591C261.742 143.027 261.365 143.371 260.869 143.625C260.372 143.875 259.768 144 259.056 144H255.244V135.273H256.908V142.534H259.056C259.545 142.534 259.946 142.407 260.261 142.153C260.575 141.896 260.732 141.568 260.732 141.17C260.732 140.75 260.575 140.407 260.261 140.142C259.946 139.873 259.545 139.739 259.056 139.739H256.522V138.273ZM264.29 144V135.273H265.989V138.932H266.808L269.688 135.273H271.79L268.41 139.517L271.83 144H269.722L267.092 140.511H265.989V144H264.29ZM275.69 144.193C275.137 144.193 274.637 144.091 274.19 143.886C273.743 143.678 273.388 143.377 273.127 142.983C272.87 142.589 272.741 142.106 272.741 141.534C272.741 141.042 272.835 140.636 273.025 140.318C273.214 140 273.47 139.748 273.792 139.562C274.114 139.377 274.474 139.237 274.871 139.142C275.269 139.047 275.674 138.975 276.087 138.926C276.61 138.866 277.034 138.816 277.36 138.778C277.686 138.737 277.923 138.67 278.07 138.58C278.218 138.489 278.292 138.341 278.292 138.136V138.097C278.292 137.6 278.152 137.216 277.871 136.943C277.595 136.67 277.182 136.534 276.633 136.534C276.061 136.534 275.61 136.661 275.281 136.915C274.955 137.165 274.729 137.443 274.604 137.75L273.008 137.386C273.197 136.856 273.474 136.428 273.837 136.102C274.205 135.773 274.627 135.534 275.104 135.386C275.582 135.235 276.084 135.159 276.61 135.159C276.959 135.159 277.328 135.201 277.718 135.284C278.112 135.364 278.479 135.511 278.82 135.727C279.165 135.943 279.447 136.252 279.667 136.653C279.887 137.051 279.996 137.568 279.996 138.205V144H278.337V142.807H278.269C278.159 143.027 277.995 143.242 277.775 143.455C277.555 143.667 277.273 143.843 276.928 143.983C276.584 144.123 276.171 144.193 275.69 144.193ZM276.059 142.83C276.529 142.83 276.93 142.737 277.263 142.551C277.601 142.366 277.856 142.123 278.031 141.824C278.209 141.521 278.298 141.197 278.298 140.852V139.727C278.237 139.788 278.12 139.845 277.945 139.898C277.775 139.947 277.58 139.991 277.36 140.028C277.14 140.062 276.926 140.095 276.718 140.125C276.51 140.152 276.335 140.174 276.195 140.193C275.866 140.235 275.565 140.305 275.292 140.403C275.023 140.502 274.807 140.644 274.644 140.83C274.485 141.011 274.406 141.254 274.406 141.557C274.406 141.977 274.561 142.295 274.871 142.511C275.182 142.723 275.578 142.83 276.059 142.83ZM287.464 144V136.722H285.373C284.877 136.722 284.49 136.837 284.214 137.068C283.937 137.299 283.799 137.602 283.799 137.977C283.799 138.348 283.926 138.648 284.18 138.875C284.437 139.098 284.797 139.21 285.259 139.21H287.958V140.585H285.259C284.615 140.585 284.058 140.479 283.589 140.267C283.123 140.051 282.763 139.746 282.509 139.352C282.259 138.958 282.134 138.492 282.134 137.955C282.134 137.405 282.263 136.932 282.521 136.534C282.782 136.133 283.155 135.822 283.64 135.602C284.129 135.383 284.706 135.273 285.373 135.273H289.06V144H287.464ZM281.737 144L284.197 139.591H285.935L283.475 144H281.737ZM295.556 144V135.273H297.255V138.932H298.073L300.954 135.273H303.056L299.675 139.517L303.096 144H300.988L298.357 140.511H297.255V144H295.556ZM310.33 138.903V140.375H305.603V138.903H310.33ZM306.08 135.273V144H304.415V135.273H306.08ZM311.518 135.273V144H309.859V135.273H311.518ZM317.467 144.176C316.648 144.176 315.934 143.989 315.325 143.614C314.715 143.239 314.241 142.714 313.904 142.04C313.567 141.366 313.398 140.578 313.398 139.676C313.398 138.771 313.567 137.979 313.904 137.301C314.241 136.623 314.715 136.097 315.325 135.722C315.934 135.347 316.648 135.159 317.467 135.159C318.285 135.159 318.999 135.347 319.609 135.722C320.219 136.097 320.692 136.623 321.029 137.301C321.366 137.979 321.535 138.771 321.535 139.676C321.535 140.578 321.366 141.366 321.029 142.04C320.692 142.714 320.219 143.239 319.609 143.614C318.999 143.989 318.285 144.176 317.467 144.176ZM317.472 142.75C318.003 142.75 318.442 142.61 318.79 142.33C319.139 142.049 319.397 141.676 319.563 141.21C319.734 140.744 319.819 140.231 319.819 139.67C319.819 139.114 319.734 138.602 319.563 138.136C319.397 137.667 319.139 137.29 318.79 137.006C318.442 136.722 318.003 136.58 317.472 136.58C316.938 136.58 316.495 136.722 316.143 137.006C315.794 137.29 315.535 137.667 315.364 138.136C315.198 138.602 315.114 139.114 315.114 139.67C315.114 140.231 315.198 140.744 315.364 141.21C315.535 141.676 315.794 142.049 316.143 142.33C316.495 142.61 316.938 142.75 317.472 142.75ZM323.431 144V135.273H330.55V144H328.886V136.739H325.085V144H323.431ZM332.822 144V135.273H334.521V138.932H335.339L338.219 135.273H340.322L336.941 139.517L340.362 144H338.254L335.623 140.511H334.521V144H332.822ZM344.221 144.193C343.668 144.193 343.168 144.091 342.721 143.886C342.274 143.678 341.92 143.377 341.658 142.983C341.401 142.589 341.272 142.106 341.272 141.534C341.272 141.042 341.367 140.636 341.556 140.318C341.746 140 342.001 139.748 342.323 139.562C342.645 139.377 343.005 139.237 343.403 139.142C343.8 139.047 344.206 138.975 344.619 138.926C345.141 138.866 345.566 138.816 345.891 138.778C346.217 138.737 346.454 138.67 346.602 138.58C346.749 138.489 346.823 138.341 346.823 138.136V138.097C346.823 137.6 346.683 137.216 346.403 136.943C346.126 136.67 345.713 136.534 345.164 136.534C344.592 136.534 344.141 136.661 343.812 136.915C343.486 137.165 343.261 137.443 343.136 137.75L341.539 137.386C341.728 136.856 342.005 136.428 342.369 136.102C342.736 135.773 343.158 135.534 343.636 135.386C344.113 135.235 344.615 135.159 345.141 135.159C345.49 135.159 345.859 135.201 346.249 135.284C346.643 135.364 347.011 135.511 347.352 135.727C347.696 135.943 347.978 136.252 348.198 136.653C348.418 137.051 348.528 137.568 348.528 138.205V144H346.869V142.807H346.8C346.691 143.027 346.526 143.242 346.306 143.455C346.086 143.667 345.804 143.843 345.46 143.983C345.115 144.123 344.702 144.193 344.221 144.193ZM344.59 142.83C345.06 142.83 345.461 142.737 345.795 142.551C346.132 142.366 346.388 142.123 346.562 141.824C346.74 141.521 346.829 141.197 346.829 140.852V139.727C346.768 139.788 346.651 139.845 346.477 139.898C346.306 139.947 346.111 139.991 345.891 140.028C345.672 140.062 345.458 140.095 345.249 140.125C345.041 140.152 344.867 140.174 344.727 140.193C344.397 140.235 344.096 140.305 343.823 140.403C343.554 140.502 343.338 140.644 343.175 140.83C343.016 141.011 342.937 141.254 342.937 141.557C342.937 141.977 343.092 142.295 343.403 142.511C343.713 142.723 344.109 142.83 344.59 142.83Z" fill="white"/>
<path d="M21.5795 246.21V245.273H28.125V246.21H25.3807V254H24.3239V246.21H21.5795ZM31.4148 254.136C30.7841 254.136 30.2401 253.997 29.7827 253.719C29.3281 253.438 28.9773 253.045 28.7301 252.543C28.4858 252.037 28.3636 251.449 28.3636 250.778C28.3636 250.108 28.4858 249.517 28.7301 249.006C28.9773 248.491 29.321 248.091 29.7614 247.804C30.2045 247.514 30.7216 247.369 31.3125 247.369C31.6534 247.369 31.9901 247.426 32.3224 247.54C32.6548 247.653 32.9574 247.838 33.2301 248.094C33.5028 248.347 33.7202 248.682 33.8821 249.099C34.044 249.517 34.125 250.031 34.125 250.642V251.068H29.0795V250.199H33.1023C33.1023 249.83 33.0284 249.5 32.8807 249.21C32.7358 248.92 32.5284 248.692 32.2585 248.524C31.9915 248.357 31.6761 248.273 31.3125 248.273C30.9119 248.273 30.5653 248.372 30.2727 248.571C29.983 248.767 29.7599 249.023 29.6037 249.338C29.4474 249.653 29.3693 249.991 29.3693 250.352V250.932C29.3693 251.426 29.4545 251.845 29.625 252.189C29.7983 252.53 30.0384 252.79 30.3452 252.969C30.652 253.145 31.0085 253.233 31.4148 253.233C31.679 253.233 31.9176 253.196 32.1307 253.122C32.3466 253.045 32.5327 252.932 32.6889 252.781C32.8452 252.628 32.9659 252.437 33.0511 252.21L34.0227 252.483C33.9205 252.812 33.7486 253.102 33.5071 253.352C33.2656 253.599 32.9673 253.793 32.6122 253.932C32.2571 254.068 31.858 254.136 31.4148 254.136ZM36.229 247.455L37.7972 250.131L39.3654 247.455H40.5245L38.4109 250.727L40.5245 254H39.3654L37.7972 251.46L36.229 254H35.07L37.1495 250.727L35.07 247.455H36.229ZM44.8061 247.455V248.307H41.4141V247.455H44.8061ZM42.4027 245.886H43.4084V252.125C43.4084 252.409 43.4496 252.622 43.532 252.764C43.6172 252.903 43.7251 252.997 43.8558 253.045C43.9893 253.091 44.13 253.114 44.2777 253.114C44.3885 253.114 44.4794 253.108 44.5504 253.097C44.6214 253.082 44.6783 253.071 44.7209 253.062L44.9254 253.966C44.8572 253.991 44.7621 254.017 44.6399 254.043C44.5178 254.071 44.3629 254.085 44.1754 254.085C43.8913 254.085 43.6129 254.024 43.3402 253.902C43.0703 253.78 42.8459 253.594 42.6669 253.344C42.4908 253.094 42.4027 252.778 42.4027 252.398V245.886ZM54.3303 248.92L53.4268 249.176C53.37 249.026 53.2862 248.879 53.1754 248.737C53.0675 248.592 52.9197 248.473 52.7322 248.379C52.5447 248.286 52.3047 248.239 52.0121 248.239C51.6115 248.239 51.2777 248.331 51.0107 248.516C50.7464 248.697 50.6143 248.929 50.6143 249.21C50.6143 249.46 50.7053 249.658 50.8871 249.803C51.0689 249.947 51.353 250.068 51.7393 250.165L52.7109 250.403C53.2962 250.545 53.7322 250.763 54.0192 251.055C54.3061 251.345 54.4496 251.719 54.4496 252.176C54.4496 252.551 54.3416 252.886 54.1257 253.182C53.9126 253.477 53.6143 253.71 53.2308 253.881C52.8473 254.051 52.4013 254.136 51.8928 254.136C51.2251 254.136 50.6726 253.991 50.2351 253.702C49.7976 253.412 49.5206 252.989 49.4041 252.432L50.3587 252.193C50.4496 252.545 50.6214 252.81 50.8743 252.986C51.13 253.162 51.4638 253.25 51.8757 253.25C52.3445 253.25 52.7166 253.151 52.9922 252.952C53.2706 252.75 53.4098 252.509 53.4098 252.227C53.4098 252 53.3303 251.81 53.1712 251.656C53.0121 251.5 52.7678 251.384 52.4382 251.307L51.3473 251.051C50.7479 250.909 50.3075 250.689 50.0263 250.391C49.7479 250.089 49.6087 249.713 49.6087 249.261C49.6087 248.892 49.7124 248.565 49.9197 248.281C50.13 247.997 50.4155 247.774 50.7763 247.612C51.1399 247.45 51.5518 247.369 52.0121 247.369C52.6598 247.369 53.1683 247.511 53.5376 247.795C53.9098 248.08 54.174 248.455 54.3303 248.92ZM55.9634 254V247.455H56.9691V254H55.9634ZM56.4748 246.364C56.2788 246.364 56.1097 246.297 55.9677 246.163C55.8285 246.03 55.7589 245.869 55.7589 245.682C55.7589 245.494 55.8285 245.334 55.9677 245.2C56.1097 245.067 56.2788 245 56.4748 245C56.6708 245 56.8384 245.067 56.9776 245.2C57.1197 245.334 57.1907 245.494 57.1907 245.682C57.1907 245.869 57.1197 246.03 56.9776 246.163C56.8384 246.297 56.6708 246.364 56.4748 246.364ZM58.6236 254V253.233L62.3395 248.46V248.392H58.7429V247.455H63.6349V248.256L60.0213 252.994V253.062H63.7543V254H58.6236ZM67.8601 254.136C67.2294 254.136 66.6854 253.997 66.228 253.719C65.7734 253.438 65.4226 253.045 65.1754 252.543C64.9311 252.037 64.8089 251.449 64.8089 250.778C64.8089 250.108 64.9311 249.517 65.1754 249.006C65.4226 248.491 65.7663 248.091 66.2067 247.804C66.6499 247.514 67.1669 247.369 67.7578 247.369C68.0987 247.369 68.4354 247.426 68.7678 247.54C69.1001 247.653 69.4027 247.838 69.6754 248.094C69.9482 248.347 70.1655 248.682 70.3274 249.099C70.4893 249.517 70.5703 250.031 70.5703 250.642V251.068H65.5249V250.199H69.5476C69.5476 249.83 69.4737 249.5 69.326 249.21C69.1811 248.92 68.9737 248.692 68.7038 248.524C68.4368 248.357 68.1214 248.273 67.7578 248.273C67.3572 248.273 67.0107 248.372 66.718 248.571C66.4283 248.767 66.2053 249.023 66.049 249.338C65.8928 249.653 65.8146 249.991 65.8146 250.352V250.932C65.8146 251.426 65.8999 251.845 66.0703 252.189C66.2436 252.53 66.4837 252.79 66.7905 252.969C67.0973 253.145 67.4538 253.233 67.8601 253.233C68.1243 253.233 68.3629 253.196 68.576 253.122C68.7919 253.045 68.978 252.932 69.1342 252.781C69.2905 252.628 69.4112 252.437 69.4964 252.21L70.468 252.483C70.3658 252.812 70.1939 253.102 69.9524 253.352C69.7109 253.599 69.4126 253.793 69.0575 253.932C68.7024 254.068 68.3033 254.136 67.8601 254.136ZM75.8842 248.835V247.915H81.1342V248.835H75.8842ZM75.8842 251.358V250.438H81.1342V251.358H75.8842ZM89.8114 245.273V254H88.7546V246.381H88.7035L86.5728 247.795V246.722L88.7546 245.273H89.8114ZM95.2191 254.119C94.8612 254.114 94.5032 254.045 94.1452 253.915C93.7873 253.784 93.4606 253.564 93.1651 253.254C92.8697 252.942 92.6325 252.52 92.4535 251.989C92.2745 251.455 92.185 250.784 92.185 249.977C92.185 249.205 92.2575 248.52 92.4023 247.923C92.5472 247.324 92.7575 246.82 93.033 246.411C93.3086 245.999 93.641 245.686 94.0302 245.473C94.4222 245.26 94.864 245.153 95.3555 245.153C95.8441 245.153 96.2788 245.251 96.6594 245.447C97.043 245.641 97.3555 245.911 97.5969 246.257C97.8384 246.604 97.9947 247.003 98.0657 247.455H97.0259C96.9293 247.062 96.7418 246.737 96.4634 246.479C96.185 246.22 95.8157 246.091 95.3555 246.091C94.6793 246.091 94.1467 246.385 93.7575 246.973C93.3711 247.561 93.1765 248.386 93.1737 249.449H93.2418C93.4009 249.207 93.5898 249.001 93.8086 248.831C94.0302 248.658 94.2745 248.524 94.5415 248.43C94.8086 248.337 95.0913 248.29 95.3896 248.29C95.8896 248.29 96.3469 248.415 96.7617 248.665C97.1765 248.912 97.5089 249.254 97.7589 249.692C98.0089 250.126 98.1339 250.625 98.1339 251.188C98.1339 251.727 98.0131 252.222 97.7717 252.67C97.5302 253.116 97.1907 253.472 96.7532 253.736C96.3185 253.997 95.8072 254.125 95.2191 254.119ZM95.2191 253.182C95.5771 253.182 95.8981 253.092 96.1822 252.913C96.4691 252.734 96.695 252.494 96.8597 252.193C97.0273 251.892 97.1112 251.557 97.1112 251.188C97.1112 250.827 97.0302 250.499 96.8683 250.203C96.7092 249.905 96.489 249.668 96.2077 249.491C95.9293 249.315 95.6112 249.227 95.2532 249.227C94.9833 249.227 94.7319 249.281 94.4989 249.389C94.266 249.494 94.0614 249.639 93.8853 249.824C93.712 250.009 93.5756 250.22 93.4762 250.459C93.3768 250.695 93.3271 250.943 93.3271 251.205C93.3271 251.551 93.408 251.875 93.57 252.176C93.7347 252.477 93.9592 252.72 94.2433 252.905C94.5302 253.089 94.8555 253.182 95.2191 253.182Z" fill="#738287"/>
</g>
<defs>
<clipPath id="clip0_1283_4689">
<rect width="552" height="276" fill="white"/>
</clipPath>
</defs>
</svg>
