<svg width="1128" height="216" viewBox="0 0 1128 216" fill="none" xmlns="http://www.w3.org/2000/svg">
<g clip-path="url(#clip0_550_970)">
<rect x="192.75" y="97.75" width="20.5" height="20.5" fill="#058C50" stroke="#058C50" stroke-width="1.5"/>
<path d="M211.985 103.378L201.38 113.985L195.016 107.621L196.43 106.207L201.38 111.157L210.572 101.964L211.985 103.378Z" fill="white"/>
</g>
<path d="M231.966 102.017V100.455H242.875V102.017H238.301V115H236.54V102.017H231.966ZM248.358 115.227C247.307 115.227 246.4 114.995 245.638 114.531C244.88 114.062 244.295 113.409 243.884 112.571C243.476 111.728 243.273 110.748 243.273 109.631C243.273 108.513 243.476 107.528 243.884 106.676C244.295 105.819 244.868 105.152 245.602 104.673C246.341 104.19 247.203 103.949 248.188 103.949C248.756 103.949 249.317 104.044 249.871 104.233C250.425 104.422 250.929 104.73 251.384 105.156C251.838 105.578 252.2 106.136 252.47 106.832C252.74 107.528 252.875 108.385 252.875 109.403V110.114H244.466V108.665H251.17C251.17 108.049 251.047 107.5 250.801 107.017C250.56 106.534 250.214 106.153 249.764 105.874C249.319 105.594 248.794 105.455 248.188 105.455C247.52 105.455 246.942 105.62 246.455 105.952C245.972 106.278 245.6 106.705 245.339 107.23C245.079 107.756 244.949 108.319 244.949 108.92V109.886C244.949 110.71 245.091 111.409 245.375 111.982C245.664 112.55 246.064 112.983 246.575 113.281C247.087 113.575 247.681 113.722 248.358 113.722C248.798 113.722 249.196 113.66 249.551 113.537C249.911 113.409 250.221 113.22 250.482 112.969C250.742 112.713 250.943 112.396 251.085 112.017L252.705 112.472C252.534 113.021 252.248 113.504 251.845 113.92C251.443 114.332 250.946 114.654 250.354 114.886C249.762 115.114 249.097 115.227 248.358 115.227ZM255.425 115V104.091H257.101V108.835H258.209L262.129 104.091H264.288L259.885 109.347L264.345 115H262.186L258.607 110.398H257.101V115H255.425ZM270.15 115.227C269.127 115.227 268.246 114.986 267.507 114.503C266.769 114.02 266.201 113.355 265.803 112.507C265.405 111.66 265.206 110.691 265.206 109.602C265.206 108.494 265.41 107.517 265.817 106.669C266.229 105.817 266.802 105.152 267.536 104.673C268.275 104.19 269.136 103.949 270.121 103.949C270.888 103.949 271.579 104.091 272.195 104.375C272.81 104.659 273.315 105.057 273.708 105.568C274.101 106.08 274.345 106.676 274.439 107.358H272.763C272.635 106.861 272.351 106.42 271.911 106.037C271.475 105.649 270.888 105.455 270.15 105.455C269.496 105.455 268.923 105.625 268.431 105.966C267.943 106.302 267.562 106.778 267.287 107.393C267.017 108.004 266.882 108.722 266.882 109.545C266.882 110.388 267.015 111.122 267.28 111.747C267.55 112.372 267.929 112.857 268.417 113.203C268.909 113.549 269.487 113.722 270.15 113.722C270.585 113.722 270.98 113.646 271.336 113.494C271.691 113.343 271.991 113.125 272.238 112.841C272.484 112.557 272.659 112.216 272.763 111.818H274.439C274.345 112.462 274.11 113.042 273.736 113.558C273.367 114.07 272.877 114.477 272.266 114.78C271.66 115.078 270.954 115.227 270.15 115.227ZM276.03 105.653V104.091H284.894V105.653H281.314V115H279.638V105.653H276.03ZM301.373 104.091V115H299.697V104.091H301.373ZM300.719 109.29V110.852C300.341 110.994 299.964 111.12 299.59 111.229C299.216 111.333 298.823 111.416 298.411 111.477C297.999 111.534 297.547 111.562 297.055 111.562C295.819 111.562 294.827 111.229 294.079 110.561C293.335 109.893 292.964 108.892 292.964 107.557V104.062H294.64V107.557C294.64 108.116 294.746 108.575 294.96 108.935C295.173 109.295 295.461 109.562 295.826 109.737C296.191 109.912 296.6 110 297.055 110C297.765 110 298.406 109.936 298.979 109.808C299.557 109.676 300.137 109.503 300.719 109.29ZM309.022 115.227C307.971 115.227 307.064 114.995 306.302 114.531C305.544 114.062 304.96 113.409 304.548 112.571C304.14 111.728 303.937 110.748 303.937 109.631C303.937 108.513 304.14 107.528 304.548 106.676C304.96 105.819 305.532 105.152 306.266 104.673C307.005 104.19 307.867 103.949 308.852 103.949C309.42 103.949 309.981 104.044 310.535 104.233C311.089 104.422 311.593 104.73 312.048 105.156C312.502 105.578 312.864 106.136 313.134 106.832C313.404 107.528 313.539 108.385 313.539 109.403V110.114H305.13V108.665H311.835C311.835 108.049 311.711 107.5 311.465 107.017C311.224 106.534 310.878 106.153 310.428 105.874C309.983 105.594 309.458 105.455 308.852 105.455C308.184 105.455 307.606 105.62 307.119 105.952C306.636 106.278 306.264 106.705 306.004 107.23C305.743 107.756 305.613 108.319 305.613 108.92V109.886C305.613 110.71 305.755 111.409 306.039 111.982C306.328 112.55 306.728 112.983 307.239 113.281C307.751 113.575 308.345 113.722 309.022 113.722C309.462 113.722 309.86 113.66 310.215 113.537C310.575 113.409 310.885 113.22 311.146 112.969C311.406 112.713 311.607 112.396 311.749 112.017L313.369 112.472C313.198 113.021 312.912 113.504 312.509 113.92C312.107 114.332 311.61 114.654 311.018 114.886C310.426 115.114 309.761 115.227 309.022 115.227ZM316.089 115V104.091H317.765V108.835H318.873L322.793 104.091H324.952L320.549 109.347L325.009 115H322.85L319.271 110.398H317.765V115H316.089ZM334.928 100L335.78 101.023C335.448 101.345 335.065 101.57 334.629 101.697C334.194 101.825 333.701 101.903 333.152 101.932C332.603 101.96 331.992 101.989 331.32 102.017C330.562 102.045 329.935 102.23 329.438 102.571C328.94 102.912 328.557 103.404 328.287 104.048C328.017 104.692 327.844 105.483 327.768 106.42H327.911C328.28 105.739 328.791 105.237 329.445 104.915C330.098 104.593 330.799 104.432 331.547 104.432C332.399 104.432 333.166 104.631 333.848 105.028C334.53 105.426 335.07 106.016 335.467 106.797C335.865 107.578 336.064 108.542 336.064 109.688C336.064 110.829 335.86 111.813 335.453 112.642C335.051 113.471 334.485 114.11 333.756 114.56C333.031 115.005 332.181 115.227 331.206 115.227C330.231 115.227 329.376 114.998 328.642 114.538C327.908 114.074 327.338 113.388 326.93 112.479C326.523 111.565 326.32 110.436 326.32 109.091V107.926C326.32 105.497 326.732 103.655 327.555 102.401C328.384 101.146 329.629 100.497 331.291 100.455C331.878 100.436 332.402 100.431 332.861 100.44C333.32 100.45 333.72 100.429 334.061 100.376C334.402 100.324 334.691 100.199 334.928 100ZM331.206 113.722C331.864 113.722 332.43 113.556 332.903 113.224C333.382 112.893 333.749 112.427 334.004 111.825C334.26 111.219 334.388 110.507 334.388 109.688C334.388 108.892 334.258 108.215 333.997 107.656C333.741 107.098 333.375 106.671 332.896 106.378C332.418 106.084 331.845 105.938 331.178 105.938C330.69 105.938 330.252 106.02 329.864 106.186C329.475 106.352 329.144 106.596 328.869 106.918C328.595 107.24 328.382 107.633 328.23 108.097C328.083 108.561 328.005 109.091 327.996 109.688C327.996 110.909 328.282 111.887 328.855 112.621C329.428 113.355 330.212 113.722 331.206 113.722ZM343.06 115.227C342.075 115.227 341.211 114.993 340.467 114.524C339.729 114.055 339.151 113.4 338.734 112.557C338.322 111.714 338.116 110.729 338.116 109.602C338.116 108.466 338.322 107.474 338.734 106.626C339.151 105.779 339.729 105.121 340.467 104.652C341.211 104.183 342.075 103.949 343.06 103.949C344.045 103.949 344.906 104.183 345.645 104.652C346.388 105.121 346.966 105.779 347.378 106.626C347.795 107.474 348.003 108.466 348.003 109.602C348.003 110.729 347.795 111.714 347.378 112.557C346.966 113.4 346.388 114.055 345.645 114.524C344.906 114.993 344.045 115.227 343.06 115.227ZM343.06 113.722C343.808 113.722 344.423 113.53 344.906 113.146C345.389 112.763 345.747 112.259 345.979 111.634C346.211 111.009 346.327 110.331 346.327 109.602C346.327 108.873 346.211 108.194 345.979 107.564C345.747 106.934 345.389 106.425 344.906 106.037C344.423 105.649 343.808 105.455 343.06 105.455C342.312 105.455 341.696 105.649 341.213 106.037C340.73 106.425 340.373 106.934 340.141 107.564C339.909 108.194 339.793 108.873 339.793 109.602C339.793 110.331 339.909 111.009 340.141 111.634C340.373 112.259 340.73 112.763 341.213 113.146C341.696 113.53 342.312 113.722 343.06 113.722ZM350.561 115V104.091H352.238V108.835H353.346L357.266 104.091H359.425L355.022 109.347L359.482 115H357.323L353.743 110.398H352.238V115H350.561ZM365.286 115.227C364.263 115.227 363.383 114.986 362.644 114.503C361.906 114.02 361.337 113.355 360.94 112.507C360.542 111.66 360.343 110.691 360.343 109.602C360.343 108.494 360.547 107.517 360.954 106.669C361.366 105.817 361.939 105.152 362.673 104.673C363.411 104.19 364.273 103.949 365.258 103.949C366.025 103.949 366.716 104.091 367.332 104.375C367.947 104.659 368.451 105.057 368.844 105.568C369.237 106.08 369.481 106.676 369.576 107.358H367.9C367.772 106.861 367.488 106.42 367.048 106.037C366.612 105.649 366.025 105.455 365.286 105.455C364.633 105.455 364.06 105.625 363.567 105.966C363.08 106.302 362.699 106.778 362.424 107.393C362.154 108.004 362.019 108.722 362.019 109.545C362.019 110.388 362.152 111.122 362.417 111.747C362.687 112.372 363.066 112.857 363.553 113.203C364.046 113.549 364.623 113.722 365.286 113.722C365.722 113.722 366.117 113.646 366.472 113.494C366.827 113.343 367.128 113.125 367.374 112.841C367.621 112.557 367.796 112.216 367.9 111.818H369.576C369.481 112.462 369.247 113.042 368.873 113.558C368.504 114.07 368.013 114.477 367.403 114.78C366.797 115.078 366.091 115.227 365.286 115.227ZM375.237 115.256C374.545 115.256 373.918 115.125 373.354 114.865C372.791 114.6 372.344 114.219 372.012 113.722C371.681 113.22 371.515 112.614 371.515 111.903C371.515 111.278 371.638 110.772 371.884 110.384C372.13 109.991 372.46 109.683 372.871 109.46C373.283 109.238 373.738 109.072 374.235 108.963C374.737 108.849 375.241 108.759 375.748 108.693C376.411 108.608 376.948 108.544 377.36 108.501C377.777 108.454 378.08 108.376 378.269 108.267C378.463 108.158 378.56 107.969 378.56 107.699V107.642C378.56 106.941 378.369 106.397 377.985 106.009C377.606 105.62 377.031 105.426 376.259 105.426C375.459 105.426 374.832 105.601 374.377 105.952C373.923 106.302 373.603 106.676 373.418 107.074L371.827 106.506C372.112 105.843 372.49 105.327 372.964 104.957C373.442 104.583 373.963 104.323 374.526 104.176C375.094 104.025 375.653 103.949 376.202 103.949C376.553 103.949 376.955 103.991 377.41 104.077C377.869 104.157 378.312 104.325 378.738 104.581C379.169 104.837 379.526 105.223 379.81 105.739C380.094 106.255 380.237 106.946 380.237 107.812V115H378.56V113.523H378.475C378.362 113.759 378.172 114.013 377.907 114.283C377.642 114.553 377.289 114.782 376.849 114.972C376.408 115.161 375.871 115.256 375.237 115.256ZM375.492 113.75C376.155 113.75 376.714 113.62 377.168 113.359C377.628 113.099 377.973 112.763 378.205 112.351C378.442 111.939 378.56 111.506 378.56 111.051V109.517C378.489 109.602 378.333 109.68 378.092 109.751C377.855 109.818 377.58 109.877 377.268 109.929C376.96 109.976 376.659 110.019 376.366 110.057C376.077 110.09 375.843 110.118 375.663 110.142C375.227 110.199 374.82 110.291 374.441 110.419C374.067 110.542 373.764 110.729 373.532 110.98C373.305 111.226 373.191 111.562 373.191 111.989C373.191 112.571 373.406 113.011 373.837 113.31C374.273 113.603 374.825 113.75 375.492 113.75Z" fill="#0A2832"/>
<g clip-path="url(#clip1_550_970)">
<rect x="192.75" y="169.75" width="20.5" height="20.5" fill="white" stroke="#C8D2D7" stroke-width="1.5"/>
</g>
<path d="M231.966 174.017V172.455H242.875V174.017H238.301V187H236.54V174.017H231.966ZM248.358 187.227C247.307 187.227 246.4 186.995 245.638 186.531C244.88 186.062 244.295 185.409 243.884 184.571C243.476 183.728 243.273 182.748 243.273 181.631C243.273 180.513 243.476 179.528 243.884 178.676C244.295 177.819 244.868 177.152 245.602 176.673C246.341 176.19 247.203 175.949 248.188 175.949C248.756 175.949 249.317 176.044 249.871 176.233C250.425 176.422 250.929 176.73 251.384 177.156C251.838 177.578 252.2 178.136 252.47 178.832C252.74 179.528 252.875 180.385 252.875 181.403V182.114H244.466V180.665H251.17C251.17 180.049 251.047 179.5 250.801 179.017C250.56 178.534 250.214 178.153 249.764 177.874C249.319 177.594 248.794 177.455 248.188 177.455C247.52 177.455 246.942 177.62 246.455 177.952C245.972 178.278 245.6 178.705 245.339 179.23C245.079 179.756 244.949 180.319 244.949 180.92V181.886C244.949 182.71 245.091 183.409 245.375 183.982C245.664 184.55 246.064 184.983 246.575 185.281C247.087 185.575 247.681 185.722 248.358 185.722C248.798 185.722 249.196 185.66 249.551 185.537C249.911 185.409 250.221 185.22 250.482 184.969C250.742 184.713 250.943 184.396 251.085 184.017L252.705 184.472C252.534 185.021 252.248 185.504 251.845 185.92C251.443 186.332 250.946 186.654 250.354 186.886C249.762 187.114 249.097 187.227 248.358 187.227ZM255.425 187V176.091H257.101V180.835H258.209L262.129 176.091H264.288L259.885 181.347L264.345 187H262.186L258.607 182.398H257.101V187H255.425ZM270.15 187.227C269.127 187.227 268.246 186.986 267.507 186.503C266.769 186.02 266.201 185.355 265.803 184.507C265.405 183.66 265.206 182.691 265.206 181.602C265.206 180.494 265.41 179.517 265.817 178.669C266.229 177.817 266.802 177.152 267.536 176.673C268.275 176.19 269.136 175.949 270.121 175.949C270.888 175.949 271.579 176.091 272.195 176.375C272.81 176.659 273.315 177.057 273.708 177.568C274.101 178.08 274.345 178.676 274.439 179.358H272.763C272.635 178.861 272.351 178.42 271.911 178.037C271.475 177.649 270.888 177.455 270.15 177.455C269.496 177.455 268.923 177.625 268.431 177.966C267.943 178.302 267.562 178.778 267.287 179.393C267.017 180.004 266.882 180.722 266.882 181.545C266.882 182.388 267.015 183.122 267.28 183.747C267.55 184.372 267.929 184.857 268.417 185.203C268.909 185.549 269.487 185.722 270.15 185.722C270.585 185.722 270.98 185.646 271.336 185.494C271.691 185.343 271.991 185.125 272.238 184.841C272.484 184.557 272.659 184.216 272.763 183.818H274.439C274.345 184.462 274.11 185.042 273.736 185.558C273.367 186.07 272.877 186.477 272.266 186.78C271.66 187.078 270.954 187.227 270.15 187.227ZM276.03 177.653V176.091H284.894V177.653H281.314V187H279.638V177.653H276.03ZM301.373 176.091V187H299.697V176.091H301.373ZM300.719 181.29V182.852C300.341 182.994 299.964 183.12 299.59 183.229C299.216 183.333 298.823 183.416 298.411 183.477C297.999 183.534 297.547 183.562 297.055 183.562C295.819 183.562 294.827 183.229 294.079 182.561C293.335 181.893 292.964 180.892 292.964 179.557V176.062H294.64V179.557C294.64 180.116 294.746 180.575 294.96 180.935C295.173 181.295 295.461 181.562 295.826 181.737C296.191 181.912 296.6 182 297.055 182C297.765 182 298.406 181.936 298.979 181.808C299.557 181.676 300.137 181.503 300.719 181.29ZM309.022 187.227C307.971 187.227 307.064 186.995 306.302 186.531C305.544 186.062 304.96 185.409 304.548 184.571C304.14 183.728 303.937 182.748 303.937 181.631C303.937 180.513 304.14 179.528 304.548 178.676C304.96 177.819 305.532 177.152 306.266 176.673C307.005 176.19 307.867 175.949 308.852 175.949C309.42 175.949 309.981 176.044 310.535 176.233C311.089 176.422 311.593 176.73 312.048 177.156C312.502 177.578 312.864 178.136 313.134 178.832C313.404 179.528 313.539 180.385 313.539 181.403V182.114H305.13V180.665H311.835C311.835 180.049 311.711 179.5 311.465 179.017C311.224 178.534 310.878 178.153 310.428 177.874C309.983 177.594 309.458 177.455 308.852 177.455C308.184 177.455 307.606 177.62 307.119 177.952C306.636 178.278 306.264 178.705 306.004 179.23C305.743 179.756 305.613 180.319 305.613 180.92V181.886C305.613 182.71 305.755 183.409 306.039 183.982C306.328 184.55 306.728 184.983 307.239 185.281C307.751 185.575 308.345 185.722 309.022 185.722C309.462 185.722 309.86 185.66 310.215 185.537C310.575 185.409 310.885 185.22 311.146 184.969C311.406 184.713 311.607 184.396 311.749 184.017L313.369 184.472C313.198 185.021 312.912 185.504 312.509 185.92C312.107 186.332 311.61 186.654 311.018 186.886C310.426 187.114 309.761 187.227 309.022 187.227ZM316.089 187V176.091H317.765V180.835H318.873L322.793 176.091H324.952L320.549 181.347L325.009 187H322.85L319.271 182.398H317.765V187H316.089ZM334.928 172L335.78 173.023C335.448 173.345 335.065 173.57 334.629 173.697C334.194 173.825 333.701 173.903 333.152 173.932C332.603 173.96 331.992 173.989 331.32 174.017C330.562 174.045 329.935 174.23 329.438 174.571C328.94 174.912 328.557 175.404 328.287 176.048C328.017 176.692 327.844 177.483 327.768 178.42H327.911C328.28 177.739 328.791 177.237 329.445 176.915C330.098 176.593 330.799 176.432 331.547 176.432C332.399 176.432 333.166 176.631 333.848 177.028C334.53 177.426 335.07 178.016 335.467 178.797C335.865 179.578 336.064 180.542 336.064 181.688C336.064 182.829 335.86 183.813 335.453 184.642C335.051 185.471 334.485 186.11 333.756 186.56C333.031 187.005 332.181 187.227 331.206 187.227C330.231 187.227 329.376 186.998 328.642 186.538C327.908 186.074 327.338 185.388 326.93 184.479C326.523 183.565 326.32 182.436 326.32 181.091V179.926C326.32 177.497 326.732 175.655 327.555 174.401C328.384 173.146 329.629 172.497 331.291 172.455C331.878 172.436 332.402 172.431 332.861 172.44C333.32 172.45 333.72 172.429 334.061 172.376C334.402 172.324 334.691 172.199 334.928 172ZM331.206 185.722C331.864 185.722 332.43 185.556 332.903 185.224C333.382 184.893 333.749 184.427 334.004 183.825C334.26 183.219 334.388 182.507 334.388 181.688C334.388 180.892 334.258 180.215 333.997 179.656C333.741 179.098 333.375 178.671 332.896 178.378C332.418 178.084 331.845 177.938 331.178 177.938C330.69 177.938 330.252 178.02 329.864 178.186C329.475 178.352 329.144 178.596 328.869 178.918C328.595 179.24 328.382 179.633 328.23 180.097C328.083 180.561 328.005 181.091 327.996 181.688C327.996 182.909 328.282 183.887 328.855 184.621C329.428 185.355 330.212 185.722 331.206 185.722ZM343.06 187.227C342.075 187.227 341.211 186.993 340.467 186.524C339.729 186.055 339.151 185.4 338.734 184.557C338.322 183.714 338.116 182.729 338.116 181.602C338.116 180.466 338.322 179.474 338.734 178.626C339.151 177.779 339.729 177.121 340.467 176.652C341.211 176.183 342.075 175.949 343.06 175.949C344.045 175.949 344.906 176.183 345.645 176.652C346.388 177.121 346.966 177.779 347.378 178.626C347.795 179.474 348.003 180.466 348.003 181.602C348.003 182.729 347.795 183.714 347.378 184.557C346.966 185.4 346.388 186.055 345.645 186.524C344.906 186.993 344.045 187.227 343.06 187.227ZM343.06 185.722C343.808 185.722 344.423 185.53 344.906 185.146C345.389 184.763 345.747 184.259 345.979 183.634C346.211 183.009 346.327 182.331 346.327 181.602C346.327 180.873 346.211 180.194 345.979 179.564C345.747 178.934 345.389 178.425 344.906 178.037C344.423 177.649 343.808 177.455 343.06 177.455C342.312 177.455 341.696 177.649 341.213 178.037C340.73 178.425 340.373 178.934 340.141 179.564C339.909 180.194 339.793 180.873 339.793 181.602C339.793 182.331 339.909 183.009 340.141 183.634C340.373 184.259 340.73 184.763 341.213 185.146C341.696 185.53 342.312 185.722 343.06 185.722ZM350.561 187V176.091H352.238V180.835H353.346L357.266 176.091H359.425L355.022 181.347L359.482 187H357.323L353.743 182.398H352.238V187H350.561ZM365.286 187.227C364.263 187.227 363.383 186.986 362.644 186.503C361.906 186.02 361.337 185.355 360.94 184.507C360.542 183.66 360.343 182.691 360.343 181.602C360.343 180.494 360.547 179.517 360.954 178.669C361.366 177.817 361.939 177.152 362.673 176.673C363.411 176.19 364.273 175.949 365.258 175.949C366.025 175.949 366.716 176.091 367.332 176.375C367.947 176.659 368.451 177.057 368.844 177.568C369.237 178.08 369.481 178.676 369.576 179.358H367.9C367.772 178.861 367.488 178.42 367.048 178.037C366.612 177.649 366.025 177.455 365.286 177.455C364.633 177.455 364.06 177.625 363.567 177.966C363.08 178.302 362.699 178.778 362.424 179.393C362.154 180.004 362.019 180.722 362.019 181.545C362.019 182.388 362.152 183.122 362.417 183.747C362.687 184.372 363.066 184.857 363.553 185.203C364.046 185.549 364.623 185.722 365.286 185.722C365.722 185.722 366.117 185.646 366.472 185.494C366.827 185.343 367.128 185.125 367.374 184.841C367.621 184.557 367.796 184.216 367.9 183.818H369.576C369.481 184.462 369.247 185.042 368.873 185.558C368.504 186.07 368.013 186.477 367.403 186.78C366.797 187.078 366.091 187.227 365.286 187.227ZM375.237 187.256C374.545 187.256 373.918 187.125 373.354 186.865C372.791 186.6 372.344 186.219 372.012 185.722C371.681 185.22 371.515 184.614 371.515 183.903C371.515 183.278 371.638 182.772 371.884 182.384C372.13 181.991 372.46 181.683 372.871 181.46C373.283 181.238 373.738 181.072 374.235 180.963C374.737 180.849 375.241 180.759 375.748 180.693C376.411 180.608 376.948 180.544 377.36 180.501C377.777 180.454 378.08 180.376 378.269 180.267C378.463 180.158 378.56 179.969 378.56 179.699V179.642C378.56 178.941 378.369 178.397 377.985 178.009C377.606 177.62 377.031 177.426 376.259 177.426C375.459 177.426 374.832 177.601 374.377 177.952C373.923 178.302 373.603 178.676 373.418 179.074L371.827 178.506C372.112 177.843 372.49 177.327 372.964 176.957C373.442 176.583 373.963 176.323 374.526 176.176C375.094 176.025 375.653 175.949 376.202 175.949C376.553 175.949 376.955 175.991 377.41 176.077C377.869 176.157 378.312 176.325 378.738 176.581C379.169 176.837 379.526 177.223 379.81 177.739C380.094 178.255 380.237 178.946 380.237 179.812V187H378.56V185.523H378.475C378.362 185.759 378.172 186.013 377.907 186.283C377.642 186.553 377.289 186.782 376.849 186.972C376.408 187.161 375.871 187.256 375.237 187.256ZM375.492 185.75C376.155 185.75 376.714 185.62 377.168 185.359C377.628 185.099 377.973 184.763 378.205 184.351C378.442 183.939 378.56 183.506 378.56 183.051V181.517C378.489 181.602 378.333 181.68 378.092 181.751C377.855 181.818 377.58 181.877 377.268 181.929C376.96 181.976 376.659 182.019 376.366 182.057C376.077 182.09 375.843 182.118 375.663 182.142C375.227 182.199 374.82 182.291 374.441 182.419C374.067 182.542 373.764 182.729 373.532 182.98C373.305 183.226 373.191 183.562 373.191 183.989C373.191 184.571 373.406 185.011 373.837 185.31C374.273 185.603 374.825 185.75 375.492 185.75Z" fill="#0A2832"/>
<g clip-path="url(#clip2_550_970)">
<rect x="479.75" y="98.75" width="20.5" height="20.5" fill="#37A373" stroke="#37A373" stroke-width="1.5"/>
<path d="M498.985 104.378L488.38 114.985L482.016 108.621L483.43 107.207L488.38 112.157L497.572 102.964L498.985 104.378Z" fill="white"/>
</g>
<path d="M518.966 103.017V101.455H529.875V103.017H525.301V116H523.54V103.017H518.966ZM535.358 116.227C534.307 116.227 533.4 115.995 532.638 115.531C531.88 115.062 531.295 114.409 530.884 113.571C530.476 112.728 530.273 111.748 530.273 110.631C530.273 109.513 530.476 108.528 530.884 107.676C531.295 106.819 531.868 106.152 532.602 105.673C533.341 105.19 534.203 104.949 535.188 104.949C535.756 104.949 536.317 105.044 536.871 105.233C537.425 105.422 537.929 105.73 538.384 106.156C538.838 106.578 539.2 107.136 539.47 107.832C539.74 108.528 539.875 109.385 539.875 110.403V111.114H531.466V109.665H538.17C538.17 109.049 538.047 108.5 537.801 108.017C537.56 107.534 537.214 107.153 536.764 106.874C536.319 106.594 535.794 106.455 535.188 106.455C534.52 106.455 533.942 106.62 533.455 106.952C532.972 107.278 532.6 107.705 532.339 108.23C532.079 108.756 531.949 109.319 531.949 109.92V110.886C531.949 111.71 532.091 112.409 532.375 112.982C532.664 113.55 533.064 113.983 533.575 114.281C534.087 114.575 534.681 114.722 535.358 114.722C535.798 114.722 536.196 114.66 536.551 114.537C536.911 114.409 537.221 114.22 537.482 113.969C537.742 113.713 537.943 113.396 538.085 113.017L539.705 113.472C539.534 114.021 539.248 114.504 538.845 114.92C538.443 115.332 537.946 115.654 537.354 115.886C536.762 116.114 536.097 116.227 535.358 116.227ZM542.425 116V105.091H544.101V109.835H545.209L549.129 105.091H551.288L546.885 110.347L551.345 116H549.186L545.607 111.398H544.101V116H542.425ZM557.15 116.227C556.127 116.227 555.246 115.986 554.507 115.503C553.769 115.02 553.201 114.355 552.803 113.507C552.405 112.66 552.206 111.691 552.206 110.602C552.206 109.494 552.41 108.517 552.817 107.669C553.229 106.817 553.802 106.152 554.536 105.673C555.275 105.19 556.136 104.949 557.121 104.949C557.888 104.949 558.579 105.091 559.195 105.375C559.81 105.659 560.315 106.057 560.708 106.568C561.101 107.08 561.345 107.676 561.439 108.358H559.763C559.635 107.861 559.351 107.42 558.911 107.037C558.475 106.649 557.888 106.455 557.15 106.455C556.496 106.455 555.923 106.625 555.431 106.966C554.943 107.302 554.562 107.778 554.287 108.393C554.017 109.004 553.882 109.722 553.882 110.545C553.882 111.388 554.015 112.122 554.28 112.747C554.55 113.372 554.929 113.857 555.417 114.203C555.909 114.549 556.487 114.722 557.15 114.722C557.585 114.722 557.98 114.646 558.336 114.494C558.691 114.343 558.991 114.125 559.238 113.841C559.484 113.557 559.659 113.216 559.763 112.818H561.439C561.345 113.462 561.11 114.042 560.736 114.558C560.367 115.07 559.877 115.477 559.266 115.78C558.66 116.078 557.954 116.227 557.15 116.227ZM563.03 106.653V105.091H571.894V106.653H568.314V116H566.638V106.653H563.03ZM588.373 105.091V116H586.697V105.091H588.373ZM587.719 110.29V111.852C587.341 111.994 586.964 112.12 586.59 112.229C586.216 112.333 585.823 112.416 585.411 112.477C584.999 112.534 584.547 112.562 584.055 112.562C582.819 112.562 581.827 112.229 581.079 111.561C580.335 110.893 579.964 109.892 579.964 108.557V105.062H581.64V108.557C581.64 109.116 581.746 109.575 581.96 109.935C582.173 110.295 582.461 110.562 582.826 110.737C583.191 110.912 583.6 111 584.055 111C584.765 111 585.406 110.936 585.979 110.808C586.557 110.676 587.137 110.503 587.719 110.29ZM596.022 116.227C594.971 116.227 594.064 115.995 593.302 115.531C592.544 115.062 591.96 114.409 591.548 113.571C591.14 112.728 590.937 111.748 590.937 110.631C590.937 109.513 591.14 108.528 591.548 107.676C591.96 106.819 592.532 106.152 593.266 105.673C594.005 105.19 594.867 104.949 595.852 104.949C596.42 104.949 596.981 105.044 597.535 105.233C598.089 105.422 598.593 105.73 599.048 106.156C599.502 106.578 599.864 107.136 600.134 107.832C600.404 108.528 600.539 109.385 600.539 110.403V111.114H592.13V109.665H598.835C598.835 109.049 598.711 108.5 598.465 108.017C598.224 107.534 597.878 107.153 597.428 106.874C596.983 106.594 596.458 106.455 595.852 106.455C595.184 106.455 594.606 106.62 594.119 106.952C593.636 107.278 593.264 107.705 593.004 108.23C592.743 108.756 592.613 109.319 592.613 109.92V110.886C592.613 111.71 592.755 112.409 593.039 112.982C593.328 113.55 593.728 113.983 594.239 114.281C594.751 114.575 595.345 114.722 596.022 114.722C596.462 114.722 596.86 114.66 597.215 114.537C597.575 114.409 597.885 114.22 598.146 113.969C598.406 113.713 598.607 113.396 598.749 113.017L600.369 113.472C600.198 114.021 599.912 114.504 599.509 114.92C599.107 115.332 598.61 115.654 598.018 115.886C597.426 116.114 596.761 116.227 596.022 116.227ZM603.089 116V105.091H604.765V109.835H605.873L609.793 105.091H611.952L607.549 110.347L612.009 116H609.85L606.271 111.398H604.765V116H603.089ZM621.928 101L622.78 102.023C622.448 102.345 622.065 102.57 621.629 102.697C621.194 102.825 620.701 102.903 620.152 102.932C619.603 102.96 618.992 102.989 618.32 103.017C617.562 103.045 616.935 103.23 616.438 103.571C615.94 103.912 615.557 104.404 615.287 105.048C615.017 105.692 614.844 106.483 614.768 107.42H614.911C615.28 106.739 615.791 106.237 616.445 105.915C617.098 105.593 617.799 105.432 618.547 105.432C619.399 105.432 620.166 105.631 620.848 106.028C621.53 106.426 622.07 107.016 622.467 107.797C622.865 108.578 623.064 109.542 623.064 110.688C623.064 111.829 622.86 112.813 622.453 113.642C622.051 114.471 621.485 115.11 620.756 115.56C620.031 116.005 619.181 116.227 618.206 116.227C617.231 116.227 616.376 115.998 615.642 115.538C614.908 115.074 614.338 114.388 613.93 113.479C613.523 112.565 613.32 111.436 613.32 110.091V108.926C613.32 106.497 613.732 104.655 614.555 103.401C615.384 102.146 616.629 101.497 618.291 101.455C618.878 101.436 619.402 101.431 619.861 101.44C620.32 101.45 620.72 101.429 621.061 101.376C621.402 101.324 621.691 101.199 621.928 101ZM618.206 114.722C618.864 114.722 619.43 114.556 619.903 114.224C620.382 113.893 620.749 113.427 621.004 112.825C621.26 112.219 621.388 111.507 621.388 110.688C621.388 109.892 621.258 109.215 620.997 108.656C620.741 108.098 620.375 107.671 619.896 107.378C619.418 107.084 618.845 106.938 618.178 106.938C617.69 106.938 617.252 107.02 616.864 107.186C616.475 107.352 616.144 107.596 615.869 107.918C615.595 108.24 615.382 108.633 615.23 109.097C615.083 109.561 615.005 110.091 614.996 110.688C614.996 111.909 615.282 112.887 615.855 113.621C616.428 114.355 617.212 114.722 618.206 114.722ZM630.06 116.227C629.075 116.227 628.211 115.993 627.467 115.524C626.729 115.055 626.151 114.4 625.734 113.557C625.322 112.714 625.116 111.729 625.116 110.602C625.116 109.466 625.322 108.474 625.734 107.626C626.151 106.779 626.729 106.121 627.467 105.652C628.211 105.183 629.075 104.949 630.06 104.949C631.045 104.949 631.906 105.183 632.645 105.652C633.388 106.121 633.966 106.779 634.378 107.626C634.795 108.474 635.003 109.466 635.003 110.602C635.003 111.729 634.795 112.714 634.378 113.557C633.966 114.4 633.388 115.055 632.645 115.524C631.906 115.993 631.045 116.227 630.06 116.227ZM630.06 114.722C630.808 114.722 631.423 114.53 631.906 114.146C632.389 113.763 632.747 113.259 632.979 112.634C633.211 112.009 633.327 111.331 633.327 110.602C633.327 109.873 633.211 109.194 632.979 108.564C632.747 107.934 632.389 107.425 631.906 107.037C631.423 106.649 630.808 106.455 630.06 106.455C629.312 106.455 628.696 106.649 628.213 107.037C627.73 107.425 627.373 107.934 627.141 108.564C626.909 109.194 626.793 109.873 626.793 110.602C626.793 111.331 626.909 112.009 627.141 112.634C627.373 113.259 627.73 113.763 628.213 114.146C628.696 114.53 629.312 114.722 630.06 114.722ZM637.561 116V105.091H639.238V109.835H640.346L644.266 105.091H646.425L642.022 110.347L646.482 116H644.323L640.743 111.398H639.238V116H637.561ZM652.286 116.227C651.263 116.227 650.383 115.986 649.644 115.503C648.906 115.02 648.337 114.355 647.94 113.507C647.542 112.66 647.343 111.691 647.343 110.602C647.343 109.494 647.547 108.517 647.954 107.669C648.366 106.817 648.939 106.152 649.673 105.673C650.411 105.19 651.273 104.949 652.258 104.949C653.025 104.949 653.716 105.091 654.332 105.375C654.947 105.659 655.451 106.057 655.844 106.568C656.237 107.08 656.481 107.676 656.576 108.358H654.9C654.772 107.861 654.488 107.42 654.048 107.037C653.612 106.649 653.025 106.455 652.286 106.455C651.633 106.455 651.06 106.625 650.567 106.966C650.08 107.302 649.699 107.778 649.424 108.393C649.154 109.004 649.019 109.722 649.019 110.545C649.019 111.388 649.152 112.122 649.417 112.747C649.687 113.372 650.066 113.857 650.553 114.203C651.046 114.549 651.623 114.722 652.286 114.722C652.722 114.722 653.117 114.646 653.472 114.494C653.827 114.343 654.128 114.125 654.374 113.841C654.621 113.557 654.796 113.216 654.9 112.818H656.576C656.481 113.462 656.247 114.042 655.873 114.558C655.504 115.07 655.013 115.477 654.403 115.78C653.797 116.078 653.091 116.227 652.286 116.227ZM662.237 116.256C661.545 116.256 660.918 116.125 660.354 115.865C659.791 115.6 659.344 115.219 659.012 114.722C658.681 114.22 658.515 113.614 658.515 112.903C658.515 112.278 658.638 111.772 658.884 111.384C659.13 110.991 659.46 110.683 659.871 110.46C660.283 110.238 660.738 110.072 661.235 109.963C661.737 109.849 662.241 109.759 662.748 109.693C663.411 109.608 663.948 109.544 664.36 109.501C664.777 109.454 665.08 109.376 665.269 109.267C665.463 109.158 665.56 108.969 665.56 108.699V108.642C665.56 107.941 665.369 107.397 664.985 107.009C664.606 106.62 664.031 106.426 663.259 106.426C662.459 106.426 661.832 106.601 661.377 106.952C660.923 107.302 660.603 107.676 660.418 108.074L658.827 107.506C659.112 106.843 659.49 106.327 659.964 105.957C660.442 105.583 660.963 105.323 661.526 105.176C662.094 105.025 662.653 104.949 663.202 104.949C663.553 104.949 663.955 104.991 664.41 105.077C664.869 105.157 665.312 105.325 665.738 105.581C666.169 105.837 666.526 106.223 666.81 106.739C667.094 107.255 667.237 107.946 667.237 108.812V116H665.56V114.523H665.475C665.362 114.759 665.172 115.013 664.907 115.283C664.642 115.553 664.289 115.782 663.849 115.972C663.408 116.161 662.871 116.256 662.237 116.256ZM662.492 114.75C663.155 114.75 663.714 114.62 664.168 114.359C664.628 114.099 664.973 113.763 665.205 113.351C665.442 112.939 665.56 112.506 665.56 112.051V110.517C665.489 110.602 665.333 110.68 665.092 110.751C664.855 110.818 664.58 110.877 664.268 110.929C663.96 110.976 663.659 111.019 663.366 111.057C663.077 111.09 662.843 111.118 662.663 111.142C662.227 111.199 661.82 111.291 661.441 111.419C661.067 111.542 660.764 111.729 660.532 111.98C660.305 112.226 660.191 112.562 660.191 112.989C660.191 113.571 660.406 114.011 660.837 114.31C661.273 114.603 661.825 114.75 662.492 114.75Z" fill="#0A2832"/>
<g clip-path="url(#clip3_550_970)">
<rect x="479.75" y="169.75" width="20.5" height="20.5" fill="white" stroke="#8C9BA0" stroke-width="1.5"/>
</g>
<path d="M518.966 174.017V172.455H529.875V174.017H525.301V187H523.54V174.017H518.966ZM535.358 187.227C534.307 187.227 533.4 186.995 532.638 186.531C531.88 186.062 531.295 185.409 530.884 184.571C530.476 183.728 530.273 182.748 530.273 181.631C530.273 180.513 530.476 179.528 530.884 178.676C531.295 177.819 531.868 177.152 532.602 176.673C533.341 176.19 534.203 175.949 535.188 175.949C535.756 175.949 536.317 176.044 536.871 176.233C537.425 176.422 537.929 176.73 538.384 177.156C538.838 177.578 539.2 178.136 539.47 178.832C539.74 179.528 539.875 180.385 539.875 181.403V182.114H531.466V180.665H538.17C538.17 180.049 538.047 179.5 537.801 179.017C537.56 178.534 537.214 178.153 536.764 177.874C536.319 177.594 535.794 177.455 535.188 177.455C534.52 177.455 533.942 177.62 533.455 177.952C532.972 178.278 532.6 178.705 532.339 179.23C532.079 179.756 531.949 180.319 531.949 180.92V181.886C531.949 182.71 532.091 183.409 532.375 183.982C532.664 184.55 533.064 184.983 533.575 185.281C534.087 185.575 534.681 185.722 535.358 185.722C535.798 185.722 536.196 185.66 536.551 185.537C536.911 185.409 537.221 185.22 537.482 184.969C537.742 184.713 537.943 184.396 538.085 184.017L539.705 184.472C539.534 185.021 539.248 185.504 538.845 185.92C538.443 186.332 537.946 186.654 537.354 186.886C536.762 187.114 536.097 187.227 535.358 187.227ZM542.425 187V176.091H544.101V180.835H545.209L549.129 176.091H551.288L546.885 181.347L551.345 187H549.186L545.607 182.398H544.101V187H542.425ZM557.15 187.227C556.127 187.227 555.246 186.986 554.507 186.503C553.769 186.02 553.201 185.355 552.803 184.507C552.405 183.66 552.206 182.691 552.206 181.602C552.206 180.494 552.41 179.517 552.817 178.669C553.229 177.817 553.802 177.152 554.536 176.673C555.275 176.19 556.136 175.949 557.121 175.949C557.888 175.949 558.579 176.091 559.195 176.375C559.81 176.659 560.315 177.057 560.708 177.568C561.101 178.08 561.345 178.676 561.439 179.358H559.763C559.635 178.861 559.351 178.42 558.911 178.037C558.475 177.649 557.888 177.455 557.15 177.455C556.496 177.455 555.923 177.625 555.431 177.966C554.943 178.302 554.562 178.778 554.287 179.393C554.017 180.004 553.882 180.722 553.882 181.545C553.882 182.388 554.015 183.122 554.28 183.747C554.55 184.372 554.929 184.857 555.417 185.203C555.909 185.549 556.487 185.722 557.15 185.722C557.585 185.722 557.98 185.646 558.336 185.494C558.691 185.343 558.991 185.125 559.238 184.841C559.484 184.557 559.659 184.216 559.763 183.818H561.439C561.345 184.462 561.11 185.042 560.736 185.558C560.367 186.07 559.877 186.477 559.266 186.78C558.66 187.078 557.954 187.227 557.15 187.227ZM563.03 177.653V176.091H571.894V177.653H568.314V187H566.638V177.653H563.03ZM588.373 176.091V187H586.697V176.091H588.373ZM587.719 181.29V182.852C587.341 182.994 586.964 183.12 586.59 183.229C586.216 183.333 585.823 183.416 585.411 183.477C584.999 183.534 584.547 183.562 584.055 183.562C582.819 183.562 581.827 183.229 581.079 182.561C580.335 181.893 579.964 180.892 579.964 179.557V176.062H581.64V179.557C581.64 180.116 581.746 180.575 581.96 180.935C582.173 181.295 582.461 181.562 582.826 181.737C583.191 181.912 583.6 182 584.055 182C584.765 182 585.406 181.936 585.979 181.808C586.557 181.676 587.137 181.503 587.719 181.29ZM596.022 187.227C594.971 187.227 594.064 186.995 593.302 186.531C592.544 186.062 591.96 185.409 591.548 184.571C591.14 183.728 590.937 182.748 590.937 181.631C590.937 180.513 591.14 179.528 591.548 178.676C591.96 177.819 592.532 177.152 593.266 176.673C594.005 176.19 594.867 175.949 595.852 175.949C596.42 175.949 596.981 176.044 597.535 176.233C598.089 176.422 598.593 176.73 599.048 177.156C599.502 177.578 599.864 178.136 600.134 178.832C600.404 179.528 600.539 180.385 600.539 181.403V182.114H592.13V180.665H598.835C598.835 180.049 598.711 179.5 598.465 179.017C598.224 178.534 597.878 178.153 597.428 177.874C596.983 177.594 596.458 177.455 595.852 177.455C595.184 177.455 594.606 177.62 594.119 177.952C593.636 178.278 593.264 178.705 593.004 179.23C592.743 179.756 592.613 180.319 592.613 180.92V181.886C592.613 182.71 592.755 183.409 593.039 183.982C593.328 184.55 593.728 184.983 594.239 185.281C594.751 185.575 595.345 185.722 596.022 185.722C596.462 185.722 596.86 185.66 597.215 185.537C597.575 185.409 597.885 185.22 598.146 184.969C598.406 184.713 598.607 184.396 598.749 184.017L600.369 184.472C600.198 185.021 599.912 185.504 599.509 185.92C599.107 186.332 598.61 186.654 598.018 186.886C597.426 187.114 596.761 187.227 596.022 187.227ZM603.089 187V176.091H604.765V180.835H605.873L609.793 176.091H611.952L607.549 181.347L612.009 187H609.85L606.271 182.398H604.765V187H603.089ZM621.928 172L622.78 173.023C622.448 173.345 622.065 173.57 621.629 173.697C621.194 173.825 620.701 173.903 620.152 173.932C619.603 173.96 618.992 173.989 618.32 174.017C617.562 174.045 616.935 174.23 616.438 174.571C615.94 174.912 615.557 175.404 615.287 176.048C615.017 176.692 614.844 177.483 614.768 178.42H614.911C615.28 177.739 615.791 177.237 616.445 176.915C617.098 176.593 617.799 176.432 618.547 176.432C619.399 176.432 620.166 176.631 620.848 177.028C621.53 177.426 622.07 178.016 622.467 178.797C622.865 179.578 623.064 180.542 623.064 181.688C623.064 182.829 622.86 183.813 622.453 184.642C622.051 185.471 621.485 186.11 620.756 186.56C620.031 187.005 619.181 187.227 618.206 187.227C617.231 187.227 616.376 186.998 615.642 186.538C614.908 186.074 614.338 185.388 613.93 184.479C613.523 183.565 613.32 182.436 613.32 181.091V179.926C613.32 177.497 613.732 175.655 614.555 174.401C615.384 173.146 616.629 172.497 618.291 172.455C618.878 172.436 619.402 172.431 619.861 172.44C620.32 172.45 620.72 172.429 621.061 172.376C621.402 172.324 621.691 172.199 621.928 172ZM618.206 185.722C618.864 185.722 619.43 185.556 619.903 185.224C620.382 184.893 620.749 184.427 621.004 183.825C621.26 183.219 621.388 182.507 621.388 181.688C621.388 180.892 621.258 180.215 620.997 179.656C620.741 179.098 620.375 178.671 619.896 178.378C619.418 178.084 618.845 177.938 618.178 177.938C617.69 177.938 617.252 178.02 616.864 178.186C616.475 178.352 616.144 178.596 615.869 178.918C615.595 179.24 615.382 179.633 615.23 180.097C615.083 180.561 615.005 181.091 614.996 181.688C614.996 182.909 615.282 183.887 615.855 184.621C616.428 185.355 617.212 185.722 618.206 185.722ZM630.06 187.227C629.075 187.227 628.211 186.993 627.467 186.524C626.729 186.055 626.151 185.4 625.734 184.557C625.322 183.714 625.116 182.729 625.116 181.602C625.116 180.466 625.322 179.474 625.734 178.626C626.151 177.779 626.729 177.121 627.467 176.652C628.211 176.183 629.075 175.949 630.06 175.949C631.045 175.949 631.906 176.183 632.645 176.652C633.388 177.121 633.966 177.779 634.378 178.626C634.795 179.474 635.003 180.466 635.003 181.602C635.003 182.729 634.795 183.714 634.378 184.557C633.966 185.4 633.388 186.055 632.645 186.524C631.906 186.993 631.045 187.227 630.06 187.227ZM630.06 185.722C630.808 185.722 631.423 185.53 631.906 185.146C632.389 184.763 632.747 184.259 632.979 183.634C633.211 183.009 633.327 182.331 633.327 181.602C633.327 180.873 633.211 180.194 632.979 179.564C632.747 178.934 632.389 178.425 631.906 178.037C631.423 177.649 630.808 177.455 630.06 177.455C629.312 177.455 628.696 177.649 628.213 178.037C627.73 178.425 627.373 178.934 627.141 179.564C626.909 180.194 626.793 180.873 626.793 181.602C626.793 182.331 626.909 183.009 627.141 183.634C627.373 184.259 627.73 184.763 628.213 185.146C628.696 185.53 629.312 185.722 630.06 185.722ZM637.561 187V176.091H639.238V180.835H640.346L644.266 176.091H646.425L642.022 181.347L646.482 187H644.323L640.743 182.398H639.238V187H637.561ZM652.286 187.227C651.263 187.227 650.383 186.986 649.644 186.503C648.906 186.02 648.337 185.355 647.94 184.507C647.542 183.66 647.343 182.691 647.343 181.602C647.343 180.494 647.547 179.517 647.954 178.669C648.366 177.817 648.939 177.152 649.673 176.673C650.411 176.19 651.273 175.949 652.258 175.949C653.025 175.949 653.716 176.091 654.332 176.375C654.947 176.659 655.451 177.057 655.844 177.568C656.237 178.08 656.481 178.676 656.576 179.358H654.9C654.772 178.861 654.488 178.42 654.048 178.037C653.612 177.649 653.025 177.455 652.286 177.455C651.633 177.455 651.06 177.625 650.567 177.966C650.08 178.302 649.699 178.778 649.424 179.393C649.154 180.004 649.019 180.722 649.019 181.545C649.019 182.388 649.152 183.122 649.417 183.747C649.687 184.372 650.066 184.857 650.553 185.203C651.046 185.549 651.623 185.722 652.286 185.722C652.722 185.722 653.117 185.646 653.472 185.494C653.827 185.343 654.128 185.125 654.374 184.841C654.621 184.557 654.796 184.216 654.9 183.818H656.576C656.481 184.462 656.247 185.042 655.873 185.558C655.504 186.07 655.013 186.477 654.403 186.78C653.797 187.078 653.091 187.227 652.286 187.227ZM662.237 187.256C661.545 187.256 660.918 187.125 660.354 186.865C659.791 186.6 659.344 186.219 659.012 185.722C658.681 185.22 658.515 184.614 658.515 183.903C658.515 183.278 658.638 182.772 658.884 182.384C659.13 181.991 659.46 181.683 659.871 181.46C660.283 181.238 660.738 181.072 661.235 180.963C661.737 180.849 662.241 180.759 662.748 180.693C663.411 180.608 663.948 180.544 664.36 180.501C664.777 180.454 665.08 180.376 665.269 180.267C665.463 180.158 665.56 179.969 665.56 179.699V179.642C665.56 178.941 665.369 178.397 664.985 178.009C664.606 177.62 664.031 177.426 663.259 177.426C662.459 177.426 661.832 177.601 661.377 177.952C660.923 178.302 660.603 178.676 660.418 179.074L658.827 178.506C659.112 177.843 659.49 177.327 659.964 176.957C660.442 176.583 660.963 176.323 661.526 176.176C662.094 176.025 662.653 175.949 663.202 175.949C663.553 175.949 663.955 175.991 664.41 176.077C664.869 176.157 665.312 176.325 665.738 176.581C666.169 176.837 666.526 177.223 666.81 177.739C667.094 178.255 667.237 178.946 667.237 179.812V187H665.56V185.523H665.475C665.362 185.759 665.172 186.013 664.907 186.283C664.642 186.553 664.289 186.782 663.849 186.972C663.408 187.161 662.871 187.256 662.237 187.256ZM662.492 185.75C663.155 185.75 663.714 185.62 664.168 185.359C664.628 185.099 664.973 184.763 665.205 184.351C665.442 183.939 665.56 183.506 665.56 183.051V181.517C665.489 181.602 665.333 181.68 665.092 181.751C664.855 181.818 664.58 181.877 664.268 181.929C663.96 181.976 663.659 182.019 663.366 182.057C663.077 182.09 662.843 182.118 662.663 182.142C662.227 182.199 661.82 182.291 661.441 182.419C661.067 182.542 660.764 182.729 660.532 182.98C660.305 183.226 660.191 183.562 660.191 183.989C660.191 184.571 660.406 185.011 660.837 185.31C661.273 185.603 661.825 185.75 662.492 185.75Z" fill="#0A2832"/>
<g opacity="0.5" clip-path="url(#clip4_550_970)">
<rect x="767.75" y="98.75" width="20.5" height="20.5" fill="#058C50" stroke="#058C50" stroke-width="1.5"/>
<path d="M786.985 104.378L776.38 114.985L770.016 108.621L771.43 107.207L776.38 112.157L785.572 102.964L786.985 104.378Z" fill="white"/>
</g>
<path d="M806.966 103.017V101.455H817.875V103.017H813.301V116H811.54V103.017H806.966ZM823.358 116.227C822.307 116.227 821.4 115.995 820.638 115.531C819.88 115.062 819.295 114.409 818.884 113.571C818.476 112.728 818.273 111.748 818.273 110.631C818.273 109.513 818.476 108.528 818.884 107.676C819.295 106.819 819.868 106.152 820.602 105.673C821.341 105.19 822.203 104.949 823.188 104.949C823.756 104.949 824.317 105.044 824.871 105.233C825.425 105.422 825.929 105.73 826.384 106.156C826.838 106.578 827.2 107.136 827.47 107.832C827.74 108.528 827.875 109.385 827.875 110.403V111.114H819.466V109.665H826.17C826.17 109.049 826.047 108.5 825.801 108.017C825.56 107.534 825.214 107.153 824.764 106.874C824.319 106.594 823.794 106.455 823.188 106.455C822.52 106.455 821.942 106.62 821.455 106.952C820.972 107.278 820.6 107.705 820.339 108.23C820.079 108.756 819.949 109.319 819.949 109.92V110.886C819.949 111.71 820.091 112.409 820.375 112.982C820.664 113.55 821.064 113.983 821.575 114.281C822.087 114.575 822.681 114.722 823.358 114.722C823.798 114.722 824.196 114.66 824.551 114.537C824.911 114.409 825.221 114.22 825.482 113.969C825.742 113.713 825.943 113.396 826.085 113.017L827.705 113.472C827.534 114.021 827.248 114.504 826.845 114.92C826.443 115.332 825.946 115.654 825.354 115.886C824.762 116.114 824.097 116.227 823.358 116.227ZM830.425 116V105.091H832.101V109.835H833.209L837.129 105.091H839.288L834.885 110.347L839.345 116H837.186L833.607 111.398H832.101V116H830.425ZM845.15 116.227C844.127 116.227 843.246 115.986 842.507 115.503C841.769 115.02 841.201 114.355 840.803 113.507C840.405 112.66 840.206 111.691 840.206 110.602C840.206 109.494 840.41 108.517 840.817 107.669C841.229 106.817 841.802 106.152 842.536 105.673C843.275 105.19 844.136 104.949 845.121 104.949C845.888 104.949 846.579 105.091 847.195 105.375C847.81 105.659 848.315 106.057 848.708 106.568C849.101 107.08 849.345 107.676 849.439 108.358H847.763C847.635 107.861 847.351 107.42 846.911 107.037C846.475 106.649 845.888 106.455 845.15 106.455C844.496 106.455 843.923 106.625 843.431 106.966C842.943 107.302 842.562 107.778 842.287 108.393C842.017 109.004 841.882 109.722 841.882 110.545C841.882 111.388 842.015 112.122 842.28 112.747C842.55 113.372 842.929 113.857 843.417 114.203C843.909 114.549 844.487 114.722 845.15 114.722C845.585 114.722 845.98 114.646 846.336 114.494C846.691 114.343 846.991 114.125 847.238 113.841C847.484 113.557 847.659 113.216 847.763 112.818H849.439C849.345 113.462 849.11 114.042 848.736 114.558C848.367 115.07 847.877 115.477 847.266 115.78C846.66 116.078 845.954 116.227 845.15 116.227ZM851.03 106.653V105.091H859.894V106.653H856.314V116H854.638V106.653H851.03ZM876.373 105.091V116H874.697V105.091H876.373ZM875.719 110.29V111.852C875.341 111.994 874.964 112.12 874.59 112.229C874.216 112.333 873.823 112.416 873.411 112.477C872.999 112.534 872.547 112.562 872.055 112.562C870.819 112.562 869.827 112.229 869.079 111.561C868.335 110.893 867.964 109.892 867.964 108.557V105.062H869.64V108.557C869.64 109.116 869.746 109.575 869.96 109.935C870.173 110.295 870.461 110.562 870.826 110.737C871.191 110.912 871.6 111 872.055 111C872.765 111 873.406 110.936 873.979 110.808C874.557 110.676 875.137 110.503 875.719 110.29ZM884.022 116.227C882.971 116.227 882.064 115.995 881.302 115.531C880.544 115.062 879.96 114.409 879.548 113.571C879.14 112.728 878.937 111.748 878.937 110.631C878.937 109.513 879.14 108.528 879.548 107.676C879.96 106.819 880.532 106.152 881.266 105.673C882.005 105.19 882.867 104.949 883.852 104.949C884.42 104.949 884.981 105.044 885.535 105.233C886.089 105.422 886.593 105.73 887.048 106.156C887.502 106.578 887.864 107.136 888.134 107.832C888.404 108.528 888.539 109.385 888.539 110.403V111.114H880.13V109.665H886.835C886.835 109.049 886.711 108.5 886.465 108.017C886.224 107.534 885.878 107.153 885.428 106.874C884.983 106.594 884.458 106.455 883.852 106.455C883.184 106.455 882.606 106.62 882.119 106.952C881.636 107.278 881.264 107.705 881.004 108.23C880.743 108.756 880.613 109.319 880.613 109.92V110.886C880.613 111.71 880.755 112.409 881.039 112.982C881.328 113.55 881.728 113.983 882.239 114.281C882.751 114.575 883.345 114.722 884.022 114.722C884.462 114.722 884.86 114.66 885.215 114.537C885.575 114.409 885.885 114.22 886.146 113.969C886.406 113.713 886.607 113.396 886.749 113.017L888.369 113.472C888.198 114.021 887.912 114.504 887.509 114.92C887.107 115.332 886.61 115.654 886.018 115.886C885.426 116.114 884.761 116.227 884.022 116.227ZM891.089 116V105.091H892.765V109.835H893.873L897.793 105.091H899.952L895.549 110.347L900.009 116H897.85L894.271 111.398H892.765V116H891.089ZM909.928 101L910.78 102.023C910.448 102.345 910.065 102.57 909.629 102.697C909.194 102.825 908.701 102.903 908.152 102.932C907.603 102.96 906.992 102.989 906.32 103.017C905.562 103.045 904.935 103.23 904.438 103.571C903.94 103.912 903.557 104.404 903.287 105.048C903.017 105.692 902.844 106.483 902.768 107.42H902.911C903.28 106.739 903.791 106.237 904.445 105.915C905.098 105.593 905.799 105.432 906.547 105.432C907.399 105.432 908.166 105.631 908.848 106.028C909.53 106.426 910.07 107.016 910.467 107.797C910.865 108.578 911.064 109.542 911.064 110.688C911.064 111.829 910.86 112.813 910.453 113.642C910.051 114.471 909.485 115.11 908.756 115.56C908.031 116.005 907.181 116.227 906.206 116.227C905.231 116.227 904.376 115.998 903.642 115.538C902.908 115.074 902.338 114.388 901.93 113.479C901.523 112.565 901.32 111.436 901.32 110.091V108.926C901.32 106.497 901.732 104.655 902.555 103.401C903.384 102.146 904.629 101.497 906.291 101.455C906.878 101.436 907.402 101.431 907.861 101.44C908.32 101.45 908.72 101.429 909.061 101.376C909.402 101.324 909.691 101.199 909.928 101ZM906.206 114.722C906.864 114.722 907.43 114.556 907.903 114.224C908.382 113.893 908.749 113.427 909.004 112.825C909.26 112.219 909.388 111.507 909.388 110.688C909.388 109.892 909.258 109.215 908.997 108.656C908.741 108.098 908.375 107.671 907.896 107.378C907.418 107.084 906.845 106.938 906.178 106.938C905.69 106.938 905.252 107.02 904.864 107.186C904.475 107.352 904.144 107.596 903.869 107.918C903.595 108.24 903.382 108.633 903.23 109.097C903.083 109.561 903.005 110.091 902.996 110.688C902.996 111.909 903.282 112.887 903.855 113.621C904.428 114.355 905.212 114.722 906.206 114.722ZM918.06 116.227C917.075 116.227 916.211 115.993 915.467 115.524C914.729 115.055 914.151 114.4 913.734 113.557C913.322 112.714 913.116 111.729 913.116 110.602C913.116 109.466 913.322 108.474 913.734 107.626C914.151 106.779 914.729 106.121 915.467 105.652C916.211 105.183 917.075 104.949 918.06 104.949C919.045 104.949 919.906 105.183 920.645 105.652C921.388 106.121 921.966 106.779 922.378 107.626C922.795 108.474 923.003 109.466 923.003 110.602C923.003 111.729 922.795 112.714 922.378 113.557C921.966 114.4 921.388 115.055 920.645 115.524C919.906 115.993 919.045 116.227 918.06 116.227ZM918.06 114.722C918.808 114.722 919.423 114.53 919.906 114.146C920.389 113.763 920.747 113.259 920.979 112.634C921.211 112.009 921.327 111.331 921.327 110.602C921.327 109.873 921.211 109.194 920.979 108.564C920.747 107.934 920.389 107.425 919.906 107.037C919.423 106.649 918.808 106.455 918.06 106.455C917.312 106.455 916.696 106.649 916.213 107.037C915.73 107.425 915.373 107.934 915.141 108.564C914.909 109.194 914.793 109.873 914.793 110.602C914.793 111.331 914.909 112.009 915.141 112.634C915.373 113.259 915.73 113.763 916.213 114.146C916.696 114.53 917.312 114.722 918.06 114.722ZM925.561 116V105.091H927.238V109.835H928.346L932.266 105.091H934.425L930.022 110.347L934.482 116H932.323L928.743 111.398H927.238V116H925.561ZM940.286 116.227C939.263 116.227 938.383 115.986 937.644 115.503C936.906 115.02 936.337 114.355 935.94 113.507C935.542 112.66 935.343 111.691 935.343 110.602C935.343 109.494 935.547 108.517 935.954 107.669C936.366 106.817 936.939 106.152 937.673 105.673C938.411 105.19 939.273 104.949 940.258 104.949C941.025 104.949 941.716 105.091 942.332 105.375C942.947 105.659 943.451 106.057 943.844 106.568C944.237 107.08 944.481 107.676 944.576 108.358H942.9C942.772 107.861 942.488 107.42 942.048 107.037C941.612 106.649 941.025 106.455 940.286 106.455C939.633 106.455 939.06 106.625 938.567 106.966C938.08 107.302 937.699 107.778 937.424 108.393C937.154 109.004 937.019 109.722 937.019 110.545C937.019 111.388 937.152 112.122 937.417 112.747C937.687 113.372 938.066 113.857 938.553 114.203C939.046 114.549 939.623 114.722 940.286 114.722C940.722 114.722 941.117 114.646 941.472 114.494C941.827 114.343 942.128 114.125 942.374 113.841C942.621 113.557 942.796 113.216 942.9 112.818H944.576C944.481 113.462 944.247 114.042 943.873 114.558C943.504 115.07 943.013 115.477 942.403 115.78C941.797 116.078 941.091 116.227 940.286 116.227ZM950.237 116.256C949.545 116.256 948.918 116.125 948.354 115.865C947.791 115.6 947.344 115.219 947.012 114.722C946.681 114.22 946.515 113.614 946.515 112.903C946.515 112.278 946.638 111.772 946.884 111.384C947.13 110.991 947.46 110.683 947.871 110.46C948.283 110.238 948.738 110.072 949.235 109.963C949.737 109.849 950.241 109.759 950.748 109.693C951.411 109.608 951.948 109.544 952.36 109.501C952.777 109.454 953.08 109.376 953.269 109.267C953.463 109.158 953.56 108.969 953.56 108.699V108.642C953.56 107.941 953.369 107.397 952.985 107.009C952.606 106.62 952.031 106.426 951.259 106.426C950.459 106.426 949.832 106.601 949.377 106.952C948.923 107.302 948.603 107.676 948.418 108.074L946.827 107.506C947.112 106.843 947.49 106.327 947.964 105.957C948.442 105.583 948.963 105.323 949.526 105.176C950.094 105.025 950.653 104.949 951.202 104.949C951.553 104.949 951.955 104.991 952.41 105.077C952.869 105.157 953.312 105.325 953.738 105.581C954.169 105.837 954.526 106.223 954.81 106.739C955.094 107.255 955.237 107.946 955.237 108.812V116H953.56V114.523H953.475C953.362 114.759 953.172 115.013 952.907 115.283C952.642 115.553 952.289 115.782 951.849 115.972C951.408 116.161 950.871 116.256 950.237 116.256ZM950.492 114.75C951.155 114.75 951.714 114.62 952.168 114.359C952.628 114.099 952.973 113.763 953.205 113.351C953.442 112.939 953.56 112.506 953.56 112.051V110.517C953.489 110.602 953.333 110.68 953.092 110.751C952.855 110.818 952.58 110.877 952.268 110.929C951.96 110.976 951.659 111.019 951.366 111.057C951.077 111.09 950.843 111.118 950.663 111.142C950.227 111.199 949.82 111.291 949.441 111.419C949.067 111.542 948.764 111.729 948.532 111.98C948.305 112.226 948.191 112.562 948.191 112.989C948.191 113.571 948.406 114.011 948.837 114.31C949.273 114.603 949.825 114.75 950.492 114.75Z" fill="#0A2832"/>
<g opacity="0.5" clip-path="url(#clip5_550_970)">
<rect x="767.75" y="169.75" width="20.5" height="20.5" fill="white" stroke="#C8D2D7" stroke-width="1.5"/>
</g>
<path d="M806.966 174.017V172.455H817.875V174.017H813.301V187H811.54V174.017H806.966ZM823.358 187.227C822.307 187.227 821.4 186.995 820.638 186.531C819.88 186.062 819.295 185.409 818.884 184.571C818.476 183.728 818.273 182.748 818.273 181.631C818.273 180.513 818.476 179.528 818.884 178.676C819.295 177.819 819.868 177.152 820.602 176.673C821.341 176.19 822.203 175.949 823.188 175.949C823.756 175.949 824.317 176.044 824.871 176.233C825.425 176.422 825.929 176.73 826.384 177.156C826.838 177.578 827.2 178.136 827.47 178.832C827.74 179.528 827.875 180.385 827.875 181.403V182.114H819.466V180.665H826.17C826.17 180.049 826.047 179.5 825.801 179.017C825.56 178.534 825.214 178.153 824.764 177.874C824.319 177.594 823.794 177.455 823.188 177.455C822.52 177.455 821.942 177.62 821.455 177.952C820.972 178.278 820.6 178.705 820.339 179.23C820.079 179.756 819.949 180.319 819.949 180.92V181.886C819.949 182.71 820.091 183.409 820.375 183.982C820.664 184.55 821.064 184.983 821.575 185.281C822.087 185.575 822.681 185.722 823.358 185.722C823.798 185.722 824.196 185.66 824.551 185.537C824.911 185.409 825.221 185.22 825.482 184.969C825.742 184.713 825.943 184.396 826.085 184.017L827.705 184.472C827.534 185.021 827.248 185.504 826.845 185.92C826.443 186.332 825.946 186.654 825.354 186.886C824.762 187.114 824.097 187.227 823.358 187.227ZM830.425 187V176.091H832.101V180.835H833.209L837.129 176.091H839.288L834.885 181.347L839.345 187H837.186L833.607 182.398H832.101V187H830.425ZM845.15 187.227C844.127 187.227 843.246 186.986 842.507 186.503C841.769 186.02 841.201 185.355 840.803 184.507C840.405 183.66 840.206 182.691 840.206 181.602C840.206 180.494 840.41 179.517 840.817 178.669C841.229 177.817 841.802 177.152 842.536 176.673C843.275 176.19 844.136 175.949 845.121 175.949C845.888 175.949 846.579 176.091 847.195 176.375C847.81 176.659 848.315 177.057 848.708 177.568C849.101 178.08 849.345 178.676 849.439 179.358H847.763C847.635 178.861 847.351 178.42 846.911 178.037C846.475 177.649 845.888 177.455 845.15 177.455C844.496 177.455 843.923 177.625 843.431 177.966C842.943 178.302 842.562 178.778 842.287 179.393C842.017 180.004 841.882 180.722 841.882 181.545C841.882 182.388 842.015 183.122 842.28 183.747C842.55 184.372 842.929 184.857 843.417 185.203C843.909 185.549 844.487 185.722 845.15 185.722C845.585 185.722 845.98 185.646 846.336 185.494C846.691 185.343 846.991 185.125 847.238 184.841C847.484 184.557 847.659 184.216 847.763 183.818H849.439C849.345 184.462 849.11 185.042 848.736 185.558C848.367 186.07 847.877 186.477 847.266 186.78C846.66 187.078 845.954 187.227 845.15 187.227ZM851.03 177.653V176.091H859.894V177.653H856.314V187H854.638V177.653H851.03ZM876.373 176.091V187H874.697V176.091H876.373ZM875.719 181.29V182.852C875.341 182.994 874.964 183.12 874.59 183.229C874.216 183.333 873.823 183.416 873.411 183.477C872.999 183.534 872.547 183.562 872.055 183.562C870.819 183.562 869.827 183.229 869.079 182.561C868.335 181.893 867.964 180.892 867.964 179.557V176.062H869.64V179.557C869.64 180.116 869.746 180.575 869.96 180.935C870.173 181.295 870.461 181.562 870.826 181.737C871.191 181.912 871.6 182 872.055 182C872.765 182 873.406 181.936 873.979 181.808C874.557 181.676 875.137 181.503 875.719 181.29ZM884.022 187.227C882.971 187.227 882.064 186.995 881.302 186.531C880.544 186.062 879.96 185.409 879.548 184.571C879.14 183.728 878.937 182.748 878.937 181.631C878.937 180.513 879.14 179.528 879.548 178.676C879.96 177.819 880.532 177.152 881.266 176.673C882.005 176.19 882.867 175.949 883.852 175.949C884.42 175.949 884.981 176.044 885.535 176.233C886.089 176.422 886.593 176.73 887.048 177.156C887.502 177.578 887.864 178.136 888.134 178.832C888.404 179.528 888.539 180.385 888.539 181.403V182.114H880.13V180.665H886.835C886.835 180.049 886.711 179.5 886.465 179.017C886.224 178.534 885.878 178.153 885.428 177.874C884.983 177.594 884.458 177.455 883.852 177.455C883.184 177.455 882.606 177.62 882.119 177.952C881.636 178.278 881.264 178.705 881.004 179.23C880.743 179.756 880.613 180.319 880.613 180.92V181.886C880.613 182.71 880.755 183.409 881.039 183.982C881.328 184.55 881.728 184.983 882.239 185.281C882.751 185.575 883.345 185.722 884.022 185.722C884.462 185.722 884.86 185.66 885.215 185.537C885.575 185.409 885.885 185.22 886.146 184.969C886.406 184.713 886.607 184.396 886.749 184.017L888.369 184.472C888.198 185.021 887.912 185.504 887.509 185.92C887.107 186.332 886.61 186.654 886.018 186.886C885.426 187.114 884.761 187.227 884.022 187.227ZM891.089 187V176.091H892.765V180.835H893.873L897.793 176.091H899.952L895.549 181.347L900.009 187H897.85L894.271 182.398H892.765V187H891.089ZM909.928 172L910.78 173.023C910.448 173.345 910.065 173.57 909.629 173.697C909.194 173.825 908.701 173.903 908.152 173.932C907.603 173.96 906.992 173.989 906.32 174.017C905.562 174.045 904.935 174.23 904.438 174.571C903.94 174.912 903.557 175.404 903.287 176.048C903.017 176.692 902.844 177.483 902.768 178.42H902.911C903.28 177.739 903.791 177.237 904.445 176.915C905.098 176.593 905.799 176.432 906.547 176.432C907.399 176.432 908.166 176.631 908.848 177.028C909.53 177.426 910.07 178.016 910.467 178.797C910.865 179.578 911.064 180.542 911.064 181.688C911.064 182.829 910.86 183.813 910.453 184.642C910.051 185.471 909.485 186.11 908.756 186.56C908.031 187.005 907.181 187.227 906.206 187.227C905.231 187.227 904.376 186.998 903.642 186.538C902.908 186.074 902.338 185.388 901.93 184.479C901.523 183.565 901.32 182.436 901.32 181.091V179.926C901.32 177.497 901.732 175.655 902.555 174.401C903.384 173.146 904.629 172.497 906.291 172.455C906.878 172.436 907.402 172.431 907.861 172.44C908.32 172.45 908.72 172.429 909.061 172.376C909.402 172.324 909.691 172.199 909.928 172ZM906.206 185.722C906.864 185.722 907.43 185.556 907.903 185.224C908.382 184.893 908.749 184.427 909.004 183.825C909.26 183.219 909.388 182.507 909.388 181.688C909.388 180.892 909.258 180.215 908.997 179.656C908.741 179.098 908.375 178.671 907.896 178.378C907.418 178.084 906.845 177.938 906.178 177.938C905.69 177.938 905.252 178.02 904.864 178.186C904.475 178.352 904.144 178.596 903.869 178.918C903.595 179.24 903.382 179.633 903.23 180.097C903.083 180.561 903.005 181.091 902.996 181.688C902.996 182.909 903.282 183.887 903.855 184.621C904.428 185.355 905.212 185.722 906.206 185.722ZM918.06 187.227C917.075 187.227 916.211 186.993 915.467 186.524C914.729 186.055 914.151 185.4 913.734 184.557C913.322 183.714 913.116 182.729 913.116 181.602C913.116 180.466 913.322 179.474 913.734 178.626C914.151 177.779 914.729 177.121 915.467 176.652C916.211 176.183 917.075 175.949 918.06 175.949C919.045 175.949 919.906 176.183 920.645 176.652C921.388 177.121 921.966 177.779 922.378 178.626C922.795 179.474 923.003 180.466 923.003 181.602C923.003 182.729 922.795 183.714 922.378 184.557C921.966 185.4 921.388 186.055 920.645 186.524C919.906 186.993 919.045 187.227 918.06 187.227ZM918.06 185.722C918.808 185.722 919.423 185.53 919.906 185.146C920.389 184.763 920.747 184.259 920.979 183.634C921.211 183.009 921.327 182.331 921.327 181.602C921.327 180.873 921.211 180.194 920.979 179.564C920.747 178.934 920.389 178.425 919.906 178.037C919.423 177.649 918.808 177.455 918.06 177.455C917.312 177.455 916.696 177.649 916.213 178.037C915.73 178.425 915.373 178.934 915.141 179.564C914.909 180.194 914.793 180.873 914.793 181.602C914.793 182.331 914.909 183.009 915.141 183.634C915.373 184.259 915.73 184.763 916.213 185.146C916.696 185.53 917.312 185.722 918.06 185.722ZM925.561 187V176.091H927.238V180.835H928.346L932.266 176.091H934.425L930.022 181.347L934.482 187H932.323L928.743 182.398H927.238V187H925.561ZM940.286 187.227C939.263 187.227 938.383 186.986 937.644 186.503C936.906 186.02 936.337 185.355 935.94 184.507C935.542 183.66 935.343 182.691 935.343 181.602C935.343 180.494 935.547 179.517 935.954 178.669C936.366 177.817 936.939 177.152 937.673 176.673C938.411 176.19 939.273 175.949 940.258 175.949C941.025 175.949 941.716 176.091 942.332 176.375C942.947 176.659 943.451 177.057 943.844 177.568C944.237 178.08 944.481 178.676 944.576 179.358H942.9C942.772 178.861 942.488 178.42 942.048 178.037C941.612 177.649 941.025 177.455 940.286 177.455C939.633 177.455 939.06 177.625 938.567 177.966C938.08 178.302 937.699 178.778 937.424 179.393C937.154 180.004 937.019 180.722 937.019 181.545C937.019 182.388 937.152 183.122 937.417 183.747C937.687 184.372 938.066 184.857 938.553 185.203C939.046 185.549 939.623 185.722 940.286 185.722C940.722 185.722 941.117 185.646 941.472 185.494C941.827 185.343 942.128 185.125 942.374 184.841C942.621 184.557 942.796 184.216 942.9 183.818H944.576C944.481 184.462 944.247 185.042 943.873 185.558C943.504 186.07 943.013 186.477 942.403 186.78C941.797 187.078 941.091 187.227 940.286 187.227ZM950.237 187.256C949.545 187.256 948.918 187.125 948.354 186.865C947.791 186.6 947.344 186.219 947.012 185.722C946.681 185.22 946.515 184.614 946.515 183.903C946.515 183.278 946.638 182.772 946.884 182.384C947.13 181.991 947.46 181.683 947.871 181.46C948.283 181.238 948.738 181.072 949.235 180.963C949.737 180.849 950.241 180.759 950.748 180.693C951.411 180.608 951.948 180.544 952.36 180.501C952.777 180.454 953.08 180.376 953.269 180.267C953.463 180.158 953.56 179.969 953.56 179.699V179.642C953.56 178.941 953.369 178.397 952.985 178.009C952.606 177.62 952.031 177.426 951.259 177.426C950.459 177.426 949.832 177.601 949.377 177.952C948.923 178.302 948.603 178.676 948.418 179.074L946.827 178.506C947.112 177.843 947.49 177.327 947.964 176.957C948.442 176.583 948.963 176.323 949.526 176.176C950.094 176.025 950.653 175.949 951.202 175.949C951.553 175.949 951.955 175.991 952.41 176.077C952.869 176.157 953.312 176.325 953.738 176.581C954.169 176.837 954.526 177.223 954.81 177.739C955.094 178.255 955.237 178.946 955.237 179.812V187H953.56V185.523H953.475C953.362 185.759 953.172 186.013 952.907 186.283C952.642 186.553 952.289 186.782 951.849 186.972C951.408 187.161 950.871 187.256 950.237 187.256ZM950.492 185.75C951.155 185.75 951.714 185.62 952.168 185.359C952.628 185.099 952.973 184.763 953.205 184.351C953.442 183.939 953.56 183.506 953.56 183.051V181.517C953.489 181.602 953.333 181.68 953.092 181.751C952.855 181.818 952.58 181.877 952.268 181.929C951.96 181.976 951.659 182.019 951.366 182.057C951.077 182.09 950.843 182.118 950.663 182.142C950.227 182.199 949.82 182.291 949.441 182.419C949.067 182.542 948.764 182.729 948.532 182.98C948.305 183.226 948.191 183.562 948.191 183.989C948.191 184.571 948.406 185.011 948.837 185.31C949.273 185.603 949.825 185.75 950.492 185.75Z" fill="#0A2832"/>
<path d="M197.25 43H192.761V28.4545H197.449C198.86 28.4545 200.067 28.7457 201.071 29.3281C202.075 29.9058 202.844 30.7367 203.379 31.821C203.914 32.9006 204.182 34.1932 204.182 35.6989C204.182 37.214 203.912 38.5185 203.372 39.6122C202.832 40.7012 202.046 41.5393 201.014 42.1264C199.982 42.7088 198.727 43 197.25 43ZM194.523 41.4375H197.136C198.339 41.4375 199.336 41.2055 200.126 40.7415C200.917 40.2775 201.507 39.617 201.895 38.7599C202.283 37.9029 202.477 36.8826 202.477 35.6989C202.477 34.5246 202.286 33.5137 201.902 32.6662C201.518 31.8139 200.946 31.1605 200.183 30.706C199.421 30.2467 198.472 30.017 197.335 30.017H194.523V41.4375ZM211.483 43.2273C210.432 43.2273 209.525 42.9953 208.763 42.5312C208.005 42.0625 207.42 41.4091 207.009 40.571C206.601 39.7282 206.398 38.7481 206.398 37.6307C206.398 36.5133 206.601 35.5284 207.009 34.6761C207.42 33.8191 207.993 33.1515 208.727 32.6733C209.466 32.1903 210.328 31.9489 211.312 31.9489C211.881 31.9489 212.442 32.0436 212.996 32.233C213.55 32.4223 214.054 32.7301 214.509 33.1562C214.963 33.5777 215.325 34.1364 215.595 34.8324C215.865 35.5284 216 36.3854 216 37.4034V38.1136H207.591V36.6648H214.295C214.295 36.0492 214.172 35.5 213.926 35.017C213.685 34.5341 213.339 34.1529 212.889 33.8736C212.444 33.5942 211.919 33.4545 211.312 33.4545C210.645 33.4545 210.067 33.6203 209.58 33.9517C209.097 34.2784 208.725 34.7045 208.464 35.2301C208.204 35.7557 208.074 36.3191 208.074 36.9205V37.8864C208.074 38.7102 208.216 39.4086 208.5 39.9815C208.789 40.5497 209.189 40.983 209.7 41.2812C210.212 41.5748 210.806 41.7216 211.483 41.7216C211.923 41.7216 212.321 41.66 212.676 41.5369C213.036 41.4091 213.346 41.2197 213.607 40.9688C213.867 40.7131 214.068 40.3958 214.21 40.017L215.83 40.4716C215.659 41.0208 215.373 41.5038 214.97 41.9205C214.568 42.3324 214.071 42.6544 213.479 42.8864C212.887 43.1136 212.222 43.2273 211.483 43.2273ZM223.408 32.0909V33.5114H217.527V32.0909H223.408ZM219.288 43V30.5852C219.288 29.9602 219.435 29.4394 219.729 29.0227C220.022 28.6061 220.403 28.2936 220.872 28.0852C221.341 27.8769 221.836 27.7727 222.357 27.7727C222.768 27.7727 223.105 27.8059 223.365 27.8722C223.625 27.9384 223.82 28 223.947 28.0568L223.464 29.5057C223.379 29.4773 223.261 29.4418 223.109 29.3991C222.963 29.3565 222.768 29.3352 222.527 29.3352C221.973 29.3352 221.573 29.4749 221.327 29.7543C221.085 30.0336 220.964 30.4432 220.964 30.983V43H219.288ZM228.654 43.2557C227.963 43.2557 227.336 43.1255 226.772 42.8651C226.209 42.5999 225.761 42.2188 225.43 41.7216C225.099 41.2197 224.933 40.6136 224.933 39.9034C224.933 39.2784 225.056 38.7718 225.302 38.3835C225.548 37.9905 225.877 37.6828 226.289 37.4602C226.701 37.2377 227.156 37.072 227.653 36.9631C228.155 36.8494 228.659 36.7595 229.166 36.6932C229.829 36.608 230.366 36.544 230.778 36.5014C231.195 36.4541 231.498 36.3759 231.687 36.267C231.881 36.1581 231.978 35.9687 231.978 35.6989V35.642C231.978 34.9413 231.787 34.3968 231.403 34.0085C231.024 33.6203 230.449 33.4261 229.677 33.4261C228.877 33.4261 228.25 33.6013 227.795 33.9517C227.341 34.3021 227.021 34.6761 226.836 35.0739L225.245 34.5057C225.529 33.8428 225.908 33.3267 226.382 32.9574C226.86 32.5833 227.381 32.3229 227.944 32.1761C228.512 32.0246 229.071 31.9489 229.62 31.9489C229.971 31.9489 230.373 31.9915 230.828 32.0767C231.287 32.1572 231.73 32.3253 232.156 32.581C232.587 32.8366 232.944 33.2225 233.228 33.7386C233.512 34.2547 233.654 34.946 233.654 35.8125V43H231.978V41.5227H231.893C231.779 41.7595 231.59 42.0128 231.325 42.2827C231.06 42.5526 230.707 42.7822 230.267 42.9716C229.826 43.161 229.289 43.2557 228.654 43.2557ZM228.91 41.75C229.573 41.75 230.132 41.6198 230.586 41.3594C231.046 41.099 231.391 40.7628 231.623 40.3509C231.86 39.9389 231.978 39.5057 231.978 39.0511V37.517C231.907 37.6023 231.751 37.6804 231.51 37.7514C231.273 37.8177 230.998 37.8769 230.686 37.929C230.378 37.9763 230.077 38.0189 229.784 38.0568C229.495 38.09 229.261 38.1184 229.081 38.142C228.645 38.1989 228.238 38.2912 227.859 38.419C227.485 38.5421 227.182 38.7292 226.95 38.9801C226.723 39.2263 226.609 39.5625 226.609 39.9886C226.609 40.571 226.824 41.0114 227.255 41.3097C227.691 41.6032 228.243 41.75 228.91 41.75ZM243.589 38.5398V32.0909H245.265V43H243.589V41.1534H243.475C243.219 41.7074 242.822 42.1785 242.282 42.5668C241.742 42.9503 241.06 43.142 240.237 43.142C239.555 43.142 238.949 42.9929 238.418 42.6946C237.888 42.3916 237.471 41.937 237.168 41.331C236.865 40.7202 236.714 39.9508 236.714 39.0227V32.0909H238.39V38.9091C238.39 39.7045 238.612 40.339 239.058 40.8125C239.507 41.286 240.08 41.5227 240.776 41.5227C241.193 41.5227 241.617 41.4162 242.048 41.2031C242.483 40.9901 242.848 40.6634 243.141 40.223C243.44 39.7827 243.589 39.2216 243.589 38.5398ZM250.011 28.4545V43H248.335V28.4545H250.011ZM257.825 32.0909V33.5114H252.172V32.0909H257.825ZM253.82 29.4773H255.496V39.875C255.496 40.3485 255.564 40.7036 255.702 40.9403C255.844 41.1723 256.024 41.3286 256.241 41.4091C256.464 41.4848 256.698 41.5227 256.945 41.5227C257.129 41.5227 257.281 41.5133 257.399 41.4943C257.518 41.4706 257.612 41.4517 257.683 41.4375L258.024 42.9432C257.911 42.9858 257.752 43.0284 257.548 43.071C257.345 43.1184 257.087 43.142 256.774 43.142C256.301 43.142 255.837 43.0402 255.382 42.8366C254.932 42.633 254.558 42.3229 254.26 41.9062C253.966 41.4896 253.82 40.964 253.82 40.3295V29.4773Z" fill="#738287"/>
<path d="M32.7159 106.091C32.6307 105.371 32.285 104.812 31.679 104.415C31.0729 104.017 30.3295 103.818 29.4489 103.818C28.8049 103.818 28.2415 103.922 27.7585 104.131C27.2803 104.339 26.9063 104.625 26.6364 104.99C26.3712 105.355 26.2386 105.769 26.2386 106.233C26.2386 106.621 26.331 106.955 26.5156 107.234C26.705 107.509 26.9465 107.739 27.2401 107.923C27.5336 108.103 27.8414 108.252 28.1634 108.371C28.4853 108.484 28.7812 108.577 29.0511 108.648L30.5284 109.045C30.9072 109.145 31.3286 109.282 31.7926 109.457C32.2614 109.633 32.7088 109.872 33.1349 110.175C33.5658 110.473 33.9209 110.857 34.2003 111.325C34.4796 111.794 34.6193 112.369 34.6193 113.051C34.6193 113.837 34.4134 114.547 34.0014 115.182C33.5942 115.816 32.9976 116.321 32.2116 116.695C31.4304 117.069 30.4811 117.256 29.3636 117.256C28.322 117.256 27.42 117.088 26.6577 116.751C25.9001 116.415 25.3035 115.946 24.8679 115.345C24.437 114.744 24.1932 114.045 24.1364 113.25H25.9545C26.0019 113.799 26.1866 114.254 26.5085 114.614C26.8352 114.969 27.2472 115.234 27.7443 115.409C28.2462 115.58 28.786 115.665 29.3636 115.665C30.036 115.665 30.6397 115.556 31.1747 115.338C31.7098 115.116 32.1335 114.808 32.446 114.415C32.7585 114.017 32.9148 113.553 32.9148 113.023C32.9148 112.54 32.7798 112.147 32.5099 111.844C32.2401 111.541 31.8849 111.295 31.4446 111.105C31.0043 110.916 30.5284 110.75 30.017 110.608L28.2273 110.097C27.0909 109.77 26.1913 109.304 25.5284 108.697C24.8655 108.091 24.5341 107.298 24.5341 106.318C24.5341 105.504 24.7543 104.794 25.1946 104.188C25.6397 103.577 26.2363 103.103 26.9844 102.767C27.7372 102.426 28.5777 102.256 29.5057 102.256C30.4432 102.256 31.2765 102.424 32.0057 102.76C32.7348 103.091 33.3125 103.546 33.7386 104.124C34.1695 104.701 34.3968 105.357 34.4205 106.091H32.7159ZM41.8619 117.227C40.8107 117.227 39.904 116.995 39.1417 116.531C38.3841 116.062 37.7994 115.409 37.3874 114.571C36.9802 113.728 36.7766 112.748 36.7766 111.631C36.7766 110.513 36.9802 109.528 37.3874 108.676C37.7994 107.819 38.3723 107.152 39.1062 106.673C39.8448 106.19 40.7066 105.949 41.6914 105.949C42.2596 105.949 42.8207 106.044 43.3746 106.233C43.9286 106.422 44.4329 106.73 44.8874 107.156C45.342 107.578 45.7042 108.136 45.9741 108.832C46.244 109.528 46.3789 110.385 46.3789 111.403V112.114H37.9698V110.665H44.6744C44.6744 110.049 44.5513 109.5 44.305 109.017C44.0636 108.534 43.7179 108.153 43.2681 107.874C42.823 107.594 42.2975 107.455 41.6914 107.455C41.0238 107.455 40.4461 107.62 39.9585 107.952C39.4755 108.278 39.1038 108.705 38.8434 109.23C38.583 109.756 38.4528 110.319 38.4528 110.92V111.886C38.4528 112.71 38.5948 113.409 38.8789 113.982C39.1677 114.55 39.5678 114.983 40.0792 115.281C40.5906 115.575 41.1848 115.722 41.8619 115.722C42.3022 115.722 42.6999 115.66 43.055 115.537C43.4149 115.409 43.725 115.22 43.9854 114.969C44.2459 114.713 44.4471 114.396 44.5891 114.017L46.2085 114.472C46.038 115.021 45.7515 115.504 45.3491 115.92C44.9466 116.332 44.4495 116.654 43.8576 116.886C43.2657 117.114 42.6005 117.227 41.8619 117.227ZM50.6048 102.455V117H48.9286V102.455H50.6048ZM58.2486 117.227C57.1974 117.227 56.2907 116.995 55.5284 116.531C54.7708 116.062 54.1861 115.409 53.7741 114.571C53.367 113.728 53.1634 112.748 53.1634 111.631C53.1634 110.513 53.367 109.528 53.7741 108.676C54.1861 107.819 54.759 107.152 55.4929 106.673C56.2315 106.19 57.0933 105.949 58.0781 105.949C58.6463 105.949 59.2074 106.044 59.7614 106.233C60.3153 106.422 60.8196 106.73 61.2741 107.156C61.7287 107.578 62.0909 108.136 62.3608 108.832C62.6307 109.528 62.7656 110.385 62.7656 111.403V112.114H54.3565V110.665H61.0611C61.0611 110.049 60.938 109.5 60.6918 109.017C60.4503 108.534 60.1046 108.153 59.6548 107.874C59.2098 107.594 58.6842 107.455 58.0781 107.455C57.4105 107.455 56.8329 107.62 56.3452 107.952C55.8622 108.278 55.4905 108.705 55.2301 109.23C54.9697 109.756 54.8395 110.319 54.8395 110.92V111.886C54.8395 112.71 54.9815 113.409 55.2656 113.982C55.5545 114.55 55.9545 114.983 56.4659 115.281C56.9773 115.575 57.5715 115.722 58.2486 115.722C58.6889 115.722 59.0866 115.66 59.4418 115.537C59.8016 115.409 60.1117 115.22 60.3722 114.969C60.6326 114.713 60.8338 114.396 60.9759 114.017L62.5952 114.472C62.4247 115.021 62.1383 115.504 61.7358 115.92C61.3333 116.332 60.8362 116.654 60.2443 116.886C59.6525 117.114 58.9872 117.227 58.2486 117.227ZM69.7472 117.227C68.7244 117.227 67.8438 116.986 67.1051 116.503C66.3665 116.02 65.7983 115.355 65.4006 114.507C65.0028 113.66 64.804 112.691 64.804 111.602C64.804 110.494 65.0076 109.517 65.4148 108.669C65.8267 107.817 66.3996 107.152 67.1335 106.673C67.8722 106.19 68.7339 105.949 69.7188 105.949C70.4858 105.949 71.1771 106.091 71.7926 106.375C72.4081 106.659 72.9124 107.057 73.3054 107.568C73.6984 108.08 73.9422 108.676 74.0369 109.358H72.3608C72.233 108.861 71.9489 108.42 71.5085 108.037C71.0729 107.649 70.4858 107.455 69.7472 107.455C69.0938 107.455 68.5208 107.625 68.0284 107.966C67.5407 108.302 67.1596 108.778 66.8849 109.393C66.6151 110.004 66.4801 110.722 66.4801 111.545C66.4801 112.388 66.6127 113.122 66.8778 113.747C67.1477 114.372 67.5265 114.857 68.0142 115.203C68.5066 115.549 69.0843 115.722 69.7472 115.722C70.1828 115.722 70.5781 115.646 70.9332 115.494C71.2884 115.343 71.589 115.125 71.8352 114.841C72.0814 114.557 72.2566 114.216 72.3608 113.818H74.0369C73.9422 114.462 73.7079 115.042 73.3338 115.558C72.9645 116.07 72.4744 116.477 71.8636 116.78C71.2576 117.078 70.5521 117.227 69.7472 117.227ZM81.2315 106.091V107.511H75.5781V106.091H81.2315ZM77.2259 103.477H78.902V113.875C78.902 114.348 78.9706 114.704 79.108 114.94C79.25 115.172 79.4299 115.329 79.6477 115.409C79.8703 115.485 80.1046 115.523 80.3509 115.523C80.5355 115.523 80.687 115.513 80.8054 115.494C80.9238 115.471 81.0185 115.452 81.0895 115.438L81.4304 116.943C81.3168 116.986 81.1581 117.028 80.9545 117.071C80.7509 117.118 80.4929 117.142 80.1804 117.142C79.7069 117.142 79.2429 117.04 78.7884 116.837C78.3385 116.633 77.9645 116.323 77.6662 115.906C77.3726 115.49 77.2259 114.964 77.2259 114.33V103.477ZM88.2095 117.227C87.1584 117.227 86.2517 116.995 85.4893 116.531C84.7318 116.062 84.147 115.409 83.7351 114.571C83.3279 113.728 83.1243 112.748 83.1243 111.631C83.1243 110.513 83.3279 109.528 83.7351 108.676C84.147 107.819 84.7199 107.152 85.4538 106.673C86.1925 106.19 87.0542 105.949 88.0391 105.949C88.6072 105.949 89.1683 106.044 89.7223 106.233C90.2763 106.422 90.7805 106.73 91.2351 107.156C91.6896 107.578 92.0518 108.136 92.3217 108.832C92.5916 109.528 92.7266 110.385 92.7266 111.403V112.114H84.3175V110.665H91.022C91.022 110.049 90.8989 109.5 90.6527 109.017C90.4112 108.534 90.0656 108.153 89.6158 107.874C89.1707 107.594 88.6451 107.455 88.0391 107.455C87.3714 107.455 86.7938 107.62 86.3061 107.952C85.8232 108.278 85.4515 108.705 85.1911 109.23C84.9306 109.756 84.8004 110.319 84.8004 110.92V111.886C84.8004 112.71 84.9425 113.409 85.2266 113.982C85.5154 114.55 85.9155 114.983 86.4268 115.281C86.9382 115.575 87.5324 115.722 88.2095 115.722C88.6499 115.722 89.0476 115.66 89.4027 115.537C89.7625 115.409 90.0727 115.22 90.3331 114.969C90.5935 114.713 90.7947 114.396 90.9368 114.017L92.5561 114.472C92.3857 115.021 92.0992 115.504 91.6967 115.92C91.2943 116.332 90.7971 116.654 90.2053 116.886C89.6134 117.114 88.9482 117.227 88.2095 117.227ZM99.3956 117.227C98.4865 117.227 97.6839 116.998 96.9879 116.538C96.2919 116.074 95.7474 115.421 95.3544 114.578C94.9614 113.731 94.7649 112.729 94.7649 111.574C94.7649 110.428 94.9614 109.434 95.3544 108.591C95.7474 107.748 96.2943 107.097 96.995 106.638C97.6958 106.179 98.5054 105.949 99.424 105.949C100.134 105.949 100.695 106.067 101.107 106.304C101.524 106.536 101.841 106.801 102.059 107.099C102.281 107.393 102.454 107.634 102.577 107.824H102.719V102.455H104.396V117H102.776V115.324H102.577C102.454 115.523 102.279 115.774 102.052 116.077C101.825 116.375 101.5 116.643 101.079 116.879C100.657 117.111 100.096 117.227 99.3956 117.227ZM99.6229 115.722C100.295 115.722 100.863 115.546 101.327 115.196C101.791 114.841 102.144 114.351 102.386 113.726C102.627 113.096 102.748 112.369 102.748 111.545C102.748 110.731 102.629 110.018 102.393 109.408C102.156 108.792 101.806 108.314 101.342 107.973C100.878 107.627 100.305 107.455 99.6229 107.455C98.9126 107.455 98.3208 107.637 97.8473 108.001C97.3786 108.361 97.0258 108.851 96.7891 109.472C96.5571 110.087 96.4411 110.778 96.4411 111.545C96.4411 112.322 96.5594 113.027 96.7962 113.662C97.0376 114.292 97.3928 114.794 97.8615 115.168C98.335 115.537 98.9221 115.722 99.6229 115.722Z" fill="#738287"/>
<path d="M34.3068 172.455H36.0682V182.085C36.0682 183.08 35.8338 183.967 35.3651 184.749C34.901 185.525 34.2453 186.138 33.3977 186.588C32.5502 187.033 31.5559 187.256 30.4148 187.256C29.2737 187.256 28.2794 187.033 27.4318 186.588C26.5843 186.138 25.9261 185.525 25.4574 184.749C24.9934 183.967 24.7614 183.08 24.7614 182.085V172.455H26.5227V181.943C26.5227 182.653 26.679 183.286 26.9915 183.839C27.304 184.389 27.7491 184.822 28.3267 185.139C28.9091 185.452 29.6051 185.608 30.4148 185.608C31.2244 185.608 31.9205 185.452 32.5028 185.139C33.0852 184.822 33.5303 184.389 33.8381 183.839C34.1506 183.286 34.3068 182.653 34.3068 181.943V172.455ZM41.0344 180.438V187H39.3583V176.091H40.9776V177.795H41.1197C41.3754 177.241 41.7636 176.796 42.2844 176.46C42.8053 176.119 43.4776 175.949 44.3015 175.949C45.0401 175.949 45.6864 176.1 46.2404 176.403C46.7944 176.702 47.2253 177.156 47.533 177.767C47.8408 178.373 47.9947 179.14 47.9947 180.068V187H46.3185V180.182C46.3185 179.325 46.096 178.657 45.6509 178.179C45.2058 177.696 44.5951 177.455 43.8185 177.455C43.2835 177.455 42.8053 177.571 42.3839 177.803C41.9672 178.035 41.6381 178.373 41.3967 178.818C41.1552 179.263 41.0344 179.803 41.0344 180.438ZM58.7848 178.534L57.2791 178.96C57.1844 178.709 57.0447 178.465 56.8601 178.229C56.6802 177.987 56.4339 177.788 56.1214 177.632C55.8089 177.476 55.4089 177.398 54.9212 177.398C54.2536 177.398 53.6972 177.552 53.2521 177.859C52.8118 178.162 52.5916 178.548 52.5916 179.017C52.5916 179.434 52.7431 179.763 53.0462 180.004C53.3492 180.246 53.8227 180.447 54.4666 180.608L56.0859 181.006C57.0613 181.242 57.7881 181.605 58.2663 182.092C58.7446 182.575 58.9837 183.198 58.9837 183.96C58.9837 184.585 58.8037 185.144 58.4439 185.636C58.0888 186.129 57.5916 186.517 56.9524 186.801C56.3132 187.085 55.5698 187.227 54.7223 187.227C53.6096 187.227 52.6887 186.986 51.9595 186.503C51.2304 186.02 50.7687 185.314 50.5746 184.386L52.1655 183.989C52.317 184.576 52.6035 185.016 53.0249 185.31C53.451 185.603 54.0073 185.75 54.6939 185.75C55.4751 185.75 56.0954 185.584 56.5547 185.253C57.0187 184.917 57.2507 184.514 57.2507 184.045C57.2507 183.667 57.1181 183.349 56.853 183.094C56.5878 182.833 56.1806 182.639 55.6314 182.511L53.8132 182.085C52.8142 181.848 52.0803 181.482 51.6115 180.984C51.1475 180.482 50.9155 179.855 50.9155 179.102C50.9155 178.487 51.0883 177.942 51.4339 177.469C51.7843 176.995 52.2602 176.624 52.8615 176.354C53.4676 176.084 54.1541 175.949 54.9212 175.949C56.0007 175.949 56.8482 176.186 57.4638 176.659C58.084 177.133 58.5244 177.758 58.7848 178.534ZM66.0806 187.227C65.0295 187.227 64.1228 186.995 63.3604 186.531C62.6029 186.062 62.0181 185.409 61.6062 184.571C61.199 183.728 60.9954 182.748 60.9954 181.631C60.9954 180.513 61.199 179.528 61.6062 178.676C62.0181 177.819 62.591 177.152 63.3249 176.673C64.0636 176.19 64.9253 175.949 65.9102 175.949C66.4783 175.949 67.0394 176.044 67.5934 176.233C68.1474 176.422 68.6516 176.73 69.1062 177.156C69.5607 177.578 69.9229 178.136 70.1928 178.832C70.4627 179.528 70.5977 180.385 70.5977 181.403V182.114H62.1886V180.665H68.8931C68.8931 180.049 68.77 179.5 68.5238 179.017C68.2823 178.534 67.9367 178.153 67.4869 177.874C67.0418 177.594 66.5162 177.455 65.9102 177.455C65.2425 177.455 64.6649 177.62 64.1772 177.952C63.6942 178.278 63.3226 178.705 63.0621 179.23C62.8017 179.756 62.6715 180.319 62.6715 180.92V181.886C62.6715 182.71 62.8136 183.409 63.0977 183.982C63.3865 184.55 63.7866 184.983 64.2979 185.281C64.8093 185.575 65.4035 185.722 66.0806 185.722C66.521 185.722 66.9187 185.66 67.2738 185.537C67.6336 185.409 67.9438 185.22 68.2042 184.969C68.4646 184.713 68.6658 184.396 68.8079 184.017L70.4272 184.472C70.2567 185.021 69.9703 185.504 69.5678 185.92C69.1654 186.332 68.6682 186.654 68.0763 186.886C67.4845 187.114 66.8192 187.227 66.0806 187.227ZM74.8235 172.455V187H73.1474V172.455H74.8235ZM82.4673 187.227C81.4162 187.227 80.5095 186.995 79.7472 186.531C78.9896 186.062 78.4048 185.409 77.9929 184.571C77.5857 183.728 77.3821 182.748 77.3821 181.631C77.3821 180.513 77.5857 179.528 77.9929 178.676C78.4048 177.819 78.9777 177.152 79.7116 176.673C80.4503 176.19 81.312 175.949 82.2969 175.949C82.8651 175.949 83.4261 176.044 83.9801 176.233C84.5341 176.422 85.0384 176.73 85.4929 177.156C85.9474 177.578 86.3097 178.136 86.5795 178.832C86.8494 179.528 86.9844 180.385 86.9844 181.403V182.114H78.5753V180.665H85.2798C85.2798 180.049 85.1567 179.5 84.9105 179.017C84.669 178.534 84.3234 178.153 83.8736 177.874C83.4285 177.594 82.9029 177.455 82.2969 177.455C81.6293 177.455 81.0516 177.62 80.5639 177.952C80.081 178.278 79.7093 178.705 79.4489 179.23C79.1884 179.756 79.0582 180.319 79.0582 180.92V181.886C79.0582 182.71 79.2003 183.409 79.4844 183.982C79.7732 184.55 80.1733 184.983 80.6847 185.281C81.196 185.575 81.7902 185.722 82.4673 185.722C82.9077 185.722 83.3054 185.66 83.6605 185.537C84.0204 185.409 84.3305 185.22 84.5909 184.969C84.8513 184.713 85.0526 184.396 85.1946 184.017L86.8139 184.472C86.6435 185.021 86.357 185.504 85.9545 185.92C85.5521 186.332 85.0549 186.654 84.4631 186.886C83.8712 187.114 83.206 187.227 82.4673 187.227ZM93.9659 187.227C92.9432 187.227 92.0625 186.986 91.3239 186.503C90.5852 186.02 90.017 185.355 89.6193 184.507C89.2216 183.66 89.0227 182.691 89.0227 181.602C89.0227 180.494 89.2263 179.517 89.6335 178.669C90.0455 177.817 90.6184 177.152 91.3523 176.673C92.0909 176.19 92.9527 175.949 93.9375 175.949C94.7045 175.949 95.3958 176.091 96.0114 176.375C96.6269 176.659 97.1312 177.057 97.5241 177.568C97.9171 178.08 98.161 178.676 98.2557 179.358H96.5795C96.4517 178.861 96.1676 178.42 95.7273 178.037C95.2917 177.649 94.7045 177.455 93.9659 177.455C93.3125 177.455 92.7396 177.625 92.2472 177.966C91.7595 178.302 91.3783 178.778 91.1037 179.393C90.8338 180.004 90.6989 180.722 90.6989 181.545C90.6989 182.388 90.8314 183.122 91.0966 183.747C91.3665 184.372 91.7453 184.857 92.233 185.203C92.7254 185.549 93.303 185.722 93.9659 185.722C94.4015 185.722 94.7969 185.646 95.152 185.494C95.5071 185.343 95.8078 185.125 96.054 184.841C96.3002 184.557 96.4754 184.216 96.5795 183.818H98.2557C98.161 184.462 97.9266 185.042 97.5526 185.558C97.1832 186.07 96.6932 186.477 96.0824 186.78C95.4763 187.078 94.7708 187.227 93.9659 187.227ZM105.45 176.091V177.511H99.7969V176.091H105.45ZM101.445 173.477H103.121V183.875C103.121 184.348 103.189 184.704 103.327 184.94C103.469 185.172 103.649 185.329 103.866 185.409C104.089 185.485 104.323 185.523 104.57 185.523C104.754 185.523 104.906 185.513 105.024 185.494C105.143 185.471 105.237 185.452 105.308 185.438L105.649 186.943C105.536 186.986 105.377 187.028 105.173 187.071C104.97 187.118 104.712 187.142 104.399 187.142C103.926 187.142 103.462 187.04 103.007 186.837C102.557 186.633 102.183 186.323 101.885 185.906C101.591 185.49 101.445 184.964 101.445 184.33V173.477ZM112.428 187.227C111.377 187.227 110.47 186.995 109.708 186.531C108.951 186.062 108.366 185.409 107.954 184.571C107.547 183.728 107.343 182.748 107.343 181.631C107.343 180.513 107.547 179.528 107.954 178.676C108.366 177.819 108.939 177.152 109.673 176.673C110.411 176.19 111.273 175.949 112.258 175.949C112.826 175.949 113.387 176.044 113.941 176.233C114.495 176.422 114.999 176.73 115.454 177.156C115.908 177.578 116.271 178.136 116.54 178.832C116.81 179.528 116.945 180.385 116.945 181.403V182.114H108.536V180.665H115.241C115.241 180.049 115.118 179.5 114.871 179.017C114.63 178.534 114.284 178.153 113.835 177.874C113.389 177.594 112.864 177.455 112.258 177.455C111.59 177.455 111.013 177.62 110.525 177.952C110.042 178.278 109.67 178.705 109.41 179.23C109.149 179.756 109.019 180.319 109.019 180.92V181.886C109.019 182.71 109.161 183.409 109.445 183.982C109.734 184.55 110.134 184.983 110.646 185.281C111.157 185.575 111.751 185.722 112.428 185.722C112.869 185.722 113.266 185.66 113.621 185.537C113.981 185.409 114.291 185.22 114.552 184.969C114.812 184.713 115.013 184.396 115.156 184.017L116.775 184.472C116.604 185.021 116.318 185.504 115.915 185.92C115.513 186.332 115.016 186.654 114.424 186.886C113.832 187.114 113.167 187.227 112.428 187.227ZM123.614 187.227C122.705 187.227 121.903 186.998 121.207 186.538C120.511 186.074 119.966 185.421 119.573 184.578C119.18 183.731 118.984 182.729 118.984 181.574C118.984 180.428 119.18 179.434 119.573 178.591C119.966 177.748 120.513 177.097 121.214 176.638C121.915 176.179 122.724 175.949 123.643 175.949C124.353 175.949 124.914 176.067 125.326 176.304C125.743 176.536 126.06 176.801 126.278 177.099C126.5 177.393 126.673 177.634 126.796 177.824H126.938V172.455H128.614V187H126.995V185.324H126.796C126.673 185.523 126.498 185.774 126.271 186.077C126.043 186.375 125.719 186.643 125.298 186.879C124.876 187.111 124.315 187.227 123.614 187.227ZM123.842 185.722C124.514 185.722 125.082 185.546 125.546 185.196C126.01 184.841 126.363 184.351 126.604 183.726C126.846 183.096 126.967 182.369 126.967 181.545C126.967 180.731 126.848 180.018 126.612 179.408C126.375 178.792 126.024 178.314 125.56 177.973C125.096 177.627 124.523 177.455 123.842 177.455C123.131 177.455 122.54 177.637 122.066 178.001C121.597 178.361 121.245 178.851 121.008 179.472C120.776 180.087 120.66 180.778 120.66 181.545C120.66 182.322 120.778 183.027 121.015 183.662C121.256 184.292 121.612 184.794 122.08 185.168C122.554 185.537 123.141 185.722 123.842 185.722Z" fill="#738287"/>
<path d="M480.761 43V28.4545H482.523V34.9318H490.278V28.4545H492.04V43H490.278V36.4943H482.523V43H480.761ZM499.771 43.2273C498.786 43.2273 497.922 42.9929 497.178 42.5241C496.44 42.0554 495.862 41.3996 495.445 40.5568C495.033 39.714 494.827 38.7292 494.827 37.6023C494.827 36.4659 495.033 35.474 495.445 34.6264C495.862 33.7789 496.44 33.1207 497.178 32.652C497.922 32.1832 498.786 31.9489 499.771 31.9489C500.755 31.9489 501.617 32.1832 502.356 32.652C503.099 33.1207 503.677 33.7789 504.089 34.6264C504.505 35.474 504.714 36.4659 504.714 37.6023C504.714 38.7292 504.505 39.714 504.089 40.5568C503.677 41.3996 503.099 42.0554 502.356 42.5241C501.617 42.9929 500.755 43.2273 499.771 43.2273ZM499.771 41.7216C500.519 41.7216 501.134 41.5298 501.617 41.1463C502.1 40.7628 502.458 40.2585 502.69 39.6335C502.922 39.0085 503.038 38.3314 503.038 37.6023C503.038 36.8731 502.922 36.1937 502.69 35.5639C502.458 34.9342 502.1 34.4252 501.617 34.0369C501.134 33.6487 500.519 33.4545 499.771 33.4545C499.022 33.4545 498.407 33.6487 497.924 34.0369C497.441 34.4252 497.084 34.9342 496.852 35.5639C496.62 36.1937 496.504 36.8731 496.504 37.6023C496.504 38.3314 496.62 39.0085 496.852 39.6335C497.084 40.2585 497.441 40.7628 497.924 41.1463C498.407 41.5298 499.022 41.7216 499.771 41.7216ZM515.802 32.0909L511.768 43H510.064L506.029 32.0909H507.848L510.859 40.7841H510.973L513.984 32.0909H515.802ZM522.198 43.2273C521.147 43.2273 520.24 42.9953 519.478 42.5312C518.72 42.0625 518.135 41.4091 517.723 40.571C517.316 39.7282 517.113 38.7481 517.113 37.6307C517.113 36.5133 517.316 35.5284 517.723 34.6761C518.135 33.8191 518.708 33.1515 519.442 32.6733C520.181 32.1903 521.042 31.9489 522.027 31.9489C522.596 31.9489 523.157 32.0436 523.711 32.233C524.265 32.4223 524.769 32.7301 525.223 33.1562C525.678 33.5777 526.04 34.1364 526.31 34.8324C526.58 35.5284 526.715 36.3854 526.715 37.4034V38.1136H518.306V36.6648H525.01C525.01 36.0492 524.887 35.5 524.641 35.017C524.4 34.5341 524.054 34.1529 523.604 33.8736C523.159 33.5942 522.633 33.4545 522.027 33.4545C521.36 33.4545 520.782 33.6203 520.294 33.9517C519.811 34.2784 519.44 34.7045 519.179 35.2301C518.919 35.7557 518.789 36.3191 518.789 36.9205V37.8864C518.789 38.7102 518.931 39.4086 519.215 39.9815C519.504 40.5497 519.904 40.983 520.415 41.2812C520.926 41.5748 521.521 41.7216 522.198 41.7216C522.638 41.7216 523.036 41.66 523.391 41.5369C523.751 41.4091 524.061 41.2197 524.321 40.9688C524.582 40.7131 524.783 40.3958 524.925 40.017L526.544 40.4716C526.374 41.0208 526.087 41.5038 525.685 41.9205C525.283 42.3324 524.785 42.6544 524.194 42.8864C523.602 43.1136 522.936 43.2273 522.198 43.2273ZM529.265 43V32.0909H530.884V33.7386H530.998C531.196 33.1989 531.556 32.7609 532.077 32.4247C532.598 32.0885 533.185 31.9205 533.838 31.9205C533.962 31.9205 534.115 31.9228 534.3 31.9276C534.485 31.9323 534.624 31.9394 534.719 31.9489V33.6534C534.662 33.6392 534.532 33.6179 534.328 33.5895C534.13 33.5563 533.919 33.5398 533.696 33.5398C533.166 33.5398 532.693 33.651 532.276 33.8736C531.864 34.0914 531.537 34.3944 531.296 34.7827C531.059 35.1662 530.941 35.6042 530.941 36.0966V43H529.265Z" fill="#738287"/>
<path d="M773.25 43H768.761V28.4545H773.449C774.86 28.4545 776.067 28.7457 777.071 29.3281C778.075 29.9058 778.844 30.7367 779.379 31.821C779.914 32.9006 780.182 34.1932 780.182 35.6989C780.182 37.214 779.912 38.5185 779.372 39.6122C778.832 40.7012 778.046 41.5393 777.014 42.1264C775.982 42.7088 774.727 43 773.25 43ZM770.523 41.4375H773.136C774.339 41.4375 775.336 41.2055 776.126 40.7415C776.917 40.2775 777.507 39.617 777.895 38.7599C778.283 37.9029 778.477 36.8826 778.477 35.6989C778.477 34.5246 778.286 33.5137 777.902 32.6662C777.518 31.8139 776.946 31.1605 776.183 30.706C775.421 30.2467 774.472 30.017 773.335 30.017H770.523V41.4375ZM782.909 43V32.0909H784.585V43H782.909ZM783.761 30.2727C783.435 30.2727 783.153 30.1615 782.916 29.9389C782.684 29.7164 782.568 29.4489 782.568 29.1364C782.568 28.8239 782.684 28.5563 782.916 28.3338C783.153 28.1113 783.435 28 783.761 28C784.088 28 784.367 28.1113 784.599 28.3338C784.836 28.5563 784.955 28.8239 784.955 29.1364C784.955 29.4489 784.836 29.7164 784.599 29.9389C784.367 30.1615 784.088 30.2727 783.761 30.2727ZM795.382 34.5341L793.877 34.9602C793.782 34.7093 793.642 34.4654 793.458 34.2287C793.278 33.9872 793.032 33.7884 792.719 33.6321C792.407 33.4759 792.007 33.3977 791.519 33.3977C790.851 33.3977 790.295 33.5516 789.85 33.8594C789.409 34.1624 789.189 34.5483 789.189 35.017C789.189 35.4337 789.341 35.7628 789.644 36.0043C789.947 36.2457 790.42 36.447 791.064 36.608L792.684 37.0057C793.659 37.2424 794.386 37.6046 794.864 38.0923C795.342 38.5753 795.581 39.1979 795.581 39.9602C795.581 40.5852 795.401 41.1439 795.042 41.6364C794.686 42.1288 794.189 42.517 793.55 42.8011C792.911 43.0852 792.167 43.2273 791.32 43.2273C790.207 43.2273 789.286 42.9858 788.557 42.5028C787.828 42.0199 787.366 41.3144 787.172 40.3864L788.763 39.9886C788.915 40.5758 789.201 41.0161 789.623 41.3097C790.049 41.6032 790.605 41.75 791.292 41.75C792.073 41.75 792.693 41.5843 793.152 41.2528C793.616 40.9167 793.848 40.5142 793.848 40.0455C793.848 39.6667 793.716 39.3494 793.451 39.0938C793.185 38.8333 792.778 38.6392 792.229 38.5114L790.411 38.0852C789.412 37.8485 788.678 37.4815 788.209 36.9844C787.745 36.4825 787.513 35.8551 787.513 35.1023C787.513 34.4867 787.686 33.9422 788.032 33.4688C788.382 32.9953 788.858 32.6236 789.459 32.3537C790.065 32.0838 790.752 31.9489 791.519 31.9489C792.598 31.9489 793.446 32.1856 794.061 32.6591C794.682 33.1326 795.122 33.7576 795.382 34.5341ZM801.315 43.2557C800.623 43.2557 799.996 43.1255 799.433 42.8651C798.869 42.5999 798.422 42.2188 798.09 41.7216C797.759 41.2197 797.593 40.6136 797.593 39.9034C797.593 39.2784 797.716 38.7718 797.962 38.3835C798.209 37.9905 798.538 37.6828 798.95 37.4602C799.362 37.2377 799.816 37.072 800.313 36.9631C800.815 36.8494 801.319 36.7595 801.826 36.6932C802.489 36.608 803.026 36.544 803.438 36.5014C803.855 36.4541 804.158 36.3759 804.347 36.267C804.541 36.1581 804.638 35.9687 804.638 35.6989V35.642C804.638 34.9413 804.447 34.3968 804.063 34.0085C803.684 33.6203 803.109 33.4261 802.337 33.4261C801.537 33.4261 800.91 33.6013 800.455 33.9517C800.001 34.3021 799.681 34.6761 799.496 35.0739L797.906 34.5057C798.19 33.8428 798.568 33.3267 799.042 32.9574C799.52 32.5833 800.041 32.3229 800.604 32.1761C801.173 32.0246 801.731 31.9489 802.281 31.9489C802.631 31.9489 803.033 31.9915 803.488 32.0767C803.947 32.1572 804.39 32.3253 804.816 32.581C805.247 32.8366 805.604 33.2225 805.888 33.7386C806.173 34.2547 806.315 34.946 806.315 35.8125V43H804.638V41.5227H804.553C804.44 41.7595 804.25 42.0128 803.985 42.2827C803.72 42.5526 803.367 42.7822 802.927 42.9716C802.487 43.161 801.949 43.2557 801.315 43.2557ZM801.57 41.75C802.233 41.75 802.792 41.6198 803.246 41.3594C803.706 41.099 804.051 40.7628 804.283 40.3509C804.52 39.9389 804.638 39.5057 804.638 39.0511V37.517C804.567 37.6023 804.411 37.6804 804.17 37.7514C803.933 37.8177 803.658 37.8769 803.346 37.929C803.038 37.9763 802.737 38.0189 802.444 38.0568C802.155 38.09 801.921 38.1184 801.741 38.142C801.305 38.1989 800.898 38.2912 800.519 38.419C800.145 38.5421 799.842 38.7292 799.61 38.9801C799.383 39.2263 799.269 39.5625 799.269 39.9886C799.269 40.571 799.485 41.0114 799.915 41.3097C800.351 41.6032 800.903 41.75 801.57 41.75ZM809.601 43V28.4545H811.277V33.8239H811.419C811.542 33.6345 811.713 33.393 811.931 33.0994C812.153 32.8011 812.471 32.536 812.882 32.304C813.299 32.0672 813.863 31.9489 814.573 31.9489C815.491 31.9489 816.301 32.1785 817.002 32.6378C817.703 33.0971 818.249 33.7481 818.642 34.5909C819.035 35.4337 819.232 36.428 819.232 37.5739C819.232 38.7292 819.035 39.7306 818.642 40.5781C818.249 41.4209 817.705 42.0743 817.009 42.5384C816.313 42.9976 815.51 43.2273 814.601 43.2273C813.9 43.2273 813.339 43.1113 812.918 42.8793C812.497 42.6425 812.172 42.375 811.945 42.0767C811.718 41.7737 811.542 41.5227 811.419 41.3239H811.221V43H809.601ZM811.249 37.5455C811.249 38.3693 811.37 39.0961 811.611 39.7259C811.853 40.3509 812.205 40.8409 812.669 41.196C813.133 41.5464 813.702 41.7216 814.374 41.7216C815.075 41.7216 815.659 41.5369 816.128 41.1676C816.602 40.7936 816.957 40.2917 817.194 39.6619C817.435 39.0275 817.556 38.322 817.556 37.5455C817.556 36.7784 817.437 36.0871 817.201 35.4716C816.969 34.8513 816.616 34.3613 816.142 34.0014C815.674 33.6368 815.084 33.4545 814.374 33.4545C813.692 33.4545 813.119 33.6274 812.655 33.973C812.191 34.3139 811.841 34.7921 811.604 35.4077C811.367 36.0185 811.249 36.7311 811.249 37.5455ZM823.472 28.4545V43H821.796V28.4545H823.472ZM831.116 43.2273C830.065 43.2273 829.158 42.9953 828.396 42.5312C827.638 42.0625 827.053 41.4091 826.641 40.571C826.234 39.7282 826.031 38.7481 826.031 37.6307C826.031 36.5133 826.234 35.5284 826.641 34.6761C827.053 33.8191 827.626 33.1515 828.36 32.6733C829.099 32.1903 829.96 31.9489 830.945 31.9489C831.513 31.9489 832.075 32.0436 832.629 32.233C833.183 32.4223 833.687 32.7301 834.141 33.1562C834.596 33.5777 834.958 34.1364 835.228 34.8324C835.498 35.5284 835.633 36.3854 835.633 37.4034V38.1136H827.224V36.6648H833.928C833.928 36.0492 833.805 35.5 833.559 35.017C833.317 34.5341 832.972 34.1529 832.522 33.8736C832.077 33.5942 831.551 33.4545 830.945 33.4545C830.278 33.4545 829.7 33.6203 829.212 33.9517C828.729 34.2784 828.358 34.7045 828.097 35.2301C827.837 35.7557 827.707 36.3191 827.707 36.9205V37.8864C827.707 38.7102 827.849 39.4086 828.133 39.9815C828.422 40.5497 828.822 40.983 829.333 41.2812C829.844 41.5748 830.439 41.7216 831.116 41.7216C831.556 41.7216 831.954 41.66 832.309 41.5369C832.669 41.4091 832.979 41.2197 833.239 40.9688C833.5 40.7131 833.701 40.3958 833.843 40.017L835.462 40.4716C835.292 41.0208 835.005 41.5038 834.603 41.9205C834.201 42.3324 833.703 42.6544 833.112 42.8864C832.52 43.1136 831.854 43.2273 831.116 43.2273ZM842.302 43.2273C841.393 43.2273 840.59 42.9976 839.894 42.5384C839.198 42.0743 838.654 41.4209 838.261 40.5781C837.868 39.7306 837.671 38.7292 837.671 37.5739C837.671 36.428 837.868 35.4337 838.261 34.5909C838.654 33.7481 839.201 33.0971 839.901 32.6378C840.602 32.1785 841.412 31.9489 842.33 31.9489C843.04 31.9489 843.602 32.0672 844.013 32.304C844.43 32.536 844.747 32.8011 844.965 33.0994C845.188 33.393 845.361 33.6345 845.484 33.8239H845.626V28.4545H847.302V43H845.683V41.3239H845.484C845.361 41.5227 845.185 41.7737 844.958 42.0767C844.731 42.375 844.406 42.6425 843.985 42.8793C843.564 43.1113 843.003 43.2273 842.302 43.2273ZM842.529 41.7216C843.201 41.7216 843.77 41.5464 844.234 41.196C844.698 40.8409 845.05 40.3509 845.292 39.7259C845.533 39.0961 845.654 38.3693 845.654 37.5455C845.654 36.7311 845.536 36.0185 845.299 35.4077C845.062 34.7921 844.712 34.3139 844.248 33.973C843.784 33.6274 843.211 33.4545 842.529 33.4545C841.819 33.4545 841.227 33.6368 840.754 34.0014C840.285 34.3613 839.932 34.8513 839.695 35.4716C839.463 36.0871 839.347 36.7784 839.347 37.5455C839.347 38.322 839.466 39.0275 839.702 39.6619C839.944 40.2917 840.299 40.7936 840.768 41.1676C841.241 41.5369 841.828 41.7216 842.529 41.7216Z" fill="#738287"/>
<line y1="71.25" x2="1128" y2="71.25" stroke="#738287" stroke-width="1.5"/>
<line x1="167.75" y1="1.57965e-10" x2="167.75" y2="216" stroke="#738287" stroke-width="1.5"/>
<defs>
<clipPath id="clip0_550_970">
<rect width="24" height="24" fill="white" transform="translate(191 96)"/>
</clipPath>
<clipPath id="clip1_550_970">
<rect width="24" height="24" fill="white" transform="translate(191 168)"/>
</clipPath>
<clipPath id="clip2_550_970">
<rect width="24" height="24" fill="white" transform="translate(478 97)"/>
</clipPath>
<clipPath id="clip3_550_970">
<rect width="24" height="24" fill="white" transform="translate(478 168)"/>
</clipPath>
<clipPath id="clip4_550_970">
<rect width="24" height="24" fill="white" transform="translate(766 97)"/>
</clipPath>
<clipPath id="clip5_550_970">
<rect width="24" height="24" fill="white" transform="translate(766 168)"/>
</clipPath>
</defs>
</svg>
