<svg width="552" height="552" viewBox="0 0 552 552" fill="none" xmlns="http://www.w3.org/2000/svg">
<rect width="552" height="552" fill="#F2F6F9"/>
<g clip-path="url(#clip0_550_895)">
<rect x="209.75" y="239.607" width="20.5" height="20.5" fill="#058C50" stroke="#058C50" stroke-width="1.5"/>
<path d="M228.985 245.235L218.38 255.842L212.016 249.478L213.43 248.064L218.38 253.014L227.572 243.821L228.985 245.235Z" fill="white"/>
</g>
<path d="M249.761 256.857V242.312H254.847C255.86 242.312 256.696 242.487 257.354 242.838C258.012 243.183 258.502 243.65 258.824 244.237C259.146 244.819 259.307 245.465 259.307 246.176C259.307 246.801 259.196 247.317 258.973 247.724C258.755 248.131 258.466 248.453 258.107 248.69C257.751 248.927 257.366 249.102 256.949 249.215V249.357C257.394 249.386 257.841 249.542 258.291 249.826C258.741 250.11 259.117 250.517 259.42 251.048C259.723 251.578 259.875 252.227 259.875 252.994C259.875 253.723 259.709 254.379 259.378 254.961C259.046 255.544 258.523 256.005 257.808 256.346C257.093 256.687 256.163 256.857 255.017 256.857H249.761ZM251.523 255.295H255.017C256.168 255.295 256.984 255.072 257.467 254.627C257.955 254.177 258.199 253.633 258.199 252.994C258.199 252.501 258.073 252.047 257.822 251.63C257.571 251.209 257.214 250.873 256.75 250.622C256.286 250.366 255.737 250.238 255.102 250.238H251.523V255.295ZM251.523 248.704H254.79C255.32 248.704 255.798 248.6 256.224 248.392C256.655 248.183 256.996 247.89 257.247 247.511C257.503 247.132 257.631 246.687 257.631 246.176C257.631 245.536 257.408 244.994 256.963 244.549C256.518 244.099 255.813 243.874 254.847 243.874H251.523V248.704ZM263.991 249.897H267.116C268.394 249.897 269.372 250.222 270.049 250.87C270.726 251.519 271.065 252.34 271.065 253.335C271.065 253.988 270.913 254.582 270.61 255.117C270.307 255.648 269.862 256.071 269.275 256.389C268.688 256.701 267.968 256.857 267.116 256.857H262.542V245.948H264.218V255.295H267.116C267.779 255.295 268.323 255.12 268.749 254.769C269.175 254.419 269.388 253.969 269.388 253.42C269.388 252.842 269.175 252.371 268.749 252.007C268.323 251.642 267.779 251.46 267.116 251.46H263.991V249.897ZM272.798 256.857V245.948H274.474V256.857H272.798ZM281.974 257.085C280.951 257.085 280.07 256.843 279.332 256.36C278.593 255.877 278.025 255.212 277.627 254.365C277.229 253.517 277.031 252.549 277.031 251.46C277.031 250.352 277.234 249.374 277.641 248.526C278.053 247.674 278.626 247.009 279.36 246.531C280.099 246.048 280.96 245.806 281.945 245.806C282.712 245.806 283.404 245.948 284.019 246.232C284.635 246.517 285.139 246.914 285.532 247.426C285.925 247.937 286.169 248.534 286.263 249.215H284.587C284.46 248.718 284.175 248.278 283.735 247.894C283.299 247.506 282.712 247.312 281.974 247.312C281.32 247.312 280.747 247.482 280.255 247.823C279.767 248.16 279.386 248.635 279.112 249.251C278.842 249.862 278.707 250.579 278.707 251.403C278.707 252.246 278.839 252.98 279.104 253.605C279.374 254.23 279.753 254.715 280.241 255.061C280.733 255.406 281.311 255.579 281.974 255.579C282.409 255.579 282.805 255.503 283.16 255.352C283.515 255.2 283.816 254.982 284.062 254.698C284.308 254.414 284.483 254.073 284.587 253.676H286.263C286.169 254.32 285.934 254.9 285.56 255.416C285.191 255.927 284.701 256.334 284.09 256.637C283.484 256.936 282.779 257.085 281.974 257.085ZM287.854 247.511V245.948H296.718V247.511H293.138V256.857H291.462V247.511H287.854ZM301.807 257.113C301.116 257.113 300.488 256.983 299.925 256.722C299.361 256.457 298.914 256.076 298.582 255.579C298.251 255.077 298.085 254.471 298.085 253.761C298.085 253.136 298.208 252.629 298.455 252.241C298.701 251.848 299.03 251.54 299.442 251.318C299.854 251.095 300.308 250.929 300.805 250.82C301.307 250.707 301.812 250.617 302.318 250.551C302.981 250.465 303.518 250.401 303.93 250.359C304.347 250.311 304.65 250.233 304.839 250.124C305.034 250.016 305.131 249.826 305.131 249.556V249.499C305.131 248.799 304.939 248.254 304.555 247.866C304.177 247.478 303.601 247.284 302.83 247.284C302.029 247.284 301.402 247.459 300.947 247.809C300.493 248.16 300.173 248.534 299.989 248.931L298.398 248.363C298.682 247.7 299.061 247.184 299.534 246.815C300.012 246.441 300.533 246.18 301.097 246.034C301.665 245.882 302.223 245.806 302.773 245.806C303.123 245.806 303.526 245.849 303.98 245.934C304.439 246.015 304.882 246.183 305.308 246.438C305.739 246.694 306.097 247.08 306.381 247.596C306.665 248.112 306.807 248.803 306.807 249.67V256.857H305.131V255.38H305.045C304.932 255.617 304.742 255.87 304.477 256.14C304.212 256.41 303.859 256.64 303.419 256.829C302.979 257.018 302.441 257.113 301.807 257.113ZM302.062 255.607C302.725 255.607 303.284 255.477 303.739 255.217C304.198 254.956 304.544 254.62 304.776 254.208C305.012 253.796 305.131 253.363 305.131 252.909V251.374C305.06 251.46 304.903 251.538 304.662 251.609C304.425 251.675 304.151 251.734 303.838 251.786C303.53 251.834 303.23 251.876 302.936 251.914C302.647 251.947 302.413 251.976 302.233 251.999C301.797 252.056 301.39 252.149 301.011 252.276C300.637 252.4 300.334 252.587 300.102 252.838C299.875 253.084 299.761 253.42 299.761 253.846C299.761 254.428 299.977 254.869 300.408 255.167C300.843 255.461 301.395 255.607 302.062 255.607ZM309.866 256.857V245.948H314.326C315.501 245.948 316.433 246.213 317.125 246.744C317.816 247.274 318.162 247.975 318.162 248.846C318.162 249.509 317.965 250.023 317.572 250.387C317.179 250.747 316.675 250.991 316.059 251.119C316.462 251.176 316.852 251.318 317.231 251.545C317.615 251.772 317.932 252.085 318.183 252.482C318.434 252.875 318.559 253.358 318.559 253.931C318.559 254.49 318.417 254.99 318.133 255.43C317.849 255.87 317.442 256.218 316.912 256.474C316.381 256.73 315.747 256.857 315.008 256.857H309.866ZM311.457 255.323H315.008C315.586 255.323 316.038 255.186 316.365 254.911C316.691 254.637 316.855 254.263 316.855 253.789C316.855 253.226 316.691 252.783 316.365 252.461C316.038 252.134 315.586 251.971 315.008 251.971H311.457V255.323ZM311.457 250.522H314.326C314.776 250.522 315.162 250.461 315.484 250.338C315.806 250.21 316.052 250.03 316.223 249.798C316.398 249.561 316.485 249.282 316.485 248.96C316.485 248.5 316.294 248.141 315.91 247.88C315.527 247.615 314.999 247.482 314.326 247.482H311.457V250.522ZM321.097 256.857V245.948H322.773V250.693H323.881L327.801 245.948H329.96L325.557 251.204L330.017 256.857H327.858L324.278 252.255H322.773V256.857H321.097ZM333.515 254.386L338.771 245.948H340.702V256.857H339.026V248.42L333.799 256.857H331.839V245.948H333.515V254.386Z" fill="#0A2832"/>
<g clip-path="url(#clip1_550_895)">
<rect x="209.75" y="291.465" width="20.5" height="20.5" fill="#058C50" stroke="#058C50" stroke-width="1.5"/>
<path d="M228.985 297.093L218.38 307.7L212.016 301.336L213.43 299.922L218.38 304.872L227.572 295.679L228.985 297.093Z" fill="white"/>
</g>
<path d="M258.312 308.715L253.312 302.039H251.523V308.715H249.761V294.169H251.523V300.476H252.29L258.114 294.169H260.216L254.335 300.561L260.415 308.715H258.312ZM266.095 308.942C265.11 308.942 264.246 308.708 263.502 308.239C262.764 307.77 262.186 307.114 261.77 306.272C261.358 305.429 261.152 304.444 261.152 303.317C261.152 302.181 261.358 301.189 261.77 300.341C262.186 299.494 262.764 298.836 263.502 298.367C264.246 297.898 265.11 297.664 266.095 297.664C267.08 297.664 267.941 297.898 268.68 298.367C269.423 298.836 270.001 299.494 270.413 300.341C270.83 301.189 271.038 302.181 271.038 303.317C271.038 304.444 270.83 305.429 270.413 306.272C270.001 307.114 269.423 307.77 268.68 308.239C267.941 308.708 267.08 308.942 266.095 308.942ZM266.095 307.436C266.843 307.436 267.458 307.245 267.941 306.861C268.424 306.478 268.782 305.973 269.014 305.348C269.246 304.723 269.362 304.046 269.362 303.317C269.362 302.588 269.246 301.908 269.014 301.279C268.782 300.649 268.424 300.14 267.941 299.752C267.458 299.364 266.843 299.169 266.095 299.169C265.347 299.169 264.731 299.364 264.248 299.752C263.765 300.14 263.408 300.649 263.176 301.279C262.944 301.908 262.828 302.588 262.828 303.317C262.828 304.046 262.944 304.723 263.176 305.348C263.408 305.973 263.765 306.478 264.248 306.861C264.731 307.245 265.347 307.436 266.095 307.436ZM280.898 302.493V304.056H274.875V302.493H280.898ZM275.273 297.806V308.715H273.597V297.806H275.273ZM282.176 297.806V308.715H280.5V297.806H282.176ZM293.817 297.806V307.152H295.351V312.238H293.675V308.715H285.237V297.806H286.913V307.152H292.141V297.806H293.817ZM302.389 308.942C301.338 308.942 300.431 308.71 299.669 308.246C298.911 307.777 298.327 307.124 297.915 306.286C297.508 305.443 297.304 304.463 297.304 303.346C297.304 302.228 297.508 301.243 297.915 300.391C298.327 299.534 298.9 298.866 299.634 298.388C300.372 297.905 301.234 297.664 302.219 297.664C302.787 297.664 303.348 297.758 303.902 297.948C304.456 298.137 304.96 298.445 305.415 298.871C305.869 299.292 306.232 299.851 306.501 300.547C306.771 301.243 306.906 302.1 306.906 303.118V303.828H298.497V302.38H305.202C305.202 301.764 305.079 301.215 304.832 300.732C304.591 300.249 304.245 299.868 303.795 299.588C303.35 299.309 302.825 299.169 302.219 299.169C301.551 299.169 300.973 299.335 300.486 299.667C300.003 299.993 299.631 300.419 299.371 300.945C299.11 301.471 298.98 302.034 298.98 302.635V303.601C298.98 304.425 299.122 305.123 299.406 305.696C299.695 306.265 300.095 306.698 300.607 306.996C301.118 307.29 301.712 307.436 302.389 307.436C302.83 307.436 303.227 307.375 303.582 307.252C303.942 307.124 304.252 306.935 304.513 306.684C304.773 306.428 304.974 306.111 305.116 305.732L306.736 306.186C306.565 306.736 306.279 307.219 305.876 307.635C305.474 308.047 304.977 308.369 304.385 308.601C303.793 308.828 303.128 308.942 302.389 308.942ZM309.456 312.806V297.806H311.075V299.539H311.274C311.397 299.349 311.568 299.108 311.786 298.814C312.008 298.516 312.325 298.251 312.737 298.019C313.154 297.782 313.717 297.664 314.428 297.664C315.346 297.664 316.156 297.893 316.857 298.353C317.557 298.812 318.104 299.463 318.497 300.306C318.89 301.149 319.087 302.143 319.087 303.289C319.087 304.444 318.89 305.445 318.497 306.293C318.104 307.136 317.56 307.789 316.864 308.253C316.168 308.712 315.365 308.942 314.456 308.942C313.755 308.942 313.194 308.826 312.773 308.594C312.351 308.357 312.027 308.09 311.8 307.792C311.572 307.489 311.397 307.238 311.274 307.039H311.132V312.806H309.456ZM311.104 303.26C311.104 304.084 311.224 304.811 311.466 305.441C311.707 306.066 312.06 306.556 312.524 306.911C312.988 307.261 313.556 307.436 314.229 307.436C314.929 307.436 315.514 307.252 315.983 306.882C316.456 306.508 316.812 306.007 317.048 305.377C317.29 304.742 317.411 304.037 317.411 303.26C317.411 302.493 317.292 301.802 317.055 301.186C316.823 300.566 316.471 300.076 315.997 299.716C315.528 299.352 314.939 299.169 314.229 299.169C313.547 299.169 312.974 299.342 312.51 299.688C312.046 300.029 311.696 300.507 311.459 301.123C311.222 301.733 311.104 302.446 311.104 303.26ZM320.218 299.368V297.806H329.081V299.368H325.502V308.715H323.826V299.368H320.218ZM332.975 301.755H336.1C337.379 301.755 338.356 302.079 339.033 302.728C339.71 303.376 340.049 304.198 340.049 305.192C340.049 305.846 339.897 306.44 339.594 306.975C339.291 307.505 338.846 307.929 338.259 308.246C337.672 308.559 336.952 308.715 336.1 308.715H331.526V297.806H333.202V307.152H336.1C336.763 307.152 337.308 306.977 337.734 306.627C338.16 306.276 338.373 305.827 338.373 305.277C338.373 304.7 338.16 304.229 337.734 303.864C337.308 303.499 336.763 303.317 336.1 303.317H332.975V301.755ZM341.782 308.715V297.806H343.458V308.715H341.782Z" fill="#0A2832"/>
<g clip-path="url(#clip2_550_895)">
<rect x="209.75" y="343.321" width="20.5" height="20.5" fill="#058C50" stroke="#058C50" stroke-width="1.5"/>
<path d="M228.985 348.949L218.38 359.556L212.016 353.192L213.43 351.778L218.38 356.728L227.572 347.535L228.985 348.949Z" fill="white"/>
</g>
<path d="M248.511 360.571V358.952H248.938C249.544 358.952 250.015 358.758 250.351 358.37C250.687 357.981 250.929 357.354 251.075 356.487C251.227 355.621 251.329 354.473 251.381 353.043L251.636 346.026H260.5V360.571H258.739V347.588H253.312L253.085 353.384C253.028 354.908 252.889 356.206 252.666 357.276C252.444 358.346 252.053 359.163 251.494 359.726C250.936 360.29 250.121 360.571 249.051 360.571H248.511ZM268.366 360.799C267.315 360.799 266.408 360.567 265.646 360.103C264.888 359.634 264.303 358.98 263.891 358.142C263.484 357.3 263.281 356.319 263.281 355.202C263.281 354.085 263.484 353.1 263.891 352.247C264.303 351.39 264.876 350.723 265.61 350.245C266.349 349.762 267.21 349.52 268.195 349.52C268.763 349.52 269.325 349.615 269.879 349.804C270.433 349.994 270.937 350.301 271.391 350.728C271.846 351.149 272.208 351.708 272.478 352.404C272.748 353.1 272.883 353.957 272.883 354.975V355.685H264.474V354.236H271.178C271.178 353.621 271.055 353.071 270.809 352.588C270.567 352.105 270.222 351.724 269.772 351.445C269.327 351.166 268.801 351.026 268.195 351.026C267.528 351.026 266.95 351.192 266.462 351.523C265.979 351.85 265.608 352.276 265.347 352.801C265.087 353.327 264.957 353.89 264.957 354.492V355.458C264.957 356.282 265.099 356.98 265.383 357.553C265.672 358.121 266.072 358.554 266.583 358.853C267.094 359.146 267.689 359.293 268.366 359.293C268.806 359.293 269.204 359.231 269.559 359.108C269.919 358.98 270.229 358.791 270.489 358.54C270.75 358.284 270.951 357.967 271.093 357.588L272.712 358.043C272.542 358.592 272.255 359.075 271.853 359.492C271.451 359.904 270.953 360.226 270.362 360.458C269.77 360.685 269.104 360.799 268.366 360.799ZM275.433 360.571V349.662H277.109V354.407H278.217L282.137 349.662H284.296L279.893 354.918L284.353 360.571H282.194L278.614 355.969H277.109V360.571H275.433ZM294.754 349.662V359.009H296.288V364.094H294.612V360.571H286.175V349.662H287.851V359.009H293.078V349.662H294.754ZM300.546 358.1L305.802 349.662H307.734V360.571H306.058V352.134L300.83 360.571H298.87V349.662H300.546V358.1ZM312.48 358.1L317.735 349.662H319.667V360.571H317.991V352.134L312.764 360.571H310.804V349.662H312.48V358.1Z" fill="#0A2832"/>
<path d="M208.881 194.344V192.455H220.138V194.344H215.599V207H213.412V194.344H208.881ZM223.403 204.024L228.211 196.091H230.498V207H228.417V199.06L223.63 207H221.322V196.091H223.403V204.024ZM233.353 207V196.091H242.252V207H240.172V197.923H235.42V207H233.353ZM256.507 204.372L260.029 196.091H261.862L257.295 207H255.718L251.244 196.091H253.055L256.507 204.372ZM252.466 196.091V207H250.385V196.091H252.466ZM260.605 207V196.091H262.672V207H260.605ZM270.203 207.22C269.129 207.22 268.203 206.991 267.426 206.531C266.655 206.067 266.058 205.416 265.637 204.578C265.22 203.735 265.012 202.748 265.012 201.616C265.012 200.499 265.22 199.514 265.637 198.662C266.058 197.81 266.645 197.144 267.398 196.666C268.156 196.188 269.041 195.949 270.054 195.949C270.67 195.949 271.266 196.051 271.844 196.254C272.422 196.458 272.94 196.777 273.4 197.213C273.859 197.649 274.221 198.214 274.486 198.911C274.751 199.602 274.884 200.442 274.884 201.432V202.185H266.212V200.594H272.803C272.803 200.035 272.689 199.54 272.462 199.109C272.235 198.674 271.915 198.33 271.503 198.08C271.096 197.829 270.618 197.703 270.069 197.703C269.472 197.703 268.951 197.85 268.506 198.143C268.066 198.432 267.725 198.811 267.483 199.28C267.247 199.744 267.128 200.248 267.128 200.793V202.036C267.128 202.765 267.256 203.385 267.512 203.896C267.772 204.408 268.134 204.798 268.598 205.068C269.062 205.333 269.605 205.466 270.225 205.466C270.627 205.466 270.994 205.409 271.326 205.295C271.657 205.177 271.944 205.002 272.185 204.77C272.426 204.538 272.611 204.251 272.739 203.911L274.749 204.273C274.588 204.865 274.299 205.383 273.882 205.828C273.471 206.268 272.952 206.612 272.327 206.858C271.707 207.099 270.999 207.22 270.203 207.22ZM277.24 211.091V196.091H279.314V197.859H279.491C279.615 197.632 279.792 197.369 280.024 197.071C280.256 196.773 280.578 196.512 280.99 196.29C281.402 196.062 281.946 195.949 282.624 195.949C283.504 195.949 284.29 196.171 284.982 196.616C285.673 197.062 286.215 197.703 286.608 198.541C287.006 199.379 287.205 200.388 287.205 201.567C287.205 202.746 287.008 203.757 286.615 204.599C286.222 205.437 285.682 206.084 284.996 206.538C284.309 206.988 283.526 207.213 282.645 207.213C281.982 207.213 281.44 207.102 281.018 206.879C280.602 206.657 280.275 206.396 280.038 206.098C279.802 205.8 279.619 205.535 279.491 205.303H279.364V211.091H277.24ZM279.321 201.545C279.321 202.312 279.432 202.985 279.655 203.562C279.877 204.14 280.199 204.592 280.621 204.919C281.042 205.241 281.558 205.402 282.169 205.402C282.804 205.402 283.334 205.234 283.76 204.898C284.186 204.557 284.508 204.095 284.726 203.513C284.948 202.93 285.06 202.275 285.06 201.545C285.06 200.826 284.951 200.179 284.733 199.607C284.52 199.034 284.198 198.581 283.767 198.25C283.341 197.919 282.808 197.753 282.169 197.753C281.554 197.753 281.033 197.911 280.607 198.229C280.185 198.546 279.866 198.989 279.648 199.557C279.43 200.125 279.321 200.788 279.321 201.545ZM294.179 207.22C293.156 207.22 292.264 206.986 291.501 206.517C290.739 206.048 290.147 205.393 289.726 204.55C289.304 203.707 289.094 202.722 289.094 201.595C289.094 200.464 289.304 199.474 289.726 198.626C290.147 197.779 290.739 197.121 291.501 196.652C292.264 196.183 293.156 195.949 294.179 195.949C295.202 195.949 296.094 196.183 296.857 196.652C297.619 197.121 298.211 197.779 298.632 198.626C299.054 199.474 299.264 200.464 299.264 201.595C299.264 202.722 299.054 203.707 298.632 204.55C298.211 205.393 297.619 206.048 296.857 206.517C296.094 206.986 295.202 207.22 294.179 207.22ZM294.186 205.438C294.849 205.438 295.398 205.262 295.834 204.912C296.269 204.562 296.591 204.095 296.8 203.513C297.013 202.93 297.119 202.289 297.119 201.588C297.119 200.892 297.013 200.253 296.8 199.67C296.591 199.083 296.269 198.612 295.834 198.257C295.398 197.902 294.849 197.724 294.186 197.724C293.518 197.724 292.964 197.902 292.524 198.257C292.089 198.612 291.764 199.083 291.551 199.67C291.343 200.253 291.239 200.892 291.239 201.588C291.239 202.289 291.343 202.93 291.551 203.513C291.764 204.095 292.089 204.562 292.524 204.912C292.964 205.262 293.518 205.438 294.186 205.438ZM301.635 207V196.091H310.534V207H308.453V197.923H303.701V207H301.635ZM313.373 211.091V196.091H315.447V197.859H315.624C315.747 197.632 315.925 197.369 316.157 197.071C316.389 196.773 316.711 196.512 317.123 196.29C317.535 196.062 318.079 195.949 318.756 195.949C319.637 195.949 320.423 196.171 321.114 196.616C321.806 197.062 322.348 197.703 322.741 198.541C323.138 199.379 323.337 200.388 323.337 201.567C323.337 202.746 323.141 203.757 322.748 204.599C322.355 205.437 321.815 206.084 321.129 206.538C320.442 206.988 319.658 207.213 318.778 207.213C318.115 207.213 317.573 207.102 317.151 206.879C316.735 206.657 316.408 206.396 316.171 206.098C315.934 205.8 315.752 205.535 315.624 205.303H315.496V211.091H313.373ZM315.454 201.545C315.454 202.312 315.565 202.985 315.788 203.562C316.01 204.14 316.332 204.592 316.754 204.919C317.175 205.241 317.691 205.402 318.302 205.402C318.936 205.402 319.467 205.234 319.893 204.898C320.319 204.557 320.641 204.095 320.859 203.513C321.081 202.93 321.192 202.275 321.192 201.545C321.192 200.826 321.084 200.179 320.866 199.607C320.653 199.034 320.331 198.581 319.9 198.25C319.474 197.919 318.941 197.753 318.302 197.753C317.686 197.753 317.165 197.911 316.739 198.229C316.318 198.546 315.998 198.989 315.781 199.557C315.563 200.125 315.454 200.788 315.454 201.545ZM327.798 204.024L332.606 196.091H334.893V207H332.812V199.06L328.025 207H325.717V196.091H327.798V204.024ZM344.254 207V197.902H341.64C341.02 197.902 340.537 198.046 340.191 198.335C339.845 198.624 339.673 199.003 339.673 199.472C339.673 199.936 339.831 200.31 340.148 200.594C340.47 200.873 340.92 201.013 341.498 201.013H344.871V202.732H341.498C340.693 202.732 339.997 202.599 339.41 202.334C338.827 202.064 338.378 201.683 338.06 201.19C337.748 200.698 337.592 200.116 337.592 199.443C337.592 198.757 337.753 198.165 338.075 197.668C338.401 197.166 338.868 196.777 339.474 196.503C340.085 196.228 340.807 196.091 341.64 196.091H346.249V207H344.254ZM337.094 207L340.17 201.489H342.343L339.268 207H337.094ZM347.723 197.923V196.091H356.928V197.923H353.369V207H351.295V197.923H347.723ZM361.255 204.024L366.063 196.091H368.35V207H366.269V199.06L361.482 207H359.174V196.091H361.255V204.024ZM377.711 207V197.902H375.097C374.477 197.902 373.994 198.046 373.648 198.335C373.302 198.624 373.13 199.003 373.13 199.472C373.13 199.936 373.288 200.31 373.605 200.594C373.927 200.873 374.377 201.013 374.955 201.013H378.328V202.732H374.955C374.15 202.732 373.454 202.599 372.867 202.334C372.284 202.064 371.835 201.683 371.517 201.19C371.205 200.698 371.049 200.116 371.049 199.443C371.049 198.757 371.21 198.165 371.532 197.668C371.858 197.166 372.325 196.777 372.931 196.503C373.542 196.228 374.264 196.091 375.097 196.091H379.706V207H377.711ZM370.551 207L373.627 201.489H375.8L372.725 207H370.551Z" fill="#0A2832"/>
<rect x="115.5" y="186.5" width="23" height="24.9286" fill="#8ECBB0" stroke="#8ECBB0"/>
<rect x="115.5" y="290.214" width="23" height="24.9286" fill="#8ECBB0" stroke="#8ECBB0"/>
<rect x="414.5" y="238.357" width="23" height="24.9286" fill="#8ECBB0" stroke="#8ECBB0"/>
<path d="M128.577 192.364V204H127.168V193.841H127.099L124.259 195.727V194.295L127.168 192.364H128.577Z" fill="#0A2832"/>
<path d="M127.043 307.873C126.293 307.873 125.624 307.744 125.037 307.487C124.454 307.229 123.99 306.871 123.645 306.413C123.304 305.951 123.118 305.415 123.088 304.805H124.52C124.55 305.18 124.679 305.504 124.906 305.776C125.134 306.045 125.431 306.254 125.798 306.401C126.166 306.549 126.573 306.623 127.02 306.623C127.52 306.623 127.963 306.536 128.349 306.362C128.736 306.187 129.039 305.945 129.259 305.634C129.478 305.324 129.588 304.964 129.588 304.555C129.588 304.127 129.482 303.75 129.27 303.424C129.058 303.095 128.747 302.837 128.338 302.651C127.929 302.466 127.429 302.373 126.838 302.373H125.906V301.123H126.838C127.3 301.123 127.705 301.04 128.054 300.873C128.406 300.706 128.681 300.471 128.878 300.168C129.079 299.865 129.179 299.509 129.179 299.1C129.179 298.706 129.092 298.363 128.918 298.072C128.743 297.78 128.497 297.553 128.179 297.39C127.865 297.227 127.493 297.146 127.065 297.146C126.664 297.146 126.285 297.22 125.929 297.367C125.577 297.511 125.289 297.721 125.065 297.998C124.842 298.271 124.721 298.6 124.702 298.987H123.338C123.361 298.377 123.545 297.843 123.889 297.384C124.234 296.922 124.685 296.562 125.241 296.305C125.802 296.047 126.418 295.918 127.088 295.918C127.808 295.918 128.425 296.064 128.94 296.356C129.455 296.644 129.851 297.024 130.128 297.498C130.404 297.971 130.543 298.483 130.543 299.032C130.543 299.687 130.37 300.246 130.026 300.708C129.685 301.17 129.221 301.49 128.634 301.668V301.759C129.368 301.881 129.942 302.193 130.355 302.697C130.768 303.197 130.974 303.816 130.974 304.555C130.974 305.187 130.802 305.756 130.457 306.259C130.116 306.759 129.651 307.153 129.06 307.441C128.469 307.729 127.796 307.873 127.043 307.873Z" fill="#0A2832"/>
<path d="M422.361 255.857V254.835L426.202 250.63C426.652 250.138 427.024 249.71 427.315 249.346C427.607 248.979 427.823 248.634 427.963 248.312C428.107 247.986 428.179 247.645 428.179 247.289C428.179 246.88 428.08 246.526 427.884 246.227C427.69 245.927 427.425 245.696 427.088 245.534C426.751 245.371 426.372 245.289 425.952 245.289C425.505 245.289 425.115 245.382 424.781 245.568C424.452 245.749 424.196 246.005 424.014 246.335C423.836 246.664 423.747 247.051 423.747 247.494H422.406C422.406 246.812 422.563 246.213 422.878 245.698C423.192 245.183 423.62 244.782 424.162 244.494C424.707 244.206 425.319 244.062 425.997 244.062C426.679 244.062 427.283 244.206 427.81 244.494C428.336 244.782 428.749 245.17 429.048 245.659C429.348 246.147 429.497 246.691 429.497 247.289C429.497 247.717 429.42 248.136 429.264 248.545C429.113 248.95 428.848 249.403 428.469 249.903C428.094 250.399 427.573 251.005 426.906 251.721L424.293 254.517V254.607H429.702V255.857H422.361Z" fill="#0A2832"/>
<path d="M139 198.964H203" stroke="#8ECBB0" stroke-width="1.5"/>
<path d="M139 302.679H203" stroke="#8ECBB0" stroke-width="1.5"/>
<path d="M350 250.821H414" stroke="#8ECBB0" stroke-width="1.5"/>
<defs>
<clipPath id="clip0_550_895">
<rect width="24" height="24" fill="white" transform="translate(208 237.857)"/>
</clipPath>
<clipPath id="clip1_550_895">
<rect width="24" height="24" fill="white" transform="translate(208 289.715)"/>
</clipPath>
<clipPath id="clip2_550_895">
<rect width="24" height="24" fill="white" transform="translate(208 341.571)"/>
</clipPath>
</defs>
</svg>
