<svg width="220" height="135" viewBox="0 0 220 135" fill="none" xmlns="http://www.w3.org/2000/svg">
<path d="M0 2.08334H9.925L16.175 25H38.0813L44.5146 5.69793L48.4688 7.01668L41.0833 29.1667H16.2083L15.1667 33.3333H45.8333V37.5H9.83333L12.4292 27.1063L6.74167 6.25001H0V2.08334ZM29.1667 4.16668V10.4167H35.4167V14.5833H29.1667V20.8333H25V14.5833H18.75V10.4167H25V4.16668H29.1667ZM8.33333 43.75C8.33333 42.6449 8.77232 41.5851 9.55372 40.8037C10.3351 40.0223 11.3949 39.5833 12.5 39.5833C13.6051 39.5833 14.6649 40.0223 15.4463 40.8037C16.2277 41.5851 16.6667 42.6449 16.6667 43.75C16.6667 44.8551 16.2277 45.9149 15.4463 46.6963C14.6649 47.4777 13.6051 47.9167 12.5 47.9167C11.3949 47.9167 10.3351 47.4777 9.55372 46.6963C8.77232 45.9149 8.33333 44.8551 8.33333 43.75ZM37.5 43.75C37.5 42.6449 37.939 41.5851 38.7204 40.8037C39.5018 40.0223 40.5616 39.5833 41.6667 39.5833C42.7717 39.5833 43.8315 40.0223 44.6129 40.8037C45.3943 41.5851 45.8333 42.6449 45.8333 43.75C45.8333 44.8551 45.3943 45.9149 44.6129 46.6963C43.8315 47.4777 42.7717 47.9167 41.6667 47.9167C40.5616 47.9167 39.5018 47.4777 38.7204 46.6963C37.939 45.9149 37.5 44.8551 37.5 43.75Z" fill="#0A2832"/>
<path d="M132.916 6.25V43.75H87.083V6.25H132.916ZM128.75 10.4167H91.2497V18.75H128.75V10.4167ZM128.75 22.9167H91.2497V39.5833H128.75V22.9167ZM105.833 33.3333H95.4163V29.1667H105.833V33.3333Z" fill="#0A2832"/>
<path d="M192.662 47.9583L172.037 27.3333L193.125 6.28333L213.75 6.24791V26.9083L192.662 47.9583ZM192.664 42.0687L209.583 25.1771V10.4208L194.854 10.4458L177.933 27.3375L192.664 42.0687ZM201.241 18.7562V14.5833H205.416V18.7583L201.241 18.7562Z" fill="#0A2832"/>
<path d="M4.16699 89.1667H45.8337V93.3333H41.667V131L38.2816 128.292L34.4462 125.225L31.0712 128.225L29.6878 129.454L28.3045 128.225L25.0003 125.285L21.6962 128.223L20.3128 129.452L18.9295 128.223L15.5545 125.223L11.7191 128.292L8.33366 131V93.3333H4.16699V89.1667ZM12.5003 93.3333V122.333L14.3232 120.875L15.6962 119.775L17.0087 120.942L20.3128 123.879L23.617 120.942L25.0003 119.712L26.3837 120.942L29.6878 123.879L32.992 120.942L34.3045 119.775L35.6774 120.873L37.5003 122.331V93.3333H12.5003ZM16.667 99.5833H33.3337V103.75H16.667V99.5833ZM20.8337 107.917H18.7503V112.083H31.2503V107.917H29.167H20.8337Z" fill="#0A2832"/>
<path d="M89.167 89.1667H107.917V107.917H89.167V89.1667ZM93.3337 93.3333V103.75H103.75V93.3333H93.3337ZM112.084 89.1667H130.834V107.917H112.084V89.1667ZM116.25 93.3333V103.75H126.667V93.3333H116.25ZM96.4587 96.4583H100.634V100.633H96.4587V96.4583ZM119.375 96.4583H123.55V100.633H119.375V96.4583ZM112.075 112.075H116.25V116.25H112.075V112.075ZM126.659 112.075H130.834V116.25H126.659V112.075ZM89.167 112.083H107.917V130.833H89.167V112.083ZM93.3337 116.25V126.667H103.75V116.25H93.3337ZM118.325 118.325H122.5V122.492H126.667V126.658H130.834V130.833H126.659V126.667H122.492V122.5H118.325V118.325ZM96.4587 119.375H100.634V123.55H96.4587V119.375ZM112.075 126.658H116.25V130.833H112.075V126.658Z" fill="#0A2832"/>
<path d="M172.083 93.3333H217.916V104.727L216.729 105.292C215.837 105.713 215.083 106.38 214.555 107.214C214.027 108.047 213.747 109.013 213.747 110C213.747 110.987 214.027 111.953 214.555 112.787C215.083 113.62 215.837 114.287 216.729 114.708L217.916 115.273V126.667H172.083V115.273L173.271 114.708C174.162 114.287 174.916 113.62 175.444 112.787C175.972 111.953 176.252 110.987 176.252 110C176.252 109.013 175.972 108.047 175.444 107.214C174.916 106.38 174.162 105.713 173.271 105.292L172.083 104.729V93.3333ZM176.25 97.5V102.204C178.76 103.883 180.416 106.746 180.416 110C180.417 111.542 180.037 113.06 179.31 114.42C178.584 115.78 177.532 116.94 176.25 117.796V122.5H213.75V117.796C212.467 116.94 211.416 115.78 210.689 114.42C209.962 113.06 209.582 111.542 209.583 110C209.583 106.748 211.239 103.883 213.75 102.204V97.5H176.25ZM186.666 103.75H203.333V107.917H186.666V103.75ZM186.666 112.083H203.333V116.25H186.666V112.083Z" fill="#0A2832"/>
</svg>
