<svg width="220" height="135" viewBox="0 0 220 135" fill="none" xmlns="http://www.w3.org/2000/svg">
<path d="M18.9913 2.0838H30.7413L32.0893 8.82755C33.2053 9.32758 34.2666 9.94198 35.2559 10.6609L41.7747 8.45463L47.6497 18.6296L42.4809 23.1713C42.6061 24.3875 42.6061 25.6134 42.4809 26.8296L47.6476 31.3713L41.7747 41.5463L35.2559 39.3421C34.2664 40.0603 33.2052 40.674 32.0893 41.1734L30.7393 47.9171H18.9913L17.6434 41.1734C16.5274 40.6733 15.4661 40.0589 14.4768 39.34L7.95801 41.5463L2.08301 31.3713L7.25176 26.8296C7.12674 25.6134 7.12674 24.3875 7.25176 23.1713L2.08509 18.6296L7.96009 8.45463L14.4768 10.6588C15.4662 9.9406 16.5274 9.32691 17.6434 8.82755L18.9913 2.0838ZM22.408 6.25047L21.2788 11.8859L20.1851 12.288C18.7354 12.8228 17.3882 13.6022 16.2018 14.5921L15.3059 15.3401L9.85801 13.4963L7.39967 17.7546L11.7163 21.5484L11.5184 22.6963C11.2572 24.2213 11.2572 25.7796 11.5184 27.3046L11.7163 28.4505L7.39759 32.2463L9.85592 36.5046L15.3059 34.6609L16.2018 35.4088C17.3888 36.3978 18.7359 37.177 20.1851 37.713L21.2788 38.1151L22.408 43.7505H27.3247L28.4538 38.1151L29.5476 37.713C30.9972 37.178 32.3445 36.3987 33.5309 35.4088L34.4268 34.6609L39.8768 36.5046L42.3351 32.2463L38.0184 28.4525L38.2143 27.3046C38.4754 25.7796 38.4754 24.2213 38.2143 22.6963L38.0184 21.5505L42.3351 17.7546L39.8768 13.4963L34.4268 15.3401L33.5309 14.5921C32.3446 13.6021 30.9973 12.8228 29.5476 12.288L28.4538 11.8859L27.3247 6.25047H22.408ZM24.8663 18.7505C23.2087 18.7505 21.619 19.4089 20.4469 20.581C19.2748 21.7532 18.6163 23.3429 18.6163 25.0005C18.6163 26.6581 19.2748 28.2478 20.4469 29.4199C21.619 30.592 23.2087 31.2505 24.8663 31.2505C26.5239 31.2505 28.1137 30.592 29.2858 29.4199C30.4579 28.2478 31.1163 26.6581 31.1163 25.0005C31.1163 23.3429 30.4579 21.7532 29.2858 20.581C28.1137 19.4089 26.5239 18.7505 24.8663 18.7505ZM14.4497 25.0005C14.4497 22.2378 15.5471 19.5883 17.5006 17.6348C19.4541 15.6813 22.1037 14.5838 24.8663 14.5838C27.629 14.5838 30.2785 15.6813 32.232 17.6348C34.1855 19.5883 35.283 22.2378 35.283 25.0005C35.283 27.7631 34.1855 30.4127 32.232 32.3662C30.2785 34.3197 27.629 35.4171 24.8663 35.4171C22.1037 35.4171 19.4541 34.3197 17.5006 32.3662C15.5471 30.4127 14.4497 27.7631 14.4497 25.0005Z" fill="#0A2832"/>
<path d="M97.5013 8.33333V3.125H101.668V8.33333H118.335V3.125H122.501V8.33333H130.835V45.8333H89.168V8.33333H97.5013ZM93.3346 12.5V18.75H126.668V12.5H93.3346ZM126.668 22.9167H93.3346V41.6667H126.668V22.9167Z" fill="#0A2832"/>
<path d="M175.354 6.25H214.646L200.209 26.7021V43.75H189.792V26.7021L175.354 6.25ZM183.396 10.4167L193.959 25.3812V39.5833H196.042V25.3812L206.604 10.4167H183.396Z" fill="#0A2832"/>
<path d="M31.4504 97.3C30.1972 96.0236 28.7036 95.0081 27.0557 94.3122C25.4078 93.6163 23.6384 93.2537 21.8497 93.2455C20.0609 93.2373 18.2882 93.5835 16.634 94.2643C14.9798 94.945 13.4769 95.9468 12.212 97.2116C10.9472 98.4765 9.94544 99.9794 9.26469 101.634C8.58395 103.288 8.23769 105.06 8.24591 106.849C8.25413 108.638 8.61667 110.407 9.31258 112.055C10.0085 113.703 11.024 115.197 12.3004 116.45C14.8478 118.951 18.2798 120.345 21.8497 120.329C25.4195 120.312 28.8385 118.887 31.3628 116.362C33.8872 113.838 35.3126 110.419 35.329 106.849C35.3454 103.279 33.9514 99.8474 31.4504 97.3ZM9.3546 94.3542C12.548 91.1616 16.8403 89.3095 21.3539 89.1767C25.8675 89.044 30.2614 90.6404 33.6369 93.6397C37.0125 96.6391 39.1147 100.815 39.5138 105.312C39.9128 109.81 38.5785 114.291 35.7838 117.838L46.9192 128.973L43.9734 131.919L32.8379 120.783C29.29 123.568 24.8134 124.894 20.3214 124.491C15.8293 124.088 11.6602 121.986 8.66455 118.615C5.66887 115.243 4.0723 110.856 4.20053 106.348C4.32876 101.839 6.17212 97.5499 9.3546 94.3542Z" fill="#0A2832"/>
<path d="M110.001 128.75C112.463 128.75 114.901 128.265 117.176 127.323C119.451 126.38 121.518 124.999 123.259 123.258C125 121.517 126.381 119.45 127.323 117.175C128.266 114.9 128.751 112.462 128.751 110C128.751 107.538 128.266 105.1 127.323 102.825C126.381 100.55 125 98.4828 123.259 96.7417C121.518 95.0006 119.451 93.6195 117.176 92.6773C114.901 91.735 112.463 91.25 110.001 91.25C105.028 91.25 100.259 93.2254 96.7424 96.7417C93.2261 100.258 91.2507 105.027 91.2507 110C91.2507 114.973 93.2261 119.742 96.7424 123.258C100.259 126.775 105.028 128.75 110.001 128.75ZM132.917 110C132.917 122.656 122.657 132.917 110.001 132.917C97.3444 132.917 87.084 122.656 87.084 110C87.084 97.3437 97.3444 87.0833 110.001 87.0833C122.657 87.0833 132.917 97.3437 132.917 110ZM107.917 121.458V105.833H112.084V121.458H107.917ZM112.084 102.708H107.909V98.5333H112.084V102.708Z" fill="#0A2832"/>
<g clip-path="url(#clip0_1596_683)">
<path d="M176.25 88.304L189.106 101.162L203.84 115.892L216.694 128.75L213.75 131.696L207.573 125.519C203.724 127.644 199.397 128.756 195 128.75C183.375 128.75 173.538 121.137 170.188 110.633L169.981 110L170.184 109.367C171.77 104.415 174.8 100.05 178.886 96.8332L173.302 91.2498L176.25 88.304ZM181.856 99.804C178.413 102.394 175.809 105.94 174.369 110C177.371 118.5 185.477 124.583 195 124.583C198.398 124.583 201.613 123.808 204.479 122.427L200.744 118.692C198.741 120.017 196.341 120.61 193.951 120.369C191.561 120.128 189.328 119.069 187.63 117.37C185.931 115.672 184.872 113.439 184.631 111.049C184.39 108.659 184.983 106.259 186.309 104.256L181.856 99.804ZM189.359 107.304C188.8 108.471 188.618 109.782 188.836 111.056C189.054 112.331 189.663 113.507 190.577 114.421C191.491 115.335 192.667 115.944 193.942 116.162C195.216 116.38 196.527 116.198 197.694 115.639L189.359 107.304ZM195 95.4165C193.798 95.4165 192.621 95.5124 191.475 95.6978L189.419 96.0311L188.752 91.9186L190.811 91.5853C192.196 91.3615 193.597 91.2494 195 91.2498C206.623 91.2498 216.461 98.8624 219.813 109.367L220.015 110L219.813 110.633C218.961 113.302 217.682 115.815 216.027 118.075L214.796 119.756L211.434 117.296L212.663 115.614C213.922 113.898 214.923 112.006 215.634 110C212.625 101.5 204.521 95.4165 195 95.4165ZM196.069 99.429L198.061 100.042C199.686 100.542 201.164 101.432 202.366 102.635C203.569 103.837 204.459 105.315 204.961 106.939L205.571 108.931L201.588 110.154L200.977 108.162C200.676 107.188 200.141 106.302 199.42 105.581C198.698 104.86 197.812 104.326 196.838 104.025L194.846 103.412L196.069 99.429Z" fill="#0A2832"/>
</g>
<defs>
<clipPath id="clip0_1596_683">
<rect width="50" height="50" fill="white" transform="translate(170 85)"/>
</clipPath>
</defs>
</svg>
