<svg xmlns="http://www.w3.org/2000/svg" width="552" height="552" fill="none"><g fill="#0A2832" clip-path="url(#a)"><path d="M168.279 280.178h23.038l7.679 30.669h10.206l-10.206-40.876h-17.983l28.141-30.717h-12.54l-28.335 30.474v-30.474h-10.206v71.544h10.206v-30.62ZM291 310.799l30.668-51.034v51.034h10.207v-71.593h-10.207L291 290.531v-51.276h-10.255v71.544H291ZM383.004 269.923h-30.911v-30.669h-10.206v71.544h10.206v-30.669h30.911v30.669h10.207v-71.544h-10.207v30.669ZM229.615 157.453h40.874v61.338h10.256v-71.544H219.409v71.544h10.206v-61.338ZM158.122 218.84h10.207l4.228-15.019h26.439v14.97h10.207v-71.593h-30.425v.097h-.194l-13.22 46.271h-4.326l-2.916 10.207h4.277l-4.277 15.067Zm27.557-61.387h13.317v36.162h-23.523l10.206-36.162ZM392.676 147.198h-29.891v.097h-.146l-13.268 46.271h-4.325l-2.917 10.207h4.326l-4.326 15.018h10.207l4.228-15.018h26.488v14.97h10.207v-71.545h-.583Zm-33.196 46.368 10.207-36.161h13.365v36.161H359.48ZM342.032 170.382v-.097c0-12.297-9.283-22.406-20.947-22.99h-30.133v71.545h10.206v-25.323l18.712-.048c12.15 0 22.065-10.256 22.065-23.038v-.049h.097Zm-23.426 13.074h-17.399v-26.1h17.399c6.902 0 12.491 5.833 12.491 13.026 0 7.242-5.589 13.074-12.491 13.074ZM372.213 331.261H342.08v71.544h10.207v-25.371l18.711-.048c12.151 0 22.066-10.256 22.066-23.039v-.097c.097-12.297-9.235-22.406-20.851-22.989Zm-2.478 36.112h-17.4v-26.1h17.4c6.901 0 12.49 5.832 12.49 13.026 0 7.242-5.589 13.074-12.49 13.074ZM253.699 358.905v-27.704h-35.966v71.545H243.881c12.151 0 22.066-10.256 22.066-23.038V379.562c0-9.04-5.006-16.866-12.248-20.657Zm-10.207-17.497v15.116h-15.504v-15.116h15.504Zm-.923 51.277h-14.581v-26.1h14.581c6.902 0 12.491 5.832 12.491 13.025 0 7.242-5.589 13.075-12.491 13.075ZM206.335 392.647h-7.387v-61.338h-5.055v-.048h-25.564v61.386h-7.339l-2.965 10.207H188.741v.049h10.207v-.049h10.255l-2.868-10.207Zm-27.8 0v-51.131h10.206v51.131h-10.206ZM303.588 329.268c-17.303 0-31.3 16.914-31.3 37.765s13.997 37.765 31.3 37.765c17.302 0 31.3-16.914 31.3-37.765s-13.998-37.765-31.3-37.765Zm0 65.323c-11.616 0-21.045-12.345-21.045-27.558 0-15.164 9.429-27.558 21.045-27.558 11.616 0 21.045 12.345 21.045 27.558.048 15.164-9.429 27.558-21.045 27.558ZM244.585 247.662c8.846 0 15.796 5.59 19.295 14.873 0 0 5.881-3.888 8.652-6.756-4.763-11.373-16.233-18.518-27.947-18.518-18.08 0-32.757 16.914-32.757 37.765s14.677 37.765 32.757 37.765c9.867 0 18.761-5.055 24.739-13.026-4.131-3.694-8.019-6.999-8.019-6.999-4.034 5.881-10.061 9.624-16.768 9.624-12.151 0-22.066-12.297-22.066-27.364.049-15.116 9.964-27.364 22.114-27.364Z"/></g><defs><clipPath id="a"><path fill="#fff" d="M147.2 147.2h257.6v257.6H147.2z"/></clipPath></defs></svg>