<svg width="552" height="276" viewBox="0 0 552 276" fill="none" xmlns="http://www.w3.org/2000/svg">
<rect width="552" height="276" fill="#F2F6F9"/>
<rect x="72.75" y="48.75" width="22.5" height="178.5" stroke="#FF9F7E" stroke-width="1.5"/>
<rect x="98.25" y="48.75" width="22.5" height="178.5" stroke="#FF9F7E" stroke-width="1.5"/>
<rect x="455.25" y="114.75" width="22.5" height="262.5" transform="rotate(90 455.25 114.75)" stroke="#FF9F7E" stroke-width="1.5"/>
<rect x="455.25" y="140.25" width="22.5" height="262.5" transform="rotate(90 455.25 140.25)" stroke="#FF9F7E" stroke-width="1.5"/>
<path d="M71.679 243.773V242.818H77.1676V243.773H71.679ZM77.1676 240.159L71.679 242.136V241.097L75.5142 239.835L75.4801 239.903V239.733L75.5142 239.801L71.679 238.54V237.5L77.1676 239.477V240.159ZM82.6573 245V244.233L85.538 241.08C85.8761 240.71 86.1545 240.389 86.3732 240.116C86.592 239.841 86.7539 239.582 86.859 239.341C86.967 239.097 87.021 238.841 87.021 238.574C87.021 238.267 86.9471 238.001 86.7994 237.777C86.6545 237.553 86.4556 237.379 86.2028 237.257C85.9499 237.135 85.6658 237.074 85.3505 237.074C85.0153 237.074 84.7227 237.143 84.4727 237.283C84.2255 237.419 84.0337 237.611 83.8974 237.858C83.7638 238.105 83.6971 238.395 83.6971 238.727H82.6914C82.6914 238.216 82.8093 237.767 83.0451 237.381C83.2809 236.994 83.6019 236.693 84.0082 236.477C84.4173 236.261 84.8761 236.153 85.3846 236.153C85.896 236.153 86.3491 236.261 86.744 236.477C87.1388 236.693 87.4485 236.984 87.6729 237.351C87.8974 237.717 88.0096 238.125 88.0096 238.574C88.0096 238.895 87.9513 239.209 87.8349 239.516C87.7212 239.82 87.5224 240.159 87.2383 240.534C86.957 240.906 86.5664 241.361 86.0664 241.898L84.1062 243.994V244.062H88.163V245H82.6573ZM89.5309 243.21V242.341L93.3661 236.273H93.9968V237.619H93.5707L90.6729 242.205V242.273H95.8377V243.21H89.5309ZM93.6388 245V242.946V242.541V236.273H94.6445V245H93.6388Z" fill="#738287"/>
<path d="M97.679 38.7727V37.8182H103.168V38.7727H97.679ZM103.168 35.1591L97.679 37.1364V36.0966L101.514 34.8352L101.48 34.9034V34.733L101.514 34.8011L97.679 33.5398V32.5L103.168 34.4773V35.1591ZM108.657 40V39.233L111.538 36.0795C111.876 35.7102 112.154 35.3892 112.373 35.1165C112.592 34.8409 112.754 34.5824 112.859 34.3409C112.967 34.0966 113.021 33.8409 113.021 33.5739C113.021 33.267 112.947 33.0014 112.799 32.777C112.654 32.5526 112.456 32.3793 112.203 32.2571C111.95 32.1349 111.666 32.0739 111.35 32.0739C111.015 32.0739 110.723 32.1435 110.473 32.2827C110.225 32.419 110.034 32.6108 109.897 32.858C109.764 33.1051 109.697 33.3949 109.697 33.7273H108.691C108.691 33.2159 108.809 32.767 109.045 32.3807C109.281 31.9943 109.602 31.6932 110.008 31.4773C110.417 31.2614 110.876 31.1534 111.385 31.1534C111.896 31.1534 112.349 31.2614 112.744 31.4773C113.139 31.6932 113.449 31.9844 113.673 32.3509C113.897 32.7173 114.01 33.125 114.01 33.5739C114.01 33.8949 113.951 34.2088 113.835 34.5156C113.721 34.8196 113.522 35.1591 113.238 35.5341C112.957 35.9062 112.566 36.3608 112.066 36.8977L110.106 38.9943V39.0625H114.163V40H108.657ZM115.531 38.2102V37.3409L119.366 31.2727H119.997V32.6193H119.571L116.673 37.2045V37.2727H121.838V38.2102H115.531ZM119.639 40V37.946V37.5412V31.2727H120.645V40H119.639Z" fill="#738287"/>
<path d="M465.679 128.773V127.818H471.168V128.773H465.679ZM471.168 125.159L465.679 127.136V126.097L469.514 124.835L469.48 124.903V124.733L469.514 124.801L465.679 123.54V122.5L471.168 124.477V125.159ZM476.657 130V129.233L479.538 126.08C479.876 125.71 480.154 125.389 480.373 125.116C480.592 124.841 480.754 124.582 480.859 124.341C480.967 124.097 481.021 123.841 481.021 123.574C481.021 123.267 480.947 123.001 480.799 122.777C480.654 122.553 480.456 122.379 480.203 122.257C479.95 122.135 479.666 122.074 479.35 122.074C479.015 122.074 478.723 122.143 478.473 122.283C478.225 122.419 478.034 122.611 477.897 122.858C477.764 123.105 477.697 123.395 477.697 123.727H476.691C476.691 123.216 476.809 122.767 477.045 122.381C477.281 121.994 477.602 121.693 478.008 121.477C478.417 121.261 478.876 121.153 479.385 121.153C479.896 121.153 480.349 121.261 480.744 121.477C481.139 121.693 481.449 121.984 481.673 122.351C481.897 122.717 482.01 123.125 482.01 123.574C482.01 123.895 481.951 124.209 481.835 124.516C481.721 124.82 481.522 125.159 481.238 125.534C480.957 125.906 480.566 126.361 480.066 126.898L478.106 128.994V129.062H482.163V130H476.657ZM483.531 128.21V127.341L487.366 121.273H487.997V122.619H487.571L484.673 127.205V127.273H489.838V128.21H483.531ZM487.639 130V127.946V127.541V121.273H488.645V130H487.639Z" fill="#738287"/>
<path d="M465.679 153.773V152.818H471.168V153.773H465.679ZM471.168 150.159L465.679 152.136V151.097L469.514 149.835L469.48 149.903V149.733L469.514 149.801L465.679 148.54V147.5L471.168 149.477V150.159ZM476.657 155V154.233L479.538 151.08C479.876 150.71 480.154 150.389 480.373 150.116C480.592 149.841 480.754 149.582 480.859 149.341C480.967 149.097 481.021 148.841 481.021 148.574C481.021 148.267 480.947 148.001 480.799 147.777C480.654 147.553 480.456 147.379 480.203 147.257C479.95 147.135 479.666 147.074 479.35 147.074C479.015 147.074 478.723 147.143 478.473 147.283C478.225 147.419 478.034 147.611 477.897 147.858C477.764 148.105 477.697 148.395 477.697 148.727H476.691C476.691 148.216 476.809 147.767 477.045 147.381C477.281 146.994 477.602 146.693 478.008 146.477C478.417 146.261 478.876 146.153 479.385 146.153C479.896 146.153 480.349 146.261 480.744 146.477C481.139 146.693 481.449 146.984 481.673 147.351C481.897 147.717 482.01 148.125 482.01 148.574C482.01 148.895 481.951 149.209 481.835 149.516C481.721 149.82 481.522 150.159 481.238 150.534C480.957 150.906 480.566 151.361 480.066 151.898L478.106 153.994V154.062H482.163V155H476.657ZM483.531 153.21V152.341L487.366 146.273H487.997V147.619H487.571L484.673 152.205V152.273H489.838V153.21H483.531ZM487.639 155V152.946V152.541V146.273H488.645V155H487.639Z" fill="#738287"/>
<line x1="96.75" y1="228" x2="96.75" y2="48" stroke="#738287" stroke-width="1.5"/>
<line x1="456" y1="138.75" x2="192" y2="138.75" stroke="#738287" stroke-width="1.5"/>
</svg>
