<svg width="1128" height="828" viewBox="0 0 1128 828" fill="none" xmlns="http://www.w3.org/2000/svg">
<rect width="1128" height="828" fill="#F2F6F9"/>
<rect x="97.3633" y="263.364" width="261.288" height="261.288" stroke="#AFBEC3"/>
<path d="M108.71 263.864V524.152" stroke="#AFBEC3"/>
<path d="M358.152 513.308L97.8645 513.308" stroke="#AFBEC3"/>
<path d="M358.152 502.461L97.8645 502.461" stroke="#AFBEC3"/>
<path d="M358.152 491.616L97.8645 491.616" stroke="#AFBEC3"/>
<path d="M358.152 480.771L97.8645 480.771" stroke="#AFBEC3"/>
<path d="M358.152 469.925L97.8645 469.925" stroke="#AFBEC3"/>
<path d="M358.152 459.08L97.8645 459.08" stroke="#AFBEC3"/>
<path d="M358.152 448.235L97.8645 448.235" stroke="#AFBEC3"/>
<path d="M358.152 437.389L97.8645 437.389" stroke="#AFBEC3"/>
<path d="M358.152 426.544L97.8645 426.544" stroke="#AFBEC3"/>
<path d="M358.152 415.7L97.8645 415.7" stroke="#AFBEC3"/>
<path d="M358.152 404.853L97.8645 404.853" stroke="#AFBEC3"/>
<path d="M358.152 394.009L97.8645 394.009" stroke="#AFBEC3"/>
<path d="M358.152 383.163L97.8645 383.163" stroke="#AFBEC3"/>
<path d="M358.152 372.318L97.8645 372.318" stroke="#AFBEC3"/>
<path d="M358.152 361.473L97.8645 361.473" stroke="#AFBEC3"/>
<path d="M358.152 350.627L97.8645 350.627" stroke="#AFBEC3"/>
<path d="M358.152 339.782L97.8645 339.782" stroke="#AFBEC3"/>
<path d="M358.152 328.937L97.8645 328.937" stroke="#AFBEC3"/>
<path d="M358.152 318.091L97.8645 318.091" stroke="#AFBEC3"/>
<path d="M358.152 307.245L97.8645 307.245" stroke="#AFBEC3"/>
<path d="M358.152 296.4L97.8645 296.4" stroke="#AFBEC3"/>
<path d="M358.152 285.555L97.8645 285.555" stroke="#AFBEC3"/>
<path d="M358.152 274.71L97.8645 274.71" stroke="#AFBEC3"/>
<path d="M141.246 263.864V524.152" stroke="#AFBEC3"/>
<path d="M173.781 263.864V524.152" stroke="#AFBEC3"/>
<path d="M206.318 263.864V524.152" stroke="#AFBEC3"/>
<path d="M238.854 263.864V524.152" stroke="#AFBEC3"/>
<path d="M271.39 263.864V524.152" stroke="#AFBEC3"/>
<path d="M303.925 263.864V524.152" stroke="#AFBEC3"/>
<path d="M336.461 263.864V524.152" stroke="#AFBEC3"/>
<path d="M347.305 263.864V524.152" stroke="#AFBEC3"/>
<path d="M119.552 263.864V524.152" stroke="#AFBEC3"/>
<path d="M152.089 263.864V524.152" stroke="#AFBEC3"/>
<path d="M184.625 263.864V524.152" stroke="#AFBEC3"/>
<path d="M217.161 263.864V524.152" stroke="#AFBEC3"/>
<path d="M249.697 263.864V524.152" stroke="#AFBEC3"/>
<path d="M282.233 263.864V524.152" stroke="#AFBEC3"/>
<path d="M314.769 263.864V524.152" stroke="#AFBEC3"/>
<path d="M130.399 263.864V524.152" stroke="#AFBEC3"/>
<path d="M162.936 263.864V524.152" stroke="#AFBEC3"/>
<path d="M195.473 263.864V524.152" stroke="#AFBEC3"/>
<path d="M228.007 263.864V524.152" stroke="#AFBEC3"/>
<path d="M260.544 263.864V524.152" stroke="#AFBEC3"/>
<path d="M293.08 263.864V524.152" stroke="#AFBEC3"/>
<path d="M325.616 263.864V524.152" stroke="#AFBEC3"/>
<path d="M97 263L359 525" stroke="#AFBEC3"/>
<path d="M359 263L97 525" stroke="#AFBEC3"/>
<rect x="96.8652" y="262.864" width="262.271" height="262.271" stroke="#058CD7" stroke-width="2"/>
<rect x="119.482" y="285.481" width="217.036" height="217.036" stroke="#058CD7" stroke-width="2"/>
<rect x="109.106" y="296.723" width="237.789" height="194.554" stroke="#058CD7" stroke-width="2"/>
<rect x="130.722" y="275.105" width="194.554" height="237.789" stroke="#058CD7" stroke-width="2"/>
<circle cx="228.001" cy="394" r="117.894" stroke="#058CD7" stroke-width="2"/>
<path d="M111.707 560V545.455H117.034C118.066 545.455 118.921 545.625 119.598 545.966C120.275 546.302 120.782 546.759 121.118 547.337C121.454 547.91 121.622 548.556 121.622 549.276C121.622 549.882 121.511 550.393 121.288 550.81C121.066 551.222 120.768 551.553 120.393 551.804C120.024 552.05 119.617 552.23 119.172 552.344V552.486C119.655 552.509 120.126 552.666 120.585 552.955C121.049 553.239 121.433 553.643 121.736 554.169C122.039 554.695 122.19 555.334 122.19 556.087C122.19 556.83 122.015 557.498 121.665 558.089C121.319 558.677 120.784 559.143 120.06 559.489C119.335 559.83 118.41 560 117.283 560H111.707ZM113.902 558.118H117.07C118.121 558.118 118.874 557.914 119.328 557.507C119.783 557.1 120.01 556.591 120.01 555.98C120.01 555.521 119.894 555.099 119.662 554.716C119.43 554.332 119.098 554.027 118.668 553.8C118.241 553.572 117.735 553.459 117.148 553.459H113.902V558.118ZM113.902 551.747H116.842C117.335 551.747 117.777 551.652 118.17 551.463C118.568 551.274 118.883 551.009 119.115 550.668C119.352 550.322 119.47 549.915 119.47 549.446C119.47 548.845 119.259 548.34 118.838 547.933C118.417 547.526 117.77 547.322 116.899 547.322H113.902V551.747ZM129.218 560.22C128.162 560.22 127.253 559.981 126.491 559.503C125.733 559.02 125.151 558.355 124.744 557.507C124.336 556.66 124.133 555.689 124.133 554.595C124.133 553.487 124.341 552.509 124.758 551.662C125.174 550.81 125.762 550.144 126.519 549.666C127.277 549.188 128.169 548.949 129.197 548.949C130.025 548.949 130.764 549.103 131.413 549.411C132.061 549.714 132.585 550.14 132.982 550.689C133.385 551.238 133.624 551.88 133.7 552.614H131.633C131.519 552.102 131.259 551.662 130.852 551.293C130.449 550.923 129.909 550.739 129.232 550.739C128.64 550.739 128.122 550.895 127.677 551.207C127.237 551.515 126.893 551.955 126.647 552.528C126.401 553.097 126.278 553.769 126.278 554.545C126.278 555.341 126.398 556.027 126.64 556.605C126.881 557.183 127.222 557.63 127.663 557.947C128.108 558.265 128.631 558.423 129.232 558.423C129.635 558.423 129.999 558.35 130.326 558.203C130.657 558.052 130.934 557.836 131.157 557.557C131.384 557.277 131.543 556.941 131.633 556.548H133.7C133.624 557.254 133.394 557.884 133.011 558.438C132.627 558.991 132.113 559.427 131.469 559.744C130.83 560.062 130.08 560.22 129.218 560.22ZM135.971 560V549.091H144.87V560H142.789V550.923H138.037V560H135.971ZM152.304 560.22C151.281 560.22 150.389 559.986 149.626 559.517C148.864 559.048 148.272 558.393 147.851 557.55C147.429 556.707 147.219 555.722 147.219 554.595C147.219 553.464 147.429 552.474 147.851 551.626C148.272 550.779 148.864 550.121 149.626 549.652C150.389 549.183 151.281 548.949 152.304 548.949C153.327 548.949 154.219 549.183 154.982 549.652C155.744 550.121 156.336 550.779 156.757 551.626C157.179 552.474 157.389 553.464 157.389 554.595C157.389 555.722 157.179 556.707 156.757 557.55C156.336 558.393 155.744 559.048 154.982 559.517C154.219 559.986 153.327 560.22 152.304 560.22ZM152.311 558.438C152.974 558.438 153.523 558.262 153.959 557.912C154.394 557.562 154.716 557.095 154.925 556.513C155.138 555.93 155.244 555.289 155.244 554.588C155.244 553.892 155.138 553.253 154.925 552.67C154.716 552.083 154.394 551.612 153.959 551.257C153.523 550.902 152.974 550.724 152.311 550.724C151.643 550.724 151.089 550.902 150.649 551.257C150.214 551.612 149.889 552.083 149.676 552.67C149.468 553.253 149.364 553.892 149.364 554.588C149.364 555.289 149.468 555.93 149.676 556.513C149.889 557.095 150.214 557.562 150.649 557.912C151.089 558.262 151.643 558.438 152.311 558.438ZM165.882 557.372L169.404 549.091H171.237L166.67 560H165.093L160.619 549.091H162.43L165.882 557.372ZM161.841 549.091V560H159.76V549.091H161.841ZM169.98 560V549.091H172.047V560H169.98ZM179.472 560.22C178.449 560.22 177.557 559.986 176.794 559.517C176.032 559.048 175.44 558.393 175.019 557.55C174.597 556.707 174.387 555.722 174.387 554.595C174.387 553.464 174.597 552.474 175.019 551.626C175.44 550.779 176.032 550.121 176.794 549.652C177.557 549.183 178.449 548.949 179.472 548.949C180.495 548.949 181.387 549.183 182.15 549.652C182.912 550.121 183.504 550.779 183.925 551.626C184.346 552.474 184.557 553.464 184.557 554.595C184.557 555.722 184.346 556.707 183.925 557.55C183.504 558.393 182.912 559.048 182.15 559.517C181.387 559.986 180.495 560.22 179.472 560.22ZM179.479 558.438C180.142 558.438 180.691 558.262 181.127 557.912C181.562 557.562 181.884 557.095 182.093 556.513C182.306 555.93 182.412 555.289 182.412 554.588C182.412 553.892 182.306 553.253 182.093 552.67C181.884 552.083 181.562 551.612 181.127 551.257C180.691 550.902 180.142 550.724 179.479 550.724C178.811 550.724 178.257 550.902 177.817 551.257C177.382 551.612 177.057 552.083 176.844 552.67C176.636 553.253 176.532 553.892 176.532 554.588C176.532 555.289 176.636 555.93 176.844 556.513C177.057 557.095 177.382 557.562 177.817 557.912C178.257 558.262 178.811 558.438 179.479 558.438ZM193.902 549.091V550.923H189.023V560H186.928V549.091H193.902ZM198.813 560.241C198.122 560.241 197.497 560.114 196.938 559.858C196.379 559.598 195.937 559.221 195.61 558.729C195.288 558.236 195.127 557.633 195.127 556.918C195.127 556.302 195.246 555.795 195.482 555.398C195.719 555 196.039 554.685 196.441 554.453C196.844 554.221 197.293 554.046 197.79 553.928C198.288 553.809 198.794 553.719 199.31 553.658C199.964 553.582 200.494 553.52 200.901 553.473C201.308 553.421 201.604 553.338 201.789 553.224C201.974 553.111 202.066 552.926 202.066 552.67V552.621C202.066 552 201.891 551.52 201.54 551.179C201.195 550.838 200.679 550.668 199.992 550.668C199.277 550.668 198.714 550.826 198.302 551.143C197.895 551.456 197.613 551.804 197.457 552.188L195.461 551.733C195.698 551.07 196.043 550.535 196.498 550.128C196.957 549.716 197.485 549.418 198.082 549.233C198.678 549.044 199.306 548.949 199.964 548.949C200.399 548.949 200.861 549.001 201.349 549.105C201.841 549.205 202.3 549.389 202.727 549.659C203.157 549.929 203.51 550.315 203.785 550.817C204.059 551.314 204.197 551.96 204.197 552.756V560H202.123V558.509H202.038C201.9 558.783 201.694 559.053 201.42 559.318C201.145 559.583 200.792 559.804 200.362 559.979C199.931 560.154 199.415 560.241 198.813 560.241ZM199.275 558.537C199.862 558.537 200.364 558.421 200.781 558.189C201.202 557.957 201.522 557.654 201.739 557.28C201.962 556.901 202.073 556.496 202.073 556.065V554.659C201.997 554.735 201.851 554.806 201.633 554.872C201.42 554.934 201.176 554.988 200.901 555.036C200.627 555.078 200.359 555.118 200.099 555.156C199.838 555.189 199.621 555.218 199.445 555.241C199.033 555.294 198.657 555.381 198.316 555.504C197.98 555.627 197.71 555.805 197.506 556.037C197.308 556.264 197.208 556.567 197.208 556.946C197.208 557.472 197.402 557.869 197.79 558.139C198.179 558.404 198.674 558.537 199.275 558.537ZM205.672 550.923V549.091H214.877V550.923H211.319V560H209.245V550.923H205.672ZM221.317 560.22C220.242 560.22 219.316 559.991 218.54 559.531C217.768 559.067 217.171 558.416 216.75 557.578C216.333 556.735 216.125 555.748 216.125 554.616C216.125 553.499 216.333 552.514 216.75 551.662C217.171 550.81 217.759 550.144 218.511 549.666C219.269 549.188 220.154 548.949 221.168 548.949C221.783 548.949 222.38 549.051 222.957 549.254C223.535 549.458 224.054 549.777 224.513 550.213C224.972 550.649 225.334 551.214 225.599 551.911C225.865 552.602 225.997 553.442 225.997 554.432V555.185H217.325V553.594H223.916C223.916 553.035 223.803 552.54 223.575 552.109C223.348 551.674 223.028 551.33 222.616 551.08C222.209 550.829 221.731 550.703 221.182 550.703C220.585 550.703 220.064 550.85 219.619 551.143C219.179 551.432 218.838 551.811 218.597 552.28C218.36 552.744 218.241 553.248 218.241 553.793V555.036C218.241 555.765 218.369 556.385 218.625 556.896C218.885 557.408 219.248 557.798 219.712 558.068C220.176 558.333 220.718 558.466 221.338 558.466C221.741 558.466 222.107 558.409 222.439 558.295C222.77 558.177 223.057 558.002 223.298 557.77C223.54 557.538 223.724 557.251 223.852 556.911L225.862 557.273C225.701 557.865 225.412 558.383 224.996 558.828C224.584 559.268 224.065 559.612 223.44 559.858C222.82 560.099 222.112 560.22 221.317 560.22ZM227.494 560L227.487 558.161H227.877C228.181 558.161 228.434 558.097 228.637 557.969C228.846 557.836 229.016 557.614 229.149 557.301C229.281 556.989 229.383 556.558 229.454 556.009C229.525 555.455 229.577 554.759 229.61 553.92L229.802 549.091H237.416V560H235.335V550.923H231.77L231.599 554.631C231.556 555.53 231.464 556.316 231.322 556.989C231.185 557.661 230.984 558.222 230.718 558.672C230.453 559.117 230.112 559.451 229.696 559.673C229.279 559.891 228.772 560 228.176 560H227.494ZM241.846 552.841H245.013C246.349 552.841 247.376 553.172 248.096 553.835C248.816 554.498 249.175 555.353 249.175 556.399C249.175 557.081 249.014 557.694 248.692 558.239C248.371 558.783 247.899 559.214 247.279 559.531C246.659 559.844 245.904 560 245.013 560H240.248V549.091H242.329V558.168H245.013C245.624 558.168 246.126 558.009 246.519 557.692C246.912 557.37 247.109 556.96 247.109 556.463C247.109 555.937 246.912 555.509 246.519 555.178C246.126 554.841 245.624 554.673 245.013 554.673H241.846V552.841ZM258.95 553.629V555.469H253.041V553.629H258.95ZM253.637 549.091V560H251.556V549.091H253.637ZM260.434 549.091V560H258.36V549.091H260.434ZM266.45 560.241C265.759 560.241 265.134 560.114 264.575 559.858C264.016 559.598 263.574 559.221 263.247 558.729C262.925 558.236 262.764 557.633 262.764 556.918C262.764 556.302 262.882 555.795 263.119 555.398C263.356 555 263.675 554.685 264.078 554.453C264.48 554.221 264.93 554.046 265.427 553.928C265.924 553.809 266.431 553.719 266.947 553.658C267.6 553.582 268.131 553.52 268.538 553.473C268.945 553.421 269.241 553.338 269.426 553.224C269.61 553.111 269.703 552.926 269.703 552.67V552.621C269.703 552 269.528 551.52 269.177 551.179C268.832 550.838 268.315 550.668 267.629 550.668C266.914 550.668 266.35 550.826 265.939 551.143C265.531 551.456 265.25 551.804 265.093 552.188L263.098 551.733C263.334 551.07 263.68 550.535 264.135 550.128C264.594 549.716 265.122 549.418 265.718 549.233C266.315 549.044 266.942 548.949 267.6 548.949C268.036 548.949 268.498 549.001 268.985 549.105C269.478 549.205 269.937 549.389 270.363 549.659C270.794 549.929 271.147 550.315 271.422 550.817C271.696 551.314 271.833 551.96 271.833 552.756V560H269.76V558.509H269.674C269.537 558.783 269.331 559.053 269.056 559.318C268.782 559.583 268.429 559.804 267.998 559.979C267.567 560.154 267.051 560.241 266.45 560.241ZM266.912 558.537C267.499 558.537 268.001 558.421 268.417 558.189C268.839 557.957 269.158 557.654 269.376 557.28C269.599 556.901 269.71 556.496 269.71 556.065V554.659C269.634 554.735 269.487 554.806 269.27 554.872C269.056 554.934 268.813 554.988 268.538 555.036C268.263 555.078 267.996 555.118 267.735 555.156C267.475 555.189 267.257 555.218 267.082 555.241C266.67 555.294 266.294 555.381 265.953 555.504C265.617 555.627 265.347 555.805 265.143 556.037C264.944 556.264 264.845 556.567 264.845 556.946C264.845 557.472 265.039 557.869 265.427 558.139C265.815 558.404 266.31 558.537 266.912 558.537ZM281.168 560V550.902H278.554C277.934 550.902 277.451 551.046 277.105 551.335C276.759 551.624 276.587 552.003 276.587 552.472C276.587 552.936 276.745 553.31 277.062 553.594C277.384 553.873 277.834 554.013 278.412 554.013H281.786V555.732H278.412C277.607 555.732 276.911 555.599 276.324 555.334C275.741 555.064 275.292 554.683 274.974 554.19C274.662 553.698 274.506 553.116 274.506 552.443C274.506 551.757 274.667 551.165 274.989 550.668C275.315 550.166 275.782 549.777 276.388 549.503C276.999 549.228 277.721 549.091 278.554 549.091H283.163V560H281.168ZM274.009 560L277.084 554.489H279.257L276.182 560H274.009ZM295.878 560.22C294.822 560.22 293.913 559.981 293.151 559.503C292.393 559.02 291.811 558.355 291.404 557.507C290.997 556.66 290.793 555.689 290.793 554.595C290.793 553.487 291.001 552.509 291.418 551.662C291.835 550.81 292.422 550.144 293.179 549.666C293.937 549.188 294.829 548.949 295.857 548.949C296.685 548.949 297.424 549.103 298.073 549.411C298.721 549.714 299.245 550.14 299.642 550.689C300.045 551.238 300.284 551.88 300.36 552.614H298.293C298.179 552.102 297.919 551.662 297.512 551.293C297.109 550.923 296.569 550.739 295.892 550.739C295.301 550.739 294.782 550.895 294.337 551.207C293.897 551.515 293.553 551.955 293.307 552.528C293.061 553.097 292.938 553.769 292.938 554.545C292.938 555.341 293.059 556.027 293.3 556.605C293.542 557.183 293.882 557.63 294.323 557.947C294.768 558.265 295.291 558.423 295.892 558.423C296.295 558.423 296.659 558.35 296.986 558.203C297.318 558.052 297.595 557.836 297.817 557.557C298.044 557.277 298.203 556.941 298.293 556.548H300.36C300.284 557.254 300.054 557.884 299.671 558.438C299.287 558.991 298.774 559.427 298.13 559.744C297.49 560.062 296.74 560.22 295.878 560.22ZM307.332 560.22C306.258 560.22 305.332 559.991 304.555 559.531C303.784 559.067 303.187 558.416 302.766 557.578C302.349 556.735 302.141 555.748 302.141 554.616C302.141 553.499 302.349 552.514 302.766 551.662C303.187 550.81 303.774 550.144 304.527 549.666C305.285 549.188 306.17 548.949 307.183 548.949C307.799 548.949 308.395 549.051 308.973 549.254C309.551 549.458 310.069 549.777 310.528 550.213C310.988 550.649 311.35 551.214 311.615 551.911C311.88 552.602 312.013 553.442 312.013 554.432V555.185H303.341V553.594H309.932C309.932 553.035 309.818 552.54 309.591 552.109C309.364 551.674 309.044 551.33 308.632 551.08C308.225 550.829 307.747 550.703 307.197 550.703C306.601 550.703 306.08 550.85 305.635 551.143C305.195 551.432 304.854 551.811 304.612 552.28C304.375 552.744 304.257 553.248 304.257 553.793V555.036C304.257 555.765 304.385 556.385 304.641 556.896C304.901 557.408 305.263 557.798 305.727 558.068C306.191 558.333 306.733 558.466 307.354 558.466C307.756 558.466 308.123 558.409 308.455 558.295C308.786 558.177 309.072 558.002 309.314 557.77C309.555 557.538 309.74 557.251 309.868 556.911L311.878 557.273C311.717 557.865 311.428 558.383 311.011 558.828C310.599 559.268 310.081 559.612 309.456 559.858C308.836 560.099 308.128 560.22 307.332 560.22ZM313.407 550.923V549.091H322.611V550.923H319.053V560H316.979V550.923H313.407ZM324.857 560V549.091H326.981V553.665H328.004L331.604 549.091H334.232L330.006 554.396L334.282 560H331.647L328.359 555.639H326.981V560H324.857ZM339.106 560.241C338.415 560.241 337.79 560.114 337.231 559.858C336.672 559.598 336.23 559.221 335.903 558.729C335.581 558.236 335.42 557.633 335.42 556.918C335.42 556.302 335.538 555.795 335.775 555.398C336.012 555 336.332 554.685 336.734 554.453C337.136 554.221 337.586 554.046 338.083 553.928C338.581 553.809 339.087 553.719 339.603 553.658C340.257 553.582 340.787 553.52 341.194 553.473C341.601 553.421 341.897 553.338 342.082 553.224C342.267 553.111 342.359 552.926 342.359 552.67V552.621C342.359 552 342.184 551.52 341.833 551.179C341.488 550.838 340.972 550.668 340.285 550.668C339.57 550.668 339.007 550.826 338.595 551.143C338.188 551.456 337.906 551.804 337.75 552.188L335.754 551.733C335.991 551.07 336.336 550.535 336.791 550.128C337.25 549.716 337.778 549.418 338.375 549.233C338.971 549.044 339.599 548.949 340.257 548.949C340.692 548.949 341.154 549.001 341.642 549.105C342.134 549.205 342.593 549.389 343.02 549.659C343.45 549.929 343.803 550.315 344.078 550.817C344.352 551.314 344.49 551.96 344.49 552.756V560H342.416V558.509H342.331C342.193 558.783 341.987 559.053 341.713 559.318C341.438 559.583 341.085 559.804 340.654 559.979C340.224 560.154 339.708 560.241 339.106 560.241ZM339.568 558.537C340.155 558.537 340.657 558.421 341.074 558.189C341.495 557.957 341.815 557.654 342.032 557.28C342.255 556.901 342.366 556.496 342.366 556.065V554.659C342.29 554.735 342.144 554.806 341.926 554.872C341.713 554.934 341.469 554.988 341.194 555.036C340.92 555.078 340.652 555.118 340.392 555.156C340.131 555.189 339.913 555.218 339.738 555.241C339.326 555.294 338.95 555.381 338.609 555.504C338.273 555.627 338.003 555.805 337.799 556.037C337.6 556.264 337.501 556.567 337.501 556.946C337.501 557.472 337.695 557.869 338.083 558.139C338.472 558.404 338.967 558.537 339.568 558.537Z" fill="#058CD7"/>
<path d="M587 323.75C599.705 323.75 612.286 321.247 624.025 316.385C635.763 311.523 646.429 304.396 655.413 295.412C664.397 286.428 671.523 275.762 676.385 264.024C681.248 252.286 683.75 239.705 683.75 227C683.75 214.294 681.248 201.713 676.385 189.975C671.523 178.237 664.397 167.571 655.413 158.587C646.429 149.603 635.763 142.476 624.025 137.614C612.286 132.752 599.705 130.25 587 130.25C561.34 130.25 536.732 140.443 518.587 158.587C500.443 176.731 490.25 201.34 490.25 227C490.25 252.659 500.443 277.268 518.587 295.412C536.732 313.556 561.34 323.75 587 323.75ZM705.25 227C705.25 292.306 652.306 345.25 587 345.25C521.694 345.25 468.75 292.306 468.75 227C468.75 161.693 521.694 108.75 587 108.75C652.306 108.75 705.25 161.693 705.25 227ZM576.25 286.125V205.5H597.75V286.125H576.25ZM597.75 189.375H576.207V167.832H597.75V189.375Z" fill="#C8D2D7"/>
<rect x="456.363" y="96.3643" width="261.288" height="261.288" stroke="#AFBEC3"/>
<path d="M467.71 96.8643V357.152" stroke="#AFBEC3"/>
<path d="M717.152 346.308L456.865 346.308" stroke="#AFBEC3"/>
<path d="M717.152 335.461L456.865 335.461" stroke="#AFBEC3"/>
<path d="M717.152 324.616L456.865 324.616" stroke="#AFBEC3"/>
<path d="M717.152 313.771L456.865 313.771" stroke="#AFBEC3"/>
<path d="M717.152 302.925L456.865 302.925" stroke="#AFBEC3"/>
<path d="M717.152 292.08L456.865 292.08" stroke="#AFBEC3"/>
<path d="M717.152 281.235L456.865 281.235" stroke="#AFBEC3"/>
<path d="M717.152 270.389L456.865 270.389" stroke="#AFBEC3"/>
<path d="M717.152 259.544L456.865 259.544" stroke="#AFBEC3"/>
<path d="M717.152 248.7L456.865 248.7" stroke="#AFBEC3"/>
<path d="M717.152 237.853L456.865 237.853" stroke="#AFBEC3"/>
<path d="M717.152 227.009L456.865 227.009" stroke="#AFBEC3"/>
<path d="M717.152 216.163L456.865 216.163" stroke="#AFBEC3"/>
<path d="M717.152 205.318L456.865 205.318" stroke="#AFBEC3"/>
<path d="M717.152 194.473L456.865 194.473" stroke="#AFBEC3"/>
<path d="M717.152 183.627L456.865 183.627" stroke="#AFBEC3"/>
<path d="M717.152 172.782L456.865 172.782" stroke="#AFBEC3"/>
<path d="M717.152 161.937L456.865 161.937" stroke="#AFBEC3"/>
<path d="M717.152 151.091L456.865 151.091" stroke="#AFBEC3"/>
<path d="M717.152 140.245L456.865 140.245" stroke="#AFBEC3"/>
<path d="M717.152 129.4L456.865 129.4" stroke="#AFBEC3"/>
<path d="M717.152 118.555L456.865 118.555" stroke="#AFBEC3"/>
<path d="M717.152 107.71L456.865 107.71" stroke="#AFBEC3"/>
<path d="M500.246 96.8643V357.152" stroke="#AFBEC3"/>
<path d="M532.781 96.8643V357.152" stroke="#AFBEC3"/>
<path d="M565.318 96.8643V357.152" stroke="#AFBEC3"/>
<path d="M597.854 96.8643V357.152" stroke="#AFBEC3"/>
<path d="M630.39 96.8643V357.152" stroke="#AFBEC3"/>
<path d="M662.925 96.8643V357.152" stroke="#AFBEC3"/>
<path d="M695.461 96.8643V357.152" stroke="#AFBEC3"/>
<path d="M706.305 96.8643V357.152" stroke="#AFBEC3"/>
<path d="M478.552 96.8643V357.152" stroke="#AFBEC3"/>
<path d="M511.089 96.8643V357.152" stroke="#AFBEC3"/>
<path d="M543.625 96.8643V357.152" stroke="#AFBEC3"/>
<path d="M576.161 96.8643V357.152" stroke="#AFBEC3"/>
<path d="M608.697 96.8643V357.152" stroke="#AFBEC3"/>
<path d="M641.233 96.8643V357.152" stroke="#AFBEC3"/>
<path d="M673.769 96.8643V357.152" stroke="#AFBEC3"/>
<path d="M489.399 96.8643V357.152" stroke="#AFBEC3"/>
<path d="M521.936 96.8643V357.152" stroke="#AFBEC3"/>
<path d="M554.473 96.8643V357.152" stroke="#AFBEC3"/>
<path d="M587.007 96.8643V357.152" stroke="#AFBEC3"/>
<path d="M619.544 96.8643V357.152" stroke="#AFBEC3"/>
<path d="M652.08 96.8643V357.152" stroke="#AFBEC3"/>
<path d="M684.616 96.8643V357.152" stroke="#AFBEC3"/>
<path d="M456 96L718 358" stroke="#AFBEC3"/>
<path d="M718 96L456 358" stroke="#AFBEC3"/>
<rect x="455.865" y="95.8643" width="262.271" height="262.271" stroke="#058CD7" stroke-width="2"/>
<rect x="478.482" y="118.481" width="217.036" height="217.036" stroke="#058CD7" stroke-width="2"/>
<rect x="468.106" y="129.723" width="237.789" height="194.554" stroke="#058CD7" stroke-width="2"/>
<rect x="489.722" y="108.105" width="194.554" height="237.789" stroke="#058CD7" stroke-width="2"/>
<circle cx="587.001" cy="227" r="117.894" stroke="#058CD7" stroke-width="2"/>
<path d="M521.352 393L516.466 386.48H514.918V393H512.723V378.455H514.918V384.598H515.635L521.132 378.455H523.81L517.993 384.967L524.03 393H521.352ZM525.892 397.091V382.091H527.966V383.859H528.144C528.267 383.632 528.444 383.369 528.676 383.071C528.908 382.773 529.23 382.512 529.642 382.29C530.054 382.062 530.599 381.949 531.276 381.949C532.157 381.949 532.943 382.171 533.634 382.616C534.325 383.062 534.867 383.703 535.26 384.541C535.658 385.379 535.857 386.388 535.857 387.567C535.857 388.746 535.66 389.757 535.267 390.599C534.874 391.437 534.335 392.084 533.648 392.538C532.962 392.988 532.178 393.213 531.297 393.213C530.634 393.213 530.092 393.102 529.671 392.879C529.254 392.657 528.927 392.396 528.691 392.098C528.454 391.8 528.272 391.535 528.144 391.303H528.016V397.091H525.892ZM527.973 387.545C527.973 388.312 528.085 388.985 528.307 389.562C528.53 390.14 528.852 390.592 529.273 390.919C529.694 391.241 530.211 391.402 530.821 391.402C531.456 391.402 531.986 391.234 532.412 390.898C532.838 390.557 533.16 390.095 533.378 389.513C533.601 388.93 533.712 388.275 533.712 387.545C533.712 386.826 533.603 386.179 533.385 385.607C533.172 385.034 532.85 384.581 532.419 384.25C531.993 383.919 531.461 383.753 530.821 383.753C530.206 383.753 529.685 383.911 529.259 384.229C528.837 384.546 528.518 384.989 528.3 385.557C528.082 386.125 527.973 386.788 527.973 387.545ZM539.207 397.091C538.89 397.091 538.601 397.065 538.341 397.013C538.08 396.965 537.886 396.913 537.759 396.857L538.27 395.116C538.658 395.221 539.004 395.266 539.307 395.251C539.61 395.237 539.877 395.124 540.109 394.911C540.346 394.697 540.554 394.349 540.734 393.866L540.997 393.142L537.006 382.091H539.278L542.041 390.557H542.155L544.918 382.091H547.197L542.702 394.456C542.493 395.024 542.228 395.505 541.906 395.898C541.584 396.295 541.201 396.594 540.756 396.793C540.311 396.991 539.795 397.091 539.207 397.091ZM556.168 382.091V383.923H551.288V393H549.193V382.091H556.168ZM556.654 393L556.647 391.161H557.038C557.341 391.161 557.594 391.097 557.798 390.969C558.006 390.836 558.176 390.614 558.309 390.301C558.442 389.989 558.543 389.558 558.614 389.009C558.685 388.455 558.737 387.759 558.771 386.92L558.962 382.091H566.576V393H564.495V383.923H560.93L560.759 387.631C560.717 388.53 560.624 389.316 560.482 389.989C560.345 390.661 560.144 391.222 559.879 391.672C559.613 392.117 559.272 392.451 558.856 392.673C558.439 392.891 557.933 393 557.336 393H556.654ZM572.583 393.241C571.891 393.241 571.266 393.114 570.708 392.858C570.149 392.598 569.706 392.221 569.38 391.729C569.058 391.236 568.897 390.633 568.897 389.918C568.897 389.302 569.015 388.795 569.252 388.398C569.489 388 569.808 387.685 570.211 387.453C570.613 387.221 571.063 387.046 571.56 386.928C572.057 386.809 572.564 386.719 573.08 386.658C573.733 386.582 574.264 386.52 574.671 386.473C575.078 386.421 575.374 386.338 575.559 386.224C575.743 386.111 575.836 385.926 575.836 385.67V385.621C575.836 385 575.66 384.52 575.31 384.179C574.964 383.838 574.448 383.668 573.762 383.668C573.047 383.668 572.483 383.826 572.071 384.143C571.664 384.456 571.382 384.804 571.226 385.188L569.23 384.733C569.467 384.07 569.813 383.535 570.267 383.128C570.727 382.716 571.255 382.418 571.851 382.233C572.448 382.044 573.075 381.949 573.733 381.949C574.169 381.949 574.631 382.001 575.118 382.105C575.611 382.205 576.07 382.389 576.496 382.659C576.927 382.929 577.28 383.315 577.554 383.817C577.829 384.314 577.966 384.96 577.966 385.756V393H575.892V391.509H575.807C575.67 391.783 575.464 392.053 575.189 392.318C574.915 392.583 574.562 392.804 574.131 392.979C573.7 393.154 573.184 393.241 572.583 393.241ZM573.044 391.537C573.632 391.537 574.133 391.421 574.55 391.189C574.971 390.957 575.291 390.654 575.509 390.28C575.731 389.901 575.843 389.496 575.843 389.065V387.659C575.767 387.735 575.62 387.806 575.402 387.872C575.189 387.934 574.945 387.988 574.671 388.036C574.396 388.078 574.129 388.118 573.868 388.156C573.608 388.189 573.39 388.218 573.215 388.241C572.803 388.294 572.426 388.381 572.086 388.504C571.749 388.627 571.48 388.805 571.276 389.037C571.077 389.264 570.978 389.567 570.978 389.946C570.978 390.472 571.172 390.869 571.56 391.139C571.948 391.404 572.443 391.537 573.044 391.537ZM587.3 393V383.902H584.687C584.067 383.902 583.584 384.046 583.238 384.335C582.892 384.624 582.719 385.003 582.719 385.472C582.719 385.936 582.878 386.31 583.195 386.594C583.517 386.873 583.967 387.013 584.545 387.013H587.918V388.732H584.545C583.74 388.732 583.044 388.599 582.457 388.334C581.874 388.064 581.424 387.683 581.107 387.19C580.795 386.698 580.638 386.116 580.638 385.443C580.638 384.757 580.799 384.165 581.121 383.668C581.448 383.166 581.915 382.777 582.521 382.503C583.131 382.228 583.853 382.091 584.687 382.091H589.296V393H587.3ZM580.141 393L583.217 387.489H585.39L582.315 393H580.141ZM599.497 390.024L604.305 382.091H606.592V393H604.511V385.06L599.724 393H597.416V382.091H599.497V390.024ZM609.447 393V382.091H611.571V386.665H612.593L616.194 382.091H618.822L614.596 387.396L618.872 393H616.237L612.949 388.639H611.571V393H609.447ZM624.667 393.22C623.645 393.22 622.752 392.986 621.99 392.517C621.227 392.048 620.636 391.393 620.214 390.55C619.793 389.707 619.582 388.722 619.582 387.595C619.582 386.464 619.793 385.474 620.214 384.626C620.636 383.779 621.227 383.121 621.99 382.652C622.752 382.183 623.645 381.949 624.667 381.949C625.69 381.949 626.583 382.183 627.345 382.652C628.107 383.121 628.699 383.779 629.12 384.626C629.542 385.474 629.752 386.464 629.752 387.595C629.752 388.722 629.542 389.707 629.12 390.55C628.699 391.393 628.107 392.048 627.345 392.517C626.583 392.986 625.69 393.22 624.667 393.22ZM624.674 391.438C625.337 391.438 625.886 391.262 626.322 390.912C626.758 390.562 627.08 390.095 627.288 389.513C627.501 388.93 627.608 388.289 627.608 387.588C627.608 386.892 627.501 386.253 627.288 385.67C627.08 385.083 626.758 384.612 626.322 384.257C625.886 383.902 625.337 383.724 624.674 383.724C624.007 383.724 623.453 383.902 623.012 384.257C622.577 384.612 622.252 385.083 622.039 385.67C621.831 386.253 621.727 386.892 621.727 387.588C621.727 388.289 621.831 388.93 622.039 389.513C622.252 390.095 622.577 390.562 623.012 390.912C623.453 391.262 624.007 391.438 624.674 391.438ZM639.516 386.629V388.469H633.607V386.629H639.516ZM634.204 382.091V393H632.123V382.091H634.204ZM641.001 382.091V393H638.927V382.091H641.001ZM643.842 393V382.091H645.965V386.665H646.988L650.589 382.091H653.217L648.991 387.396L653.266 393H650.631L647.343 388.639H645.965V393H643.842ZM658.091 393.241C657.399 393.241 656.774 393.114 656.216 392.858C655.657 392.598 655.214 392.221 654.887 391.729C654.565 391.236 654.404 390.633 654.404 389.918C654.404 389.302 654.523 388.795 654.76 388.398C654.996 388 655.316 387.685 655.718 387.453C656.121 387.221 656.571 387.046 657.068 386.928C657.565 386.809 658.072 386.719 658.588 386.658C659.241 386.582 659.771 386.52 660.179 386.473C660.586 386.421 660.882 386.338 661.066 386.224C661.251 386.111 661.343 385.926 661.343 385.67V385.621C661.343 385 661.168 384.52 660.818 384.179C660.472 383.838 659.956 383.668 659.27 383.668C658.555 383.668 657.991 383.826 657.579 384.143C657.172 384.456 656.89 384.804 656.734 385.188L654.738 384.733C654.975 384.07 655.321 383.535 655.775 383.128C656.234 382.716 656.762 382.418 657.359 382.233C657.956 382.044 658.583 381.949 659.241 381.949C659.677 381.949 660.138 382.001 660.626 382.105C661.118 382.205 661.578 382.389 662.004 382.659C662.435 382.929 662.788 383.315 663.062 383.817C663.337 384.314 663.474 384.96 663.474 385.756V393H661.4V391.509H661.315C661.178 391.783 660.972 392.053 660.697 392.318C660.422 392.583 660.07 392.804 659.639 392.979C659.208 393.154 658.692 393.241 658.091 393.241ZM658.552 391.537C659.139 391.537 659.641 391.421 660.058 391.189C660.479 390.957 660.799 390.654 661.017 390.28C661.239 389.901 661.35 389.496 661.35 389.065V387.659C661.275 387.735 661.128 387.806 660.91 387.872C660.697 387.934 660.453 387.988 660.179 388.036C659.904 388.078 659.636 388.118 659.376 388.156C659.116 388.189 658.898 388.218 658.723 388.241C658.311 388.294 657.934 388.381 657.593 388.504C657.257 388.627 656.987 388.805 656.784 389.037C656.585 389.264 656.485 389.567 656.485 389.946C656.485 390.472 656.68 390.869 657.068 391.139C657.456 391.404 657.951 391.537 658.552 391.537Z" fill="#058CD7"/>
<rect x="768.363" y="96.3643" width="261.288" height="261.288" stroke="#AFBEC3"/>
<path d="M779.71 96.8643V357.152" stroke="#AFBEC3"/>
<path d="M1029.15 346.308L768.865 346.308" stroke="#AFBEC3"/>
<path d="M1029.15 335.461L768.865 335.461" stroke="#AFBEC3"/>
<path d="M1029.15 324.616L768.865 324.616" stroke="#AFBEC3"/>
<path d="M1029.15 313.771L768.865 313.771" stroke="#AFBEC3"/>
<path d="M1029.15 302.925L768.865 302.925" stroke="#AFBEC3"/>
<path d="M1029.15 292.08L768.865 292.08" stroke="#AFBEC3"/>
<path d="M1029.15 281.235L768.865 281.235" stroke="#AFBEC3"/>
<path d="M1029.15 270.389L768.865 270.389" stroke="#AFBEC3"/>
<path d="M1029.15 259.544L768.865 259.544" stroke="#AFBEC3"/>
<path d="M1029.15 248.7L768.865 248.7" stroke="#AFBEC3"/>
<path d="M1029.15 237.853L768.865 237.853" stroke="#AFBEC3"/>
<path d="M1029.15 227.009L768.865 227.009" stroke="#AFBEC3"/>
<path d="M1029.15 216.163L768.865 216.163" stroke="#AFBEC3"/>
<path d="M1029.15 205.318L768.865 205.318" stroke="#AFBEC3"/>
<path d="M1029.15 194.473L768.865 194.473" stroke="#AFBEC3"/>
<path d="M1029.15 183.627L768.865 183.627" stroke="#AFBEC3"/>
<path d="M1029.15 172.782L768.865 172.782" stroke="#AFBEC3"/>
<path d="M1029.15 161.937L768.865 161.937" stroke="#AFBEC3"/>
<path d="M1029.15 151.091L768.865 151.091" stroke="#AFBEC3"/>
<path d="M1029.15 140.245L768.865 140.245" stroke="#AFBEC3"/>
<path d="M1029.15 129.4L768.865 129.4" stroke="#AFBEC3"/>
<path d="M1029.15 118.555L768.865 118.555" stroke="#AFBEC3"/>
<path d="M1029.15 107.71L768.865 107.71" stroke="#AFBEC3"/>
<path d="M812.246 96.8643V357.152" stroke="#AFBEC3"/>
<path d="M844.781 96.8643V357.152" stroke="#AFBEC3"/>
<path d="M877.318 96.8643V357.152" stroke="#AFBEC3"/>
<path d="M909.854 96.8643V357.152" stroke="#AFBEC3"/>
<path d="M942.39 96.8643V357.152" stroke="#AFBEC3"/>
<path d="M974.925 96.8643V357.152" stroke="#AFBEC3"/>
<path d="M1007.46 96.8643V357.152" stroke="#AFBEC3"/>
<path d="M1018.3 96.8643V357.152" stroke="#AFBEC3"/>
<path d="M790.552 96.8643V357.152" stroke="#AFBEC3"/>
<path d="M823.089 96.8643V357.152" stroke="#AFBEC3"/>
<path d="M855.625 96.8643V357.152" stroke="#AFBEC3"/>
<path d="M888.161 96.8643V357.152" stroke="#AFBEC3"/>
<path d="M920.697 96.8643V357.152" stroke="#AFBEC3"/>
<path d="M953.233 96.8643V357.152" stroke="#AFBEC3"/>
<path d="M985.769 96.8643V357.152" stroke="#AFBEC3"/>
<path d="M801.399 96.8643V357.152" stroke="#AFBEC3"/>
<path d="M833.936 96.8643V357.152" stroke="#AFBEC3"/>
<path d="M866.473 96.8643V357.152" stroke="#AFBEC3"/>
<path d="M899.007 96.8643V357.152" stroke="#AFBEC3"/>
<path d="M931.544 96.8643V357.152" stroke="#AFBEC3"/>
<path d="M964.08 96.8643V357.152" stroke="#AFBEC3"/>
<path d="M996.616 96.8643V357.152" stroke="#AFBEC3"/>
<path d="M768 96L1030 358" stroke="#AFBEC3"/>
<path d="M1030 96L768 358" stroke="#AFBEC3"/>
<rect x="767.865" y="95.8643" width="262.271" height="262.271" stroke="#058CD7" stroke-width="2"/>
<path d="M790.667 118.667H1007.33V335.333H790.667V118.667ZM812.334 140.333V313.667H985.667V140.333H812.334ZM868.364 181.034L899 211.682L929.637 181.034L944.966 196.363L914.319 227L944.966 257.637L929.637 272.966L899 242.318L868.364 272.966L853.034 257.637L883.682 227L853.034 196.363L868.364 181.034Z" fill="#C8D2D7"/>
<rect x="790.482" y="118.481" width="217.036" height="217.036" stroke="#058CD7" stroke-width="2"/>
<rect x="780.106" y="129.723" width="237.789" height="194.554" stroke="#058CD7" stroke-width="2"/>
<rect x="801.722" y="108.105" width="194.554" height="237.789" stroke="#058CD7" stroke-width="2"/>
<circle cx="899.001" cy="227" r="117.894" stroke="#058CD7" stroke-width="2"/>
<path d="M814.583 393L809.696 386.48H808.148V393H805.953V378.455H808.148V384.598H808.865L814.363 378.455H817.04L811.223 384.967L817.26 393H814.583ZM819.123 393V382.091H823.647C824.878 382.091 825.853 382.354 826.573 382.879C827.293 383.4 827.653 384.108 827.653 385.003C827.653 385.642 827.449 386.149 827.042 386.523C826.635 386.897 826.095 387.148 825.423 387.276C825.91 387.332 826.358 387.479 826.765 387.716C827.172 387.948 827.499 388.26 827.745 388.653C827.996 389.046 828.121 389.515 828.121 390.06C828.121 390.637 827.972 391.149 827.674 391.594C827.376 392.034 826.942 392.38 826.374 392.631C825.811 392.877 825.131 393 824.336 393H819.123ZM821.119 391.224H824.336C824.862 391.224 825.273 391.099 825.572 390.848C825.87 390.597 826.019 390.256 826.019 389.825C826.019 389.319 825.87 388.921 825.572 388.632C825.273 388.339 824.862 388.192 824.336 388.192H821.119V391.224ZM821.119 386.636H823.668C824.066 386.636 824.407 386.58 824.691 386.466C824.98 386.352 825.2 386.191 825.352 385.983C825.508 385.77 825.586 385.519 825.586 385.23C825.586 384.809 825.413 384.48 825.067 384.243C824.722 384.006 824.248 383.888 823.647 383.888H821.119V386.636ZM833.626 393.241C832.934 393.241 832.309 393.114 831.751 392.858C831.192 392.598 830.749 392.221 830.423 391.729C830.101 391.236 829.94 390.633 829.94 389.918C829.94 389.302 830.058 388.795 830.295 388.398C830.531 388 830.851 387.685 831.254 387.453C831.656 387.221 832.106 387.046 832.603 386.928C833.1 386.809 833.607 386.719 834.123 386.658C834.776 386.582 835.307 386.52 835.714 386.473C836.121 386.421 836.417 386.338 836.602 386.224C836.786 386.111 836.879 385.926 836.879 385.67V385.621C836.879 385 836.703 384.52 836.353 384.179C836.007 383.838 835.491 383.668 834.805 383.668C834.09 383.668 833.526 383.826 833.114 384.143C832.707 384.456 832.425 384.804 832.269 385.188L830.273 384.733C830.51 384.07 830.856 383.535 831.31 383.128C831.77 382.716 832.298 382.418 832.894 382.233C833.491 382.044 834.118 381.949 834.776 381.949C835.212 381.949 835.674 382.001 836.161 382.105C836.654 382.205 837.113 382.389 837.539 382.659C837.97 382.929 838.323 383.315 838.597 383.817C838.872 384.314 839.009 384.96 839.009 385.756V393H836.935V391.509H836.85C836.713 391.783 836.507 392.053 836.232 392.318C835.958 392.583 835.605 392.804 835.174 392.979C834.743 393.154 834.227 393.241 833.626 393.241ZM834.087 391.537C834.674 391.537 835.176 391.421 835.593 391.189C836.014 390.957 836.334 390.654 836.552 390.28C836.774 389.901 836.886 389.496 836.886 389.065V387.659C836.81 387.735 836.663 387.806 836.445 387.872C836.232 387.934 835.988 387.988 835.714 388.036C835.439 388.078 835.172 388.118 834.911 388.156C834.651 388.189 834.433 388.218 834.258 388.241C833.846 388.294 833.469 388.381 833.129 388.504C832.792 388.627 832.522 388.805 832.319 389.037C832.12 389.264 832.021 389.567 832.021 389.946C832.021 390.472 832.215 390.869 832.603 391.139C832.991 391.404 833.486 391.537 834.087 391.537ZM840.772 396.146V391.161H841.66C841.887 390.952 842.079 390.704 842.235 390.415C842.396 390.126 842.531 389.783 842.64 389.385C842.754 388.987 842.849 388.523 842.924 387.993C843 387.458 843.066 386.847 843.123 386.161L843.464 382.091H850.879V391.161H852.555V396.146H850.481V393H842.875V396.146H840.772ZM843.933 391.161H848.805V383.909H845.368L845.14 386.161C845.031 387.306 844.894 388.301 844.728 389.143C844.563 389.982 844.297 390.654 843.933 391.161ZM854.631 397.091V382.091H856.705V383.859H856.882C857.005 383.632 857.183 383.369 857.415 383.071C857.647 382.773 857.969 382.512 858.381 382.29C858.793 382.062 859.337 381.949 860.014 381.949C860.895 381.949 861.681 382.171 862.372 382.616C863.063 383.062 863.606 383.703 863.999 384.541C864.396 385.379 864.595 386.388 864.595 387.567C864.595 388.746 864.399 389.757 864.006 390.599C863.613 391.437 863.073 392.084 862.386 392.538C861.7 392.988 860.916 393.213 860.036 393.213C859.373 393.213 858.83 393.102 858.409 392.879C857.992 392.657 857.666 392.396 857.429 392.098C857.192 391.8 857.01 391.535 856.882 391.303H856.754V397.091H854.631ZM856.712 387.545C856.712 388.312 856.823 388.985 857.045 389.562C857.268 390.14 857.59 390.592 858.011 390.919C858.433 391.241 858.949 391.402 859.56 391.402C860.194 391.402 860.724 391.234 861.151 390.898C861.577 390.557 861.899 390.095 862.116 389.513C862.339 388.93 862.45 388.275 862.45 387.545C862.45 386.826 862.341 386.179 862.124 385.607C861.911 385.034 861.589 384.581 861.158 384.25C860.732 383.919 860.199 383.753 859.56 383.753C858.944 383.753 858.423 383.911 857.997 384.229C857.576 384.546 857.256 384.989 857.038 385.557C856.821 386.125 856.712 386.788 856.712 387.545ZM870.149 393.241C869.458 393.241 868.833 393.114 868.274 392.858C867.715 392.598 867.273 392.221 866.946 391.729C866.624 391.236 866.463 390.633 866.463 389.918C866.463 389.302 866.581 388.795 866.818 388.398C867.055 388 867.375 387.685 867.777 387.453C868.179 387.221 868.629 387.046 869.126 386.928C869.624 386.809 870.13 386.719 870.646 386.658C871.3 386.582 871.83 386.52 872.237 386.473C872.644 386.421 872.94 386.338 873.125 386.224C873.31 386.111 873.402 385.926 873.402 385.67V385.621C873.402 385 873.227 384.52 872.876 384.179C872.531 383.838 872.015 383.668 871.328 383.668C870.613 383.668 870.05 383.826 869.638 384.143C869.231 384.456 868.949 384.804 868.793 385.188L866.797 384.733C867.034 384.07 867.379 383.535 867.834 383.128C868.293 382.716 868.821 382.418 869.418 382.233C870.014 382.044 870.642 381.949 871.3 381.949C871.735 381.949 872.197 382.001 872.685 382.105C873.177 382.205 873.636 382.389 874.062 382.659C874.493 382.929 874.846 383.315 875.121 383.817C875.395 384.314 875.533 384.96 875.533 385.756V393H873.459V391.509H873.374C873.236 391.783 873.03 392.053 872.756 392.318C872.481 392.583 872.128 392.804 871.697 392.979C871.267 393.154 870.75 393.241 870.149 393.241ZM870.611 391.537C871.198 391.537 871.7 391.421 872.116 391.189C872.538 390.957 872.857 390.654 873.075 390.28C873.298 389.901 873.409 389.496 873.409 389.065V387.659C873.333 387.735 873.187 387.806 872.969 387.872C872.756 387.934 872.512 387.988 872.237 388.036C871.963 388.078 871.695 388.118 871.435 388.156C871.174 388.189 870.956 388.218 870.781 388.241C870.369 388.294 869.993 388.381 869.652 388.504C869.316 388.627 869.046 388.805 868.842 389.037C868.643 389.264 868.544 389.567 868.544 389.946C868.544 390.472 868.738 390.869 869.126 391.139C869.515 391.404 870.009 391.537 870.611 391.537ZM877.008 383.923V382.091H886.213V383.923H882.654V393H880.581V383.923H877.008ZM895.852 386.629V388.469H889.943V386.629H895.852ZM890.54 382.091V393H888.459V382.091H890.54ZM897.337 382.091V393H895.263V382.091H897.337ZM903.352 393.241C902.661 393.241 902.036 393.114 901.477 392.858C900.919 392.598 900.476 392.221 900.149 391.729C899.827 391.236 899.666 390.633 899.666 389.918C899.666 389.302 899.785 388.795 900.021 388.398C900.258 388 900.578 387.685 900.98 387.453C901.383 387.221 901.832 387.046 902.33 386.928C902.827 386.809 903.333 386.719 903.849 386.658C904.503 386.582 905.033 386.52 905.44 386.473C905.848 386.421 906.143 386.338 906.328 386.224C906.513 386.111 906.605 385.926 906.605 385.67V385.621C906.605 385 906.43 384.52 906.08 384.179C905.734 383.838 905.218 383.668 904.531 383.668C903.816 383.668 903.253 383.826 902.841 384.143C902.434 384.456 902.152 384.804 901.996 385.188L900 384.733C900.237 384.07 900.582 383.535 901.037 383.128C901.496 382.716 902.024 382.418 902.621 382.233C903.217 382.044 903.845 381.949 904.503 381.949C904.938 381.949 905.4 382.001 905.888 382.105C906.38 382.205 906.839 382.389 907.266 382.659C907.696 382.929 908.049 383.315 908.324 383.817C908.598 384.314 908.736 384.96 908.736 385.756V393H906.662V391.509H906.577C906.439 391.783 906.233 392.053 905.959 392.318C905.684 392.583 905.331 392.804 904.901 392.979C904.47 393.154 903.954 393.241 903.352 393.241ZM903.814 391.537C904.401 391.537 904.903 391.421 905.32 391.189C905.741 390.957 906.061 390.654 906.278 390.28C906.501 389.901 906.612 389.496 906.612 389.065V387.659C906.536 387.735 906.39 387.806 906.172 387.872C905.959 387.934 905.715 387.988 905.44 388.036C905.166 388.078 904.898 388.118 904.638 388.156C904.377 388.189 904.16 388.218 903.984 388.241C903.572 388.294 903.196 388.381 902.855 388.504C902.519 388.627 902.249 388.805 902.045 389.037C901.847 389.264 901.747 389.567 901.747 389.946C901.747 390.472 901.941 390.869 902.33 391.139C902.718 391.404 903.213 391.537 903.814 391.537ZM918.07 393V383.902H915.456C914.836 383.902 914.353 384.046 914.007 384.335C913.662 384.624 913.489 385.003 913.489 385.472C913.489 385.936 913.648 386.31 913.965 386.594C914.287 386.873 914.737 387.013 915.314 387.013H918.688V388.732H915.314C914.509 388.732 913.813 388.599 913.226 388.334C912.644 388.064 912.194 387.683 911.877 387.19C911.564 386.698 911.408 386.116 911.408 385.443C911.408 384.757 911.569 384.165 911.891 383.668C912.218 383.166 912.684 382.777 913.29 382.503C913.901 382.228 914.623 382.091 915.456 382.091H920.066V393H918.07ZM910.911 393L913.986 387.489H916.159L913.084 393H910.911ZM930.266 390.024L935.075 382.091H937.362V393H935.281V385.06L930.494 393H928.185V382.091H930.266V390.024ZM940.217 393V382.091H942.34V386.665H943.363L946.964 382.091H949.592L945.366 387.396L949.641 393H947.006L943.718 388.639H942.34V393H940.217ZM955.437 393.22C954.414 393.22 953.522 392.986 952.759 392.517C951.997 392.048 951.405 391.393 950.984 390.55C950.562 389.707 950.352 388.722 950.352 387.595C950.352 386.464 950.562 385.474 950.984 384.626C951.405 383.779 951.997 383.121 952.759 382.652C953.522 382.183 954.414 381.949 955.437 381.949C956.46 381.949 957.352 382.183 958.114 382.652C958.877 383.121 959.469 383.779 959.89 384.626C960.311 385.474 960.522 386.464 960.522 387.595C960.522 388.722 960.311 389.707 959.89 390.55C959.469 391.393 958.877 392.048 958.114 392.517C957.352 392.986 956.46 393.22 955.437 393.22ZM955.444 391.438C956.107 391.438 956.656 391.262 957.092 390.912C957.527 390.562 957.849 390.095 958.058 389.513C958.271 388.93 958.377 388.289 958.377 387.588C958.377 386.892 958.271 386.253 958.058 385.67C957.849 385.083 957.527 384.612 957.092 384.257C956.656 383.902 956.107 383.724 955.444 383.724C954.776 383.724 954.222 383.902 953.782 384.257C953.346 384.612 953.022 385.083 952.809 385.67C952.601 386.253 952.496 386.892 952.496 387.588C952.496 388.289 952.601 388.93 952.809 389.513C953.022 390.095 953.346 390.562 953.782 390.912C954.222 391.262 954.776 391.438 955.444 391.438ZM970.286 386.629V388.469H964.377V386.629H970.286ZM964.973 382.091V393H962.892V382.091H964.973ZM971.77 382.091V393H969.696V382.091H971.77ZM974.611 393V382.091H976.735V386.665H977.757L981.358 382.091H983.986L979.76 387.396L984.036 393H981.401L978.113 388.639H976.735V393H974.611ZM988.86 393.241C988.169 393.241 987.544 393.114 986.985 392.858C986.426 392.598 985.984 392.221 985.657 391.729C985.335 391.236 985.174 390.633 985.174 389.918C985.174 389.302 985.292 388.795 985.529 388.398C985.766 388 986.085 387.685 986.488 387.453C986.89 387.221 987.34 387.046 987.837 386.928C988.335 386.809 988.841 386.719 989.357 386.658C990.011 386.582 990.541 386.52 990.948 386.473C991.355 386.421 991.651 386.338 991.836 386.224C992.021 386.111 992.113 385.926 992.113 385.67V385.621C992.113 385 991.938 384.52 991.587 384.179C991.242 383.838 990.726 383.668 990.039 383.668C989.324 383.668 988.761 383.826 988.349 384.143C987.942 384.456 987.66 384.804 987.504 385.188L985.508 384.733C985.745 384.07 986.09 383.535 986.545 383.128C987.004 382.716 987.532 382.418 988.129 382.233C988.725 382.044 989.353 381.949 990.011 381.949C990.446 381.949 990.908 382.001 991.396 382.105C991.888 382.205 992.347 382.389 992.773 382.659C993.204 382.929 993.557 383.315 993.832 383.817C994.106 384.314 994.244 384.96 994.244 385.756V393H992.17V391.509H992.085C991.947 391.783 991.741 392.053 991.467 392.318C991.192 392.583 990.839 392.804 990.408 392.979C989.978 393.154 989.461 393.241 988.86 393.241ZM989.322 391.537C989.909 391.537 990.411 391.421 990.827 391.189C991.249 390.957 991.568 390.654 991.786 390.28C992.009 389.901 992.12 389.496 992.12 389.065V387.659C992.044 387.735 991.897 387.806 991.68 387.872C991.467 387.934 991.223 387.988 990.948 388.036C990.674 388.078 990.406 388.118 990.146 388.156C989.885 388.189 989.667 388.218 989.492 388.241C989.08 388.294 988.704 388.381 988.363 388.504C988.027 388.627 987.757 388.805 987.553 389.037C987.354 389.264 987.255 389.567 987.255 389.946C987.255 390.472 987.449 390.869 987.837 391.139C988.226 391.404 988.72 391.537 989.322 391.537Z" fill="#058CD7"/>
<path d="M538.25 441.833H635.75V474.333H695.334V496H673.353L667.936 680.167H506.064L500.648 496H478.667V474.333H538.25V441.833ZM559.917 474.333H614.084V463.5H559.917V474.333ZM522.325 496L527.103 658.5H646.898L651.675 496H522.325ZM597.834 517.667V636.834H576.167V517.667H597.834Z" fill="#C8D2D7"/>
<rect x="456.363" y="430.364" width="261.288" height="261.288" stroke="#AFBEC3"/>
<path d="M467.71 430.864V691.152" stroke="#AFBEC3"/>
<path d="M717.152 680.308L456.865 680.308" stroke="#AFBEC3"/>
<path d="M717.152 669.461L456.865 669.461" stroke="#AFBEC3"/>
<path d="M717.152 658.616L456.865 658.616" stroke="#AFBEC3"/>
<path d="M717.152 647.771L456.865 647.771" stroke="#AFBEC3"/>
<path d="M717.152 636.925L456.865 636.925" stroke="#AFBEC3"/>
<path d="M717.152 626.08L456.865 626.08" stroke="#AFBEC3"/>
<path d="M717.152 615.235L456.865 615.235" stroke="#AFBEC3"/>
<path d="M717.152 604.389L456.865 604.389" stroke="#AFBEC3"/>
<path d="M717.152 593.544L456.865 593.544" stroke="#AFBEC3"/>
<path d="M717.152 582.7L456.865 582.7" stroke="#AFBEC3"/>
<path d="M717.152 571.853L456.865 571.853" stroke="#AFBEC3"/>
<path d="M717.152 561.009L456.865 561.009" stroke="#AFBEC3"/>
<path d="M717.152 550.163L456.865 550.163" stroke="#AFBEC3"/>
<path d="M717.152 539.318L456.865 539.318" stroke="#AFBEC3"/>
<path d="M717.152 528.473L456.865 528.473" stroke="#AFBEC3"/>
<path d="M717.152 517.627L456.865 517.627" stroke="#AFBEC3"/>
<path d="M717.152 506.782L456.865 506.782" stroke="#AFBEC3"/>
<path d="M717.152 495.937L456.865 495.937" stroke="#AFBEC3"/>
<path d="M717.152 485.091L456.865 485.091" stroke="#AFBEC3"/>
<path d="M717.152 474.245L456.865 474.245" stroke="#AFBEC3"/>
<path d="M717.152 463.4L456.865 463.4" stroke="#AFBEC3"/>
<path d="M717.152 452.555L456.865 452.555" stroke="#AFBEC3"/>
<path d="M717.152 441.71L456.865 441.71" stroke="#AFBEC3"/>
<path d="M500.246 430.864V691.152" stroke="#AFBEC3"/>
<path d="M532.781 430.864V691.152" stroke="#AFBEC3"/>
<path d="M565.318 430.864V691.152" stroke="#AFBEC3"/>
<path d="M597.854 430.864V691.152" stroke="#AFBEC3"/>
<path d="M630.39 430.864V691.152" stroke="#AFBEC3"/>
<path d="M662.925 430.864V691.152" stroke="#AFBEC3"/>
<path d="M695.461 430.864V691.152" stroke="#AFBEC3"/>
<path d="M706.305 430.864V691.152" stroke="#AFBEC3"/>
<path d="M478.552 430.864V691.152" stroke="#AFBEC3"/>
<path d="M511.089 430.864V691.152" stroke="#AFBEC3"/>
<path d="M543.625 430.864V691.152" stroke="#AFBEC3"/>
<path d="M576.161 430.864V691.152" stroke="#AFBEC3"/>
<path d="M608.697 430.864V691.152" stroke="#AFBEC3"/>
<path d="M641.233 430.864V691.152" stroke="#AFBEC3"/>
<path d="M673.769 430.864V691.152" stroke="#AFBEC3"/>
<path d="M489.399 430.864V691.152" stroke="#AFBEC3"/>
<path d="M521.936 430.864V691.152" stroke="#AFBEC3"/>
<path d="M554.473 430.864V691.152" stroke="#AFBEC3"/>
<path d="M587.007 430.864V691.152" stroke="#AFBEC3"/>
<path d="M619.544 430.864V691.152" stroke="#AFBEC3"/>
<path d="M652.08 430.864V691.152" stroke="#AFBEC3"/>
<path d="M684.616 430.864V691.152" stroke="#AFBEC3"/>
<path d="M456 430L718 692" stroke="#AFBEC3"/>
<path d="M718 430L456 692" stroke="#AFBEC3"/>
<rect x="455.865" y="429.864" width="262.271" height="262.271" stroke="#058CD7" stroke-width="2"/>
<rect x="478.482" y="452.481" width="217.036" height="217.036" stroke="#058CD7" stroke-width="2"/>
<rect x="468.106" y="463.723" width="237.789" height="194.554" stroke="#058CD7" stroke-width="2"/>
<rect x="489.722" y="442.105" width="194.554" height="237.789" stroke="#058CD7" stroke-width="2"/>
<circle cx="587.001" cy="561" r="117.894" stroke="#058CD7" stroke-width="2"/>
<path d="M482.791 727V712.455H488.118C489.15 712.455 490.005 712.625 490.682 712.966C491.359 713.302 491.866 713.759 492.202 714.337C492.538 714.91 492.706 715.556 492.706 716.276C492.706 716.882 492.595 717.393 492.372 717.81C492.15 718.222 491.852 718.553 491.477 718.804C491.108 719.05 490.701 719.23 490.256 719.344V719.486C490.739 719.509 491.21 719.666 491.669 719.955C492.133 720.239 492.517 720.643 492.82 721.169C493.123 721.695 493.274 722.334 493.274 723.087C493.274 723.83 493.099 724.498 492.749 725.089C492.403 725.677 491.868 726.143 491.144 726.489C490.419 726.83 489.494 727 488.367 727H482.791ZM484.986 725.118H488.154C489.205 725.118 489.958 724.914 490.412 724.507C490.867 724.1 491.094 723.591 491.094 722.98C491.094 722.521 490.978 722.099 490.746 721.716C490.514 721.332 490.182 721.027 489.752 720.8C489.325 720.572 488.819 720.459 488.232 720.459H484.986V725.118ZM484.986 718.747H487.926C488.419 718.747 488.861 718.652 489.254 718.463C489.652 718.274 489.967 718.009 490.199 717.668C490.436 717.322 490.554 716.915 490.554 716.446C490.554 715.845 490.343 715.34 489.922 714.933C489.501 714.526 488.854 714.322 487.983 714.322H484.986V718.747ZM500.409 727.22C499.334 727.22 498.408 726.991 497.632 726.531C496.86 726.067 496.263 725.416 495.842 724.578C495.425 723.735 495.217 722.748 495.217 721.616C495.217 720.499 495.425 719.514 495.842 718.662C496.263 717.81 496.85 717.144 497.603 716.666C498.361 716.188 499.246 715.949 500.259 715.949C500.875 715.949 501.472 716.051 502.049 716.254C502.627 716.458 503.145 716.777 503.605 717.213C504.064 717.649 504.426 718.214 504.691 718.911C504.956 719.602 505.089 720.442 505.089 721.432V722.185H496.417V720.594H503.008C503.008 720.035 502.894 719.54 502.667 719.109C502.44 718.674 502.12 718.33 501.708 718.08C501.301 717.829 500.823 717.703 500.274 717.703C499.677 717.703 499.156 717.85 498.711 718.143C498.271 718.432 497.93 718.811 497.688 719.28C497.452 719.744 497.333 720.248 497.333 720.793V722.036C497.333 722.765 497.461 723.385 497.717 723.896C497.977 724.408 498.339 724.798 498.803 725.068C499.267 725.333 499.81 725.466 500.43 725.466C500.832 725.466 501.199 725.409 501.531 725.295C501.862 725.177 502.149 725.002 502.39 724.77C502.632 724.538 502.816 724.251 502.944 723.911L504.954 724.273C504.793 724.865 504.504 725.383 504.088 725.828C503.676 726.268 503.157 726.612 502.532 726.858C501.912 727.099 501.204 727.22 500.409 727.22ZM507.445 731.091V716.091H509.519V717.859H509.697C509.82 717.632 509.997 717.369 510.229 717.071C510.461 716.773 510.783 716.512 511.195 716.29C511.607 716.062 512.152 715.949 512.829 715.949C513.709 715.949 514.495 716.171 515.187 716.616C515.878 717.062 516.42 717.703 516.813 718.541C517.211 719.379 517.41 720.388 517.41 721.567C517.41 722.746 517.213 723.757 516.82 724.599C516.427 725.437 515.887 726.084 515.201 726.538C514.514 726.988 513.731 727.213 512.85 727.213C512.187 727.213 511.645 727.102 511.224 726.879C510.807 726.657 510.48 726.396 510.243 726.098C510.007 725.8 509.824 725.535 509.697 725.303H509.569V731.091H507.445ZM509.526 721.545C509.526 722.312 509.637 722.985 509.86 723.562C510.082 724.14 510.404 724.592 510.826 724.919C511.247 725.241 511.763 725.402 512.374 725.402C513.009 725.402 513.539 725.234 513.965 724.898C514.391 724.557 514.713 724.095 514.931 723.513C515.153 722.93 515.265 722.275 515.265 721.545C515.265 720.826 515.156 720.179 514.938 719.607C514.725 719.034 514.403 718.581 513.972 718.25C513.546 717.919 513.013 717.753 512.374 717.753C511.759 717.753 511.238 717.911 510.812 718.229C510.39 718.546 510.071 718.989 509.853 719.557C509.635 720.125 509.526 720.788 509.526 721.545ZM518.475 717.923V716.091H527.68V717.923H524.121V727H522.047V717.923H518.475ZM532.007 724.024L536.815 716.091H539.102V727H537.021V719.06L532.234 727H529.926V716.091H532.007V724.024ZM541.957 727V716.091H544.08V720.665H545.103L548.704 716.091H551.332L547.106 721.396L551.382 727H548.747L545.458 722.639H544.08V727H541.957ZM556.206 727.241C555.515 727.241 554.89 727.114 554.331 726.858C553.772 726.598 553.329 726.221 553.003 725.729C552.681 725.236 552.52 724.633 552.52 723.918C552.52 723.302 552.638 722.795 552.875 722.398C553.112 722 553.431 721.685 553.834 721.453C554.236 721.221 554.686 721.046 555.183 720.928C555.68 720.809 556.187 720.719 556.703 720.658C557.356 720.582 557.887 720.52 558.294 720.473C558.701 720.421 558.997 720.338 559.182 720.224C559.366 720.111 559.459 719.926 559.459 719.67V719.621C559.459 719 559.283 718.52 558.933 718.179C558.587 717.838 558.071 717.668 557.385 717.668C556.67 717.668 556.106 717.826 555.694 718.143C555.287 718.456 555.006 718.804 554.849 719.188L552.854 718.733C553.09 718.07 553.436 717.535 553.89 717.128C554.35 716.716 554.878 716.418 555.474 716.233C556.071 716.044 556.698 715.949 557.356 715.949C557.792 715.949 558.254 716.001 558.741 716.105C559.234 716.205 559.693 716.389 560.119 716.659C560.55 716.929 560.903 717.315 561.177 717.817C561.452 718.314 561.589 718.96 561.589 719.756V727H559.515V725.509H559.43C559.293 725.783 559.087 726.053 558.812 726.318C558.538 726.583 558.185 726.804 557.754 726.979C557.323 727.154 556.807 727.241 556.206 727.241ZM556.667 725.537C557.255 725.537 557.756 725.421 558.173 725.189C558.595 724.957 558.914 724.654 559.132 724.28C559.354 723.901 559.466 723.496 559.466 723.065V721.659C559.39 721.735 559.243 721.806 559.025 721.872C558.812 721.934 558.568 721.988 558.294 722.036C558.019 722.078 557.752 722.118 557.491 722.156C557.231 722.189 557.013 722.218 556.838 722.241C556.426 722.294 556.05 722.381 555.709 722.504C555.372 722.627 555.103 722.805 554.899 723.037C554.7 723.264 554.601 723.567 554.601 723.946C554.601 724.472 554.795 724.869 555.183 725.139C555.571 725.404 556.066 725.537 556.667 725.537ZM563.558 727L563.551 725.161H563.942C564.245 725.161 564.498 725.097 564.702 724.969C564.91 724.836 565.081 724.614 565.213 724.301C565.346 723.989 565.448 723.558 565.519 723.009C565.59 722.455 565.642 721.759 565.675 720.92L565.867 716.091H573.48V727H571.399V717.923H567.834L567.664 721.631C567.621 722.53 567.529 723.316 567.387 723.989C567.249 724.661 567.048 725.222 566.783 725.672C566.518 726.117 566.177 726.451 565.76 726.673C565.343 726.891 564.837 727 564.24 727H563.558ZM577.91 719.841H581.078C582.413 719.841 583.441 720.172 584.16 720.835C584.88 721.498 585.24 722.353 585.24 723.399C585.24 724.081 585.079 724.694 584.757 725.239C584.435 725.783 583.964 726.214 583.344 726.531C582.723 726.844 581.968 727 581.078 727H576.312V716.091H578.393V725.168H581.078C581.689 725.168 582.191 725.009 582.584 724.692C582.977 724.37 583.173 723.96 583.173 723.463C583.173 722.937 582.977 722.509 582.584 722.178C582.191 721.841 581.689 721.673 581.078 721.673H577.91V719.841ZM595.014 720.629V722.469H589.105V720.629H595.014ZM589.702 716.091V727H587.621V716.091H589.702ZM596.499 716.091V727H594.425V716.091H596.499ZM602.514 727.241C601.823 727.241 601.198 727.114 600.639 726.858C600.081 726.598 599.638 726.221 599.311 725.729C598.989 725.236 598.828 724.633 598.828 723.918C598.828 723.302 598.947 722.795 599.183 722.398C599.42 722 599.74 721.685 600.142 721.453C600.545 721.221 600.994 721.046 601.492 720.928C601.989 720.809 602.495 720.719 603.012 720.658C603.665 720.582 604.195 720.52 604.602 720.473C605.01 720.421 605.306 720.338 605.49 720.224C605.675 720.111 605.767 719.926 605.767 719.67V719.621C605.767 719 605.592 718.52 605.242 718.179C604.896 717.838 604.38 717.668 603.693 717.668C602.978 717.668 602.415 717.826 602.003 718.143C601.596 718.456 601.314 718.804 601.158 719.188L599.162 718.733C599.399 718.07 599.744 717.535 600.199 717.128C600.658 716.716 601.186 716.418 601.783 716.233C602.379 716.044 603.007 715.949 603.665 715.949C604.101 715.949 604.562 716.001 605.05 716.105C605.542 716.205 606.002 716.389 606.428 716.659C606.859 716.929 607.211 717.315 607.486 717.817C607.761 718.314 607.898 718.96 607.898 719.756V727H605.824V725.509H605.739C605.602 725.783 605.396 726.053 605.121 726.318C604.846 726.583 604.494 726.804 604.063 726.979C603.632 727.154 603.116 727.241 602.514 727.241ZM602.976 725.537C603.563 725.537 604.065 725.421 604.482 725.189C604.903 724.957 605.223 724.654 605.441 724.28C605.663 723.901 605.774 723.496 605.774 723.065V721.659C605.699 721.735 605.552 721.806 605.334 721.872C605.121 721.934 604.877 721.988 604.602 722.036C604.328 722.078 604.06 722.118 603.8 722.156C603.539 722.189 603.322 722.218 603.146 722.241C602.735 722.294 602.358 722.381 602.017 722.504C601.681 722.627 601.411 722.805 601.208 723.037C601.009 723.264 600.909 723.567 600.909 723.946C600.909 724.472 601.103 724.869 601.492 725.139C601.88 725.404 602.375 725.537 602.976 725.537ZM617.232 727V717.902H614.618C613.998 717.902 613.515 718.046 613.17 718.335C612.824 718.624 612.651 719.003 612.651 719.472C612.651 719.936 612.81 720.31 613.127 720.594C613.449 720.873 613.899 721.013 614.476 721.013H617.85V722.732H614.476C613.671 722.732 612.975 722.599 612.388 722.334C611.806 722.064 611.356 721.683 611.039 721.19C610.726 720.698 610.57 720.116 610.57 719.443C610.57 718.757 610.731 718.165 611.053 717.668C611.38 717.166 611.846 716.777 612.452 716.503C613.063 716.228 613.785 716.091 614.618 716.091H619.228V727H617.232ZM610.073 727L613.148 721.489H615.322L612.246 727H610.073ZM629.428 724.024L634.237 716.091H636.524V727H634.443V719.06L629.656 727H627.347V716.091H629.428V724.024ZM639.379 727V716.091H641.502V720.665H642.525L646.126 716.091H648.754L644.528 721.396L648.803 727H646.169L642.88 722.639H641.502V727H639.379ZM654.599 727.22C653.576 727.22 652.684 726.986 651.921 726.517C651.159 726.048 650.567 725.393 650.146 724.55C649.724 723.707 649.514 722.722 649.514 721.595C649.514 720.464 649.724 719.474 650.146 718.626C650.567 717.779 651.159 717.121 651.921 716.652C652.684 716.183 653.576 715.949 654.599 715.949C655.622 715.949 656.514 716.183 657.276 716.652C658.039 717.121 658.631 717.779 659.052 718.626C659.473 719.474 659.684 720.464 659.684 721.595C659.684 722.722 659.473 723.707 659.052 724.55C658.631 725.393 658.039 726.048 657.276 726.517C656.514 726.986 655.622 727.22 654.599 727.22ZM654.606 725.438C655.269 725.438 655.818 725.262 656.254 724.912C656.689 724.562 657.011 724.095 657.22 723.513C657.433 722.93 657.539 722.289 657.539 721.588C657.539 720.892 657.433 720.253 657.22 719.67C657.011 719.083 656.689 718.612 656.254 718.257C655.818 717.902 655.269 717.724 654.606 717.724C653.938 717.724 653.384 717.902 652.944 718.257C652.508 718.612 652.184 719.083 651.971 719.67C651.763 720.253 651.659 720.892 651.659 721.588C651.659 722.289 651.763 722.93 651.971 723.513C652.184 724.095 652.508 724.562 652.944 724.912C653.384 725.262 653.938 725.438 654.606 725.438ZM669.448 720.629V722.469H663.539V720.629H669.448ZM664.135 716.091V727H662.055V716.091H664.135ZM670.932 716.091V727H668.858V716.091H670.932ZM673.773 727V716.091H675.897V720.665H676.92L680.52 716.091H683.148L678.922 721.396L683.198 727H680.563L677.275 722.639H675.897V727H673.773ZM688.022 727.241C687.331 727.241 686.706 727.114 686.147 726.858C685.588 726.598 685.146 726.221 684.819 725.729C684.497 725.236 684.336 724.633 684.336 723.918C684.336 723.302 684.454 722.795 684.691 722.398C684.928 722 685.248 721.685 685.65 721.453C686.052 721.221 686.502 721.046 686.999 720.928C687.497 720.809 688.003 720.719 688.519 720.658C689.173 720.582 689.703 720.52 690.11 720.473C690.517 720.421 690.813 720.338 690.998 720.224C691.183 720.111 691.275 719.926 691.275 719.67V719.621C691.275 719 691.1 718.52 690.749 718.179C690.404 717.838 689.888 717.668 689.201 717.668C688.486 717.668 687.923 717.826 687.511 718.143C687.104 718.456 686.822 718.804 686.666 719.188L684.67 718.733C684.907 718.07 685.252 717.535 685.707 717.128C686.166 716.716 686.694 716.418 687.291 716.233C687.887 716.044 688.515 715.949 689.173 715.949C689.608 715.949 690.07 716.001 690.558 716.105C691.05 716.205 691.509 716.389 691.936 716.659C692.366 716.929 692.719 717.315 692.994 717.817C693.268 718.314 693.406 718.96 693.406 719.756V727H691.332V725.509H691.247C691.109 725.783 690.903 726.053 690.629 726.318C690.354 726.583 690.001 726.804 689.57 726.979C689.14 727.154 688.624 727.241 688.022 727.241ZM688.484 725.537C689.071 725.537 689.573 725.421 689.99 725.189C690.411 724.957 690.731 724.654 690.948 724.28C691.171 723.901 691.282 723.496 691.282 723.065V721.659C691.206 721.735 691.06 721.806 690.842 721.872C690.629 721.934 690.385 721.988 690.11 722.036C689.836 722.078 689.568 722.118 689.308 722.156C689.047 722.189 688.829 722.218 688.654 722.241C688.242 722.294 687.866 722.381 687.525 722.504C687.189 722.627 686.919 722.805 686.715 723.037C686.517 723.264 686.417 723.567 686.417 723.946C686.417 724.472 686.611 724.869 686.999 725.139C687.388 725.404 687.883 725.537 688.484 725.537Z" fill="#058CD7"/>
<path d="M779.875 474.5H1019.12V533.975L1012.93 536.922C1008.27 539.124 1004.34 542.603 1001.58 546.954C998.825 551.306 997.362 556.35 997.362 561.5C997.362 566.65 998.825 571.694 1001.58 576.046C1004.34 580.397 1008.27 583.876 1012.93 586.077L1019.12 589.025V648.5H779.875V589.025L786.074 586.077C790.73 583.876 794.664 580.397 797.419 576.046C800.175 571.694 801.638 566.65 801.638 561.5C801.638 556.35 800.175 551.306 797.419 546.954C794.664 542.603 790.73 539.124 786.074 536.922L779.875 533.986V474.5ZM801.625 496.25V520.806C814.729 529.571 823.375 544.513 823.375 561.5C823.379 569.549 821.397 577.475 817.602 584.574C813.808 591.673 808.32 597.726 801.625 602.194V626.75H997.375V602.194C990.68 597.726 985.192 591.673 981.398 584.574C977.603 577.475 975.621 569.549 975.625 561.5C975.625 544.524 984.271 529.571 997.375 520.806V496.25H801.625ZM856 528.875H943V550.625H856V528.875ZM856 572.375H943V594.125H856V572.375Z" fill="#C8D2D7"/>
<rect x="768.363" y="430.364" width="261.288" height="261.288" stroke="#AFBEC3"/>
<path d="M779.71 430.864V691.152" stroke="#AFBEC3"/>
<path d="M1029.15 680.308L768.865 680.308" stroke="#AFBEC3"/>
<path d="M1029.15 669.461L768.865 669.461" stroke="#AFBEC3"/>
<path d="M1029.15 658.616L768.865 658.616" stroke="#AFBEC3"/>
<path d="M1029.15 647.771L768.865 647.771" stroke="#AFBEC3"/>
<path d="M1029.15 636.925L768.865 636.925" stroke="#AFBEC3"/>
<path d="M1029.15 626.08L768.865 626.08" stroke="#AFBEC3"/>
<path d="M1029.15 615.235L768.865 615.235" stroke="#AFBEC3"/>
<path d="M1029.15 604.389L768.865 604.389" stroke="#AFBEC3"/>
<path d="M1029.15 593.544L768.865 593.544" stroke="#AFBEC3"/>
<path d="M1029.15 582.7L768.865 582.7" stroke="#AFBEC3"/>
<path d="M1029.15 571.853L768.865 571.853" stroke="#AFBEC3"/>
<path d="M1029.15 561.009L768.865 561.009" stroke="#AFBEC3"/>
<path d="M1029.15 550.163L768.865 550.163" stroke="#AFBEC3"/>
<path d="M1029.15 539.318L768.865 539.318" stroke="#AFBEC3"/>
<path d="M1029.15 528.473L768.865 528.473" stroke="#AFBEC3"/>
<path d="M1029.15 517.627L768.865 517.627" stroke="#AFBEC3"/>
<path d="M1029.15 506.782L768.865 506.782" stroke="#AFBEC3"/>
<path d="M1029.15 495.937L768.865 495.937" stroke="#AFBEC3"/>
<path d="M1029.15 485.091L768.865 485.091" stroke="#AFBEC3"/>
<path d="M1029.15 474.245L768.865 474.245" stroke="#AFBEC3"/>
<path d="M1029.15 463.4L768.865 463.4" stroke="#AFBEC3"/>
<path d="M1029.15 452.555L768.865 452.555" stroke="#AFBEC3"/>
<path d="M1029.15 441.71L768.865 441.71" stroke="#AFBEC3"/>
<path d="M812.246 430.864V691.152" stroke="#AFBEC3"/>
<path d="M844.781 430.864V691.152" stroke="#AFBEC3"/>
<path d="M877.318 430.864V691.152" stroke="#AFBEC3"/>
<path d="M909.854 430.864V691.152" stroke="#AFBEC3"/>
<path d="M942.39 430.864V691.152" stroke="#AFBEC3"/>
<path d="M974.925 430.864V691.152" stroke="#AFBEC3"/>
<path d="M1007.46 430.864V691.152" stroke="#AFBEC3"/>
<path d="M1018.3 430.864V691.152" stroke="#AFBEC3"/>
<path d="M790.552 430.864V691.152" stroke="#AFBEC3"/>
<path d="M823.089 430.864V691.152" stroke="#AFBEC3"/>
<path d="M855.625 430.864V691.152" stroke="#AFBEC3"/>
<path d="M888.161 430.864V691.152" stroke="#AFBEC3"/>
<path d="M920.697 430.864V691.152" stroke="#AFBEC3"/>
<path d="M953.233 430.864V691.152" stroke="#AFBEC3"/>
<path d="M985.769 430.864V691.152" stroke="#AFBEC3"/>
<path d="M801.399 430.864V691.152" stroke="#AFBEC3"/>
<path d="M833.936 430.864V691.152" stroke="#AFBEC3"/>
<path d="M866.473 430.864V691.152" stroke="#AFBEC3"/>
<path d="M899.007 430.864V691.152" stroke="#AFBEC3"/>
<path d="M931.544 430.864V691.152" stroke="#AFBEC3"/>
<path d="M964.08 430.864V691.152" stroke="#AFBEC3"/>
<path d="M996.616 430.864V691.152" stroke="#AFBEC3"/>
<path d="M768 430L1030 692" stroke="#AFBEC3"/>
<path d="M1030 430L768 692" stroke="#AFBEC3"/>
<rect x="767.865" y="429.864" width="262.271" height="262.271" stroke="#058CD7" stroke-width="2"/>
<rect x="790.482" y="452.481" width="217.036" height="217.036" stroke="#058CD7" stroke-width="2"/>
<rect x="780.106" y="463.723" width="237.789" height="194.554" stroke="#058CD7" stroke-width="2"/>
<rect x="801.722" y="442.105" width="194.554" height="237.789" stroke="#058CD7" stroke-width="2"/>
<circle cx="899.001" cy="561" r="117.894" stroke="#058CD7" stroke-width="2"/>
<path d="M794.144 712.455V714.344H787.269V727H785.075V712.455H794.144ZM799.46 727.22C798.438 727.22 797.545 726.986 796.783 726.517C796.02 726.048 795.429 725.393 795.007 724.55C794.586 723.707 794.375 722.722 794.375 721.595C794.375 720.464 794.586 719.474 795.007 718.626C795.429 717.779 796.02 717.121 796.783 716.652C797.545 716.183 798.438 715.949 799.46 715.949C800.483 715.949 801.375 716.183 802.138 716.652C802.9 717.121 803.492 717.779 803.913 718.626C804.335 719.474 804.545 720.464 804.545 721.595C804.545 722.722 804.335 723.707 803.913 724.55C803.492 725.393 802.9 726.048 802.138 726.517C801.375 726.986 800.483 727.22 799.46 727.22ZM799.467 725.438C800.13 725.438 800.679 725.262 801.115 724.912C801.551 724.562 801.873 724.095 802.081 723.513C802.294 722.93 802.401 722.289 802.401 721.588C802.401 720.892 802.294 720.253 802.081 719.67C801.873 719.083 801.551 718.612 801.115 718.257C800.679 717.902 800.13 717.724 799.467 717.724C798.8 717.724 798.246 717.902 797.805 718.257C797.37 718.612 797.045 719.083 796.832 719.67C796.624 720.253 796.52 720.892 796.52 721.588C796.52 722.289 796.624 722.93 796.832 723.513C797.045 724.095 797.37 724.562 797.805 724.912C798.246 725.262 798.8 725.438 799.467 725.438ZM806.916 731.091V716.091H808.99V717.859H809.167C809.29 717.632 809.468 717.369 809.7 717.071C809.932 716.773 810.254 716.512 810.666 716.29C811.078 716.062 811.622 715.949 812.299 715.949C813.18 715.949 813.966 716.171 814.657 716.616C815.349 717.062 815.891 717.703 816.284 718.541C816.681 719.379 816.88 720.388 816.88 721.567C816.88 722.746 816.684 723.757 816.291 724.599C815.898 725.437 815.358 726.084 814.672 726.538C813.985 726.988 813.201 727.213 812.321 727.213C811.658 727.213 811.116 727.102 810.694 726.879C810.278 726.657 809.951 726.396 809.714 726.098C809.477 725.8 809.295 725.535 809.167 725.303H809.039V731.091H806.916ZM808.997 721.545C808.997 722.312 809.108 722.985 809.331 723.562C809.553 724.14 809.875 724.592 810.297 724.919C810.718 725.241 811.234 725.402 811.845 725.402C812.479 725.402 813.01 725.234 813.436 724.898C813.862 724.557 814.184 724.095 814.402 723.513C814.624 722.93 814.735 722.275 814.735 721.545C814.735 720.826 814.627 720.179 814.409 719.607C814.196 719.034 813.874 718.581 813.443 718.25C813.017 717.919 812.484 717.753 811.845 717.753C811.229 717.753 810.708 717.911 810.282 718.229C809.861 718.546 809.541 718.989 809.324 719.557C809.106 720.125 808.997 720.788 808.997 721.545ZM821.341 724.024L826.149 716.091H828.436V727H826.355V719.06L821.568 727H819.26V716.091H821.341V724.024ZM830.645 724.116H832.818C832.846 724.562 833.047 724.905 833.422 725.146C833.8 725.388 834.29 725.509 834.892 725.509C835.502 725.509 836.023 725.378 836.454 725.118C836.885 724.853 837.1 724.443 837.1 723.889C837.1 723.558 837.018 723.269 836.852 723.023C836.691 722.772 836.461 722.578 836.163 722.44C835.869 722.303 835.521 722.234 835.119 722.234H833.343V720.565H835.119C835.72 720.565 836.17 720.428 836.468 720.153C836.767 719.879 836.916 719.536 836.916 719.124C836.916 718.679 836.755 718.321 836.433 718.051C836.116 717.777 835.673 717.639 835.105 717.639C834.527 717.639 834.047 717.769 833.663 718.03C833.279 718.286 833.078 718.617 833.059 719.024H830.914C830.929 718.413 831.113 717.878 831.468 717.419C831.828 716.955 832.311 716.595 832.917 716.339C833.528 716.079 834.222 715.949 834.998 715.949C835.808 715.949 836.509 716.079 837.1 716.339C837.692 716.6 838.149 716.96 838.471 717.419C838.798 717.878 838.961 718.406 838.961 719.003C838.961 719.604 838.781 720.097 838.422 720.48C838.066 720.859 837.602 721.131 837.029 721.297V721.411C837.451 721.439 837.825 721.567 838.152 721.794C838.478 722.021 838.734 722.322 838.919 722.696C839.103 723.07 839.196 723.494 839.196 723.967C839.196 724.635 839.011 725.213 838.642 725.7C838.277 726.188 837.77 726.564 837.122 726.83C836.478 727.09 835.742 727.22 834.913 727.22C834.108 727.22 833.386 727.095 832.747 726.844C832.112 726.588 831.608 726.228 831.234 725.764C830.865 725.3 830.668 724.751 830.645 724.116ZM845.984 727.22C844.961 727.22 844.068 726.986 843.306 726.517C842.544 726.048 841.952 725.393 841.531 724.55C841.109 723.707 840.898 722.722 840.898 721.595C840.898 720.464 841.109 719.474 841.531 718.626C841.952 717.779 842.544 717.121 843.306 716.652C844.068 716.183 844.961 715.949 845.984 715.949C847.006 715.949 847.899 716.183 848.661 716.652C849.424 717.121 850.015 717.779 850.437 718.626C850.858 719.474 851.069 720.464 851.069 721.595C851.069 722.722 850.858 723.707 850.437 724.55C850.015 725.393 849.424 726.048 848.661 726.517C847.899 726.986 847.006 727.22 845.984 727.22ZM845.991 725.438C846.654 725.438 847.203 725.262 847.638 724.912C848.074 724.562 848.396 724.095 848.604 723.513C848.817 722.93 848.924 722.289 848.924 721.588C848.924 720.892 848.817 720.253 848.604 719.67C848.396 719.083 848.074 718.612 847.638 718.257C847.203 717.902 846.654 717.724 845.991 717.724C845.323 717.724 844.769 717.902 844.329 718.257C843.893 718.612 843.569 719.083 843.356 719.67C843.147 720.253 843.043 720.892 843.043 721.588C843.043 722.289 843.147 722.93 843.356 723.513C843.569 724.095 843.893 724.562 844.329 724.912C844.769 725.262 845.323 725.438 845.991 725.438ZM860.833 720.629V722.469H854.924V720.629H860.833ZM855.52 716.091V727H853.439V716.091H855.52ZM862.317 716.091V727H860.243V716.091H862.317ZM863.805 717.923V716.091H873.01V717.923H869.451V727H867.377V717.923H863.805ZM877.923 727.241C877.231 727.241 876.606 727.114 876.048 726.858C875.489 726.598 875.046 726.221 874.719 725.729C874.397 725.236 874.237 724.633 874.237 723.918C874.237 723.302 874.355 722.795 874.592 722.398C874.828 722 875.148 721.685 875.55 721.453C875.953 721.221 876.403 721.046 876.9 720.928C877.397 720.809 877.904 720.719 878.42 720.658C879.073 720.582 879.603 720.52 880.011 720.473C880.418 720.421 880.714 720.338 880.898 720.224C881.083 720.111 881.175 719.926 881.175 719.67V719.621C881.175 719 881 718.52 880.65 718.179C880.304 717.838 879.788 717.668 879.102 717.668C878.387 717.668 877.823 717.826 877.411 718.143C877.004 718.456 876.722 718.804 876.566 719.188L874.57 718.733C874.807 718.07 875.153 717.535 875.607 717.128C876.067 716.716 876.594 716.418 877.191 716.233C877.788 716.044 878.415 715.949 879.073 715.949C879.509 715.949 879.97 716.001 880.458 716.105C880.951 716.205 881.41 716.389 881.836 716.659C882.267 716.929 882.62 717.315 882.894 717.817C883.169 718.314 883.306 718.96 883.306 719.756V727H881.232V725.509H881.147C881.01 725.783 880.804 726.053 880.529 726.318C880.254 726.583 879.902 726.804 879.471 726.979C879.04 727.154 878.524 727.241 877.923 727.241ZM878.384 725.537C878.971 725.537 879.473 725.421 879.89 725.189C880.311 724.957 880.631 724.654 880.849 724.28C881.071 723.901 881.183 723.496 881.183 723.065V721.659C881.107 721.735 880.96 721.806 880.742 721.872C880.529 721.934 880.285 721.988 880.011 722.036C879.736 722.078 879.469 722.118 879.208 722.156C878.948 722.189 878.73 722.218 878.555 722.241C878.143 722.294 877.766 722.381 877.425 722.504C877.089 722.627 876.819 722.805 876.616 723.037C876.417 723.264 876.317 723.567 876.317 723.946C876.317 724.472 876.512 724.869 876.9 725.139C877.288 725.404 877.783 725.537 878.384 725.537ZM885.275 727L885.268 725.161H885.659C885.962 725.161 886.215 725.097 886.419 724.969C886.627 724.836 886.797 724.614 886.93 724.301C887.063 723.989 887.164 723.558 887.235 723.009C887.306 722.455 887.359 721.759 887.392 720.92L887.583 716.091H895.197V727H893.116V717.923H889.551L889.38 721.631C889.338 722.53 889.245 723.316 889.103 723.989C888.966 724.661 888.765 725.222 888.5 725.672C888.234 726.117 887.894 726.451 887.477 726.673C887.06 726.891 886.554 727 885.957 727H885.275ZM899.627 719.841H902.795C904.13 719.841 905.157 720.172 905.877 720.835C906.597 721.498 906.957 722.353 906.957 723.399C906.957 724.081 906.796 724.694 906.474 725.239C906.152 725.783 905.681 726.214 905.06 726.531C904.44 726.844 903.685 727 902.795 727H898.029V716.091H900.11V725.168H902.795C903.406 725.168 903.907 725.009 904.3 724.692C904.693 724.37 904.89 723.96 904.89 723.463C904.89 722.937 904.693 722.509 904.3 722.178C903.907 721.841 903.406 721.673 902.795 721.673H899.627V719.841ZM916.731 720.629V722.469H910.822V720.629H916.731ZM911.419 716.091V727H909.338V716.091H911.419ZM918.216 716.091V727H916.142V716.091H918.216ZM924.231 727.241C923.54 727.241 922.915 727.114 922.356 726.858C921.797 726.598 921.355 726.221 921.028 725.729C920.706 725.236 920.545 724.633 920.545 723.918C920.545 723.302 920.663 722.795 920.9 722.398C921.137 722 921.457 721.685 921.859 721.453C922.261 721.221 922.711 721.046 923.208 720.928C923.706 720.809 924.212 720.719 924.728 720.658C925.382 720.582 925.912 720.52 926.319 720.473C926.726 720.421 927.022 720.338 927.207 720.224C927.392 720.111 927.484 719.926 927.484 719.67V719.621C927.484 719 927.309 718.52 926.958 718.179C926.613 717.838 926.097 717.668 925.41 717.668C924.695 717.668 924.132 717.826 923.72 718.143C923.313 718.456 923.031 718.804 922.875 719.188L920.879 718.733C921.116 718.07 921.461 717.535 921.916 717.128C922.375 716.716 922.903 716.418 923.5 716.233C924.096 716.044 924.724 715.949 925.382 715.949C925.817 715.949 926.279 716.001 926.767 716.105C927.259 716.205 927.718 716.389 928.145 716.659C928.575 716.929 928.928 717.315 929.203 717.817C929.477 718.314 929.615 718.96 929.615 719.756V727H927.541V725.509H927.456C927.318 725.783 927.112 726.053 926.838 726.318C926.563 726.583 926.21 726.804 925.779 726.979C925.349 727.154 924.833 727.241 924.231 727.241ZM924.693 725.537C925.28 725.537 925.782 725.421 926.199 725.189C926.62 724.957 926.94 724.654 927.157 724.28C927.38 723.901 927.491 723.496 927.491 723.065V721.659C927.415 721.735 927.269 721.806 927.051 721.872C926.838 721.934 926.594 721.988 926.319 722.036C926.045 722.078 925.777 722.118 925.517 722.156C925.256 722.189 925.038 722.218 924.863 722.241C924.451 722.294 924.075 722.381 923.734 722.504C923.398 722.627 923.128 722.805 922.924 723.037C922.725 723.264 922.626 723.567 922.626 723.946C922.626 724.472 922.82 724.869 923.208 725.139C923.597 725.404 924.092 725.537 924.693 725.537ZM938.949 727V717.902H936.335C935.715 717.902 935.232 718.046 934.886 718.335C934.541 718.624 934.368 719.003 934.368 719.472C934.368 719.936 934.527 720.31 934.844 720.594C935.166 720.873 935.616 721.013 936.193 721.013H939.567V722.732H936.193C935.388 722.732 934.692 722.599 934.105 722.334C933.523 722.064 933.073 721.683 932.756 721.19C932.443 720.698 932.287 720.116 932.287 719.443C932.287 718.757 932.448 718.165 932.77 717.668C933.097 717.166 933.563 716.777 934.169 716.503C934.78 716.228 935.502 716.091 936.335 716.091H940.945V727H938.949ZM931.79 727L934.865 721.489H937.038L933.963 727H931.79ZM951.145 724.024L955.953 716.091H958.24V727H956.159V719.06L951.373 727H949.064V716.091H951.145V724.024ZM961.096 727V716.091H963.219V720.665H964.242L967.843 716.091H970.471L966.245 721.396L970.52 727H967.885L964.597 722.639H963.219V727H961.096ZM976.316 727.22C975.293 727.22 974.4 726.986 973.638 726.517C972.876 726.048 972.284 725.393 971.863 724.55C971.441 723.707 971.23 722.722 971.23 721.595C971.23 720.464 971.441 719.474 971.863 718.626C972.284 717.779 972.876 717.121 973.638 716.652C974.4 716.183 975.293 715.949 976.316 715.949C977.338 715.949 978.231 716.183 978.993 716.652C979.756 717.121 980.347 717.779 980.769 718.626C981.19 719.474 981.401 720.464 981.401 721.595C981.401 722.722 981.19 723.707 980.769 724.55C980.347 725.393 979.756 726.048 978.993 726.517C978.231 726.986 977.338 727.22 976.316 727.22ZM976.323 725.438C976.986 725.438 977.535 725.262 977.971 724.912C978.406 724.562 978.728 724.095 978.936 723.513C979.15 722.93 979.256 722.289 979.256 721.588C979.256 720.892 979.15 720.253 978.936 719.67C978.728 719.083 978.406 718.612 977.971 718.257C977.535 717.902 976.986 717.724 976.323 717.724C975.655 717.724 975.101 717.902 974.661 718.257C974.225 718.612 973.901 719.083 973.688 719.67C973.48 720.253 973.375 720.892 973.375 721.588C973.375 722.289 973.48 722.93 973.688 723.513C973.901 724.095 974.225 724.562 974.661 724.912C975.101 725.262 975.655 725.438 976.323 725.438ZM991.165 720.629V722.469H985.256V720.629H991.165ZM985.852 716.091V727H983.771V716.091H985.852ZM992.649 716.091V727H990.575V716.091H992.649ZM995.49 727V716.091H997.614V720.665H998.636L1002.24 716.091H1004.87L1000.64 721.396L1004.91 727H1002.28L998.991 722.639H997.614V727H995.49ZM1009.74 727.241C1009.05 727.241 1008.42 727.114 1007.86 726.858C1007.31 726.598 1006.86 726.221 1006.54 725.729C1006.21 725.236 1006.05 724.633 1006.05 723.918C1006.05 723.302 1006.17 722.795 1006.41 722.398C1006.64 722 1006.96 721.685 1007.37 721.453C1007.77 721.221 1008.22 721.046 1008.72 720.928C1009.21 720.809 1009.72 720.719 1010.24 720.658C1010.89 720.582 1011.42 720.52 1011.83 720.473C1012.23 720.421 1012.53 720.338 1012.71 720.224C1012.9 720.111 1012.99 719.926 1012.99 719.67V719.621C1012.99 719 1012.82 718.52 1012.47 718.179C1012.12 717.838 1011.6 717.668 1010.92 717.668C1010.2 717.668 1009.64 717.826 1009.23 718.143C1008.82 718.456 1008.54 718.804 1008.38 719.188L1006.39 718.733C1006.62 718.07 1006.97 717.535 1007.42 717.128C1007.88 716.716 1008.41 716.418 1009.01 716.233C1009.6 716.044 1010.23 715.949 1010.89 715.949C1011.33 715.949 1011.79 716.001 1012.27 716.105C1012.77 716.205 1013.23 716.389 1013.65 716.659C1014.08 716.929 1014.44 717.315 1014.71 717.817C1014.99 718.314 1015.12 718.96 1015.12 719.756V727H1013.05V725.509H1012.96C1012.83 725.783 1012.62 726.053 1012.35 726.318C1012.07 726.583 1011.72 726.804 1011.29 726.979C1010.86 727.154 1010.34 727.241 1009.74 727.241ZM1010.2 725.537C1010.79 725.537 1011.29 725.421 1011.71 725.189C1012.13 724.957 1012.45 724.654 1012.67 724.28C1012.89 723.901 1013 723.496 1013 723.065V721.659C1012.92 721.735 1012.78 721.806 1012.56 721.872C1012.35 721.934 1012.1 721.988 1011.83 722.036C1011.55 722.078 1011.28 722.118 1011.02 722.156C1010.76 722.189 1010.55 722.218 1010.37 722.241C1009.96 722.294 1009.58 722.381 1009.24 722.504C1008.91 722.627 1008.64 722.805 1008.43 723.037C1008.23 723.264 1008.13 723.567 1008.13 723.946C1008.13 724.472 1008.33 724.869 1008.72 725.139C1009.1 725.404 1009.6 725.537 1010.2 725.537Z" fill="#058CD7"/>
</svg>
