<svg width="1128" height="552" viewBox="0 0 1128 552" fill="none" xmlns="http://www.w3.org/2000/svg">
<rect width="1128" height="552" fill="#F2F6F9"/>
<path d="M514.182 246.897V253.903" stroke="#058CD7" stroke-width="1.55682"/>
<path d="M620.045 299.83V306.835" stroke="#058CD7" stroke-width="1.55682"/>
<path d="M596.884 120.795H672.024V147.969H617.302L608.454 178.159H672.977L656.479 419.704H484.404L472.561 246.854C447.078 241.215 427 219.15 427 191.746C427 160.224 453.054 135.143 484.594 135.143C511.452 135.143 534.321 153.309 540.542 178.159H580.072L596.884 120.795ZM572.109 205.332H497.036L500.249 252.641L555.611 261.622L572.109 205.332ZM563.07 290.358L502.154 280.481L509.832 392.531H631.037L637.176 302.641L563.125 290.372L563.07 290.358ZM639.041 275.413L643.833 205.332H600.477L582.672 266.065L639.041 275.413ZM511.547 178.145C508.913 173.315 505.015 169.29 500.268 166.5C495.521 163.71 490.103 162.259 484.594 162.303C467.565 162.317 454.225 175.754 454.225 191.746C454.225 202.574 460.759 212.438 470.574 217.506L467.892 178.159L511.547 178.145Z" fill="#C8D2D7"/>
<path d="M487.716 453.955L462.807 99" stroke="#058CD7" stroke-width="1.55682"/>
<path d="M652.738 453.955L677.647 99" stroke="#058CD7" stroke-width="1.55682"/>
<path d="M442.568 419.705H699.443" stroke="#058CD7" stroke-width="1.55682"/>
<path d="M444.125 307.614H701" stroke="#058CD7" stroke-width="1.55682"/>
<path d="M444.125 246.897H701" stroke="#058CD7" stroke-width="1.55682"/>
<path d="M444.125 242.228L697.886 285.818" stroke="#058CD7" stroke-width="1.55682"/>
<path d="M444.125 270.25L699.443 313.841" stroke="#058CD7" stroke-width="1.55682"/>
<path d="M682.768 420.234C682.768 413.322 680.154 406.667 675.451 401.603C670.747 396.539 664.302 393.441 657.409 392.933" stroke="#058CD7" stroke-width="1.55682"/>
<path d="M457.347 419.729C457.347 412.818 459.961 406.162 464.665 401.098C469.368 396.034 475.813 392.937 482.706 392.428" stroke="#058CD7" stroke-width="1.55682"/>
</svg>
