<svg xmlns="http://www.w3.org/2000/svg" width="630" height="101" fill="none"><path fill="#058CD7" d="M.696 32.058V24.53h1.342c.458-.385.885-.932 1.283-1.641.398-.71.736-1.667 1.014-2.874.279-1.206.47-2.754.577-4.643l.477-8.6h12.558V24.53h2.307v7.497h-2.943v-4.892H3.64v4.922H.696Zm4.962-7.527h9.346V9.417h-6.83l-.319 5.956a35.166 35.166 0 0 1-.427 3.878c-.193 1.147-.441 2.16-.746 3.042-.298.875-.64 1.621-1.024 2.238Zm16.52 2.605-.01-2.575h.547c.424 0 .78-.09 1.064-.269.292-.186.53-.497.716-.935.186-.437.328-1.04.428-1.81.099-.775.172-1.75.218-2.923l.269-6.761h10.659v15.273h-2.913V14.428h-4.992l-.239 5.19c-.06 1.26-.189 2.36-.387 3.302-.193.941-.474 1.727-.846 2.356-.37.623-.848 1.09-1.431 1.402-.584.305-1.293.458-2.128.458h-.955Zm26.964 0V14.399h-3.66c-.868 0-1.544.202-2.028.606-.484.404-.726.935-.726 1.591 0 .65.222 1.173.666 1.571.451.391 1.081.587 1.89.587h4.723v2.406h-4.723c-1.127 0-2.102-.186-2.924-.557-.815-.378-1.445-.911-1.889-1.6-.437-.69-.656-1.506-.656-2.447 0-.961.225-1.79.676-2.486.458-.702 1.11-1.246 1.959-1.63.855-.385 1.866-.577 3.033-.577h6.453v15.273h-2.794Zm-10.023 0 4.305-7.716h3.043l-4.305 7.716h-3.043Zm22.693 4.405v-6.98h1.243c.318-.292.586-.64.805-1.045.225-.404.414-.884.567-1.441.159-.557.291-1.207.398-1.95.106-.748.198-1.603.278-2.564l.477-5.698h10.38v12.698h2.348v6.98h-2.904v-4.405H64.755v4.405h-2.943Zm4.425-6.98h6.82V14.409h-4.812l-.318 3.152c-.153 1.604-.345 2.996-.577 4.176-.232 1.173-.603 2.114-1.113 2.824Zm17.89-1.591 6.731-11.107h3.202v15.273h-2.913V16.019l-6.702 11.117h-3.232V11.863h2.914V22.97Zm12.439 8.57v-6.98h1.243c.318-.291.586-.64.805-1.044.225-.404.414-.884.567-1.441.159-.557.291-1.207.398-1.95.106-.748.198-1.603.278-2.564l.477-5.698h10.381v12.698h2.346v6.98h-2.903v-4.405h-10.65v4.405h-2.942Zm4.424-6.98h6.821V14.41h-4.812l-.318 3.152c-.153 1.604-.345 2.996-.577 4.176-.232 1.173-.603 2.114-1.114 2.824Zm14.003 2.576 5.916-7.816-5.847-7.457h3.461l4.723 6.344h1.064v-6.344h2.973v6.344h1.034l4.723-6.344h3.46l-5.817 7.457 5.887 7.816h-3.53l-4.763-6.364h-.994v6.364h-2.973v-6.364h-.995l-4.792 6.364h-3.53Zm27.513-4.166 6.731-11.107h3.202v15.273h-2.913V16.019l-6.702 11.117h-3.232V11.863h2.914V22.97Zm12.036-8.542v-2.565h12.886v2.565h-4.981v12.708h-2.904V14.428h-5.001Zm19.764 13.046c-.967 0-1.842-.18-2.625-.537a4.42 4.42 0 0 1-1.859-1.581c-.451-.69-.676-1.535-.676-2.536 0-.861.166-1.57.497-2.127a3.675 3.675 0 0 1 1.342-1.323 7.023 7.023 0 0 1 1.89-.736 18.798 18.798 0 0 1 2.127-.378l2.228-.258c.57-.073.984-.189 1.243-.348.258-.16.387-.418.387-.776v-.07c0-.868-.245-1.54-.735-2.018-.484-.477-1.207-.716-2.168-.716-1.001 0-1.79.223-2.366.667-.571.437-.965.924-1.184 1.461l-2.794-.636c.332-.928.816-1.677 1.452-2.247a5.888 5.888 0 0 1 2.217-1.253 8.66 8.66 0 0 1 2.635-.398 9.3 9.3 0 0 1 1.939.219c.69.14 1.333.398 1.929.776.603.377 1.097.918 1.482 1.62.384.696.576 1.601.576 2.715v10.142h-2.903v-2.088h-.119c-.193.384-.481.762-.865 1.133-.385.371-.879.68-1.482.925s-1.326.368-2.168.368Zm.647-2.387c.822 0 1.524-.162 2.108-.487.59-.325 1.037-.749 1.342-1.273.312-.53.467-1.097.467-1.7V19.66c-.106.106-.311.205-.616.298-.298.086-.64.162-1.024.229-.385.06-.759.116-1.124.169-.364.046-.669.086-.915.119a7.393 7.393 0 0 0-1.581.368c-.47.172-.848.42-1.133.745-.278.319-.418.743-.418 1.273 0 .736.272 1.293.816 1.67.543.372 1.236.557 2.078.557Zm9.647 2.049-.01-2.575h.547c.424 0 .779-.09 1.064-.269.292-.186.53-.497.716-.935.186-.437.328-1.04.427-1.81.1-.775.173-1.75.219-2.923l.269-6.761h10.659v15.273h-2.914V14.428h-4.991l-.239 5.19c-.059 1.26-.189 2.36-.387 3.302-.193.941-.474 1.727-.846 2.356-.371.623-.848 1.09-1.431 1.402-.584.305-1.293.458-2.128.458h-.955Zm22.3.338c-.968 0-1.843-.18-2.625-.537a4.42 4.42 0 0 1-1.859-1.581c-.451-.69-.676-1.535-.676-2.536 0-.861.165-1.57.497-2.127a3.667 3.667 0 0 1 1.342-1.323 7.016 7.016 0 0 1 1.889-.736 18.815 18.815 0 0 1 2.128-.378l2.228-.258c.57-.073.984-.189 1.242-.348.259-.16.388-.418.388-.776v-.07c0-.868-.245-1.54-.736-2.018-.484-.477-1.206-.716-2.167-.716-1.001 0-1.79.223-2.367.667-.57.437-.964.924-1.183 1.461l-2.794-.636c.331-.928.815-1.677 1.452-2.247a5.888 5.888 0 0 1 2.217-1.253 8.656 8.656 0 0 1 2.635-.398 9.3 9.3 0 0 1 1.939.219c.689.14 1.332.398 1.929.776.603.377 1.097.918 1.481 1.62.385.696.577 1.601.577 2.715v10.142h-2.903v-2.088h-.12c-.192.384-.48.762-.865 1.133-.384.371-.878.68-1.481.925-.603.245-1.326.368-2.168.368Zm.647-2.387c.821 0 1.524-.162 2.107-.487.59-.325 1.038-.749 1.343-1.273.311-.53.467-1.097.467-1.7V19.66c-.106.106-.311.205-.616.298-.299.086-.64.162-1.024.229-.385.06-.759.116-1.124.169-.365.046-.67.086-.915.119a7.365 7.365 0 0 0-1.581.368c-.47.172-.848.42-1.133.745-.279.319-.418.743-.418 1.273 0 .736.272 1.293.815 1.67.544.372 1.237.557 2.079.557ZM558.108 27.136v-1.79l6.722-7.358a46.872 46.872 0 0 0 1.948-2.247c.511-.643.889-1.246 1.134-1.81a4.38 4.38 0 0 0 .378-1.79c0-.716-.173-1.335-.517-1.859a3.354 3.354 0 0 0-1.392-1.213c-.59-.285-1.253-.428-1.989-.428-.782 0-1.465.163-2.048.488a3.359 3.359 0 0 0-1.343 1.342c-.311.577-.467 1.253-.467 2.028h-2.346c0-1.193.275-2.24.825-3.142a5.732 5.732 0 0 1 2.247-2.108c.954-.503 2.025-.755 3.212-.755 1.193 0 2.25.252 3.171.755a5.682 5.682 0 0 1 2.168 2.039c.524.855.786 1.806.786 2.853a6.14 6.14 0 0 1-.408 2.198c-.265.71-.729 1.501-1.392 2.376-.656.869-1.568 1.93-2.735 3.182l-4.573 4.892v.16h9.466v2.187h-12.847Zm16.038-4.176V20.93l8.949-14.159h1.472v3.142h-.995l-6.761 10.699v.16h12.051v2.187h-14.716Zm9.586 4.176V6.772h2.346v20.364h-2.346Zm16.771 5.727v-21h2.267v2.426h.279c.172-.265.411-.603.716-1.014.311-.418.755-.789 1.332-1.114.583-.331 1.372-.497 2.366-.497 1.286 0 2.42.322 3.401.965.981.643 1.747 1.554 2.297 2.734s.825 2.572.825 4.176c0 1.618-.275 3.02-.825 4.206-.55 1.18-1.313 2.095-2.287 2.744-.974.643-2.098.965-3.371.965-.981 0-1.766-.163-2.356-.487-.59-.332-1.044-.706-1.363-1.124a14.933 14.933 0 0 1-.735-1.054h-.199v8.074h-2.347Zm2.307-13.364c0 1.154.169 2.171.507 3.053.338.875.832 1.561 1.482 2.058.649.49 1.445.736 2.386.736.981 0 1.8-.259 2.456-.776.663-.523 1.16-1.226 1.491-2.108.339-.888.508-1.875.508-2.963 0-1.073-.166-2.041-.498-2.903-.324-.868-.818-1.555-1.481-2.058-.656-.51-1.482-.766-2.476-.766-.955 0-1.757.242-2.406.726-.65.477-1.14 1.147-1.472 2.008-.331.856-.497 1.853-.497 2.993Zm15.877-7.636 3.659 6.244 3.659-6.244h2.705l-4.932 7.636 4.932 7.637h-2.705l-3.659-5.926-3.659 5.926h-2.705l4.853-7.637-4.853-7.636h2.705Z"/><path stroke="#058CD7" stroke-width="2" d="M546 30.136h-38M546 3.136h-38M543 13.136l-8-8-8 8M527 20.136l8 8 8-8M535 5.136v23"/><path fill="#0A2832" d="M328.703 18.366h7.628l2.547 10.139h3.388l-3.388-13.522h-5.964l9.333-10.17h-4.155l-9.389 10.092V4.81h-3.388v23.685h3.388V18.366ZM369.37 28.5l10.165-16.887v16.882h3.388V4.81h-3.388L369.37 21.795V4.82h-3.391v23.685h3.391V28.5ZM399.864 14.96h-10.237V4.81h-3.388v23.685h3.388v-10.15h10.237v10.15h3.389V4.81h-3.389v10.15ZM267.707 8.194h13.553v20.304h3.388V4.81h-20.332v23.688h3.391V8.194ZM244 28.517h3.388l1.409-4.973h8.761v4.954h3.376V4.81h-10.132l-.009.027-4.396 15.32h-1.432L244 23.545h1.42L244 28.517Zm9.138-20.32h4.413v11.96h-7.79l3.377-11.96ZM321.76 4.81h-9.912v.027h-.058l-4.391 15.32h-1.447l-.965 3.387h1.447l-1.447 4.973h3.377l1.41-4.973h8.759v4.954h3.388V4.81h-.161Zm-11.007 15.348 3.377-11.962h4.413v11.962h-7.79ZM304.959 12.456v-.034c0-4.072-3.077-7.405-6.935-7.612h-9.98v23.685h3.389V20.1h6.207c4.035 0 7.319-3.398 7.319-7.62v-.024Zm-7.76 4.32h-5.766V8.149h5.766c2.286 0 4.141 1.927 4.141 4.318 0 2.391-1.855 4.31-4.141 4.31ZM487.341 4.81h-9.982v23.688h3.389v-8.396h6.209c4.033 0 7.317-3.395 7.317-7.62v-.047c.003-4.082-3.075-7.425-6.933-7.625Zm-.818 11.967h-5.773V8.136h5.766c2.286 0 4.141 1.926 4.141 4.315 0 2.39-1.855 4.326-4.134 4.326ZM448.629 13.99V4.81h-11.918v23.685H445.367c4.032 0 7.316-3.398 7.316-7.62v-.05a7.666 7.666 0 0 0-4.054-6.835Zm-3.388-5.792v5.007H440.1V8.198h5.141Zm-.306 16.974h-4.823v-8.639h4.823c2.286 0 4.141 1.927 4.141 4.318 0 2.392-1.862 4.32-4.141 4.32ZM432.363 25.102h-2.445V4.81H419.76v20.302h-2.428l-.987 3.373H433.323l-.96-3.383Zm-9.215 0V8.184h3.377v16.918h-3.377ZM464.6 4.136c-5.727 0-10.37 5.597-10.37 12.498 0 6.903 4.643 12.5 10.37 12.5 5.728 0 10.37-5.595 10.37-12.5 0-6.904-4.64-12.498-10.37-12.498Zm0 21.614c-3.858 0-6.993-4.094-6.993-9.116 0-5.02 3.135-9.115 6.993-9.115 3.859 0 6.994 4.094 6.994 9.115 0 5.022-3.142 9.118-6.994 9.118v-.002ZM353.997 25.694c-4.032 0-7.312-4.062-7.312-9.057s3.28-9.06 7.312-9.06c2.927 0 5.228 1.842 6.395 4.927 0 0 1.946-1.29 2.863-2.24a10.12 10.12 0 0 0-3.713-4.444 10.139 10.139 0 0 0-5.545-1.684c-6 0-10.852 5.597-10.852 12.5 0 6.905 4.864 12.5 10.864 12.5 3.277 0 6.214-1.672 8.199-4.311-1.372-1.216-2.653-2.31-2.653-2.31-1.357 1.944-3.347 3.18-5.558 3.18Z"/><path fill="#058CD7" d="M1.696 98.058V90.53h1.342c.458-.385.885-.932 1.283-1.641.398-.71.736-1.667 1.014-2.874.279-1.206.47-2.754.577-4.643l.477-8.6h12.558V90.53h2.307v7.497h-2.943v-4.892H4.64v4.922H1.696Zm4.962-7.527h9.346V75.417h-6.83l-.319 5.956a35.166 35.166 0 0 1-.427 3.878c-.193 1.147-.441 2.16-.746 3.042-.298.875-.64 1.621-1.024 2.238Zm16.52 2.605-.01-2.575h.547c.424 0 .78-.09 1.064-.269.292-.186.53-.497.716-.935.186-.437.328-1.04.428-1.81.099-.775.172-1.75.218-2.923l.269-6.761h10.659v15.273h-2.913V80.428h-4.992l-.239 5.19c-.06 1.26-.189 2.36-.387 3.302-.193.941-.474 1.727-.846 2.356-.37.624-.848 1.09-1.431 1.402-.584.305-1.293.458-2.128.458h-.955Zm26.964 0V80.399h-3.66c-.868 0-1.544.202-2.028.606-.484.404-.726.935-.726 1.591 0 .65.222 1.173.666 1.571.451.391 1.081.587 1.89.587h4.723v2.406h-4.723c-1.127 0-2.102-.186-2.924-.557-.815-.378-1.445-.911-1.889-1.6-.437-.69-.656-1.505-.656-2.447 0-.961.225-1.79.676-2.486.458-.702 1.11-1.246 1.959-1.63.855-.385 1.866-.577 3.033-.577h6.453v15.273h-2.794Zm-10.023 0 4.305-7.716h3.043l-4.305 7.716h-3.043Zm24.184 0V77.863h12.46v15.273h-2.914V80.428h-6.652v12.708h-2.894Zm23.016.308c-1.505 0-2.8-.322-3.888-.965-1.08-.65-1.915-1.56-2.505-2.734-.584-1.18-.875-2.562-.875-4.146 0-1.565.291-2.943.875-4.137.59-1.193 1.412-2.124 2.466-2.794 1.06-.67 2.3-1.004 3.718-1.004.862 0 1.697.143 2.506.428a6.07 6.07 0 0 1 2.178 1.342c.643.61 1.15 1.402 1.521 2.377.371.967.557 2.144.557 3.53v1.053h-12.14v-2.227h9.227c0-.782-.16-1.475-.478-2.078a3.608 3.608 0 0 0-1.342-1.442c-.57-.351-1.24-.527-2.009-.527-.835 0-1.564.206-2.187.617a4.138 4.138 0 0 0-1.432 1.59 4.593 4.593 0 0 0-.497 2.118v1.74c0 1.021.179 1.89.537 2.606.364.716.871 1.262 1.521 1.64.65.371 1.409.557 2.277.557.563 0 1.077-.08 1.541-.239a3.329 3.329 0 0 0 1.203-.735c.338-.325.597-.726.776-1.203l2.814.507a5.096 5.096 0 0 1-1.213 2.177c-.577.617-1.303 1.097-2.178 1.442-.868.338-1.86.507-2.973.507Zm22.111-15.581v15.273h-2.903V77.863h2.903Zm-1.262 7.09v2.565c-.458.186-.942.351-1.452.497-.511.14-1.047.249-1.611.328-.563.08-1.15.12-1.76.12-1.889 0-3.39-.461-4.504-1.383-1.114-.928-1.67-2.346-1.67-4.255v-4.992h2.893v4.992c0 .722.132 1.309.398 1.76.265.45.643.782 1.133.994.491.212 1.074.318 1.75.318.895 0 1.72-.083 2.476-.249a19.385 19.385 0 0 0 2.347-.695Zm9.662 8.52c-.968 0-1.843-.178-2.625-.536a4.42 4.42 0 0 1-1.859-1.581c-.451-.69-.677-1.535-.677-2.536 0-.861.166-1.57.498-2.127a3.66 3.66 0 0 1 1.342-1.323 7.003 7.003 0 0 1 1.889-.736 18.776 18.776 0 0 1 2.128-.377l2.227-.259c.57-.073.985-.189 1.243-.348.259-.16.388-.418.388-.776v-.07c0-.868-.245-1.54-.736-2.018-.484-.477-1.206-.716-2.168-.716-1 0-1.789.223-2.366.667-.57.437-.964.924-1.183 1.461l-2.794-.636c.331-.928.815-1.677 1.451-2.247a5.892 5.892 0 0 1 2.218-1.253 8.651 8.651 0 0 1 2.635-.398 9.3 9.3 0 0 1 1.939.219c.689.14 1.332.398 1.929.776.603.377 1.097.918 1.481 1.62.385.696.577 1.601.577 2.715v10.142h-2.904v-2.088h-.119c-.192.384-.48.762-.865 1.133-.384.371-.878.68-1.481.925-.604.245-1.326.368-2.168.368Zm.646-2.386c.822 0 1.525-.162 2.108-.487.59-.325 1.038-.749 1.342-1.272.312-.53.468-1.098.468-1.7v-1.97c-.106.106-.312.206-.617.299a9.56 9.56 0 0 1-1.024.229c-.384.06-.759.115-1.123.168l-.915.12a7.365 7.365 0 0 0-1.581.368c-.471.172-.849.42-1.134.745-.278.319-.417.743-.417 1.273 0 .736.272 1.293.815 1.67.544.372 1.236.557 2.078.557Zm8.957-10.659v-2.565h12.886v2.565h-4.982v12.708h-2.903V80.428h-5.001Zm18.944 8.541 6.731-11.106h3.202v15.273h-2.913V82.019l-6.702 11.117h-3.232V77.863h2.914v11.106ZM559.744 93.136l9.108-18.017v-.16h-10.5v-2.187h13.046v2.307l-9.068 18.057h-2.586Zm23.275 0V77.863h2.267v2.386h.199c.318-.815.832-1.448 1.541-1.899.709-.457 1.561-.686 2.555-.686 1.008 0 1.846.229 2.516.686.676.451 1.203 1.084 1.581 1.9h.159a4.45 4.45 0 0 1 1.76-1.88c.782-.47 1.72-.706 2.814-.706 1.365 0 2.482.428 3.351 1.283.868.848 1.302 2.17 1.302 3.967v10.222h-2.346V82.914c0-1.127-.309-1.932-.925-2.416-.617-.484-1.342-.726-2.178-.726-1.073 0-1.905.325-2.495.974-.59.644-.885 1.459-.885 2.447v9.943h-2.387v-10.46c0-.869-.281-1.568-.845-2.099-.563-.536-1.289-.805-2.177-.805-.61 0-1.18.162-1.711.487a3.676 3.676 0 0 0-1.272 1.353c-.318.57-.478 1.23-.478 1.978v9.546h-2.346Zm24.336 0V77.863h2.267v2.386h.199c.318-.815.832-1.448 1.541-1.899.709-.457 1.561-.686 2.555-.686 1.008 0 1.846.229 2.516.686.676.451 1.203 1.084 1.581 1.9h.159a4.45 4.45 0 0 1 1.76-1.88c.782-.47 1.72-.706 2.814-.706 1.365 0 2.482.428 3.351 1.283.868.848 1.302 2.17 1.302 3.967v10.222h-2.346V82.914c0-1.127-.309-1.932-.925-2.416-.617-.484-1.342-.726-2.178-.726-1.074 0-1.905.325-2.495.974-.59.644-.885 1.459-.885 2.447v9.943h-2.387v-10.46c0-.869-.281-1.568-.845-2.099-.563-.536-1.289-.805-2.177-.805-.61 0-1.18.162-1.711.487a3.676 3.676 0 0 0-1.272 1.353c-.319.57-.478 1.23-.478 1.978v9.546h-2.346Z"/><path stroke="#058CD7" stroke-width="2" d="M547 96.136h-38M547 69.136h-38M544 79.136l-8-8-8 8M528 86.136l8 8 8-8M536 71.136v23"/><path fill="#0A2832" d="M329.703 84.366h7.628l2.547 10.139h3.388l-3.388-13.522h-5.964l9.333-10.17h-4.155l-9.389 10.092V70.81h-3.388v23.685h3.388V84.366ZM370.37 94.5l10.165-16.887v16.882h3.388V70.81h-3.388L370.37 87.795V70.82h-3.391v23.685h3.391V94.5ZM400.864 80.96h-10.237V70.81h-3.388v23.685h3.388v-10.15h10.237v10.15h3.389V70.81h-3.389v10.15ZM268.707 74.194h13.553v20.304h3.388V70.81h-20.332v23.688h3.391V74.194ZM245 94.517h3.388l1.409-4.973h8.761v4.954h3.376V70.81h-10.132l-.009.026-4.396 15.322h-1.432L245 89.544h1.42L245 94.517Zm9.138-20.32h4.413v11.96h-7.79l3.377-11.96ZM322.76 70.81h-9.912v.026h-.058l-4.391 15.322h-1.447l-.965 3.386h1.447l-1.447 4.973h3.377l1.41-4.973h8.759v4.954h3.388V70.81h-.161Zm-11.007 15.348 3.377-11.962h4.413v11.962h-7.79ZM305.959 78.456v-.034c0-4.072-3.077-7.405-6.935-7.612h-9.98v23.685h3.389V86.1h6.207c4.035 0 7.319-3.398 7.319-7.62v-.024Zm-7.76 4.32h-5.766v-8.628h5.766c2.286 0 4.141 1.927 4.141 4.318 0 2.391-1.855 4.31-4.141 4.31ZM488.341 70.81h-9.982v23.688h3.389v-8.396h6.209c4.033 0 7.317-3.395 7.317-7.62v-.047c.003-4.082-3.075-7.425-6.933-7.625Zm-.818 11.967h-5.773v-8.641h5.766c2.286 0 4.141 1.926 4.141 4.315 0 2.39-1.855 4.326-4.134 4.326ZM449.629 79.99v-9.18h-11.918v23.685H446.367c4.032 0 7.316-3.398 7.316-7.62v-.05a7.666 7.666 0 0 0-4.054-6.835Zm-3.388-5.791v5.006H441.1v-5.007h5.141Zm-.306 16.973h-4.823v-8.639h4.823c2.286 0 4.141 1.927 4.141 4.318 0 2.392-1.862 4.32-4.141 4.32ZM433.363 91.102h-2.445V70.81H420.76v20.302h-2.428l-.987 3.374H434.323l-.96-3.384Zm-9.215 0V74.184h3.377v16.918h-3.377ZM465.6 70.136c-5.727 0-10.37 5.597-10.37 12.499s4.643 12.498 10.37 12.498c5.728 0 10.37-5.594 10.37-12.498 0-6.905-4.64-12.5-10.37-12.5Zm0 21.614c-3.858 0-6.993-4.094-6.993-9.115 0-5.022 3.135-9.116 6.993-9.116 3.859 0 6.994 4.094 6.994 9.115 0 5.022-3.142 9.118-6.994 9.118v-.002ZM354.997 91.694c-4.032 0-7.312-4.062-7.312-9.057s3.28-9.06 7.312-9.06c2.927 0 5.228 1.842 6.395 4.927 0 0 1.946-1.29 2.863-2.24a10.12 10.12 0 0 0-3.713-4.444 10.139 10.139 0 0 0-5.545-1.684c-6 0-10.852 5.597-10.852 12.5 0 6.905 4.864 12.5 10.864 12.5 3.277 0 6.214-1.672 8.199-4.311-1.372-1.216-2.653-2.31-2.653-2.31-1.357 1.944-3.347 3.18-5.558 3.18Z"/></svg>