<svg width="630" height="101" viewBox="0 0 630 101" fill="none" xmlns="http://www.w3.org/2000/svg">
<path d="M0.696023 32.0576V24.5306H2.03835C2.49574 24.1462 2.9233 23.5993 3.32102 22.89C3.71875 22.1807 4.05682 21.2229 4.33523 20.0164C4.61364 18.81 4.80587 17.2622 4.91193 15.373L5.3892 6.77211H17.9474V24.5306H20.2543V32.0278H17.3111V27.1357H3.6392V32.0576H0.696023ZM5.65767 24.5306H15.0043V9.41699H8.1733L7.85511 15.373C7.76894 16.8114 7.62642 18.104 7.42756 19.2508C7.23532 20.3976 6.98674 21.4118 6.68182 22.2934C6.38352 23.1684 6.04214 23.9142 5.65767 24.5306ZM22.1783 27.1357L22.1683 24.5605H22.7152C23.1394 24.5605 23.4941 24.471 23.7791 24.292C24.0708 24.1064 24.3094 23.7948 24.495 23.3573C24.6806 22.9198 24.8232 22.3166 24.9226 21.5477C25.022 20.7721 25.0949 19.7977 25.1413 18.6244L25.4098 11.863H36.0689V27.1357H33.1555V14.4284H28.1641L27.9254 19.6187C27.8658 20.8782 27.7365 21.9785 27.5376 22.9198C27.3454 23.8611 27.0637 24.6466 26.6925 25.2764C26.3213 25.8995 25.844 26.3668 25.2607 26.6784C24.6773 26.9833 23.968 27.1357 23.1328 27.1357H22.1783ZM49.1417 27.1357V14.3985H45.4826C44.6142 14.3985 43.9381 14.6007 43.4542 15.0051C42.9703 15.4094 42.7283 15.9397 42.7283 16.596C42.7283 17.2456 42.9504 17.7693 43.3945 18.167C43.8453 18.5581 44.475 18.7536 45.2837 18.7536H50.0067V21.1599H45.2837C44.1568 21.1599 43.1824 20.9743 42.3604 20.6031C41.5451 20.2252 40.9154 19.6916 40.4712 19.0022C40.0337 18.3128 39.815 17.4975 39.815 16.5562C39.815 15.595 40.0404 14.7664 40.4911 14.0704C40.9485 13.3677 41.6014 12.8242 42.4499 12.4397C43.305 12.0552 44.3159 11.863 45.4826 11.863H51.9357V27.1357H49.1417ZM39.119 27.1357L43.4244 19.4198H46.467L42.1616 27.1357H39.119ZM61.8118 31.5406V24.5605H63.0547C63.3729 24.2688 63.6413 23.9208 63.8601 23.5164C64.0855 23.1121 64.2744 22.6315 64.4268 22.0747C64.5859 21.5178 64.7185 20.8682 64.8246 20.1258C64.9306 19.3767 65.0234 18.5216 65.103 17.5605L65.5803 11.863H75.9609V24.5605H78.3075V31.5406H75.4041V27.1357H64.755V31.5406H61.8118ZM66.2365 24.5605H73.0575V14.4085H68.245L67.9268 17.5605C67.7744 19.1646 67.5821 20.5567 67.3501 21.7366C67.1181 22.9099 66.7469 23.8512 66.2365 24.5605ZM84.1268 22.9695L90.8583 11.863H94.06V27.1357H91.1467V16.0193L84.445 27.1357H81.2134V11.863H84.1268V22.9695ZM96.5657 31.5406V24.5605H97.8086C98.1268 24.2688 98.3952 23.9208 98.614 23.5164C98.8394 23.1121 99.0283 22.6315 99.1808 22.0747C99.3398 21.5178 99.4724 20.8682 99.5785 20.1258C99.6845 19.3767 99.7773 18.5216 99.8569 17.5605L100.334 11.863H110.715V24.5605H113.061V31.5406H110.158V27.1357H99.5089V31.5406H96.5657ZM100.99 24.5605H107.811V14.4085H102.999L102.681 17.5605C102.528 19.1646 102.336 20.5567 102.104 21.7366C101.872 22.9099 101.501 23.8512 100.99 24.5605ZM114.993 27.1357L120.909 19.3204L115.062 11.863H118.523L123.246 18.2068H124.31V11.863H127.283V18.2068H128.317L133.04 11.863H136.5L130.683 19.3204L136.57 27.1357H133.04L128.277 20.7721H127.283V27.1357H124.31V20.7721H123.315L118.523 27.1357H114.993ZM142.506 22.9695L149.237 11.863H152.439V27.1357H149.526V16.0193L142.824 27.1357H139.592V11.863H142.506V22.9695ZM154.542 14.4284V11.863H167.428V14.4284H162.447V27.1357H159.543V14.4284H154.542ZM174.306 27.4738C173.339 27.4738 172.464 27.2948 171.681 26.9369C170.899 26.5723 170.279 26.0453 169.822 25.3559C169.371 24.6665 169.146 23.8213 169.146 22.8204C169.146 21.9587 169.312 21.2494 169.643 20.6926C169.975 20.1357 170.422 19.6949 170.985 19.3701C171.549 19.0453 172.179 18.8 172.875 18.6343C173.571 18.4686 174.28 18.3427 175.002 18.2565C175.917 18.1504 176.66 18.0642 177.23 17.998C177.8 17.925 178.214 17.809 178.473 17.6499C178.731 17.4909 178.86 17.2323 178.86 16.8744V16.8048C178.86 15.9364 178.615 15.2636 178.125 14.7863C177.641 14.309 176.918 14.0704 175.957 14.0704C174.956 14.0704 174.167 14.2925 173.591 14.7366C173.02 15.1741 172.626 15.6613 172.407 16.1982L169.613 15.5619C169.945 14.6338 170.429 13.8848 171.065 13.3147C171.708 12.738 172.447 12.3204 173.282 12.0619C174.118 11.7967 174.996 11.6642 175.917 11.6642C176.527 11.6642 177.173 11.7371 177.856 11.8829C178.546 12.0221 179.189 12.2806 179.785 12.6585C180.388 13.0363 180.882 13.5766 181.267 14.2792C181.651 14.9752 181.843 15.8801 181.843 16.9937V27.1357H178.94V25.0477H178.821C178.628 25.4321 178.34 25.81 177.956 26.1812C177.571 26.5524 177.077 26.8606 176.474 27.1059C175.871 27.3512 175.148 27.4738 174.306 27.4738ZM174.953 25.0874C175.775 25.0874 176.477 24.925 177.061 24.6002C177.651 24.2754 178.098 23.8512 178.403 23.3275C178.715 22.7972 178.87 22.2304 178.87 21.6272V19.6585C178.764 19.7645 178.559 19.864 178.254 19.9568C177.956 20.0429 177.614 20.1192 177.23 20.1855C176.845 20.2451 176.471 20.3015 176.106 20.3545C175.742 20.4009 175.437 20.4407 175.191 20.4738C174.615 20.5467 174.088 20.6694 173.61 20.8417C173.14 21.0141 172.762 21.2626 172.477 21.5874C172.199 21.9056 172.059 22.3299 172.059 22.8602C172.059 23.596 172.331 24.1528 172.875 24.5306C173.418 24.9018 174.111 25.0874 174.953 25.0874ZM184.6 27.1357L184.59 24.5605H185.137C185.561 24.5605 185.916 24.471 186.201 24.292C186.493 24.1064 186.731 23.7948 186.917 23.3573C187.103 22.9198 187.245 22.3166 187.344 21.5477C187.444 20.7721 187.517 19.7977 187.563 18.6244L187.832 11.863H198.491V27.1357H195.577V14.4284H190.586L190.347 19.6187C190.288 20.8782 190.158 21.9785 189.96 22.9198C189.767 23.8611 189.486 24.6466 189.114 25.2764C188.743 25.8995 188.266 26.3668 187.683 26.6784C187.099 26.9833 186.39 27.1357 185.555 27.1357H184.6ZM206.9 27.4738C205.932 27.4738 205.057 27.2948 204.275 26.9369C203.493 26.5723 202.873 26.0453 202.416 25.3559C201.965 24.6665 201.74 23.8213 201.74 22.8204C201.74 21.9587 201.905 21.2494 202.237 20.6926C202.568 20.1357 203.016 19.6949 203.579 19.3701C204.143 19.0453 204.772 18.8 205.468 18.6343C206.164 18.4686 206.874 18.3427 207.596 18.2565C208.511 18.1504 209.253 18.0642 209.824 17.998C210.394 17.925 210.808 17.809 211.066 17.6499C211.325 17.4909 211.454 17.2323 211.454 16.8744V16.8048C211.454 15.9364 211.209 15.2636 210.718 14.7863C210.234 14.309 209.512 14.0704 208.551 14.0704C207.55 14.0704 206.761 14.2925 206.184 14.7366C205.614 15.1741 205.22 15.6613 205.001 16.1982L202.207 15.5619C202.538 14.6338 203.022 13.8848 203.659 13.3147C204.302 12.738 205.041 12.3204 205.876 12.0619C206.711 11.7967 207.59 11.6642 208.511 11.6642C209.121 11.6642 209.767 11.7371 210.45 11.8829C211.139 12.0221 211.782 12.2806 212.379 12.6585C212.982 13.0363 213.476 13.5766 213.86 14.2792C214.245 14.9752 214.437 15.8801 214.437 16.9937V27.1357H211.534V25.0477H211.414C211.222 25.4321 210.934 25.81 210.549 26.1812C210.165 26.5524 209.671 26.8606 209.068 27.1059C208.465 27.3512 207.742 27.4738 206.9 27.4738ZM207.547 25.0874C208.368 25.0874 209.071 24.925 209.654 24.6002C210.244 24.2754 210.692 23.8512 210.997 23.3275C211.308 22.7972 211.464 22.2304 211.464 21.6272V19.6585C211.358 19.7645 211.153 19.864 210.848 19.9568C210.549 20.0429 210.208 20.1192 209.824 20.1855C209.439 20.2451 209.065 20.3015 208.7 20.3545C208.335 20.4009 208.03 20.4407 207.785 20.4738C207.208 20.5467 206.681 20.6694 206.204 20.8417C205.734 21.0141 205.356 21.2626 205.071 21.5874C204.792 21.9056 204.653 22.3299 204.653 22.8602C204.653 23.596 204.925 24.1528 205.468 24.5306C206.012 24.9018 206.705 25.0874 207.547 25.0874Z" fill="#058CD7"/>
<path d="M558.108 27.1357V25.346L564.83 17.988C565.618 17.1263 566.268 16.3772 566.778 15.7409C567.289 15.0979 567.667 14.4946 567.912 13.9312C568.164 13.3611 568.29 12.7645 568.29 12.1414C568.29 11.4255 568.117 10.8057 567.773 10.282C567.435 9.75837 566.971 9.35402 566.381 9.06898C565.791 8.78394 565.128 8.64142 564.392 8.64142C563.61 8.64142 562.927 8.80383 562.344 9.12864C561.767 9.44682 561.32 9.89426 561.001 10.471C560.69 11.0477 560.534 11.7238 560.534 12.4994H558.188C558.188 11.3062 558.463 10.2588 559.013 9.35733C559.563 8.45582 560.312 7.75317 561.26 7.24938C562.214 6.74559 563.285 6.4937 564.472 6.4937C565.665 6.4937 566.722 6.74559 567.643 7.24938C568.565 7.75317 569.287 8.43262 569.811 9.28773C570.335 10.1428 570.597 11.0941 570.597 12.1414C570.597 12.8905 570.461 13.623 570.189 14.3389C569.924 15.0481 569.46 15.8403 568.797 16.7153C568.141 17.5837 567.229 18.6443 566.062 19.8971L561.489 24.7892V24.9482H570.955V27.1357H558.108ZM574.146 22.9596V20.9312L583.095 6.77211H584.567V9.91415H583.572L576.811 20.613V20.7721H588.862V22.9596H574.146ZM583.732 27.1357V22.3431V21.3985V6.77211H586.078V27.1357H583.732ZM600.503 32.863V11.863H602.77V14.2892H603.049C603.221 14.024 603.46 13.6859 603.765 13.2749C604.076 12.8573 604.52 12.4861 605.097 12.1613C605.68 11.8299 606.469 11.6642 607.463 11.6642C608.749 11.6642 609.883 11.9856 610.864 12.6286C611.845 13.2716 612.611 14.1831 613.161 15.363C613.711 16.5429 613.986 17.935 613.986 19.5392C613.986 21.1566 613.711 22.5586 613.161 23.7451C612.611 24.925 611.848 25.8398 610.874 26.4894C609.9 27.1324 608.776 27.4539 607.503 27.4539C606.522 27.4539 605.737 27.2915 605.147 26.9667C604.557 26.6353 604.103 26.2607 603.784 25.8431C603.466 25.4189 603.221 25.0676 603.049 24.7892H602.85V32.863H600.503ZM602.81 19.4994C602.81 20.6528 602.979 21.6703 603.317 22.5519C603.655 23.4269 604.149 24.113 604.799 24.6102C605.448 25.1007 606.244 25.346 607.185 25.346C608.166 25.346 608.985 25.0874 609.641 24.5704C610.304 24.0467 610.801 23.3441 611.132 22.4624C611.471 21.5742 611.64 20.5865 611.64 19.4994C611.64 18.4255 611.474 17.4577 611.142 16.596C610.818 15.7276 610.324 15.0415 609.661 14.5377C609.005 14.0273 608.179 13.7721 607.185 13.7721C606.23 13.7721 605.428 14.0141 604.779 14.498C604.129 14.9752 603.639 15.6447 603.307 16.5065C602.976 17.3616 602.81 18.3592 602.81 19.4994ZM618.687 11.863L622.346 18.1073L626.005 11.863H628.71L623.778 19.4994L628.71 27.1357H626.005L622.346 21.2096L618.687 27.1357H615.982L620.835 19.4994L615.982 11.863H618.687Z" fill="#058CD7"/>
<line x1="546" y1="30.1357" x2="508" y2="30.1357" stroke="#058CD7" stroke-width="2"/>
<line x1="546" y1="3.13574" x2="508" y2="3.13574" stroke="#058CD7" stroke-width="2"/>
<path d="M535 4V30" stroke="#058CD7" stroke-width="2"/>
<path d="M328.703 18.3661H336.331L338.878 28.5048H342.266L338.878 14.9825H332.914L342.247 4.81247H338.092L328.703 14.9054V4.81006H325.315V28.4952H328.703V18.3661Z" fill="#0A2832"/>
<path d="M369.37 28.5L379.535 11.6134V28.4952H382.923V4.81006H379.535L369.37 21.7954V4.81969H365.979V28.5048H369.37V28.5Z" fill="#0A2832"/>
<path d="M399.864 14.9608H389.627V4.81006H386.239V28.4951H389.627V18.3444H399.864V28.4951H403.253V4.81006H399.864V14.9608Z" fill="#0A2832"/>
<path d="M267.707 8.19364H281.26V28.4976H284.648V4.81006H282.229H281.26H267.707H266.92H264.316V28.4976H267.707V8.19364Z" fill="#0A2832"/>
<path d="M244 28.5168H247.388L248.797 23.5438H257.558V28.4976H260.934V4.81006H250.851H250.802L250.793 4.83655L246.397 20.1578H244.965L244 23.5438H245.42L244 28.5168ZM253.138 8.19605H257.551V20.1578H249.761L253.138 8.19605Z" fill="#0A2832"/>
<path d="M321.76 4.81006H311.848V4.83655H311.79L307.399 20.1578H305.952L304.987 23.5438H306.434L304.987 28.5168H308.364L309.774 23.5438H318.533V28.4976H321.921V4.81006H321.76ZM310.753 20.1578L314.13 8.19605H318.543V20.1578H310.753Z" fill="#0A2832"/>
<path d="M304.959 12.4562V12.4225C304.959 8.35018 301.882 5.01717 298.024 4.81006H288.044V28.4951H291.433V20.1H297.64C301.675 20.1 304.959 16.702 304.959 12.4803V12.4562ZM297.199 16.7766H291.433V8.14789H297.199C299.485 8.14789 301.34 10.0745 301.34 12.4659C301.34 14.8573 299.485 16.7766 297.199 16.7766Z" fill="#0A2832"/>
<path d="M487.341 4.81006H477.359V28.4976H480.748V20.1024H486.957C490.99 20.1024 494.274 16.7068 494.274 12.4827V12.4346C494.277 8.35259 491.199 5.00994 487.341 4.81006ZM486.523 16.7766H480.75V8.13585H486.516C488.802 8.13585 490.657 10.0624 490.657 12.4514C490.657 14.8404 488.802 16.7766 486.523 16.7766Z" fill="#0A2832"/>
<path d="M448.629 13.9903V4.81006H436.711V28.4951H440.088H445.367C449.399 28.4951 452.683 25.0971 452.683 20.8755V20.8249C452.697 19.4247 452.326 18.0475 451.611 16.8427C450.897 15.6379 449.866 14.6515 448.629 13.9903ZM445.241 8.19846V13.2052H440.1V8.19846H445.241ZM444.935 25.1718H440.112V16.5334H444.935C447.221 16.5334 449.076 18.46 449.076 20.8514C449.076 23.2428 447.214 25.1718 444.935 25.1718Z" fill="#0A2832"/>
<path d="M432.363 25.1019H429.918V4.81006H428.23H419.76V25.1116H417.332L416.345 28.4855H426.529H429.918H433.323L432.363 25.1019ZM423.148 25.1019V8.18401H426.525V25.1019H423.148Z" fill="#0A2832"/>
<path d="M464.6 4.13574C458.873 4.13574 454.23 9.73251 454.23 16.6345C454.23 23.5366 458.873 29.1333 464.6 29.1333C470.328 29.1333 474.97 23.539 474.97 16.6345C474.97 9.7301 470.33 4.13574 464.6 4.13574ZM464.6 25.7497C460.742 25.7497 457.607 21.6557 457.607 16.6345C457.607 11.6133 460.742 7.51933 464.6 7.51933C468.459 7.51933 471.594 11.6133 471.594 16.6345C471.594 21.6557 468.452 25.7522 464.6 25.7522V25.7497Z" fill="#0A2832"/>
<path d="M353.997 25.6944C349.965 25.6944 346.685 21.6316 346.685 16.6369C346.685 11.6422 349.965 7.57713 353.997 7.57713C356.924 7.57713 359.225 9.41943 360.392 12.5044C360.392 12.5044 362.338 11.2136 363.255 10.2647C362.477 8.45358 361.187 6.90869 359.542 5.81986C357.897 4.73103 355.97 4.14569 353.997 4.13574C347.997 4.13574 343.145 9.73251 343.145 16.6369C343.145 23.5414 348.009 29.1357 354.009 29.1357C357.286 29.1357 360.223 27.4644 362.208 24.825C360.836 23.6088 359.555 22.5155 359.555 22.5155C358.198 24.4589 356.208 25.6944 353.997 25.6944Z" fill="#0A2832"/>
<path d="M1.69602 98.0576V90.5306H3.03835C3.49574 90.1462 3.9233 89.5993 4.32102 88.89C4.71875 88.1807 5.05682 87.2229 5.33523 86.0164C5.61364 84.81 5.80587 83.2622 5.91193 81.373L6.3892 72.7721H18.9474V90.5306H21.2543V98.0278H18.3111V93.1357H4.6392V98.0576H1.69602ZM6.65767 90.5306H16.0043V75.417H9.1733L8.85511 81.373C8.76894 82.8114 8.62642 84.104 8.42756 85.2508C8.23532 86.3976 7.98674 87.4118 7.68182 88.2934C7.38352 89.1684 7.04214 89.9142 6.65767 90.5306ZM23.1783 93.1357L23.1683 90.5605H23.7152C24.1394 90.5605 24.4941 90.471 24.7791 90.292C25.0708 90.1064 25.3094 89.7948 25.495 89.3573C25.6806 88.9198 25.8232 88.3166 25.9226 87.5477C26.022 86.7721 26.0949 85.7977 26.1413 84.6244L26.4098 77.863H37.0689V93.1357H34.1555V80.4284H29.1641L28.9254 85.6187C28.8658 86.8782 28.7365 87.9785 28.5376 88.9198C28.3454 89.8611 28.0637 90.6466 27.6925 91.2764C27.3213 91.8995 26.844 92.3668 26.2607 92.6784C25.6773 92.9833 24.968 93.1357 24.1328 93.1357H23.1783ZM50.1417 93.1357V80.3985H46.4826C45.6142 80.3985 44.9381 80.6007 44.4542 81.0051C43.9703 81.4094 43.7283 81.9397 43.7283 82.596C43.7283 83.2456 43.9504 83.7693 44.3945 84.167C44.8453 84.5581 45.475 84.7536 46.2837 84.7536H51.0067V87.1599H46.2837C45.1568 87.1599 44.1824 86.9743 43.3604 86.6031C42.5451 86.2252 41.9154 85.6916 41.4712 85.0022C41.0337 84.3128 40.815 83.4975 40.815 82.5562C40.815 81.595 41.0404 80.7664 41.4911 80.0704C41.9485 79.3677 42.6014 78.8242 43.4499 78.4397C44.305 78.0552 45.3159 77.863 46.4826 77.863H52.9357V93.1357H50.1417ZM40.119 93.1357L44.4244 85.4198H47.467L43.1616 93.1357H40.119ZM64.3033 93.1357V77.863H76.7621V93.1357H73.8487V80.4284H67.1967V93.1357H64.3033ZM87.3192 93.444C85.8145 93.444 84.5186 93.1225 83.4315 92.4795C82.351 91.8299 81.5157 90.9184 80.9258 89.7451C80.3424 88.5652 80.0508 87.1831 80.0508 85.5988C80.0508 84.0344 80.3424 82.6556 80.9258 81.4624C81.5157 80.2693 82.3377 79.3379 83.3917 78.6684C84.4523 77.9989 85.6919 77.6642 87.1104 77.6642C87.9722 77.6642 88.8074 77.8067 89.6161 78.0917C90.4248 78.3767 91.1507 78.8242 91.7937 79.434C92.4367 80.0439 92.9438 80.836 93.315 81.8105C93.6862 82.7783 93.8718 83.9549 93.8718 85.3403V86.3943H81.7312V84.167H90.9585C90.9585 83.3848 90.7994 82.6921 90.4812 82.0889C90.163 81.479 89.7156 80.9984 89.1388 80.6471C88.5688 80.2958 87.8993 80.1201 87.1303 80.1201C86.2951 80.1201 85.5659 80.3256 84.9428 80.7366C84.3263 81.141 83.8491 81.6713 83.511 82.3275C83.1796 82.9771 83.0138 83.6831 83.0138 84.4454V86.1855C83.0138 87.2063 83.1928 88.0747 83.5508 88.7906C83.9154 89.5065 84.4225 90.0534 85.0721 90.4312C85.7217 90.8024 86.4807 90.988 87.3491 90.988C87.9125 90.988 88.4263 90.9085 88.8903 90.7494C89.3543 90.5837 89.7553 90.3384 90.0934 90.0136C90.4315 89.6888 90.69 89.2877 90.869 88.8105L93.6829 89.3176C93.4575 90.1462 93.0531 90.872 92.4698 91.4951C91.8931 92.1116 91.1673 92.5922 90.2923 92.9369C89.4239 93.2749 88.4329 93.444 87.3192 93.444ZM109.43 77.863V93.1357H106.527V77.863H109.43ZM108.168 84.9525V87.5178C107.71 87.7035 107.226 87.8692 106.716 88.015C106.205 88.1542 105.669 88.2636 105.105 88.3431C104.542 88.4227 103.955 88.4624 103.345 88.4624C101.456 88.4624 99.9545 88.0017 98.8409 87.0803C97.7273 86.1523 97.1705 84.7338 97.1705 82.8247V77.8332H100.064V82.8247C100.064 83.5472 100.196 84.1338 100.462 84.5846C100.727 85.0354 101.105 85.3668 101.595 85.5789C102.086 85.791 102.669 85.8971 103.345 85.8971C104.24 85.8971 105.065 85.8142 105.821 85.6485C106.583 85.4762 107.366 85.2442 108.168 84.9525ZM117.83 93.4738C116.862 93.4738 115.987 93.2948 115.205 92.9369C114.423 92.5723 113.803 92.0453 113.346 91.3559C112.895 90.6665 112.669 89.8213 112.669 88.8204C112.669 87.9587 112.835 87.2494 113.167 86.6926C113.498 86.1357 113.945 85.6949 114.509 85.3701C115.072 85.0453 115.702 84.8 116.398 84.6343C117.094 84.4686 117.803 84.3427 118.526 84.2565C119.441 84.1504 120.183 84.0642 120.753 83.998C121.323 83.925 121.738 83.809 121.996 83.6499C122.255 83.4909 122.384 83.2323 122.384 82.8744V82.8048C122.384 81.9364 122.139 81.2636 121.648 80.7863C121.164 80.309 120.442 80.0704 119.48 80.0704C118.48 80.0704 117.691 80.2925 117.114 80.7366C116.544 81.1741 116.15 81.6613 115.931 82.1982L113.137 81.5619C113.468 80.6338 113.952 79.8848 114.588 79.3147C115.231 78.738 115.971 78.3204 116.806 78.0619C117.641 77.7967 118.519 77.6642 119.441 77.6642C120.051 77.6642 120.697 77.7371 121.38 77.8829C122.069 78.0221 122.712 78.2806 123.309 78.6585C123.912 79.0363 124.406 79.5766 124.79 80.2792C125.175 80.9752 125.367 81.8801 125.367 82.9937V93.1357H122.463V91.0477H122.344C122.152 91.4321 121.864 91.81 121.479 92.1812C121.095 92.5524 120.601 92.8606 119.998 93.1059C119.394 93.3512 118.672 93.4738 117.83 93.4738ZM118.476 91.0874C119.298 91.0874 120.001 90.925 120.584 90.6002C121.174 90.2754 121.622 89.8512 121.926 89.3275C122.238 88.7972 122.394 88.2304 122.394 87.6272V85.6585C122.288 85.7645 122.082 85.864 121.777 85.9568C121.479 86.0429 121.138 86.1192 120.753 86.1855C120.369 86.2451 119.994 86.3015 119.63 86.3545C119.265 86.4009 118.96 86.4407 118.715 86.4738C118.138 86.5467 117.611 86.6694 117.134 86.8417C116.663 87.0141 116.285 87.2626 116 87.5874C115.722 87.9056 115.583 88.3299 115.583 88.8602C115.583 89.596 115.855 90.1528 116.398 90.5306C116.942 90.9018 117.634 91.0874 118.476 91.0874ZM127.433 80.4284V77.863H140.319V80.4284H135.337V93.1357H132.434V80.4284H127.433ZM146.377 88.9695L153.108 77.863H156.31V93.1357H153.397V82.0193L146.695 93.1357H143.463V77.863H146.377V88.9695Z" fill="#058CD7"/>
<path d="M559.744 93.1357L568.852 75.1187V74.9596H558.352V72.7721H571.398V75.0789L562.33 93.1357H559.744ZM583.019 93.1357V77.863H585.286V80.2494H585.485C585.803 79.434 586.317 78.801 587.026 78.3502C587.735 77.8928 588.587 77.6642 589.581 77.6642C590.589 77.6642 591.427 77.8928 592.097 78.3502C592.773 78.801 593.3 79.434 593.678 80.2494H593.837C594.228 79.4606 594.815 78.8341 595.597 78.3701C596.379 77.8995 597.317 77.6642 598.411 77.6642C599.776 77.6642 600.893 78.0917 601.762 78.9468C602.63 79.7953 603.064 81.1177 603.064 82.9142V93.1357H600.718V82.9142C600.718 81.7873 600.409 80.9819 599.793 80.498C599.176 80.0141 598.451 79.7721 597.615 79.7721C596.542 79.7721 595.71 80.0969 595.12 80.7465C594.53 81.3895 594.235 82.2049 594.235 83.1926V93.1357H591.848V82.6755C591.848 81.8071 591.567 81.1078 591.003 80.5775C590.44 80.0406 589.714 79.7721 588.826 79.7721C588.216 79.7721 587.646 79.9345 587.115 80.2593C586.592 80.5841 586.167 81.0349 585.843 81.6116C585.525 82.1817 585.365 82.8412 585.365 83.5903V93.1357H583.019ZM607.355 93.1357V77.863H609.622V80.2494H609.821C610.139 79.434 610.653 78.801 611.362 78.3502C612.071 77.8928 612.923 77.6642 613.917 77.6642C614.925 77.6642 615.763 77.8928 616.433 78.3502C617.109 78.801 617.636 79.434 618.014 80.2494H618.173C618.564 79.4606 619.151 78.8341 619.933 78.3701C620.715 77.8995 621.653 77.6642 622.747 77.6642C624.112 77.6642 625.229 78.0917 626.098 78.9468C626.966 79.7953 627.4 81.1177 627.4 82.9142V93.1357H625.054V82.9142C625.054 81.7873 624.745 80.9819 624.129 80.498C623.512 80.0141 622.787 79.7721 621.951 79.7721C620.877 79.7721 620.046 80.0969 619.456 80.7465C618.866 81.3895 618.571 82.2049 618.571 83.1926V93.1357H616.184V82.6755C616.184 81.8071 615.903 81.1078 615.339 80.5775C614.776 80.0406 614.05 79.7721 613.162 79.7721C612.552 79.7721 611.982 79.9345 611.451 80.2593C610.928 80.5841 610.503 81.0349 610.179 81.6116C609.86 82.1817 609.701 82.8412 609.701 83.5903V93.1357H607.355Z" fill="#058CD7"/>
<line x1="547" y1="96.1357" x2="509" y2="96.1357" stroke="#058CD7" stroke-width="2"/>
<line x1="547" y1="69.1357" x2="509" y2="69.1357" stroke="#058CD7" stroke-width="2"/>
<path d="M536 69V96" stroke="#058CD7" stroke-width="2"/>
<path d="M329.703 84.3661H337.331L339.878 94.5048H343.266L339.878 80.9825H333.914L343.247 70.8125H339.092L329.703 80.9054V70.8101H326.315V94.4952H329.703V84.3661Z" fill="#0A2832"/>
<path d="M370.37 94.5L380.535 77.6134V94.4952H383.923V70.8101H380.535L370.37 87.7954V70.8197H366.979V94.5048H370.37V94.5Z" fill="#0A2832"/>
<path d="M400.864 80.9608H390.627V70.8101H387.239V94.4951H390.627V84.3444H400.864V94.4951H404.253V70.8101H400.864V80.9608Z" fill="#0A2832"/>
<path d="M268.707 74.1936H282.26V94.4976H285.648V70.8101H283.229H282.26H268.707H267.92H265.316V94.4976H268.707V74.1936Z" fill="#0A2832"/>
<path d="M245 94.5168H248.388L249.797 89.5438H258.558V94.4976H261.934V70.8101H251.851H251.802L251.793 70.8365L247.397 86.1578H245.965L245 89.5438H246.42L245 94.5168ZM254.138 74.1961H258.551V86.1578H250.761L254.138 74.1961Z" fill="#0A2832"/>
<path d="M322.76 70.8101H312.848V70.8365H312.79L308.399 86.1578H306.952L305.987 89.5438H307.434L305.987 94.5168H309.364L310.774 89.5438H319.533V94.4976H322.921V70.8101H322.76ZM311.753 86.1578L315.13 74.1961H319.543V86.1578H311.753Z" fill="#0A2832"/>
<path d="M305.959 78.4562V78.4225C305.959 74.3502 302.882 71.0172 299.024 70.8101H289.044V94.4951H292.433V86.1H298.64C302.675 86.1 305.959 82.702 305.959 78.4803V78.4562ZM298.199 82.7766H292.433V74.1479H298.199C300.485 74.1479 302.34 76.0745 302.34 78.4659C302.34 80.8573 300.485 82.7766 298.199 82.7766Z" fill="#0A2832"/>
<path d="M488.341 70.8101H478.359V94.4976H481.748V86.1024H487.957C491.99 86.1024 495.274 82.7068 495.274 78.4827V78.4346C495.277 74.3526 492.199 71.0099 488.341 70.8101ZM487.523 82.7766H481.75V74.1358H487.516C489.802 74.1358 491.657 76.0624 491.657 78.4514C491.657 80.8404 489.802 82.7766 487.523 82.7766Z" fill="#0A2832"/>
<path d="M449.629 79.9903V70.8101H437.711V94.4951H441.088H446.367C450.399 94.4951 453.683 91.0971 453.683 86.8755V86.8249C453.697 85.4247 453.326 84.0475 452.611 82.8427C451.897 81.6379 450.866 80.6515 449.629 79.9903ZM446.241 74.1985V79.2052H441.1V74.1985H446.241ZM445.935 91.1718H441.112V82.5334H445.935C448.221 82.5334 450.076 84.46 450.076 86.8514C450.076 89.2428 448.214 91.1718 445.935 91.1718Z" fill="#0A2832"/>
<path d="M433.363 91.1019H430.918V70.8101H429.23H420.76V91.1116H418.332L417.345 94.4855H427.529H430.918H434.323L433.363 91.1019ZM424.148 91.1019V74.184H427.525V91.1019H424.148Z" fill="#0A2832"/>
<path d="M465.6 70.1357C459.873 70.1357 455.23 75.7325 455.23 82.6345C455.23 89.5366 459.873 95.1333 465.6 95.1333C471.328 95.1333 475.97 89.539 475.97 82.6345C475.97 75.7301 471.33 70.1357 465.6 70.1357ZM465.6 91.7497C461.742 91.7497 458.607 87.6557 458.607 82.6345C458.607 77.6133 461.742 73.5193 465.6 73.5193C469.459 73.5193 472.594 77.6133 472.594 82.6345C472.594 87.6557 469.452 91.7522 465.6 91.7522V91.7497Z" fill="#0A2832"/>
<path d="M354.997 91.6944C350.965 91.6944 347.685 87.6316 347.685 82.6369C347.685 77.6422 350.965 73.5771 354.997 73.5771C357.924 73.5771 360.225 75.4194 361.392 78.5044C361.392 78.5044 363.338 77.2136 364.255 76.2647C363.477 74.4536 362.187 72.9087 360.542 71.8199C358.897 70.731 356.97 70.1457 354.997 70.1357C348.997 70.1357 344.145 75.7325 344.145 82.6369C344.145 89.5414 349.009 95.1357 355.009 95.1357C358.286 95.1357 361.223 93.4644 363.208 90.825C361.836 89.6088 360.555 88.5155 360.555 88.5155C359.198 90.4589 357.208 91.6944 354.997 91.6944Z" fill="#0A2832"/>
</svg>
