<svg xmlns="http://www.w3.org/2000/svg" width="552" height="56" fill="none"><path fill="#0A2832" d="M186.822 31.385h16.824l5.616 22.361h7.473l-7.473-29.824h-13.153l20.584-22.43h-9.165l-20.706 22.26V1.488h-7.473v52.238h7.473v-22.34ZM276.514 53.736l22.419-37.244v37.233h7.473V1.487h-7.473l-22.419 37.462V1.509h-7.478v52.237h7.478v-.01ZM343.77 23.875h-22.579V1.487h-7.473v52.238h7.473V31.337h22.579v22.388h7.473V1.487h-7.473v22.388ZM52.29 8.95h29.892v44.78h7.473V1.488H44.812V53.73h7.478V8.949ZM.005 53.773h7.473l3.106-10.968h19.323V53.73h7.447V1.487H15.006l-.018.058-9.696 33.792h-3.16L.005 42.805h3.133L.005 53.773ZM20.158 8.955h9.733v26.382h-17.18l7.447-26.382ZM171.507 1.487h-21.861v.058h-.127l-9.686 33.792h-3.191l-2.128 7.468h3.191l-3.191 10.968h7.447l3.111-10.968h19.318V53.73h7.473V1.487h-.356Zm-24.275 33.85 7.446-26.382h9.733v26.382h-17.179ZM134.454 18.35v-.074c0-8.981-6.787-16.332-15.297-16.79h-22.01v52.24h7.473V35.208h13.691c8.899 0 16.143-7.494 16.143-16.805v-.053Zm-17.116 9.53H104.62V8.849h12.718c5.042 0 9.132 4.249 9.132 9.523s-4.09 9.508-9.132 9.508ZM536.703 1.487h-22.015V53.73h7.473V35.215h13.697c8.893 0 16.137-7.49 16.137-16.806v-.106C552 9.3 545.213 1.928 536.703 1.487ZM534.9 27.88h-12.733V8.822h12.717c5.042 0 9.133 4.25 9.133 9.518 0 5.27-4.091 9.54-9.117 9.54ZM451.324 21.734V1.487h-26.286v52.238h19.089c8.894 0 16.138-7.494 16.138-16.805v-.112a16.905 16.905 0 0 0-8.941-15.074ZM443.851 8.96v11.043h-11.34V8.96h11.34Zm-.676 37.435h-10.637V27.343h10.637c5.043 0 9.133 4.25 9.133 9.524 0 5.274-4.106 9.528-9.133 9.528ZM415.448 46.241h-5.393V1.487h-22.403v44.776h-5.356l-2.176 7.441h37.445l-2.117-7.463Zm-20.323 0V8.928h7.446v37.313h-7.446ZM486.547 0c-12.632 0-22.871 12.344-22.871 27.567 0 15.222 10.239 27.566 22.871 27.566 12.633 0 22.871-12.338 22.871-27.566S499.185 0 486.547 0Zm0 47.67c-8.51 0-15.424-9.029-15.424-20.103 0-11.075 6.914-20.104 15.424-20.104 8.511 0 15.425 9.03 15.425 20.104s-6.93 20.109-15.425 20.109v-.005ZM242.607 47.548c-8.893 0-16.127-8.96-16.127-19.976 0-11.016 7.234-19.982 16.127-19.982 6.457 0 11.531 4.063 14.105 10.867 0 0 4.293-2.847 6.314-4.94a22.314 22.314 0 0 0-8.189-9.803A22.358 22.358 0 0 0 242.607 0c-13.234 0-23.935 12.344-23.935 27.572s10.728 27.567 23.961 27.567c7.229 0 13.707-3.687 18.084-9.508-3.026-2.682-5.85-5.094-5.85-5.094-2.995 4.287-7.383 7.011-12.26 7.011Z"/></svg>