<svg xmlns="http://www.w3.org/2000/svg" width="662" height="163" fill="none"><path fill="#0A2832" d="M242.178 85.523h16.824l5.616 22.361h7.473l-7.473-29.824h-13.153l20.584-22.43h-9.165l-20.706 22.26V55.624h-7.473v52.239h7.473v-22.34ZM331.87 107.874l22.419-37.245v37.234h7.473V55.624h-7.473L331.87 93.087v-37.44h-7.478v52.238h7.478v-.01ZM399.126 78.012h-22.578V55.624h-7.473v52.239h7.473V85.475h22.578v22.388h7.473V55.624h-7.473v22.388ZM107.646 63.087h29.892v44.781h7.473V55.625h-44.843v52.243h7.478v-44.78ZM55.361 107.911h7.473l3.106-10.969h19.324v10.926h7.446V55.625H70.363l-.018.058-9.697 33.792h-3.16l-2.127 7.468h3.133l-3.133 10.968Zm20.154-44.819h9.733v26.383h-17.18l7.447-26.382ZM226.863 55.624h-21.86v.059h-.128l-9.686 33.792h-3.191l-2.127 7.468h3.191l-3.191 10.968h7.446l3.112-10.968h19.318v10.925h7.473V55.625h-.357Zm-24.275 33.85 7.446-26.382h9.734v26.383h-17.18ZM189.81 72.489v-.075c0-8.982-6.787-16.333-15.297-16.79h-22.01v52.239h7.473V89.347h13.691c8.899 0 16.143-7.494 16.143-16.805v-.053Zm-17.116 9.528h-12.718v-19.03h12.718c5.042 0 9.132 4.248 9.132 9.523 0 5.274-4.09 9.507-9.132 9.507ZM592.061 55.624h-22.015v52.244h7.473V89.352h13.696c8.893 0 16.137-7.489 16.137-16.805v-.106c.006-9.003-6.781-16.376-15.291-16.817Zm-1.803 26.393h-12.734V62.96h12.718c5.042 0 9.132 4.249 9.132 9.518 0 5.269-4.09 9.54-9.116 9.54ZM506.68 75.872V55.624h-26.286v52.239h19.089c8.894 0 16.138-7.495 16.138-16.806v-.111a16.905 16.905 0 0 0-8.941-15.074Zm-7.473-12.774V74.14h-11.34V63.098h11.34Zm-.676 37.435h-10.637V81.481h10.637c5.043 0 9.133 4.249 9.133 9.523 0 5.275-4.106 9.529-9.133 9.529ZM470.804 100.379h-5.393V55.624h-22.403V100.4h-5.357l-2.175 7.442h37.445l-2.117-7.463Zm-20.323 0V63.066h7.446v37.313h-7.446ZM541.903 54.138c-12.632 0-22.871 12.344-22.871 27.566 0 15.223 10.239 27.567 22.871 27.567 12.633 0 22.871-12.339 22.871-27.567s-10.233-27.566-22.871-27.566Zm0 47.67c-8.51 0-15.424-9.03-15.424-20.104S533.393 61.6 541.903 61.6s15.425 9.03 15.425 20.104c0 11.075-6.93 20.11-15.425 20.11v-.006ZM297.963 101.686c-8.893 0-16.127-8.96-16.127-19.976 0-11.016 7.234-19.982 16.127-19.982 6.457 0 11.531 4.063 14.105 10.867 0 0 4.293-2.847 6.314-4.94a22.314 22.314 0 0 0-8.189-9.803 22.358 22.358 0 0 0-12.23-3.714c-13.234 0-23.935 12.344-23.935 27.572s10.728 27.566 23.961 27.566c7.229 0 13.707-3.686 18.084-9.507-3.026-2.683-5.85-5.094-5.85-5.094-2.995 4.286-7.383 7.011-12.26 7.011Z"/><path fill="#82C5EB" d="M570.352 53.425h7.473l3.106-10.968h19.324v10.925h7.446V1.138h-22.347l-.019.059-9.696 33.792h-3.159l-2.128 7.468h3.133l-3.133 10.968Zm20.153-44.819h9.734V34.99h-17.18l7.446-26.383ZM55.361 161.423h7.473l3.106-10.968h19.324v10.925h7.446v-52.243H70.363l-.018.058-9.697 33.792h-3.16l-2.127 7.468h3.133l-3.133 10.968Zm20.154-44.818h9.733v26.382h-17.18l7.447-26.382ZM608.352 54.138v7.473l10.968 3.106V84.04h-10.926v7.447h52.244V69.139l-.058-.018-33.792-9.696v-3.16l-7.468-2.127v3.133l-10.968-3.133ZM653.17 74.29v9.733h-26.382v-17.18l26.382 7.447ZM1.362 72.137v7.473l10.968 3.107v19.323H1.404v7.446h52.244V87.139l-.059-.018-33.791-9.697v-3.159l-7.468-2.128v3.133L1.362 72.137ZM46.18 92.291v9.733H19.798v-17.18l26.382 7.447Z"/><path stroke="#058CD7" stroke-width="1.5" d="M1.362 1.138H660.35v160.997H1.362zM1.362 53.388H660.35M1.362 109.387H660.35M54.111 1.138v160.998M608.102 1.138v160.998"/></svg>