<svg width="552" height="276" viewBox="0 0 552 276" fill="none" xmlns="http://www.w3.org/2000/svg">
<rect width="552" height="92" fill="#F2F6F9"/>
<path d="M126 55C127.182 55 128.352 54.7672 129.444 54.3149C130.536 53.8626 131.528 53.1997 132.364 52.364C133.2 51.5282 133.863 50.5361 134.315 49.4442C134.767 48.3522 135 47.1819 135 46C135 44.8181 134.767 43.6478 134.315 42.5558C133.863 41.4639 133.2 40.4718 132.364 39.636C131.528 38.8003 130.536 38.1374 129.444 37.6851C128.352 37.2328 127.182 37 126 37C123.613 37 121.324 37.9482 119.636 39.636C117.948 41.3239 117 43.6131 117 46C117 48.3869 117.948 50.6761 119.636 52.364C121.324 54.0518 123.613 55 126 55ZM137 46C137 52.075 132.075 57 126 57C119.925 57 115 52.075 115 46C115 39.925 119.925 35 126 35C132.075 35 137 39.925 137 46ZM124.5 50.414L120.086 46L121.5 44.586L124.5 47.586L130.5 41.586L131.914 43L124.5 50.414Z" fill="#0A2832"/>
<path d="M164.503 51.0611L164.311 56.4375H162.124V53H161.101V51.0611H164.503ZM151.598 53V38.4545H153.7V51.0966H160.717V38.4545H162.827V53H151.598ZM166.74 53V42.0909H171.264C172.495 42.0909 173.471 42.3537 174.19 42.8793C174.91 43.4001 175.27 44.108 175.27 45.0028C175.27 45.642 175.066 46.1487 174.659 46.5227C174.252 46.8968 173.712 47.1477 173.04 47.2756C173.527 47.3324 173.975 47.4792 174.382 47.7159C174.789 47.9479 175.116 48.2604 175.362 48.6534C175.613 49.0464 175.739 49.5152 175.739 50.0597C175.739 50.6373 175.589 51.1487 175.291 51.5938C174.993 52.0341 174.56 52.3797 173.991 52.6307C173.428 52.8769 172.749 53 171.953 53H166.74ZM168.736 51.2244H171.953C172.479 51.2244 172.891 51.099 173.189 50.848C173.487 50.5971 173.636 50.2562 173.636 49.8253C173.636 49.3187 173.487 48.9209 173.189 48.6321C172.891 48.3385 172.479 48.1918 171.953 48.1918H168.736V51.2244ZM168.736 46.6364H171.286C171.683 46.6364 172.024 46.5795 172.308 46.4659C172.597 46.3523 172.817 46.1913 172.969 45.983C173.125 45.7699 173.203 45.5189 173.203 45.2301C173.203 44.8087 173.03 44.4796 172.685 44.2429C172.339 44.0062 171.866 43.8878 171.264 43.8878H168.736V46.6364ZM182.77 53.2202C181.695 53.2202 180.769 52.9905 179.993 52.5312C179.221 52.0672 178.625 51.4162 178.203 50.5781C177.786 49.7353 177.578 48.7481 177.578 47.6165C177.578 46.4991 177.786 45.5142 178.203 44.6619C178.625 43.8097 179.212 43.1444 179.964 42.6662C180.722 42.188 181.607 41.9489 182.621 41.9489C183.236 41.9489 183.833 42.0507 184.411 42.2543C184.988 42.4579 185.507 42.7775 185.966 43.2131C186.425 43.6487 186.787 44.2145 187.053 44.9105C187.318 45.6018 187.45 46.4422 187.45 47.4318V48.1847H178.778V46.5938H185.369C185.369 46.035 185.256 45.5402 185.028 45.1094C184.801 44.6738 184.482 44.3305 184.07 44.0795C183.662 43.8286 183.184 43.7031 182.635 43.7031C182.038 43.7031 181.518 43.8499 181.072 44.1435C180.632 44.4323 180.291 44.8111 180.05 45.2798C179.813 45.7438 179.695 46.2481 179.695 46.7926V48.0355C179.695 48.7647 179.822 49.3849 180.078 49.8963C180.339 50.4077 180.701 50.7983 181.165 51.0682C181.629 51.3333 182.171 51.4659 182.791 51.4659C183.194 51.4659 183.561 51.4091 183.892 51.2955C184.223 51.1771 184.51 51.0019 184.751 50.7699C184.993 50.5379 185.178 50.2514 185.305 49.9105L187.315 50.2727C187.154 50.8646 186.866 51.383 186.449 51.8281C186.037 52.2685 185.518 52.6117 184.893 52.858C184.273 53.0994 183.565 53.2202 182.77 53.2202ZM188.844 43.9233V42.0909H198.049V43.9233H194.49V53H192.417V43.9233H188.844ZM204.382 53.2202C203.359 53.2202 202.467 52.9858 201.705 52.517C200.942 52.0483 200.35 51.3925 199.929 50.5497C199.508 49.7069 199.297 48.7221 199.297 47.5952C199.297 46.4635 199.508 45.474 199.929 44.6264C200.35 43.7789 200.942 43.1207 201.705 42.652C202.467 42.1832 203.359 41.9489 204.382 41.9489C205.405 41.9489 206.297 42.1832 207.06 42.652C207.822 43.1207 208.414 43.7789 208.835 44.6264C209.257 45.474 209.467 46.4635 209.467 47.5952C209.467 48.7221 209.257 49.7069 208.835 50.5497C208.414 51.3925 207.822 52.0483 207.06 52.517C206.297 52.9858 205.405 53.2202 204.382 53.2202ZM204.389 51.4375C205.052 51.4375 205.601 51.2623 206.037 50.9119C206.473 50.5616 206.795 50.0952 207.003 49.5128C207.216 48.9304 207.322 48.2888 207.322 47.5881C207.322 46.892 207.216 46.2528 207.003 45.6705C206.795 45.0833 206.473 44.6122 206.037 44.2571C205.601 43.902 205.052 43.7244 204.389 43.7244C203.722 43.7244 203.168 43.902 202.727 44.2571C202.292 44.6122 201.967 45.0833 201.754 45.6705C201.546 46.2528 201.442 46.892 201.442 47.5881C201.442 48.2888 201.546 48.9304 201.754 49.5128C201.967 50.0952 202.292 50.5616 202.727 50.9119C203.168 51.2623 203.722 51.4375 204.389 51.4375ZM211.838 53V42.0909H216.362C217.593 42.0909 218.568 42.3537 219.288 42.8793C220.008 43.4001 220.368 44.108 220.368 45.0028C220.368 45.642 220.164 46.1487 219.757 46.5227C219.35 46.8968 218.81 47.1477 218.137 47.2756C218.625 47.3324 219.073 47.4792 219.48 47.7159C219.887 47.9479 220.214 48.2604 220.46 48.6534C220.711 49.0464 220.836 49.5152 220.836 50.0597C220.836 50.6373 220.687 51.1487 220.389 51.5938C220.091 52.0341 219.657 52.3797 219.089 52.6307C218.526 52.8769 217.846 53 217.051 53H211.838ZM213.833 51.2244H217.051C217.576 51.2244 217.988 51.099 218.287 50.848C218.585 50.5971 218.734 50.2562 218.734 49.8253C218.734 49.3187 218.585 48.9209 218.287 48.6321C217.988 48.3385 217.576 48.1918 217.051 48.1918H213.833V51.2244ZM213.833 46.6364H216.383C216.781 46.6364 217.122 46.5795 217.406 46.4659C217.695 46.3523 217.915 46.1913 218.066 45.983C218.223 45.7699 218.301 45.5189 218.301 45.2301C218.301 44.8087 218.128 44.4796 217.782 44.2429C217.437 44.0062 216.963 43.8878 216.362 43.8878H213.833V46.6364ZM227.761 53.2202C226.738 53.2202 225.846 52.9858 225.083 52.517C224.321 52.0483 223.729 51.3925 223.308 50.5497C222.886 49.7069 222.676 48.7221 222.676 47.5952C222.676 46.4635 222.886 45.474 223.308 44.6264C223.729 43.7789 224.321 43.1207 225.083 42.652C225.846 42.1832 226.738 41.9489 227.761 41.9489C228.784 41.9489 229.676 42.1832 230.439 42.652C231.201 43.1207 231.793 43.7789 232.214 44.6264C232.636 45.474 232.846 46.4635 232.846 47.5952C232.846 48.7221 232.636 49.7069 232.214 50.5497C231.793 51.3925 231.201 52.0483 230.439 52.517C229.676 52.9858 228.784 53.2202 227.761 53.2202ZM227.768 51.4375C228.431 51.4375 228.98 51.2623 229.416 50.9119C229.851 50.5616 230.173 50.0952 230.382 49.5128C230.595 48.9304 230.701 48.2888 230.701 47.5881C230.701 46.892 230.595 46.2528 230.382 45.6705C230.173 45.0833 229.851 44.6122 229.416 44.2571C228.98 43.902 228.431 43.7244 227.768 43.7244C227.1 43.7244 226.547 43.902 226.106 44.2571C225.671 44.6122 225.346 45.0833 225.133 45.6705C224.925 46.2528 224.821 46.892 224.821 47.5881C224.821 48.2888 224.925 48.9304 225.133 49.5128C225.346 50.0952 225.671 50.5616 226.106 50.9119C226.547 51.2623 227.1 51.4375 227.768 51.4375ZM237.298 50.0241L242.106 42.0909H244.393V53H242.312V45.0597L237.525 53H235.217V42.0909H237.298V50.0241ZM241.197 38.3977H242.944C242.944 39.1979 242.66 39.849 242.092 40.3509C241.528 40.848 240.766 41.0966 239.805 41.0966C238.848 41.0966 238.088 40.848 237.525 40.3509C236.961 39.849 236.68 39.1979 236.68 38.3977H238.42C238.42 38.7528 238.524 39.0677 238.732 39.3423C238.941 39.6122 239.298 39.7472 239.805 39.7472C240.302 39.7472 240.657 39.6122 240.87 39.3423C241.088 39.0724 241.197 38.7576 241.197 38.3977ZM252.541 53V42.0909H254.664V46.6648H255.687L259.288 42.0909H261.916L257.69 47.3963L261.966 53H259.331L256.042 48.6392H254.664V53H252.541ZM267.761 53.2202C266.738 53.2202 265.846 52.9858 265.083 52.517C264.321 52.0483 263.729 51.3925 263.308 50.5497C262.886 49.7069 262.676 48.7221 262.676 47.5952C262.676 46.4635 262.886 45.474 263.308 44.6264C263.729 43.7789 264.321 43.1207 265.083 42.652C265.846 42.1832 266.738 41.9489 267.761 41.9489C268.784 41.9489 269.676 42.1832 270.439 42.652C271.201 43.1207 271.793 43.7789 272.214 44.6264C272.636 45.474 272.846 46.4635 272.846 47.5952C272.846 48.7221 272.636 49.7069 272.214 50.5497C271.793 51.3925 271.201 52.0483 270.439 52.517C269.676 52.9858 268.784 53.2202 267.761 53.2202ZM267.768 51.4375C268.431 51.4375 268.98 51.2623 269.416 50.9119C269.851 50.5616 270.173 50.0952 270.382 49.5128C270.595 48.9304 270.701 48.2888 270.701 47.5881C270.701 46.892 270.595 46.2528 270.382 45.6705C270.173 45.0833 269.851 44.6122 269.416 44.2571C268.98 43.902 268.431 43.7244 267.768 43.7244C267.1 43.7244 266.547 43.902 266.106 44.2571C265.671 44.6122 265.346 45.0833 265.133 45.6705C264.925 46.2528 264.821 46.892 264.821 47.5881C264.821 48.2888 264.925 48.9304 265.133 49.5128C265.346 50.0952 265.671 50.5616 266.106 50.9119C266.547 51.2623 267.1 51.4375 267.768 51.4375ZM282.61 46.6293V48.4688H276.701V46.6293H282.61ZM277.298 42.0909V53H275.217V42.0909H277.298ZM284.094 42.0909V53H282.021V42.0909H284.094ZM285.582 43.9233V42.0909H294.787V43.9233H291.229V53H289.155V43.9233H285.582ZM297.033 57.0909V42.0909H299.107V43.8594H299.284C299.408 43.6321 299.585 43.3693 299.817 43.071C300.049 42.7727 300.371 42.5123 300.783 42.2898C301.195 42.0625 301.739 41.9489 302.417 41.9489C303.297 41.9489 304.083 42.1714 304.775 42.6165C305.466 43.0616 306.008 43.7031 306.401 44.5412C306.799 45.3793 306.998 46.3878 306.998 47.5668C306.998 48.7457 306.801 49.7566 306.408 50.5994C306.015 51.4375 305.475 52.0838 304.789 52.5384C304.102 52.9882 303.319 53.2131 302.438 53.2131C301.775 53.2131 301.233 53.1018 300.811 52.8793C300.395 52.6567 300.068 52.3963 299.831 52.098C299.595 51.7997 299.412 51.5346 299.284 51.3026H299.157V57.0909H297.033ZM299.114 47.5455C299.114 48.3125 299.225 48.9848 299.448 49.5625C299.67 50.1402 299.992 50.5923 300.414 50.919C300.835 51.241 301.351 51.402 301.962 51.402C302.596 51.402 303.127 51.2339 303.553 50.8977C303.979 50.5568 304.301 50.0952 304.519 49.5128C304.741 48.9304 304.853 48.2746 304.853 47.5455C304.853 46.8258 304.744 46.1795 304.526 45.6065C304.313 45.0336 303.991 44.5814 303.56 44.25C303.134 43.9186 302.601 43.7528 301.962 43.7528C301.346 43.7528 300.826 43.9115 300.4 44.2287C299.978 44.5459 299.658 44.9886 299.441 45.5568C299.223 46.125 299.114 46.7879 299.114 47.5455ZM312.551 53.2415C311.86 53.2415 311.235 53.1136 310.676 52.858C310.118 52.5975 309.675 52.2211 309.348 51.7287C309.026 51.2363 308.865 50.6326 308.865 49.9176C308.865 49.3021 308.984 48.7955 309.221 48.3977C309.457 48 309.777 47.6851 310.179 47.4531C310.582 47.2211 311.032 47.0459 311.529 46.9276C312.026 46.8092 312.533 46.7192 313.049 46.6577C313.702 46.5819 314.232 46.5204 314.64 46.473C315.047 46.4209 315.343 46.3381 315.527 46.2244C315.712 46.1108 315.804 45.9261 315.804 45.6705V45.6207C315.804 45.0005 315.629 44.5199 315.279 44.179C314.933 43.8381 314.417 43.6676 313.73 43.6676C313.016 43.6676 312.452 43.8262 312.04 44.1435C311.633 44.456 311.351 44.804 311.195 45.1875L309.199 44.733C309.436 44.0701 309.782 43.535 310.236 43.1278C310.695 42.7159 311.223 42.4176 311.82 42.233C312.417 42.0436 313.044 41.9489 313.702 41.9489C314.138 41.9489 314.599 42.0009 315.087 42.1051C315.579 42.2045 316.039 42.3892 316.465 42.6591C316.896 42.929 317.248 43.3149 317.523 43.8168C317.798 44.3139 317.935 44.9602 317.935 45.7557V53H315.861V51.5085H315.776C315.639 51.7831 315.433 52.053 315.158 52.3182C314.883 52.5833 314.531 52.8035 314.1 52.9787C313.669 53.1539 313.153 53.2415 312.551 53.2415ZM313.013 51.5369C313.6 51.5369 314.102 51.4209 314.519 51.1889C314.94 50.9569 315.26 50.6539 315.478 50.2798C315.7 49.901 315.811 49.4962 315.811 49.0653V47.6591C315.736 47.7348 315.589 47.8059 315.371 47.8722C315.158 47.9337 314.914 47.9882 314.64 48.0355C314.365 48.0781 314.097 48.1184 313.837 48.1562C313.577 48.1894 313.359 48.2178 313.184 48.2415C312.772 48.2936 312.395 48.3812 312.054 48.5043C311.718 48.6274 311.448 48.8049 311.245 49.0369C311.046 49.2642 310.946 49.5672 310.946 49.946C310.946 50.4716 311.141 50.8693 311.529 51.1392C311.917 51.4044 312.412 51.5369 313.013 51.5369ZM325.359 53.2202C324.303 53.2202 323.394 52.9811 322.631 52.5028C321.874 52.0199 321.291 51.3546 320.884 50.5071C320.477 49.6596 320.273 48.6889 320.273 47.5952C320.273 46.4872 320.482 45.5095 320.898 44.6619C321.315 43.8097 321.902 43.1444 322.66 42.6662C323.417 42.188 324.31 41.9489 325.337 41.9489C326.166 41.9489 326.905 42.1027 327.553 42.4105C328.202 42.7135 328.725 43.1397 329.123 43.6889C329.525 44.2382 329.764 44.8797 329.84 45.6136H327.773C327.66 45.1023 327.399 44.6619 326.992 44.2926C326.59 43.9233 326.05 43.7386 325.373 43.7386C324.781 43.7386 324.263 43.8949 323.817 44.2074C323.377 44.5152 323.034 44.9555 322.788 45.5284C322.541 46.0966 322.418 46.7689 322.418 47.5455C322.418 48.3409 322.539 49.0275 322.781 49.6051C323.022 50.1828 323.363 50.6302 323.803 50.9474C324.248 51.2647 324.772 51.4233 325.373 51.4233C325.775 51.4233 326.14 51.3499 326.467 51.2031C326.798 51.0516 327.075 50.8362 327.298 50.5568C327.525 50.2775 327.683 49.9413 327.773 49.5483H329.84C329.764 50.2538 329.535 50.8835 329.151 51.4375C328.768 51.9915 328.254 52.4271 327.61 52.7443C326.971 53.0616 326.22 53.2202 325.359 53.2202ZM331.286 43.9233V42.0909H340.49V43.9233H336.932V53H334.858V43.9233H331.286ZM348.029 53V42.0909H356.928V53H354.847V43.9233H350.096V53H348.029ZM359.767 57.0909V42.0909H361.841V43.8594H362.019C362.142 43.6321 362.319 43.3693 362.551 43.071C362.783 42.7727 363.105 42.5123 363.517 42.2898C363.929 42.0625 364.474 41.9489 365.151 41.9489C366.032 41.9489 366.818 42.1714 367.509 42.6165C368.2 43.0616 368.742 43.7031 369.135 44.5412C369.533 45.3793 369.732 46.3878 369.732 47.5668C369.732 48.7457 369.535 49.7566 369.142 50.5994C368.749 51.4375 368.21 52.0838 367.523 52.5384C366.837 52.9882 366.053 53.2131 365.172 53.2131C364.509 53.2131 363.967 53.1018 363.546 52.8793C363.129 52.6567 362.802 52.3963 362.566 52.098C362.329 51.7997 362.147 51.5346 362.019 51.3026H361.891V57.0909H359.767ZM361.848 47.5455C361.848 48.3125 361.96 48.9848 362.182 49.5625C362.405 50.1402 362.727 50.5923 363.148 50.919C363.569 51.241 364.086 51.402 364.696 51.402C365.331 51.402 365.861 51.2339 366.287 50.8977C366.713 50.5568 367.035 50.0952 367.253 49.5128C367.476 48.9304 367.587 48.2746 367.587 47.5455C367.587 46.8258 367.478 46.1795 367.26 45.6065C367.047 45.0336 366.725 44.5814 366.294 44.25C365.868 43.9186 365.336 43.7528 364.696 43.7528C364.081 43.7528 363.56 43.9115 363.134 44.2287C362.712 44.5459 362.393 44.9886 362.175 45.5568C361.957 46.125 361.848 46.7879 361.848 47.5455ZM376.706 53.2202C375.684 53.2202 374.791 52.9858 374.029 52.517C373.266 52.0483 372.675 51.3925 372.253 50.5497C371.832 49.7069 371.621 48.7221 371.621 47.5952C371.621 46.4635 371.832 45.474 372.253 44.6264C372.675 43.7789 373.266 43.1207 374.029 42.652C374.791 42.1832 375.684 41.9489 376.706 41.9489C377.729 41.9489 378.622 42.1832 379.384 42.652C380.146 43.1207 380.738 43.7789 381.159 44.6264C381.581 45.474 381.792 46.4635 381.792 47.5952C381.792 48.7221 381.581 49.7069 381.159 50.5497C380.738 51.3925 380.146 52.0483 379.384 52.517C378.622 52.9858 377.729 53.2202 376.706 53.2202ZM376.713 51.4375C377.376 51.4375 377.926 51.2623 378.361 50.9119C378.797 50.5616 379.119 50.0952 379.327 49.5128C379.54 48.9304 379.647 48.2888 379.647 47.5881C379.647 46.892 379.54 46.2528 379.327 45.6705C379.119 45.0833 378.797 44.6122 378.361 44.2571C377.926 43.902 377.376 43.7244 376.713 43.7244C376.046 43.7244 375.492 43.902 375.051 44.2571C374.616 44.6122 374.292 45.0833 374.078 45.6705C373.87 46.2528 373.766 46.892 373.766 47.5881C373.766 48.2888 373.87 48.9304 374.078 49.5128C374.292 50.0952 374.616 50.5616 375.051 50.9119C375.492 51.2623 376.046 51.4375 376.713 51.4375ZM384.162 53V42.0909H388.686C389.917 42.0909 390.893 42.3537 391.612 42.8793C392.332 43.4001 392.692 44.108 392.692 45.0028C392.692 45.642 392.488 46.1487 392.081 46.5227C391.674 46.8968 391.134 47.1477 390.462 47.2756C390.949 47.3324 391.397 47.4792 391.804 47.7159C392.211 47.9479 392.538 48.2604 392.784 48.6534C393.035 49.0464 393.161 49.5152 393.161 50.0597C393.161 50.6373 393.011 51.1487 392.713 51.5938C392.415 52.0341 391.982 52.3797 391.413 52.6307C390.85 52.8769 390.17 53 389.375 53H384.162ZM386.158 51.2244H389.375C389.901 51.2244 390.313 51.099 390.611 50.848C390.909 50.5971 391.058 50.2562 391.058 49.8253C391.058 49.3187 390.909 48.9209 390.611 48.6321C390.313 48.3385 389.901 48.1918 389.375 48.1918H386.158V51.2244ZM386.158 46.6364H388.707C389.105 46.6364 389.446 46.5795 389.73 46.4659C390.019 46.3523 390.239 46.1913 390.391 45.983C390.547 45.7699 390.625 45.5189 390.625 45.2301C390.625 44.8087 390.452 44.4796 390.107 44.2429C389.761 44.0062 389.287 43.8878 388.686 43.8878H386.158V46.6364ZM400.192 53.2202C399.117 53.2202 398.191 52.9905 397.415 52.5312C396.643 52.0672 396.046 51.4162 395.625 50.5781C395.208 49.7353 395 48.7481 395 47.6165C395 46.4991 395.208 45.5142 395.625 44.6619C396.046 43.8097 396.634 43.1444 397.386 42.6662C398.144 42.188 399.029 41.9489 400.043 41.9489C400.658 41.9489 401.255 42.0507 401.832 42.2543C402.41 42.4579 402.929 42.7775 403.388 43.2131C403.847 43.6487 404.209 44.2145 404.474 44.9105C404.74 45.6018 404.872 46.4422 404.872 47.4318V48.1847H396.2V46.5938H402.791C402.791 46.035 402.678 45.5402 402.45 45.1094C402.223 44.6738 401.903 44.3305 401.491 44.0795C401.084 43.8286 400.606 43.7031 400.057 43.7031C399.46 43.7031 398.939 43.8499 398.494 44.1435C398.054 44.4323 397.713 44.8111 397.472 45.2798C397.235 45.7438 397.116 46.2481 397.116 46.7926V48.0355C397.116 48.7647 397.244 49.3849 397.5 49.8963C397.76 50.4077 398.123 50.7983 398.587 51.0682C399.051 51.3333 399.593 51.4659 400.213 51.4659C400.616 51.4659 400.982 51.4091 401.314 51.2955C401.645 51.1771 401.932 51.0019 402.173 50.7699C402.415 50.5379 402.599 50.2514 402.727 49.9105L404.737 50.2727C404.576 50.8646 404.287 51.383 403.871 51.8281C403.459 52.2685 402.94 52.6117 402.315 52.858C401.695 53.0994 400.987 53.2202 400.192 53.2202ZM407.228 57.0909V42.0909H409.302V43.8594H409.48C409.603 43.6321 409.78 43.3693 410.012 43.071C410.244 42.7727 410.566 42.5123 410.978 42.2898C411.39 42.0625 411.935 41.9489 412.612 41.9489C413.493 41.9489 414.279 42.1714 414.97 42.6165C415.661 43.0616 416.203 43.7031 416.596 44.5412C416.994 45.3793 417.193 46.3878 417.193 47.5668C417.193 48.7457 416.996 49.7566 416.603 50.5994C416.21 51.4375 415.671 52.0838 414.984 52.5384C414.297 52.9882 413.514 53.2131 412.633 53.2131C411.97 53.2131 411.428 53.1018 411.007 52.8793C410.59 52.6567 410.263 52.3963 410.027 52.098C409.79 51.7997 409.608 51.5346 409.48 51.3026H409.352V57.0909H407.228ZM409.309 47.5455C409.309 48.3125 409.421 48.9848 409.643 49.5625C409.866 50.1402 410.188 50.5923 410.609 50.919C411.03 51.241 411.547 51.402 412.157 51.402C412.792 51.402 413.322 51.2339 413.748 50.8977C414.174 50.5568 414.496 50.0952 414.714 49.5128C414.937 48.9304 415.048 48.2746 415.048 47.5455C415.048 46.8258 414.939 46.1795 414.721 45.6065C414.508 45.0336 414.186 44.5814 413.755 44.25C413.329 43.9186 412.797 43.7528 412.157 43.7528C411.542 43.7528 411.021 43.9115 410.595 44.2287C410.173 44.5459 409.854 44.9886 409.636 45.5568C409.418 46.125 409.309 46.7879 409.309 47.5455ZM424.274 53.2202C423.199 53.2202 422.273 52.9905 421.497 52.5312C420.725 52.0672 420.128 51.4162 419.707 50.5781C419.29 49.7353 419.082 48.7481 419.082 47.6165C419.082 46.4991 419.29 45.5142 419.707 44.6619C420.128 43.8097 420.716 43.1444 421.468 42.6662C422.226 42.188 423.111 41.9489 424.125 41.9489C424.74 41.9489 425.337 42.0507 425.914 42.2543C426.492 42.4579 427.011 42.7775 427.47 43.2131C427.929 43.6487 428.291 44.2145 428.556 44.9105C428.822 45.6018 428.954 46.4422 428.954 47.4318V48.1847H420.282V46.5938H426.873C426.873 46.035 426.76 45.5402 426.532 45.1094C426.305 44.6738 425.985 44.3305 425.574 44.0795C425.166 43.8286 424.688 43.7031 424.139 43.7031C423.542 43.7031 423.021 43.8499 422.576 44.1435C422.136 44.4323 421.795 44.8111 421.554 45.2798C421.317 45.7438 421.199 46.2481 421.199 46.7926V48.0355C421.199 48.7647 421.326 49.3849 421.582 49.8963C421.842 50.4077 422.205 50.7983 422.669 51.0682C423.133 51.3333 423.675 51.4659 424.295 51.4659C424.698 51.4659 425.065 51.4091 425.396 51.2955C425.727 51.1771 426.014 51.0019 426.255 50.7699C426.497 50.5379 426.681 50.2514 426.809 49.9105L428.819 50.2727C428.658 50.8646 428.369 51.383 427.953 51.8281C427.541 52.2685 427.022 52.6117 426.397 52.858C425.777 53.0994 425.069 53.2202 424.274 53.2202ZM438.704 46.6293V48.4688H432.795V46.6293H438.704ZM433.391 42.0909V53H431.31V42.0909H433.391ZM440.188 42.0909V53H438.114V42.0909H440.188Z" fill="#0A2832"/>
<rect y="92" width="552" height="92" fill="#058C50"/>
<path d="M126 147C127.182 147 128.352 146.767 129.444 146.315C130.536 145.863 131.528 145.2 132.364 144.364C133.2 143.528 133.863 142.536 134.315 141.444C134.767 140.352 135 139.182 135 138C135 136.818 134.767 135.648 134.315 134.556C133.863 133.464 133.2 132.472 132.364 131.636C131.528 130.8 130.536 130.137 129.444 129.685C128.352 129.233 127.182 129 126 129C123.613 129 121.324 129.948 119.636 131.636C117.948 133.324 117 135.613 117 138C117 140.387 117.948 142.676 119.636 144.364C121.324 146.052 123.613 147 126 147ZM137 138C137 144.075 132.075 149 126 149C119.925 149 115 144.075 115 138C115 131.925 119.925 127 126 127C132.075 127 137 131.925 137 138ZM124.5 142.414L120.086 138L121.5 136.586L124.5 139.586L130.5 133.586L131.914 135L124.5 142.414Z" fill="white"/>
<path d="M164.503 143.061L164.311 148.438H162.124V145H161.101V143.061H164.503ZM151.598 145V130.455H153.7V143.097H160.717V130.455H162.827V145H151.598ZM166.74 145V134.091H171.264C172.495 134.091 173.471 134.354 174.19 134.879C174.91 135.4 175.27 136.108 175.27 137.003C175.27 137.642 175.066 138.149 174.659 138.523C174.252 138.897 173.712 139.148 173.04 139.276C173.527 139.332 173.975 139.479 174.382 139.716C174.789 139.948 175.116 140.26 175.362 140.653C175.613 141.046 175.739 141.515 175.739 142.06C175.739 142.637 175.589 143.149 175.291 143.594C174.993 144.034 174.56 144.38 173.991 144.631C173.428 144.877 172.749 145 171.953 145H166.74ZM168.736 143.224H171.953C172.479 143.224 172.891 143.099 173.189 142.848C173.487 142.597 173.636 142.256 173.636 141.825C173.636 141.319 173.487 140.921 173.189 140.632C172.891 140.339 172.479 140.192 171.953 140.192H168.736V143.224ZM168.736 138.636H171.286C171.683 138.636 172.024 138.58 172.308 138.466C172.597 138.352 172.817 138.191 172.969 137.983C173.125 137.77 173.203 137.519 173.203 137.23C173.203 136.809 173.03 136.48 172.685 136.243C172.339 136.006 171.866 135.888 171.264 135.888H168.736V138.636ZM182.77 145.22C181.695 145.22 180.769 144.991 179.993 144.531C179.221 144.067 178.625 143.416 178.203 142.578C177.786 141.735 177.578 140.748 177.578 139.616C177.578 138.499 177.786 137.514 178.203 136.662C178.625 135.81 179.212 135.144 179.964 134.666C180.722 134.188 181.607 133.949 182.621 133.949C183.236 133.949 183.833 134.051 184.411 134.254C184.988 134.458 185.507 134.777 185.966 135.213C186.425 135.649 186.787 136.214 187.053 136.911C187.318 137.602 187.45 138.442 187.45 139.432V140.185H178.778V138.594H185.369C185.369 138.035 185.256 137.54 185.028 137.109C184.801 136.674 184.482 136.33 184.07 136.08C183.662 135.829 183.184 135.703 182.635 135.703C182.038 135.703 181.518 135.85 181.072 136.143C180.632 136.432 180.291 136.811 180.05 137.28C179.813 137.744 179.695 138.248 179.695 138.793V140.036C179.695 140.765 179.822 141.385 180.078 141.896C180.339 142.408 180.701 142.798 181.165 143.068C181.629 143.333 182.171 143.466 182.791 143.466C183.194 143.466 183.561 143.409 183.892 143.295C184.223 143.177 184.51 143.002 184.751 142.77C184.993 142.538 185.178 142.251 185.305 141.911L187.315 142.273C187.154 142.865 186.866 143.383 186.449 143.828C186.037 144.268 185.518 144.612 184.893 144.858C184.273 145.099 183.565 145.22 182.77 145.22ZM188.844 135.923V134.091H198.049V135.923H194.49V145H192.417V135.923H188.844ZM204.382 145.22C203.359 145.22 202.467 144.986 201.705 144.517C200.942 144.048 200.35 143.393 199.929 142.55C199.508 141.707 199.297 140.722 199.297 139.595C199.297 138.464 199.508 137.474 199.929 136.626C200.35 135.779 200.942 135.121 201.705 134.652C202.467 134.183 203.359 133.949 204.382 133.949C205.405 133.949 206.297 134.183 207.06 134.652C207.822 135.121 208.414 135.779 208.835 136.626C209.257 137.474 209.467 138.464 209.467 139.595C209.467 140.722 209.257 141.707 208.835 142.55C208.414 143.393 207.822 144.048 207.06 144.517C206.297 144.986 205.405 145.22 204.382 145.22ZM204.389 143.438C205.052 143.438 205.601 143.262 206.037 142.912C206.473 142.562 206.795 142.095 207.003 141.513C207.216 140.93 207.322 140.289 207.322 139.588C207.322 138.892 207.216 138.253 207.003 137.67C206.795 137.083 206.473 136.612 206.037 136.257C205.601 135.902 205.052 135.724 204.389 135.724C203.722 135.724 203.168 135.902 202.727 136.257C202.292 136.612 201.967 137.083 201.754 137.67C201.546 138.253 201.442 138.892 201.442 139.588C201.442 140.289 201.546 140.93 201.754 141.513C201.967 142.095 202.292 142.562 202.727 142.912C203.168 143.262 203.722 143.438 204.389 143.438ZM211.838 145V134.091H216.362C217.593 134.091 218.568 134.354 219.288 134.879C220.008 135.4 220.368 136.108 220.368 137.003C220.368 137.642 220.164 138.149 219.757 138.523C219.35 138.897 218.81 139.148 218.137 139.276C218.625 139.332 219.073 139.479 219.48 139.716C219.887 139.948 220.214 140.26 220.46 140.653C220.711 141.046 220.836 141.515 220.836 142.06C220.836 142.637 220.687 143.149 220.389 143.594C220.091 144.034 219.657 144.38 219.089 144.631C218.526 144.877 217.846 145 217.051 145H211.838ZM213.833 143.224H217.051C217.576 143.224 217.988 143.099 218.287 142.848C218.585 142.597 218.734 142.256 218.734 141.825C218.734 141.319 218.585 140.921 218.287 140.632C217.988 140.339 217.576 140.192 217.051 140.192H213.833V143.224ZM213.833 138.636H216.383C216.781 138.636 217.122 138.58 217.406 138.466C217.695 138.352 217.915 138.191 218.066 137.983C218.223 137.77 218.301 137.519 218.301 137.23C218.301 136.809 218.128 136.48 217.782 136.243C217.437 136.006 216.963 135.888 216.362 135.888H213.833V138.636ZM227.761 145.22C226.738 145.22 225.846 144.986 225.083 144.517C224.321 144.048 223.729 143.393 223.308 142.55C222.886 141.707 222.676 140.722 222.676 139.595C222.676 138.464 222.886 137.474 223.308 136.626C223.729 135.779 224.321 135.121 225.083 134.652C225.846 134.183 226.738 133.949 227.761 133.949C228.784 133.949 229.676 134.183 230.439 134.652C231.201 135.121 231.793 135.779 232.214 136.626C232.636 137.474 232.846 138.464 232.846 139.595C232.846 140.722 232.636 141.707 232.214 142.55C231.793 143.393 231.201 144.048 230.439 144.517C229.676 144.986 228.784 145.22 227.761 145.22ZM227.768 143.438C228.431 143.438 228.98 143.262 229.416 142.912C229.851 142.562 230.173 142.095 230.382 141.513C230.595 140.93 230.701 140.289 230.701 139.588C230.701 138.892 230.595 138.253 230.382 137.67C230.173 137.083 229.851 136.612 229.416 136.257C228.98 135.902 228.431 135.724 227.768 135.724C227.1 135.724 226.547 135.902 226.106 136.257C225.671 136.612 225.346 137.083 225.133 137.67C224.925 138.253 224.821 138.892 224.821 139.588C224.821 140.289 224.925 140.93 225.133 141.513C225.346 142.095 225.671 142.562 226.106 142.912C226.547 143.262 227.1 143.438 227.768 143.438ZM237.298 142.024L242.106 134.091H244.393V145H242.312V137.06L237.525 145H235.217V134.091H237.298V142.024ZM241.197 130.398H242.944C242.944 131.198 242.66 131.849 242.092 132.351C241.528 132.848 240.766 133.097 239.805 133.097C238.848 133.097 238.088 132.848 237.525 132.351C236.961 131.849 236.68 131.198 236.68 130.398H238.42C238.42 130.753 238.524 131.068 238.732 131.342C238.941 131.612 239.298 131.747 239.805 131.747C240.302 131.747 240.657 131.612 240.87 131.342C241.088 131.072 241.197 130.758 241.197 130.398ZM252.541 145V134.091H254.664V138.665H255.687L259.288 134.091H261.916L257.69 139.396L261.966 145H259.331L256.042 140.639H254.664V145H252.541ZM267.761 145.22C266.738 145.22 265.846 144.986 265.083 144.517C264.321 144.048 263.729 143.393 263.308 142.55C262.886 141.707 262.676 140.722 262.676 139.595C262.676 138.464 262.886 137.474 263.308 136.626C263.729 135.779 264.321 135.121 265.083 134.652C265.846 134.183 266.738 133.949 267.761 133.949C268.784 133.949 269.676 134.183 270.439 134.652C271.201 135.121 271.793 135.779 272.214 136.626C272.636 137.474 272.846 138.464 272.846 139.595C272.846 140.722 272.636 141.707 272.214 142.55C271.793 143.393 271.201 144.048 270.439 144.517C269.676 144.986 268.784 145.22 267.761 145.22ZM267.768 143.438C268.431 143.438 268.98 143.262 269.416 142.912C269.851 142.562 270.173 142.095 270.382 141.513C270.595 140.93 270.701 140.289 270.701 139.588C270.701 138.892 270.595 138.253 270.382 137.67C270.173 137.083 269.851 136.612 269.416 136.257C268.98 135.902 268.431 135.724 267.768 135.724C267.1 135.724 266.547 135.902 266.106 136.257C265.671 136.612 265.346 137.083 265.133 137.67C264.925 138.253 264.821 138.892 264.821 139.588C264.821 140.289 264.925 140.93 265.133 141.513C265.346 142.095 265.671 142.562 266.106 142.912C266.547 143.262 267.1 143.438 267.768 143.438ZM282.61 138.629V140.469H276.701V138.629H282.61ZM277.298 134.091V145H275.217V134.091H277.298ZM284.094 134.091V145H282.021V134.091H284.094ZM285.582 135.923V134.091H294.787V135.923H291.229V145H289.155V135.923H285.582ZM297.033 149.091V134.091H299.107V135.859H299.284C299.408 135.632 299.585 135.369 299.817 135.071C300.049 134.773 300.371 134.512 300.783 134.29C301.195 134.062 301.739 133.949 302.417 133.949C303.297 133.949 304.083 134.171 304.775 134.616C305.466 135.062 306.008 135.703 306.401 136.541C306.799 137.379 306.998 138.388 306.998 139.567C306.998 140.746 306.801 141.757 306.408 142.599C306.015 143.437 305.475 144.084 304.789 144.538C304.102 144.988 303.319 145.213 302.438 145.213C301.775 145.213 301.233 145.102 300.811 144.879C300.395 144.657 300.068 144.396 299.831 144.098C299.595 143.8 299.412 143.535 299.284 143.303H299.157V149.091H297.033ZM299.114 139.545C299.114 140.312 299.225 140.985 299.448 141.562C299.67 142.14 299.992 142.592 300.414 142.919C300.835 143.241 301.351 143.402 301.962 143.402C302.596 143.402 303.127 143.234 303.553 142.898C303.979 142.557 304.301 142.095 304.519 141.513C304.741 140.93 304.853 140.275 304.853 139.545C304.853 138.826 304.744 138.179 304.526 137.607C304.313 137.034 303.991 136.581 303.56 136.25C303.134 135.919 302.601 135.753 301.962 135.753C301.346 135.753 300.826 135.911 300.4 136.229C299.978 136.546 299.658 136.989 299.441 137.557C299.223 138.125 299.114 138.788 299.114 139.545ZM312.551 145.241C311.86 145.241 311.235 145.114 310.676 144.858C310.118 144.598 309.675 144.221 309.348 143.729C309.026 143.236 308.865 142.633 308.865 141.918C308.865 141.302 308.984 140.795 309.221 140.398C309.457 140 309.777 139.685 310.179 139.453C310.582 139.221 311.032 139.046 311.529 138.928C312.026 138.809 312.533 138.719 313.049 138.658C313.702 138.582 314.232 138.52 314.64 138.473C315.047 138.421 315.343 138.338 315.527 138.224C315.712 138.111 315.804 137.926 315.804 137.67V137.621C315.804 137 315.629 136.52 315.279 136.179C314.933 135.838 314.417 135.668 313.73 135.668C313.016 135.668 312.452 135.826 312.04 136.143C311.633 136.456 311.351 136.804 311.195 137.188L309.199 136.733C309.436 136.07 309.782 135.535 310.236 135.128C310.695 134.716 311.223 134.418 311.82 134.233C312.417 134.044 313.044 133.949 313.702 133.949C314.138 133.949 314.599 134.001 315.087 134.105C315.579 134.205 316.039 134.389 316.465 134.659C316.896 134.929 317.248 135.315 317.523 135.817C317.798 136.314 317.935 136.96 317.935 137.756V145H315.861V143.509H315.776C315.639 143.783 315.433 144.053 315.158 144.318C314.883 144.583 314.531 144.804 314.1 144.979C313.669 145.154 313.153 145.241 312.551 145.241ZM313.013 143.537C313.6 143.537 314.102 143.421 314.519 143.189C314.94 142.957 315.26 142.654 315.478 142.28C315.7 141.901 315.811 141.496 315.811 141.065V139.659C315.736 139.735 315.589 139.806 315.371 139.872C315.158 139.934 314.914 139.988 314.64 140.036C314.365 140.078 314.097 140.118 313.837 140.156C313.577 140.189 313.359 140.218 313.184 140.241C312.772 140.294 312.395 140.381 312.054 140.504C311.718 140.627 311.448 140.805 311.245 141.037C311.046 141.264 310.946 141.567 310.946 141.946C310.946 142.472 311.141 142.869 311.529 143.139C311.917 143.404 312.412 143.537 313.013 143.537ZM325.359 145.22C324.303 145.22 323.394 144.981 322.631 144.503C321.874 144.02 321.291 143.355 320.884 142.507C320.477 141.66 320.273 140.689 320.273 139.595C320.273 138.487 320.482 137.509 320.898 136.662C321.315 135.81 321.902 135.144 322.66 134.666C323.417 134.188 324.31 133.949 325.337 133.949C326.166 133.949 326.905 134.103 327.553 134.411C328.202 134.714 328.725 135.14 329.123 135.689C329.525 136.238 329.764 136.88 329.84 137.614H327.773C327.66 137.102 327.399 136.662 326.992 136.293C326.59 135.923 326.05 135.739 325.373 135.739C324.781 135.739 324.263 135.895 323.817 136.207C323.377 136.515 323.034 136.955 322.788 137.528C322.541 138.097 322.418 138.769 322.418 139.545C322.418 140.341 322.539 141.027 322.781 141.605C323.022 142.183 323.363 142.63 323.803 142.947C324.248 143.265 324.772 143.423 325.373 143.423C325.775 143.423 326.14 143.35 326.467 143.203C326.798 143.052 327.075 142.836 327.298 142.557C327.525 142.277 327.683 141.941 327.773 141.548H329.84C329.764 142.254 329.535 142.884 329.151 143.438C328.768 143.991 328.254 144.427 327.61 144.744C326.971 145.062 326.22 145.22 325.359 145.22ZM331.286 135.923V134.091H340.49V135.923H336.932V145H334.858V135.923H331.286ZM348.029 145V134.091H356.928V145H354.847V135.923H350.096V145H348.029ZM359.767 149.091V134.091H361.841V135.859H362.019C362.142 135.632 362.319 135.369 362.551 135.071C362.783 134.773 363.105 134.512 363.517 134.29C363.929 134.062 364.474 133.949 365.151 133.949C366.032 133.949 366.818 134.171 367.509 134.616C368.2 135.062 368.742 135.703 369.135 136.541C369.533 137.379 369.732 138.388 369.732 139.567C369.732 140.746 369.535 141.757 369.142 142.599C368.749 143.437 368.21 144.084 367.523 144.538C366.837 144.988 366.053 145.213 365.172 145.213C364.509 145.213 363.967 145.102 363.546 144.879C363.129 144.657 362.802 144.396 362.566 144.098C362.329 143.8 362.147 143.535 362.019 143.303H361.891V149.091H359.767ZM361.848 139.545C361.848 140.312 361.96 140.985 362.182 141.562C362.405 142.14 362.727 142.592 363.148 142.919C363.569 143.241 364.086 143.402 364.696 143.402C365.331 143.402 365.861 143.234 366.287 142.898C366.713 142.557 367.035 142.095 367.253 141.513C367.476 140.93 367.587 140.275 367.587 139.545C367.587 138.826 367.478 138.179 367.26 137.607C367.047 137.034 366.725 136.581 366.294 136.25C365.868 135.919 365.336 135.753 364.696 135.753C364.081 135.753 363.56 135.911 363.134 136.229C362.712 136.546 362.393 136.989 362.175 137.557C361.957 138.125 361.848 138.788 361.848 139.545ZM376.706 145.22C375.684 145.22 374.791 144.986 374.029 144.517C373.266 144.048 372.675 143.393 372.253 142.55C371.832 141.707 371.621 140.722 371.621 139.595C371.621 138.464 371.832 137.474 372.253 136.626C372.675 135.779 373.266 135.121 374.029 134.652C374.791 134.183 375.684 133.949 376.706 133.949C377.729 133.949 378.622 134.183 379.384 134.652C380.146 135.121 380.738 135.779 381.159 136.626C381.581 137.474 381.792 138.464 381.792 139.595C381.792 140.722 381.581 141.707 381.159 142.55C380.738 143.393 380.146 144.048 379.384 144.517C378.622 144.986 377.729 145.22 376.706 145.22ZM376.713 143.438C377.376 143.438 377.926 143.262 378.361 142.912C378.797 142.562 379.119 142.095 379.327 141.513C379.54 140.93 379.647 140.289 379.647 139.588C379.647 138.892 379.54 138.253 379.327 137.67C379.119 137.083 378.797 136.612 378.361 136.257C377.926 135.902 377.376 135.724 376.713 135.724C376.046 135.724 375.492 135.902 375.051 136.257C374.616 136.612 374.292 137.083 374.078 137.67C373.87 138.253 373.766 138.892 373.766 139.588C373.766 140.289 373.87 140.93 374.078 141.513C374.292 142.095 374.616 142.562 375.051 142.912C375.492 143.262 376.046 143.438 376.713 143.438ZM384.162 145V134.091H388.686C389.917 134.091 390.893 134.354 391.612 134.879C392.332 135.4 392.692 136.108 392.692 137.003C392.692 137.642 392.488 138.149 392.081 138.523C391.674 138.897 391.134 139.148 390.462 139.276C390.949 139.332 391.397 139.479 391.804 139.716C392.211 139.948 392.538 140.26 392.784 140.653C393.035 141.046 393.161 141.515 393.161 142.06C393.161 142.637 393.011 143.149 392.713 143.594C392.415 144.034 391.982 144.38 391.413 144.631C390.85 144.877 390.17 145 389.375 145H384.162ZM386.158 143.224H389.375C389.901 143.224 390.313 143.099 390.611 142.848C390.909 142.597 391.058 142.256 391.058 141.825C391.058 141.319 390.909 140.921 390.611 140.632C390.313 140.339 389.901 140.192 389.375 140.192H386.158V143.224ZM386.158 138.636H388.707C389.105 138.636 389.446 138.58 389.73 138.466C390.019 138.352 390.239 138.191 390.391 137.983C390.547 137.77 390.625 137.519 390.625 137.23C390.625 136.809 390.452 136.48 390.107 136.243C389.761 136.006 389.287 135.888 388.686 135.888H386.158V138.636ZM400.192 145.22C399.117 145.22 398.191 144.991 397.415 144.531C396.643 144.067 396.046 143.416 395.625 142.578C395.208 141.735 395 140.748 395 139.616C395 138.499 395.208 137.514 395.625 136.662C396.046 135.81 396.634 135.144 397.386 134.666C398.144 134.188 399.029 133.949 400.043 133.949C400.658 133.949 401.255 134.051 401.832 134.254C402.41 134.458 402.929 134.777 403.388 135.213C403.847 135.649 404.209 136.214 404.474 136.911C404.74 137.602 404.872 138.442 404.872 139.432V140.185H396.2V138.594H402.791C402.791 138.035 402.678 137.54 402.45 137.109C402.223 136.674 401.903 136.33 401.491 136.08C401.084 135.829 400.606 135.703 400.057 135.703C399.46 135.703 398.939 135.85 398.494 136.143C398.054 136.432 397.713 136.811 397.472 137.28C397.235 137.744 397.116 138.248 397.116 138.793V140.036C397.116 140.765 397.244 141.385 397.5 141.896C397.76 142.408 398.123 142.798 398.587 143.068C399.051 143.333 399.593 143.466 400.213 143.466C400.616 143.466 400.982 143.409 401.314 143.295C401.645 143.177 401.932 143.002 402.173 142.77C402.415 142.538 402.599 142.251 402.727 141.911L404.737 142.273C404.576 142.865 404.287 143.383 403.871 143.828C403.459 144.268 402.94 144.612 402.315 144.858C401.695 145.099 400.987 145.22 400.192 145.22ZM407.228 149.091V134.091H409.302V135.859H409.48C409.603 135.632 409.78 135.369 410.012 135.071C410.244 134.773 410.566 134.512 410.978 134.29C411.39 134.062 411.935 133.949 412.612 133.949C413.493 133.949 414.279 134.171 414.97 134.616C415.661 135.062 416.203 135.703 416.596 136.541C416.994 137.379 417.193 138.388 417.193 139.567C417.193 140.746 416.996 141.757 416.603 142.599C416.21 143.437 415.671 144.084 414.984 144.538C414.297 144.988 413.514 145.213 412.633 145.213C411.97 145.213 411.428 145.102 411.007 144.879C410.59 144.657 410.263 144.396 410.027 144.098C409.79 143.8 409.608 143.535 409.48 143.303H409.352V149.091H407.228ZM409.309 139.545C409.309 140.312 409.421 140.985 409.643 141.562C409.866 142.14 410.188 142.592 410.609 142.919C411.03 143.241 411.547 143.402 412.157 143.402C412.792 143.402 413.322 143.234 413.748 142.898C414.174 142.557 414.496 142.095 414.714 141.513C414.937 140.93 415.048 140.275 415.048 139.545C415.048 138.826 414.939 138.179 414.721 137.607C414.508 137.034 414.186 136.581 413.755 136.25C413.329 135.919 412.797 135.753 412.157 135.753C411.542 135.753 411.021 135.911 410.595 136.229C410.173 136.546 409.854 136.989 409.636 137.557C409.418 138.125 409.309 138.788 409.309 139.545ZM424.274 145.22C423.199 145.22 422.273 144.991 421.497 144.531C420.725 144.067 420.128 143.416 419.707 142.578C419.29 141.735 419.082 140.748 419.082 139.616C419.082 138.499 419.29 137.514 419.707 136.662C420.128 135.81 420.716 135.144 421.468 134.666C422.226 134.188 423.111 133.949 424.125 133.949C424.74 133.949 425.337 134.051 425.914 134.254C426.492 134.458 427.011 134.777 427.47 135.213C427.929 135.649 428.291 136.214 428.556 136.911C428.822 137.602 428.954 138.442 428.954 139.432V140.185H420.282V138.594H426.873C426.873 138.035 426.76 137.54 426.532 137.109C426.305 136.674 425.985 136.33 425.574 136.08C425.166 135.829 424.688 135.703 424.139 135.703C423.542 135.703 423.021 135.85 422.576 136.143C422.136 136.432 421.795 136.811 421.554 137.28C421.317 137.744 421.199 138.248 421.199 138.793V140.036C421.199 140.765 421.326 141.385 421.582 141.896C421.842 142.408 422.205 142.798 422.669 143.068C423.133 143.333 423.675 143.466 424.295 143.466C424.698 143.466 425.065 143.409 425.396 143.295C425.727 143.177 426.014 143.002 426.255 142.77C426.497 142.538 426.681 142.251 426.809 141.911L428.819 142.273C428.658 142.865 428.369 143.383 427.953 143.828C427.541 144.268 427.022 144.612 426.397 144.858C425.777 145.099 425.069 145.22 424.274 145.22ZM438.704 138.629V140.469H432.795V138.629H438.704ZM433.391 134.091V145H431.31V134.091H433.391ZM440.188 134.091V145H438.114V134.091H440.188Z" fill="white"/>
<rect y="184" width="552" height="92" fill="#F2F6F9"/>
<path d="M126 239C127.182 239 128.352 238.767 129.444 238.315C130.536 237.863 131.528 237.2 132.364 236.364C133.2 235.528 133.863 234.536 134.315 233.444C134.767 232.352 135 231.182 135 230C135 228.818 134.767 227.648 134.315 226.556C133.863 225.464 133.2 224.472 132.364 223.636C131.528 222.8 130.536 222.137 129.444 221.685C128.352 221.233 127.182 221 126 221C123.613 221 121.324 221.948 119.636 223.636C117.948 225.324 117 227.613 117 230C117 232.387 117.948 234.676 119.636 236.364C121.324 238.052 123.613 239 126 239ZM137 230C137 236.075 132.075 241 126 241C119.925 241 115 236.075 115 230C115 223.925 119.925 219 126 219C132.075 219 137 223.925 137 230ZM124.5 234.414L120.086 230L121.5 228.586L124.5 231.586L130.5 225.586L131.914 227L124.5 234.414Z" fill="#058C50"/>
<path d="M164.503 235.061L164.311 240.438H162.124V237H161.101V235.061H164.503ZM151.598 237V222.455H153.7V235.097H160.717V222.455H162.827V237H151.598ZM166.74 237V226.091H171.264C172.495 226.091 173.471 226.354 174.19 226.879C174.91 227.4 175.27 228.108 175.27 229.003C175.27 229.642 175.066 230.149 174.659 230.523C174.252 230.897 173.712 231.148 173.04 231.276C173.527 231.332 173.975 231.479 174.382 231.716C174.789 231.948 175.116 232.26 175.362 232.653C175.613 233.046 175.739 233.515 175.739 234.06C175.739 234.637 175.589 235.149 175.291 235.594C174.993 236.034 174.56 236.38 173.991 236.631C173.428 236.877 172.749 237 171.953 237H166.74ZM168.736 235.224H171.953C172.479 235.224 172.891 235.099 173.189 234.848C173.487 234.597 173.636 234.256 173.636 233.825C173.636 233.319 173.487 232.921 173.189 232.632C172.891 232.339 172.479 232.192 171.953 232.192H168.736V235.224ZM168.736 230.636H171.286C171.683 230.636 172.024 230.58 172.308 230.466C172.597 230.352 172.817 230.191 172.969 229.983C173.125 229.77 173.203 229.519 173.203 229.23C173.203 228.809 173.03 228.48 172.685 228.243C172.339 228.006 171.866 227.888 171.264 227.888H168.736V230.636ZM182.77 237.22C181.695 237.22 180.769 236.991 179.993 236.531C179.221 236.067 178.625 235.416 178.203 234.578C177.786 233.735 177.578 232.748 177.578 231.616C177.578 230.499 177.786 229.514 178.203 228.662C178.625 227.81 179.212 227.144 179.964 226.666C180.722 226.188 181.607 225.949 182.621 225.949C183.236 225.949 183.833 226.051 184.411 226.254C184.988 226.458 185.507 226.777 185.966 227.213C186.425 227.649 186.787 228.214 187.053 228.911C187.318 229.602 187.45 230.442 187.45 231.432V232.185H178.778V230.594H185.369C185.369 230.035 185.256 229.54 185.028 229.109C184.801 228.674 184.482 228.33 184.07 228.08C183.662 227.829 183.184 227.703 182.635 227.703C182.038 227.703 181.518 227.85 181.072 228.143C180.632 228.432 180.291 228.811 180.05 229.28C179.813 229.744 179.695 230.248 179.695 230.793V232.036C179.695 232.765 179.822 233.385 180.078 233.896C180.339 234.408 180.701 234.798 181.165 235.068C181.629 235.333 182.171 235.466 182.791 235.466C183.194 235.466 183.561 235.409 183.892 235.295C184.223 235.177 184.51 235.002 184.751 234.77C184.993 234.538 185.178 234.251 185.305 233.911L187.315 234.273C187.154 234.865 186.866 235.383 186.449 235.828C186.037 236.268 185.518 236.612 184.893 236.858C184.273 237.099 183.565 237.22 182.77 237.22ZM188.844 227.923V226.091H198.049V227.923H194.49V237H192.417V227.923H188.844ZM204.382 237.22C203.359 237.22 202.467 236.986 201.705 236.517C200.942 236.048 200.35 235.393 199.929 234.55C199.508 233.707 199.297 232.722 199.297 231.595C199.297 230.464 199.508 229.474 199.929 228.626C200.35 227.779 200.942 227.121 201.705 226.652C202.467 226.183 203.359 225.949 204.382 225.949C205.405 225.949 206.297 226.183 207.06 226.652C207.822 227.121 208.414 227.779 208.835 228.626C209.257 229.474 209.467 230.464 209.467 231.595C209.467 232.722 209.257 233.707 208.835 234.55C208.414 235.393 207.822 236.048 207.06 236.517C206.297 236.986 205.405 237.22 204.382 237.22ZM204.389 235.438C205.052 235.438 205.601 235.262 206.037 234.912C206.473 234.562 206.795 234.095 207.003 233.513C207.216 232.93 207.322 232.289 207.322 231.588C207.322 230.892 207.216 230.253 207.003 229.67C206.795 229.083 206.473 228.612 206.037 228.257C205.601 227.902 205.052 227.724 204.389 227.724C203.722 227.724 203.168 227.902 202.727 228.257C202.292 228.612 201.967 229.083 201.754 229.67C201.546 230.253 201.442 230.892 201.442 231.588C201.442 232.289 201.546 232.93 201.754 233.513C201.967 234.095 202.292 234.562 202.727 234.912C203.168 235.262 203.722 235.438 204.389 235.438ZM211.838 237V226.091H216.362C217.593 226.091 218.568 226.354 219.288 226.879C220.008 227.4 220.368 228.108 220.368 229.003C220.368 229.642 220.164 230.149 219.757 230.523C219.35 230.897 218.81 231.148 218.137 231.276C218.625 231.332 219.073 231.479 219.48 231.716C219.887 231.948 220.214 232.26 220.46 232.653C220.711 233.046 220.836 233.515 220.836 234.06C220.836 234.637 220.687 235.149 220.389 235.594C220.091 236.034 219.657 236.38 219.089 236.631C218.526 236.877 217.846 237 217.051 237H211.838ZM213.833 235.224H217.051C217.576 235.224 217.988 235.099 218.287 234.848C218.585 234.597 218.734 234.256 218.734 233.825C218.734 233.319 218.585 232.921 218.287 232.632C217.988 232.339 217.576 232.192 217.051 232.192H213.833V235.224ZM213.833 230.636H216.383C216.781 230.636 217.122 230.58 217.406 230.466C217.695 230.352 217.915 230.191 218.066 229.983C218.223 229.77 218.301 229.519 218.301 229.23C218.301 228.809 218.128 228.48 217.782 228.243C217.437 228.006 216.963 227.888 216.362 227.888H213.833V230.636ZM227.761 237.22C226.738 237.22 225.846 236.986 225.083 236.517C224.321 236.048 223.729 235.393 223.308 234.55C222.886 233.707 222.676 232.722 222.676 231.595C222.676 230.464 222.886 229.474 223.308 228.626C223.729 227.779 224.321 227.121 225.083 226.652C225.846 226.183 226.738 225.949 227.761 225.949C228.784 225.949 229.676 226.183 230.439 226.652C231.201 227.121 231.793 227.779 232.214 228.626C232.636 229.474 232.846 230.464 232.846 231.595C232.846 232.722 232.636 233.707 232.214 234.55C231.793 235.393 231.201 236.048 230.439 236.517C229.676 236.986 228.784 237.22 227.761 237.22ZM227.768 235.438C228.431 235.438 228.98 235.262 229.416 234.912C229.851 234.562 230.173 234.095 230.382 233.513C230.595 232.93 230.701 232.289 230.701 231.588C230.701 230.892 230.595 230.253 230.382 229.67C230.173 229.083 229.851 228.612 229.416 228.257C228.98 227.902 228.431 227.724 227.768 227.724C227.1 227.724 226.547 227.902 226.106 228.257C225.671 228.612 225.346 229.083 225.133 229.67C224.925 230.253 224.821 230.892 224.821 231.588C224.821 232.289 224.925 232.93 225.133 233.513C225.346 234.095 225.671 234.562 226.106 234.912C226.547 235.262 227.1 235.438 227.768 235.438ZM237.298 234.024L242.106 226.091H244.393V237H242.312V229.06L237.525 237H235.217V226.091H237.298V234.024ZM241.197 222.398H242.944C242.944 223.198 242.66 223.849 242.092 224.351C241.528 224.848 240.766 225.097 239.805 225.097C238.848 225.097 238.088 224.848 237.525 224.351C236.961 223.849 236.68 223.198 236.68 222.398H238.42C238.42 222.753 238.524 223.068 238.732 223.342C238.941 223.612 239.298 223.747 239.805 223.747C240.302 223.747 240.657 223.612 240.87 223.342C241.088 223.072 241.197 222.758 241.197 222.398ZM252.541 237V226.091H254.664V230.665H255.687L259.288 226.091H261.916L257.69 231.396L261.966 237H259.331L256.042 232.639H254.664V237H252.541ZM267.761 237.22C266.738 237.22 265.846 236.986 265.083 236.517C264.321 236.048 263.729 235.393 263.308 234.55C262.886 233.707 262.676 232.722 262.676 231.595C262.676 230.464 262.886 229.474 263.308 228.626C263.729 227.779 264.321 227.121 265.083 226.652C265.846 226.183 266.738 225.949 267.761 225.949C268.784 225.949 269.676 226.183 270.439 226.652C271.201 227.121 271.793 227.779 272.214 228.626C272.636 229.474 272.846 230.464 272.846 231.595C272.846 232.722 272.636 233.707 272.214 234.55C271.793 235.393 271.201 236.048 270.439 236.517C269.676 236.986 268.784 237.22 267.761 237.22ZM267.768 235.438C268.431 235.438 268.98 235.262 269.416 234.912C269.851 234.562 270.173 234.095 270.382 233.513C270.595 232.93 270.701 232.289 270.701 231.588C270.701 230.892 270.595 230.253 270.382 229.67C270.173 229.083 269.851 228.612 269.416 228.257C268.98 227.902 268.431 227.724 267.768 227.724C267.1 227.724 266.547 227.902 266.106 228.257C265.671 228.612 265.346 229.083 265.133 229.67C264.925 230.253 264.821 230.892 264.821 231.588C264.821 232.289 264.925 232.93 265.133 233.513C265.346 234.095 265.671 234.562 266.106 234.912C266.547 235.262 267.1 235.438 267.768 235.438ZM282.61 230.629V232.469H276.701V230.629H282.61ZM277.298 226.091V237H275.217V226.091H277.298ZM284.094 226.091V237H282.021V226.091H284.094ZM285.582 227.923V226.091H294.787V227.923H291.229V237H289.155V227.923H285.582ZM297.033 241.091V226.091H299.107V227.859H299.284C299.408 227.632 299.585 227.369 299.817 227.071C300.049 226.773 300.371 226.512 300.783 226.29C301.195 226.062 301.739 225.949 302.417 225.949C303.297 225.949 304.083 226.171 304.775 226.616C305.466 227.062 306.008 227.703 306.401 228.541C306.799 229.379 306.998 230.388 306.998 231.567C306.998 232.746 306.801 233.757 306.408 234.599C306.015 235.437 305.475 236.084 304.789 236.538C304.102 236.988 303.319 237.213 302.438 237.213C301.775 237.213 301.233 237.102 300.811 236.879C300.395 236.657 300.068 236.396 299.831 236.098C299.595 235.8 299.412 235.535 299.284 235.303H299.157V241.091H297.033ZM299.114 231.545C299.114 232.312 299.225 232.985 299.448 233.562C299.67 234.14 299.992 234.592 300.414 234.919C300.835 235.241 301.351 235.402 301.962 235.402C302.596 235.402 303.127 235.234 303.553 234.898C303.979 234.557 304.301 234.095 304.519 233.513C304.741 232.93 304.853 232.275 304.853 231.545C304.853 230.826 304.744 230.179 304.526 229.607C304.313 229.034 303.991 228.581 303.56 228.25C303.134 227.919 302.601 227.753 301.962 227.753C301.346 227.753 300.826 227.911 300.4 228.229C299.978 228.546 299.658 228.989 299.441 229.557C299.223 230.125 299.114 230.788 299.114 231.545ZM312.551 237.241C311.86 237.241 311.235 237.114 310.676 236.858C310.118 236.598 309.675 236.221 309.348 235.729C309.026 235.236 308.865 234.633 308.865 233.918C308.865 233.302 308.984 232.795 309.221 232.398C309.457 232 309.777 231.685 310.179 231.453C310.582 231.221 311.032 231.046 311.529 230.928C312.026 230.809 312.533 230.719 313.049 230.658C313.702 230.582 314.232 230.52 314.64 230.473C315.047 230.421 315.343 230.338 315.527 230.224C315.712 230.111 315.804 229.926 315.804 229.67V229.621C315.804 229 315.629 228.52 315.279 228.179C314.933 227.838 314.417 227.668 313.73 227.668C313.016 227.668 312.452 227.826 312.04 228.143C311.633 228.456 311.351 228.804 311.195 229.188L309.199 228.733C309.436 228.07 309.782 227.535 310.236 227.128C310.695 226.716 311.223 226.418 311.82 226.233C312.417 226.044 313.044 225.949 313.702 225.949C314.138 225.949 314.599 226.001 315.087 226.105C315.579 226.205 316.039 226.389 316.465 226.659C316.896 226.929 317.248 227.315 317.523 227.817C317.798 228.314 317.935 228.96 317.935 229.756V237H315.861V235.509H315.776C315.639 235.783 315.433 236.053 315.158 236.318C314.883 236.583 314.531 236.804 314.1 236.979C313.669 237.154 313.153 237.241 312.551 237.241ZM313.013 235.537C313.6 235.537 314.102 235.421 314.519 235.189C314.94 234.957 315.26 234.654 315.478 234.28C315.7 233.901 315.811 233.496 315.811 233.065V231.659C315.736 231.735 315.589 231.806 315.371 231.872C315.158 231.934 314.914 231.988 314.64 232.036C314.365 232.078 314.097 232.118 313.837 232.156C313.577 232.189 313.359 232.218 313.184 232.241C312.772 232.294 312.395 232.381 312.054 232.504C311.718 232.627 311.448 232.805 311.245 233.037C311.046 233.264 310.946 233.567 310.946 233.946C310.946 234.472 311.141 234.869 311.529 235.139C311.917 235.404 312.412 235.537 313.013 235.537ZM325.359 237.22C324.303 237.22 323.394 236.981 322.631 236.503C321.874 236.02 321.291 235.355 320.884 234.507C320.477 233.66 320.273 232.689 320.273 231.595C320.273 230.487 320.482 229.509 320.898 228.662C321.315 227.81 321.902 227.144 322.66 226.666C323.417 226.188 324.31 225.949 325.337 225.949C326.166 225.949 326.905 226.103 327.553 226.411C328.202 226.714 328.725 227.14 329.123 227.689C329.525 228.238 329.764 228.88 329.84 229.614H327.773C327.66 229.102 327.399 228.662 326.992 228.293C326.59 227.923 326.05 227.739 325.373 227.739C324.781 227.739 324.263 227.895 323.817 228.207C323.377 228.515 323.034 228.955 322.788 229.528C322.541 230.097 322.418 230.769 322.418 231.545C322.418 232.341 322.539 233.027 322.781 233.605C323.022 234.183 323.363 234.63 323.803 234.947C324.248 235.265 324.772 235.423 325.373 235.423C325.775 235.423 326.14 235.35 326.467 235.203C326.798 235.052 327.075 234.836 327.298 234.557C327.525 234.277 327.683 233.941 327.773 233.548H329.84C329.764 234.254 329.535 234.884 329.151 235.438C328.768 235.991 328.254 236.427 327.61 236.744C326.971 237.062 326.22 237.22 325.359 237.22ZM331.286 227.923V226.091H340.49V227.923H336.932V237H334.858V227.923H331.286ZM348.029 237V226.091H356.928V237H354.847V227.923H350.096V237H348.029ZM359.767 241.091V226.091H361.841V227.859H362.019C362.142 227.632 362.319 227.369 362.551 227.071C362.783 226.773 363.105 226.512 363.517 226.29C363.929 226.062 364.474 225.949 365.151 225.949C366.032 225.949 366.818 226.171 367.509 226.616C368.2 227.062 368.742 227.703 369.135 228.541C369.533 229.379 369.732 230.388 369.732 231.567C369.732 232.746 369.535 233.757 369.142 234.599C368.749 235.437 368.21 236.084 367.523 236.538C366.837 236.988 366.053 237.213 365.172 237.213C364.509 237.213 363.967 237.102 363.546 236.879C363.129 236.657 362.802 236.396 362.566 236.098C362.329 235.8 362.147 235.535 362.019 235.303H361.891V241.091H359.767ZM361.848 231.545C361.848 232.312 361.96 232.985 362.182 233.562C362.405 234.14 362.727 234.592 363.148 234.919C363.569 235.241 364.086 235.402 364.696 235.402C365.331 235.402 365.861 235.234 366.287 234.898C366.713 234.557 367.035 234.095 367.253 233.513C367.476 232.93 367.587 232.275 367.587 231.545C367.587 230.826 367.478 230.179 367.26 229.607C367.047 229.034 366.725 228.581 366.294 228.25C365.868 227.919 365.336 227.753 364.696 227.753C364.081 227.753 363.56 227.911 363.134 228.229C362.712 228.546 362.393 228.989 362.175 229.557C361.957 230.125 361.848 230.788 361.848 231.545ZM376.706 237.22C375.684 237.22 374.791 236.986 374.029 236.517C373.266 236.048 372.675 235.393 372.253 234.55C371.832 233.707 371.621 232.722 371.621 231.595C371.621 230.464 371.832 229.474 372.253 228.626C372.675 227.779 373.266 227.121 374.029 226.652C374.791 226.183 375.684 225.949 376.706 225.949C377.729 225.949 378.622 226.183 379.384 226.652C380.146 227.121 380.738 227.779 381.159 228.626C381.581 229.474 381.792 230.464 381.792 231.595C381.792 232.722 381.581 233.707 381.159 234.55C380.738 235.393 380.146 236.048 379.384 236.517C378.622 236.986 377.729 237.22 376.706 237.22ZM376.713 235.438C377.376 235.438 377.926 235.262 378.361 234.912C378.797 234.562 379.119 234.095 379.327 233.513C379.54 232.93 379.647 232.289 379.647 231.588C379.647 230.892 379.54 230.253 379.327 229.67C379.119 229.083 378.797 228.612 378.361 228.257C377.926 227.902 377.376 227.724 376.713 227.724C376.046 227.724 375.492 227.902 375.051 228.257C374.616 228.612 374.292 229.083 374.078 229.67C373.87 230.253 373.766 230.892 373.766 231.588C373.766 232.289 373.87 232.93 374.078 233.513C374.292 234.095 374.616 234.562 375.051 234.912C375.492 235.262 376.046 235.438 376.713 235.438ZM384.162 237V226.091H388.686C389.917 226.091 390.893 226.354 391.612 226.879C392.332 227.4 392.692 228.108 392.692 229.003C392.692 229.642 392.488 230.149 392.081 230.523C391.674 230.897 391.134 231.148 390.462 231.276C390.949 231.332 391.397 231.479 391.804 231.716C392.211 231.948 392.538 232.26 392.784 232.653C393.035 233.046 393.161 233.515 393.161 234.06C393.161 234.637 393.011 235.149 392.713 235.594C392.415 236.034 391.982 236.38 391.413 236.631C390.85 236.877 390.17 237 389.375 237H384.162ZM386.158 235.224H389.375C389.901 235.224 390.313 235.099 390.611 234.848C390.909 234.597 391.058 234.256 391.058 233.825C391.058 233.319 390.909 232.921 390.611 232.632C390.313 232.339 389.901 232.192 389.375 232.192H386.158V235.224ZM386.158 230.636H388.707C389.105 230.636 389.446 230.58 389.73 230.466C390.019 230.352 390.239 230.191 390.391 229.983C390.547 229.77 390.625 229.519 390.625 229.23C390.625 228.809 390.452 228.48 390.107 228.243C389.761 228.006 389.287 227.888 388.686 227.888H386.158V230.636ZM400.192 237.22C399.117 237.22 398.191 236.991 397.415 236.531C396.643 236.067 396.046 235.416 395.625 234.578C395.208 233.735 395 232.748 395 231.616C395 230.499 395.208 229.514 395.625 228.662C396.046 227.81 396.634 227.144 397.386 226.666C398.144 226.188 399.029 225.949 400.043 225.949C400.658 225.949 401.255 226.051 401.832 226.254C402.41 226.458 402.929 226.777 403.388 227.213C403.847 227.649 404.209 228.214 404.474 228.911C404.74 229.602 404.872 230.442 404.872 231.432V232.185H396.2V230.594H402.791C402.791 230.035 402.678 229.54 402.45 229.109C402.223 228.674 401.903 228.33 401.491 228.08C401.084 227.829 400.606 227.703 400.057 227.703C399.46 227.703 398.939 227.85 398.494 228.143C398.054 228.432 397.713 228.811 397.472 229.28C397.235 229.744 397.116 230.248 397.116 230.793V232.036C397.116 232.765 397.244 233.385 397.5 233.896C397.76 234.408 398.123 234.798 398.587 235.068C399.051 235.333 399.593 235.466 400.213 235.466C400.616 235.466 400.982 235.409 401.314 235.295C401.645 235.177 401.932 235.002 402.173 234.77C402.415 234.538 402.599 234.251 402.727 233.911L404.737 234.273C404.576 234.865 404.287 235.383 403.871 235.828C403.459 236.268 402.94 236.612 402.315 236.858C401.695 237.099 400.987 237.22 400.192 237.22ZM407.228 241.091V226.091H409.302V227.859H409.48C409.603 227.632 409.78 227.369 410.012 227.071C410.244 226.773 410.566 226.512 410.978 226.29C411.39 226.062 411.935 225.949 412.612 225.949C413.493 225.949 414.279 226.171 414.97 226.616C415.661 227.062 416.203 227.703 416.596 228.541C416.994 229.379 417.193 230.388 417.193 231.567C417.193 232.746 416.996 233.757 416.603 234.599C416.21 235.437 415.671 236.084 414.984 236.538C414.297 236.988 413.514 237.213 412.633 237.213C411.97 237.213 411.428 237.102 411.007 236.879C410.59 236.657 410.263 236.396 410.027 236.098C409.79 235.8 409.608 235.535 409.48 235.303H409.352V241.091H407.228ZM409.309 231.545C409.309 232.312 409.421 232.985 409.643 233.562C409.866 234.14 410.188 234.592 410.609 234.919C411.03 235.241 411.547 235.402 412.157 235.402C412.792 235.402 413.322 235.234 413.748 234.898C414.174 234.557 414.496 234.095 414.714 233.513C414.937 232.93 415.048 232.275 415.048 231.545C415.048 230.826 414.939 230.179 414.721 229.607C414.508 229.034 414.186 228.581 413.755 228.25C413.329 227.919 412.797 227.753 412.157 227.753C411.542 227.753 411.021 227.911 410.595 228.229C410.173 228.546 409.854 228.989 409.636 229.557C409.418 230.125 409.309 230.788 409.309 231.545ZM424.274 237.22C423.199 237.22 422.273 236.991 421.497 236.531C420.725 236.067 420.128 235.416 419.707 234.578C419.29 233.735 419.082 232.748 419.082 231.616C419.082 230.499 419.29 229.514 419.707 228.662C420.128 227.81 420.716 227.144 421.468 226.666C422.226 226.188 423.111 225.949 424.125 225.949C424.74 225.949 425.337 226.051 425.914 226.254C426.492 226.458 427.011 226.777 427.47 227.213C427.929 227.649 428.291 228.214 428.556 228.911C428.822 229.602 428.954 230.442 428.954 231.432V232.185H420.282V230.594H426.873C426.873 230.035 426.76 229.54 426.532 229.109C426.305 228.674 425.985 228.33 425.574 228.08C425.166 227.829 424.688 227.703 424.139 227.703C423.542 227.703 423.021 227.85 422.576 228.143C422.136 228.432 421.795 228.811 421.554 229.28C421.317 229.744 421.199 230.248 421.199 230.793V232.036C421.199 232.765 421.326 233.385 421.582 233.896C421.842 234.408 422.205 234.798 422.669 235.068C423.133 235.333 423.675 235.466 424.295 235.466C424.698 235.466 425.065 235.409 425.396 235.295C425.727 235.177 426.014 235.002 426.255 234.77C426.497 234.538 426.681 234.251 426.809 233.911L428.819 234.273C428.658 234.865 428.369 235.383 427.953 235.828C427.541 236.268 427.022 236.612 426.397 236.858C425.777 237.099 425.069 237.22 424.274 237.22ZM438.704 230.629V232.469H432.795V230.629H438.704ZM433.391 226.091V237H431.31V226.091H433.391ZM440.188 226.091V237H438.114V226.091H440.188Z" fill="#058C50"/>
</svg>
