<svg width="1128" height="276" viewBox="0 0 1128 276" fill="none" xmlns="http://www.w3.org/2000/svg">
<rect width="1128" height="276" fill="#F2F6F9"/>
<rect x="221.296" y="63.8733" width="107.408" height="107.408" stroke="#058CD7" stroke-width="2.25331"/>
<path d="M275.006 81.7283C280.33 77.0522 287.264 74.6306 294.342 74.9759C301.42 75.3212 308.086 78.4063 312.93 83.5786C317.774 88.7508 320.415 95.6045 320.296 102.69C320.177 109.775 317.307 116.536 312.292 121.542L289.403 144.436L275.001 158.829L243.104 126.936L237.715 121.538C232.715 116.528 229.858 109.772 229.746 102.695C229.633 95.6181 232.275 88.7744 237.114 83.6086C241.952 78.4428 248.608 75.359 255.677 75.0082C262.746 74.6573 269.675 77.0669 275.001 81.7283H275.006ZM289.399 132.049L306.096 115.347C307.817 113.627 309.181 111.584 310.112 109.337C311.044 107.089 311.523 104.68 311.523 102.247C311.523 99.8136 311.044 97.4045 310.112 95.1567C309.181 92.9089 307.817 90.8665 306.096 89.1461C304.376 87.4257 302.334 86.061 300.086 85.13C297.838 84.1989 295.429 83.7197 292.996 83.7197C290.563 83.7197 288.154 84.1989 285.906 85.13C283.658 86.061 281.616 87.4257 279.895 89.1461L275.001 94.0358L270.107 89.1417C266.633 85.6672 261.92 83.7153 257.007 83.7153C252.093 83.7153 247.381 85.6672 243.906 89.1417C240.432 92.6162 238.48 97.3286 238.48 102.242C238.48 107.156 240.432 111.868 243.906 115.343L249.304 120.741L275.001 146.438L289.394 132.045L289.399 132.049Z" fill="#0A2832"/>
<path d="M249.614 203.354C248.676 203.354 247.841 203.193 247.107 202.871C246.378 202.549 245.798 202.101 245.367 201.528C244.941 200.951 244.709 200.281 244.671 199.518H246.46C246.498 199.987 246.659 200.392 246.943 200.733C247.227 201.069 247.599 201.329 248.058 201.514C248.518 201.699 249.027 201.791 249.585 201.791C250.21 201.791 250.764 201.682 251.247 201.464C251.73 201.247 252.109 200.943 252.384 200.555C252.658 200.167 252.796 199.717 252.796 199.206C252.796 198.671 252.663 198.2 252.398 197.792C252.133 197.381 251.744 197.059 251.233 196.827C250.722 196.595 250.097 196.479 249.358 196.479H248.193V194.916H249.358C249.936 194.916 250.442 194.812 250.878 194.604C251.318 194.395 251.662 194.102 251.908 193.723C252.159 193.344 252.284 192.899 252.284 192.388C252.284 191.895 252.175 191.467 251.958 191.102C251.74 190.738 251.432 190.453 251.034 190.25C250.641 190.046 250.177 189.944 249.642 189.944C249.14 189.944 248.667 190.037 248.222 190.221C247.781 190.401 247.422 190.664 247.142 191.01C246.863 191.351 246.711 191.763 246.688 192.246H244.983C245.012 191.483 245.241 190.816 245.672 190.243C246.103 189.665 246.666 189.215 247.362 188.893C248.063 188.571 248.833 188.41 249.671 188.41C250.57 188.41 251.342 188.593 251.986 188.957C252.63 189.317 253.125 189.793 253.47 190.385C253.816 190.977 253.989 191.616 253.989 192.302C253.989 193.122 253.773 193.82 253.343 194.398C252.916 194.975 252.336 195.375 251.602 195.598V195.711C252.521 195.863 253.238 196.254 253.754 196.883C254.271 197.508 254.529 198.283 254.529 199.206C254.529 199.997 254.313 200.707 253.882 201.336C253.456 201.961 252.874 202.454 252.135 202.814C251.396 203.174 250.556 203.354 249.614 203.354ZM262.263 203.354C261.666 203.344 261.07 203.23 260.473 203.013C259.877 202.795 259.332 202.428 258.84 201.912C258.347 201.391 257.952 200.688 257.654 199.802C257.355 198.912 257.206 197.795 257.206 196.45C257.206 195.162 257.327 194.021 257.568 193.027C257.81 192.028 258.16 191.187 258.619 190.506C259.079 189.819 259.633 189.298 260.281 188.943C260.935 188.588 261.671 188.41 262.49 188.41C263.305 188.41 264.029 188.574 264.664 188.9C265.303 189.222 265.824 189.672 266.226 190.25C266.628 190.827 266.889 191.493 267.007 192.246H265.274C265.113 191.592 264.801 191.05 264.337 190.619C263.873 190.188 263.257 189.973 262.49 189.973C261.363 189.973 260.476 190.463 259.827 191.443C259.183 192.423 258.859 193.799 258.854 195.569H258.968C259.233 195.167 259.548 194.824 259.912 194.54C260.281 194.251 260.689 194.028 261.134 193.872C261.579 193.716 262.05 193.638 262.547 193.638C263.38 193.638 264.143 193.846 264.834 194.263C265.525 194.675 266.079 195.245 266.496 195.974C266.913 196.699 267.121 197.53 267.121 198.467C267.121 199.367 266.92 200.191 266.517 200.939C266.115 201.682 265.549 202.274 264.82 202.714C264.095 203.15 263.243 203.363 262.263 203.354ZM262.263 201.791C262.86 201.791 263.395 201.642 263.868 201.344C264.346 201.045 264.723 200.645 264.997 200.143C265.277 199.641 265.416 199.083 265.416 198.467C265.416 197.866 265.281 197.319 265.012 196.827C264.746 196.329 264.379 195.934 263.911 195.64C263.447 195.347 262.916 195.2 262.32 195.2C261.87 195.2 261.451 195.29 261.063 195.47C260.674 195.645 260.334 195.887 260.04 196.194C259.751 196.502 259.524 196.855 259.358 197.253C259.192 197.646 259.11 198.06 259.11 198.496C259.11 199.073 259.244 199.613 259.514 200.115C259.789 200.617 260.163 201.022 260.637 201.329C261.115 201.637 261.657 201.791 262.263 201.791ZM278.465 200.541L270.454 192.53L271.533 191.45L279.545 199.461L278.465 200.541ZM271.533 200.541L270.454 199.461L278.465 191.45L279.545 192.53L271.533 200.541ZM288.012 203.354C287.075 203.354 286.239 203.193 285.505 202.871C284.776 202.549 284.196 202.101 283.765 201.528C283.339 200.951 283.107 200.281 283.069 199.518H284.859C284.897 199.987 285.058 200.392 285.342 200.733C285.626 201.069 285.998 201.329 286.457 201.514C286.916 201.699 287.425 201.791 287.984 201.791C288.609 201.791 289.163 201.682 289.646 201.464C290.129 201.247 290.508 200.943 290.782 200.555C291.057 200.167 291.194 199.717 291.194 199.206C291.194 198.671 291.061 198.2 290.796 197.792C290.531 197.381 290.143 197.059 289.632 196.827C289.12 196.595 288.495 196.479 287.757 196.479H286.592V194.916H287.757C288.334 194.916 288.841 194.812 289.276 194.604C289.717 194.395 290.06 194.102 290.306 193.723C290.557 193.344 290.683 192.899 290.683 192.388C290.683 191.895 290.574 191.467 290.356 191.102C290.138 190.738 289.83 190.453 289.433 190.25C289.04 190.046 288.576 189.944 288.041 189.944C287.539 189.944 287.065 190.037 286.62 190.221C286.18 190.401 285.82 190.664 285.541 191.01C285.261 191.351 285.11 191.763 285.086 192.246H283.382C283.41 191.483 283.64 190.816 284.07 190.243C284.501 189.665 285.065 189.215 285.761 188.893C286.462 188.571 287.231 188.41 288.069 188.41C288.969 188.41 289.74 188.593 290.384 188.957C291.028 189.317 291.523 189.793 291.869 190.385C292.214 190.977 292.387 191.616 292.387 192.302C292.387 193.122 292.172 193.82 291.741 194.398C291.315 194.975 290.735 195.375 290.001 195.598V195.711C290.919 195.863 291.637 196.254 292.153 196.883C292.669 197.508 292.927 198.283 292.927 199.206C292.927 199.997 292.712 200.707 292.281 201.336C291.855 201.961 291.272 202.454 290.534 202.814C289.795 203.174 288.954 203.354 288.012 203.354ZM300.661 203.354C300.065 203.344 299.468 203.23 298.872 203.013C298.275 202.795 297.731 202.428 297.238 201.912C296.746 201.391 296.35 200.688 296.052 199.802C295.754 198.912 295.605 197.795 295.605 196.45C295.605 195.162 295.725 194.021 295.967 193.027C296.208 192.028 296.559 191.187 297.018 190.506C297.477 189.819 298.031 189.298 298.68 188.943C299.333 188.588 300.07 188.41 300.889 188.41C301.703 188.41 302.427 188.574 303.062 188.9C303.701 189.222 304.222 189.672 304.624 190.25C305.027 190.827 305.287 191.493 305.406 192.246H303.673C303.512 191.592 303.199 191.05 302.735 190.619C302.271 190.188 301.656 189.973 300.889 189.973C299.762 189.973 298.874 190.463 298.225 191.443C297.581 192.423 297.257 193.799 297.252 195.569H297.366C297.631 195.167 297.946 194.824 298.311 194.54C298.68 194.251 299.087 194.028 299.532 193.872C299.977 193.716 300.448 193.638 300.945 193.638C301.779 193.638 302.541 193.846 303.232 194.263C303.924 194.675 304.478 195.245 304.894 195.974C305.311 196.699 305.519 197.53 305.519 198.467C305.519 199.367 305.318 200.191 304.916 200.939C304.513 201.682 303.947 202.274 303.218 202.714C302.494 203.15 301.642 203.363 300.661 203.354ZM300.661 201.791C301.258 201.791 301.793 201.642 302.267 201.344C302.745 201.045 303.121 200.645 303.396 200.143C303.675 199.641 303.815 199.083 303.815 198.467C303.815 197.866 303.68 197.319 303.41 196.827C303.145 196.329 302.778 195.934 302.309 195.64C301.845 195.347 301.315 195.2 300.718 195.2C300.268 195.2 299.849 195.29 299.461 195.47C299.073 195.645 298.732 195.887 298.438 196.194C298.15 196.502 297.922 196.855 297.757 197.253C297.591 197.646 297.508 198.06 297.508 198.496C297.508 199.073 297.643 199.613 297.913 200.115C298.187 200.617 298.561 201.022 299.035 201.329C299.513 201.637 300.055 201.791 300.661 201.791Z" fill="#058CD7"/>
<rect x="411.839" y="84.2439" width="86.8214" height="86.8214" stroke="#058CD7" stroke-width="1.82143"/>
<path d="M455.255 98.6767C459.559 94.8968 465.164 92.9394 470.885 93.2185C476.607 93.4976 481.995 95.9914 485.91 100.172C489.826 104.353 491.961 109.893 491.865 115.62C491.769 121.348 489.448 126.813 485.395 130.86L466.893 149.365L455.251 160.999L429.468 135.22L425.112 130.856C421.07 126.807 418.76 121.345 418.67 115.625C418.579 109.904 420.715 104.372 424.626 100.197C428.537 96.0209 433.917 93.5281 439.631 93.2446C445.345 92.961 450.946 94.9087 455.251 98.6767H455.255ZM466.889 139.353L480.387 125.852C481.777 124.461 482.88 122.81 483.633 120.993C484.386 119.176 484.773 117.229 484.773 115.262C484.773 113.296 484.386 111.348 483.633 109.531C482.88 107.714 481.777 106.063 480.387 104.673C478.996 103.282 477.345 102.179 475.528 101.426C473.711 100.674 471.764 100.286 469.797 100.286C467.83 100.286 465.883 100.674 464.066 101.426C462.249 102.179 460.598 103.282 459.207 104.673L455.251 108.625L451.295 104.669C448.487 101.861 444.678 100.283 440.706 100.283C436.734 100.283 432.925 101.861 430.116 104.669C427.308 107.478 425.73 111.287 425.73 115.259C425.73 119.231 427.308 123.04 430.116 125.848L434.48 130.212L455.251 150.984L466.886 139.349L466.889 139.353Z" fill="#0A2832"/>
<path d="M425.73 203.155V201.876L430.531 196.621C431.095 196.005 431.559 195.47 431.923 195.015C432.288 194.556 432.558 194.125 432.733 193.723C432.913 193.316 433.003 192.89 433.003 192.444C433.003 191.933 432.88 191.49 432.634 191.116C432.392 190.742 432.061 190.453 431.639 190.25C431.218 190.046 430.744 189.944 430.219 189.944C429.66 189.944 429.173 190.06 428.756 190.292C428.344 190.52 428.024 190.839 427.797 191.251C427.575 191.663 427.463 192.146 427.463 192.7H425.787C425.787 191.848 425.984 191.1 426.377 190.456C426.77 189.812 427.305 189.31 427.982 188.95C428.664 188.59 429.428 188.41 430.276 188.41C431.128 188.41 431.883 188.59 432.541 188.95C433.2 189.31 433.716 189.795 434.09 190.406C434.464 191.017 434.651 191.696 434.651 192.444C434.651 192.979 434.554 193.503 434.36 194.014C434.17 194.521 433.839 195.086 433.365 195.711C432.896 196.332 432.245 197.089 431.412 197.984L428.145 201.479V201.592H434.906V203.155H425.73ZM442.499 203.354C441.523 203.354 440.662 203.181 439.914 202.835C439.17 202.485 438.59 202.004 438.173 201.393C437.757 200.778 437.551 200.077 437.556 199.291C437.551 198.675 437.672 198.107 437.918 197.586C438.164 197.061 438.5 196.623 438.926 196.273C439.357 195.917 439.838 195.693 440.368 195.598V195.513C439.672 195.333 439.118 194.942 438.706 194.341C438.294 193.735 438.091 193.046 438.095 192.274C438.091 191.535 438.278 190.875 438.656 190.292C439.035 189.71 439.556 189.251 440.219 188.915C440.887 188.578 441.646 188.41 442.499 188.41C443.342 188.41 444.094 188.578 444.757 188.915C445.42 189.251 445.941 189.71 446.32 190.292C446.703 190.875 446.897 191.535 446.902 192.274C446.897 193.046 446.687 193.735 446.27 194.341C445.858 194.942 445.311 195.333 444.629 195.513V195.598C445.155 195.693 445.628 195.917 446.05 196.273C446.471 196.623 446.807 197.061 447.058 197.586C447.309 198.107 447.437 198.675 447.442 199.291C447.437 200.077 447.224 200.778 446.803 201.393C446.386 202.004 445.806 202.485 445.063 202.835C444.324 203.181 443.469 203.354 442.499 203.354ZM442.499 201.791C443.157 201.791 443.725 201.684 444.203 201.471C444.682 201.258 445.051 200.958 445.311 200.569C445.572 200.181 445.704 199.727 445.709 199.206C445.704 198.657 445.562 198.171 445.283 197.75C445.003 197.328 444.622 196.997 444.139 196.756C443.661 196.514 443.114 196.393 442.499 196.393C441.878 196.393 441.325 196.514 440.837 196.756C440.354 196.997 439.973 197.328 439.693 197.75C439.419 198.171 439.284 198.657 439.289 199.206C439.284 199.727 439.409 200.181 439.665 200.569C439.925 200.958 440.297 201.258 440.78 201.471C441.263 201.684 441.836 201.791 442.499 201.791ZM442.499 194.888C443.02 194.888 443.481 194.783 443.884 194.575C444.291 194.367 444.61 194.076 444.843 193.702C445.075 193.327 445.193 192.89 445.198 192.388C445.193 191.895 445.077 191.467 444.85 191.102C444.622 190.733 444.307 190.449 443.905 190.25C443.503 190.046 443.034 189.944 442.499 189.944C441.954 189.944 441.478 190.046 441.071 190.25C440.664 190.449 440.349 190.733 440.127 191.102C439.904 191.467 439.795 191.895 439.8 192.388C439.795 192.89 439.906 193.327 440.134 193.702C440.366 194.076 440.685 194.367 441.093 194.575C441.5 194.783 441.968 194.888 442.499 194.888ZM458.715 200.541L450.704 192.53L451.783 191.45L459.795 199.461L458.715 200.541ZM451.783 200.541L450.704 199.461L458.715 191.45L459.795 192.53L451.783 200.541ZM463.347 203.155V201.876L468.149 196.621C468.712 196.005 469.176 195.47 469.541 195.015C469.905 194.556 470.175 194.125 470.35 193.723C470.53 193.316 470.62 192.89 470.62 192.444C470.62 191.933 470.497 191.49 470.251 191.116C470.009 190.742 469.678 190.453 469.257 190.25C468.835 190.046 468.362 189.944 467.836 189.944C467.277 189.944 466.79 190.06 466.373 190.292C465.961 190.52 465.642 190.839 465.414 191.251C465.192 191.663 465.08 192.146 465.08 192.7H463.404C463.404 191.848 463.601 191.1 463.994 190.456C464.387 189.812 464.922 189.31 465.599 188.95C466.281 188.59 467.045 188.41 467.893 188.41C468.745 188.41 469.5 188.59 470.159 188.95C470.817 189.31 471.333 189.795 471.707 190.406C472.081 191.017 472.268 191.696 472.268 192.444C472.268 192.979 472.171 193.503 471.977 194.014C471.787 194.521 471.456 195.086 470.982 195.711C470.514 196.332 469.863 197.089 469.029 197.984L465.762 201.479V201.592H472.524V203.155H463.347ZM480.116 203.354C479.141 203.354 478.279 203.181 477.531 202.835C476.787 202.485 476.207 202.004 475.791 201.393C475.374 200.778 475.168 200.077 475.173 199.291C475.168 198.675 475.289 198.107 475.535 197.586C475.781 197.061 476.117 196.623 476.544 196.273C476.974 195.917 477.455 195.693 477.985 195.598V195.513C477.289 195.333 476.735 194.942 476.323 194.341C475.911 193.735 475.708 193.046 475.713 192.274C475.708 191.535 475.895 190.875 476.274 190.292C476.652 189.71 477.173 189.251 477.836 188.915C478.504 188.578 479.264 188.41 480.116 188.41C480.959 188.41 481.712 188.578 482.374 188.915C483.037 189.251 483.558 189.71 483.937 190.292C484.32 190.875 484.515 191.535 484.519 192.274C484.515 193.046 484.304 193.735 483.887 194.341C483.475 194.942 482.928 195.333 482.247 195.513V195.598C482.772 195.693 483.246 195.917 483.667 196.273C484.088 196.623 484.425 197.061 484.676 197.586C484.927 198.107 485.054 198.675 485.059 199.291C485.054 200.077 484.841 200.778 484.42 201.393C484.003 202.004 483.423 202.485 482.68 202.835C481.941 203.181 481.087 203.354 480.116 203.354ZM480.116 201.791C480.774 201.791 481.342 201.684 481.82 201.471C482.299 201.258 482.668 200.958 482.928 200.569C483.189 200.181 483.321 199.727 483.326 199.206C483.321 198.657 483.179 198.171 482.9 197.75C482.621 197.328 482.24 196.997 481.757 196.756C481.278 196.514 480.731 196.393 480.116 196.393C479.496 196.393 478.942 196.514 478.454 196.756C477.971 196.997 477.59 197.328 477.311 197.75C477.036 198.171 476.901 198.657 476.906 199.206C476.901 199.727 477.026 200.181 477.282 200.569C477.543 200.958 477.914 201.258 478.397 201.471C478.88 201.684 479.453 201.791 480.116 201.791ZM480.116 194.888C480.637 194.888 481.098 194.783 481.501 194.575C481.908 194.367 482.228 194.076 482.46 193.702C482.692 193.327 482.81 192.89 482.815 192.388C482.81 191.895 482.694 191.467 482.467 191.102C482.24 190.733 481.925 190.449 481.522 190.25C481.12 190.046 480.651 189.944 480.116 189.944C479.571 189.944 479.096 190.046 478.688 190.25C478.281 190.449 477.966 190.733 477.744 191.102C477.521 191.467 477.412 191.895 477.417 192.388C477.412 192.89 477.524 193.327 477.751 193.702C477.983 194.076 478.302 194.367 478.71 194.575C479.117 194.783 479.586 194.888 480.116 194.888Z" fill="#058CD7"/>
<rect x="571.75" y="99.4047" width="71.5" height="71.5" stroke="#058CD7" stroke-width="1.5"/>
<path d="M607.503 111.29C611.048 108.178 615.664 106.566 620.375 106.796C625.087 107.025 629.524 109.079 632.749 112.522C635.973 115.965 637.732 120.528 637.653 125.244C637.573 129.961 635.662 134.461 632.324 137.794L617.087 153.034L607.5 162.615L586.267 141.385L582.68 137.791C579.351 134.456 577.449 129.959 577.374 125.248C577.3 120.537 579.058 115.981 582.279 112.542C585.5 109.103 589.931 107.051 594.637 106.817C599.342 106.583 603.955 108.187 607.5 111.29H607.503ZM617.085 144.788L628.2 133.67C629.345 132.525 630.254 131.165 630.873 129.669C631.493 128.173 631.812 126.569 631.812 124.949C631.812 123.33 631.493 121.726 630.873 120.23C630.254 118.733 629.345 117.374 628.2 116.228C627.055 115.083 625.695 114.175 624.199 113.555C622.703 112.935 621.099 112.616 619.479 112.616C617.86 112.616 616.256 112.935 614.759 113.555C613.263 114.175 611.904 115.083 610.758 116.228L607.5 119.483L604.242 116.225C601.93 113.913 598.793 112.613 595.522 112.613C592.251 112.613 589.114 113.913 586.801 116.225C584.488 118.538 583.189 121.675 583.189 124.946C583.189 128.217 584.488 131.354 586.801 133.667L590.394 137.26L607.5 154.367L617.082 144.785L617.085 144.788Z" fill="#0A2832"/>
<path d="M577.785 203.155V201.876L582.586 196.621C583.15 196.005 583.614 195.47 583.978 195.015C584.343 194.556 584.613 194.125 584.788 193.723C584.968 193.316 585.058 192.89 585.058 192.444C585.058 191.933 584.935 191.49 584.688 191.116C584.447 190.742 584.115 190.453 583.694 190.25C583.273 190.046 582.799 189.944 582.274 189.944C581.715 189.944 581.227 190.06 580.811 190.292C580.399 190.52 580.079 190.839 579.852 191.251C579.629 191.663 579.518 192.146 579.518 192.7H577.842C577.842 191.848 578.038 191.1 578.431 190.456C578.824 189.812 579.359 189.31 580.036 188.95C580.718 188.59 581.483 188.41 582.33 188.41C583.183 188.41 583.938 188.59 584.596 188.95C585.254 189.31 585.77 189.795 586.144 190.406C586.518 191.017 586.705 191.696 586.705 192.444C586.705 192.979 586.608 193.503 586.414 194.014C586.225 194.521 585.893 195.086 585.42 195.711C584.951 196.332 584.3 197.089 583.467 197.984L580.2 201.479V201.592H586.961V203.155H577.785ZM589.241 200.172V198.723L595.633 188.609H596.684V190.854H595.974L591.144 198.496V198.609H599.752V200.172H589.241ZM596.088 203.155V199.731V199.057V188.609H597.764V203.155H596.088ZM610.965 200.541L602.954 192.53L604.033 191.45L612.045 199.461L610.965 200.541ZM604.033 200.541L602.954 199.461L610.965 191.45L612.045 192.53L604.033 200.541ZM615.597 203.155V201.876L620.399 196.621C620.962 196.005 621.426 195.47 621.791 195.015C622.155 194.556 622.425 194.125 622.6 193.723C622.78 193.316 622.87 192.89 622.87 192.444C622.87 191.933 622.747 191.49 622.501 191.116C622.259 190.742 621.928 190.453 621.507 190.25C621.085 190.046 620.612 189.944 620.086 189.944C619.527 189.944 619.04 190.06 618.623 190.292C618.211 190.52 617.892 190.839 617.664 191.251C617.442 191.663 617.33 192.146 617.33 192.7H615.654C615.654 191.848 615.851 191.1 616.244 190.456C616.637 189.812 617.172 189.31 617.849 188.95C618.531 188.59 619.295 188.41 620.143 188.41C620.995 188.41 621.75 188.59 622.409 188.95C623.067 189.31 623.583 189.795 623.957 190.406C624.331 191.017 624.518 191.696 624.518 192.444C624.518 192.979 624.421 193.503 624.227 194.014C624.037 194.521 623.706 195.086 623.232 195.711C622.764 196.332 622.113 197.089 621.279 197.984L618.012 201.479V201.592H624.774V203.155H615.597ZM627.053 200.172V198.723L633.445 188.609H634.497V190.854H633.786L628.957 198.496V198.609H637.565V200.172H627.053ZM633.9 203.155V199.731V199.057V188.609H635.576V203.155H633.9Z" fill="#058CD7"/>
<rect x="718.5" y="119.405" width="51.5" height="51.5" stroke="#058CD7" stroke-width="1.5"/>
<path d="M744.253 128.109C746.784 125.885 750.082 124.734 753.447 124.898C756.813 125.062 759.982 126.529 762.285 128.989C764.589 131.448 765.845 134.707 765.788 138.076C765.731 141.445 764.366 144.66 761.982 147.04L751.099 157.925L744.251 164.769L729.084 149.605L726.522 147.038C724.144 144.656 722.785 141.443 722.732 138.078C722.679 134.713 723.935 131.459 726.236 129.003C728.536 126.547 731.701 125.08 735.062 124.913C738.424 124.747 741.718 125.892 744.251 128.109H744.253ZM751.097 152.036L759.036 144.094C759.854 143.276 760.503 142.305 760.946 141.236C761.388 140.167 761.616 139.022 761.616 137.865C761.616 136.708 761.388 135.563 760.946 134.494C760.503 133.425 759.854 132.454 759.036 131.636C758.218 130.818 757.247 130.169 756.178 129.726C755.109 129.284 753.964 129.056 752.807 129.056C751.65 129.056 750.505 129.284 749.436 129.726C748.367 130.169 747.396 130.818 746.578 131.636L744.251 133.961L741.924 131.634C740.272 129.982 738.031 129.054 735.694 129.054C733.358 129.054 731.117 129.982 729.465 131.634C727.813 133.286 726.885 135.527 726.885 137.863C726.885 140.199 727.813 142.44 729.465 144.092L732.032 146.659L744.251 158.878L751.094 152.034L751.097 152.036Z" fill="#0A2832"/>
<path d="M722.5 188.609V203.155H720.739V190.456H720.654L717.102 192.814V191.024L720.739 188.609H722.5ZM731.513 203.354C730.916 203.344 730.32 203.23 729.723 203.013C729.127 202.795 728.582 202.428 728.09 201.912C727.597 201.391 727.202 200.688 726.904 199.802C726.605 198.912 726.456 197.795 726.456 196.45C726.456 195.162 726.577 194.021 726.818 193.027C727.06 192.028 727.41 191.187 727.869 190.506C728.329 189.819 728.883 189.298 729.531 188.943C730.185 188.588 730.921 188.41 731.74 188.41C732.555 188.41 733.279 188.574 733.914 188.9C734.553 189.222 735.074 189.672 735.476 190.25C735.878 190.827 736.139 191.493 736.257 192.246H734.524C734.363 191.592 734.051 191.05 733.587 190.619C733.123 190.188 732.507 189.973 731.74 189.973C730.613 189.973 729.726 190.463 729.077 191.443C728.433 192.423 728.109 193.799 728.104 195.569H728.218C728.483 195.167 728.798 194.824 729.162 194.54C729.531 194.251 729.939 194.028 730.384 193.872C730.829 193.716 731.3 193.638 731.797 193.638C732.63 193.638 733.393 193.846 734.084 194.263C734.775 194.675 735.329 195.245 735.746 195.974C736.163 196.699 736.371 197.53 736.371 198.467C736.371 199.367 736.17 200.191 735.767 200.939C735.365 201.682 734.799 202.274 734.07 202.714C733.345 203.15 732.493 203.363 731.513 203.354ZM731.513 201.791C732.11 201.791 732.645 201.642 733.118 201.344C733.596 201.045 733.973 200.645 734.247 200.143C734.527 199.641 734.666 199.083 734.666 198.467C734.666 197.866 734.531 197.319 734.262 196.827C733.996 196.329 733.629 195.934 733.161 195.64C732.697 195.347 732.166 195.2 731.57 195.2C731.12 195.2 730.701 195.29 730.313 195.47C729.924 195.645 729.584 195.887 729.29 196.194C729.001 196.502 728.774 196.855 728.608 197.253C728.442 197.646 728.36 198.06 728.36 198.496C728.36 199.073 728.494 199.613 728.764 200.115C729.039 200.617 729.413 201.022 729.887 201.329C730.365 201.637 730.907 201.791 731.513 201.791ZM747.715 200.541L739.704 192.53L740.783 191.45L748.795 199.461L747.715 200.541ZM740.783 200.541L739.704 199.461L747.715 191.45L748.795 192.53L740.783 200.541ZM757.461 188.609V203.155H755.7V190.456H755.615L752.063 192.814V191.024L755.7 188.609H757.461ZM766.474 203.354C765.877 203.344 765.281 203.23 764.684 203.013C764.088 202.795 763.543 202.428 763.051 201.912C762.558 201.391 762.163 200.688 761.865 199.802C761.566 198.912 761.417 197.795 761.417 196.45C761.417 195.162 761.538 194.021 761.779 193.027C762.021 192.028 762.371 191.187 762.83 190.506C763.29 189.819 763.844 189.298 764.492 188.943C765.146 188.588 765.882 188.41 766.701 188.41C767.516 188.41 768.24 188.574 768.874 188.9C769.514 189.222 770.035 189.672 770.437 190.25C770.839 190.827 771.1 191.493 771.218 192.246H769.485C769.324 191.592 769.012 191.05 768.548 190.619C768.084 190.188 767.468 189.973 766.701 189.973C765.574 189.973 764.686 190.463 764.038 191.443C763.394 192.423 763.07 193.799 763.065 195.569H763.178C763.444 195.167 763.758 194.824 764.123 194.54C764.492 194.251 764.9 194.028 765.345 193.872C765.79 193.716 766.261 193.638 766.758 193.638C767.591 193.638 768.354 193.846 769.045 194.263C769.736 194.675 770.29 195.245 770.707 195.974C771.124 196.699 771.332 197.53 771.332 198.467C771.332 199.367 771.131 200.191 770.728 200.939C770.326 201.682 769.76 202.274 769.031 202.714C768.306 203.15 767.454 203.363 766.474 203.354ZM766.474 201.791C767.07 201.791 767.606 201.642 768.079 201.344C768.557 201.045 768.934 200.645 769.208 200.143C769.488 199.641 769.627 199.083 769.627 198.467C769.627 197.866 769.492 197.319 769.222 196.827C768.957 196.329 768.59 195.934 768.122 195.64C767.658 195.347 767.127 195.2 766.531 195.2C766.081 195.2 765.662 195.29 765.274 195.47C764.885 195.645 764.544 195.887 764.251 196.194C763.962 196.502 763.735 196.855 763.569 197.253C763.403 197.646 763.32 198.06 763.32 198.496C763.32 199.073 763.455 199.613 763.725 200.115C764 200.617 764.374 201.022 764.847 201.329C765.326 201.637 765.868 201.791 766.474 201.791Z" fill="#058CD7"/>
<rect x="854.75" y="134.405" width="36.5" height="36.5" stroke="#058CD7" stroke-width="1.5"/>
<path d="M873.002 140.723C874.774 139.166 877.082 138.36 879.438 138.475C881.794 138.59 884.013 139.617 885.625 141.339C887.237 143.06 888.116 145.341 888.077 147.7C888.037 150.058 887.082 152.308 885.413 153.975L877.794 161.594L873.001 166.385L862.384 155.77L860.59 153.973C858.926 152.306 857.975 150.057 857.938 147.701C857.9 145.346 858.78 143.068 860.39 141.349C862 139.629 864.216 138.603 866.569 138.486C868.922 138.369 871.228 139.171 873.001 140.723H873.002ZM877.793 157.472L883.35 151.913C883.923 151.34 884.377 150.66 884.687 149.912C884.997 149.164 885.157 148.362 885.157 147.552C885.157 146.742 884.997 145.94 884.687 145.192C884.377 144.444 883.923 143.764 883.35 143.192C882.778 142.619 882.098 142.165 881.35 141.855C880.602 141.545 879.8 141.386 878.99 141.386C878.18 141.386 877.378 141.545 876.63 141.855C875.882 142.165 875.202 142.619 874.63 143.192L873.001 144.819L871.372 143.19C870.215 142.034 868.647 141.384 867.011 141.384C865.376 141.384 863.807 142.034 862.651 143.19C861.494 144.347 860.845 145.915 860.845 147.551C860.845 149.186 861.494 150.755 862.651 151.911L864.448 153.708L873.001 162.261L877.791 157.47L877.793 157.472Z" fill="#0A2832"/>
<path d="M851.621 188.609V203.155H849.86V190.456H849.775L846.224 192.814V191.024L849.86 188.609H851.621ZM855.805 203.155V201.876L860.606 196.621C861.169 196.005 861.633 195.47 861.998 195.015C862.362 194.556 862.632 194.125 862.807 193.723C862.987 193.316 863.077 192.89 863.077 192.444C863.077 191.933 862.954 191.49 862.708 191.116C862.466 190.742 862.135 190.453 861.714 190.25C861.292 190.046 860.819 189.944 860.293 189.944C859.734 189.944 859.247 190.06 858.83 190.292C858.418 190.52 858.099 190.839 857.871 191.251C857.649 191.663 857.537 192.146 857.537 192.7H855.861C855.861 191.848 856.058 191.1 856.451 190.456C856.844 189.812 857.379 189.31 858.056 188.95C858.738 188.59 859.502 188.41 860.35 188.41C861.202 188.41 861.957 188.59 862.616 188.95C863.274 189.31 863.79 189.795 864.164 190.406C864.538 191.017 864.725 191.696 864.725 192.444C864.725 192.979 864.628 193.503 864.434 194.014C864.244 194.521 863.913 195.086 863.439 195.711C862.971 196.332 862.32 197.089 861.486 197.984L858.219 201.479V201.592H864.981V203.155H855.805ZM876.465 200.541L868.454 192.53L869.533 191.45L877.545 199.461L876.465 200.541ZM869.533 200.541L868.454 199.461L876.465 191.45L877.545 192.53L869.533 200.541ZM886.211 188.609V203.155H884.45V190.456H884.365L880.813 192.814V191.024L884.45 188.609H886.211ZM890.394 203.155V201.876L895.195 196.621C895.759 196.005 896.223 195.47 896.588 195.015C896.952 194.556 897.222 194.125 897.397 193.723C897.577 193.316 897.667 192.89 897.667 192.444C897.667 191.933 897.544 191.49 897.298 191.116C897.056 190.742 896.725 190.453 896.303 190.25C895.882 190.046 895.409 189.944 894.883 189.944C894.324 189.944 893.837 190.06 893.42 190.292C893.008 190.52 892.688 190.839 892.461 191.251C892.239 191.663 892.127 192.146 892.127 192.7H890.451C890.451 191.848 890.648 191.1 891.041 190.456C891.434 189.812 891.969 189.31 892.646 188.95C893.328 188.59 894.092 188.41 894.94 188.41C895.792 188.41 896.547 188.59 897.205 188.95C897.864 189.31 898.38 189.795 898.754 190.406C899.128 191.017 899.315 191.696 899.315 192.444C899.315 192.979 899.218 193.503 899.024 194.014C898.834 194.521 898.503 195.086 898.029 195.711C897.561 196.332 896.91 197.089 896.076 197.984L892.809 201.479V201.592H899.57V203.155H890.394Z" fill="#058CD7"/>
</svg>
