<svg width="552" height="551" viewBox="0 0 552 551" fill="none" xmlns="http://www.w3.org/2000/svg">
<rect width="552" height="550.648" fill="white"/>
<rect width="53.2886" height="550.648" fill="#FFEFE9"/>
<rect x="71.2441" width="53.2886" height="550.648" fill="#FFEFE9"/>
<rect x="142.489" width="53.2886" height="550.648" fill="#FFEFE9"/>
<rect x="213.733" width="53.2886" height="550.648" fill="#FFEFE9"/>
<rect x="284.978" width="53.2886" height="550.648" fill="#FFEFE9"/>
<rect x="356.223" width="53.2886" height="550.648" fill="#FFEFE9"/>
<rect x="427.467" width="53.2886" height="550.648" fill="#FFEFE9"/>
<rect x="498.712" width="53.2886" height="550.648" fill="#FFEFE9"/>
<rect x="71.8242" y="70.8262" width="408.996" height="408.996" fill="white"/>
<rect opacity="0.5" x="71.8242" y="70.8262" width="23.9412" height="408.996" fill="#8ECBB0"/>
<rect opacity="0.5" x="456.879" y="70.8262" width="23.9412" height="408.996" fill="#8ECBB0"/>
<rect opacity="0.5" x="480.82" y="70.8262" width="23.9412" height="408.996" transform="rotate(90 480.82 70.8262)" fill="#8ECBB0"/>
<rect opacity="0.5" x="480.82" y="455.881" width="23.9412" height="408.996" transform="rotate(90 480.82 455.881)" fill="#8ECBB0"/>
<rect x="95.7656" y="94.7676" width="76.9563" height="361.114" fill="#B4DDF3"/>
<rect x="190.484" y="94.7676" width="76.9563" height="361.114" fill="#B4DDF3"/>
<rect x="285.204" y="94.7676" width="76.9563" height="361.114" fill="#B4DDF3"/>
<rect x="379.923" y="94.7676" width="76.9563" height="361.114" fill="#B4DDF3"/>
<path d="M80.2019 39.0555C79.6408 39.0555 79.1406 38.9592 78.7013 38.7665C78.2649 38.5738 77.9177 38.306 77.6599 37.9631C77.4048 37.6173 77.2659 37.2163 77.2433 36.76H78.3145C78.3372 37.0406 78.4335 37.2829 78.6036 37.487C78.7736 37.6882 78.9961 37.844 79.271 37.9546C79.5458 38.0651 79.8505 38.1203 80.1849 38.1203C80.559 38.1203 80.8906 38.0552 81.1796 37.9248C81.4687 37.7944 81.6954 37.6131 81.8598 37.3807C82.0241 37.1483 82.1063 36.8791 82.1063 36.573C82.1063 36.2528 82.027 35.9708 81.8683 35.7271C81.7096 35.4805 81.4772 35.2878 81.1711 35.1489C80.8651 35.0101 80.491 34.9406 80.0489 34.9406H79.3517V34.0054H80.0489C80.3946 34.0054 80.6979 33.9431 80.9586 33.8184C81.2221 33.6937 81.4276 33.518 81.575 33.2913C81.7252 33.0646 81.8003 32.7982 81.8003 32.4921C81.8003 32.1974 81.7351 31.9409 81.6047 31.7227C81.4744 31.5045 81.2901 31.3344 81.0521 31.2126C80.8169 31.0907 80.5391 31.0298 80.2189 31.0298C79.9185 31.0298 79.6351 31.0851 79.3687 31.1956C79.1052 31.3033 78.8898 31.4606 78.7226 31.6674C78.5554 31.8715 78.4647 32.118 78.4505 32.4071H77.4303C77.4473 31.9508 77.5848 31.5512 77.8426 31.2083C78.1005 30.8626 78.4378 30.5934 78.8544 30.4007C79.2738 30.2079 79.7343 30.1116 80.2359 30.1116C80.7744 30.1116 81.2363 30.2207 81.6217 30.4389C82.0071 30.6543 82.3033 30.9391 82.5102 31.2934C82.717 31.6476 82.8205 32.0302 82.8205 32.4411C82.8205 32.9314 82.6915 33.3494 82.4336 33.6951C82.1786 34.0409 81.8314 34.2803 81.3922 34.4135V34.4815C81.942 34.5722 82.3713 34.806 82.6802 35.183C82.9891 35.557 83.1436 36.0204 83.1436 36.573C83.1436 37.0463 83.0146 37.4714 82.7567 37.8483C82.5017 38.2224 82.1531 38.5171 81.711 38.7325C81.2689 38.9479 80.7659 39.0555 80.2019 39.0555ZM84.8822 38.9365V38.1714L87.7558 35.0257C88.0931 34.6573 88.3708 34.337 88.589 34.065C88.8072 33.7901 88.9687 33.5322 89.0736 33.2913C89.1813 33.0476 89.2351 32.7925 89.2351 32.5261C89.2351 32.2201 89.1615 31.9551 89.0141 31.7312C88.8696 31.5073 88.6712 31.3344 88.419 31.2126C88.1667 31.0907 87.8833 31.0298 87.5688 31.0298C87.2344 31.0298 86.9425 31.0992 86.6931 31.2381C86.4465 31.3741 86.2552 31.5654 86.1192 31.812C85.986 32.0585 85.9194 32.3476 85.9194 32.6792H84.9162C84.9162 32.169 85.0338 31.7213 85.269 31.3359C85.5042 30.9504 85.8245 30.65 86.2297 30.4347C86.6378 30.2193 87.0955 30.1116 87.6028 30.1116C88.1129 30.1116 88.5649 30.2193 88.9588 30.4347C89.3527 30.65 89.6616 30.9405 89.8855 31.3061C90.1094 31.6717 90.2214 32.0784 90.2214 32.5261C90.2214 32.8464 90.1633 33.1595 90.0471 33.4656C89.9337 33.7688 89.7353 34.1075 89.4519 34.4815C89.1714 34.8528 88.7817 35.3062 88.2829 35.8418L86.3275 37.9333V38.0013H90.3744V38.9365H84.8822Z" fill="#37464B"/>
<path d="M71.9336 48.9243L96.1389 48.9243" stroke="#37464B" stroke-width="0.997552"/>
<line x1="96.1531" y1="43.9365" x2="96.1531" y2="62.89" stroke="#37464B" stroke-width="0.997552"/>
<line x1="71.948" y1="43.9365" x2="71.948" y2="62.89" stroke="#37464B" stroke-width="0.997552"/>
<path d="M465.258 519.875C464.696 519.875 464.196 519.779 463.757 519.586C463.321 519.394 462.973 519.126 462.716 518.783C462.46 518.437 462.322 518.036 462.299 517.58H463.37C463.393 517.86 463.489 518.103 463.659 518.307C463.829 518.508 464.052 518.664 464.327 518.774C464.602 518.885 464.906 518.94 465.241 518.94C465.615 518.94 465.946 518.875 466.235 518.745C466.524 518.614 466.751 518.433 466.915 518.201C467.08 517.968 467.162 517.699 467.162 517.393C467.162 517.073 467.083 516.791 466.924 516.547C466.765 516.3 466.533 516.108 466.227 515.969C465.921 515.83 465.547 515.76 465.105 515.76H464.407V514.825H465.105C465.45 514.825 465.754 514.763 466.014 514.638C466.278 514.514 466.483 514.338 466.631 514.111C466.781 513.884 466.856 513.618 466.856 513.312C466.856 513.017 466.791 512.761 466.66 512.543C466.53 512.324 466.346 512.154 466.108 512.032C465.873 511.911 465.595 511.85 465.275 511.85C464.974 511.85 464.691 511.905 464.424 512.015C464.161 512.123 463.945 512.28 463.778 512.487C463.611 512.691 463.52 512.938 463.506 513.227H462.486C462.503 512.771 462.64 512.371 462.898 512.028C463.156 511.682 463.493 511.413 463.91 511.22C464.329 511.028 464.79 510.931 465.292 510.931C465.83 510.931 466.292 511.041 466.677 511.259C467.063 511.474 467.359 511.759 467.566 512.113C467.773 512.467 467.876 512.85 467.876 513.261C467.876 513.751 467.747 514.169 467.489 514.515C467.234 514.861 466.887 515.1 466.448 515.233V515.301C466.998 515.392 467.427 515.626 467.736 516.003C468.045 516.377 468.199 516.84 468.199 517.393C468.199 517.866 468.07 518.291 467.812 518.668C467.557 519.042 467.209 519.337 466.767 519.552C466.325 519.768 465.822 519.875 465.258 519.875ZM469.938 519.756V518.991L472.811 515.845C473.149 515.477 473.426 515.157 473.645 514.885C473.863 514.61 474.024 514.352 474.129 514.111C474.237 513.867 474.291 513.612 474.291 513.346C474.291 513.04 474.217 512.775 474.07 512.551C473.925 512.327 473.727 512.154 473.475 512.032C473.222 511.911 472.939 511.85 472.624 511.85C472.29 511.85 471.998 511.919 471.749 512.058C471.502 512.194 471.311 512.385 471.175 512.632C471.042 512.878 470.975 513.167 470.975 513.499H469.972C469.972 512.989 470.089 512.541 470.325 512.156C470.56 511.77 470.88 511.47 471.285 511.254C471.693 511.039 472.151 510.931 472.658 510.931C473.169 510.931 473.621 511.039 474.014 511.254C474.408 511.47 474.717 511.76 474.941 512.126C475.165 512.492 475.277 512.898 475.277 513.346C475.277 513.666 475.219 513.979 475.103 514.285C474.989 514.589 474.791 514.927 474.508 515.301C474.227 515.673 473.837 516.126 473.339 516.662L471.383 518.753V518.821H475.43V519.756H469.938Z" fill="#37464B"/>
<path d="M480.71 501.769L456.505 501.769" stroke="#37464B" stroke-width="0.997552"/>
<line x1="456.49" y1="506.756" x2="456.49" y2="487.803" stroke="#37464B" stroke-width="0.997552"/>
<line x1="480.696" y1="506.756" x2="480.696" y2="487.803" stroke="#37464B" stroke-width="0.997552"/>
<path d="M269.852 38.9365V38.1714L272.726 35.0257C273.063 34.6573 273.341 34.337 273.559 34.065C273.777 33.7901 273.938 33.5322 274.043 33.2913C274.151 33.0476 274.205 32.7925 274.205 32.5261C274.205 32.2201 274.131 31.9551 273.984 31.7312C273.839 31.5073 273.641 31.3344 273.389 31.2126C273.136 31.0907 272.853 31.0298 272.538 31.0298C272.204 31.0298 271.912 31.0992 271.663 31.2381C271.416 31.3741 271.225 31.5654 271.089 31.812C270.956 32.0585 270.889 32.3476 270.889 32.6792H269.886C269.886 32.169 270.004 31.7213 270.239 31.3359C270.474 30.9504 270.794 30.65 271.199 30.4347C271.608 30.2193 272.065 30.1116 272.573 30.1116C273.083 30.1116 273.535 30.2193 273.929 30.4347C274.322 30.65 274.631 30.9405 274.855 31.3061C275.079 31.6717 275.191 32.0784 275.191 32.5261C275.191 32.8464 275.133 33.1595 275.017 33.4656C274.903 33.7688 274.705 34.1075 274.422 34.4815C274.141 34.8528 273.751 35.3062 273.253 35.8418L271.297 37.9333V38.0013H275.344V38.9365H269.852ZM276.709 37.1511V36.2839L280.534 30.2306H281.164V31.5739H280.739L277.848 36.1479V36.2159H283V37.1511H276.709ZM280.807 38.9365V36.8876V36.4837V30.2306H281.81V38.9365H280.807Z" fill="#37464B"/>
<path d="M266.718 48.8804L285.3 48.8804" stroke="#37464B" stroke-width="0.997552"/>
<line x1="285.426" y1="43.8926" x2="285.426" y2="62.8461" stroke="#37464B" stroke-width="0.997552"/>
<line x1="266.844" y1="43.8926" x2="266.844" y2="62.8461" stroke="#37464B" stroke-width="0.997552"/>
<path d="M33.8347 86.9159C33.2736 86.9159 32.7734 86.8195 32.3341 86.6268C31.8977 86.4341 31.5506 86.1663 31.2927 85.8234C31.0376 85.4777 30.8987 85.0767 30.8761 84.6204H31.9473C31.97 84.901 32.0663 85.1433 32.2364 85.3473C32.4064 85.5485 32.6289 85.7044 32.9038 85.8149C33.1787 85.9254 33.4833 85.9807 33.8177 85.9807C34.1918 85.9807 34.5234 85.9155 34.8124 85.7852C35.1015 85.6548 35.3282 85.4734 35.4926 85.241C35.657 85.0087 35.7391 84.7394 35.7391 84.4334C35.7391 84.1131 35.6598 83.8311 35.5011 83.5874C35.3424 83.3409 35.11 83.1482 34.8039 83.0093C34.4979 82.8704 34.1238 82.801 33.6817 82.801H32.9845V81.8658H33.6817C34.0274 81.8658 34.3307 81.8034 34.5914 81.6788C34.8549 81.5541 35.0604 81.3784 35.2078 81.1516C35.358 80.9249 35.4331 80.6585 35.4331 80.3525C35.4331 80.0577 35.3679 79.8013 35.2375 79.583C35.1072 79.3648 34.923 79.1948 34.6849 79.0729C34.4497 78.9511 34.172 78.8901 33.8517 78.8901C33.5513 78.8901 33.2679 78.9454 33.0015 79.0559C32.738 79.1636 32.5226 79.3209 32.3554 79.5278C32.1882 79.7318 32.0975 79.9784 32.0833 80.2674H31.0631C31.0801 79.8112 31.2176 79.4116 31.4755 79.0687C31.7333 78.7229 32.0706 78.4537 32.4872 78.261C32.9066 78.0683 33.3671 77.9719 33.8687 77.9719C34.4072 77.9719 34.8691 78.0811 35.2545 78.2993C35.64 78.5146 35.9361 78.7995 36.143 79.1537C36.3499 79.5079 36.4533 79.8905 36.4533 80.3015C36.4533 80.7917 36.3243 81.2097 36.0665 81.5555C35.8114 81.9012 35.4642 82.1407 35.025 82.2739V82.3419C35.5748 82.4326 36.0041 82.6664 36.313 83.0433C36.6219 83.4174 36.7764 83.8807 36.7764 84.4334C36.7764 84.9066 36.6474 85.3317 36.3895 85.7086C36.1345 86.0827 35.7859 86.3774 35.3438 86.5928C34.9017 86.8082 34.3987 86.9159 33.8347 86.9159ZM38.515 86.7969V86.0317L41.3886 82.886C41.7259 82.5176 42.0036 82.1974 42.2218 81.9253C42.44 81.6504 42.6016 81.3925 42.7064 81.1516C42.8141 80.9079 42.8679 80.6529 42.8679 80.3865C42.8679 80.0804 42.7943 79.8154 42.6469 79.5915C42.5024 79.3677 42.304 79.1948 42.0518 79.0729C41.7995 78.9511 41.5162 78.8901 41.2016 78.8901C40.8672 78.8901 40.5753 78.9596 40.3259 79.0984C40.0793 79.2345 39.888 79.4258 39.752 79.6723C39.6188 79.9189 39.5522 80.2079 39.5522 80.5395H38.549C38.549 80.0294 38.6666 79.5816 38.9018 79.1962C39.137 78.8108 39.4573 78.5104 39.8625 78.295C40.2706 78.0796 40.7283 77.9719 41.2356 77.9719C41.7457 77.9719 42.1977 78.0796 42.5916 78.295C42.9856 78.5104 43.2945 78.8009 43.5183 79.1665C43.7422 79.532 43.8542 79.9387 43.8542 80.3865C43.8542 80.7067 43.7961 81.0199 43.6799 81.3259C43.5665 81.6292 43.3681 81.9678 43.0847 82.3419C42.8042 82.7131 42.4145 83.1666 41.9157 83.7022L39.9603 85.7937V85.8617H44.0072V86.7969H38.515Z" fill="#37464B"/>
<path d="M49.915 94.0762L49.915 71.0571" stroke="#37464B" stroke-width="0.997552"/>
<line x1="44.9268" y1="71.0188" x2="63.8802" y2="71.0188" stroke="#37464B" stroke-width="0.997552"/>
<line x1="44.9268" y1="94.0378" x2="63.8802" y2="94.0378" stroke="#37464B" stroke-width="0.997552"/>
<path d="M511.662 471.971C511.101 471.971 510.601 471.874 510.161 471.682C509.725 471.489 509.378 471.221 509.12 470.878C508.865 470.532 508.726 470.131 508.703 469.675H509.774C509.797 469.956 509.893 470.198 510.064 470.402C510.234 470.603 510.456 470.759 510.731 470.87C511.006 470.98 511.31 471.035 511.645 471.035C512.019 471.035 512.351 470.97 512.64 470.84C512.929 470.709 513.155 470.528 513.32 470.296C513.484 470.063 513.566 469.794 513.566 469.488C513.566 469.168 513.487 468.886 513.328 468.642C513.17 468.396 512.937 468.203 512.631 468.064C512.325 467.925 511.951 467.856 511.509 467.856H510.812V466.92H511.509C511.855 466.92 512.158 466.858 512.419 466.733C512.682 466.609 512.888 466.433 513.035 466.206C513.185 465.98 513.26 465.713 513.26 465.407C513.26 465.112 513.195 464.856 513.065 464.638C512.934 464.42 512.75 464.249 512.512 464.128C512.277 464.006 511.999 463.945 511.679 463.945C511.378 463.945 511.095 464 510.829 464.111C510.565 464.218 510.35 464.376 510.183 464.582C510.015 464.787 509.925 465.033 509.91 465.322H508.89C508.907 464.866 509.045 464.466 509.303 464.123C509.56 463.778 509.898 463.508 510.314 463.316C510.734 463.123 511.194 463.027 511.696 463.027C512.234 463.027 512.696 463.136 513.082 463.354C513.467 463.569 513.763 463.854 513.97 464.208C514.177 464.563 514.28 464.945 514.28 465.356C514.28 465.846 514.151 466.264 513.894 466.61C513.639 466.956 513.291 467.195 512.852 467.329V467.397C513.402 467.487 513.831 467.721 514.14 468.098C514.449 468.472 514.604 468.935 514.604 469.488C514.604 469.961 514.475 470.386 514.217 470.763C513.962 471.137 513.613 471.432 513.171 471.648C512.729 471.863 512.226 471.971 511.662 471.971ZM516.342 471.852V471.086L519.216 467.941C519.553 467.572 519.831 467.252 520.049 466.98C520.267 466.705 520.429 466.447 520.534 466.206C520.641 465.963 520.695 465.708 520.695 465.441C520.695 465.135 520.621 464.87 520.474 464.646C520.33 464.422 520.131 464.249 519.879 464.128C519.627 464.006 519.343 463.945 519.029 463.945C518.694 463.945 518.402 464.014 518.153 464.153C517.906 464.289 517.715 464.48 517.579 464.727C517.446 464.974 517.379 465.263 517.379 465.594H516.376C516.376 465.084 516.494 464.636 516.729 464.251C516.964 463.865 517.284 463.565 517.69 463.35C518.098 463.134 518.555 463.027 519.063 463.027C519.573 463.027 520.025 463.134 520.419 463.35C520.813 463.565 521.122 463.856 521.345 464.221C521.569 464.587 521.681 464.993 521.681 465.441C521.681 465.761 521.623 466.075 521.507 466.381C521.394 466.684 521.195 467.023 520.912 467.397C520.631 467.768 520.242 468.221 519.743 468.757L517.787 470.848V470.916H521.834V471.852H516.342Z" fill="#37464B"/>
<path d="M502.766 456.572L502.766 479.591" stroke="#37464B" stroke-width="0.997552"/>
<line x1="507.754" y1="479.63" x2="488.8" y2="479.63" stroke="#37464B" stroke-width="0.997552"/>
<line x1="507.754" y1="456.611" x2="488.8" y2="456.611" stroke="#37464B" stroke-width="0.997552"/>
</svg>
