<svg width="1128" height="552" viewBox="0 0 1128 552" fill="none" xmlns="http://www.w3.org/2000/svg">
<rect width="1128" height="552" fill="#F2F6F9"/>
<path d="M103.943 67.5455V85H101.83V69.7614H101.727L97.4659 72.5909V70.4432L101.83 67.5455H103.943ZM108.963 85V83.4659L114.724 77.1591C115.401 76.4205 115.957 75.7784 116.395 75.233C116.832 74.6818 117.156 74.1648 117.366 73.6818C117.582 73.1932 117.69 72.6818 117.69 72.1477C117.69 71.5341 117.543 71.0028 117.247 70.554C116.957 70.1051 116.56 69.7585 116.054 69.5142C115.548 69.2699 114.98 69.1477 114.349 69.1477C113.679 69.1477 113.094 69.2869 112.594 69.5653C112.099 69.8381 111.716 70.2216 111.443 70.7159C111.176 71.2102 111.043 71.7898 111.043 72.4545H109.031C109.031 71.4318 109.267 70.5341 109.739 69.7614C110.21 68.9886 110.852 68.3864 111.665 67.9545C112.483 67.5227 113.401 67.3068 114.418 67.3068C115.44 67.3068 116.347 67.5227 117.136 67.9545C117.926 68.3864 118.545 68.9687 118.994 69.7017C119.443 70.4347 119.668 71.25 119.668 72.1477C119.668 72.7898 119.551 73.4176 119.318 74.0312C119.091 74.6392 118.693 75.3182 118.125 76.0682C117.562 76.8125 116.781 77.7216 115.781 78.7955L111.861 82.9886V83.125H119.974V85H108.963ZM130.278 85V71.9091H132.29V77.6023H133.619L138.324 71.9091H140.915L135.631 78.2159L140.983 85H138.392L134.097 79.4773H132.29V85H130.278ZM147.948 85.2727C146.766 85.2727 145.729 84.9915 144.837 84.429C143.951 83.8665 143.258 83.0795 142.758 82.0682C142.263 81.0568 142.016 79.875 142.016 78.5227C142.016 77.1591 142.263 75.9687 142.758 74.9517C143.258 73.9347 143.951 73.1449 144.837 72.5824C145.729 72.0199 146.766 71.7386 147.948 71.7386C149.13 71.7386 150.164 72.0199 151.05 72.5824C151.942 73.1449 152.636 73.9347 153.13 74.9517C153.63 75.9687 153.88 77.1591 153.88 78.5227C153.88 79.875 153.63 81.0568 153.13 82.0682C152.636 83.0795 151.942 83.8665 151.05 84.429C150.164 84.9915 149.13 85.2727 147.948 85.2727ZM147.948 83.4659C148.846 83.4659 149.585 83.2358 150.164 82.7756C150.744 82.3153 151.173 81.7102 151.451 80.9602C151.729 80.2102 151.869 79.3977 151.869 78.5227C151.869 77.6477 151.729 76.8324 151.451 76.0767C151.173 75.321 150.744 74.7102 150.164 74.2443C149.585 73.7784 148.846 73.5455 147.948 73.5455C147.05 73.5455 146.312 73.7784 145.732 74.2443C145.153 74.7102 144.724 75.321 144.445 76.0767C144.167 76.8324 144.028 77.6477 144.028 78.5227C144.028 79.3977 144.167 80.2102 144.445 80.9602C144.724 81.7102 145.153 82.3153 145.732 82.7756C146.312 83.2358 147.05 83.4659 147.948 83.4659ZM155.791 85V83.125H156.268C156.661 83.125 156.987 83.0483 157.249 82.8949C157.51 82.7358 157.72 82.4602 157.879 82.0682C158.044 81.6705 158.169 81.1193 158.254 80.4148C158.345 79.7045 158.411 78.8011 158.45 77.7045L158.689 71.9091H167.416V85H165.405V73.7841H160.598L160.393 78.4545C160.348 79.5284 160.251 80.4744 160.104 81.2926C159.962 82.1051 159.743 82.7869 159.447 83.3381C159.158 83.8892 158.771 84.304 158.288 84.5824C157.805 84.8608 157.2 85 156.473 85H155.791ZM176.425 85.2727C175.243 85.2727 174.206 84.9915 173.314 84.429C172.428 83.8665 171.734 83.0795 171.234 82.0682C170.74 81.0568 170.493 79.875 170.493 78.5227C170.493 77.1591 170.74 75.9687 171.234 74.9517C171.734 73.9347 172.428 73.1449 173.314 72.5824C174.206 72.0199 175.243 71.7386 176.425 71.7386C177.607 71.7386 178.641 72.0199 179.527 72.5824C180.419 73.1449 181.112 73.9347 181.607 74.9517C182.107 75.9687 182.357 77.1591 182.357 78.5227C182.357 79.875 182.107 81.0568 181.607 82.0682C181.112 83.0795 180.419 83.8665 179.527 84.429C178.641 84.9915 177.607 85.2727 176.425 85.2727ZM176.425 83.4659C177.322 83.4659 178.061 83.2358 178.641 82.7756C179.22 82.3153 179.649 81.7102 179.928 80.9602C180.206 80.2102 180.345 79.3977 180.345 78.5227C180.345 77.6477 180.206 76.8324 179.928 76.0767C179.649 75.321 179.22 74.7102 178.641 74.2443C178.061 73.7784 177.322 73.5455 176.425 73.5455C175.527 73.5455 174.788 73.7784 174.209 74.2443C173.629 74.7102 173.2 75.321 172.922 76.0767C172.643 76.8324 172.504 77.6477 172.504 78.5227C172.504 79.3977 172.643 80.2102 172.922 80.9602C173.2 81.7102 173.629 82.3153 174.209 82.7756C174.788 83.2358 175.527 83.4659 176.425 83.4659ZM194.188 77.5341V79.4091H186.961V77.5341H194.188ZM187.438 71.9091V85H185.427V71.9091H187.438ZM195.722 71.9091V85H193.711V71.9091H195.722ZM204.714 85.2727C203.532 85.2727 202.495 84.9915 201.603 84.429C200.717 83.8665 200.023 83.0795 199.523 82.0682C199.029 81.0568 198.782 79.875 198.782 78.5227C198.782 77.1591 199.029 75.9687 199.523 74.9517C200.023 73.9347 200.717 73.1449 201.603 72.5824C202.495 72.0199 203.532 71.7386 204.714 71.7386C205.896 71.7386 206.93 72.0199 207.816 72.5824C208.708 73.1449 209.401 73.9347 209.896 74.9517C210.396 75.9687 210.646 77.1591 210.646 78.5227C210.646 79.875 210.396 81.0568 209.896 82.0682C209.401 83.0795 208.708 83.8665 207.816 84.429C206.93 84.9915 205.896 85.2727 204.714 85.2727ZM204.714 83.4659C205.612 83.4659 206.35 83.2358 206.93 82.7756C207.509 82.3153 207.938 81.7102 208.217 80.9602C208.495 80.2102 208.634 79.3977 208.634 78.5227C208.634 77.6477 208.495 76.8324 208.217 76.0767C207.938 75.321 207.509 74.7102 206.93 74.2443C206.35 73.7784 205.612 73.5455 204.714 73.5455C203.816 73.5455 203.077 73.7784 202.498 74.2443C201.918 74.7102 201.489 75.321 201.211 76.0767C200.933 76.8324 200.793 77.6477 200.793 78.5227C200.793 79.3977 200.933 80.2102 201.211 80.9602C201.489 81.7102 201.918 82.3153 202.498 82.7756C203.077 83.2358 203.816 83.4659 204.714 83.4659ZM213.716 85V71.9091H215.727V77.6023H217.057L221.761 71.9091L224.352 71.9091L219.068 78.2159L224.42 85H221.83L217.534 79.4773L215.727 79.4773V85H213.716Z" fill="#058CD7"/>
<rect width="936" height="56" transform="translate(96 112)" fill="#B4DDF3"/>
<path d="M565.943 131.545V149H563.83V133.761H563.727L559.466 136.591V134.443L563.83 131.545H565.943Z" fill="#058CD7"/>
<rect width="458.043" height="56" transform="translate(96 188)" fill="#B4DDF3"/>
<path d="M315.465 207.545V225H313.351V209.761H313.249L308.987 212.591V210.443L313.351 207.545H315.465ZM326.689 206.727L321.064 227.625H319.223L324.848 206.727H326.689ZM329.039 225V223.466L334.801 217.159C335.477 216.42 336.034 215.778 336.471 215.233C336.909 214.682 337.232 214.165 337.443 213.682C337.659 213.193 337.767 212.682 337.767 212.148C337.767 211.534 337.619 211.003 337.323 210.554C337.034 210.105 336.636 209.759 336.13 209.514C335.624 209.27 335.056 209.148 334.426 209.148C333.755 209.148 333.17 209.287 332.67 209.565C332.176 209.838 331.792 210.222 331.519 210.716C331.252 211.21 331.119 211.79 331.119 212.455H329.107C329.107 211.432 329.343 210.534 329.815 209.761C330.286 208.989 330.928 208.386 331.741 207.955C332.559 207.523 333.477 207.307 334.494 207.307C335.517 207.307 336.423 207.523 337.213 207.955C338.002 208.386 338.622 208.969 339.07 209.702C339.519 210.435 339.744 211.25 339.744 212.148C339.744 212.79 339.627 213.418 339.394 214.031C339.167 214.639 338.769 215.318 338.201 216.068C337.639 216.812 336.857 217.722 335.857 218.795L331.937 222.989V223.125H340.051V225H329.039Z" fill="#058CD7"/>
<rect width="458.043" height="56" transform="translate(573.957 188)" fill="#B4DDF3"/>
<path d="M793.422 207.545V225H791.308V209.761H791.206L786.944 212.591V210.443L791.308 207.545H793.422ZM804.646 206.727L799.021 227.625H797.18L802.805 206.727H804.646ZM806.996 225V223.466L812.758 217.159C813.434 216.42 813.991 215.778 814.428 215.233C814.866 214.682 815.189 214.165 815.4 213.682C815.616 213.193 815.724 212.682 815.724 212.148C815.724 211.534 815.576 211.003 815.28 210.554C814.991 210.105 814.593 209.759 814.087 209.514C813.581 209.27 813.013 209.148 812.383 209.148C811.712 209.148 811.127 209.287 810.627 209.565C810.133 209.838 809.749 210.222 809.476 210.716C809.209 211.21 809.076 211.79 809.076 212.455H807.064C807.064 211.432 807.3 210.534 807.772 209.761C808.243 208.989 808.885 208.386 809.698 207.955C810.516 207.523 811.434 207.307 812.451 207.307C813.474 207.307 814.38 207.523 815.17 207.955C815.959 208.386 816.579 208.969 817.028 209.702C817.476 210.435 817.701 211.25 817.701 212.148C817.701 212.79 817.584 213.418 817.351 214.031C817.124 214.639 816.726 215.318 816.158 216.068C815.596 216.812 814.814 217.722 813.814 218.795L809.894 222.989V223.125H818.008V225H806.996Z" fill="#058CD7"/>
<rect width="298.723" height="56" transform="translate(96 264)" fill="#B4DDF3"/>
<path d="M235.805 283.545V301H233.691V285.761H233.589L229.327 288.591V286.443L233.691 283.545H235.805ZM247.029 282.727L241.404 303.625H239.563L245.188 282.727H247.029ZM255.277 301.239C254.152 301.239 253.149 301.045 252.268 300.659C251.393 300.273 250.697 299.736 250.18 299.048C249.669 298.355 249.39 297.551 249.345 296.636H251.493C251.538 297.199 251.731 297.685 252.072 298.094C252.413 298.497 252.859 298.81 253.41 299.031C253.961 299.253 254.572 299.364 255.243 299.364C255.993 299.364 256.657 299.233 257.237 298.972C257.817 298.71 258.271 298.347 258.601 297.881C258.93 297.415 259.095 296.875 259.095 296.261C259.095 295.619 258.936 295.054 258.618 294.565C258.3 294.071 257.834 293.685 257.22 293.406C256.606 293.128 255.856 292.989 254.97 292.989H253.572V291.114H254.97C255.663 291.114 256.271 290.989 256.794 290.739C257.322 290.489 257.734 290.136 258.03 289.682C258.331 289.227 258.481 288.693 258.481 288.08C258.481 287.489 258.351 286.974 258.089 286.537C257.828 286.099 257.459 285.759 256.981 285.514C256.51 285.27 255.953 285.148 255.311 285.148C254.709 285.148 254.14 285.259 253.606 285.48C253.078 285.696 252.646 286.011 252.311 286.426C251.976 286.835 251.794 287.33 251.765 287.909H249.72C249.754 286.994 250.03 286.193 250.547 285.506C251.064 284.812 251.74 284.273 252.575 283.886C253.416 283.5 254.339 283.307 255.345 283.307C256.425 283.307 257.351 283.526 258.123 283.963C258.896 284.395 259.49 284.966 259.905 285.676C260.319 286.386 260.527 287.153 260.527 287.977C260.527 288.96 260.268 289.798 259.751 290.491C259.24 291.185 258.544 291.665 257.663 291.932V292.068C258.765 292.25 259.626 292.719 260.246 293.474C260.865 294.224 261.175 295.153 261.175 296.261C261.175 297.21 260.916 298.062 260.399 298.818C259.888 299.568 259.189 300.159 258.302 300.591C257.416 301.023 256.407 301.239 255.277 301.239Z" fill="#058CD7"/>
<rect width="298.723" height="56" transform="translate(414.639 264)" fill="#B4DDF3"/>
<path d="M554.443 283.545V301H552.33V285.761H552.227L547.966 288.591V286.443L552.33 283.545H554.443ZM565.668 282.727L560.043 303.625H558.202L563.827 282.727H565.668ZM573.915 301.239C572.79 301.239 571.788 301.045 570.907 300.659C570.032 300.273 569.336 299.736 568.819 299.048C568.308 298.355 568.029 297.551 567.984 296.636H570.131C570.177 297.199 570.37 297.685 570.711 298.094C571.052 298.497 571.498 298.81 572.049 299.031C572.6 299.253 573.211 299.364 573.881 299.364C574.631 299.364 575.296 299.233 575.876 298.972C576.455 298.71 576.91 298.347 577.239 297.881C577.569 297.415 577.734 296.875 577.734 296.261C577.734 295.619 577.575 295.054 577.256 294.565C576.938 294.071 576.472 293.685 575.859 293.406C575.245 293.128 574.495 292.989 573.609 292.989H572.211V291.114H573.609C574.302 291.114 574.91 290.989 575.433 290.739C575.961 290.489 576.373 290.136 576.668 289.682C576.969 289.227 577.12 288.693 577.12 288.08C577.12 287.489 576.989 286.974 576.728 286.537C576.467 286.099 576.097 285.759 575.62 285.514C575.148 285.27 574.592 285.148 573.95 285.148C573.347 285.148 572.779 285.259 572.245 285.48C571.717 285.696 571.285 286.011 570.95 286.426C570.614 286.835 570.433 287.33 570.404 287.909H568.359C568.393 286.994 568.668 286.193 569.185 285.506C569.702 284.812 570.379 284.273 571.214 283.886C572.055 283.5 572.978 283.307 573.984 283.307C575.063 283.307 575.989 283.526 576.762 283.963C577.535 284.395 578.129 284.966 578.543 285.676C578.958 286.386 579.165 287.153 579.165 287.977C579.165 288.96 578.907 289.798 578.39 290.491C577.879 291.185 577.183 291.665 576.302 291.932V292.068C577.404 292.25 578.265 292.719 578.884 293.474C579.504 294.224 579.813 295.153 579.813 296.261C579.813 297.21 579.555 298.062 579.038 298.818C578.526 299.568 577.827 300.159 576.941 300.591C576.055 301.023 575.046 301.239 573.915 301.239Z" fill="#058CD7"/>
<rect width="298.723" height="56" transform="translate(733.276 264)" fill="#B4DDF3"/>
<path d="M873.081 283.545V301H870.967V285.761H870.865L866.604 288.591V286.443L870.967 283.545H873.081ZM884.305 282.727L878.68 303.625H876.839L882.464 282.727H884.305ZM892.553 301.239C891.428 301.239 890.425 301.045 889.545 300.659C888.67 300.273 887.974 299.736 887.457 299.048C886.945 298.355 886.667 297.551 886.621 296.636H888.769C888.815 297.199 889.008 297.685 889.349 298.094C889.69 298.497 890.136 298.81 890.687 299.031C891.238 299.253 891.849 299.364 892.519 299.364C893.269 299.364 893.934 299.233 894.513 298.972C895.093 298.71 895.547 298.347 895.877 297.881C896.207 297.415 896.371 296.875 896.371 296.261C896.371 295.619 896.212 295.054 895.894 294.565C895.576 294.071 895.11 293.685 894.496 293.406C893.883 293.128 893.133 292.989 892.246 292.989H890.849V291.114H892.246C892.94 291.114 893.547 290.989 894.07 290.739C894.599 290.489 895.011 290.136 895.306 289.682C895.607 289.227 895.758 288.693 895.758 288.08C895.758 287.489 895.627 286.974 895.366 286.537C895.104 286.099 894.735 285.759 894.258 285.514C893.786 285.27 893.229 285.148 892.587 285.148C891.985 285.148 891.417 285.259 890.883 285.48C890.354 285.696 889.922 286.011 889.587 286.426C889.252 286.835 889.07 287.33 889.042 287.909H886.996C887.03 286.994 887.306 286.193 887.823 285.506C888.34 284.812 889.016 284.273 889.851 283.886C890.692 283.5 891.616 283.307 892.621 283.307C893.701 283.307 894.627 283.526 895.4 283.963C896.172 284.395 896.766 284.966 897.181 285.676C897.596 286.386 897.803 287.153 897.803 287.977C897.803 288.96 897.545 289.798 897.028 290.491C896.516 291.185 895.82 291.665 894.94 291.932V292.068C896.042 292.25 896.903 292.719 897.522 293.474C898.141 294.224 898.451 295.153 898.451 296.261C898.451 297.21 898.192 298.062 897.675 298.818C897.164 299.568 896.465 300.159 895.579 300.591C894.692 301.023 893.684 301.239 892.553 301.239Z" fill="#058CD7"/>
<rect width="219.064" height="56" transform="translate(96 340)" fill="#B4DDF3"/>
<path d="M195.475 359.545V377H193.362V361.761H193.259L188.998 364.591V362.443L193.362 359.545H195.475ZM206.7 358.727L201.075 379.625H199.234L204.859 358.727H206.7ZM208.641 373.42V371.682L216.311 359.545H217.573V362.239H216.72L210.925 371.409V371.545H221.255V373.42H208.641ZM216.857 377V372.892V372.082V359.545H218.868V377H216.857Z" fill="#058CD7"/>
<rect width="219.064" height="56" transform="translate(334.979 340)" fill="#B4DDF3"/>
<path d="M434.454 359.545V377H432.34V361.761H432.238L427.977 364.591V362.443L432.34 359.545H434.454ZM445.678 358.727L440.053 379.625H438.212L443.837 358.727H445.678ZM447.619 373.42V371.682L455.29 359.545H456.551V362.239H455.699L449.903 371.409V371.545H460.233V373.42H447.619ZM455.835 377V372.892V372.082V359.545H457.847V377H455.835Z" fill="#058CD7"/>
<rect width="219.064" height="56" transform="translate(573.957 340)" fill="#B4DDF3"/>
<path d="M673.432 359.545V377H671.319V361.761H671.217L666.955 364.591V362.443L671.319 359.545H673.432ZM684.657 358.727L679.032 379.625H677.191L682.816 358.727H684.657ZM686.598 373.42V371.682L694.268 359.545H695.53V362.239H694.677L688.882 371.409V371.545H699.212V373.42H686.598ZM694.814 377V372.892V372.082V359.545H696.825V377H694.814Z" fill="#058CD7"/>
<rect width="219.064" height="56" transform="translate(812.937 340)" fill="#B4DDF3"/>
<path d="M912.412 359.545V377H910.298V361.761H910.196L905.935 364.591V362.443L910.298 359.545H912.412ZM923.636 358.727L918.011 379.625H916.17L921.795 358.727H923.636ZM925.577 373.42V371.682L933.248 359.545H934.509V362.239H933.657L927.862 371.409V371.545H938.191V373.42H925.577ZM933.793 377V372.892V372.082V359.545H935.805V377H933.793Z" fill="#058CD7"/>
<rect width="139.404" height="56" transform="translate(96 416)" fill="#B4DDF3"/>
<path d="M156.145 435.545V453H154.032V437.761H153.929L149.668 440.591V438.443L154.032 435.545H156.145ZM167.37 434.727L161.745 455.625H159.904L165.529 434.727H167.37ZM175.515 453.239C174.799 453.227 174.084 453.091 173.368 452.83C172.652 452.568 171.998 452.128 171.407 451.509C170.816 450.884 170.342 450.04 169.984 448.977C169.626 447.909 169.447 446.568 169.447 444.955C169.447 443.409 169.592 442.04 169.882 440.847C170.172 439.648 170.592 438.639 171.143 437.821C171.694 436.997 172.359 436.372 173.138 435.946C173.922 435.52 174.805 435.307 175.788 435.307C176.765 435.307 177.635 435.503 178.396 435.895C179.163 436.281 179.788 436.821 180.271 437.514C180.754 438.207 181.066 439.006 181.209 439.909H179.129C178.936 439.125 178.561 438.474 178.004 437.957C177.447 437.44 176.709 437.182 175.788 437.182C174.436 437.182 173.37 437.77 172.592 438.946C171.819 440.122 171.43 441.773 171.424 443.898H171.561C171.879 443.415 172.257 443.003 172.694 442.662C173.138 442.315 173.626 442.048 174.16 441.861C174.694 441.673 175.26 441.58 175.856 441.58C176.856 441.58 177.771 441.83 178.601 442.33C179.43 442.824 180.095 443.509 180.595 444.384C181.095 445.253 181.345 446.25 181.345 447.375C181.345 448.455 181.103 449.443 180.62 450.341C180.138 451.233 179.459 451.943 178.584 452.472C177.714 452.994 176.691 453.25 175.515 453.239ZM175.515 451.364C176.231 451.364 176.873 451.185 177.441 450.827C178.015 450.469 178.467 449.989 178.797 449.386C179.132 448.784 179.299 448.114 179.299 447.375C179.299 446.653 179.138 445.997 178.814 445.406C178.495 444.81 178.055 444.335 177.493 443.983C176.936 443.631 176.299 443.455 175.584 443.455C175.044 443.455 174.541 443.562 174.075 443.778C173.609 443.989 173.2 444.278 172.848 444.648C172.501 445.017 172.228 445.44 172.03 445.918C171.831 446.389 171.731 446.886 171.731 447.409C171.731 448.102 171.893 448.75 172.217 449.352C172.547 449.955 172.995 450.44 173.564 450.81C174.138 451.179 174.788 451.364 175.515 451.364Z" fill="#058CD7"/>
<rect width="139.404" height="56" transform="translate(255.319 416)" fill="#B4DDF3"/>
<path d="M315.465 435.545V453H313.351V437.761H313.249L308.987 440.591V438.443L313.351 435.545H315.465ZM326.689 434.727L321.064 455.625H319.223L324.848 434.727H326.689ZM334.835 453.239C334.119 453.227 333.403 453.091 332.687 452.83C331.971 452.568 331.318 452.128 330.727 451.509C330.136 450.884 329.661 450.04 329.303 448.977C328.945 447.909 328.767 446.568 328.767 444.955C328.767 443.409 328.911 442.04 329.201 440.847C329.491 439.648 329.911 438.639 330.463 437.821C331.014 436.997 331.678 436.372 332.457 435.946C333.241 435.52 334.124 435.307 335.107 435.307C336.085 435.307 336.954 435.503 337.715 435.895C338.482 436.281 339.107 436.821 339.59 437.514C340.073 438.207 340.386 439.006 340.528 439.909H338.448C338.255 439.125 337.88 438.474 337.323 437.957C336.767 437.44 336.028 437.182 335.107 437.182C333.755 437.182 332.69 437.77 331.911 438.946C331.139 440.122 330.749 441.773 330.744 443.898H330.88C331.198 443.415 331.576 443.003 332.014 442.662C332.457 442.315 332.945 442.048 333.48 441.861C334.014 441.673 334.579 441.58 335.176 441.58C336.176 441.58 337.09 441.83 337.92 442.33C338.749 442.824 339.414 443.509 339.914 444.384C340.414 445.253 340.664 446.25 340.664 447.375C340.664 448.455 340.423 449.443 339.94 450.341C339.457 451.233 338.778 451.943 337.903 452.472C337.034 452.994 336.011 453.25 334.835 453.239ZM334.835 451.364C335.551 451.364 336.193 451.185 336.761 450.827C337.335 450.469 337.786 449.989 338.116 449.386C338.451 448.784 338.619 448.114 338.619 447.375C338.619 446.653 338.457 445.997 338.133 445.406C337.815 444.81 337.374 444.335 336.812 443.983C336.255 443.631 335.619 443.455 334.903 443.455C334.363 443.455 333.86 443.562 333.394 443.778C332.928 443.989 332.519 444.278 332.167 444.648C331.82 445.017 331.548 445.44 331.349 445.918C331.15 446.389 331.051 446.886 331.051 447.409C331.051 448.102 331.213 448.75 331.536 449.352C331.866 449.955 332.315 450.44 332.883 450.81C333.457 451.179 334.107 451.364 334.835 451.364Z" fill="#058CD7"/>
<rect width="139.404" height="56" transform="translate(414.639 416)" fill="#B4DDF3"/>
<path d="M474.784 435.545V453H472.67V437.761H472.568L468.307 440.591V438.443L472.67 435.545H474.784ZM486.008 434.727L480.383 455.625H478.543L484.168 434.727H486.008ZM494.154 453.239C493.438 453.227 492.722 453.091 492.006 452.83C491.29 452.568 490.637 452.128 490.046 451.509C489.455 450.884 488.981 450.04 488.623 448.977C488.265 447.909 488.086 446.568 488.086 444.955C488.086 443.409 488.231 442.04 488.521 440.847C488.81 439.648 489.231 438.639 489.782 437.821C490.333 436.997 490.998 436.372 491.776 435.946C492.56 435.52 493.444 435.307 494.427 435.307C495.404 435.307 496.273 435.503 497.035 435.895C497.802 436.281 498.427 436.821 498.91 437.514C499.393 438.207 499.705 439.006 499.847 439.909H497.768C497.574 439.125 497.199 438.474 496.643 437.957C496.086 437.44 495.347 437.182 494.427 437.182C493.074 437.182 492.009 437.77 491.231 438.946C490.458 440.122 490.069 441.773 490.063 443.898H490.199C490.518 443.415 490.896 443.003 491.333 442.662C491.776 442.315 492.265 442.048 492.799 441.861C493.333 441.673 493.898 441.58 494.495 441.58C495.495 441.58 496.41 441.83 497.239 442.33C498.069 442.824 498.734 443.509 499.234 444.384C499.734 445.253 499.984 446.25 499.984 447.375C499.984 448.455 499.742 449.443 499.259 450.341C498.776 451.233 498.097 451.943 497.222 452.472C496.353 452.994 495.33 453.25 494.154 453.239ZM494.154 451.364C494.87 451.364 495.512 451.185 496.08 450.827C496.654 450.469 497.106 449.989 497.435 449.386C497.771 448.784 497.938 448.114 497.938 447.375C497.938 446.653 497.776 445.997 497.452 445.406C497.134 444.81 496.694 444.335 496.131 443.983C495.574 443.631 494.938 443.455 494.222 443.455C493.682 443.455 493.18 443.562 492.714 443.778C492.248 443.989 491.839 444.278 491.486 444.648C491.14 445.017 490.867 445.44 490.668 445.918C490.469 446.389 490.37 446.886 490.37 447.409C490.37 448.102 490.532 448.75 490.856 449.352C491.185 449.955 491.634 450.44 492.202 450.81C492.776 451.179 493.427 451.364 494.154 451.364Z" fill="#058CD7"/>
<rect width="139.404" height="56" transform="translate(573.957 416)" fill="#B4DDF3"/>
<path d="M634.102 435.545V453H631.989V437.761H631.886L627.625 440.591V438.443L631.989 435.545H634.102ZM645.327 434.727L639.702 455.625H637.861L643.486 434.727H645.327ZM653.472 453.239C652.756 453.227 652.041 453.091 651.325 452.83C650.609 452.568 649.955 452.128 649.364 451.509C648.774 450.884 648.299 450.04 647.941 448.977C647.583 447.909 647.404 446.568 647.404 444.955C647.404 443.409 647.549 442.04 647.839 440.847C648.129 439.648 648.549 438.639 649.1 437.821C649.651 436.997 650.316 436.372 651.095 435.946C651.879 435.52 652.762 435.307 653.745 435.307C654.722 435.307 655.592 435.503 656.353 435.895C657.12 436.281 657.745 436.821 658.228 437.514C658.711 438.207 659.024 439.006 659.166 439.909H657.086C656.893 439.125 656.518 438.474 655.961 437.957C655.404 437.44 654.666 437.182 653.745 437.182C652.393 437.182 651.328 437.77 650.549 438.946C649.776 440.122 649.387 441.773 649.381 443.898H649.518C649.836 443.415 650.214 443.003 650.651 442.662C651.095 442.315 651.583 442.048 652.117 441.861C652.651 441.673 653.217 441.58 653.813 441.58C654.813 441.58 655.728 441.83 656.558 442.33C657.387 442.824 658.052 443.509 658.552 444.384C659.052 445.253 659.302 446.25 659.302 447.375C659.302 448.455 659.06 449.443 658.578 450.341C658.095 451.233 657.416 451.943 656.541 452.472C655.671 452.994 654.649 453.25 653.472 453.239ZM653.472 451.364C654.188 451.364 654.83 451.185 655.399 450.827C655.972 450.469 656.424 449.989 656.754 449.386C657.089 448.784 657.256 448.114 657.256 447.375C657.256 446.653 657.095 445.997 656.771 445.406C656.453 444.81 656.012 444.335 655.45 443.983C654.893 443.631 654.256 443.455 653.541 443.455C653.001 443.455 652.498 443.562 652.032 443.778C651.566 443.989 651.157 444.278 650.805 444.648C650.458 445.017 650.185 445.44 649.987 445.918C649.788 446.389 649.688 446.886 649.688 447.409C649.688 448.102 649.85 448.75 650.174 449.352C650.504 449.955 650.953 450.44 651.521 450.81C652.095 451.179 652.745 451.364 653.472 451.364Z" fill="#058CD7"/>
<rect width="139.404" height="56" transform="translate(733.276 416)" fill="#B4DDF3"/>
<path d="M793.422 435.545V453H791.308V437.761H791.206L786.944 440.591V438.443L791.308 435.545H793.422ZM804.646 434.727L799.021 455.625H797.18L802.805 434.727H804.646ZM812.792 453.239C812.076 453.227 811.36 453.091 810.644 452.83C809.928 452.568 809.275 452.128 808.684 451.509C808.093 450.884 807.618 450.04 807.26 448.977C806.903 447.909 806.724 446.568 806.724 444.955C806.724 443.409 806.868 442.04 807.158 440.847C807.448 439.648 807.868 438.639 808.42 437.821C808.971 436.997 809.635 436.372 810.414 435.946C811.198 435.52 812.081 435.307 813.064 435.307C814.042 435.307 814.911 435.503 815.672 435.895C816.439 436.281 817.064 436.821 817.547 437.514C818.03 438.207 818.343 439.006 818.485 439.909H816.405C816.212 439.125 815.837 438.474 815.28 437.957C814.724 437.44 813.985 437.182 813.064 437.182C811.712 437.182 810.647 437.77 809.868 438.946C809.096 440.122 808.706 441.773 808.701 443.898H808.837C809.155 443.415 809.533 443.003 809.971 442.662C810.414 442.315 810.903 442.048 811.437 441.861C811.971 441.673 812.536 441.58 813.133 441.58C814.133 441.58 815.047 441.83 815.877 442.33C816.706 442.824 817.371 443.509 817.871 444.384C818.371 445.253 818.621 446.25 818.621 447.375C818.621 448.455 818.38 449.443 817.897 450.341C817.414 451.233 816.735 451.943 815.86 452.472C814.991 452.994 813.968 453.25 812.792 453.239ZM812.792 451.364C813.508 451.364 814.15 451.185 814.718 450.827C815.292 450.469 815.743 449.989 816.073 449.386C816.408 448.784 816.576 448.114 816.576 447.375C816.576 446.653 816.414 445.997 816.09 445.406C815.772 444.81 815.331 444.335 814.769 443.983C814.212 443.631 813.576 443.455 812.86 443.455C812.32 443.455 811.817 443.562 811.351 443.778C810.885 443.989 810.476 444.278 810.124 444.648C809.778 445.017 809.505 445.44 809.306 445.918C809.107 446.389 809.008 446.886 809.008 447.409C809.008 448.102 809.17 448.75 809.493 449.352C809.823 449.955 810.272 450.44 810.84 450.81C811.414 451.179 812.064 451.364 812.792 451.364Z" fill="#058CD7"/>
<rect width="139.404" height="56" transform="translate(892.596 416)" fill="#B4DDF3"/>
<path d="M952.741 435.545V453H950.627V437.761H950.525L946.264 440.591V438.443L950.627 435.545H952.741ZM963.965 434.727L958.34 455.625H956.5L962.125 434.727H963.965ZM972.111 453.239C971.395 453.227 970.679 453.091 969.963 452.83C969.247 452.568 968.594 452.128 968.003 451.509C967.412 450.884 966.938 450.04 966.58 448.977C966.222 447.909 966.043 446.568 966.043 444.955C966.043 443.409 966.188 442.04 966.478 440.847C966.767 439.648 967.188 438.639 967.739 437.821C968.29 436.997 968.955 436.372 969.733 435.946C970.517 435.52 971.401 435.307 972.384 435.307C973.361 435.307 974.23 435.503 974.992 435.895C975.759 436.281 976.384 436.821 976.867 437.514C977.35 438.207 977.662 439.006 977.804 439.909H975.725C975.532 439.125 975.157 438.474 974.6 437.957C974.043 437.44 973.304 437.182 972.384 437.182C971.032 437.182 969.966 437.77 969.188 438.946C968.415 440.122 968.026 441.773 968.02 443.898H968.157C968.475 443.415 968.853 443.003 969.29 442.662C969.733 442.315 970.222 442.048 970.756 441.861C971.29 441.673 971.855 441.58 972.452 441.58C973.452 441.58 974.367 441.83 975.196 442.33C976.026 442.824 976.691 443.509 977.191 444.384C977.691 445.253 977.941 446.25 977.941 447.375C977.941 448.455 977.699 449.443 977.216 450.341C976.733 451.233 976.054 451.943 975.179 452.472C974.31 452.994 973.287 453.25 972.111 453.239ZM972.111 451.364C972.827 451.364 973.469 451.185 974.037 450.827C974.611 450.469 975.063 449.989 975.392 449.386C975.728 448.784 975.895 448.114 975.895 447.375C975.895 446.653 975.733 445.997 975.409 445.406C975.091 444.81 974.651 444.335 974.088 443.983C973.532 443.631 972.895 443.455 972.179 443.455C971.639 443.455 971.137 443.562 970.671 443.778C970.205 443.989 969.796 444.278 969.443 444.648C969.097 445.017 968.824 445.44 968.625 445.918C968.426 446.389 968.327 446.886 968.327 447.409C968.327 448.102 968.489 448.75 968.813 449.352C969.142 449.955 969.591 450.44 970.159 450.81C970.733 451.179 971.384 451.364 972.111 451.364Z" fill="#058CD7"/>
</svg>
