<svg width="1128" height="440" viewBox="0 0 1128 440" fill="none" xmlns="http://www.w3.org/2000/svg">
<rect width="1128" height="440" fill="#F2F6F9"/>
<path d="M103.398 107.239C102.227 107.239 101.193 107.031 100.295 106.616C99.4034 106.196 98.7074 105.619 98.2074 104.886C97.7074 104.148 97.4602 103.307 97.4659 102.364C97.4602 101.625 97.6051 100.943 97.9006 100.318C98.196 99.6875 98.5994 99.1619 99.1108 98.7415C99.6278 98.3153 100.205 98.0455 100.841 97.9318V97.8295C100.006 97.6136 99.3409 97.1449 98.8466 96.4233C98.3523 95.696 98.108 94.8693 98.1136 93.9432C98.108 93.0568 98.3324 92.2642 98.7869 91.5653C99.2415 90.8665 99.8665 90.3153 100.662 89.9119C101.463 89.5085 102.375 89.3068 103.398 89.3068C104.409 89.3068 105.313 89.5085 106.108 89.9119C106.903 90.3153 107.528 90.8665 107.983 91.5653C108.443 92.2642 108.676 93.0568 108.682 93.9432C108.676 94.8693 108.423 95.696 107.923 96.4233C107.429 97.1449 106.773 97.6136 105.955 97.8295V97.9318C106.585 98.0455 107.153 98.3153 107.659 98.7415C108.165 99.1619 108.568 99.6875 108.869 100.318C109.17 100.943 109.324 101.625 109.33 102.364C109.324 103.307 109.068 104.148 108.562 104.886C108.062 105.619 107.366 106.196 106.474 106.616C105.588 107.031 104.563 107.239 103.398 107.239ZM103.398 105.364C104.188 105.364 104.869 105.236 105.443 104.98C106.017 104.724 106.46 104.364 106.773 103.898C107.085 103.432 107.244 102.886 107.25 102.261C107.244 101.602 107.074 101.02 106.739 100.514C106.403 100.009 105.946 99.6108 105.366 99.321C104.793 99.0312 104.136 98.8864 103.398 98.8864C102.653 98.8864 101.989 99.0312 101.403 99.321C100.824 99.6108 100.366 100.009 100.031 100.514C99.7017 101.02 99.5398 101.602 99.5455 102.261C99.5398 102.886 99.6903 103.432 99.9972 103.898C100.31 104.364 100.756 104.724 101.335 104.98C101.915 105.236 102.602 105.364 103.398 105.364ZM103.398 97.0795C104.023 97.0795 104.577 96.9545 105.06 96.7045C105.548 96.4545 105.932 96.1051 106.21 95.6562C106.489 95.2074 106.631 94.6818 106.636 94.0795C106.631 93.4886 106.491 92.9744 106.219 92.5369C105.946 92.0937 105.568 91.7528 105.085 91.5142C104.602 91.2699 104.04 91.1477 103.398 91.1477C102.744 91.1477 102.173 91.2699 101.685 91.5142C101.196 91.7528 100.818 92.0937 100.551 92.5369C100.284 92.9744 100.153 93.4886 100.159 94.0795C100.153 94.6818 100.287 95.2074 100.56 95.6562C100.838 96.1051 101.222 96.4545 101.71 96.7045C102.199 96.9545 102.761 97.0795 103.398 97.0795ZM119.38 107V93.9091H121.391V99.6023H122.721L127.425 93.9091H130.016L124.732 100.216L130.085 107H127.494L123.198 101.477H121.391V107H119.38ZM137.05 107.273C135.868 107.273 134.831 106.991 133.939 106.429C133.053 105.866 132.359 105.08 131.859 104.068C131.365 103.057 131.118 101.875 131.118 100.523C131.118 99.1591 131.365 97.9687 131.859 96.9517C132.359 95.9347 133.053 95.1449 133.939 94.5824C134.831 94.0199 135.868 93.7386 137.05 93.7386C138.232 93.7386 139.266 94.0199 140.152 94.5824C141.044 95.1449 141.737 95.9347 142.232 96.9517C142.732 97.9687 142.982 99.1591 142.982 100.523C142.982 101.875 142.732 103.057 142.232 104.068C141.737 105.08 141.044 105.866 140.152 106.429C139.266 106.991 138.232 107.273 137.05 107.273ZM137.05 105.466C137.947 105.466 138.686 105.236 139.266 104.776C139.845 104.315 140.274 103.71 140.553 102.96C140.831 102.21 140.97 101.398 140.97 100.523C140.97 99.6477 140.831 98.8324 140.553 98.0767C140.274 97.321 139.845 96.7102 139.266 96.2443C138.686 95.7784 137.947 95.5455 137.05 95.5455C136.152 95.5455 135.413 95.7784 134.834 96.2443C134.254 96.7102 133.825 97.321 133.547 98.0767C133.268 98.8324 133.129 99.6477 133.129 100.523C133.129 101.398 133.268 102.21 133.547 102.96C133.825 103.71 134.254 104.315 134.834 104.776C135.413 105.236 136.152 105.466 137.05 105.466ZM144.893 107V105.125H145.37C145.762 105.125 146.089 105.048 146.35 104.895C146.612 104.736 146.822 104.46 146.981 104.068C147.146 103.67 147.271 103.119 147.356 102.415C147.447 101.705 147.512 100.801 147.552 99.7045L147.79 93.9091H156.518V107H154.506V95.7841H149.7L149.495 100.455C149.45 101.528 149.353 102.474 149.205 103.293C149.063 104.105 148.844 104.787 148.549 105.338C148.259 105.889 147.873 106.304 147.39 106.582C146.907 106.861 146.302 107 145.575 107H144.893ZM165.526 107.273C164.344 107.273 163.308 106.991 162.415 106.429C161.529 105.866 160.836 105.08 160.336 104.068C159.842 103.057 159.594 101.875 159.594 100.523C159.594 99.1591 159.842 97.9687 160.336 96.9517C160.836 95.9347 161.529 95.1449 162.415 94.5824C163.308 94.0199 164.344 93.7386 165.526 93.7386C166.708 93.7386 167.742 94.0199 168.629 94.5824C169.521 95.1449 170.214 95.9347 170.708 96.9517C171.208 97.9687 171.458 99.1591 171.458 100.523C171.458 101.875 171.208 103.057 170.708 104.068C170.214 105.08 169.521 105.866 168.629 106.429C167.742 106.991 166.708 107.273 165.526 107.273ZM165.526 105.466C166.424 105.466 167.163 105.236 167.742 104.776C168.322 104.315 168.751 103.71 169.029 102.96C169.308 102.21 169.447 101.398 169.447 100.523C169.447 99.6477 169.308 98.8324 169.029 98.0767C168.751 97.321 168.322 96.7102 167.742 96.2443C167.163 95.7784 166.424 95.5455 165.526 95.5455C164.629 95.5455 163.89 95.7784 163.31 96.2443C162.731 96.7102 162.302 97.321 162.023 98.0767C161.745 98.8324 161.606 99.6477 161.606 100.523C161.606 101.398 161.745 102.21 162.023 102.96C162.302 103.71 162.731 104.315 163.31 104.776C163.89 105.236 164.629 105.466 165.526 105.466ZM183.29 99.5341V101.409H176.062V99.5341H183.29ZM176.54 93.9091V107H174.528V93.9091H176.54ZM184.824 93.9091V107H182.812V93.9091H184.824ZM193.815 107.273C192.634 107.273 191.597 106.991 190.705 106.429C189.818 105.866 189.125 105.08 188.625 104.068C188.131 103.057 187.884 101.875 187.884 100.523C187.884 99.1591 188.131 97.9687 188.625 96.9517C189.125 95.9347 189.818 95.1449 190.705 94.5824C191.597 94.0199 192.634 93.7386 193.815 93.7386C194.997 93.7386 196.031 94.0199 196.918 94.5824C197.81 95.1449 198.503 95.9347 198.997 96.9517C199.497 97.9687 199.747 99.1591 199.747 100.523C199.747 101.875 199.497 103.057 198.997 104.068C198.503 105.08 197.81 105.866 196.918 106.429C196.031 106.991 194.997 107.273 193.815 107.273ZM193.815 105.466C194.713 105.466 195.452 105.236 196.031 104.776C196.611 104.315 197.04 103.71 197.318 102.96C197.597 102.21 197.736 101.398 197.736 100.523C197.736 99.6477 197.597 98.8324 197.318 98.0767C197.04 97.321 196.611 96.7102 196.031 96.2443C195.452 95.7784 194.713 95.5455 193.815 95.5455C192.918 95.5455 192.179 95.7784 191.599 96.2443C191.02 96.7102 190.591 97.321 190.312 98.0767C190.034 98.8324 189.895 99.6477 189.895 100.523C189.895 101.398 190.034 102.21 190.312 102.96C190.591 103.71 191.02 104.315 191.599 104.776C192.179 105.236 192.918 105.466 193.815 105.466ZM202.817 107V93.9091H204.829V99.6023H206.158L210.863 93.9091H213.454L208.17 100.216L213.522 107H210.931L206.636 101.477H204.829V107H202.817Z" fill="#058CD7"/>
<rect width="552" height="56" transform="translate(96 134)" fill="#B4DDF3"/>
<path d="M373.943 153.545V171H371.83V155.761H371.727L367.466 158.591V156.443L371.83 153.545H373.943Z" fill="#058CD7"/>
<rect width="266" height="56" transform="translate(96 210)" fill="#B4DDF3"/>
<path d="M219.443 229.545V247H217.33V231.761H217.227L212.966 234.591V232.443L217.33 229.545H219.443ZM230.668 228.727L225.043 249.625H223.202L228.827 228.727H230.668ZM233.018 247V245.466L238.779 239.159C239.455 238.42 240.012 237.778 240.45 237.233C240.887 236.682 241.211 236.165 241.421 235.682C241.637 235.193 241.745 234.682 241.745 234.148C241.745 233.534 241.597 233.003 241.302 232.554C241.012 232.105 240.614 231.759 240.109 231.514C239.603 231.27 239.035 231.148 238.404 231.148C237.734 231.148 237.148 231.287 236.648 231.565C236.154 231.838 235.771 232.222 235.498 232.716C235.231 233.21 235.097 233.79 235.097 234.455H233.086C233.086 233.432 233.322 232.534 233.793 231.761C234.265 230.989 234.907 230.386 235.719 229.955C236.538 229.523 237.455 229.307 238.472 229.307C239.495 229.307 240.401 229.523 241.191 229.955C241.981 230.386 242.6 230.969 243.049 231.702C243.498 232.435 243.722 233.25 243.722 234.148C243.722 234.79 243.606 235.418 243.373 236.031C243.146 236.639 242.748 237.318 242.18 238.068C241.617 238.812 240.836 239.722 239.836 240.795L235.915 244.989V245.125H244.029V247H233.018Z" fill="#058CD7"/>
<rect width="266" height="56" transform="translate(381.915 210)" fill="#B4DDF3"/>
<path d="M505.358 229.545V247H503.245V231.761H503.142L498.881 234.591V232.443L503.245 229.545H505.358ZM516.583 228.727L510.958 249.625H509.117L514.742 228.727H516.583ZM518.933 247V245.466L524.694 239.159C525.37 238.42 525.927 237.778 526.365 237.233C526.802 236.682 527.126 236.165 527.336 235.682C527.552 235.193 527.66 234.682 527.66 234.148C527.66 233.534 527.512 233.003 527.217 232.554C526.927 232.105 526.529 231.759 526.024 231.514C525.518 231.27 524.95 231.148 524.319 231.148C523.649 231.148 523.063 231.287 522.563 231.565C522.069 231.838 521.686 232.222 521.413 232.716C521.146 233.21 521.012 233.79 521.012 234.455H519.001C519.001 233.432 519.237 232.534 519.708 231.761C520.18 230.989 520.822 230.386 521.634 229.955C522.453 229.523 523.37 229.307 524.387 229.307C525.41 229.307 526.316 229.523 527.106 229.955C527.896 230.386 528.515 230.969 528.964 231.702C529.413 232.435 529.637 233.25 529.637 234.148C529.637 234.79 529.521 235.418 529.288 236.031C529.061 236.639 528.663 237.318 528.095 238.068C527.532 238.812 526.751 239.722 525.751 240.795L521.831 244.989V245.125H529.944V247H518.933Z" fill="#058CD7"/>
<rect width="123" height="56" transform="translate(96 286)" fill="#B4DDF3"/>
<path d="M147.443 305.545V323H145.33V307.761H145.227L140.966 310.591V308.443L145.33 305.545H147.443ZM158.668 304.727L153.043 325.625H151.202L156.827 304.727H158.668ZM160.609 319.42V317.682L168.279 305.545H169.54V308.239H168.688L162.893 317.409V317.545H173.222V319.42H160.609ZM168.825 323V318.892V318.082V305.545H170.836V323H168.825Z" fill="#058CD7"/>
<rect width="123" height="56" transform="translate(238.915 286)" fill="#B4DDF3"/>
<path d="M290.358 305.545V323H288.245V307.761H288.142L283.881 310.591V308.443L288.245 305.545H290.358ZM301.583 304.727L295.958 325.625H294.117L299.742 304.727H301.583ZM303.524 319.42V317.682L311.194 305.545H312.456V308.239H311.603L305.808 317.409V317.545H316.137V319.42H303.524ZM311.74 323V318.892V318.082V305.545H313.751V323H311.74Z" fill="#058CD7"/>
<rect width="123" height="56" transform="translate(381.83 286)" fill="#B4DDF3"/>
<path d="M433.273 305.545V323H431.16V307.761H431.057L426.796 310.591V308.443L431.16 305.545H433.273ZM444.498 304.727L438.873 325.625H437.032L442.657 304.727H444.498ZM446.439 319.42V317.682L454.109 305.545H455.371V308.239H454.518L448.723 317.409V317.545H459.052V319.42H446.439ZM454.655 323V318.892V318.082V305.545H456.666V323H454.655Z" fill="#058CD7"/>
<rect width="123" height="56" transform="translate(524.745 286)" fill="#B4DDF3"/>
<path d="M576.188 305.545V323H574.075V307.761H573.972L569.711 310.591V308.443L574.075 305.545H576.188ZM587.413 304.727L581.788 325.625H579.947L585.572 304.727H587.413ZM589.354 319.42V317.682L597.024 305.545H598.286V308.239H597.433L591.638 317.409V317.545H601.967V319.42H589.354ZM597.57 323V318.892V318.082V305.545H599.581V323H597.57Z" fill="#058CD7"/>
<path d="M679.602 107.239C678.886 107.227 678.17 107.091 677.455 106.83C676.739 106.568 676.085 106.128 675.494 105.509C674.903 104.884 674.429 104.04 674.071 102.977C673.713 101.909 673.534 100.568 673.534 98.9545C673.534 97.4091 673.679 96.0398 673.969 94.8466C674.259 93.6477 674.679 92.6392 675.23 91.821C675.781 90.9972 676.446 90.3722 677.224 89.946C678.009 89.5199 678.892 89.3068 679.875 89.3068C680.852 89.3068 681.722 89.5028 682.483 89.8949C683.25 90.2812 683.875 90.821 684.358 91.5142C684.841 92.2074 685.153 93.0057 685.295 93.9091H683.216C683.023 93.125 682.648 92.4744 682.091 91.9574C681.534 91.4403 680.795 91.1818 679.875 91.1818C678.523 91.1818 677.457 91.7699 676.679 92.946C675.906 94.1222 675.517 95.7727 675.511 97.8977H675.648C675.966 97.4148 676.344 97.0028 676.781 96.6619C677.224 96.3153 677.713 96.0483 678.247 95.8608C678.781 95.6733 679.347 95.5795 679.943 95.5795C680.943 95.5795 681.858 95.8295 682.688 96.3295C683.517 96.8239 684.182 97.5085 684.682 98.3835C685.182 99.2528 685.432 100.25 685.432 101.375C685.432 102.455 685.19 103.443 684.707 104.341C684.224 105.233 683.545 105.943 682.67 106.472C681.801 106.994 680.778 107.25 679.602 107.239ZM679.602 105.364C680.318 105.364 680.96 105.185 681.528 104.827C682.102 104.469 682.554 103.989 682.884 103.386C683.219 102.784 683.386 102.114 683.386 101.375C683.386 100.653 683.224 99.9972 682.901 99.4062C682.582 98.8097 682.142 98.3352 681.58 97.983C681.023 97.6307 680.386 97.4545 679.67 97.4545C679.131 97.4545 678.628 97.5625 678.162 97.7784C677.696 97.9886 677.287 98.2784 676.935 98.6477C676.588 99.017 676.315 99.4403 676.116 99.9176C675.918 100.389 675.818 100.886 675.818 101.409C675.818 102.102 675.98 102.75 676.304 103.352C676.634 103.955 677.082 104.44 677.651 104.81C678.224 105.179 678.875 105.364 679.602 105.364ZM695.567 107V93.9091H697.579V99.6023H698.908L703.613 93.9091H706.204L700.92 100.216L706.272 107H703.681L699.386 101.477H697.579V107H695.567ZM713.237 107.273C712.055 107.273 711.018 106.991 710.126 106.429C709.24 105.866 708.547 105.08 708.047 104.068C707.553 103.057 707.305 101.875 707.305 100.523C707.305 99.1591 707.553 97.9687 708.047 96.9517C708.547 95.9347 709.24 95.1449 710.126 94.5824C711.018 94.0199 712.055 93.7386 713.237 93.7386C714.419 93.7386 715.453 94.0199 716.339 94.5824C717.232 95.1449 717.925 95.9347 718.419 96.9517C718.919 97.9687 719.169 99.1591 719.169 100.523C719.169 101.875 718.919 103.057 718.419 104.068C717.925 105.08 717.232 105.866 716.339 106.429C715.453 106.991 714.419 107.273 713.237 107.273ZM713.237 105.466C714.135 105.466 714.874 105.236 715.453 104.776C716.033 104.315 716.462 103.71 716.74 102.96C717.018 102.21 717.158 101.398 717.158 100.523C717.158 99.6477 717.018 98.8324 716.74 98.0767C716.462 97.321 716.033 96.7102 715.453 96.2443C714.874 95.7784 714.135 95.5455 713.237 95.5455C712.339 95.5455 711.601 95.7784 711.021 96.2443C710.442 96.7102 710.013 97.321 709.734 98.0767C709.456 98.8324 709.317 99.6477 709.317 100.523C709.317 101.398 709.456 102.21 709.734 102.96C710.013 103.71 710.442 104.315 711.021 104.776C711.601 105.236 712.339 105.466 713.237 105.466ZM721.08 107V105.125H721.558C721.95 105.125 722.276 105.048 722.538 104.895C722.799 104.736 723.009 104.46 723.168 104.068C723.333 103.67 723.458 103.119 723.543 102.415C723.634 101.705 723.7 100.801 723.739 99.7045L723.978 93.9091H732.705V107H730.694V95.7841H725.887L725.683 100.455C725.637 101.528 725.54 102.474 725.393 103.293C725.251 104.105 725.032 104.787 724.737 105.338C724.447 105.889 724.06 106.304 723.577 106.582C723.094 106.861 722.489 107 721.762 107H721.08ZM741.714 107.273C740.532 107.273 739.495 106.991 738.603 106.429C737.717 105.866 737.023 105.08 736.523 104.068C736.029 103.057 735.782 101.875 735.782 100.523C735.782 99.1591 736.029 97.9687 736.523 96.9517C737.023 95.9347 737.717 95.1449 738.603 94.5824C739.495 94.0199 740.532 93.7386 741.714 93.7386C742.896 93.7386 743.93 94.0199 744.816 94.5824C745.708 95.1449 746.401 95.9347 746.896 96.9517C747.396 97.9687 747.646 99.1591 747.646 100.523C747.646 101.875 747.396 103.057 746.896 104.068C746.401 105.08 745.708 105.866 744.816 106.429C743.93 106.991 742.896 107.273 741.714 107.273ZM741.714 105.466C742.612 105.466 743.35 105.236 743.93 104.776C744.509 104.315 744.938 103.71 745.217 102.96C745.495 102.21 745.634 101.398 745.634 100.523C745.634 99.6477 745.495 98.8324 745.217 98.0767C744.938 97.321 744.509 96.7102 743.93 96.2443C743.35 95.7784 742.612 95.5455 741.714 95.5455C740.816 95.5455 740.077 95.7784 739.498 96.2443C738.918 96.7102 738.489 97.321 738.211 98.0767C737.933 98.8324 737.793 99.6477 737.793 100.523C737.793 101.398 737.933 102.21 738.211 102.96C738.489 103.71 738.918 104.315 739.498 104.776C740.077 105.236 740.816 105.466 741.714 105.466ZM759.477 99.5341V101.409H752.25V99.5341H759.477ZM752.727 93.9091V107H750.716V93.9091H752.727ZM761.011 93.9091V107H759V93.9091H761.011ZM770.003 107.273C768.821 107.273 767.784 106.991 766.892 106.429C766.006 105.866 765.312 105.08 764.812 104.068C764.318 103.057 764.071 101.875 764.071 100.523C764.071 99.1591 764.318 97.9687 764.812 96.9517C765.312 95.9347 766.006 95.1449 766.892 94.5824C767.784 94.0199 768.821 93.7386 770.003 93.7386C771.185 93.7386 772.219 94.0199 773.105 94.5824C773.997 95.1449 774.69 95.9347 775.185 96.9517C775.685 97.9687 775.935 99.1591 775.935 100.523C775.935 101.875 775.685 103.057 775.185 104.068C774.69 105.08 773.997 105.866 773.105 106.429C772.219 106.991 771.185 107.273 770.003 107.273ZM770.003 105.466C770.901 105.466 771.639 105.236 772.219 104.776C772.798 104.315 773.227 103.71 773.506 102.96C773.784 102.21 773.923 101.398 773.923 100.523C773.923 99.6477 773.784 98.8324 773.506 98.0767C773.227 97.321 772.798 96.7102 772.219 96.2443C771.639 95.7784 770.901 95.5455 770.003 95.5455C769.105 95.5455 768.366 95.7784 767.787 96.2443C767.207 96.7102 766.778 97.321 766.5 98.0767C766.222 98.8324 766.082 99.6477 766.082 100.523C766.082 101.398 766.222 102.21 766.5 102.96C766.778 103.71 767.207 104.315 767.787 104.776C768.366 105.236 769.105 105.466 770.003 105.466ZM779.005 107V93.9091H781.016V99.6023H782.346L787.05 93.9091H789.641L784.357 100.216L789.71 107H787.119L782.823 101.477H781.016V107H779.005Z" fill="#058CD7"/>
<rect width="360" height="56" transform="translate(672 134)" fill="#B4DDF3"/>
<path d="M853.943 153.545V171H851.83V155.761H851.727L847.466 158.591V156.443L851.83 153.545H853.943Z" fill="#058CD7"/>
<rect width="170" height="56" transform="translate(672 210)" fill="#B4DDF3"/>
<path d="M747.443 229.545V247H745.33V231.761H745.227L740.966 234.591V232.443L745.33 229.545H747.443ZM758.668 228.727L753.043 249.625H751.202L756.827 228.727H758.668ZM761.018 247V245.466L766.779 239.159C767.455 238.42 768.012 237.778 768.45 237.233C768.887 236.682 769.211 236.165 769.421 235.682C769.637 235.193 769.745 234.682 769.745 234.148C769.745 233.534 769.597 233.003 769.302 232.554C769.012 232.105 768.614 231.759 768.109 231.514C767.603 231.27 767.035 231.148 766.404 231.148C765.734 231.148 765.148 231.287 764.648 231.565C764.154 231.838 763.771 232.222 763.498 232.716C763.231 233.21 763.097 233.79 763.097 234.455H761.086C761.086 233.432 761.322 232.534 761.793 231.761C762.265 230.989 762.907 230.386 763.719 229.955C764.538 229.523 765.455 229.307 766.472 229.307C767.495 229.307 768.401 229.523 769.191 229.955C769.981 230.386 770.6 230.969 771.049 231.702C771.498 232.435 771.722 233.25 771.722 234.148C771.722 234.79 771.606 235.418 771.373 236.031C771.146 236.639 770.748 237.318 770.18 238.068C769.617 238.812 768.836 239.722 767.836 240.795L763.915 244.989V245.125H772.029V247H761.018Z" fill="#058CD7"/>
<rect width="170" height="56" transform="translate(861.915 210)" fill="#B4DDF3"/>
<path d="M937.358 229.545V247H935.245V231.761H935.142L930.881 234.591V232.443L935.245 229.545H937.358ZM948.583 228.727L942.958 249.625H941.117L946.742 228.727H948.583ZM950.933 247V245.466L956.694 239.159C957.37 238.42 957.927 237.778 958.365 237.233C958.802 236.682 959.126 236.165 959.336 235.682C959.552 235.193 959.66 234.682 959.66 234.148C959.66 233.534 959.512 233.003 959.217 232.554C958.927 232.105 958.529 231.759 958.024 231.514C957.518 231.27 956.95 231.148 956.319 231.148C955.649 231.148 955.063 231.287 954.563 231.565C954.069 231.838 953.686 232.222 953.413 232.716C953.146 233.21 953.012 233.79 953.012 234.455H951.001C951.001 233.432 951.237 232.534 951.708 231.761C952.18 230.989 952.822 230.386 953.634 229.955C954.453 229.523 955.37 229.307 956.387 229.307C957.41 229.307 958.316 229.523 959.106 229.955C959.896 230.386 960.515 230.969 960.964 231.702C961.413 232.435 961.637 233.25 961.637 234.148C961.637 234.79 961.521 235.418 961.288 236.031C961.061 236.639 960.663 237.318 960.095 238.068C959.532 238.812 958.751 239.722 957.751 240.795L953.831 244.989V245.125H961.944V247H950.933Z" fill="#058CD7"/>
<rect width="107" height="56" transform="translate(672 286)" fill="#B4DDF3"/>
<path d="M715.943 305.545V323H713.83V307.761H713.727L709.466 310.591V308.443L713.83 305.545H715.943ZM727.168 304.727L721.543 325.625H719.702L725.327 304.727H727.168ZM735.415 323.239C734.29 323.239 733.288 323.045 732.407 322.659C731.532 322.273 730.836 321.736 730.319 321.048C729.808 320.355 729.529 319.551 729.484 318.636H731.631C731.677 319.199 731.87 319.685 732.211 320.094C732.552 320.497 732.998 320.81 733.549 321.031C734.1 321.253 734.711 321.364 735.381 321.364C736.131 321.364 736.796 321.233 737.376 320.972C737.955 320.71 738.41 320.347 738.739 319.881C739.069 319.415 739.234 318.875 739.234 318.261C739.234 317.619 739.075 317.054 738.756 316.565C738.438 316.071 737.972 315.685 737.359 315.406C736.745 315.128 735.995 314.989 735.109 314.989H733.711V313.114H735.109C735.802 313.114 736.41 312.989 736.933 312.739C737.461 312.489 737.873 312.136 738.168 311.682C738.469 311.227 738.62 310.693 738.62 310.08C738.62 309.489 738.489 308.974 738.228 308.537C737.967 308.099 737.597 307.759 737.12 307.514C736.648 307.27 736.092 307.148 735.45 307.148C734.847 307.148 734.279 307.259 733.745 307.48C733.217 307.696 732.785 308.011 732.45 308.426C732.114 308.835 731.933 309.33 731.904 309.909H729.859C729.893 308.994 730.168 308.193 730.685 307.506C731.202 306.812 731.879 306.273 732.714 305.886C733.555 305.5 734.478 305.307 735.484 305.307C736.563 305.307 737.489 305.526 738.262 305.963C739.035 306.395 739.629 306.966 740.043 307.676C740.458 308.386 740.665 309.153 740.665 309.977C740.665 310.96 740.407 311.798 739.89 312.491C739.379 313.185 738.683 313.665 737.802 313.932V314.068C738.904 314.25 739.765 314.719 740.384 315.474C741.004 316.224 741.313 317.153 741.313 318.261C741.313 319.21 741.055 320.062 740.538 320.818C740.026 321.568 739.327 322.159 738.441 322.591C737.555 323.023 736.546 323.239 735.415 323.239Z" fill="#058CD7"/>
<rect width="106" height="56" transform="translate(798.915 286)" fill="#B4DDF3"/>
<path d="M842.358 305.545V323H840.245V307.761H840.142L835.881 310.591V308.443L840.245 305.545H842.358ZM853.583 304.727L847.958 325.625H846.117L851.742 304.727H853.583ZM861.831 323.239C860.706 323.239 859.703 323.045 858.822 322.659C857.947 322.273 857.251 321.736 856.734 321.048C856.223 320.355 855.944 319.551 855.899 318.636H858.046C858.092 319.199 858.285 319.685 858.626 320.094C858.967 320.497 859.413 320.81 859.964 321.031C860.515 321.253 861.126 321.364 861.796 321.364C862.546 321.364 863.211 321.233 863.791 320.972C864.37 320.71 864.825 320.347 865.154 319.881C865.484 319.415 865.649 318.875 865.649 318.261C865.649 317.619 865.49 317.054 865.171 316.565C864.853 316.071 864.387 315.685 863.774 315.406C863.16 315.128 862.41 314.989 861.524 314.989H860.126V313.114H861.524C862.217 313.114 862.825 312.989 863.348 312.739C863.876 312.489 864.288 312.136 864.583 311.682C864.884 311.227 865.035 310.693 865.035 310.08C865.035 309.489 864.904 308.974 864.643 308.537C864.382 308.099 864.012 307.759 863.535 307.514C863.063 307.27 862.507 307.148 861.865 307.148C861.262 307.148 860.694 307.259 860.16 307.48C859.632 307.696 859.2 308.011 858.865 308.426C858.529 308.835 858.348 309.33 858.319 309.909H856.274C856.308 308.994 856.583 308.193 857.1 307.506C857.617 306.812 858.294 306.273 859.129 305.886C859.97 305.5 860.893 305.307 861.899 305.307C862.978 305.307 863.904 305.526 864.677 305.963C865.45 306.395 866.044 306.966 866.458 307.676C866.873 308.386 867.081 309.153 867.081 309.977C867.081 310.96 866.822 311.798 866.305 312.491C865.794 313.185 865.098 313.665 864.217 313.932V314.068C865.319 314.25 866.18 314.719 866.799 315.474C867.419 316.224 867.728 317.153 867.728 318.261C867.728 319.21 867.47 320.062 866.953 320.818C866.441 321.568 865.742 322.159 864.856 322.591C863.97 323.023 862.961 323.239 861.831 323.239Z" fill="#058CD7"/>
<rect width="107" height="56" transform="translate(924.83 286)" fill="#B4DDF3"/>
<path d="M968.773 305.545V323H966.66V307.761H966.557L962.296 310.591V308.443L966.66 305.545H968.773ZM979.998 304.727L974.373 325.625H972.532L978.157 304.727H979.998ZM988.246 323.239C987.121 323.239 986.118 323.045 985.237 322.659C984.362 322.273 983.666 321.736 983.149 321.048C982.638 320.355 982.359 319.551 982.314 318.636H984.461C984.507 319.199 984.7 319.685 985.041 320.094C985.382 320.497 985.828 320.81 986.379 321.031C986.93 321.253 987.541 321.364 988.211 321.364C988.961 321.364 989.626 321.233 990.206 320.972C990.785 320.71 991.24 320.347 991.569 319.881C991.899 319.415 992.064 318.875 992.064 318.261C992.064 317.619 991.905 317.054 991.586 316.565C991.268 316.071 990.802 315.685 990.189 315.406C989.575 315.128 988.825 314.989 987.939 314.989H986.541V313.114H987.939C988.632 313.114 989.24 312.989 989.763 312.739C990.291 312.489 990.703 312.136 990.998 311.682C991.3 311.227 991.45 310.693 991.45 310.08C991.45 309.489 991.319 308.974 991.058 308.537C990.797 308.099 990.427 307.759 989.95 307.514C989.479 307.27 988.922 307.148 988.28 307.148C987.677 307.148 987.109 307.259 986.575 307.48C986.047 307.696 985.615 308.011 985.28 308.426C984.944 308.835 984.763 309.33 984.734 309.909H982.689C982.723 308.994 982.998 308.193 983.515 307.506C984.032 306.812 984.709 306.273 985.544 305.886C986.385 305.5 987.308 305.307 988.314 305.307C989.393 305.307 990.319 305.526 991.092 305.963C991.865 306.395 992.459 306.966 992.873 307.676C993.288 308.386 993.496 309.153 993.496 309.977C993.496 310.96 993.237 311.798 992.72 312.491C992.209 313.185 991.513 313.665 990.632 313.932V314.068C991.734 314.25 992.595 314.719 993.214 315.474C993.834 316.224 994.143 317.153 994.143 318.261C994.143 319.21 993.885 320.062 993.368 320.818C992.856 321.568 992.157 322.159 991.271 322.591C990.385 323.023 989.376 323.239 988.246 323.239Z" fill="#058CD7"/>
</svg>
