<svg width="553" height="553" viewBox="0 0 553 553" fill="none" xmlns="http://www.w3.org/2000/svg">
<rect x="1.97559" y="1.97559" width="550.024" height="550.024" fill="#F2F6F9"/>
<rect x="46.8145" y="184.321" width="459.35" height="45.8354" fill="#B4DDF3"/>
<rect x="46.8145" y="322.823" width="459.35" height="45.8354" fill="#B4DDF3"/>
<rect x="0.501789" y="0.501789" width="551.995" height="551.995" stroke="#8C9BA0" stroke-width="0.996421"/>
<path d="M23.9609 1V551.998" stroke="#8C9BA0" stroke-width="0.996421"/>
<path d="M552 529.042L1.0015 529.042" stroke="#8C9BA0" stroke-width="0.996421"/>
<path d="M552 506.082L1.0015 506.082" stroke="#8C9BA0" stroke-width="0.996421"/>
<path d="M552 483.124L1.0015 483.124" stroke="#8C9BA0" stroke-width="0.996421"/>
<path d="M552 460.167L1.0015 460.167" stroke="#8C9BA0" stroke-width="0.996421"/>
<path d="M552 437.207L1.0015 437.207" stroke="#8C9BA0" stroke-width="0.996421"/>
<path d="M552 414.248L1.0015 414.248" stroke="#8C9BA0" stroke-width="0.996421"/>
<path d="M552 391.291L1.0015 391.291" stroke="#8C9BA0" stroke-width="0.996421"/>
<path d="M552 368.332L1.0015 368.332" stroke="#8C9BA0" stroke-width="0.996421"/>
<path d="M552 345.375L1.0015 345.374" stroke="#8C9BA0" stroke-width="0.996421"/>
<path d="M552 322.417L1.0015 322.417" stroke="#8C9BA0" stroke-width="0.996421"/>
<path d="M552 299.457L1.0015 299.457" stroke="#8C9BA0" stroke-width="0.996421"/>
<path d="M552 276.5L1.0015 276.5" stroke="#8C9BA0" stroke-width="0.996421"/>
<path d="M552 253.542L1.0015 253.541" stroke="#8C9BA0" stroke-width="0.996421"/>
<path d="M552 230.583L1.0015 230.582" stroke="#8C9BA0" stroke-width="0.996421"/>
<path d="M552 207.625L1.0015 207.625" stroke="#8C9BA0" stroke-width="0.996421"/>
<path d="M552 184.667L1.0015 184.667" stroke="#8C9BA0" stroke-width="0.996421"/>
<path d="M552 161.707L1.0015 161.707" stroke="#8C9BA0" stroke-width="0.996421"/>
<path d="M552 138.75L1.0015 138.75" stroke="#8C9BA0" stroke-width="0.996421"/>
<path d="M552 115.792L1.0015 115.792" stroke="#8C9BA0" stroke-width="0.996421"/>
<path d="M552 92.8315L1.0015 92.8315" stroke="#8C9BA0" stroke-width="0.996421"/>
<path d="M552 69.8745L1.0015 69.8745" stroke="#8C9BA0" stroke-width="0.996421"/>
<path d="M552 46.9165L1.0015 46.9165" stroke="#8C9BA0" stroke-width="0.996421"/>
<path d="M552 23.958L1.0015 23.958" stroke="#8C9BA0" stroke-width="0.996421"/>
<path d="M92.8359 1V551.998" stroke="#8C9BA0" stroke-width="0.996421"/>
<path d="M161.71 1V551.998" stroke="#8C9BA0" stroke-width="0.996421"/>
<path d="M230.586 1V551.998" stroke="#8C9BA0" stroke-width="0.996421"/>
<path d="M299.46 1V551.998" stroke="#8C9BA0" stroke-width="0.996421"/>
<path d="M368.334 1V551.998" stroke="#8C9BA0" stroke-width="0.996421"/>
<path d="M437.208 1V551.998" stroke="#8C9BA0" stroke-width="0.996421"/>
<path d="M506.083 1V551.998" stroke="#8C9BA0" stroke-width="0.996421"/>
<path d="M529.037 1V551.998" stroke="#8C9BA0" stroke-width="0.996421"/>
<path d="M46.9131 1V551.998" stroke="#8C9BA0" stroke-width="0.996421"/>
<path d="M115.789 1V551.998" stroke="#8C9BA0" stroke-width="0.996421"/>
<path d="M184.664 1V551.998" stroke="#8C9BA0" stroke-width="0.996421"/>
<path d="M253.538 1V551.998" stroke="#8C9BA0" stroke-width="0.996421"/>
<path d="M322.414 1V551.998" stroke="#8C9BA0" stroke-width="0.996421"/>
<path d="M391.29 1V551.998" stroke="#8C9BA0" stroke-width="0.996421"/>
<path d="M460.163 1V551.998" stroke="#8C9BA0" stroke-width="0.996421"/>
<path d="M69.874 1V551.998" stroke="#8C9BA0" stroke-width="0.996421"/>
<path d="M138.749 1V551.998" stroke="#8C9BA0" stroke-width="0.996421"/>
<path d="M207.625 1V551.998" stroke="#8C9BA0" stroke-width="0.996421"/>
<path d="M276.499 1V551.998" stroke="#8C9BA0" stroke-width="0.996421"/>
<path d="M345.374 1V551.998" stroke="#8C9BA0" stroke-width="0.996421"/>
<path d="M414.25 1V551.998" stroke="#8C9BA0" stroke-width="0.996421"/>
<path d="M483.124 1V551.998" stroke="#8C9BA0" stroke-width="0.996421"/>
<path d="M46.8145 185.317H506.165" stroke="#058CD7" stroke-width="1.99284"/>
<path d="M46.8145 344.744H506.165" stroke="#058CD7" stroke-width="1.99284"/>
<circle cx="46.3163" cy="184.819" r="4.4839" fill="white" stroke="#058CD7" stroke-width="1.99284"/>
<circle cx="46.3163" cy="345.243" r="4.4839" fill="white" stroke="#058CD7" stroke-width="1.99284"/>
<circle cx="506.663" cy="184.819" r="4.4839" fill="white" stroke="#058CD7" stroke-width="1.99284"/>
<circle cx="506.663" cy="345.243" r="4.4839" fill="white" stroke="#058CD7" stroke-width="1.99284"/>
</svg>
