<svg xmlns="http://www.w3.org/2000/svg" viewBox="0 0 383.54 420"><title>Ресурс 3</title><g id="Слой_2" data-name="Слой 2"><g id="Слой_8" data-name="Слой 8"><polygon points="16.75 216.85 54.27 216.85 66.81 266.79 83.47 266.79 66.81 200.18 37.46 200.18 83.38 150.09 62.94 150.09 16.75 199.8 16.75 150.08 0.08 150.08 0.08 266.75 16.75 266.75 16.75 216.85"/><polygon points="216.79 266.73 266.8 183.55 266.8 266.7 283.47 266.7 283.47 150.03 266.8 150.03 216.79 233.71 216.79 150.08 200.12 150.08 200.12 266.75 216.79 266.75 216.79 266.73"/><polygon points="366.8 200.08 316.44 200.08 316.44 150.08 299.77 150.08 299.77 266.75 316.44 266.75 316.44 216.75 366.8 216.75 366.8 266.75 383.47 266.75 383.47 150.08 366.8 150.08 366.8 200.08"/><polygon points="116.74 16.74 183.41 16.74 183.41 116.75 200.08 116.75 200.08 0.07 188.18 0.07 183.41 0.07 116.74 0.07 112.88 0.07 100.07 0.07 100.07 116.75 116.74 116.75 116.74 16.74"/><path d="M.13,116.78H16.8l6.93-24.5H66.82v24.4H83.49V0H33.83V.13h-.28L11.93,75.61h-7L.1,92.28H7.15Zm45-100.1h21.7V75.61H28.45Z"/><path d="M382.63,0H333.88V.13h-.29L312,75.61h-7.05l-4.77,16.67h7.05l-7,24.5h16.67l6.93-24.5h43.09v24.4h16.67V0ZM328.5,75.61l16.67-58.93h21.7V75.61Z"/><path d="M300,37.83v-.16C300,17.61,284.86,1.15,265.88.16H216.79V116.84h16.67V75.49l30.54,0c19.84,0,36-16.74,36-37.54ZM261.82,59.11H233.46V16.55l28.36,0c11.25,0,20.37,9.53,20.37,21.27S273.07,59.11,261.82,59.11Z"/><path d="M349.23,300.06H300.14V416.74h16.67V375.39l30.55,0c19.84,0,36-16.74,36-37.54v-.24C383.35,317.51,368.21,301.05,349.23,300.06ZM345.17,359H316.81V316.45l28.36,0c11.25,0,20.37,9.53,20.37,21.27S356.42,359,345.17,359Z"/><path d="M158.81,345.35V300.16H100.19V416.83h16.66v0l26,0c19.84,0,36-16.74,36-37.54V379A37.79,37.79,0,0,0,158.81,345.35Zm-16.67-28.53v24.67H116.85V316.82Zm-1.5,83.62H116.85V357.88l23.79,0c11.25,0,20.36,9.53,20.36,21.27S151.89,400.44,140.64,400.44Z"/><path d="M78.8,400.16h-12v-100H58.52v0H16.8v100h-12L0,416.83H50.09v.05H66.76v-.05H83.52Zm-45.33,0V316.82H50.09v83.34Z"/><path d="M237.37,296.85c-28.18,0-51,27.57-51,61.58s22.84,61.57,51,61.57,51-27.57,51-61.57S265.55,296.85,237.37,296.85Zm0,106.48c-18.94,0-34.35-20.15-34.35-44.9s15.41-44.9,34.35-44.9,34.35,20.14,34.35,44.9S256.31,403.33,237.37,403.33Z"/><path d="M141.13,253c-19.84,0-36-20-36-44.63s16.14-44.62,36-44.62c14.39,0,25.71,9.08,31.46,24.27,0,0,9.57-6.36,14.07-11-7.74-18.57-26.48-30.19-45.53-30.19-29.52,0-53.45,27.57-53.45,61.57S111.61,270,141.13,270c16.11,0,30.56-8.23,40.35-21.23-6.75-6-13-11.38-13-11.38C161.84,246.94,152.05,253,141.13,253Z"/></g></g></svg>