<svg xmlns="http://www.w3.org/2000/svg" width="552" height="582" fill="none"><g clip-path="url(#a)"><path fill="#0A2832" d="m298.55 343.384-13.046-7.83 57.772-96.565 13.045 8.203-57.771 96.192ZM164.152 298.713v-14.914h-57.026v14.914h57.026Z"/><path fill="#0A2832" d="m150.207 287.458 14.163-3.728 14.909 59.654H164.37l-14.163-55.926ZM127.098 295.661l-12.3-7.084 46.217-49.588h18.264l-52.181 56.672ZM179.279 104.767H164.37v104.395h14.909V104.767Z"/><path fill="#0A2832" d="M119.643 238.989h-14.909v104.395h14.909V238.989ZM298.549 238.989h-14.908v104.395h14.908V238.989ZM387.63 238.989h-14.909v104.395h14.909V238.989Z"/><path fill="#0A2832" d="M439.837 298.657v-14.914h-59.635v14.914h59.635Z"/><path fill="#0A2832" d="M447.638 238.989h-14.909v104.395h14.909V238.989ZM358.185 238.989h-14.909v104.395h14.909V238.989ZM209.096 104.767h-14.908v104.395h14.908V104.767Z"/><path fill="#0A2832" d="M272.757 119.816v-14.914h-67.463v14.914h67.463Z"/><path fill="#0A2832" d="M283.641 104.767h-14.909v104.395h14.909V104.767ZM313.458 104.767h-14.909v104.395h14.909V104.767ZM119.643 209.162h-14.909l29.818-104.395h14.536l-29.445 104.395Z"/><path fill="#0A2832" d="M178.564 119.59v-14.913h-43.608v14.913h43.608ZM104.734 187.165l4.1-14.914h64.108v14.914h-68.208ZM447.638 104.767h-14.909v104.395h14.909V104.767ZM388.003 209.162h-14.909l29.817-104.395h14.537l-29.445 104.395Z"/><path fill="#0A2832" d="M446.943 119.571v-14.914h-43.608v14.914h43.608ZM373.094 187.165l4.1-14.914h64.108v14.914h-68.208ZM342.53 104.767h-37.272v14.541h33.545c10.064 0 18.264 8.575 18.264 19.015 0 10.439-8.2 19.015-18.264 19.015h-33.545v14.54h35.409c17.89 0 32.054-14.913 32.054-33.555 0-17.896-13.418-32.437-30.191-33.556ZM388.003 373.211h-14.909v104.394h14.909V373.211Z"/><path fill="#0A2832" d="M417.075 373.211h-37.272v14.54h33.545c10.063 0 18.263 8.576 18.263 19.015 0 10.44-8.2 19.015-18.263 19.015h-33.545v14.541h35.408c17.891 0 32.054-14.914 32.054-33.556 0-17.896-13.418-32.81-30.19-33.555ZM134.552 373.211h-14.908v104.394h14.908V373.211Z"/><path fill="#0A2832" d="M156.903 388.295v-14.913h-32.8v14.913h32.8ZM104.362 477.605l4.472-14.913h66.345l4.1 14.913h-74.917Z"/><path fill="#0A2832" d="M164.37 373.211h-14.909v104.394h14.909V373.211ZM317.472 384.914c16.772 0 30.563 17.896 30.563 40.266 0 21.997-13.791 40.267-30.563 40.267s-30.563-17.897-30.563-40.267c0-21.997 13.791-40.266 30.563-40.266Zm0-14.914C292.127 370 272 394.607 272 425.18s20.5 55.18 45.472 55.18c25.345 0 45.472-24.607 45.472-55.18.373-30.573-20.127-55.18-45.472-55.18ZM254.568 317.285c-5.963 8.575-14.536 14.168-24.599 14.168-17.891 0-32.054-17.896-32.054-39.894 0-21.997 14.536-39.893 32.054-39.893 13.045 0 23.109 8.202 28.327 21.624 0 0 8.572-5.592 12.672-9.694-7.082-16.777-23.854-26.844-40.626-26.844-26.464 0-47.709 24.607-47.709 55.18s21.245 55.18 47.709 55.18c14.536 0 27.208-7.457 36.154-19.015-6.337-6.338-11.928-10.812-11.928-10.812ZM244.505 413.477v-40.639H191.951v104.395h38.018c17.89 0 32.054-14.914 32.054-33.556.372-13.422-7.082-24.607-17.518-30.2Zm-14.909-25.353v21.998H206.86v-21.998h22.736Zm-1.491 74.568H206.86v-38.03h21.245c10.064 0 18.263 8.576 18.263 19.015 0 10.44-8.199 19.015-18.263 19.015Z"/><path stroke="#058CD7" stroke-miterlimit="10" d="M507.273 567.086h-14.909V582h14.909v-14.914ZM492.364 567.086h-14.908V582h14.908v-14.914Z"/><path stroke="#058CD7" stroke-miterlimit="10" d="M477.456 567.086h-14.909V582h14.909v-14.914ZM462.547 567.086h-14.909V582h14.909v-14.914ZM447.638 567.086h-14.909V582h14.909v-14.914ZM432.729 567.086H417.82V582h14.909v-14.914ZM417.82 567.086h-14.909V582h14.909v-14.914ZM402.911 567.086h-14.909V582h14.909v-14.914Z"/><path stroke="#058CD7" stroke-miterlimit="10" d="M388.003 567.086h-14.909V582h14.909v-14.914ZM373.094 567.086h-14.909V582h14.909v-14.914ZM358.185 567.086h-14.909V582h14.909v-14.914ZM343.276 567.086h-14.909V582h14.909v-14.914ZM328.367 567.086h-14.909V582h14.909v-14.914ZM313.458 567.086h-14.909V582h14.909v-14.914ZM298.549 567.086h-14.908V582h14.908v-14.914Z"/><path stroke="#058CD7" stroke-miterlimit="10" d="M283.641 567.086h-14.909V582h14.909v-14.914ZM268.732 567.086h-14.909V582h14.909v-14.914ZM253.823 567.086h-14.909V582h14.909v-14.914ZM238.914 567.086h-14.909V582h14.909v-14.914ZM224.005 567.086h-14.909V582h14.909v-14.914ZM209.096 567.086h-14.908V582h14.908v-14.914ZM194.188 567.086h-14.909V582h14.909v-14.914ZM179.279 567.086H164.37V582h14.909v-14.914ZM164.37 567.086h-14.909V582h14.909v-14.914ZM149.461 567.086h-14.909V582h14.909v-14.914ZM134.552 567.086h-14.908V582h14.908v-14.914ZM119.643 567.086h-14.909V582h14.909v-14.914Z"/><path stroke="#058CD7" stroke-miterlimit="10" d="M104.735 567.086h-14.91V582h14.91v-14.914Z"/><path stroke="#058CD7" stroke-miterlimit="10" d="M89.826 567.086H74.917V582h14.909v-14.914ZM74.917 567.086h-14.91V582h14.91v-14.914Z"/><path stroke="#058CD7" stroke-miterlimit="10" d="M60.008 567.086H45.099V582h14.909v-14.914ZM507.273 552.173h-14.909v14.913h14.909v-14.913ZM492.364 552.173h-14.908v14.913h14.908v-14.913Z"/><path stroke="#058CD7" stroke-miterlimit="10" d="M477.456 552.173h-14.909v14.913h14.909v-14.913ZM462.547 552.173h-14.909v14.913h14.909v-14.913ZM447.638 552.173h-14.909v14.913h14.909v-14.913ZM432.729 552.173H417.82v14.913h14.909v-14.913ZM417.82 552.173h-14.909v14.913h14.909v-14.913ZM402.911 552.173h-14.909v14.913h14.909v-14.913Z"/><path stroke="#058CD7" stroke-miterlimit="10" d="M388.003 552.173h-14.909v14.913h14.909v-14.913ZM373.094 552.173h-14.909v14.913h14.909v-14.913ZM358.185 552.173h-14.909v14.913h14.909v-14.913ZM343.276 552.173h-14.909v14.913h14.909v-14.913ZM328.367 552.173h-14.909v14.913h14.909v-14.913ZM313.458 552.173h-14.909v14.913h14.909v-14.913ZM298.549 552.173h-14.908v14.913h14.908v-14.913Z"/><path stroke="#058CD7" stroke-miterlimit="10" d="M283.641 552.173h-14.909v14.913h14.909v-14.913ZM268.732 552.173h-14.909v14.913h14.909v-14.913ZM253.823 552.173h-14.909v14.913h14.909v-14.913ZM238.914 552.173h-14.909v14.913h14.909v-14.913ZM224.005 552.173h-14.909v14.913h14.909v-14.913ZM209.096 552.173h-14.908v14.913h14.908v-14.913ZM194.188 552.173h-14.909v14.913h14.909v-14.913ZM179.279 552.173H164.37v14.913h14.909v-14.913ZM164.37 552.173h-14.909v14.913h14.909v-14.913ZM149.461 552.173h-14.909v14.913h14.909v-14.913ZM134.552 552.173h-14.908v14.913h14.908v-14.913ZM119.643 552.173h-14.909v14.913h14.909v-14.913Z"/><path stroke="#058CD7" stroke-miterlimit="10" d="M104.735 552.173h-14.91v14.913h14.91v-14.913Z"/><path stroke="#058CD7" stroke-miterlimit="10" d="M89.826 552.173H74.917v14.913h14.909v-14.913ZM74.917 552.173h-14.91v14.913h14.91v-14.913Z"/><path stroke="#058CD7" stroke-miterlimit="10" d="M60.008 552.173H45.099v14.913h14.909v-14.913ZM507.273 537.259h-14.909v14.914h14.909v-14.914ZM492.364 537.259h-14.908v14.914h14.908v-14.914Z"/><path stroke="#058CD7" stroke-miterlimit="10" d="M477.456 537.259h-14.909v14.914h14.909v-14.914ZM462.547 537.259h-14.909v14.914h14.909v-14.914ZM447.638 537.259h-14.909v14.914h14.909v-14.914ZM432.729 537.259H417.82v14.914h14.909v-14.914ZM417.82 537.259h-14.909v14.914h14.909v-14.914ZM402.911 537.259h-14.909v14.914h14.909v-14.914Z"/><path stroke="#058CD7" stroke-miterlimit="10" d="M388.003 537.259h-14.909v14.914h14.909v-14.914ZM373.094 537.259h-14.909v14.914h14.909v-14.914ZM358.185 537.259h-14.909v14.914h14.909v-14.914ZM343.276 537.259h-14.909v14.914h14.909v-14.914ZM328.367 537.259h-14.909v14.914h14.909v-14.914ZM313.458 537.259h-14.909v14.914h14.909v-14.914ZM298.549 537.259h-14.908v14.914h14.908v-14.914Z"/><path stroke="#058CD7" stroke-miterlimit="10" d="M283.641 537.259h-14.909v14.914h14.909v-14.914ZM268.732 537.259h-14.909v14.914h14.909v-14.914ZM253.823 537.259h-14.909v14.914h14.909v-14.914ZM238.914 537.259h-14.909v14.914h14.909v-14.914ZM224.005 537.259h-14.909v14.914h14.909v-14.914ZM209.096 537.259h-14.908v14.914h14.908v-14.914ZM194.188 537.259h-14.909v14.914h14.909v-14.914ZM179.279 537.259H164.37v14.914h14.909v-14.914ZM164.37 537.259h-14.909v14.914h14.909v-14.914ZM149.461 537.259h-14.909v14.914h14.909v-14.914ZM134.552 537.259h-14.908v14.914h14.908v-14.914ZM119.643 537.259h-14.909v14.914h14.909v-14.914Z"/><path stroke="#058CD7" stroke-miterlimit="10" d="M104.735 537.259h-14.91v14.914h14.91v-14.914Z"/><path stroke="#058CD7" stroke-miterlimit="10" d="M89.826 537.259H74.917v14.914h14.909v-14.914ZM74.917 537.259h-14.91v14.914h14.91v-14.914Z"/><path stroke="#058CD7" stroke-miterlimit="10" d="M60.008 537.259H45.099v14.914h14.909v-14.914ZM507.273 522.346h-14.909v14.913h14.909v-14.913ZM492.364 522.346h-14.908v14.913h14.908v-14.913Z"/><path stroke="#058CD7" stroke-miterlimit="10" d="M477.456 522.346h-14.909v14.913h14.909v-14.913ZM462.547 522.346h-14.909v14.913h14.909v-14.913ZM447.638 522.346h-14.909v14.913h14.909v-14.913ZM432.729 522.346H417.82v14.913h14.909v-14.913ZM417.82 522.346h-14.909v14.913h14.909v-14.913ZM402.911 522.346h-14.909v14.913h14.909v-14.913Z"/><path stroke="#058CD7" stroke-miterlimit="10" d="M388.003 522.346h-14.909v14.913h14.909v-14.913ZM373.094 522.346h-14.909v14.913h14.909v-14.913ZM358.185 522.346h-14.909v14.913h14.909v-14.913ZM343.276 522.346h-14.909v14.913h14.909v-14.913ZM328.367 522.346h-14.909v14.913h14.909v-14.913ZM313.458 522.346h-14.909v14.913h14.909v-14.913ZM298.549 522.346h-14.908v14.913h14.908v-14.913Z"/><path stroke="#058CD7" stroke-miterlimit="10" d="M283.641 522.346h-14.909v14.913h14.909v-14.913ZM268.732 522.346h-14.909v14.913h14.909v-14.913ZM253.823 522.346h-14.909v14.913h14.909v-14.913ZM238.914 522.346h-14.909v14.913h14.909v-14.913ZM224.005 522.346h-14.909v14.913h14.909v-14.913ZM209.096 522.346h-14.908v14.913h14.908v-14.913ZM194.188 522.346h-14.909v14.913h14.909v-14.913ZM179.279 522.346H164.37v14.913h14.909v-14.913ZM164.37 522.346h-14.909v14.913h14.909v-14.913ZM149.461 522.346h-14.909v14.913h14.909v-14.913ZM134.552 522.346h-14.908v14.913h14.908v-14.913ZM119.643 522.346h-14.909v14.913h14.909v-14.913Z"/><path stroke="#058CD7" stroke-miterlimit="10" d="M104.735 522.346h-14.91v14.913h14.91v-14.913Z"/><path stroke="#058CD7" stroke-miterlimit="10" d="M89.826 522.346H74.917v14.913h14.909v-14.913ZM74.917 522.346h-14.91v14.913h14.91v-14.913Z"/><path stroke="#058CD7" stroke-miterlimit="10" d="M60.008 522.346H45.099v14.913h14.909v-14.913ZM507.273 507.432h-14.909v14.914h14.909v-14.914ZM492.364 507.432h-14.908v14.914h14.908v-14.914Z"/><path stroke="#058CD7" stroke-miterlimit="10" d="M477.456 507.432h-14.909v14.914h14.909v-14.914ZM462.547 507.432h-14.909v14.914h14.909v-14.914ZM447.638 507.432h-14.909v14.914h14.909v-14.914ZM432.729 507.432H417.82v14.914h14.909v-14.914ZM417.82 507.432h-14.909v14.914h14.909v-14.914ZM402.911 507.432h-14.909v14.914h14.909v-14.914Z"/><path stroke="#058CD7" stroke-miterlimit="10" d="M388.003 507.432h-14.909v14.914h14.909v-14.914ZM373.094 507.432h-14.909v14.914h14.909v-14.914ZM358.185 507.432h-14.909v14.914h14.909v-14.914ZM343.276 507.432h-14.909v14.914h14.909v-14.914ZM328.367 507.432h-14.909v14.914h14.909v-14.914ZM313.458 507.432h-14.909v14.914h14.909v-14.914ZM298.549 507.432h-14.908v14.914h14.908v-14.914Z"/><path stroke="#058CD7" stroke-miterlimit="10" d="M283.641 507.432h-14.909v14.914h14.909v-14.914ZM268.732 507.432h-14.909v14.914h14.909v-14.914ZM253.823 507.432h-14.909v14.914h14.909v-14.914ZM238.914 507.432h-14.909v14.914h14.909v-14.914ZM224.005 507.432h-14.909v14.914h14.909v-14.914ZM209.096 507.432h-14.908v14.914h14.908v-14.914ZM194.188 507.432h-14.909v14.914h14.909v-14.914ZM179.279 507.432H164.37v14.914h14.909v-14.914ZM164.37 507.432h-14.909v14.914h14.909v-14.914ZM149.461 507.432h-14.909v14.914h14.909v-14.914ZM134.552 507.432h-14.908v14.914h14.908v-14.914ZM119.643 507.432h-14.909v14.914h14.909v-14.914Z"/><path stroke="#058CD7" stroke-miterlimit="10" d="M104.735 507.432h-14.91v14.914h14.91v-14.914Z"/><path stroke="#058CD7" stroke-miterlimit="10" d="M89.826 507.432H74.917v14.914h14.909v-14.914ZM74.917 507.432h-14.91v14.914h14.91v-14.914Z"/><path stroke="#058CD7" stroke-miterlimit="10" d="M60.008 507.432H45.099v14.914h14.909v-14.914ZM507.273 492.519h-14.909v14.913h14.909v-14.913ZM492.364 492.519h-14.908v14.913h14.908v-14.913Z"/><path stroke="#058CD7" stroke-miterlimit="10" d="M477.456 492.519h-14.909v14.913h14.909v-14.913ZM462.547 492.519h-14.909v14.913h14.909v-14.913ZM447.638 492.519h-14.909v14.913h14.909v-14.913ZM432.729 492.519H417.82v14.913h14.909v-14.913ZM417.82 492.519h-14.909v14.913h14.909v-14.913ZM402.911 492.519h-14.909v14.913h14.909v-14.913Z"/><path stroke="#058CD7" stroke-miterlimit="10" d="M388.003 492.519h-14.909v14.913h14.909v-14.913ZM373.094 492.519h-14.909v14.913h14.909v-14.913ZM358.185 492.519h-14.909v14.913h14.909v-14.913ZM343.276 492.519h-14.909v14.913h14.909v-14.913ZM328.367 492.519h-14.909v14.913h14.909v-14.913ZM313.458 492.519h-14.909v14.913h14.909v-14.913ZM298.549 492.519h-14.908v14.913h14.908v-14.913Z"/><path stroke="#058CD7" stroke-miterlimit="10" d="M283.641 492.519h-14.909v14.913h14.909v-14.913ZM268.732 492.519h-14.909v14.913h14.909v-14.913ZM253.823 492.519h-14.909v14.913h14.909v-14.913ZM238.914 492.519h-14.909v14.913h14.909v-14.913ZM224.005 492.519h-14.909v14.913h14.909v-14.913ZM209.096 492.519h-14.908v14.913h14.908v-14.913ZM194.188 492.519h-14.909v14.913h14.909v-14.913ZM179.279 492.519H164.37v14.913h14.909v-14.913ZM164.37 492.519h-14.909v14.913h14.909v-14.913ZM149.461 492.519h-14.909v14.913h14.909v-14.913ZM134.552 492.519h-14.908v14.913h14.908v-14.913ZM119.643 492.519h-14.909v14.913h14.909v-14.913Z"/><path stroke="#058CD7" stroke-miterlimit="10" d="M104.735 492.519h-14.91v14.913h14.91v-14.913Z"/><path stroke="#058CD7" stroke-miterlimit="10" d="M89.826 492.519H74.917v14.913h14.909v-14.913ZM74.917 492.519h-14.91v14.913h14.91v-14.913Z"/><path stroke="#058CD7" stroke-miterlimit="10" d="M60.008 492.519H45.099v14.913h14.909v-14.913ZM507.273 477.605h-14.909v14.914h14.909v-14.914ZM492.364 477.605h-14.908v14.914h14.908v-14.914Z"/><path stroke="#058CD7" stroke-miterlimit="10" d="M477.456 477.605h-14.909v14.914h14.909v-14.914ZM462.547 477.605h-14.909v14.914h14.909v-14.914ZM447.638 477.605h-14.909v14.914h14.909v-14.914ZM432.729 477.605H417.82v14.914h14.909v-14.914ZM417.82 477.605h-14.909v14.914h14.909v-14.914ZM402.911 477.605h-14.909v14.914h14.909v-14.914Z"/><path stroke="#058CD7" stroke-miterlimit="10" d="M388.003 477.605h-14.909v14.914h14.909v-14.914ZM373.094 477.605h-14.909v14.914h14.909v-14.914ZM358.185 477.605h-14.909v14.914h14.909v-14.914ZM343.276 477.605h-14.909v14.914h14.909v-14.914ZM328.367 477.605h-14.909v14.914h14.909v-14.914ZM313.458 477.605h-14.909v14.914h14.909v-14.914ZM298.549 477.605h-14.908v14.914h14.908v-14.914Z"/><path stroke="#058CD7" stroke-miterlimit="10" d="M283.641 477.605h-14.909v14.914h14.909v-14.914ZM268.732 477.605h-14.909v14.914h14.909v-14.914ZM253.823 477.605h-14.909v14.914h14.909v-14.914ZM238.914 477.605h-14.909v14.914h14.909v-14.914ZM224.005 477.605h-14.909v14.914h14.909v-14.914ZM209.096 477.605h-14.908v14.914h14.908v-14.914ZM194.188 477.605h-14.909v14.914h14.909v-14.914ZM179.279 477.605H164.37v14.914h14.909v-14.914ZM164.37 477.605h-14.909v14.914h14.909v-14.914ZM149.461 477.605h-14.909v14.914h14.909v-14.914ZM134.552 477.605h-14.908v14.914h14.908v-14.914ZM119.643 477.605h-14.909v14.914h14.909v-14.914Z"/><path stroke="#058CD7" stroke-miterlimit="10" d="M104.735 477.605h-14.91v14.914h14.91v-14.914Z"/><path stroke="#058CD7" stroke-miterlimit="10" d="M89.826 477.605H74.917v14.914h14.909v-14.914ZM74.917 477.605h-14.91v14.914h14.91v-14.914Z"/><path stroke="#058CD7" stroke-miterlimit="10" d="M60.008 477.605H45.099v14.914h14.909v-14.914ZM507.273 462.692h-14.909v14.913h14.909v-14.913ZM492.364 462.692h-14.908v14.913h14.908v-14.913Z"/><path stroke="#058CD7" stroke-miterlimit="10" d="M477.456 462.692h-14.909v14.913h14.909v-14.913ZM462.547 462.692h-14.909v14.913h14.909v-14.913ZM447.638 462.692h-14.909v14.913h14.909v-14.913ZM432.729 462.692H417.82v14.913h14.909v-14.913ZM417.82 462.692h-14.909v14.913h14.909v-14.913ZM402.911 462.692h-14.909v14.913h14.909v-14.913Z"/><path stroke="#058CD7" stroke-miterlimit="10" d="M388.003 462.692h-14.909v14.913h14.909v-14.913ZM373.094 462.692h-14.909v14.913h14.909v-14.913ZM358.185 462.692h-14.909v14.913h14.909v-14.913ZM343.276 462.692h-14.909v14.913h14.909v-14.913ZM328.367 462.692h-14.909v14.913h14.909v-14.913ZM313.458 462.692h-14.909v14.913h14.909v-14.913ZM298.549 462.692h-14.908v14.913h14.908v-14.913Z"/><path stroke="#058CD7" stroke-miterlimit="10" d="M283.641 462.692h-14.909v14.913h14.909v-14.913ZM268.732 462.692h-14.909v14.913h14.909v-14.913ZM253.823 462.692h-14.909v14.913h14.909v-14.913ZM238.914 462.692h-14.909v14.913h14.909v-14.913ZM224.005 462.692h-14.909v14.913h14.909v-14.913ZM209.096 462.692h-14.908v14.913h14.908v-14.913ZM194.188 462.692h-14.909v14.913h14.909v-14.913ZM179.279 462.692H164.37v14.913h14.909v-14.913ZM164.37 462.692h-14.909v14.913h14.909v-14.913ZM149.461 462.692h-14.909v14.913h14.909v-14.913ZM134.552 462.692h-14.908v14.913h14.908v-14.913ZM119.643 462.692h-14.909v14.913h14.909v-14.913Z"/><path stroke="#058CD7" stroke-miterlimit="10" d="M104.735 462.692h-14.91v14.913h14.91v-14.913Z"/><path stroke="#058CD7" stroke-miterlimit="10" d="M89.826 462.692H74.917v14.913h14.909v-14.913ZM74.917 462.692h-14.91v14.913h14.91v-14.913Z"/><path stroke="#058CD7" stroke-miterlimit="10" d="M60.008 462.692H45.099v14.913h14.909v-14.913ZM507.273 447.778h-14.909v14.914h14.909v-14.914ZM492.364 447.778h-14.908v14.914h14.908v-14.914Z"/><path stroke="#058CD7" stroke-miterlimit="10" d="M477.456 447.778h-14.909v14.914h14.909v-14.914ZM462.547 447.778h-14.909v14.914h14.909v-14.914ZM447.638 447.778h-14.909v14.914h14.909v-14.914ZM432.729 447.778H417.82v14.914h14.909v-14.914ZM417.82 447.778h-14.909v14.914h14.909v-14.914ZM402.911 447.778h-14.909v14.914h14.909v-14.914Z"/><path stroke="#058CD7" stroke-miterlimit="10" d="M388.003 447.778h-14.909v14.914h14.909v-14.914ZM373.094 447.778h-14.909v14.914h14.909v-14.914ZM358.185 447.778h-14.909v14.914h14.909v-14.914ZM343.276 447.778h-14.909v14.914h14.909v-14.914ZM328.367 447.778h-14.909v14.914h14.909v-14.914ZM313.458 447.778h-14.909v14.914h14.909v-14.914ZM298.549 447.778h-14.908v14.914h14.908v-14.914Z"/><path stroke="#058CD7" stroke-miterlimit="10" d="M283.641 447.778h-14.909v14.914h14.909v-14.914ZM268.732 447.778h-14.909v14.914h14.909v-14.914ZM253.823 447.778h-14.909v14.914h14.909v-14.914ZM238.914 447.778h-14.909v14.914h14.909v-14.914ZM224.005 447.778h-14.909v14.914h14.909v-14.914ZM209.096 447.778h-14.908v14.914h14.908v-14.914ZM194.188 447.778h-14.909v14.914h14.909v-14.914ZM179.279 447.778H164.37v14.914h14.909v-14.914ZM164.37 447.778h-14.909v14.914h14.909v-14.914ZM149.461 447.778h-14.909v14.914h14.909v-14.914ZM134.552 447.778h-14.908v14.914h14.908v-14.914ZM119.643 447.778h-14.909v14.914h14.909v-14.914Z"/><path stroke="#058CD7" stroke-miterlimit="10" d="M104.735 447.778h-14.91v14.914h14.91v-14.914Z"/><path stroke="#058CD7" stroke-miterlimit="10" d="M89.826 447.778H74.917v14.914h14.909v-14.914ZM74.917 447.778h-14.91v14.914h14.91v-14.914Z"/><path stroke="#058CD7" stroke-miterlimit="10" d="M60.008 447.778H45.099v14.914h14.909v-14.914ZM507.273 432.865h-14.909v14.913h14.909v-14.913ZM492.364 432.865h-14.908v14.913h14.908v-14.913Z"/><path stroke="#058CD7" stroke-miterlimit="10" d="M477.456 432.865h-14.909v14.913h14.909v-14.913ZM462.547 432.865h-14.909v14.913h14.909v-14.913ZM447.638 432.865h-14.909v14.913h14.909v-14.913ZM432.729 432.865H417.82v14.913h14.909v-14.913ZM417.82 432.865h-14.909v14.913h14.909v-14.913ZM402.911 432.865h-14.909v14.913h14.909v-14.913Z"/><path stroke="#058CD7" stroke-miterlimit="10" d="M388.003 432.865h-14.909v14.913h14.909v-14.913ZM373.094 432.865h-14.909v14.913h14.909v-14.913ZM358.185 432.865h-14.909v14.913h14.909v-14.913ZM343.276 432.865h-14.909v14.913h14.909v-14.913ZM328.367 432.865h-14.909v14.913h14.909v-14.913ZM313.458 432.865h-14.909v14.913h14.909v-14.913ZM298.549 432.865h-14.908v14.913h14.908v-14.913Z"/><path stroke="#058CD7" stroke-miterlimit="10" d="M283.641 432.865h-14.909v14.913h14.909v-14.913ZM268.732 432.865h-14.909v14.913h14.909v-14.913ZM253.823 432.865h-14.909v14.913h14.909v-14.913ZM238.914 432.865h-14.909v14.913h14.909v-14.913ZM224.005 432.865h-14.909v14.913h14.909v-14.913ZM209.096 432.865h-14.908v14.913h14.908v-14.913ZM194.188 432.865h-14.909v14.913h14.909v-14.913ZM179.279 432.865H164.37v14.913h14.909v-14.913ZM164.37 432.865h-14.909v14.913h14.909v-14.913ZM149.461 432.865h-14.909v14.913h14.909v-14.913ZM134.552 432.865h-14.908v14.913h14.908v-14.913ZM119.643 432.865h-14.909v14.913h14.909v-14.913Z"/><path stroke="#058CD7" stroke-miterlimit="10" d="M104.735 432.865h-14.91v14.913h14.91v-14.913Z"/><path stroke="#058CD7" stroke-miterlimit="10" d="M89.826 432.865H74.917v14.913h14.909v-14.913ZM74.917 432.865h-14.91v14.913h14.91v-14.913Z"/><path stroke="#058CD7" stroke-miterlimit="10" d="M60.008 432.865H45.099v14.913h14.909v-14.913ZM507.273 417.951h-14.909v14.914h14.909v-14.914ZM492.364 417.951h-14.908v14.914h14.908v-14.914Z"/><path stroke="#058CD7" stroke-miterlimit="10" d="M477.456 417.951h-14.909v14.914h14.909v-14.914ZM462.547 417.951h-14.909v14.914h14.909v-14.914ZM447.638 417.951h-14.909v14.914h14.909v-14.914ZM432.729 417.951H417.82v14.914h14.909v-14.914ZM417.82 417.951h-14.909v14.914h14.909v-14.914ZM402.911 417.951h-14.909v14.914h14.909v-14.914Z"/><path stroke="#058CD7" stroke-miterlimit="10" d="M388.003 417.951h-14.909v14.914h14.909v-14.914ZM373.094 417.951h-14.909v14.914h14.909v-14.914ZM358.185 417.951h-14.909v14.914h14.909v-14.914ZM343.276 417.951h-14.909v14.914h14.909v-14.914ZM328.367 417.951h-14.909v14.914h14.909v-14.914ZM313.458 417.951h-14.909v14.914h14.909v-14.914ZM298.549 417.951h-14.908v14.914h14.908v-14.914Z"/><path stroke="#058CD7" stroke-miterlimit="10" d="M283.641 417.951h-14.909v14.914h14.909v-14.914ZM268.732 417.951h-14.909v14.914h14.909v-14.914ZM253.823 417.951h-14.909v14.914h14.909v-14.914ZM238.914 417.951h-14.909v14.914h14.909v-14.914ZM224.005 417.951h-14.909v14.914h14.909v-14.914ZM209.096 417.951h-14.908v14.914h14.908v-14.914ZM194.188 417.951h-14.909v14.914h14.909v-14.914ZM179.279 417.951H164.37v14.914h14.909v-14.914ZM164.37 417.951h-14.909v14.914h14.909v-14.914ZM149.461 417.951h-14.909v14.914h14.909v-14.914ZM134.552 417.951h-14.908v14.914h14.908v-14.914ZM119.643 417.951h-14.909v14.914h14.909v-14.914Z"/><path stroke="#058CD7" stroke-miterlimit="10" d="M104.735 417.951h-14.91v14.914h14.91v-14.914Z"/><path stroke="#058CD7" stroke-miterlimit="10" d="M89.826 417.951H74.917v14.914h14.909v-14.914ZM74.917 417.951h-14.91v14.914h14.91v-14.914Z"/><path stroke="#058CD7" stroke-miterlimit="10" d="M60.008 417.951H45.099v14.914h14.909v-14.914ZM507.273 403.038h-14.909v14.913h14.909v-14.913ZM492.364 403.038h-14.908v14.913h14.908v-14.913Z"/><path stroke="#058CD7" stroke-miterlimit="10" d="M477.456 403.038h-14.909v14.913h14.909v-14.913ZM462.547 403.038h-14.909v14.913h14.909v-14.913ZM447.638 403.038h-14.909v14.913h14.909v-14.913ZM432.729 403.038H417.82v14.913h14.909v-14.913ZM417.82 403.038h-14.909v14.913h14.909v-14.913ZM402.911 403.038h-14.909v14.913h14.909v-14.913Z"/><path stroke="#058CD7" stroke-miterlimit="10" d="M388.003 403.038h-14.909v14.913h14.909v-14.913ZM373.094 403.038h-14.909v14.913h14.909v-14.913ZM358.185 403.038h-14.909v14.913h14.909v-14.913ZM343.276 403.038h-14.909v14.913h14.909v-14.913ZM328.367 403.038h-14.909v14.913h14.909v-14.913ZM313.458 403.038h-14.909v14.913h14.909v-14.913ZM298.549 403.038h-14.908v14.913h14.908v-14.913Z"/><path stroke="#058CD7" stroke-miterlimit="10" d="M283.641 403.038h-14.909v14.913h14.909v-14.913ZM268.732 403.038h-14.909v14.913h14.909v-14.913ZM253.823 403.038h-14.909v14.913h14.909v-14.913ZM238.914 403.038h-14.909v14.913h14.909v-14.913ZM224.005 403.038h-14.909v14.913h14.909v-14.913ZM209.096 403.038h-14.908v14.913h14.908v-14.913ZM194.188 403.038h-14.909v14.913h14.909v-14.913ZM179.279 403.038H164.37v14.913h14.909v-14.913ZM164.37 403.038h-14.909v14.913h14.909v-14.913ZM149.461 403.038h-14.909v14.913h14.909v-14.913ZM134.552 403.038h-14.908v14.913h14.908v-14.913ZM119.643 403.038h-14.909v14.913h14.909v-14.913Z"/><path stroke="#058CD7" stroke-miterlimit="10" d="M104.735 403.038h-14.91v14.913h14.91v-14.913Z"/><path stroke="#058CD7" stroke-miterlimit="10" d="M89.826 403.038H74.917v14.913h14.909v-14.913ZM74.917 403.038h-14.91v14.913h14.91v-14.913Z"/><path stroke="#058CD7" stroke-miterlimit="10" d="M60.008 403.038H45.099v14.913h14.909v-14.913ZM507.273 388.124h-14.909v14.914h14.909v-14.914ZM492.364 388.124h-14.908v14.914h14.908v-14.914Z"/><path stroke="#058CD7" stroke-miterlimit="10" d="M477.456 388.124h-14.909v14.914h14.909v-14.914ZM462.547 388.124h-14.909v14.914h14.909v-14.914ZM447.638 388.124h-14.909v14.914h14.909v-14.914ZM432.729 388.124H417.82v14.914h14.909v-14.914ZM417.82 388.124h-14.909v14.914h14.909v-14.914ZM402.911 388.124h-14.909v14.914h14.909v-14.914Z"/><path stroke="#058CD7" stroke-miterlimit="10" d="M388.003 388.124h-14.909v14.914h14.909v-14.914ZM373.094 388.124h-14.909v14.914h14.909v-14.914ZM358.185 388.124h-14.909v14.914h14.909v-14.914ZM343.276 388.124h-14.909v14.914h14.909v-14.914ZM328.367 388.124h-14.909v14.914h14.909v-14.914ZM313.458 388.124h-14.909v14.914h14.909v-14.914ZM298.549 388.124h-14.908v14.914h14.908v-14.914Z"/><path stroke="#058CD7" stroke-miterlimit="10" d="M283.641 388.124h-14.909v14.914h14.909v-14.914ZM268.732 388.124h-14.909v14.914h14.909v-14.914ZM253.823 388.124h-14.909v14.914h14.909v-14.914ZM238.914 388.124h-14.909v14.914h14.909v-14.914ZM224.005 388.124h-14.909v14.914h14.909v-14.914ZM209.096 388.124h-14.908v14.914h14.908v-14.914ZM194.188 388.124h-14.909v14.914h14.909v-14.914ZM179.279 388.124H164.37v14.914h14.909v-14.914ZM164.37 388.124h-14.909v14.914h14.909v-14.914ZM149.461 388.124h-14.909v14.914h14.909v-14.914ZM134.552 388.124h-14.908v14.914h14.908v-14.914ZM119.643 388.124h-14.909v14.914h14.909v-14.914Z"/><path stroke="#058CD7" stroke-miterlimit="10" d="M104.735 388.124h-14.91v14.914h14.91v-14.914Z"/><path stroke="#058CD7" stroke-miterlimit="10" d="M89.826 388.124H74.917v14.914h14.909v-14.914ZM74.917 388.124h-14.91v14.914h14.91v-14.914Z"/><path stroke="#058CD7" stroke-miterlimit="10" d="M60.008 388.124H45.099v14.914h14.909v-14.914ZM507.273 373.211h-14.909v14.913h14.909v-14.913ZM492.364 373.211h-14.908v14.913h14.908v-14.913Z"/><path stroke="#058CD7" stroke-miterlimit="10" d="M477.456 373.211h-14.909v14.913h14.909v-14.913ZM462.547 373.211h-14.909v14.913h14.909v-14.913ZM447.638 373.211h-14.909v14.913h14.909v-14.913ZM432.729 373.211H417.82v14.913h14.909v-14.913ZM417.82 373.211h-14.909v14.913h14.909v-14.913ZM402.911 373.211h-14.909v14.913h14.909v-14.913Z"/><path stroke="#058CD7" stroke-miterlimit="10" d="M388.003 373.211h-14.909v14.913h14.909v-14.913ZM373.094 373.211h-14.909v14.913h14.909v-14.913ZM358.185 373.211h-14.909v14.913h14.909v-14.913ZM343.276 373.211h-14.909v14.913h14.909v-14.913ZM328.367 373.211h-14.909v14.913h14.909v-14.913ZM313.458 373.211h-14.909v14.913h14.909v-14.913ZM298.549 373.211h-14.908v14.913h14.908v-14.913Z"/><path stroke="#058CD7" stroke-miterlimit="10" d="M283.641 373.211h-14.909v14.913h14.909v-14.913ZM268.732 373.211h-14.909v14.913h14.909v-14.913ZM253.823 373.211h-14.909v14.913h14.909v-14.913ZM238.914 373.211h-14.909v14.913h14.909v-14.913ZM224.005 373.211h-14.909v14.913h14.909v-14.913ZM209.096 373.211h-14.908v14.913h14.908v-14.913ZM194.188 373.211h-14.909v14.913h14.909v-14.913ZM179.279 373.211H164.37v14.913h14.909v-14.913ZM164.37 373.211h-14.909v14.913h14.909v-14.913ZM149.461 373.211h-14.909v14.913h14.909v-14.913ZM134.552 373.211h-14.908v14.913h14.908v-14.913ZM119.643 373.211h-14.909v14.913h14.909v-14.913Z"/><path stroke="#058CD7" stroke-miterlimit="10" d="M104.735 373.211h-14.91v14.913h14.91v-14.913Z"/><path stroke="#058CD7" stroke-miterlimit="10" d="M89.826 373.211H74.917v14.913h14.909v-14.913ZM74.917 373.211h-14.91v14.913h14.91v-14.913Z"/><path stroke="#058CD7" stroke-miterlimit="10" d="M60.008 373.211H45.099v14.913h14.909v-14.913ZM507.273 358.297h-14.909v14.914h14.909v-14.914ZM492.364 358.297h-14.908v14.914h14.908v-14.914Z"/><path stroke="#058CD7" stroke-miterlimit="10" d="M477.456 358.297h-14.909v14.914h14.909v-14.914ZM462.547 358.297h-14.909v14.914h14.909v-14.914ZM447.638 358.297h-14.909v14.914h14.909v-14.914ZM432.729 358.297H417.82v14.914h14.909v-14.914ZM417.82 358.297h-14.909v14.914h14.909v-14.914ZM402.911 358.297h-14.909v14.914h14.909v-14.914Z"/><path stroke="#058CD7" stroke-miterlimit="10" d="M388.003 358.297h-14.909v14.914h14.909v-14.914ZM373.094 358.297h-14.909v14.914h14.909v-14.914ZM358.185 358.297h-14.909v14.914h14.909v-14.914ZM343.276 358.297h-14.909v14.914h14.909v-14.914ZM328.367 358.297h-14.909v14.914h14.909v-14.914ZM313.458 358.297h-14.909v14.914h14.909v-14.914ZM298.549 358.297h-14.908v14.914h14.908v-14.914Z"/><path stroke="#058CD7" stroke-miterlimit="10" d="M283.641 358.297h-14.909v14.914h14.909v-14.914ZM268.732 358.297h-14.909v14.914h14.909v-14.914ZM253.823 358.297h-14.909v14.914h14.909v-14.914ZM238.914 358.297h-14.909v14.914h14.909v-14.914ZM224.005 358.297h-14.909v14.914h14.909v-14.914ZM209.096 358.297h-14.908v14.914h14.908v-14.914ZM194.188 358.297h-14.909v14.914h14.909v-14.914ZM179.279 358.297H164.37v14.914h14.909v-14.914ZM164.37 358.297h-14.909v14.914h14.909v-14.914ZM149.461 358.297h-14.909v14.914h14.909v-14.914ZM134.552 358.297h-14.908v14.914h14.908v-14.914ZM119.643 358.297h-14.909v14.914h14.909v-14.914Z"/><path stroke="#058CD7" stroke-miterlimit="10" d="M104.735 358.297h-14.91v14.914h14.91v-14.914Z"/><path stroke="#058CD7" stroke-miterlimit="10" d="M89.826 358.297H74.917v14.914h14.909v-14.914ZM74.917 358.297h-14.91v14.914h14.91v-14.914Z"/><path stroke="#058CD7" stroke-miterlimit="10" d="M60.008 358.297H45.099v14.914h14.909v-14.914ZM507.273 343.384h-14.909v14.913h14.909v-14.913ZM492.364 343.384h-14.908v14.913h14.908v-14.913Z"/><path stroke="#058CD7" stroke-miterlimit="10" d="M477.456 343.384h-14.909v14.913h14.909v-14.913ZM462.547 343.384h-14.909v14.913h14.909v-14.913ZM447.638 343.384h-14.909v14.913h14.909v-14.913ZM432.729 343.384H417.82v14.913h14.909v-14.913ZM417.82 343.384h-14.909v14.913h14.909v-14.913ZM402.911 343.384h-14.909v14.913h14.909v-14.913Z"/><path stroke="#058CD7" stroke-miterlimit="10" d="M388.003 343.384h-14.909v14.913h14.909v-14.913ZM373.094 343.384h-14.909v14.913h14.909v-14.913ZM358.185 343.384h-14.909v14.913h14.909v-14.913ZM343.276 343.384h-14.909v14.913h14.909v-14.913ZM328.367 343.384h-14.909v14.913h14.909v-14.913ZM313.458 343.384h-14.909v14.913h14.909v-14.913ZM298.549 343.384h-14.908v14.913h14.908v-14.913Z"/><path stroke="#058CD7" stroke-miterlimit="10" d="M283.641 343.384h-14.909v14.913h14.909v-14.913ZM268.732 343.384h-14.909v14.913h14.909v-14.913ZM253.823 343.384h-14.909v14.913h14.909v-14.913ZM238.914 343.384h-14.909v14.913h14.909v-14.913ZM224.005 343.384h-14.909v14.913h14.909v-14.913ZM209.096 343.384h-14.908v14.913h14.908v-14.913ZM194.188 343.384h-14.909v14.913h14.909v-14.913ZM179.279 343.384H164.37v14.913h14.909v-14.913ZM164.37 343.384h-14.909v14.913h14.909v-14.913ZM149.461 343.384h-14.909v14.913h14.909v-14.913ZM134.552 343.384h-14.908v14.913h14.908v-14.913ZM119.643 343.384h-14.909v14.913h14.909v-14.913Z"/><path stroke="#058CD7" stroke-miterlimit="10" d="M104.735 343.384h-14.91v14.913h14.91v-14.913Z"/><path stroke="#058CD7" stroke-miterlimit="10" d="M89.826 343.384H74.917v14.913h14.909v-14.913ZM74.917 343.384h-14.91v14.913h14.91v-14.913Z"/><path stroke="#058CD7" stroke-miterlimit="10" d="M60.008 343.384H45.099v14.913h14.909v-14.913ZM507.273 328.47h-14.909v14.914h14.909V328.47ZM492.364 328.47h-14.908v14.914h14.908V328.47Z"/><path stroke="#058CD7" stroke-miterlimit="10" d="M477.456 328.47h-14.909v14.914h14.909V328.47ZM462.547 328.47h-14.909v14.914h14.909V328.47ZM447.638 328.47h-14.909v14.914h14.909V328.47ZM432.729 328.47H417.82v14.914h14.909V328.47ZM417.82 328.47h-14.909v14.914h14.909V328.47ZM402.911 328.47h-14.909v14.914h14.909V328.47Z"/><path stroke="#058CD7" stroke-miterlimit="10" d="M388.003 328.47h-14.909v14.914h14.909V328.47ZM373.094 328.47h-14.909v14.914h14.909V328.47ZM358.185 328.47h-14.909v14.914h14.909V328.47ZM343.276 328.47h-14.909v14.914h14.909V328.47ZM328.367 328.47h-14.909v14.914h14.909V328.47ZM313.458 328.47h-14.909v14.914h14.909V328.47ZM298.549 328.47h-14.908v14.914h14.908V328.47Z"/><path stroke="#058CD7" stroke-miterlimit="10" d="M283.641 328.47h-14.909v14.914h14.909V328.47ZM268.732 328.47h-14.909v14.914h14.909V328.47ZM253.823 328.47h-14.909v14.914h14.909V328.47ZM238.914 328.47h-14.909v14.914h14.909V328.47ZM224.005 328.47h-14.909v14.914h14.909V328.47ZM209.096 328.47h-14.908v14.914h14.908V328.47ZM194.188 328.47h-14.909v14.914h14.909V328.47ZM179.279 328.47H164.37v14.914h14.909V328.47ZM164.37 328.47h-14.909v14.914h14.909V328.47ZM149.461 328.47h-14.909v14.914h14.909V328.47ZM134.552 328.47h-14.908v14.914h14.908V328.47ZM119.643 328.47h-14.909v14.914h14.909V328.47Z"/><path stroke="#058CD7" stroke-miterlimit="10" d="M104.735 328.47h-14.91v14.914h14.91V328.47Z"/><path stroke="#058CD7" stroke-miterlimit="10" d="M89.826 328.47H74.917v14.914h14.909V328.47ZM74.917 328.47h-14.91v14.914h14.91V328.47Z"/><path stroke="#058CD7" stroke-miterlimit="10" d="M60.008 328.47H45.099v14.914h14.909V328.47ZM507.273 313.557h-14.909v14.913h14.909v-14.913ZM492.364 313.557h-14.908v14.913h14.908v-14.913Z"/><path stroke="#058CD7" stroke-miterlimit="10" d="M477.456 313.557h-14.909v14.913h14.909v-14.913ZM462.547 313.557h-14.909v14.913h14.909v-14.913ZM447.638 313.557h-14.909v14.913h14.909v-14.913ZM432.729 313.557H417.82v14.913h14.909v-14.913ZM417.82 313.557h-14.909v14.913h14.909v-14.913ZM402.911 313.557h-14.909v14.913h14.909v-14.913Z"/><path stroke="#058CD7" stroke-miterlimit="10" d="M388.003 313.557h-14.909v14.913h14.909v-14.913ZM373.094 313.557h-14.909v14.913h14.909v-14.913ZM358.185 313.557h-14.909v14.913h14.909v-14.913ZM343.276 313.557h-14.909v14.913h14.909v-14.913ZM328.367 313.557h-14.909v14.913h14.909v-14.913ZM313.458 313.557h-14.909v14.913h14.909v-14.913ZM298.549 313.557h-14.908v14.913h14.908v-14.913Z"/><path stroke="#058CD7" stroke-miterlimit="10" d="M283.641 313.557h-14.909v14.913h14.909v-14.913ZM268.732 313.557h-14.909v14.913h14.909v-14.913ZM253.823 313.557h-14.909v14.913h14.909v-14.913ZM238.914 313.557h-14.909v14.913h14.909v-14.913ZM224.005 313.557h-14.909v14.913h14.909v-14.913ZM209.096 313.557h-14.908v14.913h14.908v-14.913ZM194.188 313.557h-14.909v14.913h14.909v-14.913ZM179.279 313.557H164.37v14.913h14.909v-14.913ZM164.37 313.557h-14.909v14.913h14.909v-14.913ZM149.461 313.557h-14.909v14.913h14.909v-14.913ZM134.552 313.557h-14.908v14.913h14.908v-14.913ZM119.643 313.557h-14.909v14.913h14.909v-14.913Z"/><path stroke="#058CD7" stroke-miterlimit="10" d="M104.735 313.557h-14.91v14.913h14.91v-14.913Z"/><path stroke="#058CD7" stroke-miterlimit="10" d="M89.826 313.557H74.917v14.913h14.909v-14.913ZM74.917 313.557h-14.91v14.913h14.91v-14.913Z"/><path stroke="#058CD7" stroke-miterlimit="10" d="M60.008 313.557H45.099v14.913h14.909v-14.913ZM507.273 298.643h-14.909v14.914h14.909v-14.914ZM492.364 298.643h-14.908v14.914h14.908v-14.914Z"/><path stroke="#058CD7" stroke-miterlimit="10" d="M477.456 298.643h-14.909v14.914h14.909v-14.914ZM462.547 298.643h-14.909v14.914h14.909v-14.914ZM447.638 298.643h-14.909v14.914h14.909v-14.914ZM432.729 298.643H417.82v14.914h14.909v-14.914ZM417.82 298.643h-14.909v14.914h14.909v-14.914ZM402.911 298.643h-14.909v14.914h14.909v-14.914Z"/><path stroke="#058CD7" stroke-miterlimit="10" d="M388.003 298.643h-14.909v14.914h14.909v-14.914ZM373.094 298.643h-14.909v14.914h14.909v-14.914ZM358.185 298.643h-14.909v14.914h14.909v-14.914ZM343.276 298.643h-14.909v14.914h14.909v-14.914ZM328.367 298.643h-14.909v14.914h14.909v-14.914ZM313.458 298.643h-14.909v14.914h14.909v-14.914ZM298.549 298.643h-14.908v14.914h14.908v-14.914Z"/><path stroke="#058CD7" stroke-miterlimit="10" d="M283.641 298.643h-14.909v14.914h14.909v-14.914ZM268.732 298.643h-14.909v14.914h14.909v-14.914ZM253.823 298.643h-14.909v14.914h14.909v-14.914ZM238.914 298.643h-14.909v14.914h14.909v-14.914ZM224.005 298.643h-14.909v14.914h14.909v-14.914ZM209.096 298.643h-14.908v14.914h14.908v-14.914ZM194.188 298.643h-14.909v14.914h14.909v-14.914ZM179.279 298.643H164.37v14.914h14.909v-14.914ZM164.37 298.643h-14.909v14.914h14.909v-14.914ZM149.461 298.643h-14.909v14.914h14.909v-14.914ZM134.552 298.643h-14.908v14.914h14.908v-14.914ZM119.643 298.643h-14.909v14.914h14.909v-14.914Z"/><path stroke="#058CD7" stroke-miterlimit="10" d="M104.735 298.643h-14.91v14.914h14.91v-14.914Z"/><path stroke="#058CD7" stroke-miterlimit="10" d="M89.826 298.643H74.917v14.914h14.909v-14.914ZM74.917 298.643h-14.91v14.914h14.91v-14.914Z"/><path stroke="#058CD7" stroke-miterlimit="10" d="M60.008 298.643H45.099v14.914h14.909v-14.914ZM507.273 283.73h-14.909v14.913h14.909V283.73ZM492.364 283.73h-14.908v14.913h14.908V283.73Z"/><path stroke="#058CD7" stroke-miterlimit="10" d="M477.456 283.73h-14.909v14.913h14.909V283.73ZM462.547 283.73h-14.909v14.913h14.909V283.73ZM447.638 283.73h-14.909v14.913h14.909V283.73ZM432.729 283.73H417.82v14.913h14.909V283.73ZM417.82 283.73h-14.909v14.913h14.909V283.73ZM402.911 283.73h-14.909v14.913h14.909V283.73Z"/><path stroke="#058CD7" stroke-miterlimit="10" d="M388.003 283.73h-14.909v14.913h14.909V283.73ZM373.094 283.73h-14.909v14.913h14.909V283.73ZM358.185 283.73h-14.909v14.913h14.909V283.73ZM343.276 283.73h-14.909v14.913h14.909V283.73ZM328.367 283.73h-14.909v14.913h14.909V283.73ZM313.458 283.73h-14.909v14.913h14.909V283.73ZM298.549 283.73h-14.908v14.913h14.908V283.73Z"/><path stroke="#058CD7" stroke-miterlimit="10" d="M283.641 283.73h-14.909v14.913h14.909V283.73ZM268.732 283.73h-14.909v14.913h14.909V283.73ZM253.823 283.73h-14.909v14.913h14.909V283.73ZM238.914 283.73h-14.909v14.913h14.909V283.73ZM224.005 283.73h-14.909v14.913h14.909V283.73ZM209.096 283.73h-14.908v14.913h14.908V283.73ZM194.188 283.73h-14.909v14.913h14.909V283.73ZM179.279 283.73H164.37v14.913h14.909V283.73ZM164.37 283.73h-14.909v14.913h14.909V283.73ZM149.461 283.73h-14.909v14.913h14.909V283.73ZM134.552 283.73h-14.908v14.913h14.908V283.73ZM119.643 283.73h-14.909v14.913h14.909V283.73Z"/><path stroke="#058CD7" stroke-miterlimit="10" d="M104.735 283.73h-14.91v14.913h14.91V283.73Z"/><path stroke="#058CD7" stroke-miterlimit="10" d="M89.826 283.73H74.917v14.913h14.909V283.73ZM74.917 283.73h-14.91v14.913h14.91V283.73Z"/><path stroke="#058CD7" stroke-miterlimit="10" d="M60.008 283.73H45.099v14.913h14.909V283.73ZM507.273 268.816h-14.909v14.914h14.909v-14.914ZM492.364 268.816h-14.908v14.914h14.908v-14.914Z"/><path stroke="#058CD7" stroke-miterlimit="10" d="M477.456 268.816h-14.909v14.914h14.909v-14.914ZM462.547 268.816h-14.909v14.914h14.909v-14.914ZM447.638 268.816h-14.909v14.914h14.909v-14.914ZM432.729 268.816H417.82v14.914h14.909v-14.914ZM417.82 268.816h-14.909v14.914h14.909v-14.914ZM402.911 268.816h-14.909v14.914h14.909v-14.914Z"/><path stroke="#058CD7" stroke-miterlimit="10" d="M388.003 268.816h-14.909v14.914h14.909v-14.914ZM373.094 268.816h-14.909v14.914h14.909v-14.914ZM358.185 268.816h-14.909v14.914h14.909v-14.914ZM343.276 268.816h-14.909v14.914h14.909v-14.914ZM328.367 268.816h-14.909v14.914h14.909v-14.914ZM313.458 268.816h-14.909v14.914h14.909v-14.914ZM298.549 268.816h-14.908v14.914h14.908v-14.914Z"/><path stroke="#058CD7" stroke-miterlimit="10" d="M283.641 268.816h-14.909v14.914h14.909v-14.914ZM268.732 268.816h-14.909v14.914h14.909v-14.914ZM253.823 268.816h-14.909v14.914h14.909v-14.914ZM238.914 268.816h-14.909v14.914h14.909v-14.914ZM224.005 268.816h-14.909v14.914h14.909v-14.914ZM209.096 268.816h-14.908v14.914h14.908v-14.914ZM194.188 268.816h-14.909v14.914h14.909v-14.914ZM179.279 268.816H164.37v14.914h14.909v-14.914ZM164.37 268.816h-14.909v14.914h14.909v-14.914ZM149.461 268.816h-14.909v14.914h14.909v-14.914ZM134.552 268.816h-14.908v14.914h14.908v-14.914ZM119.643 268.816h-14.909v14.914h14.909v-14.914Z"/><path stroke="#058CD7" stroke-miterlimit="10" d="M104.735 268.816h-14.91v14.914h14.91v-14.914Z"/><path stroke="#058CD7" stroke-miterlimit="10" d="M89.826 268.816H74.917v14.914h14.909v-14.914ZM74.917 268.816h-14.91v14.914h14.91v-14.914Z"/><path stroke="#058CD7" stroke-miterlimit="10" d="M60.008 268.816H45.099v14.914h14.909v-14.914ZM507.273 253.903h-14.909v14.913h14.909v-14.913ZM492.364 253.903h-14.908v14.913h14.908v-14.913Z"/><path stroke="#058CD7" stroke-miterlimit="10" d="M477.456 253.903h-14.909v14.913h14.909v-14.913ZM462.547 253.903h-14.909v14.913h14.909v-14.913ZM447.638 253.903h-14.909v14.913h14.909v-14.913ZM432.729 253.903H417.82v14.913h14.909v-14.913ZM417.82 253.903h-14.909v14.913h14.909v-14.913ZM402.911 253.903h-14.909v14.913h14.909v-14.913Z"/><path stroke="#058CD7" stroke-miterlimit="10" d="M388.003 253.903h-14.909v14.913h14.909v-14.913ZM373.094 253.903h-14.909v14.913h14.909v-14.913ZM358.185 253.903h-14.909v14.913h14.909v-14.913ZM343.276 253.903h-14.909v14.913h14.909v-14.913ZM328.367 253.903h-14.909v14.913h14.909v-14.913ZM313.458 253.903h-14.909v14.913h14.909v-14.913ZM298.549 253.903h-14.908v14.913h14.908v-14.913Z"/><path stroke="#058CD7" stroke-miterlimit="10" d="M283.641 253.903h-14.909v14.913h14.909v-14.913ZM268.732 253.903h-14.909v14.913h14.909v-14.913ZM253.823 253.903h-14.909v14.913h14.909v-14.913ZM238.914 253.903h-14.909v14.913h14.909v-14.913ZM224.005 253.903h-14.909v14.913h14.909v-14.913ZM209.096 253.903h-14.908v14.913h14.908v-14.913ZM194.188 253.903h-14.909v14.913h14.909v-14.913ZM179.279 253.903H164.37v14.913h14.909v-14.913ZM164.37 253.903h-14.909v14.913h14.909v-14.913ZM149.461 253.903h-14.909v14.913h14.909v-14.913ZM134.552 253.903h-14.908v14.913h14.908v-14.913ZM119.643 253.903h-14.909v14.913h14.909v-14.913Z"/><path stroke="#058CD7" stroke-miterlimit="10" d="M104.735 253.903h-14.91v14.913h14.91v-14.913Z"/><path stroke="#058CD7" stroke-miterlimit="10" d="M89.826 253.903H74.917v14.913h14.909v-14.913ZM74.917 253.903h-14.91v14.913h14.91v-14.913Z"/><path stroke="#058CD7" stroke-miterlimit="10" d="M60.008 253.903H45.099v14.913h14.909v-14.913ZM507.273 238.989h-14.909v14.914h14.909v-14.914ZM492.364 238.989h-14.908v14.914h14.908v-14.914Z"/><path stroke="#058CD7" stroke-miterlimit="10" d="M477.456 238.989h-14.909v14.914h14.909v-14.914ZM462.547 238.989h-14.909v14.914h14.909v-14.914ZM447.638 238.989h-14.909v14.914h14.909v-14.914ZM432.729 238.989H417.82v14.914h14.909v-14.914ZM417.82 238.989h-14.909v14.914h14.909v-14.914ZM402.911 238.989h-14.909v14.914h14.909v-14.914Z"/><path stroke="#058CD7" stroke-miterlimit="10" d="M388.003 238.989h-14.909v14.914h14.909v-14.914ZM373.094 238.989h-14.909v14.914h14.909v-14.914ZM358.185 238.989h-14.909v14.914h14.909v-14.914ZM343.276 238.989h-14.909v14.914h14.909v-14.914ZM328.367 238.989h-14.909v14.914h14.909v-14.914ZM313.458 238.989h-14.909v14.914h14.909v-14.914ZM298.549 238.989h-14.908v14.914h14.908v-14.914Z"/><path stroke="#058CD7" stroke-miterlimit="10" d="M283.641 238.989h-14.909v14.914h14.909v-14.914ZM268.732 238.989h-14.909v14.914h14.909v-14.914ZM253.823 238.989h-14.909v14.914h14.909v-14.914ZM238.914 238.989h-14.909v14.914h14.909v-14.914ZM224.005 238.989h-14.909v14.914h14.909v-14.914ZM209.096 238.989h-14.908v14.914h14.908v-14.914ZM194.188 238.989h-14.909v14.914h14.909v-14.914ZM179.279 238.989H164.37v14.914h14.909v-14.914ZM164.37 238.989h-14.909v14.914h14.909v-14.914ZM149.461 238.989h-14.909v14.914h14.909v-14.914ZM134.552 238.989h-14.908v14.914h14.908v-14.914ZM119.643 238.989h-14.909v14.914h14.909v-14.914Z"/><path stroke="#058CD7" stroke-miterlimit="10" d="M104.735 238.989h-14.91v14.914h14.91v-14.914Z"/><path stroke="#058CD7" stroke-miterlimit="10" d="M89.826 238.989H74.917v14.914h14.909v-14.914ZM74.917 238.989h-14.91v14.914h14.91v-14.914Z"/><path stroke="#058CD7" stroke-miterlimit="10" d="M60.008 238.989H45.099v14.914h14.909v-14.914ZM507.273 224.076h-14.909v14.913h14.909v-14.913ZM492.364 224.076h-14.908v14.913h14.908v-14.913Z"/><path stroke="#058CD7" stroke-miterlimit="10" d="M477.456 224.076h-14.909v14.913h14.909v-14.913ZM462.547 224.076h-14.909v14.913h14.909v-14.913ZM447.638 224.076h-14.909v14.913h14.909v-14.913ZM432.729 224.076H417.82v14.913h14.909v-14.913ZM417.82 224.076h-14.909v14.913h14.909v-14.913ZM402.911 224.076h-14.909v14.913h14.909v-14.913Z"/><path stroke="#058CD7" stroke-miterlimit="10" d="M388.003 224.076h-14.909v14.913h14.909v-14.913ZM373.094 224.076h-14.909v14.913h14.909v-14.913ZM358.185 224.076h-14.909v14.913h14.909v-14.913ZM343.276 224.076h-14.909v14.913h14.909v-14.913ZM328.367 224.076h-14.909v14.913h14.909v-14.913ZM313.458 224.076h-14.909v14.913h14.909v-14.913ZM298.549 224.076h-14.908v14.913h14.908v-14.913Z"/><path stroke="#058CD7" stroke-miterlimit="10" d="M283.641 224.076h-14.909v14.913h14.909v-14.913ZM268.732 224.076h-14.909v14.913h14.909v-14.913ZM253.823 224.076h-14.909v14.913h14.909v-14.913ZM238.914 224.076h-14.909v14.913h14.909v-14.913ZM224.005 224.076h-14.909v14.913h14.909v-14.913ZM209.096 224.076h-14.908v14.913h14.908v-14.913ZM194.188 224.076h-14.909v14.913h14.909v-14.913ZM179.279 224.076H164.37v14.913h14.909v-14.913ZM164.37 224.076h-14.909v14.913h14.909v-14.913ZM149.461 224.076h-14.909v14.913h14.909v-14.913ZM134.552 224.076h-14.908v14.913h14.908v-14.913ZM119.643 224.076h-14.909v14.913h14.909v-14.913Z"/><path stroke="#058CD7" stroke-miterlimit="10" d="M104.735 224.076h-14.91v14.913h14.91v-14.913Z"/><path stroke="#058CD7" stroke-miterlimit="10" d="M89.826 224.076H74.917v14.913h14.909v-14.913ZM74.917 224.076h-14.91v14.913h14.91v-14.913Z"/><path stroke="#058CD7" stroke-miterlimit="10" d="M60.008 224.076H45.099v14.913h14.909v-14.913ZM507.273 209.162h-14.909v14.914h14.909v-14.914ZM492.364 209.162h-14.908v14.914h14.908v-14.914Z"/><path stroke="#058CD7" stroke-miterlimit="10" d="M477.456 209.162h-14.909v14.914h14.909v-14.914ZM462.547 209.162h-14.909v14.914h14.909v-14.914ZM447.638 209.162h-14.909v14.914h14.909v-14.914ZM432.729 209.162H417.82v14.914h14.909v-14.914ZM417.82 209.162h-14.909v14.914h14.909v-14.914ZM402.911 209.162h-14.909v14.914h14.909v-14.914Z"/><path stroke="#058CD7" stroke-miterlimit="10" d="M388.003 209.162h-14.909v14.914h14.909v-14.914ZM373.094 209.162h-14.909v14.914h14.909v-14.914ZM358.185 209.162h-14.909v14.914h14.909v-14.914ZM343.276 209.162h-14.909v14.914h14.909v-14.914ZM328.367 209.162h-14.909v14.914h14.909v-14.914ZM313.458 209.162h-14.909v14.914h14.909v-14.914ZM298.549 209.162h-14.908v14.914h14.908v-14.914Z"/><path stroke="#058CD7" stroke-miterlimit="10" d="M283.641 209.162h-14.909v14.914h14.909v-14.914ZM268.732 209.162h-14.909v14.914h14.909v-14.914ZM253.823 209.162h-14.909v14.914h14.909v-14.914ZM238.914 209.162h-14.909v14.914h14.909v-14.914ZM224.005 209.162h-14.909v14.914h14.909v-14.914ZM209.096 209.162h-14.908v14.914h14.908v-14.914ZM194.188 209.162h-14.909v14.914h14.909v-14.914ZM179.279 209.162H164.37v14.914h14.909v-14.914ZM164.37 209.162h-14.909v14.914h14.909v-14.914ZM149.461 209.162h-14.909v14.914h14.909v-14.914ZM134.552 209.162h-14.908v14.914h14.908v-14.914ZM119.643 209.162h-14.909v14.914h14.909v-14.914Z"/><path stroke="#058CD7" stroke-miterlimit="10" d="M104.735 209.162h-14.91v14.914h14.91v-14.914Z"/><path stroke="#058CD7" stroke-miterlimit="10" d="M89.826 209.162H74.917v14.914h14.909v-14.914ZM74.917 209.162h-14.91v14.914h14.91v-14.914Z"/><path stroke="#058CD7" stroke-miterlimit="10" d="M60.008 209.162H45.099v14.914h14.909v-14.914ZM507.273 194.249h-14.909v14.913h14.909v-14.913ZM492.364 194.249h-14.908v14.913h14.908v-14.913Z"/><path stroke="#058CD7" stroke-miterlimit="10" d="M477.456 194.249h-14.909v14.913h14.909v-14.913ZM462.547 194.249h-14.909v14.913h14.909v-14.913ZM447.638 194.249h-14.909v14.913h14.909v-14.913ZM432.729 194.249H417.82v14.913h14.909v-14.913ZM417.82 194.249h-14.909v14.913h14.909v-14.913ZM402.911 194.249h-14.909v14.913h14.909v-14.913Z"/><path stroke="#058CD7" stroke-miterlimit="10" d="M388.003 194.249h-14.909v14.913h14.909v-14.913ZM373.094 194.249h-14.909v14.913h14.909v-14.913ZM358.185 194.249h-14.909v14.913h14.909v-14.913ZM343.276 194.249h-14.909v14.913h14.909v-14.913ZM328.367 194.249h-14.909v14.913h14.909v-14.913ZM313.458 194.249h-14.909v14.913h14.909v-14.913ZM298.549 194.249h-14.908v14.913h14.908v-14.913Z"/><path stroke="#058CD7" stroke-miterlimit="10" d="M283.641 194.249h-14.909v14.913h14.909v-14.913ZM268.732 194.249h-14.909v14.913h14.909v-14.913ZM253.823 194.249h-14.909v14.913h14.909v-14.913ZM238.914 194.249h-14.909v14.913h14.909v-14.913ZM224.005 194.249h-14.909v14.913h14.909v-14.913ZM209.096 194.249h-14.908v14.913h14.908v-14.913ZM194.188 194.249h-14.909v14.913h14.909v-14.913ZM179.279 194.249H164.37v14.913h14.909v-14.913ZM164.37 194.249h-14.909v14.913h14.909v-14.913ZM149.461 194.249h-14.909v14.913h14.909v-14.913ZM134.552 194.249h-14.908v14.913h14.908v-14.913ZM119.643 194.249h-14.909v14.913h14.909v-14.913Z"/><path stroke="#058CD7" stroke-miterlimit="10" d="M104.735 194.249h-14.91v14.913h14.91v-14.913Z"/><path stroke="#058CD7" stroke-miterlimit="10" d="M89.826 194.249H74.917v14.913h14.909v-14.913ZM74.917 194.249h-14.91v14.913h14.91v-14.913Z"/><path stroke="#058CD7" stroke-miterlimit="10" d="M60.008 194.249H45.099v14.913h14.909v-14.913ZM507.273 179.335h-14.909v14.913h14.909v-14.913ZM492.364 179.335h-14.908v14.913h14.908v-14.913Z"/><path stroke="#058CD7" stroke-miterlimit="10" d="M477.456 179.335h-14.909v14.913h14.909v-14.913ZM462.547 179.335h-14.909v14.913h14.909v-14.913ZM447.638 179.335h-14.909v14.913h14.909v-14.913ZM432.729 179.335H417.82v14.913h14.909v-14.913ZM417.82 179.335h-14.909v14.913h14.909v-14.913ZM402.911 179.335h-14.909v14.913h14.909v-14.913Z"/><path stroke="#058CD7" stroke-miterlimit="10" d="M388.003 179.335h-14.909v14.913h14.909v-14.913ZM373.094 179.335h-14.909v14.913h14.909v-14.913ZM358.185 179.335h-14.909v14.913h14.909v-14.913ZM343.276 179.335h-14.909v14.913h14.909v-14.913ZM328.367 179.335h-14.909v14.913h14.909v-14.913ZM313.458 179.335h-14.909v14.913h14.909v-14.913ZM298.549 179.335h-14.908v14.913h14.908v-14.913Z"/><path stroke="#058CD7" stroke-miterlimit="10" d="M283.641 179.335h-14.909v14.913h14.909v-14.913ZM268.732 179.335h-14.909v14.913h14.909v-14.913ZM253.823 179.335h-14.909v14.913h14.909v-14.913ZM238.914 179.335h-14.909v14.913h14.909v-14.913ZM224.005 179.335h-14.909v14.913h14.909v-14.913ZM209.096 179.335h-14.908v14.913h14.908v-14.913ZM194.188 179.335h-14.909v14.913h14.909v-14.913ZM179.279 179.335H164.37v14.913h14.909v-14.913ZM164.37 179.335h-14.909v14.913h14.909v-14.913ZM149.461 179.335h-14.909v14.913h14.909v-14.913ZM134.552 179.335h-14.908v14.913h14.908v-14.913ZM119.643 179.335h-14.909v14.913h14.909v-14.913Z"/><path stroke="#058CD7" stroke-miterlimit="10" d="M104.735 179.335h-14.91v14.913h14.91v-14.913Z"/><path stroke="#058CD7" stroke-miterlimit="10" d="M89.826 179.335H74.917v14.913h14.909v-14.913ZM74.917 179.335h-14.91v14.913h14.91v-14.913Z"/><path stroke="#058CD7" stroke-miterlimit="10" d="M60.008 179.335H45.099v14.913h14.909v-14.913ZM507.273 164.422h-14.909v14.913h14.909v-14.913ZM492.364 164.422h-14.908v14.913h14.908v-14.913Z"/><path stroke="#058CD7" stroke-miterlimit="10" d="M477.456 164.422h-14.909v14.913h14.909v-14.913ZM462.547 164.422h-14.909v14.913h14.909v-14.913ZM447.638 164.422h-14.909v14.913h14.909v-14.913ZM432.729 164.422H417.82v14.913h14.909v-14.913ZM417.82 164.422h-14.909v14.913h14.909v-14.913ZM402.911 164.422h-14.909v14.913h14.909v-14.913Z"/><path stroke="#058CD7" stroke-miterlimit="10" d="M388.003 164.422h-14.909v14.913h14.909v-14.913ZM373.094 164.422h-14.909v14.913h14.909v-14.913ZM358.185 164.422h-14.909v14.913h14.909v-14.913ZM343.276 164.422h-14.909v14.913h14.909v-14.913ZM328.367 164.422h-14.909v14.913h14.909v-14.913ZM313.458 164.422h-14.909v14.913h14.909v-14.913ZM298.549 164.422h-14.908v14.913h14.908v-14.913Z"/><path stroke="#058CD7" stroke-miterlimit="10" d="M283.641 164.422h-14.909v14.913h14.909v-14.913ZM268.732 164.422h-14.909v14.913h14.909v-14.913ZM253.823 164.422h-14.909v14.913h14.909v-14.913ZM238.914 164.422h-14.909v14.913h14.909v-14.913ZM224.005 164.422h-14.909v14.913h14.909v-14.913ZM209.096 164.422h-14.908v14.913h14.908v-14.913ZM194.188 164.422h-14.909v14.913h14.909v-14.913ZM179.279 164.422H164.37v14.913h14.909v-14.913ZM164.37 164.422h-14.909v14.913h14.909v-14.913ZM149.461 164.422h-14.909v14.913h14.909v-14.913ZM134.552 164.422h-14.908v14.913h14.908v-14.913ZM119.643 164.422h-14.909v14.913h14.909v-14.913Z"/><path stroke="#058CD7" stroke-miterlimit="10" d="M104.735 164.422h-14.91v14.913h14.91v-14.913Z"/><path stroke="#058CD7" stroke-miterlimit="10" d="M89.826 164.422H74.917v14.913h14.909v-14.913ZM74.917 164.422h-14.91v14.913h14.91v-14.913Z"/><path stroke="#058CD7" stroke-miterlimit="10" d="M60.008 164.422H45.099v14.913h14.909v-14.913ZM507.273 149.508h-14.909v14.913h14.909v-14.913ZM492.364 149.508h-14.908v14.913h14.908v-14.913Z"/><path stroke="#058CD7" stroke-miterlimit="10" d="M477.456 149.508h-14.909v14.913h14.909v-14.913ZM462.547 149.508h-14.909v14.913h14.909v-14.913ZM447.638 149.508h-14.909v14.913h14.909v-14.913ZM432.729 149.508H417.82v14.913h14.909v-14.913ZM417.82 149.508h-14.909v14.913h14.909v-14.913ZM402.911 149.508h-14.909v14.913h14.909v-14.913Z"/><path stroke="#058CD7" stroke-miterlimit="10" d="M388.003 149.508h-14.909v14.913h14.909v-14.913ZM373.094 149.508h-14.909v14.913h14.909v-14.913ZM358.185 149.508h-14.909v14.913h14.909v-14.913ZM343.276 149.508h-14.909v14.913h14.909v-14.913ZM328.367 149.508h-14.909v14.913h14.909v-14.913ZM313.458 149.508h-14.909v14.913h14.909v-14.913ZM298.549 149.508h-14.908v14.913h14.908v-14.913Z"/><path stroke="#058CD7" stroke-miterlimit="10" d="M283.641 149.508h-14.909v14.913h14.909v-14.913ZM268.732 149.508h-14.909v14.913h14.909v-14.913ZM253.823 149.508h-14.909v14.913h14.909v-14.913ZM238.914 149.508h-14.909v14.913h14.909v-14.913ZM224.005 149.508h-14.909v14.913h14.909v-14.913ZM209.096 149.508h-14.908v14.913h14.908v-14.913ZM194.188 149.508h-14.909v14.913h14.909v-14.913ZM179.279 149.508H164.37v14.913h14.909v-14.913ZM164.37 149.508h-14.909v14.913h14.909v-14.913ZM149.461 149.508h-14.909v14.913h14.909v-14.913ZM134.552 149.508h-14.908v14.913h14.908v-14.913ZM119.643 149.508h-14.909v14.913h14.909v-14.913Z"/><path stroke="#058CD7" stroke-miterlimit="10" d="M104.735 149.508h-14.91v14.913h14.91v-14.913Z"/><path stroke="#058CD7" stroke-miterlimit="10" d="M89.826 149.508H74.917v14.913h14.909v-14.913ZM74.917 149.508h-14.91v14.913h14.91v-14.913Z"/><path stroke="#058CD7" stroke-miterlimit="10" d="M60.008 149.508H45.099v14.913h14.909v-14.913ZM507.273 134.594h-14.909v14.914h14.909v-14.914ZM492.364 134.594h-14.908v14.914h14.908v-14.914Z"/><path stroke="#058CD7" stroke-miterlimit="10" d="M477.456 134.594h-14.909v14.914h14.909v-14.914ZM462.547 134.594h-14.909v14.914h14.909v-14.914ZM447.638 134.594h-14.909v14.914h14.909v-14.914ZM432.729 134.594H417.82v14.914h14.909v-14.914ZM417.82 134.594h-14.909v14.914h14.909v-14.914ZM402.911 134.594h-14.909v14.914h14.909v-14.914Z"/><path stroke="#058CD7" stroke-miterlimit="10" d="M388.003 134.594h-14.909v14.914h14.909v-14.914ZM373.094 134.594h-14.909v14.914h14.909v-14.914ZM358.185 134.594h-14.909v14.914h14.909v-14.914ZM343.276 134.594h-14.909v14.914h14.909v-14.914ZM328.367 134.594h-14.909v14.914h14.909v-14.914ZM313.458 134.594h-14.909v14.914h14.909v-14.914ZM298.549 134.594h-14.908v14.914h14.908v-14.914Z"/><path stroke="#058CD7" stroke-miterlimit="10" d="M283.641 134.594h-14.909v14.914h14.909v-14.914ZM268.732 134.594h-14.909v14.914h14.909v-14.914ZM253.823 134.594h-14.909v14.914h14.909v-14.914ZM238.914 134.594h-14.909v14.914h14.909v-14.914ZM224.005 134.594h-14.909v14.914h14.909v-14.914ZM209.096 134.594h-14.908v14.914h14.908v-14.914ZM194.188 134.594h-14.909v14.914h14.909v-14.914ZM179.279 134.594H164.37v14.914h14.909v-14.914ZM164.37 134.594h-14.909v14.914h14.909v-14.914ZM149.461 134.594h-14.909v14.914h14.909v-14.914ZM134.552 134.594h-14.908v14.914h14.908v-14.914ZM119.643 134.594h-14.909v14.914h14.909v-14.914Z"/><path stroke="#058CD7" stroke-miterlimit="10" d="M104.735 134.594h-14.91v14.914h14.91v-14.914Z"/><path stroke="#058CD7" stroke-miterlimit="10" d="M89.826 134.594H74.917v14.914h14.909v-14.914ZM74.917 134.594h-14.91v14.914h14.91v-14.914Z"/><path stroke="#058CD7" stroke-miterlimit="10" d="M60.008 134.594H45.099v14.914h14.909v-14.914ZM507.273 119.681h-14.909v14.913h14.909v-14.913ZM492.364 119.681h-14.908v14.913h14.908v-14.913Z"/><path stroke="#058CD7" stroke-miterlimit="10" d="M477.456 119.681h-14.909v14.913h14.909v-14.913ZM462.547 119.681h-14.909v14.913h14.909v-14.913ZM447.638 119.681h-14.909v14.913h14.909v-14.913ZM432.729 119.681H417.82v14.913h14.909v-14.913ZM417.82 119.681h-14.909v14.913h14.909v-14.913ZM402.911 119.681h-14.909v14.913h14.909v-14.913Z"/><path stroke="#058CD7" stroke-miterlimit="10" d="M388.003 119.681h-14.909v14.913h14.909v-14.913ZM373.094 119.681h-14.909v14.913h14.909v-14.913ZM358.185 119.681h-14.909v14.913h14.909v-14.913ZM343.276 119.681h-14.909v14.913h14.909v-14.913ZM328.367 119.681h-14.909v14.913h14.909v-14.913ZM313.458 119.681h-14.909v14.913h14.909v-14.913ZM298.549 119.681h-14.908v14.913h14.908v-14.913Z"/><path stroke="#058CD7" stroke-miterlimit="10" d="M283.641 119.681h-14.909v14.913h14.909v-14.913ZM268.732 119.681h-14.909v14.913h14.909v-14.913ZM253.823 119.681h-14.909v14.913h14.909v-14.913ZM238.914 119.681h-14.909v14.913h14.909v-14.913ZM224.005 119.681h-14.909v14.913h14.909v-14.913ZM209.096 119.681h-14.908v14.913h14.908v-14.913ZM194.188 119.681h-14.909v14.913h14.909v-14.913ZM179.279 119.681H164.37v14.913h14.909v-14.913ZM164.37 119.681h-14.909v14.913h14.909v-14.913ZM149.461 119.681h-14.909v14.913h14.909v-14.913ZM134.552 119.681h-14.908v14.913h14.908v-14.913ZM119.643 119.681h-14.909v14.913h14.909v-14.913Z"/><path stroke="#058CD7" stroke-miterlimit="10" d="M104.735 119.681h-14.91v14.913h14.91v-14.913Z"/><path stroke="#058CD7" stroke-miterlimit="10" d="M89.826 119.681H74.917v14.913h14.909v-14.913ZM74.917 119.681h-14.91v14.913h14.91v-14.913Z"/><path stroke="#058CD7" stroke-miterlimit="10" d="M60.008 119.681H45.099v14.913h14.909v-14.913ZM507.273 104.767h-14.909v14.914h14.909v-14.914ZM492.364 104.767h-14.908v14.914h14.908v-14.914Z"/><path stroke="#058CD7" stroke-miterlimit="10" d="M477.456 104.767h-14.909v14.914h14.909v-14.914ZM462.547 104.767h-14.909v14.914h14.909v-14.914ZM447.638 104.767h-14.909v14.914h14.909v-14.914ZM432.729 104.767H417.82v14.914h14.909v-14.914ZM417.82 104.767h-14.909v14.914h14.909v-14.914ZM402.911 104.767h-14.909v14.914h14.909v-14.914Z"/><path stroke="#058CD7" stroke-miterlimit="10" d="M388.003 104.767h-14.909v14.914h14.909v-14.914ZM373.094 104.767h-14.909v14.914h14.909v-14.914ZM358.185 104.767h-14.909v14.914h14.909v-14.914ZM343.276 104.767h-14.909v14.914h14.909v-14.914ZM328.367 104.767h-14.909v14.914h14.909v-14.914ZM313.458 104.767h-14.909v14.914h14.909v-14.914ZM298.549 104.767h-14.908v14.914h14.908v-14.914Z"/><path stroke="#058CD7" stroke-miterlimit="10" d="M283.641 104.767h-14.909v14.914h14.909v-14.914ZM268.732 104.767h-14.909v14.914h14.909v-14.914ZM253.823 104.767h-14.909v14.914h14.909v-14.914ZM238.914 104.767h-14.909v14.914h14.909v-14.914ZM224.005 104.767h-14.909v14.914h14.909v-14.914ZM209.096 104.767h-14.908v14.914h14.908v-14.914ZM194.188 104.767h-14.909v14.914h14.909v-14.914ZM179.279 104.767H164.37v14.914h14.909v-14.914ZM164.37 104.767h-14.909v14.914h14.909v-14.914ZM149.461 104.767h-14.909v14.914h14.909v-14.914ZM134.552 104.767h-14.908v14.914h14.908v-14.914ZM119.643 104.767h-14.909v14.914h14.909v-14.914Z"/><path stroke="#058CD7" stroke-miterlimit="10" d="M104.735 104.767h-14.91v14.914h14.91v-14.914Z"/><path stroke="#058CD7" stroke-miterlimit="10" d="M89.826 104.767H74.917v14.914h14.909v-14.914ZM74.917 104.767h-14.91v14.914h14.91v-14.914Z"/><path stroke="#058CD7" stroke-miterlimit="10" d="M60.008 104.767H45.099v14.914h14.909v-14.914ZM507.273 89.854h-14.909v14.913h14.909V89.854ZM492.364 89.854h-14.908v14.913h14.908V89.854Z"/><path stroke="#058CD7" stroke-miterlimit="10" d="M477.456 89.854h-14.909v14.913h14.909V89.854ZM462.547 89.854h-14.909v14.913h14.909V89.854ZM447.638 89.854h-14.909v14.913h14.909V89.854ZM432.729 89.854H417.82v14.913h14.909V89.854ZM417.82 89.854h-14.909v14.913h14.909V89.854ZM402.911 89.854h-14.909v14.913h14.909V89.854Z"/><path stroke="#058CD7" stroke-miterlimit="10" d="M388.003 89.854h-14.909v14.913h14.909V89.854ZM373.094 89.854h-14.909v14.913h14.909V89.854ZM358.185 89.854h-14.909v14.913h14.909V89.854ZM343.276 89.854h-14.909v14.913h14.909V89.854ZM328.367 89.854h-14.909v14.913h14.909V89.854ZM313.458 89.854h-14.909v14.913h14.909V89.854ZM298.549 89.854h-14.908v14.913h14.908V89.854Z"/><path stroke="#058CD7" stroke-miterlimit="10" d="M283.641 89.854h-14.909v14.913h14.909V89.854ZM268.732 89.854h-14.909v14.913h14.909V89.854ZM253.823 89.854h-14.909v14.913h14.909V89.854ZM238.914 89.854h-14.909v14.913h14.909V89.854ZM224.005 89.854h-14.909v14.913h14.909V89.854ZM209.096 89.854h-14.908v14.913h14.908V89.854ZM194.188 89.854h-14.909v14.913h14.909V89.854ZM179.279 89.854H164.37v14.913h14.909V89.854ZM164.37 89.854h-14.909v14.913h14.909V89.854ZM149.461 89.854h-14.909v14.913h14.909V89.854ZM134.552 89.854h-14.908v14.913h14.908V89.854ZM119.643 89.854h-14.909v14.913h14.909V89.854Z"/><path stroke="#058CD7" stroke-miterlimit="10" d="M104.735 89.854h-14.91v14.913h14.91V89.854Z"/><path stroke="#058CD7" stroke-miterlimit="10" d="M89.826 89.854H74.917v14.913h14.909V89.854ZM74.917 89.854h-14.91v14.913h14.91V89.854Z"/><path stroke="#058CD7" stroke-miterlimit="10" d="M60.008 89.854H45.099v14.913h14.909V89.854ZM507.273 74.94h-14.909v14.914h14.909V74.94ZM492.364 74.94h-14.908v14.914h14.908V74.94Z"/><path stroke="#058CD7" stroke-miterlimit="10" d="M477.456 74.94h-14.909v14.914h14.909V74.94ZM462.547 74.94h-14.909v14.914h14.909V74.94ZM447.638 74.94h-14.909v14.914h14.909V74.94ZM432.729 74.94H417.82v14.914h14.909V74.94ZM417.82 74.94h-14.909v14.914h14.909V74.94ZM402.911 74.94h-14.909v14.914h14.909V74.94Z"/><path stroke="#058CD7" stroke-miterlimit="10" d="M388.003 74.94h-14.909v14.914h14.909V74.94ZM373.094 74.94h-14.909v14.914h14.909V74.94ZM358.185 74.94h-14.909v14.914h14.909V74.94ZM343.276 74.94h-14.909v14.914h14.909V74.94ZM328.367 74.94h-14.909v14.914h14.909V74.94ZM313.458 74.94h-14.909v14.914h14.909V74.94ZM298.549 74.94h-14.908v14.914h14.908V74.94Z"/><path stroke="#058CD7" stroke-miterlimit="10" d="M283.641 74.94h-14.909v14.914h14.909V74.94ZM268.732 74.94h-14.909v14.914h14.909V74.94ZM253.823 74.94h-14.909v14.914h14.909V74.94ZM238.914 74.94h-14.909v14.914h14.909V74.94ZM224.005 74.94h-14.909v14.914h14.909V74.94ZM209.096 74.94h-14.908v14.914h14.908V74.94ZM194.188 74.94h-14.909v14.914h14.909V74.94ZM179.279 74.94H164.37v14.914h14.909V74.94ZM164.37 74.94h-14.909v14.914h14.909V74.94ZM149.461 74.94h-14.909v14.914h14.909V74.94ZM134.552 74.94h-14.908v14.914h14.908V74.94ZM119.643 74.94h-14.909v14.914h14.909V74.94Z"/><path stroke="#058CD7" stroke-miterlimit="10" d="M104.735 74.94h-14.91v14.914h14.91V74.94Z"/><path stroke="#058CD7" stroke-miterlimit="10" d="M89.826 74.94H74.917v14.914h14.909V74.94ZM74.917 74.94h-14.91v14.914h14.91V74.94Z"/><path stroke="#058CD7" stroke-miterlimit="10" d="M60.008 74.94H45.099v14.914h14.909V74.94ZM507.273.373h-14.909v14.913h14.909V.373ZM492.364.373h-14.908v14.913h14.908V.373Z"/><path stroke="#058CD7" stroke-miterlimit="10" d="M477.456.373h-14.909v14.913h14.909V.373ZM462.547.373h-14.909v14.913h14.909V.373ZM447.638.373h-14.909v14.913h14.909V.373ZM432.729.373H417.82v14.913h14.909V.373ZM417.82.373h-14.909v14.913h14.909V.373ZM402.911.373h-14.909v14.913h14.909V.373Z"/><path stroke="#058CD7" stroke-miterlimit="10" d="M388.003.373h-14.909v14.913h14.909V.373ZM373.093.373h-14.908v14.913h14.908V.373ZM358.185.373h-14.909v14.913h14.909V.373ZM343.276.373h-14.909v14.913h14.909V.373ZM328.367.373h-14.909v14.913h14.909V.373ZM313.458.373h-14.909v14.913h14.909V.373ZM298.549.373h-14.908v14.913h14.908V.373Z"/><path stroke="#058CD7" stroke-miterlimit="10" d="M283.641.373h-14.909v14.913h14.909V.373ZM268.732.373h-14.909v14.913h14.909V.373ZM253.823.373h-14.909v14.913h14.909V.373ZM238.914.373h-14.909v14.913h14.909V.373ZM224.005.373h-14.909v14.913h14.909V.373ZM209.096.373h-14.908v14.913h14.908V.373ZM194.188.373h-14.909v14.913h14.909V.373ZM179.278.373H164.37v14.913h14.908V.373ZM164.37.373h-14.909v14.913h14.909V.373ZM149.461.373h-14.909v14.913h14.909V.373ZM134.552.373h-14.908v14.913h14.908V.373ZM119.643.373h-14.909v14.913h14.909V.373Z"/><path stroke="#058CD7" stroke-miterlimit="10" d="M104.735.373h-14.91v14.913h14.91V.373Z"/><path stroke="#058CD7" stroke-miterlimit="10" d="M89.826.373H74.917v14.913h14.909V.373ZM74.917.373h-14.91v14.913h14.91V.373Z"/><path stroke="#058CD7" stroke-miterlimit="10" d="M60.008.373H45.099v14.913h14.909V.373ZM507.273 15.286h-14.909V30.2h14.909V15.286ZM492.364 15.286h-14.908V30.2h14.908V15.286Z"/><path stroke="#058CD7" stroke-miterlimit="10" d="M477.456 15.286h-14.909V30.2h14.909V15.286ZM462.547 15.286h-14.909V30.2h14.909V15.286ZM447.638 15.286h-14.909V30.2h14.909V15.286ZM432.729 15.286H417.82V30.2h14.909V15.286ZM417.82 15.286h-14.909V30.2h14.909V15.286ZM402.911 15.286h-14.909V30.2h14.909V15.286Z"/><path stroke="#058CD7" stroke-miterlimit="10" d="M388.003 15.286h-14.909V30.2h14.909V15.286ZM373.094 15.286h-14.909V30.2h14.909V15.286ZM358.185 15.286h-14.909V30.2h14.909V15.286ZM343.276 15.286h-14.909V30.2h14.909V15.286ZM328.367 15.286h-14.909V30.2h14.909V15.286ZM313.458 15.286h-14.909V30.2h14.909V15.286ZM298.549 15.286h-14.908V30.2h14.908V15.286Z"/><path stroke="#058CD7" stroke-miterlimit="10" d="M283.641 15.286h-14.909V30.2h14.909V15.286ZM268.732 15.286h-14.909V30.2h14.909V15.286ZM253.823 15.286h-14.909V30.2h14.909V15.286ZM238.914 15.286h-14.909V30.2h14.909V15.286ZM224.005 15.286h-14.909V30.2h14.909V15.286ZM209.096 15.286h-14.908V30.2h14.908V15.286ZM194.188 15.286h-14.909V30.2h14.909V15.286ZM179.279 15.286H164.37V30.2h14.909V15.286ZM164.37 15.286h-14.909V30.2h14.909V15.286ZM149.461 15.286h-14.909V30.2h14.909V15.286ZM134.552 15.286h-14.908V30.2h14.908V15.286ZM119.643 15.286h-14.909V30.2h14.909V15.286Z"/><path stroke="#058CD7" stroke-miterlimit="10" d="M104.735 15.286h-14.91V30.2h14.91V15.286Z"/><path stroke="#058CD7" stroke-miterlimit="10" d="M89.826 15.286H74.917V30.2h14.909V15.286ZM74.917 15.286h-14.91V30.2h14.91V15.286Z"/><path stroke="#058CD7" stroke-miterlimit="10" d="M60.008 15.286H45.099V30.2h14.909V15.286ZM507.273 30.2h-14.909v14.913h14.909V30.2ZM492.364 30.2h-14.908v14.913h14.908V30.2Z"/><path stroke="#058CD7" stroke-miterlimit="10" d="M477.456 30.2h-14.909v14.913h14.909V30.2ZM462.547 30.2h-14.909v14.913h14.909V30.2ZM447.638 30.2h-14.909v14.913h14.909V30.2ZM432.729 30.2H417.82v14.913h14.909V30.2ZM417.82 30.2h-14.909v14.913h14.909V30.2ZM402.911 30.2h-14.909v14.913h14.909V30.2Z"/><path stroke="#058CD7" stroke-miterlimit="10" d="M388.003 30.2h-14.909v14.913h14.909V30.2ZM373.094 30.2h-14.909v14.913h14.909V30.2ZM358.185 30.2h-14.909v14.913h14.909V30.2ZM343.276 30.2h-14.909v14.913h14.909V30.2ZM328.367 30.2h-14.909v14.913h14.909V30.2ZM313.458 30.2h-14.909v14.913h14.909V30.2ZM298.549 30.2h-14.908v14.913h14.908V30.2Z"/><path stroke="#058CD7" stroke-miterlimit="10" d="M283.641 30.2h-14.909v14.913h14.909V30.2ZM268.732 30.2h-14.909v14.913h14.909V30.2ZM253.823 30.2h-14.909v14.913h14.909V30.2ZM238.914 30.2h-14.909v14.913h14.909V30.2ZM224.005 30.2h-14.909v14.913h14.909V30.2ZM209.096 30.2h-14.908v14.913h14.908V30.2ZM194.188 30.2h-14.909v14.913h14.909V30.2ZM179.279 30.2H164.37v14.913h14.909V30.2ZM164.37 30.2h-14.909v14.913h14.909V30.2ZM149.461 30.2h-14.909v14.913h14.909V30.2ZM134.552 30.2h-14.908v14.913h14.908V30.2ZM119.643 30.2h-14.909v14.913h14.909V30.2Z"/><path stroke="#058CD7" stroke-miterlimit="10" d="M104.735 30.2h-14.91v14.913h14.91V30.2Z"/><path stroke="#058CD7" stroke-miterlimit="10" d="M89.826 30.2H74.917v14.913h14.909V30.2ZM74.917 30.2h-14.91v14.913h14.91V30.2Z"/><path stroke="#058CD7" stroke-miterlimit="10" d="M60.008 30.2H45.099v14.913h14.909V30.2ZM507.273 45.113h-14.909v14.914h14.909V45.113ZM492.364 45.113h-14.908v14.914h14.908V45.113Z"/><path stroke="#058CD7" stroke-miterlimit="10" d="M477.456 45.113h-14.909v14.914h14.909V45.113ZM462.547 45.113h-14.909v14.914h14.909V45.113ZM447.638 45.113h-14.909v14.914h14.909V45.113ZM432.729 45.113H417.82v14.914h14.909V45.113ZM417.82 45.113h-14.909v14.914h14.909V45.113ZM402.911 45.113h-14.909v14.914h14.909V45.113Z"/><path stroke="#058CD7" stroke-miterlimit="10" d="M388.003 45.113h-14.909v14.914h14.909V45.113ZM373.094 45.113h-14.909v14.914h14.909V45.113ZM358.185 45.113h-14.909v14.914h14.909V45.113ZM343.276 45.113h-14.909v14.914h14.909V45.113ZM328.367 45.113h-14.909v14.914h14.909V45.113ZM313.458 45.113h-14.909v14.914h14.909V45.113ZM298.549 45.113h-14.908v14.914h14.908V45.113Z"/><path stroke="#058CD7" stroke-miterlimit="10" d="M283.641 45.113h-14.909v14.914h14.909V45.113ZM268.732 45.113h-14.909v14.914h14.909V45.113ZM253.823 45.113h-14.909v14.914h14.909V45.113ZM238.914 45.113h-14.909v14.914h14.909V45.113ZM224.005 45.113h-14.909v14.914h14.909V45.113ZM209.096 45.113h-14.908v14.914h14.908V45.113ZM194.188 45.113h-14.909v14.914h14.909V45.113ZM179.279 45.113H164.37v14.914h14.909V45.113ZM164.37 45.113h-14.909v14.914h14.909V45.113ZM149.461 45.113h-14.909v14.914h14.909V45.113ZM134.552 45.113h-14.908v14.914h14.908V45.113ZM119.643 45.113h-14.909v14.914h14.909V45.113Z"/><path stroke="#058CD7" stroke-miterlimit="10" d="M104.735 45.113h-14.91v14.914h14.91V45.113Z"/><path stroke="#058CD7" stroke-miterlimit="10" d="M89.826 45.113H74.917v14.914h14.909V45.113ZM74.917 45.113h-14.91v14.914h14.91V45.113Z"/><path stroke="#058CD7" stroke-miterlimit="10" d="M60.008 45.113H45.099v14.914h14.909V45.113ZM507.273 60.027h-14.909V74.94h14.909V60.027ZM492.364 60.027h-14.908V74.94h14.908V60.027Z"/><path stroke="#058CD7" stroke-miterlimit="10" d="M477.456 60.027h-14.909V74.94h14.909V60.027ZM462.547 60.027h-14.909V74.94h14.909V60.027ZM447.638 60.027h-14.909V74.94h14.909V60.027ZM432.729 60.027H417.82V74.94h14.909V60.027ZM417.82 60.027h-14.909V74.94h14.909V60.027ZM402.911 60.027h-14.909V74.94h14.909V60.027Z"/><path stroke="#058CD7" stroke-miterlimit="10" d="M388.003 60.027h-14.909V74.94h14.909V60.027ZM373.094 60.027h-14.909V74.94h14.909V60.027ZM358.185 60.027h-14.909V74.94h14.909V60.027ZM343.276 60.027h-14.909V74.94h14.909V60.027ZM328.367 60.027h-14.909V74.94h14.909V60.027ZM313.458 60.027h-14.909V74.94h14.909V60.027ZM298.549 60.027h-14.908V74.94h14.908V60.027Z"/><path stroke="#058CD7" stroke-miterlimit="10" d="M283.641 60.027h-14.909V74.94h14.909V60.027ZM268.732 60.027h-14.909V74.94h14.909V60.027ZM253.823 60.027h-14.909V74.94h14.909V60.027ZM238.914 60.027h-14.909V74.94h14.909V60.027ZM224.005 60.027h-14.909V74.94h14.909V60.027ZM209.096 60.027h-14.908V74.94h14.908V60.027ZM194.188 60.027h-14.909V74.94h14.909V60.027ZM179.279 60.027H164.37V74.94h14.909V60.027ZM164.37 60.027h-14.909V74.94h14.909V60.027ZM149.461 60.027h-14.909V74.94h14.909V60.027ZM134.552 60.027h-14.908V74.94h14.908V60.027ZM119.643 60.027h-14.909V74.94h14.909V60.027Z"/><path stroke="#058CD7" stroke-miterlimit="10" d="M104.735 60.027h-14.91V74.94h14.91V60.027Z"/><path stroke="#058CD7" stroke-miterlimit="10" d="M89.826 60.027H74.917V74.94h14.909V60.027ZM74.917 60.027h-14.91V74.94h14.91V60.027Z"/><path stroke="#058CD7" stroke-miterlimit="10" d="M60.008 60.027H45.099V74.94h14.909V60.027ZM45.1 567.086H30.19V582H45.1v-14.914ZM45.1 552.173H30.19v14.913H45.1v-14.913ZM45.1 537.259H30.19v14.914H45.1v-14.914ZM45.1 522.346H30.19v14.913H45.1v-14.913ZM45.1 507.432H30.19v14.914H45.1v-14.914ZM45.1 492.519H30.19v14.913H45.1v-14.913ZM45.1 477.605H30.19v14.914H45.1v-14.914ZM45.1 462.692H30.19v14.913H45.1v-14.913ZM45.1 447.778H30.19v14.914H45.1v-14.914ZM45.1 432.865H30.19v14.913H45.1v-14.913ZM45.1 417.951H30.19v14.914H45.1v-14.914ZM45.1 403.038H30.19v14.913H45.1v-14.913ZM45.1 388.124H30.19v14.914H45.1v-14.914ZM45.1 373.211H30.19v14.913H45.1v-14.913ZM45.1 358.297H30.19v14.914H45.1v-14.914ZM45.1 343.384H30.19v14.913H45.1v-14.913ZM45.1 328.47H30.19v14.914H45.1V328.47ZM45.1 313.557H30.19v14.913H45.1v-14.913ZM45.1 298.643H30.19v14.914H45.1v-14.914Z"/><path stroke="#058CD7" stroke-miterlimit="10" d="M45.1 283.73H30.19v14.913H45.1V283.73ZM45.1 268.816H30.19v14.914H45.1v-14.914ZM45.1 253.903H30.19v14.913H45.1v-14.913Z"/><path stroke="#058CD7" stroke-miterlimit="10" d="M45.1 238.989H30.19v14.914H45.1v-14.914ZM45.1 224.076H30.19v14.913H45.1v-14.913ZM45.1 209.162H30.19v14.914H45.1v-14.914ZM45.1 194.249H30.19v14.913H45.1v-14.913ZM45.1 179.335H30.19v14.913H45.1v-14.913ZM45.1 164.422H30.19v14.913H45.1v-14.913ZM45.1 149.508H30.19v14.913H45.1v-14.913ZM45.1 134.594H30.19v14.914H45.1v-14.914ZM45.1 119.681H30.19v14.913H45.1v-14.913ZM45.1 104.767H30.19v14.914H45.1v-14.914ZM45.1 89.854H30.19v14.913H45.1V89.854ZM45.1 74.94H30.19v14.914H45.1V74.94ZM45.1 60.027H30.19V74.94H45.1V60.027ZM45.1 45.113H30.19v14.914H45.1V45.113ZM45.1 30.2H30.19v14.913H45.1V30.2ZM45.1 15.286H30.19V30.2H45.1V15.286ZM45.1.373H30.19v14.913H45.1V.373ZM30.19 567.086H15.281V582h14.91v-14.914ZM30.19 552.173H15.281v14.913h14.91v-14.913ZM30.19 537.259H15.281v14.914h14.91v-14.914ZM30.19 522.346H15.281v14.913h14.91v-14.913ZM30.19 507.432H15.281v14.914h14.91v-14.914ZM30.19 492.519H15.281v14.913h14.91v-14.913ZM30.19 477.605H15.281v14.914h14.91v-14.914ZM30.19 462.692H15.281v14.913h14.91v-14.913ZM30.19 447.778H15.281v14.914h14.91v-14.914ZM30.19 432.865H15.281v14.913h14.91v-14.913ZM30.19 417.951H15.281v14.914h14.91v-14.914ZM30.19 403.038H15.281v14.913h14.91v-14.913ZM30.19 388.124H15.281v14.914h14.91v-14.914ZM30.19 373.211H15.281v14.913h14.91v-14.913ZM30.19 358.297H15.281v14.914h14.91v-14.914ZM30.19 343.384H15.281v14.913h14.91v-14.913ZM30.19 328.47H15.281v14.914h14.91V328.47ZM30.19 313.557H15.281v14.913h14.91v-14.913ZM30.19 298.643H15.281v14.914h14.91v-14.914Z"/><path stroke="#058CD7" stroke-miterlimit="10" d="M30.19 283.73H15.281v14.913h14.91V283.73ZM30.19 268.816H15.281v14.914h14.91v-14.914ZM30.19 253.903H15.281v14.913h14.91v-14.913Z"/><path stroke="#058CD7" stroke-miterlimit="10" d="M30.19 238.989H15.281v14.914h14.91v-14.914ZM30.19 224.076H15.281v14.913h14.91v-14.913ZM30.19 209.162H15.281v14.914h14.91v-14.914ZM30.19 194.249H15.281v14.913h14.91v-14.913ZM30.19 179.335H15.281v14.913h14.91v-14.913ZM30.19 164.422H15.281v14.913h14.91v-14.913ZM30.19 149.508H15.281v14.913h14.91v-14.913ZM30.19 134.594H15.281v14.914h14.91v-14.914ZM30.19 119.681H15.281v14.913h14.91v-14.913ZM30.19 104.767H15.281v14.914h14.91v-14.914ZM30.19 89.854H15.281v14.913h14.91V89.854ZM30.19 74.94H15.281v14.914h14.91V74.94ZM30.19 60.027H15.281V74.94h14.91V60.027ZM30.19 45.113H15.281v14.914h14.91V45.113ZM30.19 30.2H15.281v14.913h14.91V30.2ZM30.19 15.286H15.281V30.2h14.91V15.286ZM30.19.373H15.281v14.913h14.91V.373ZM15.281 567.086H.373V582H15.28v-14.914ZM15.281 552.173H.373v14.913H15.28v-14.913ZM15.281 537.259H.373v14.914H15.28v-14.914ZM15.281 522.346H.373v14.913H15.28v-14.913ZM15.281 507.432H.373v14.914H15.28v-14.914ZM15.281 492.519H.373v14.913H15.28v-14.913ZM15.281 477.605H.373v14.914H15.28v-14.914ZM15.281 462.692H.373v14.913H15.28v-14.913ZM15.281 447.778H.373v14.914H15.28v-14.914ZM15.281 432.865H.373v14.913H15.28v-14.913ZM15.281 417.951H.373v14.914H15.28v-14.914ZM15.281 403.038H.373v14.913H15.28v-14.913ZM15.281 388.124H.373v14.914H15.28v-14.914ZM15.281 373.211H.373v14.913H15.28v-14.913ZM15.281 358.297H.373v14.914H15.28v-14.914ZM15.281 343.384H.373v14.913H15.28v-14.913ZM15.281 328.47H.373v14.914H15.28V328.47ZM15.281 313.557H.373v14.913H15.28v-14.913ZM15.281 298.643H.373v14.914H15.28v-14.914Z"/><path stroke="#058CD7" stroke-miterlimit="10" d="M15.281 283.73H.373v14.913H15.28V283.73ZM15.281 268.816H.373v14.914H15.28v-14.914ZM15.281 253.903H.373v14.913H15.28v-14.913Z"/><path stroke="#058CD7" stroke-miterlimit="10" d="M15.281 238.989H.373v14.914H15.28v-14.914ZM15.281 224.076H.373v14.913H15.28v-14.913ZM15.281 209.162H.373v14.914H15.28v-14.914ZM15.281 194.249H.373v14.913H15.28v-14.913ZM15.281 179.335H.373v14.913H15.28v-14.913ZM15.281 164.422H.373v14.913H15.28v-14.913ZM15.281 149.508H.373v14.913H15.28v-14.913ZM15.281 134.594H.373v14.914H15.28v-14.914ZM15.281 119.681H.373v14.913H15.28v-14.913ZM15.281 104.767H.373v14.914H15.28v-14.914ZM15.281 89.854H.373v14.913H15.28V89.854ZM15.281 74.94H.373v14.914H15.28V74.94ZM15.281 60.027H.373V74.94H15.28V60.027ZM15.281 45.113H.373v14.914H15.28V45.113ZM15.281 30.2H.373v14.913H15.28V30.2ZM15.281 15.286H.373V30.2H15.28V15.286ZM15.281.373H.373v14.913H15.28V.373ZM552 567.086h-14.909V582H552v-14.914ZM552 552.173h-14.909v14.913H552v-14.913ZM552 537.259h-14.909v14.914H552v-14.914ZM552 522.346h-14.909v14.913H552v-14.913ZM552 507.432h-14.909v14.914H552v-14.914ZM552 492.519h-14.909v14.913H552v-14.913ZM552 477.605h-14.909v14.914H552v-14.914ZM552 462.692h-14.909v14.913H552v-14.913ZM552 447.778h-14.909v14.914H552v-14.914ZM552 432.865h-14.909v14.913H552v-14.913ZM552 417.951h-14.909v14.914H552v-14.914ZM552 403.038h-14.909v14.913H552v-14.913ZM552 388.124h-14.909v14.914H552v-14.914ZM552 373.211h-14.909v14.913H552v-14.913ZM552 358.297h-14.909v14.914H552v-14.914ZM552 343.384h-14.909v14.913H552v-14.913ZM552 328.47h-14.909v14.914H552V328.47ZM552 313.557h-14.909v14.913H552v-14.913ZM552 298.643h-14.909v14.914H552v-14.914Z"/><path stroke="#058CD7" stroke-miterlimit="10" d="M552 283.73h-14.909v14.913H552V283.73ZM552 268.816h-14.909v14.914H552v-14.914ZM552 253.903h-14.909v14.913H552v-14.913Z"/><path stroke="#058CD7" stroke-miterlimit="10" d="M552 238.989h-14.909v14.914H552v-14.914ZM552 224.076h-14.909v14.913H552v-14.913ZM552 209.162h-14.909v14.914H552v-14.914ZM552 194.249h-14.909v14.913H552v-14.913ZM552 179.335h-14.909v14.913H552v-14.913ZM552 164.422h-14.909v14.913H552v-14.913ZM552 149.508h-14.909v14.913H552v-14.913ZM552 134.594h-14.909v14.914H552v-14.914ZM552 119.681h-14.909v14.913H552v-14.913ZM552 104.767h-14.909v14.914H552v-14.914ZM552 89.854h-14.909v14.913H552V89.854ZM552 74.94h-14.909v14.914H552V74.94ZM552 60.027h-14.909V74.94H552V60.027ZM552 45.113h-14.909v14.914H552V45.113ZM552 30.2h-14.909v14.913H552V30.2ZM552 15.286h-14.909V30.2H552V15.286ZM552 .373h-14.909v14.913H552V.373ZM537.091 567.086h-14.909V582h14.909v-14.914ZM537.091 552.173h-14.909v14.913h14.909v-14.913ZM537.091 537.259h-14.909v14.914h14.909v-14.914ZM537.091 522.346h-14.909v14.913h14.909v-14.913ZM537.091 507.432h-14.909v14.914h14.909v-14.914ZM537.091 492.519h-14.909v14.913h14.909v-14.913ZM537.091 477.605h-14.909v14.914h14.909v-14.914ZM537.091 462.692h-14.909v14.913h14.909v-14.913ZM537.091 447.778h-14.909v14.914h14.909v-14.914ZM537.091 432.865h-14.909v14.913h14.909v-14.913ZM537.091 417.951h-14.909v14.914h14.909v-14.914ZM537.091 403.038h-14.909v14.913h14.909v-14.913ZM537.091 388.124h-14.909v14.914h14.909v-14.914ZM537.091 373.211h-14.909v14.913h14.909v-14.913ZM537.091 358.297h-14.909v14.914h14.909v-14.914ZM537.091 343.384h-14.909v14.913h14.909v-14.913ZM537.091 328.47h-14.909v14.914h14.909V328.47ZM537.091 313.557h-14.909v14.913h14.909v-14.913ZM537.091 298.643h-14.909v14.914h14.909v-14.914Z"/><path stroke="#058CD7" stroke-miterlimit="10" d="M537.091 283.73h-14.909v14.913h14.909V283.73ZM537.091 268.816h-14.909v14.914h14.909v-14.914ZM537.091 253.903h-14.909v14.913h14.909v-14.913Z"/><path stroke="#058CD7" stroke-miterlimit="10" d="M537.091 238.989h-14.909v14.914h14.909v-14.914ZM537.091 224.076h-14.909v14.913h14.909v-14.913ZM537.091 209.162h-14.909v14.914h14.909v-14.914ZM537.091 194.249h-14.909v14.913h14.909v-14.913ZM537.091 179.335h-14.909v14.913h14.909v-14.913ZM537.091 164.422h-14.909v14.913h14.909v-14.913ZM537.091 149.508h-14.909v14.913h14.909v-14.913ZM537.091 134.594h-14.909v14.914h14.909v-14.914ZM537.091 119.681h-14.909v14.913h14.909v-14.913ZM537.091 104.767h-14.909v14.914h14.909v-14.914ZM537.091 89.854h-14.909v14.913h14.909V89.854ZM537.091 74.94h-14.909v14.914h14.909V74.94ZM537.091 60.027h-14.909V74.94h14.909V60.027ZM537.091 45.113h-14.909v14.914h14.909V45.113ZM537.091 30.2h-14.909v14.913h14.909V30.2ZM537.091 15.286h-14.909V30.2h14.909V15.286ZM537.091.373h-14.909v14.913h14.909V.373ZM522.182 567.086h-14.909V582h14.909v-14.914ZM522.182 552.173h-14.909v14.913h14.909v-14.913ZM522.182 537.259h-14.909v14.914h14.909v-14.914ZM522.182 522.346h-14.909v14.913h14.909v-14.913ZM522.182 507.432h-14.909v14.914h14.909v-14.914ZM522.182 492.519h-14.909v14.913h14.909v-14.913ZM522.182 477.605h-14.909v14.914h14.909v-14.914ZM522.182 462.692h-14.909v14.913h14.909v-14.913ZM522.182 447.778h-14.909v14.914h14.909v-14.914ZM522.182 432.865h-14.909v14.913h14.909v-14.913ZM522.182 417.951h-14.909v14.914h14.909v-14.914ZM522.182 403.038h-14.909v14.913h14.909v-14.913ZM522.182 388.124h-14.909v14.914h14.909v-14.914ZM522.182 373.211h-14.909v14.913h14.909v-14.913ZM522.182 358.297h-14.909v14.914h14.909v-14.914ZM522.182 343.384h-14.909v14.913h14.909v-14.913ZM522.182 328.47h-14.909v14.914h14.909V328.47ZM522.182 313.557h-14.909v14.913h14.909v-14.913ZM522.182 298.643h-14.909v14.914h14.909v-14.914Z"/><path stroke="#058CD7" stroke-miterlimit="10" d="M522.182 283.73h-14.909v14.913h14.909V283.73ZM522.182 268.816h-14.909v14.914h14.909v-14.914ZM522.182 253.903h-14.909v14.913h14.909v-14.913Z"/><path stroke="#058CD7" stroke-miterlimit="10" d="M522.182 238.989h-14.909v14.914h14.909v-14.914ZM522.182 224.076h-14.909v14.913h14.909v-14.913ZM522.182 209.162h-14.909v14.914h14.909v-14.914ZM522.182 194.249h-14.909v14.913h14.909v-14.913ZM522.182 179.335h-14.909v14.913h14.909v-14.913ZM522.182 164.422h-14.909v14.913h14.909v-14.913ZM522.182 149.508h-14.909v14.913h14.909v-14.913ZM522.182 134.594h-14.909v14.914h14.909v-14.914ZM522.182 119.681h-14.909v14.913h14.909v-14.913ZM522.182 104.767h-14.909v14.914h14.909v-14.914ZM522.182 89.854h-14.909v14.913h14.909V89.854ZM522.182 74.94h-14.909v14.914h14.909V74.94ZM522.182 60.027h-14.909V74.94h14.909V60.027ZM522.182 45.113h-14.909v14.914h14.909V45.113ZM522.182 30.2h-14.909v14.913h14.909V30.2ZM522.182 15.286h-14.909V30.2h14.909V15.286ZM522.182.373h-14.909v14.913h14.909V.373Z"/></g><defs><clipPath id="a"><path fill="#fff" d="M0 0h552v582H0z"/></clipPath></defs></svg>