<svg xmlns="http://www.w3.org/2000/svg" width="229" height="301" fill="none"><path fill="#058CD7" d="M.696 31.922v-7.527h1.342c.458-.385.885-.931 1.283-1.64.398-.71.736-1.668 1.014-2.874.279-1.207.47-2.755.577-4.644l.477-8.6h12.558v17.758h2.307v7.497h-2.943V27H3.64v4.922H.696Zm4.962-7.527h9.346V9.28h-6.83l-.319 5.956a35.166 35.166 0 0 1-.427 3.878c-.193 1.147-.441 2.161-.746 3.043-.298.875-.64 1.62-1.024 2.237ZM22.178 27l-.01-2.575h.547c.424 0 .78-.09 1.064-.269.292-.185.53-.497.716-.934.186-.438.328-1.041.428-1.81.099-.776.172-1.75.218-2.923l.269-6.762h10.659V27h-2.913V14.293h-4.992l-.239 5.19c-.06 1.26-.189 2.36-.387 3.301-.193.941-.474 1.727-.846 2.357-.37.623-.848 1.09-1.431 1.402-.584.305-1.293.457-2.128.457h-.955Zm26.964 0V14.263h-3.66c-.868 0-1.544.202-2.028.606-.484.405-.726.935-.726 1.591 0 .65.222 1.174.666 1.571.451.391 1.081.587 1.89.587h4.723v2.406h-4.723c-1.127 0-2.102-.186-2.924-.557-.815-.377-1.445-.911-1.889-1.6-.437-.69-.656-1.505-.656-2.447 0-.96.225-1.79.676-2.485.458-.703 1.11-1.247 1.959-1.631.855-.385 1.866-.577 3.033-.577h6.453V27h-2.794Zm-10.023 0 4.305-7.716h3.043L42.162 27h-3.043Zm22.693 4.405v-6.98h1.243c.318-.292.586-.64.805-1.044a6.47 6.47 0 0 0 .567-1.442c.159-.557.291-1.206.398-1.949.106-.749.198-1.604.278-2.565l.477-5.698h10.38v12.698h2.348v6.98h-2.904V27H64.755v4.405h-2.943Zm4.425-6.98h6.82V14.273h-4.812l-.318 3.152c-.153 1.604-.345 2.996-.577 4.176-.232 1.173-.603 2.114-1.113 2.824Zm17.89-1.591 6.731-11.107h3.202V27h-2.913V15.883L84.445 27h-3.232V11.727h2.914v11.107Zm12.439 8.57v-6.98h1.243c.318-.291.586-.639.805-1.043.225-.405.414-.885.567-1.442a14.78 14.78 0 0 0 .398-1.949c.106-.749.198-1.604.278-2.565l.477-5.698h10.381v12.698h2.346v6.98h-2.903V27h-10.65v4.405h-2.942Zm4.424-6.98h6.821V14.274h-4.812l-.318 3.152c-.153 1.604-.345 2.996-.577 4.176-.232 1.173-.603 2.114-1.114 2.824ZM114.993 27l5.916-7.815-5.847-7.458h3.461l4.723 6.344h1.064v-6.344h2.973v6.344h1.034l4.723-6.344h3.46l-5.817 7.458L136.57 27h-3.53l-4.763-6.364h-.994V27h-2.973v-6.364h-.995L118.523 27h-3.53Zm27.513-4.166 6.731-11.107h3.202V27h-2.913V15.883L142.824 27h-3.232V11.727h2.914v11.107Zm12.036-8.541v-2.566h12.886v2.566h-4.981V27h-2.904V14.293h-5.001Zm19.764 13.045c-.967 0-1.842-.179-2.625-.537a4.419 4.419 0 0 1-1.859-1.58c-.451-.69-.676-1.535-.676-2.536 0-.862.166-1.571.497-2.128a3.676 3.676 0 0 1 1.342-1.323 7.023 7.023 0 0 1 1.89-.735 18.798 18.798 0 0 1 2.127-.378l2.228-.259c.57-.073.984-.189 1.243-.348.258-.159.387-.417.387-.775v-.07c0-.868-.245-1.541-.735-2.018-.484-.478-1.207-.716-2.168-.716-1.001 0-1.79.222-2.366.666-.571.437-.965.925-1.184 1.461l-2.794-.636c.332-.928.816-1.677 1.452-2.247a5.89 5.89 0 0 1 2.217-1.253 8.664 8.664 0 0 1 2.635-.398c.61 0 1.256.073 1.939.22.69.138 1.333.397 1.929.775.603.378 1.097.918 1.482 1.62.384.696.576 1.601.576 2.715V27h-2.903v-2.088h-.119c-.193.384-.481.762-.865 1.134-.385.37-.879.679-1.482.924s-1.326.368-2.168.368Zm.647-2.386c.822 0 1.524-.163 2.108-.488.59-.324 1.037-.749 1.342-1.272.312-.53.467-1.097.467-1.7v-1.97c-.106.107-.311.206-.616.299a9.59 9.59 0 0 1-1.024.229c-.385.06-.759.116-1.124.169-.364.046-.669.086-.915.12a7.387 7.387 0 0 0-1.581.367c-.47.172-.848.42-1.133.746-.278.318-.418.742-.418 1.272 0 .736.272 1.293.816 1.67.543.372 1.236.558 2.078.558ZM184.6 27l-.01-2.575h.547c.424 0 .779-.09 1.064-.269.292-.185.53-.497.716-.934.186-.438.328-1.041.427-1.81.1-.776.173-1.75.219-2.923l.269-6.762h10.659V27h-2.914V14.293h-4.991l-.239 5.19c-.059 1.26-.189 2.36-.387 3.301-.193.941-.474 1.727-.846 2.357-.371.623-.848 1.09-1.431 1.402-.584.305-1.293.457-2.128.457h-.955Zm22.3.338c-.968 0-1.843-.179-2.625-.537a4.419 4.419 0 0 1-1.859-1.58c-.451-.69-.676-1.535-.676-2.536 0-.862.165-1.571.497-2.128a3.668 3.668 0 0 1 1.342-1.323 7.016 7.016 0 0 1 1.889-.735 18.815 18.815 0 0 1 2.128-.378l2.228-.259c.57-.073.984-.189 1.242-.348.259-.159.388-.417.388-.775v-.07c0-.868-.245-1.541-.736-2.018-.484-.478-1.206-.716-2.167-.716-1.001 0-1.79.222-2.367.666-.57.437-.964.925-1.183 1.461l-2.794-.636c.331-.928.815-1.677 1.452-2.247a5.89 5.89 0 0 1 2.217-1.253 8.659 8.659 0 0 1 2.635-.398c.61 0 1.256.073 1.939.22.689.138 1.332.397 1.929.775.603.378 1.097.918 1.481 1.62.385.696.577 1.601.577 2.715V27h-2.903v-2.088h-.12c-.192.384-.48.762-.865 1.134-.384.37-.878.679-1.481.924-.603.245-1.326.368-2.168.368Zm.647-2.386c.821 0 1.524-.163 2.107-.488.59-.324 1.038-.749 1.343-1.272.311-.53.467-1.097.467-1.7v-1.97c-.106.107-.311.206-.616.299-.299.086-.64.162-1.024.229-.385.06-.759.116-1.124.169-.365.046-.67.086-.915.12a7.359 7.359 0 0 0-1.581.367c-.47.172-.848.42-1.133.746-.279.318-.418.742-.418 1.272 0 .736.272 1.293.815 1.67.544.372 1.237.558 2.079.558Z"/><g fill="#0A2832" clip-path="url(#a)"><path d="M4.91 88.973h5.366l1.789 7.143h2.377l-2.377-9.52h-4.19l6.555-7.155h-2.92l-6.6 7.098v-7.098H2.533v16.664H4.91v-7.132ZM33.494 96.105l7.143-11.886v11.886h2.377V79.43h-2.377l-7.143 11.955V79.44h-2.389v16.664h2.39ZM54.923 86.584h-7.2v-7.143h-2.377v16.664h2.378v-7.143h7.2v7.143H57.3V79.441h-2.378v7.143ZM19.197 60.388h9.52v14.287h2.389V58.01H16.819v16.664h2.378V60.388ZM2.544 74.686H4.92l.985-3.498h6.158v3.487h2.378V58H7.355v.022H7.31L4.23 68.8H3.224l-.679 2.378h.996l-.996 3.51Zm6.419-14.298h3.101v8.423H6.585l2.378-8.423ZM57.176 58h-6.962v.022h-.034L47.09 68.8h-1.008l-.68 2.378h1.008l-1.007 3.498h2.377l.985-3.498h6.17v3.487h2.377V57.999h-.136Zm-7.732 10.8 2.377-8.423h3.114v8.422h-5.49ZM45.38 63.4v-.023c0-2.864-2.162-5.219-4.879-5.355h-7.018v16.664h2.377v-5.898l4.358-.011c2.83 0 5.14-2.389 5.14-5.366V63.4h.023Zm-5.456 3.045h-4.053v-6.08h4.053c1.608 0 2.91 1.36 2.91 3.035 0 1.686-1.302 3.045-2.91 3.045ZM52.41 100.871h-7.018v16.664h2.377v-5.909l4.358-.012c2.83 0 5.14-2.388 5.14-5.366v-.022c.022-2.864-2.151-5.219-4.857-5.355Zm-.577 8.411H47.78v-6.079h4.053c1.607 0 2.91 1.359 2.91 3.034 0 1.687-1.303 3.045-2.91 3.045ZM25.208 107.335v-6.452H16.83v16.664h6.09c2.83 0 5.14-2.389 5.14-5.366v-.034c0-2.106-1.167-3.929-2.853-4.812Zm-2.378-4.075v3.521h-3.61v-3.521h3.61Zm-.215 11.943H19.22v-6.079h3.396c1.608 0 2.91 1.359 2.91 3.034 0 1.687-1.302 3.045-2.91 3.045ZM13.774 115.169h-1.72v-14.287h-1.178v-.011H4.92v14.298H3.212l-.69 2.378H9.675v.011h2.377v-.011h2.389l-.668-2.378Zm-6.475 0V103.26h2.377v11.909H7.299ZM36.426 100.407c-4.03 0-7.29 3.94-7.29 8.796 0 4.857 3.26 8.796 7.29 8.796s7.29-3.939 7.29-8.796c0-4.856-3.26-8.796-7.29-8.796Zm0 15.215c-2.706 0-4.902-2.875-4.902-6.419 0-3.532 2.197-6.419 4.902-6.419 2.706 0 4.902 2.876 4.902 6.419.011 3.532-2.196 6.419-4.902 6.419ZM22.683 81.4c2.06 0 3.68 1.301 4.494 3.464 0 0 1.37-.906 2.015-1.574-1.109-2.649-3.78-4.313-6.509-4.313-4.211 0-7.63 3.94-7.63 8.796 0 4.857 3.419 8.796 7.63 8.796 2.298 0 4.37-1.177 5.762-3.034-.962-.86-1.868-1.63-1.868-1.63-.94 1.37-2.343 2.242-3.905 2.242-2.83 0-5.14-2.865-5.14-6.374.012-3.52 2.321-6.374 5.151-6.374Z"/></g><path fill="#058CD7" d="M150.869 98.278a7.614 7.614 0 0 1-2.505-.477c-.836-.305-1.598-.819-2.287-1.541-.69-.73-1.243-1.714-1.661-2.953-.417-1.246-.626-2.81-.626-4.693 0-1.803.169-3.4.507-4.793.338-1.399.828-2.575 1.471-3.53.643-.961 1.419-1.69 2.327-2.187.915-.498 1.946-.746 3.093-.746 1.14 0 2.154.229 3.042.686a5.808 5.808 0 0 1 2.188 1.89c.563.808.928 1.74 1.093 2.793h-2.426c-.225-.915-.663-1.674-1.312-2.277-.65-.603-1.512-.904-2.585-.904-1.578 0-2.821.685-3.729 2.058-.902 1.372-1.356 3.297-1.362 5.777h.159a5.986 5.986 0 0 1 3.032-2.377 5.93 5.93 0 0 1 1.979-.328c1.167 0 2.234.292 3.202.875.968.577 1.743 1.376 2.326 2.396.584 1.015.875 2.178.875 3.49 0 1.26-.281 2.413-.845 3.46a6.432 6.432 0 0 1-2.376 2.486c-1.014.61-2.208.909-3.58.895Zm0-2.187c.836 0 1.585-.209 2.247-.626a4.472 4.472 0 0 0 1.581-1.68c.392-.704.587-1.486.587-2.347 0-.842-.189-1.608-.567-2.297a4.323 4.323 0 0 0-1.541-1.66c-.649-.412-1.392-.617-2.227-.617-.63 0-1.217.126-1.76.377a4.536 4.536 0 0 0-1.432 1.015c-.404.43-.722.924-.954 1.481a4.433 4.433 0 0 0-.348 1.74c0 .809.188 1.565.566 2.267a4.67 4.67 0 0 0 1.571 1.7c.67.431 1.429.647 2.277.647Zm17.354 2.187c-1.498 0-2.774-.407-3.828-1.223-1.054-.822-1.86-2.011-2.417-3.57-.556-1.564-.835-3.453-.835-5.667 0-2.2.279-4.08.835-5.638.564-1.564 1.372-2.757 2.426-3.58 1.061-.828 2.334-1.242 3.819-1.242 1.485 0 2.754.414 3.808 1.243 1.061.822 1.869 2.015 2.426 3.58.563 1.557.845 3.436.845 5.637 0 2.214-.278 4.103-.835 5.668-.557 1.558-1.362 2.747-2.416 3.57-1.054.815-2.33 1.222-3.828 1.222Zm0-2.187c1.485 0 2.638-.716 3.46-2.148.822-1.432 1.233-3.473 1.233-6.125 0-1.763-.189-3.264-.567-4.504-.371-1.24-.908-2.184-1.611-2.834-.696-.65-1.534-.974-2.515-.974-1.472 0-2.622.725-3.451 2.177-.828 1.445-1.243 3.49-1.243 6.135 0 1.763.186 3.261.557 4.495.372 1.233.905 2.17 1.601 2.813.703.643 1.548.965 2.536.965Zm18.772 7.636v-21h2.267v2.426h.279c.172-.265.411-.603.716-1.014.311-.417.755-.789 1.332-1.113.583-.332 1.372-.498 2.367-.498 1.286 0 2.419.322 3.4.965.981.643 1.747 1.554 2.297 2.734s.825 2.572.825 4.176c0 1.618-.275 3.02-.825 4.206-.55 1.18-1.312 2.095-2.287 2.745-.974.643-2.098.964-3.371.964-.981 0-1.766-.162-2.356-.487-.59-.332-1.044-.706-1.362-1.124a14.688 14.688 0 0 1-.736-1.054h-.199v8.074h-2.347Zm2.307-13.363c0 1.153.169 2.17.507 3.052.338.875.832 1.561 1.482 2.058.649.491 1.445.736 2.386.736.981 0 1.8-.258 2.456-.775.663-.524 1.16-1.227 1.492-2.108.338-.889.507-1.876.507-2.963 0-1.074-.166-2.042-.497-2.904-.325-.868-.819-1.554-1.482-2.058-.656-.51-1.481-.766-2.476-.766-.954 0-1.756.242-2.406.726-.65.478-1.14 1.147-1.472 2.009-.331.855-.497 1.853-.497 2.993Zm15.877-7.637 3.659 6.245 3.659-6.245h2.705l-4.932 7.637L215.202 98h-2.705l-3.659-5.926L205.179 98h-2.705l4.853-7.636-4.853-7.637h2.705Z"/><path stroke="#058CD7" stroke-width="2" d="M138 119h-38M138 59h-38M135 69l-8-8-8 8M119 109l8 8 8-8M127 62v54"/><g fill="#0A2832" clip-path="url(#b)"><path d="M4.91 269.973h5.366l1.789 7.143h2.377l-2.377-9.52h-4.19l6.555-7.155h-2.92l-6.6 7.098v-7.098H2.533v16.664H4.91v-7.132ZM33.494 277.105l7.143-11.886v11.886h2.377V260.43h-2.377l-7.143 11.955v-11.944h-2.389v16.664h2.39ZM54.923 267.584h-7.2v-7.143h-2.377v16.664h2.378v-7.143h7.2v7.143H57.3v-16.664h-2.378v7.143ZM19.197 241.388h9.52v14.287h2.389v-16.664H16.819v16.664h2.378v-14.287ZM2.544 255.686H4.92l.985-3.498h6.158v3.487h2.378V239H7.355v.022H7.31L4.23 249.8H3.224l-.679 2.377h.996l-.996 3.509Zm6.419-14.298h3.101v8.423H6.585l2.378-8.423ZM57.176 239h-6.962v.022h-.034L47.09 249.8h-1.008l-.68 2.377h1.008l-1.007 3.498h2.377l.985-3.498h6.17v3.487h2.377V239h-.136Zm-7.732 10.8 2.377-8.423h3.114v8.423h-5.49ZM45.38 244.4v-.023c0-2.864-2.162-5.219-4.879-5.355h-7.018v16.664h2.377v-5.898l4.358-.011c2.83 0 5.14-2.389 5.14-5.366v-.011h.023Zm-5.456 3.045h-4.053v-6.079h4.053c1.608 0 2.91 1.358 2.91 3.034 0 1.686-1.302 3.045-2.91 3.045ZM52.41 281.871h-7.018v16.664h2.377v-5.909l4.358-.012c2.83 0 5.14-2.388 5.14-5.366v-.022c.022-2.864-2.151-5.219-4.857-5.355Zm-.577 8.411H47.78v-6.079h4.053c1.607 0 2.91 1.359 2.91 3.034 0 1.687-1.303 3.045-2.91 3.045ZM25.208 288.335v-6.452H16.83v16.664h6.09c2.83 0 5.14-2.389 5.14-5.366v-.034c0-2.106-1.167-3.929-2.853-4.812Zm-2.378-4.075v3.521h-3.61v-3.521h3.61Zm-.215 11.943H19.22v-6.079h3.396c1.608 0 2.91 1.359 2.91 3.034 0 1.687-1.302 3.045-2.91 3.045ZM13.774 296.169h-1.72v-14.287h-1.178v-.011H4.92v14.298H3.212l-.69 2.378H9.675v.011h2.377v-.011h2.389l-.668-2.378Zm-6.475 0V284.26h2.377v11.909H7.299ZM36.426 281.407c-4.03 0-7.29 3.94-7.29 8.796 0 4.857 3.26 8.796 7.29 8.796s7.29-3.939 7.29-8.796c0-4.856-3.26-8.796-7.29-8.796Zm0 15.215c-2.706 0-4.902-2.875-4.902-6.419 0-3.532 2.197-6.419 4.902-6.419 2.706 0 4.902 2.876 4.902 6.419.011 3.532-2.196 6.419-4.902 6.419ZM22.683 262.399c2.06 0 3.68 1.302 4.494 3.465 0 0 1.37-.906 2.015-1.574-1.109-2.649-3.78-4.313-6.509-4.313-4.211 0-7.63 3.939-7.63 8.796 0 4.857 3.419 8.796 7.63 8.796 2.298 0 4.37-1.177 5.762-3.034-.962-.86-1.868-1.63-1.868-1.63-.94 1.37-2.343 2.242-3.905 2.242-2.83 0-5.14-2.865-5.14-6.374.012-3.521 2.321-6.374 5.151-6.374Z"/></g><path fill="#058CD7" d="M151.267 258.636V279h-2.466v-17.778h-.119l-4.972 3.301v-2.506l5.091-3.381h2.466Zm12.22 20.642c-1.166 0-2.217-.232-3.152-.696-.934-.464-1.683-1.1-2.247-1.909-.563-.808-.872-1.73-.925-2.764h2.387c.093.921.51 1.684 1.253 2.287.749.597 1.643.895 2.684.895.835 0 1.578-.196 2.227-.587a4.141 4.141 0 0 0 1.542-1.611c.378-.689.566-1.468.566-2.336 0-.888-.195-1.681-.586-2.377a4.311 4.311 0 0 0-1.591-1.66c-.676-.404-1.449-.61-2.317-.617a6.38 6.38 0 0 0-1.919.289c-.656.192-1.196.441-1.621.746l-2.306-.279 1.232-10.023h10.58v2.188h-8.511l-.716 6.006h.119c.418-.332.941-.607 1.571-.826a5.978 5.978 0 0 1 1.969-.328c1.246 0 2.356.298 3.331.895a6.254 6.254 0 0 1 2.307 2.426c.563 1.028.845 2.201.845 3.52 0 1.299-.292 2.459-.875 3.48a6.396 6.396 0 0 1-2.387 2.406c-1.014.584-2.167.875-3.46.875Zm18.587-.278v-15.273h2.267v2.387h.198c.319-.816.832-1.449 1.542-1.9.709-.457 1.561-.686 2.555-.686 1.008 0 1.846.229 2.516.686.676.451 1.203 1.084 1.581 1.9h.159a4.444 4.444 0 0 1 1.76-1.88c.782-.47 1.72-.706 2.814-.706 1.365 0 2.482.428 3.35 1.283.869.849 1.303 2.171 1.303 3.967V279h-2.347v-10.222c0-1.126-.308-1.932-.924-2.416-.617-.484-1.343-.726-2.178-.726-1.074 0-1.906.325-2.496.975-.59.643-.885 1.458-.885 2.446V279h-2.386v-10.46c0-.869-.282-1.568-.845-2.098-.564-.537-1.289-.806-2.178-.806-.61 0-1.18.163-1.71.488a3.67 3.67 0 0 0-1.273 1.352c-.318.57-.477 1.229-.477 1.979V279h-2.346Zm24.335 0v-15.273h2.267v2.387h.199c.319-.816.832-1.449 1.542-1.9.709-.457 1.561-.686 2.555-.686 1.008 0 1.846.229 2.516.686.676.451 1.203 1.084 1.581 1.9h.159a4.444 4.444 0 0 1 1.76-1.88c.782-.47 1.72-.706 2.813-.706 1.366 0 2.483.428 3.351 1.283.869.849 1.303 2.171 1.303 3.967V279h-2.347v-10.222c0-1.126-.308-1.932-.924-2.416-.617-.484-1.343-.726-2.178-.726-1.074 0-1.906.325-2.496.975-.59.643-.885 1.458-.885 2.446V279h-2.386v-10.46c0-.869-.282-1.568-.845-2.098-.564-.537-1.289-.806-2.178-.806-.61 0-1.18.163-1.71.488a3.67 3.67 0 0 0-1.273 1.352c-.318.57-.477 1.229-.477 1.979V279h-2.347Z"/><path stroke="#058CD7" stroke-width="2" d="M138 300h-38M138 240h-38M135 250l-8-8-8 8M119 290l8 8 8-8M127 243v54"/><path fill="#058CD7" d="M.696 212.922v-7.527h1.342c.458-.385.885-.931 1.283-1.641.398-.709.736-1.667 1.014-2.873.279-1.207.47-2.755.577-4.644l.477-8.601h12.558v17.759h2.307v7.497h-2.943V208H3.64v4.922H.696Zm4.962-7.527h9.346v-15.114h-6.83l-.319 5.956a35.16 35.16 0 0 1-.427 3.878c-.193 1.147-.441 2.161-.746 3.043-.298.875-.64 1.62-1.024 2.237ZM22.178 208l-.01-2.575h.547c.424 0 .78-.09 1.064-.269.292-.185.53-.497.716-.934.186-.438.328-1.041.428-1.81.099-.776.172-1.75.218-2.923l.269-6.762h10.659V208h-2.913v-12.707h-4.992l-.239 5.19c-.06 1.259-.189 2.36-.387 3.301-.193.941-.474 1.727-.846 2.357-.37.623-.848 1.09-1.431 1.402-.584.305-1.293.457-2.128.457h-.955Zm26.964 0v-12.737h-3.66c-.868 0-1.544.202-2.028.606-.484.405-.726.935-.726 1.591 0 .65.222 1.174.666 1.571.451.391 1.081.587 1.89.587h4.723v2.406h-4.723c-1.127 0-2.102-.185-2.924-.557-.815-.378-1.445-.911-1.889-1.601-.437-.689-.656-1.504-.656-2.446 0-.961.225-1.789.676-2.485.458-.703 1.11-1.247 1.959-1.631.855-.384 1.866-.577 3.033-.577h6.453V208h-2.794Zm-10.023 0 4.305-7.716h3.043L42.162 208h-3.043Zm24.184 0v-15.273h12.46V208h-2.914v-12.707h-6.652V208h-2.894Zm23.016.308c-1.505 0-2.8-.321-3.888-.964-1.08-.65-1.915-1.561-2.505-2.735-.584-1.18-.875-2.562-.875-4.146 0-1.564.291-2.943.875-4.136.59-1.193 1.412-2.125 2.466-2.794 1.06-.67 2.3-1.005 3.718-1.005.862 0 1.697.143 2.506.428a6.066 6.066 0 0 1 2.178 1.342c.643.61 1.15 1.402 1.521 2.377.371.968.557 2.144.557 3.53v1.054h-12.14v-2.228h9.227c0-.782-.16-1.475-.478-2.078a3.612 3.612 0 0 0-1.342-1.442c-.57-.351-1.24-.527-2.009-.527-.835 0-1.564.206-2.187.617a4.137 4.137 0 0 0-1.432 1.591 4.59 4.59 0 0 0-.497 2.118v1.74c0 1.021.179 1.889.537 2.605.364.716.871 1.263 1.521 1.64.65.372 1.409.557 2.277.557.563 0 1.077-.079 1.541-.238a3.33 3.33 0 0 0 1.203-.736 3.2 3.2 0 0 0 .776-1.203l2.814.507a5.097 5.097 0 0 1-1.213 2.177c-.577.617-1.303 1.097-2.178 1.442-.868.338-1.86.507-2.973.507Zm22.111-15.581V208h-2.903v-15.273h2.903Zm-1.262 7.09v2.565c-.458.186-.942.351-1.452.497-.511.139-1.047.249-1.611.328-.563.08-1.15.12-1.76.12-1.889 0-3.39-.461-4.504-1.382-1.114-.928-1.67-2.347-1.67-4.256v-4.992h2.893v4.992c0 .722.133 1.309.398 1.76.265.451.643.782 1.133.994.491.212 1.074.318 1.75.318.895 0 1.72-.082 2.476-.248a19.64 19.64 0 0 0 2.347-.696Zm9.662 8.521c-.968 0-1.843-.179-2.625-.537a4.412 4.412 0 0 1-1.859-1.581c-.451-.689-.677-1.534-.677-2.535 0-.862.166-1.571.498-2.128a3.662 3.662 0 0 1 1.342-1.323 7.006 7.006 0 0 1 1.889-.735 18.666 18.666 0 0 1 2.128-.378l2.227-.259c.57-.073.985-.189 1.243-.348.259-.159.388-.417.388-.775v-.07c0-.868-.245-1.541-.736-2.018-.484-.478-1.206-.716-2.168-.716-1 0-1.789.222-2.366.666-.57.437-.964.925-1.183 1.461l-2.794-.636c.331-.928.815-1.677 1.451-2.247a5.895 5.895 0 0 1 2.218-1.253 8.657 8.657 0 0 1 2.635-.398c.61 0 1.256.073 1.939.219a5.676 5.676 0 0 1 1.929.776c.603.378 1.097.918 1.481 1.62.385.696.577 1.601.577 2.715V208h-2.904v-2.088h-.119c-.192.384-.48.762-.865 1.133-.384.372-.878.68-1.481.925-.604.245-1.326.368-2.168.368Zm.646-2.386c.822 0 1.525-.163 2.108-.488.59-.324 1.038-.749 1.342-1.272a3.3 3.3 0 0 0 .468-1.701v-1.968c-.106.106-.312.205-.617.298a9.754 9.754 0 0 1-1.024.229c-.384.059-.759.116-1.123.169-.365.046-.67.086-.915.119a7.389 7.389 0 0 0-1.581.368c-.471.172-.849.421-1.134.746-.278.318-.417.742-.417 1.272 0 .736.272 1.293.815 1.671.544.371 1.236.557 2.078.557Zm8.957-10.659v-2.566h12.886v2.566h-4.982V208h-2.903v-12.707h-5.001Zm18.944 8.541 6.731-11.107h3.202V208h-2.913v-11.116L145.695 208h-3.232v-15.273h2.914v11.107Z"/><defs><clipPath id="a"><path fill="#fff" d="M0 58h60v60H0z"/></clipPath><clipPath id="b"><path fill="#fff" d="M0 239h60v60H0z"/></clipPath></defs></svg>