<svg width="229" height="301" viewBox="0 0 229 301" fill="none" xmlns="http://www.w3.org/2000/svg">
<path d="M0.696023 31.9219V24.3949H2.03835C2.49574 24.0104 2.9233 23.4635 3.32102 22.7543C3.71875 22.045 4.05682 21.0871 4.33523 19.8807C4.61364 18.6742 4.80587 17.1264 4.91193 15.2372L5.3892 6.63636H17.9474V24.3949H20.2543V31.892H17.3111V27H3.6392V31.9219H0.696023ZM5.65767 24.3949H15.0043V9.28125H8.1733L7.85511 15.2372C7.76894 16.6757 7.62642 17.9683 7.42756 19.1151C7.23532 20.2618 6.98674 21.276 6.68182 22.1577C6.38352 23.0327 6.04214 23.7784 5.65767 24.3949ZM22.1783 27L22.1683 24.4247H22.7152C23.1394 24.4247 23.4941 24.3352 23.7791 24.1562C24.0708 23.9706 24.3094 23.6591 24.495 23.2216C24.6806 22.7841 24.8232 22.1809 24.9226 21.4119C25.022 20.6364 25.0949 19.6619 25.1413 18.4886L25.4098 11.7273H36.0689V27H33.1555V14.2926H28.1641L27.9254 19.483C27.8658 20.7424 27.7365 21.8428 27.5376 22.7841C27.3454 23.7254 27.0637 24.5109 26.6925 25.1406C26.3213 25.7637 25.844 26.2311 25.2607 26.5426C24.6773 26.8475 23.968 27 23.1328 27H22.1783ZM49.1417 27V14.2628H45.4826C44.6142 14.2628 43.9381 14.465 43.4542 14.8693C42.9703 15.2737 42.7283 15.804 42.7283 16.4602C42.7283 17.1098 42.9504 17.6335 43.3945 18.0312C43.8453 18.4223 44.475 18.6179 45.2837 18.6179H50.0067V21.0241H45.2837C44.1568 21.0241 43.1824 20.8385 42.3604 20.4673C41.5451 20.0895 40.9154 19.5559 40.4712 18.8665C40.0337 18.1771 39.815 17.3617 39.815 16.4205C39.815 15.4593 40.0404 14.6307 40.4911 13.9347C40.9485 13.232 41.6014 12.6884 42.4499 12.304C43.305 11.9195 44.3159 11.7273 45.4826 11.7273H51.9357V27H49.1417ZM39.119 27L43.4244 19.2841H46.467L42.1616 27H39.119ZM61.8118 31.4048V24.4247H63.0547C63.3729 24.133 63.6413 23.785 63.8601 23.3807C64.0855 22.9763 64.2744 22.4957 64.4268 21.9389C64.5859 21.3821 64.7185 20.7325 64.8246 19.9901C64.9306 19.241 65.0234 18.3859 65.103 17.4247L65.5803 11.7273H75.9609V24.4247H78.3075V31.4048H75.4041V27H64.755V31.4048H61.8118ZM66.2365 24.4247H73.0575V14.2727H68.245L67.9268 17.4247C67.7744 19.0289 67.5821 20.4209 67.3501 21.6009C67.1181 22.7741 66.7469 23.7154 66.2365 24.4247ZM84.1268 22.8338L90.8583 11.7273H94.06V27H91.1467V15.8835L84.445 27H81.2134V11.7273H84.1268V22.8338ZM96.5657 31.4048V24.4247H97.8086C98.1268 24.133 98.3952 23.785 98.614 23.3807C98.8394 22.9763 99.0283 22.4957 99.1808 21.9389C99.3398 21.3821 99.4724 20.7325 99.5785 19.9901C99.6845 19.241 99.7773 18.3859 99.8569 17.4247L100.334 11.7273H110.715V24.4247H113.061V31.4048H110.158V27H99.5089V31.4048H96.5657ZM100.99 24.4247H107.811V14.2727H102.999L102.681 17.4247C102.528 19.0289 102.336 20.4209 102.104 21.6009C101.872 22.7741 101.501 23.7154 100.99 24.4247ZM114.993 27L120.909 19.1847L115.062 11.7273H118.523L123.246 18.071H124.31V11.7273H127.283V18.071H128.317L133.04 11.7273H136.5L130.683 19.1847L136.57 27H133.04L128.277 20.6364H127.283V27H124.31V20.6364H123.315L118.523 27H114.993ZM142.506 22.8338L149.237 11.7273H152.439V27H149.526V15.8835L142.824 27H139.592V11.7273H142.506V22.8338ZM154.542 14.2926V11.7273H167.428V14.2926H162.447V27H159.543V14.2926H154.542ZM174.306 27.3381C173.339 27.3381 172.464 27.1591 171.681 26.8011C170.899 26.4366 170.279 25.9096 169.822 25.2202C169.371 24.5308 169.146 23.6856 169.146 22.6847C169.146 21.8229 169.312 21.1136 169.643 20.5568C169.975 20 170.422 19.5592 170.985 19.2344C171.549 18.9096 172.179 18.6643 172.875 18.4986C173.571 18.3329 174.28 18.2069 175.002 18.1207C175.917 18.0147 176.66 17.9285 177.23 17.8622C177.8 17.7893 178.214 17.6733 178.473 17.5142C178.731 17.3551 178.86 17.0966 178.86 16.7386V16.669C178.86 15.8007 178.615 15.1278 178.125 14.6506C177.641 14.1733 176.918 13.9347 175.957 13.9347C174.956 13.9347 174.167 14.1567 173.591 14.6009C173.02 15.0384 172.626 15.5256 172.407 16.0625L169.613 15.4261C169.945 14.4981 170.429 13.7491 171.065 13.179C171.708 12.6023 172.447 12.1847 173.282 11.9261C174.118 11.661 174.996 11.5284 175.917 11.5284C176.527 11.5284 177.173 11.6013 177.856 11.7472C178.546 11.8864 179.189 12.1449 179.785 12.5227C180.388 12.9006 180.882 13.4408 181.267 14.1435C181.651 14.8395 181.843 15.7443 181.843 16.858V27H178.94V24.9119H178.821C178.628 25.2964 178.34 25.6742 177.956 26.0455C177.571 26.4167 177.077 26.7249 176.474 26.9702C175.871 27.2154 175.148 27.3381 174.306 27.3381ZM174.953 24.9517C175.775 24.9517 176.477 24.7893 177.061 24.4645C177.651 24.1397 178.098 23.7154 178.403 23.1918C178.715 22.6615 178.87 22.0947 178.87 21.4915V19.5227C178.764 19.6288 178.559 19.7282 178.254 19.821C177.956 19.9072 177.614 19.9834 177.23 20.0497C176.845 20.1094 176.471 20.1657 176.106 20.2188C175.742 20.2652 175.437 20.3049 175.191 20.3381C174.615 20.411 174.088 20.5336 173.61 20.706C173.14 20.8783 172.762 21.1269 172.477 21.4517C172.199 21.7699 172.059 22.1941 172.059 22.7244C172.059 23.4602 172.331 24.017 172.875 24.3949C173.418 24.7661 174.111 24.9517 174.953 24.9517ZM184.6 27L184.59 24.4247H185.137C185.561 24.4247 185.916 24.3352 186.201 24.1562C186.493 23.9706 186.731 23.6591 186.917 23.2216C187.103 22.7841 187.245 22.1809 187.344 21.4119C187.444 20.6364 187.517 19.6619 187.563 18.4886L187.832 11.7273H198.491V27H195.577V14.2926H190.586L190.347 19.483C190.288 20.7424 190.158 21.8428 189.96 22.7841C189.767 23.7254 189.486 24.5109 189.114 25.1406C188.743 25.7637 188.266 26.2311 187.683 26.5426C187.099 26.8475 186.39 27 185.555 27H184.6ZM206.9 27.3381C205.932 27.3381 205.057 27.1591 204.275 26.8011C203.493 26.4366 202.873 25.9096 202.416 25.2202C201.965 24.5308 201.74 23.6856 201.74 22.6847C201.74 21.8229 201.905 21.1136 202.237 20.5568C202.568 20 203.016 19.5592 203.579 19.2344C204.143 18.9096 204.772 18.6643 205.468 18.4986C206.164 18.3329 206.874 18.2069 207.596 18.1207C208.511 18.0147 209.253 17.9285 209.824 17.8622C210.394 17.7893 210.808 17.6733 211.066 17.5142C211.325 17.3551 211.454 17.0966 211.454 16.7386V16.669C211.454 15.8007 211.209 15.1278 210.718 14.6506C210.234 14.1733 209.512 13.9347 208.551 13.9347C207.55 13.9347 206.761 14.1567 206.184 14.6009C205.614 15.0384 205.22 15.5256 205.001 16.0625L202.207 15.4261C202.538 14.4981 203.022 13.7491 203.659 13.179C204.302 12.6023 205.041 12.1847 205.876 11.9261C206.711 11.661 207.59 11.5284 208.511 11.5284C209.121 11.5284 209.767 11.6013 210.45 11.7472C211.139 11.8864 211.782 12.1449 212.379 12.5227C212.982 12.9006 213.476 13.4408 213.86 14.1435C214.245 14.8395 214.437 15.7443 214.437 16.858V27H211.534V24.9119H211.414C211.222 25.2964 210.934 25.6742 210.549 26.0455C210.165 26.4167 209.671 26.7249 209.068 26.9702C208.465 27.2154 207.742 27.3381 206.9 27.3381ZM207.547 24.9517C208.368 24.9517 209.071 24.7893 209.654 24.4645C210.244 24.1397 210.692 23.7154 210.997 23.1918C211.308 22.6615 211.464 22.0947 211.464 21.4915V19.5227C211.358 19.6288 211.153 19.7282 210.848 19.821C210.549 19.9072 210.208 19.9834 209.824 20.0497C209.439 20.1094 209.065 20.1657 208.7 20.2188C208.335 20.2652 208.03 20.3049 207.785 20.3381C207.208 20.411 206.681 20.5336 206.204 20.706C205.734 20.8783 205.356 21.1269 205.071 21.4517C204.792 21.7699 204.653 22.1941 204.653 22.7244C204.653 23.4602 204.925 24.017 205.468 24.3949C206.012 24.7661 206.705 24.9517 207.547 24.9517Z" fill="#058CD7"/>
<g clip-path="url(#clip0_586_10834)">
<path d="M4.90999 88.973H10.2758L12.0645 96.1164H14.4417L12.0645 86.5956H7.87593L14.4304 79.4409H11.5098L4.90999 86.539V79.4409H2.53271V96.1051H4.90999V88.973Z" fill="#0A2832"/>
<path d="M33.4941 96.1054L40.6372 84.2186V96.1054H43.0145V79.4299H40.6372L33.4941 91.3846V79.4413H31.1055V96.1054H33.4941Z" fill="#0A2832"/>
<path d="M54.9232 86.5843H47.7235V79.4409H45.3462V96.1051H47.7235V88.9617H54.9232V96.1051H57.3005V79.4409H54.9232V86.5843Z" fill="#0A2832"/>
<path d="M19.1966 60.3881H28.717V74.6749H31.1056V58.0107H29.4076H28.717H19.1966H18.6419H16.8193V74.6749H19.1966V60.3881Z" fill="#0A2832"/>
<path d="M2.54395 74.6863H4.92122L5.90609 71.1882H12.0644V74.675H14.4416V57.9995H14.3171H7.3551V58.0222H7.30982L4.23068 68.7995H3.22317L2.54395 71.1769H3.54014L2.54395 74.6863ZM8.96259 60.3882H12.0644V68.8108H6.58531L8.96259 60.3882Z" fill="#0A2832"/>
<path d="M57.176 57.9995H50.214V58.0222H50.18L47.0896 68.7995H46.0821L45.4028 71.1769H46.4103L45.4028 74.675H47.7801L48.765 71.1769H54.9346V74.6637H57.3119V57.9995H57.176ZM49.4442 68.7995L51.8215 60.3769H54.9346V68.7995H49.4442Z" fill="#0A2832"/>
<path d="M45.3806 63.3996V63.3883V63.3769C45.3806 60.5128 43.2184 58.1581 40.5015 58.0222H34.5583H33.4829V74.6864H35.8602V68.7883L40.2185 68.7769C43.0486 68.7769 45.358 66.3883 45.358 63.4109V63.3996H45.3806ZM39.9242 66.4449H35.8715V60.3656H39.9242C41.5317 60.3656 42.8335 61.7241 42.8335 63.3996C42.8335 65.0864 41.5317 66.4449 39.9242 66.4449Z" fill="#0A2832"/>
<path d="M52.4102 100.871H46.467H45.3916V117.535H47.7689V111.626L52.1272 111.614C54.9573 111.614 57.2667 109.226 57.2667 106.248V106.237V106.226C57.2893 103.362 55.1158 101.007 52.4102 100.871ZM51.8329 109.282H47.7802V103.203H51.8329C53.4404 103.203 54.7422 104.562 54.7422 106.237C54.7422 107.924 53.4404 109.282 51.8329 109.282Z" fill="#0A2832"/>
<path d="M25.2076 107.335V100.883H24.0077H22.8304H19.2192H18.0758H16.8306V117.547H19.2078H22.9209C25.751 117.547 28.0604 115.158 28.0604 112.181V112.169V112.158V112.147C28.0604 110.041 26.8944 108.218 25.2076 107.335ZM22.8304 103.26V106.781H19.2192V103.26H22.8304ZM22.6153 115.203H19.2192V109.124H22.6153C24.2228 109.124 25.5246 110.483 25.5246 112.158C25.5246 113.845 24.2228 115.203 22.6153 115.203Z" fill="#0A2832"/>
<path d="M13.7739 115.169H12.0532V100.882H10.8759V100.871H7.29868H5.62326H4.9214V115.169H3.21203L2.52148 117.547H4.9214H7.29868H9.67595V117.558H12.0532V117.547H14.4418L13.7739 115.169ZM7.29868 115.169V103.26H9.67595V115.169H7.29868Z" fill="#0A2832"/>
<path d="M36.4261 100.407C32.396 100.407 29.1357 104.347 29.1357 109.203C29.1357 114.06 32.396 117.999 36.4261 117.999C40.4561 117.999 43.7164 114.06 43.7164 109.203C43.7164 104.347 40.4561 100.407 36.4261 100.407ZM36.4261 115.622C33.7205 115.622 31.5243 112.747 31.5243 109.203C31.5243 105.671 33.7205 102.784 36.4261 102.784C39.1316 102.784 41.3278 105.66 41.3278 109.203C41.3391 112.735 39.1316 115.622 36.4261 115.622Z" fill="#0A2832"/>
<path d="M22.6831 81.3994C24.7435 81.3994 26.3623 82.7013 27.1773 84.8636C27.1773 84.8636 28.5471 83.9579 29.1924 83.29C28.083 80.641 25.4114 78.9768 22.6831 78.9768C18.472 78.9768 15.0532 82.9164 15.0532 87.773C15.0532 92.6296 18.472 96.5693 22.6831 96.5693C24.9812 96.5693 27.0528 95.3919 28.4452 93.5353C27.483 92.6749 26.5774 91.9051 26.5774 91.9051C25.6378 93.2749 24.234 94.1466 22.6718 94.1466C19.8417 94.1466 17.5324 91.2825 17.5324 87.773C17.5437 84.2523 19.8531 81.3994 22.6831 81.3994Z" fill="#0A2832"/>
</g>
<path d="M150.869 98.2784C150.034 98.2652 149.199 98.1061 148.364 97.8011C147.528 97.4962 146.766 96.9825 146.077 96.2599C145.387 95.5308 144.834 94.5464 144.416 93.3068C143.999 92.0606 143.79 90.4962 143.79 88.6136C143.79 86.8106 143.959 85.2131 144.297 83.821C144.635 82.4223 145.125 81.2457 145.768 80.2912C146.411 79.33 147.187 78.6009 148.095 78.1037C149.01 77.6065 150.041 77.358 151.188 77.358C152.328 77.358 153.342 77.5866 154.23 78.044C155.125 78.4948 155.854 79.1245 156.418 79.9332C156.981 80.742 157.346 81.6733 157.511 82.7273H155.085C154.86 81.8125 154.422 81.0535 153.773 80.4503C153.123 79.8471 152.261 79.5455 151.188 79.5455C149.61 79.5455 148.367 80.2315 147.459 81.6037C146.557 82.9759 146.103 84.9015 146.097 87.3807H146.256C146.627 86.8172 147.068 86.3366 147.578 85.9389C148.095 85.5346 148.665 85.223 149.288 85.0043C149.911 84.7855 150.571 84.6761 151.267 84.6761C152.434 84.6761 153.501 84.9678 154.469 85.5511C155.437 86.1278 156.212 86.9266 156.795 87.9474C157.379 88.9616 157.67 90.125 157.67 91.4375C157.67 92.697 157.389 93.8504 156.825 94.8977C156.262 95.9384 155.47 96.767 154.449 97.3835C153.435 97.9934 152.241 98.2917 150.869 98.2784ZM150.869 96.0909C151.705 96.0909 152.454 95.8821 153.116 95.4645C153.786 95.0469 154.313 94.4867 154.697 93.7841C155.089 93.0814 155.284 92.2992 155.284 91.4375C155.284 90.5956 155.095 89.83 154.717 89.1406C154.346 88.4446 153.832 87.8911 153.176 87.4801C152.527 87.0691 151.784 86.8636 150.949 86.8636C150.319 86.8636 149.732 86.9896 149.189 87.2415C148.645 87.4867 148.168 87.8248 147.757 88.2557C147.353 88.6866 147.035 89.1804 146.803 89.7372C146.571 90.2874 146.455 90.8674 146.455 91.4773C146.455 92.286 146.643 93.0417 147.021 93.7443C147.406 94.447 147.929 95.0137 148.592 95.4446C149.262 95.8755 150.021 96.0909 150.869 96.0909ZM168.223 98.2784C166.725 98.2784 165.449 97.8707 164.395 97.0554C163.341 96.2334 162.535 95.0436 161.978 93.4858C161.422 91.9214 161.143 90.0322 161.143 87.8182C161.143 85.6174 161.422 83.7382 161.978 82.1804C162.542 80.616 163.35 79.4228 164.404 78.6009C165.465 77.7723 166.738 77.358 168.223 77.358C169.708 77.358 170.977 77.7723 172.031 78.6009C173.092 79.4228 173.9 80.616 174.457 82.1804C175.02 83.7382 175.302 85.6174 175.302 87.8182C175.302 90.0322 175.024 91.9214 174.467 93.4858C173.91 95.0436 173.105 96.2334 172.051 97.0554C170.997 97.8707 169.721 98.2784 168.223 98.2784ZM168.223 96.0909C169.708 96.0909 170.861 95.375 171.683 93.9432C172.505 92.5114 172.916 90.4697 172.916 87.8182C172.916 86.0549 172.727 84.5535 172.349 83.3139C171.978 82.0743 171.441 81.1297 170.738 80.4801C170.042 79.8305 169.204 79.5057 168.223 79.5057C166.751 79.5057 165.601 80.2315 164.772 81.6832C163.944 83.1283 163.529 85.1733 163.529 87.8182C163.529 89.5814 163.715 91.0795 164.086 92.3125C164.458 93.5455 164.991 94.4834 165.687 95.1264C166.39 95.7694 167.235 96.0909 168.223 96.0909ZM186.995 103.727V82.7273H189.262V85.1534H189.541C189.713 84.8883 189.952 84.5502 190.257 84.1392C190.568 83.7216 191.012 83.3504 191.589 83.0256C192.172 82.6941 192.961 82.5284 193.956 82.5284C195.242 82.5284 196.375 82.8499 197.356 83.4929C198.337 84.1359 199.103 85.0473 199.653 86.2273C200.203 87.4072 200.478 88.7992 200.478 90.4034C200.478 92.0208 200.203 93.4228 199.653 94.6094C199.103 95.7893 198.341 96.7041 197.366 97.3537C196.392 97.9967 195.268 98.3182 193.995 98.3182C193.014 98.3182 192.229 98.1558 191.639 97.831C191.049 97.4995 190.595 97.125 190.277 96.7074C189.958 96.2831 189.713 95.9318 189.541 95.6534H189.342V103.727H186.995ZM189.302 90.3636C189.302 91.517 189.471 92.5346 189.809 93.4162C190.147 94.2912 190.641 94.9773 191.291 95.4744C191.94 95.965 192.736 96.2102 193.677 96.2102C194.658 96.2102 195.477 95.9517 196.133 95.4347C196.796 94.911 197.293 94.2083 197.625 93.3267C197.963 92.4384 198.132 91.4508 198.132 90.3636C198.132 89.2898 197.966 88.322 197.635 87.4602C197.31 86.5919 196.816 85.9058 196.153 85.402C195.497 84.8916 194.672 84.6364 193.677 84.6364C192.723 84.6364 191.921 84.8783 191.271 85.3622C190.621 85.8395 190.131 86.509 189.799 87.3707C189.468 88.2259 189.302 89.2235 189.302 90.3636ZM205.179 82.7273L208.838 88.9716L212.497 82.7273H215.202L210.27 90.3636L215.202 98H212.497L208.838 92.0739L205.179 98H202.474L207.327 90.3636L202.474 82.7273H205.179Z" fill="#058CD7"/>
<line x1="138" y1="119" x2="100" y2="119" stroke="#058CD7" stroke-width="2"/>
<line x1="138" y1="59" x2="100" y2="59" stroke="#058CD7" stroke-width="2"/>
<path d="M127 57.9636L127 118.964" stroke="#058CD7" stroke-width="2"/>
<g clip-path="url(#clip1_586_10834)">
<path d="M4.90999 269.973H10.2758L12.0645 277.116H14.4417L12.0645 267.596H7.87593L14.4304 260.441H11.5098L4.90999 267.539V260.441H2.53271V277.105H4.90999V269.973Z" fill="#0A2832"/>
<path d="M33.4941 277.105L40.6372 265.219V277.105H43.0145V260.43H40.6372L33.4941 272.385V260.441H31.1055V277.105H33.4941Z" fill="#0A2832"/>
<path d="M54.9232 267.584H47.7235V260.441H45.3462V277.105H47.7235V269.962H54.9232V277.105H57.3005V260.441H54.9232V267.584Z" fill="#0A2832"/>
<path d="M19.1966 241.388H28.717V255.675H31.1056V239.011H29.4076H28.717H19.1966H18.6419H16.8193V255.675H19.1966V241.388Z" fill="#0A2832"/>
<path d="M2.54395 255.686H4.92122L5.90609 252.188H12.0644V255.675H14.4416V239H14.3171H7.3551V239.022H7.30982L4.23068 249.8H3.22317L2.54395 252.177H3.54014L2.54395 255.686ZM8.96259 241.388H12.0644V249.811H6.58531L8.96259 241.388Z" fill="#0A2832"/>
<path d="M57.176 239H50.214V239.022H50.18L47.0896 249.8H46.0821L45.4028 252.177H46.4103L45.4028 255.675H47.7801L48.765 252.177H54.9346V255.664H57.3119V239H57.176ZM49.4442 249.8L51.8215 241.377H54.9346V249.8H49.4442Z" fill="#0A2832"/>
<path d="M45.3806 244.4V244.388V244.377C45.3806 241.513 43.2184 239.158 40.5015 239.022H34.5583H33.4829V255.686H35.8602V249.788L40.2185 249.777C43.0486 249.777 45.358 247.388 45.358 244.411V244.4H45.3806ZM39.9242 247.445H35.8715V241.366H39.9242C41.5317 241.366 42.8335 242.724 42.8335 244.4C42.8335 246.086 41.5317 247.445 39.9242 247.445Z" fill="#0A2832"/>
<path d="M52.4102 281.871H46.467H45.3916V298.535H47.7689V292.626L52.1272 292.614C54.9573 292.614 57.2667 290.226 57.2667 287.248V287.237V287.226C57.2893 284.362 55.1158 282.007 52.4102 281.871ZM51.8329 290.282H47.7802V284.203H51.8329C53.4404 284.203 54.7422 285.562 54.7422 287.237C54.7422 288.924 53.4404 290.282 51.8329 290.282Z" fill="#0A2832"/>
<path d="M25.2076 288.335V281.883H24.0077H22.8304H19.2192H18.0758H16.8306V298.547H19.2078H22.9209C25.751 298.547 28.0604 296.158 28.0604 293.181V293.169V293.158V293.147C28.0604 291.041 26.8944 289.218 25.2076 288.335ZM22.8304 284.26V287.781H19.2192V284.26H22.8304ZM22.6153 296.203H19.2192V290.124H22.6153C24.2228 290.124 25.5246 291.483 25.5246 293.158C25.5246 294.845 24.2228 296.203 22.6153 296.203Z" fill="#0A2832"/>
<path d="M13.7739 296.169H12.0532V281.882H10.8759V281.871H7.29868H5.62326H4.9214V296.169H3.21203L2.52148 298.547H4.9214H7.29868H9.67595V298.558H12.0532V298.547H14.4418L13.7739 296.169ZM7.29868 296.169V284.26H9.67595V296.169H7.29868Z" fill="#0A2832"/>
<path d="M36.4261 281.407C32.396 281.407 29.1357 285.347 29.1357 290.203C29.1357 295.06 32.396 298.999 36.4261 298.999C40.4561 298.999 43.7164 295.06 43.7164 290.203C43.7164 285.347 40.4561 281.407 36.4261 281.407ZM36.4261 296.622C33.7205 296.622 31.5243 293.747 31.5243 290.203C31.5243 286.671 33.7205 283.784 36.4261 283.784C39.1316 283.784 41.3278 286.66 41.3278 290.203C41.3391 293.735 39.1316 296.622 36.4261 296.622Z" fill="#0A2832"/>
<path d="M22.6831 262.399C24.7435 262.399 26.3623 263.701 27.1773 265.864C27.1773 265.864 28.5471 264.958 29.1924 264.29C28.083 261.641 25.4114 259.977 22.6831 259.977C18.472 259.977 15.0532 263.916 15.0532 268.773C15.0532 273.63 18.472 277.569 22.6831 277.569C24.9812 277.569 27.0528 276.392 28.4452 274.535C27.483 273.675 26.5774 272.905 26.5774 272.905C25.6378 274.275 24.234 275.147 22.6718 275.147C19.8417 275.147 17.5324 272.282 17.5324 268.773C17.5437 265.252 19.8531 262.399 22.6831 262.399Z" fill="#0A2832"/>
</g>
<path d="M151.267 258.636V279H148.801V261.222H148.682L143.71 264.523V262.017L148.801 258.636H151.267ZM163.487 279.278C162.321 279.278 161.27 279.046 160.335 278.582C159.401 278.118 158.652 277.482 158.088 276.673C157.525 275.865 157.216 274.943 157.163 273.909H159.55C159.643 274.83 160.06 275.593 160.803 276.196C161.552 276.793 162.446 277.091 163.487 277.091C164.322 277.091 165.065 276.895 165.714 276.504C166.371 276.113 166.884 275.576 167.256 274.893C167.634 274.204 167.822 273.425 167.822 272.557C167.822 271.669 167.627 270.876 167.236 270.18C166.851 269.478 166.321 268.924 165.645 268.52C164.969 268.116 164.196 267.91 163.328 267.903C162.705 267.897 162.065 267.993 161.409 268.192C160.753 268.384 160.213 268.633 159.788 268.938L157.482 268.659L158.714 258.636H169.294V260.824H160.783L160.067 266.83H160.186C160.604 266.498 161.127 266.223 161.757 266.004C162.387 265.786 163.043 265.676 163.726 265.676C164.972 265.676 166.082 265.974 167.057 266.571C168.038 267.161 168.807 267.97 169.364 268.997C169.927 270.025 170.209 271.198 170.209 272.517C170.209 273.816 169.917 274.976 169.334 275.997C168.757 277.011 167.962 277.813 166.947 278.403C165.933 278.987 164.78 279.278 163.487 279.278ZM182.074 279V263.727H184.341V266.114H184.539C184.858 265.298 185.371 264.665 186.081 264.214C186.79 263.757 187.642 263.528 188.636 263.528C189.644 263.528 190.482 263.757 191.152 264.214C191.828 264.665 192.355 265.298 192.733 266.114H192.892C193.283 265.325 193.869 264.698 194.652 264.234C195.434 263.764 196.372 263.528 197.466 263.528C198.831 263.528 199.948 263.956 200.816 264.811C201.685 265.66 202.119 266.982 202.119 268.778V279H199.772V268.778C199.772 267.652 199.464 266.846 198.848 266.362C198.231 265.878 197.505 265.636 196.67 265.636C195.596 265.636 194.764 265.961 194.174 266.611C193.584 267.254 193.289 268.069 193.289 269.057V279H190.903V268.54C190.903 267.671 190.621 266.972 190.058 266.442C189.494 265.905 188.769 265.636 187.88 265.636C187.27 265.636 186.7 265.799 186.17 266.124C185.646 266.448 185.222 266.899 184.897 267.476C184.579 268.046 184.42 268.705 184.42 269.455V279H182.074ZM206.409 279V263.727H208.676V266.114H208.875C209.194 265.298 209.707 264.665 210.417 264.214C211.126 263.757 211.978 263.528 212.972 263.528C213.98 263.528 214.818 263.757 215.488 264.214C216.164 264.665 216.691 265.298 217.069 266.114H217.228C217.619 265.325 218.205 264.698 218.988 264.234C219.77 263.764 220.708 263.528 221.801 263.528C223.167 263.528 224.284 263.956 225.152 264.811C226.021 265.66 226.455 266.982 226.455 268.778V279H224.108V268.778C224.108 267.652 223.8 266.846 223.184 266.362C222.567 265.878 221.841 265.636 221.006 265.636C219.932 265.636 219.1 265.961 218.51 266.611C217.92 267.254 217.625 268.069 217.625 269.057V279H215.239V268.54C215.239 267.671 214.957 266.972 214.394 266.442C213.83 265.905 213.105 265.636 212.216 265.636C211.606 265.636 211.036 265.799 210.506 266.124C209.982 266.448 209.558 266.899 209.233 267.476C208.915 268.046 208.756 268.705 208.756 269.455V279H206.409Z" fill="#058CD7"/>
<line x1="138" y1="300" x2="100" y2="300" stroke="#058CD7" stroke-width="2"/>
<line x1="138" y1="240" x2="100" y2="240" stroke="#058CD7" stroke-width="2"/>
<path d="M127 241V299" stroke="#058CD7" stroke-width="2"/>
<path d="M0.696023 212.922V205.395H2.03835C2.49574 205.01 2.9233 204.464 3.32102 203.754C3.71875 203.045 4.05682 202.087 4.33523 200.881C4.61364 199.674 4.80587 198.126 4.91193 196.237L5.3892 187.636H17.9474V205.395H20.2543V212.892H17.3111V208H3.6392V212.922H0.696023ZM5.65767 205.395H15.0043V190.281H8.1733L7.85511 196.237C7.76894 197.676 7.62642 198.968 7.42756 200.115C7.23532 201.262 6.98674 202.276 6.68182 203.158C6.38352 204.033 6.04214 204.778 5.65767 205.395ZM22.1783 208L22.1683 205.425H22.7152C23.1394 205.425 23.4941 205.335 23.7791 205.156C24.0708 204.971 24.3094 204.659 24.495 204.222C24.6806 203.784 24.8232 203.181 24.9226 202.412C25.022 201.636 25.0949 200.662 25.1413 199.489L25.4098 192.727H36.0689V208H33.1555V195.293H28.1641L27.9254 200.483C27.8658 201.742 27.7365 202.843 27.5376 203.784C27.3454 204.725 27.0637 205.511 26.6925 206.141C26.3213 206.764 25.844 207.231 25.2607 207.543C24.6773 207.848 23.968 208 23.1328 208H22.1783ZM49.1417 208V195.263H45.4826C44.6142 195.263 43.9381 195.465 43.4542 195.869C42.9703 196.274 42.7283 196.804 42.7283 197.46C42.7283 198.11 42.9504 198.634 43.3945 199.031C43.8453 199.422 44.475 199.618 45.2837 199.618H50.0067V202.024H45.2837C44.1568 202.024 43.1824 201.839 42.3604 201.467C41.5451 201.089 40.9154 200.556 40.4712 199.866C40.0337 199.177 39.815 198.362 39.815 197.42C39.815 196.459 40.0404 195.631 40.4911 194.935C40.9485 194.232 41.6014 193.688 42.4499 193.304C43.305 192.92 44.3159 192.727 45.4826 192.727H51.9357V208H49.1417ZM39.119 208L43.4244 200.284H46.467L42.1616 208H39.119ZM63.3033 208V192.727H75.7621V208H72.8487V195.293H66.1967V208H63.3033ZM86.3192 208.308C84.8145 208.308 83.5186 207.987 82.4315 207.344C81.351 206.694 80.5157 205.783 79.9258 204.609C79.3424 203.429 79.0508 202.047 79.0508 200.463C79.0508 198.899 79.3424 197.52 79.9258 196.327C80.5157 195.134 81.3377 194.202 82.3917 193.533C83.4523 192.863 84.6919 192.528 86.1104 192.528C86.9722 192.528 87.8074 192.671 88.6161 192.956C89.4248 193.241 90.1507 193.688 90.7937 194.298C91.4367 194.908 91.9438 195.7 92.315 196.675C92.6862 197.643 92.8718 198.819 92.8718 200.205V201.259H80.7312V199.031H89.9585C89.9585 198.249 89.7994 197.556 89.4812 196.953C89.163 196.343 88.7156 195.863 88.1388 195.511C87.5688 195.16 86.8993 194.984 86.1303 194.984C85.2951 194.984 84.5659 195.19 83.9428 195.601C83.3263 196.005 82.8491 196.536 82.511 197.192C82.1796 197.841 82.0138 198.547 82.0138 199.31V201.05C82.0138 202.071 82.1928 202.939 82.5508 203.655C82.9154 204.371 83.4225 204.918 84.0721 205.295C84.7217 205.667 85.4807 205.852 86.3491 205.852C86.9125 205.852 87.4263 205.773 87.8903 205.614C88.3543 205.448 88.7553 205.203 89.0934 204.878C89.4315 204.553 89.69 204.152 89.869 203.675L92.6829 204.182C92.4575 205.01 92.0531 205.736 91.4698 206.359C90.8931 206.976 90.1673 207.456 89.2923 207.801C88.4239 208.139 87.4329 208.308 86.3192 208.308ZM108.43 192.727V208H105.527V192.727H108.43ZM107.168 199.817V202.382C106.71 202.568 106.226 202.733 105.716 202.879C105.205 203.018 104.669 203.128 104.105 203.207C103.542 203.287 102.955 203.327 102.345 203.327C100.456 203.327 98.9545 202.866 97.8409 201.945C96.7273 201.017 96.1705 199.598 96.1705 197.689V192.697H99.0639V197.689C99.0639 198.411 99.1965 198.998 99.4616 199.449C99.7268 199.9 100.105 200.231 100.595 200.443C101.086 200.655 101.669 200.761 102.345 200.761C103.24 200.761 104.065 200.679 104.821 200.513C105.583 200.34 106.366 200.108 107.168 199.817ZM116.83 208.338C115.862 208.338 114.987 208.159 114.205 207.801C113.423 207.437 112.803 206.91 112.346 206.22C111.895 205.531 111.669 204.686 111.669 203.685C111.669 202.823 111.835 202.114 112.167 201.557C112.498 201 112.945 200.559 113.509 200.234C114.072 199.91 114.702 199.664 115.398 199.499C116.094 199.333 116.803 199.207 117.526 199.121C118.441 199.015 119.183 198.929 119.753 198.862C120.323 198.789 120.738 198.673 120.996 198.514C121.255 198.355 121.384 198.097 121.384 197.739V197.669C121.384 196.801 121.139 196.128 120.648 195.651C120.164 195.173 119.442 194.935 118.48 194.935C117.48 194.935 116.691 195.157 116.114 195.601C115.544 196.038 115.15 196.526 114.931 197.062L112.137 196.426C112.468 195.498 112.952 194.749 113.588 194.179C114.231 193.602 114.971 193.185 115.806 192.926C116.641 192.661 117.519 192.528 118.441 192.528C119.051 192.528 119.697 192.601 120.38 192.747C121.069 192.886 121.712 193.145 122.309 193.523C122.912 193.901 123.406 194.441 123.79 195.143C124.175 195.839 124.367 196.744 124.367 197.858V208H121.463V205.912H121.344C121.152 206.296 120.864 206.674 120.479 207.045C120.095 207.417 119.601 207.725 118.998 207.97C118.394 208.215 117.672 208.338 116.83 208.338ZM117.476 205.952C118.298 205.952 119.001 205.789 119.584 205.464C120.174 205.14 120.622 204.715 120.926 204.192C121.238 203.661 121.394 203.095 121.394 202.491V200.523C121.288 200.629 121.082 200.728 120.777 200.821C120.479 200.907 120.138 200.983 119.753 201.05C119.369 201.109 118.994 201.166 118.63 201.219C118.265 201.265 117.96 201.305 117.715 201.338C117.138 201.411 116.611 201.534 116.134 201.706C115.663 201.878 115.285 202.127 115 202.452C114.722 202.77 114.583 203.194 114.583 203.724C114.583 204.46 114.855 205.017 115.398 205.395C115.942 205.766 116.634 205.952 117.476 205.952ZM126.433 195.293V192.727H139.319V195.293H134.337V208H131.434V195.293H126.433ZM145.377 203.834L152.108 192.727H155.31V208H152.397V196.884L145.695 208H142.463V192.727H145.377V203.834Z" fill="#058CD7"/>
<defs>
<clipPath id="clip0_586_10834">
<rect width="60" height="60" fill="white" transform="translate(0 58)"/>
</clipPath>
<clipPath id="clip1_586_10834">
<rect width="60" height="60" fill="white" transform="translate(0 239)"/>
</clipPath>
</defs>
</svg>
