<svg xmlns="http://www.w3.org/2000/svg" width="361" height="380" fill="none"><path fill="#82C5EB" d="M290.926 1.372h-28.199v.046h-.183l-12.517 43.607h-4.081l-2.751 9.62h4.081l-4.081 14.154h9.629l3.989-14.155h24.943v14.109h9.628V1.372h-.458ZM259.61 45.07l9.628-34.08h12.564v34.08H259.61ZM117.517 310.839H89.319v.091h-.184l-12.517 43.608h-4.08l-2.752 9.619h4.08l-4.08 14.154h9.629l3.989-14.154h24.943v14.109h9.629v-67.427h-.459Zm-31.316 43.699 9.629-34.08h12.563v34.08H86.201ZM359.748 117.353v-28.17h-.091v-.184L316.006 76.54v-4.077l-9.628-2.748v4.077l-14.169-4.077v9.62l14.169 3.984v24.919h-14.123v9.619h67.493v-.504Zm-43.742-31.285 34.114 9.619v12.551h-34.114v-22.17ZM68.776 310.61v-28.171h-.091v-.183l-43.65-12.505v-4.077l-9.63-2.748v4.076l-14.213-4.076v9.619l14.168 3.985v24.919H1.238v9.619h67.538v-.458Zm-43.742-31.286 34.114 9.619v12.551H25.034v-22.17Z"/><path fill="#0A2832" fill-rule="evenodd" d="M291.063 69.806h.505v67.427h-9.628v-14.108h-24.906l-4.027 14.2h-9.629l4.075-14.2h-4.12l2.797-9.619h4.084l12.514-43.608h.137v-.115h28.198v.023Zm-9.123 9.643v34.057h-22.179l9.658-34.057h12.521Zm-164.484-9.643h.52v67.427h-9.629v-14.108H83.431l-4.016 14.199h-9.63l4.066-14.199H69.74l2.75-9.619h4.115l12.484-43.608h.168v-.1h28.199v.008Zm-9.109 9.657v34.043H86.153l9.63-34.043h12.564Zm86.75 125.47v-48.37h-9.628v67.427h9.628v-.027l.046.027 28.932-48.09v48.045h9.629v-67.427h-9.629l-28.978 48.415Zm-94.004-9.774H79.369v28.831h-9.63v-67.427h9.63v28.757l26.732-28.757h11.829l-26.575 28.976h16.891l.101-.026 9.629 38.523h-9.629l-7.254-28.877Zm151.686-38.596h-9.629v67.427h9.629v-28.921h29.161v28.921h9.628v-67.427h-9.628v28.886h-29.161v-28.886Zm-117.768-86.71h-7.406v67.426h9.628V79.454h38.561v57.825h9.629V69.852h-6.854v-.017h-43.558v.017Zm60.132.045H223.525c11.004.55 19.762 10.077 19.716 21.666v.092c0 12.047-9.354 21.712-20.816 21.712l-17.653.035v23.922h-9.629V69.898Zm9.629 34.034V79.38h16.369c6.511 0 11.784 5.496 11.784 12.276 0 6.78-5.273 12.276-11.784 12.276h-16.369Zm42.917 139.297h-4.356v67.426h9.629V286.78l17.698-.035c11.463 0 20.817-9.666 20.817-21.713v-.137c0-11.543-8.758-21.071-19.717-21.666H247.689Zm5.273 9.482v24.552h16.414c6.511 0 11.784-5.497 11.784-12.276 0-6.78-5.273-12.276-11.784-12.276h-16.414Zm-116.784 23.946v24.553h13.755c6.511 0 11.784-5.497 11.784-12.277 0-6.779-5.273-12.276-11.784-12.276h-13.755Zm0 34.019v.061h-9.628v-67.426h5.029v-.003h19.253v-.033h9.629v26.128c6.849 3.55 11.573 10.916 11.573 19.393v.137c0 12.048-9.354 21.713-20.817 21.713l-15.039.03Zm14.654-43.5h-14.654v-14.249h14.654v14.249ZM82.257 243.32h-2.842v57.808H72.49l-2.797 9.619h48.327l-2.751-9.619h-6.97V243.32h-4.768v-.015H82.257v.015Zm16.415 9.604v48.204h-9.629v-48.204h9.629Zm107.842-1.862c10.958 0 19.853 11.634 19.853 25.972 0 14.291-8.895 25.972-19.853 25.972-10.959 0-19.854-11.635-19.854-25.972 0-14.292 8.895-25.972 19.854-25.972Zm0-9.62c-16.323 0-29.529 15.941-29.529 35.592 0 19.651 13.206 35.591 29.529 35.591s29.528-15.94 29.528-35.591c0-19.651-13.205-35.592-29.528-35.592Zm-55.204-25.376c6.327 0 12.013-3.527 15.818-9.07 0 0 3.668 3.115 7.566 6.596-5.64 7.512-14.031 12.276-23.339 12.276-17.056 0-30.903-15.94-30.903-35.591 0-19.651 13.847-35.592 30.903-35.592 11.051 0 21.871 6.734 26.365 17.453-2.614 2.702-8.162 6.367-8.162 6.367-3.301-8.749-9.858-14.017-18.203-14.017-11.508 0-20.862 11.589-20.862 25.789 0 14.2 9.354 25.789 20.817 25.789Z" clip-rule="evenodd"/><path fill="#058CD7" d="M359.061 1.326v376.711H1.284V1.326H359.06Zm1.284-1.283H0V379.32H360.345V.043Z"/><path stroke="#058CD7" stroke-miterlimit="10" stroke-width="1.5" d="M.458 69.257h358.694M.321 311.297H358.42M69.281.822V378.45M292.164.822V378.45"/></svg>