<svg xmlns="http://www.w3.org/2000/svg" width="1128" height="1129" fill="none"><path fill="#fff" d="M0 .136h282v282H0z"/><path fill="#0A2832" d="M0 282.136h282v282H0z"/><path fill="#FFA5C3" d="M564 564.136h282v282H564z"/><path fill="#FF5F28" d="M846 .136h282v282H846z"/><path fill="#058CD7" d="M846 282.136h282v282H846z"/><path fill="#058C50" d="M846 564.136h282v282H846z"/><path fill="#FFA5C3" d="M564 .136h282v282H564z"/><path fill="#058C50" d="M564 282.136h282v282H564z"/><path fill="#FFBE14" d="M846 846.136h282v282H846zM282 .136h282v282H282z"/><path fill="#FF5F28" d="M282 282.136h282v282H282z"/><path fill="#058C50" d="M564 846.136h282v282H564z"/><g fill="#0A2832" clip-path="url(#a)"><path d="M931.969 143.27h11.769l3.923 15.668h5.214l-5.214-20.882h-9.187l14.376-15.693h-6.406l-14.475 15.569v-15.569h-5.215v36.55h5.215V143.27ZM994.663 158.914l15.667-26.072v26.072h5.21v-36.575h-5.21l-15.667 26.221v-26.196h-5.239v36.55h5.239ZM1041.67 138.031h-15.8v-15.668h-5.21v36.55h5.21v-15.668h15.8v15.668h5.21v-36.55h-5.21v15.668ZM963.304 80.574h20.881v31.335h5.239v-36.55h-31.335v36.55h5.215V80.574ZM926.78 111.935h5.214l2.16-7.673h13.507v7.648h5.214V75.335h-15.543v.05h-.099l-6.754 23.638h-2.209l-1.49 5.214h2.185l-2.185 7.698Zm14.078-31.36h6.803v18.473h-12.017l5.214-18.474ZM1046.61 75.335h-15.27v.05h-.08l-6.78 23.638h-2.21l-1.49 5.214h2.21l-2.21 7.673h5.22l2.16-7.673h13.53v7.648h5.21v-36.55h-.29Zm-16.96 23.688 5.21-18.474h6.83v18.474h-12.04ZM1020.73 87.18V87.128c0-6.282-4.74-11.446-10.7-11.744h-15.392v36.55h5.214V98.998l9.558-.025c6.21 0 11.27-5.239 11.27-11.77v-.024h.05Zm-11.96 6.678h-8.893V80.525h8.893c3.52 0 6.38 2.98 6.38 6.654 0 3.7-2.86 6.68-6.38 6.68ZM1036.15 169.367H1020.76v36.55h5.21v-12.961l9.56-.025c6.21 0 11.27-5.239 11.27-11.769v-.05c.05-6.282-4.71-11.447-10.65-11.745Zm-1.26 18.449H1026v-13.334h8.89c3.52 0 6.38 2.98 6.38 6.655 0 3.699-2.86 6.679-6.38 6.679ZM975.607 183.49v-14.154H957.233v36.55h13.359c6.207 0 11.272-5.239 11.272-11.769V194.042c0-4.618-2.557-8.616-6.257-10.552Zm-5.214-8.939v7.722h-7.921v-7.722h7.921Zm-.472 26.196h-7.449v-13.334h7.449c3.526 0 6.381 2.979 6.381 6.654 0 3.7-2.855 6.68-6.381 6.68ZM951.41 200.728h-3.774v-31.336h-2.582v-.025h-13.06v31.361h-3.749l-1.515 5.214H942.422v.025h5.214v-.025h5.239l-1.465-5.214Zm-14.202 0v-26.122h5.214v26.122h-5.214ZM1001.09 168.349c-8.836 0-15.986 8.641-15.986 19.293s7.15 19.293 15.986 19.293c8.84 0 15.99-8.641 15.99-19.293s-7.15-19.293-15.99-19.293Zm0 33.372c-5.931 0-10.747-6.307-10.747-14.079 0-7.747 4.816-14.079 10.747-14.079 5.94 0 10.75 6.307 10.75 14.079.03 7.747-4.81 14.079-10.75 14.079ZM970.951 126.659c4.519 0 8.07 2.855 9.858 7.598 0 0 3.004-1.987 4.419-3.451-2.433-5.811-8.293-9.461-14.277-9.461-9.236 0-16.735 8.641-16.735 19.293s7.499 19.293 16.735 19.293c5.041 0 9.584-2.582 12.638-6.654-2.11-1.887-4.096-3.576-4.096-3.576-2.061 3.005-5.14 4.917-8.567 4.917-6.207 0-11.272-6.282-11.272-13.98.025-7.722 5.09-13.979 11.297-13.979Z"/></g><path stroke="#AFBEC3" stroke-width="1.5" d="M.75.886h280.5v280.5H.75z"/><g fill="#0A2832" clip-path="url(#b)"><path d="M85.969 143.27h11.769l3.923 15.668h5.214l-5.214-20.882h-9.187l14.376-15.693h-6.406l-14.475 15.569v-15.569h-5.215v36.55h5.215V143.27ZM148.663 158.914l15.668-26.072v26.072h5.214v-36.575h-5.214l-15.668 26.221v-26.196h-5.239v36.55h5.239ZM195.665 138.031h-15.791v-15.668h-5.214v36.55h5.214v-15.668h15.791v15.668h5.214v-36.55h-5.214v15.668ZM117.304 80.574h20.881v31.335h5.239v-36.55h-31.335v36.55h5.215V80.574ZM80.78 111.935h5.214l2.16-7.673h13.507v7.648h5.214V75.335H91.332v.05h-.1L84.48 99.023h-2.21l-1.49 5.214h2.186l-2.185 7.698Zm14.078-31.36h6.803v18.473H89.644l5.214-18.474ZM200.606 75.335h-15.27v.05h-.074l-6.779 23.638h-2.21l-1.489 5.214h2.21l-2.21 7.673h5.214l2.16-7.673h13.532v7.648h5.214v-36.55h-.298Zm-16.958 23.688 5.214-18.474h6.828v18.474h-12.042ZM174.734 87.18V87.128c0-6.282-4.743-11.446-10.702-11.744h-15.394v36.55h5.214V98.998l9.56-.025c6.207 0 11.272-5.239 11.272-11.77v-.024h.05Zm-11.968 6.678h-8.889V80.525h8.889c3.526 0 6.381 2.98 6.381 6.654 0 3.7-2.855 6.68-6.381 6.68ZM190.152 169.367h-15.394v36.55h5.214v-12.961l9.56-.025c6.207 0 11.272-5.239 11.272-11.769v-.05c.05-6.282-4.717-11.447-10.652-11.745Zm-1.266 18.449h-8.889v-13.334h8.889c3.526 0 6.381 2.98 6.381 6.655 0 3.699-2.855 6.679-6.381 6.679ZM129.607 183.49v-14.154H111.233v36.55h13.359c6.207 0 11.272-5.239 11.272-11.769V194.042c0-4.618-2.557-8.616-6.257-10.552Zm-5.214-8.939v7.722h-7.921v-7.722h7.921Zm-.472 26.196h-7.449v-13.334h7.449c3.526 0 6.381 2.979 6.381 6.654 0 3.7-2.855 6.68-6.381 6.68ZM105.41 200.728h-3.774v-31.336h-2.582v-.025H85.993v31.361h-3.748l-1.515 5.214H96.422v.025h5.214v-.025h5.239l-1.465-5.214Zm-14.202 0v-26.122h5.214v26.122h-5.214ZM155.094 168.349c-8.84 0-15.99 8.641-15.99 19.293s7.15 19.293 15.99 19.293c8.839 0 15.99-8.641 15.99-19.293s-7.151-19.293-15.99-19.293Zm0 33.372c-5.935 0-10.751-6.307-10.751-14.079 0-7.747 4.816-14.079 10.751-14.079 5.934 0 10.751 6.307 10.751 14.079.025 7.747-4.817 14.079-10.751 14.079ZM124.951 126.659c4.519 0 8.07 2.855 9.858 7.598 0 0 3.004-1.987 4.419-3.451-2.433-5.811-8.293-9.461-14.277-9.461-9.236 0-16.735 8.641-16.735 19.293s7.499 19.293 16.735 19.293c5.041 0 9.584-2.582 12.638-6.654-2.11-1.887-4.096-3.576-4.096-3.576-2.061 3.005-5.14 4.917-8.567 4.917-6.207 0-11.272-6.282-11.272-13.98.025-7.722 5.09-13.979 11.297-13.979Z"/></g><g fill="#fff" clip-path="url(#c)"><path d="M931.969 425.27h11.769l3.923 15.668h5.214l-5.214-20.882h-9.187l14.376-15.693h-6.406l-14.475 15.569v-15.569h-5.215v36.55h5.215V425.27ZM994.663 440.914l15.667-26.072v26.072h5.21v-36.575h-5.21l-15.667 26.221v-26.196h-5.239v36.55h5.239ZM1041.67 420.031h-15.8v-15.668h-5.21v36.55h5.21v-15.668h15.8v15.668h5.21v-36.55h-5.21v15.668ZM963.304 362.574h20.881v31.335h5.239v-36.55h-31.335v36.55h5.215v-31.335ZM926.78 393.935h5.214l2.16-7.673h13.507v7.648h5.214v-36.575h-15.543v.05h-.099l-6.754 23.638h-2.209l-1.49 5.214h2.185l-2.185 7.698Zm14.078-31.361h6.803v18.474h-12.017l5.214-18.474ZM1046.61 357.335h-15.27v.05h-.08l-6.78 23.638h-2.21l-1.49 5.214h2.21l-2.21 7.673h5.22l2.16-7.673h13.53v7.648h5.21v-36.55h-.29Zm-16.96 23.688 5.21-18.474h6.83v18.474h-12.04ZM1020.73 369.179v-.05c0-6.282-4.74-11.446-10.7-11.744h-15.392v36.55h5.214v-12.937l9.558-.025c6.21 0 11.27-5.239 11.27-11.769v-.025h.05Zm-11.96 6.679h-8.893v-13.333h8.893c3.52 0 6.38 2.979 6.38 6.654 0 3.7-2.86 6.679-6.38 6.679ZM1036.15 451.367H1020.76v36.55h5.21v-12.961l9.56-.025c6.21 0 11.27-5.239 11.27-11.769v-.05c.05-6.282-4.71-11.447-10.65-11.745Zm-1.26 18.449H1026v-13.334h8.89c3.52 0 6.38 2.98 6.38 6.655 0 3.699-2.86 6.679-6.38 6.679ZM975.607 465.49v-14.154H957.233v36.55h13.359c6.207 0 11.272-5.239 11.272-11.769V476.042c0-4.618-2.557-8.616-6.257-10.552Zm-5.214-8.939v7.722h-7.921v-7.722h7.921Zm-.472 26.196h-7.449v-13.334h7.449c3.526 0 6.381 2.979 6.381 6.654 0 3.7-2.855 6.68-6.381 6.68ZM951.41 482.728h-3.774v-31.336h-2.582v-.025h-13.06v31.361h-3.749l-1.515 5.214H942.422v.025h5.214v-.025h5.239l-1.465-5.214Zm-14.202 0v-26.122h5.214v26.122h-5.214ZM1001.09 450.349c-8.836 0-15.986 8.641-15.986 19.293s7.15 19.293 15.986 19.293c8.84 0 15.99-8.641 15.99-19.293s-7.15-19.293-15.99-19.293Zm0 33.372c-5.931 0-10.747-6.307-10.747-14.079 0-7.747 4.816-14.079 10.747-14.079 5.94 0 10.75 6.307 10.75 14.079.03 7.747-4.81 14.079-10.75 14.079ZM970.951 408.659c4.519 0 8.07 2.855 9.858 7.598 0 0 3.004-1.987 4.419-3.451-2.433-5.811-8.293-9.461-14.277-9.461-9.236 0-16.735 8.641-16.735 19.293s7.499 19.293 16.735 19.293c5.041 0 9.584-2.582 12.638-6.654-2.11-1.887-4.096-3.576-4.096-3.576-2.061 3.005-5.14 4.917-8.567 4.917-6.207 0-11.272-6.282-11.272-13.98.025-7.722 5.09-13.979 11.297-13.979Z"/></g><g fill="#FFBE14" clip-path="url(#d)"><path d="M931.969 707.27h11.769l3.923 15.668h5.214l-5.214-20.882h-9.187l14.376-15.693h-6.406l-14.475 15.569v-15.569h-5.215v36.55h5.215V707.27ZM994.663 722.914l15.667-26.072v26.072h5.21v-36.575h-5.21l-15.667 26.221v-26.196h-5.239v36.55h5.239ZM1041.67 702.031h-15.8v-15.668h-5.21v36.55h5.21v-15.668h15.8v15.668h5.21v-36.55h-5.21v15.668ZM963.304 644.574h20.881v31.335h5.239v-36.55h-31.335v36.55h5.215v-31.335ZM926.78 675.935h5.214l2.16-7.673h13.507v7.648h5.214v-36.575h-15.543v.05h-.099l-6.754 23.638h-2.209l-1.49 5.214h2.185l-2.185 7.698Zm14.078-31.361h6.803v18.474h-12.017l5.214-18.474ZM1046.61 639.335h-15.27v.05h-.08l-6.78 23.638h-2.21l-1.49 5.214h2.21l-2.21 7.673h5.22l2.16-7.673h13.53v7.648h5.21v-36.55h-.29Zm-16.96 23.688 5.21-18.474h6.83v18.474h-12.04ZM1020.73 651.179v-.05c0-6.282-4.74-11.446-10.7-11.744h-15.392v36.55h5.214v-12.937l9.558-.025c6.21 0 11.27-5.239 11.27-11.769v-.025h.05Zm-11.96 6.679h-8.893v-13.333h8.893c3.52 0 6.38 2.979 6.38 6.654 0 3.7-2.86 6.679-6.38 6.679ZM1036.15 733.367H1020.76v36.55h5.21v-12.961l9.56-.025c6.21 0 11.27-5.239 11.27-11.769v-.05c.05-6.282-4.71-11.447-10.65-11.745Zm-1.26 18.449H1026v-13.334h8.89c3.52 0 6.38 2.98 6.38 6.655 0 3.699-2.86 6.679-6.38 6.679ZM975.607 747.49v-14.154H957.233v36.55h13.359c6.207 0 11.272-5.239 11.272-11.769V758.042c0-4.618-2.557-8.616-6.257-10.552Zm-5.214-8.939v7.722h-7.921v-7.722h7.921Zm-.472 26.196h-7.449v-13.334h7.449c3.526 0 6.381 2.979 6.381 6.654 0 3.7-2.855 6.68-6.381 6.68ZM951.41 764.728h-3.774v-31.336h-2.582v-.025h-13.06v31.361h-3.749l-1.515 5.214H942.422v.025h5.214v-.025h5.239l-1.465-5.214Zm-14.202 0v-26.122h5.214v26.122h-5.214ZM1001.09 732.349c-8.836 0-15.986 8.641-15.986 19.293s7.15 19.293 15.986 19.293c8.84 0 15.99-8.641 15.99-19.293s-7.15-19.293-15.99-19.293Zm0 33.372c-5.931 0-10.747-6.307-10.747-14.079 0-7.747 4.816-14.079 10.747-14.079 5.94 0 10.75 6.307 10.75 14.079.03 7.747-4.81 14.079-10.75 14.079ZM970.951 690.659c4.519 0 8.07 2.855 9.858 7.598 0 0 3.004-1.987 4.419-3.451-2.433-5.811-8.293-9.461-14.277-9.461-9.236 0-16.735 8.641-16.735 19.293s7.499 19.293 16.735 19.293c5.041 0 9.584-2.582 12.638-6.654-2.11-1.887-4.096-3.576-4.096-3.576-2.061 3.005-5.14 4.917-8.567 4.917-6.207 0-11.272-6.282-11.272-13.98.025-7.722 5.09-13.979 11.297-13.979Z"/></g><g fill="#fff" clip-path="url(#e)"><path d="M85.969 425.27h11.769l3.923 15.668h5.214l-5.214-20.882h-9.187l14.376-15.693h-6.406l-14.475 15.569v-15.569h-5.215v36.55h5.215V425.27ZM148.663 440.914l15.668-26.072v26.072h5.214v-36.575h-5.214l-15.668 26.221v-26.196h-5.239v36.55h5.239ZM195.665 420.031h-15.791v-15.668h-5.214v36.55h5.214v-15.668h15.791v15.668h5.214v-36.55h-5.214v15.668ZM117.304 362.574h20.881v31.335h5.239v-36.55h-31.335v36.55h5.215v-31.335ZM80.78 393.935h5.214l2.16-7.673h13.507v7.648h5.214v-36.575H91.332v.05h-.1l-6.753 23.638h-2.21l-1.49 5.214h2.186l-2.185 7.698Zm14.078-31.361h6.803v18.474H89.644l5.214-18.474ZM200.606 357.335h-15.27v.05h-.074l-6.779 23.638h-2.21l-1.489 5.214h2.21l-2.21 7.673h5.214l2.16-7.673h13.532v7.648h5.214v-36.55h-.298Zm-16.958 23.688 5.214-18.474h6.828v18.474h-12.042ZM174.734 369.179v-.05c0-6.282-4.743-11.446-10.702-11.744h-15.394v36.55h5.214v-12.937l9.56-.025c6.207 0 11.272-5.239 11.272-11.769v-.025h.05Zm-11.968 6.679h-8.889v-13.333h8.889c3.526 0 6.381 2.979 6.381 6.654 0 3.7-2.855 6.679-6.381 6.679ZM190.152 451.367h-15.394v36.55h5.214v-12.961l9.56-.025c6.207 0 11.272-5.239 11.272-11.769v-.05c.05-6.282-4.717-11.447-10.652-11.745Zm-1.266 18.449h-8.889v-13.334h8.889c3.526 0 6.381 2.98 6.381 6.655 0 3.699-2.855 6.679-6.381 6.679ZM129.607 465.49v-14.154H111.233v36.55h13.359c6.207 0 11.272-5.239 11.272-11.769V476.042c0-4.618-2.557-8.616-6.257-10.552Zm-5.214-8.939v7.722h-7.921v-7.722h7.921Zm-.472 26.196h-7.449v-13.334h7.449c3.526 0 6.381 2.979 6.381 6.654 0 3.7-2.855 6.68-6.381 6.68ZM105.41 482.728h-3.774v-31.336h-2.582v-.025H85.993v31.361h-3.748l-1.515 5.214H96.422v.025h5.214v-.025h5.239l-1.465-5.214Zm-14.202 0v-26.122h5.214v26.122h-5.214ZM155.094 450.349c-8.84 0-15.99 8.641-15.99 19.293s7.15 19.293 15.99 19.293c8.839 0 15.99-8.641 15.99-19.293s-7.151-19.293-15.99-19.293Zm0 33.372c-5.935 0-10.751-6.307-10.751-14.079 0-7.747 4.816-14.079 10.751-14.079 5.934 0 10.751 6.307 10.751 14.079.025 7.747-4.817 14.079-10.751 14.079ZM124.951 408.659c4.519 0 8.07 2.855 9.858 7.598 0 0 3.004-1.987 4.419-3.451-2.433-5.811-8.293-9.461-14.277-9.461-9.236 0-16.735 8.641-16.735 19.293s7.499 19.293 16.735 19.293c5.041 0 9.584-2.582 12.638-6.654-2.11-1.887-4.096-3.576-4.096-3.576-2.061 3.005-5.14 4.917-8.567 4.917-6.207 0-11.272-6.282-11.272-13.98.025-7.722 5.09-13.979 11.297-13.979Z"/></g><g fill="#058C50" clip-path="url(#f)"><path d="M649.969 707.27h11.769l3.923 15.668h5.214l-5.214-20.882h-9.187l14.376-15.693h-6.406l-14.475 15.569v-15.569h-5.215v36.55h5.215V707.27ZM712.663 722.914l15.668-26.072v26.072h5.214v-36.575h-5.214l-15.668 26.221v-26.196h-5.239v36.55h5.239ZM759.665 702.031h-15.791v-15.668h-5.214v36.55h5.214v-15.668h15.791v15.668h5.214v-36.55h-5.214v15.668ZM681.304 644.574h20.881v31.335h5.239v-36.55h-31.335v36.55h5.215v-31.335ZM644.78 675.935h5.214l2.16-7.673h13.507v7.648h5.214v-36.575h-15.543v.05h-.099l-6.754 23.638h-2.209l-1.49 5.214h2.185l-2.185 7.698Zm14.078-31.361h6.803v18.474h-12.017l5.214-18.474ZM764.606 639.335h-15.27v.05h-.074l-6.779 23.638h-2.21l-1.489 5.214h2.21l-2.21 7.673h5.214l2.16-7.673h13.532v7.648h5.214v-36.55h-.298Zm-16.958 23.688 5.214-18.474h6.828v18.474h-12.042ZM738.734 651.179v-.05c0-6.282-4.743-11.446-10.702-11.744h-15.394v36.55h5.214v-12.937l9.56-.025c6.207 0 11.272-5.239 11.272-11.769v-.025h.05Zm-11.968 6.679h-8.889v-13.333h8.889c3.526 0 6.381 2.979 6.381 6.654 0 3.7-2.855 6.679-6.381 6.679ZM754.152 733.367h-15.394v36.55h5.214v-12.961l9.56-.025c6.207 0 11.272-5.239 11.272-11.769v-.05c.05-6.282-4.717-11.447-10.652-11.745Zm-1.266 18.449h-8.889v-13.334h8.889c3.526 0 6.381 2.98 6.381 6.655 0 3.699-2.855 6.679-6.381 6.679ZM693.607 747.49v-14.154H675.233v36.55h13.359c6.207 0 11.272-5.239 11.272-11.769V758.042c0-4.618-2.557-8.616-6.257-10.552Zm-5.214-8.939v7.722h-7.921v-7.722h7.921Zm-.472 26.196h-7.449v-13.334h7.449c3.526 0 6.381 2.979 6.381 6.654 0 3.7-2.855 6.68-6.381 6.68ZM669.41 764.728h-3.774v-31.336h-2.582v-.025h-13.06v31.361h-3.749l-1.515 5.214H660.422v.025h5.214v-.025h5.239l-1.465-5.214Zm-14.202 0v-26.122h5.214v26.122h-5.214ZM719.094 732.349c-8.84 0-15.99 8.641-15.99 19.293s7.15 19.293 15.99 19.293c8.839 0 15.99-8.641 15.99-19.293s-7.151-19.293-15.99-19.293Zm0 33.372c-5.935 0-10.751-6.307-10.751-14.079 0-7.747 4.816-14.079 10.751-14.079 5.934 0 10.751 6.307 10.751 14.079.025 7.747-4.817 14.079-10.751 14.079ZM688.951 690.659c4.519 0 8.07 2.855 9.858 7.598 0 0 3.004-1.987 4.419-3.451-2.433-5.811-8.293-9.461-14.277-9.461-9.236 0-16.735 8.641-16.735 19.293s7.499 19.293 16.735 19.293c5.041 0 9.584-2.582 12.638-6.654-2.11-1.887-4.096-3.576-4.096-3.576-2.061 3.005-5.14 4.917-8.567 4.917-6.207 0-11.272-6.282-11.272-13.98.025-7.722 5.09-13.979 11.297-13.979Z"/></g><g fill="#0A2832" clip-path="url(#g)"><path d="M649.969 143.27h11.769l3.923 15.668h5.214l-5.214-20.882h-9.187l14.376-15.693h-6.406l-14.475 15.569v-15.569h-5.215v36.55h5.215V143.27ZM712.663 158.914l15.668-26.072v26.072h5.214v-36.575h-5.214l-15.668 26.221v-26.196h-5.239v36.55h5.239ZM759.665 138.031h-15.791v-15.668h-5.214v36.55h5.214v-15.668h15.791v15.668h5.214v-36.55h-5.214v15.668ZM681.304 80.574h20.881v31.335h5.239v-36.55h-31.335v36.55h5.215V80.574ZM644.78 111.935h5.214l2.16-7.673h13.507v7.648h5.214V75.335h-15.543v.05h-.099l-6.754 23.638h-2.209l-1.49 5.214h2.185l-2.185 7.698Zm14.078-31.36h6.803v18.473h-12.017l5.214-18.474ZM764.606 75.335h-15.27v.05h-.074l-6.779 23.638h-2.21l-1.489 5.214h2.21l-2.21 7.673h5.214l2.16-7.673h13.532v7.648h5.214v-36.55h-.298Zm-16.958 23.688 5.214-18.474h6.828v18.474h-12.042ZM738.734 87.18V87.128c0-6.282-4.743-11.446-10.702-11.744h-15.394v36.55h5.214V98.998l9.56-.025c6.207 0 11.272-5.239 11.272-11.77v-.024h.05Zm-11.968 6.678h-8.889V80.525h8.889c3.526 0 6.381 2.98 6.381 6.654 0 3.7-2.855 6.68-6.381 6.68ZM754.152 169.367h-15.394v36.55h5.214v-12.961l9.56-.025c6.207 0 11.272-5.239 11.272-11.769v-.05c.05-6.282-4.717-11.447-10.652-11.745Zm-1.266 18.449h-8.889v-13.334h8.889c3.526 0 6.381 2.98 6.381 6.655 0 3.699-2.855 6.679-6.381 6.679ZM693.607 183.49v-14.154H675.233v36.55h13.359c6.207 0 11.272-5.239 11.272-11.769V194.042c0-4.618-2.557-8.616-6.257-10.552Zm-5.214-8.939v7.722h-7.921v-7.722h7.921Zm-.472 26.196h-7.449v-13.334h7.449c3.526 0 6.381 2.979 6.381 6.654 0 3.7-2.855 6.68-6.381 6.68ZM669.41 200.728h-3.774v-31.336h-2.582v-.025h-13.06v31.361h-3.749l-1.515 5.214H660.422v.025h5.214v-.025h5.239l-1.465-5.214Zm-14.202 0v-26.122h5.214v26.122h-5.214ZM719.094 168.349c-8.84 0-15.99 8.641-15.99 19.293s7.15 19.293 15.99 19.293c8.839 0 15.99-8.641 15.99-19.293s-7.151-19.293-15.99-19.293Zm0 33.372c-5.935 0-10.751-6.307-10.751-14.079 0-7.747 4.816-14.079 10.751-14.079 5.934 0 10.751 6.307 10.751 14.079.025 7.747-4.817 14.079-10.751 14.079ZM688.951 126.659c4.519 0 8.07 2.855 9.858 7.598 0 0 3.004-1.987 4.419-3.451-2.433-5.811-8.293-9.461-14.277-9.461-9.236 0-16.735 8.641-16.735 19.293s7.499 19.293 16.735 19.293c5.041 0 9.584-2.582 12.638-6.654-2.11-1.887-4.096-3.576-4.096-3.576-2.061 3.005-5.14 4.917-8.567 4.917-6.207 0-11.272-6.282-11.272-13.98.025-7.722 5.09-13.979 11.297-13.979Z"/></g><g fill="#fff" clip-path="url(#h)"><path d="M649.969 425.27h11.769l3.923 15.668h5.214l-5.214-20.882h-9.187l14.376-15.693h-6.406l-14.475 15.569v-15.569h-5.215v36.55h5.215V425.27ZM712.663 440.914l15.668-26.072v26.072h5.214v-36.575h-5.214l-15.668 26.221v-26.196h-5.239v36.55h5.239ZM759.665 420.031h-15.791v-15.668h-5.214v36.55h5.214v-15.668h15.791v15.668h5.214v-36.55h-5.214v15.668ZM681.304 362.574h20.881v31.335h5.239v-36.55h-31.335v36.55h5.215v-31.335ZM644.78 393.935h5.214l2.16-7.673h13.507v7.648h5.214v-36.575h-15.543v.05h-.099l-6.754 23.638h-2.209l-1.49 5.214h2.185l-2.185 7.698Zm14.078-31.361h6.803v18.474h-12.017l5.214-18.474ZM764.606 357.335h-15.27v.05h-.074l-6.779 23.638h-2.21l-1.489 5.214h2.21l-2.21 7.673h5.214l2.16-7.673h13.532v7.648h5.214v-36.55h-.298Zm-16.958 23.688 5.214-18.474h6.828v18.474h-12.042ZM738.734 369.179v-.05c0-6.282-4.743-11.446-10.702-11.744h-15.394v36.55h5.214v-12.937l9.56-.025c6.207 0 11.272-5.239 11.272-11.769v-.025h.05Zm-11.968 6.679h-8.889v-13.333h8.889c3.526 0 6.381 2.979 6.381 6.654 0 3.7-2.855 6.679-6.381 6.679ZM754.152 451.367h-15.394v36.55h5.214v-12.961l9.56-.025c6.207 0 11.272-5.239 11.272-11.769v-.05c.05-6.282-4.717-11.447-10.652-11.745Zm-1.266 18.449h-8.889v-13.334h8.889c3.526 0 6.381 2.98 6.381 6.655 0 3.699-2.855 6.679-6.381 6.679ZM693.607 465.49v-14.154H675.233v36.55h13.359c6.207 0 11.272-5.239 11.272-11.769V476.042c0-4.618-2.557-8.616-6.257-10.552Zm-5.214-8.939v7.722h-7.921v-7.722h7.921Zm-.472 26.196h-7.449v-13.334h7.449c3.526 0 6.381 2.979 6.381 6.654 0 3.7-2.855 6.68-6.381 6.68ZM669.41 482.728h-3.774v-31.336h-2.582v-.025h-13.06v31.361h-3.749l-1.515 5.214H660.422v.025h5.214v-.025h5.239l-1.465-5.214Zm-14.202 0v-26.122h5.214v26.122h-5.214ZM719.094 450.349c-8.84 0-15.99 8.641-15.99 19.293s7.15 19.293 15.99 19.293c8.839 0 15.99-8.641 15.99-19.293s-7.151-19.293-15.99-19.293Zm0 33.372c-5.935 0-10.751-6.307-10.751-14.079 0-7.747 4.816-14.079 10.751-14.079 5.934 0 10.751 6.307 10.751 14.079.025 7.747-4.817 14.079-10.751 14.079ZM688.951 408.659c4.519 0 8.07 2.855 9.858 7.598 0 0 3.004-1.987 4.419-3.451-2.433-5.811-8.293-9.461-14.277-9.461-9.236 0-16.735 8.641-16.735 19.293s7.499 19.293 16.735 19.293c5.041 0 9.584-2.582 12.638-6.654-2.11-1.887-4.096-3.576-4.096-3.576-2.061 3.005-5.14 4.917-8.567 4.917-6.207 0-11.272-6.282-11.272-13.98.025-7.722 5.09-13.979 11.297-13.979Z"/></g><g fill="#058C50" clip-path="url(#i)"><path d="M931.969 989.27h11.769l3.923 15.67h5.214l-5.214-20.884h-9.187l14.376-15.693h-6.406l-14.475 15.569v-15.569h-5.215v36.547h5.215v-15.64ZM994.663 1004.91l15.667-26.068v26.068h5.21v-36.571h-5.21l-15.667 26.221v-26.196h-5.239v36.546h5.239ZM1041.67 984.031h-15.8v-15.668h-5.21v36.547h5.21v-15.665h15.8v15.665h5.21v-36.547h-5.21v15.668ZM963.304 926.574h20.881v31.335h5.239v-36.55h-31.335v36.55h5.215v-31.335ZM926.78 957.935h5.214l2.16-7.673h13.507v7.648h5.214v-36.575h-15.543v.05h-.099l-6.754 23.638h-2.209l-1.49 5.214h2.185l-2.185 7.698Zm14.078-31.361h6.803v18.474h-12.017l5.214-18.474ZM1046.61 921.335h-15.27v.05h-.08l-6.78 23.638h-2.21l-1.49 5.214h2.21l-2.21 7.673h5.22l2.16-7.673h13.53v7.648h5.21v-36.55h-.29Zm-16.96 23.688 5.21-18.474h6.83v18.474h-12.04ZM1020.73 933.179v-.05c0-6.282-4.74-11.446-10.7-11.744h-15.392v36.55h5.214v-12.937l9.558-.025c6.21 0 11.27-5.239 11.27-11.769v-.025h.05Zm-11.96 6.679h-8.893v-13.333h8.893c3.52 0 6.38 2.979 6.38 6.654 0 3.7-2.86 6.679-6.38 6.679ZM1036.15 1015.37H1020.76v36.55h5.21v-12.96l9.56-.03c6.21 0 11.27-5.24 11.27-11.77v-.05c.05-6.28-4.71-11.44-10.65-11.74Zm-1.26 18.45H1026v-13.34h8.89c3.52 0 6.38 2.98 6.38 6.66 0 3.7-2.86 6.68-6.38 6.68ZM975.607 1029.49v-14.15H957.233v36.55h13.359c6.207 0 11.272-5.24 11.272-11.77v-.08c0-4.62-2.557-8.61-6.257-10.55Zm-5.214-8.94v7.72h-7.921v-7.72h7.921Zm-.472 26.2h-7.449v-13.34h7.449c3.526 0 6.381 2.98 6.381 6.66 0 3.7-2.855 6.68-6.381 6.68ZM951.41 1046.73h-3.774v-31.34h-2.582v-.02h-13.06v31.36h-3.749l-1.515 5.21H942.422v.03h5.214v-.03h5.239l-1.465-5.21Zm-14.202 0v-26.12h5.214v26.12h-5.214ZM1001.09 1014.35c-8.836 0-15.986 8.64-15.986 19.29 0 10.65 7.15 19.3 15.986 19.3 8.84 0 15.99-8.65 15.99-19.3s-7.15-19.29-15.99-19.29Zm0 33.37c-5.931 0-10.747-6.31-10.747-14.08 0-7.74 4.816-14.08 10.747-14.08 5.94 0 10.75 6.31 10.75 14.08.03 7.75-4.81 14.08-10.75 14.08ZM970.951 972.659c4.519 0 8.07 2.855 9.858 7.598 0 0 3.004-1.987 4.419-3.451-2.433-5.811-8.293-9.461-14.277-9.461-9.236 0-16.735 8.641-16.735 19.293s7.499 19.292 16.735 19.292c5.041 0 9.584-2.58 12.638-6.653-2.11-1.887-4.096-3.576-4.096-3.576-2.061 3.005-5.14 4.919-8.567 4.919-6.207 0-11.272-6.284-11.272-13.982.025-7.722 5.09-13.979 11.297-13.979Z"/></g><g fill="#0A2832" clip-path="url(#j)"><path d="M365.969 143.27h11.769l3.923 15.668h5.214l-5.214-20.882h-9.187l14.376-15.693h-6.406l-14.475 15.569v-15.569h-5.215v36.55h5.215V143.27ZM428.663 158.914l15.668-26.072v26.072h5.214v-36.575h-5.214l-15.668 26.221v-26.196h-5.239v36.55h5.239ZM475.665 138.031h-15.791v-15.668h-5.214v36.55h5.214v-15.668h15.791v15.668h5.214v-36.55h-5.214v15.668ZM397.304 80.574h20.881v31.335h5.239v-36.55h-31.335v36.55h5.215V80.574ZM360.78 111.935h5.214l2.16-7.673h13.507v7.648h5.214V75.335h-15.543v.05h-.099l-6.754 23.638h-2.209l-1.49 5.214h2.185l-2.185 7.698Zm14.078-31.36h6.803v18.473h-12.017l5.214-18.474ZM480.606 75.335h-15.27v.05h-.074l-6.779 23.638h-2.21l-1.489 5.214h2.21l-2.21 7.673h5.214l2.16-7.673h13.532v7.648h5.214v-36.55h-.298Zm-16.958 23.688 5.214-18.474h6.828v18.474h-12.042ZM454.734 87.18V87.128c0-6.282-4.743-11.446-10.702-11.744h-15.394v36.55h5.214V98.998l9.56-.025c6.207 0 11.272-5.239 11.272-11.77v-.024h.05Zm-11.968 6.678h-8.889V80.525h8.889c3.526 0 6.381 2.98 6.381 6.654 0 3.7-2.855 6.68-6.381 6.68ZM470.152 169.367h-15.394v36.55h5.214v-12.961l9.56-.025c6.207 0 11.272-5.239 11.272-11.769v-.05c.05-6.282-4.717-11.447-10.652-11.745Zm-1.266 18.449h-8.889v-13.334h8.889c3.526 0 6.381 2.98 6.381 6.655 0 3.699-2.855 6.679-6.381 6.679ZM409.607 183.49v-14.154H391.233v36.55h13.359c6.207 0 11.272-5.239 11.272-11.769V194.042c0-4.618-2.557-8.616-6.257-10.552Zm-5.214-8.939v7.722h-7.921v-7.722h7.921Zm-.472 26.196h-7.449v-13.334h7.449c3.526 0 6.381 2.979 6.381 6.654 0 3.7-2.855 6.68-6.381 6.68ZM385.41 200.728h-3.774v-31.336h-2.582v-.025h-13.06v31.361h-3.749l-1.515 5.214H376.422v.025h5.214v-.025h5.239l-1.465-5.214Zm-14.202 0v-26.122h5.214v26.122h-5.214ZM435.094 168.349c-8.84 0-15.99 8.641-15.99 19.293s7.15 19.293 15.99 19.293c8.839 0 15.99-8.641 15.99-19.293s-7.151-19.293-15.99-19.293Zm0 33.372c-5.935 0-10.751-6.307-10.751-14.079 0-7.747 4.816-14.079 10.751-14.079 5.934 0 10.751 6.307 10.751 14.079.025 7.747-4.817 14.079-10.751 14.079ZM404.951 126.659c4.519 0 8.07 2.855 9.858 7.598 0 0 3.004-1.987 4.419-3.451-2.433-5.811-8.293-9.461-14.277-9.461-9.236 0-16.735 8.641-16.735 19.293s7.499 19.293 16.735 19.293c5.041 0 9.584-2.582 12.638-6.654-2.11-1.887-4.096-3.576-4.096-3.576-2.061 3.005-5.14 4.917-8.567 4.917-6.207 0-11.272-6.282-11.272-13.98.025-7.722 5.09-13.979 11.297-13.979Z"/></g><g fill="#fff" clip-path="url(#k)"><path d="M365.969 425.27h11.769l3.923 15.668h5.214l-5.214-20.882h-9.187l14.376-15.693h-6.406l-14.475 15.569v-15.569h-5.215v36.55h5.215V425.27ZM428.663 440.914l15.668-26.072v26.072h5.214v-36.575h-5.214l-15.668 26.221v-26.196h-5.239v36.55h5.239ZM475.665 420.031h-15.791v-15.668h-5.214v36.55h5.214v-15.668h15.791v15.668h5.214v-36.55h-5.214v15.668ZM397.304 362.574h20.881v31.335h5.239v-36.55h-31.335v36.55h5.215v-31.335ZM360.78 393.935h5.214l2.16-7.673h13.507v7.648h5.214v-36.575h-15.543v.05h-.099l-6.754 23.638h-2.209l-1.49 5.214h2.185l-2.185 7.698Zm14.078-31.361h6.803v18.474h-12.017l5.214-18.474ZM480.606 357.335h-15.27v.05h-.074l-6.779 23.638h-2.21l-1.489 5.214h2.21l-2.21 7.673h5.214l2.16-7.673h13.532v7.648h5.214v-36.55h-.298Zm-16.958 23.688 5.214-18.474h6.828v18.474h-12.042ZM454.734 369.179v-.05c0-6.282-4.743-11.446-10.702-11.744h-15.394v36.55h5.214v-12.937l9.56-.025c6.207 0 11.272-5.239 11.272-11.769v-.025h.05Zm-11.968 6.679h-8.889v-13.333h8.889c3.526 0 6.381 2.979 6.381 6.654 0 3.7-2.855 6.679-6.381 6.679ZM470.152 451.367h-15.394v36.55h5.214v-12.961l9.56-.025c6.207 0 11.272-5.239 11.272-11.769v-.05c.05-6.282-4.717-11.447-10.652-11.745Zm-1.266 18.449h-8.889v-13.334h8.889c3.526 0 6.381 2.98 6.381 6.655 0 3.699-2.855 6.679-6.381 6.679ZM409.607 465.49v-14.154H391.233v36.55h13.359c6.207 0 11.272-5.239 11.272-11.769V476.042c0-4.618-2.557-8.616-6.257-10.552Zm-5.214-8.939v7.722h-7.921v-7.722h7.921Zm-.472 26.196h-7.449v-13.334h7.449c3.526 0 6.381 2.979 6.381 6.654 0 3.7-2.855 6.68-6.381 6.68ZM385.41 482.728h-3.774v-31.336h-2.582v-.025h-13.06v31.361h-3.749l-1.515 5.214H376.422v.025h5.214v-.025h5.239l-1.465-5.214Zm-14.202 0v-26.122h5.214v26.122h-5.214ZM435.094 450.349c-8.84 0-15.99 8.641-15.99 19.293s7.15 19.293 15.99 19.293c8.839 0 15.99-8.641 15.99-19.293s-7.151-19.293-15.99-19.293Zm0 33.372c-5.935 0-10.751-6.307-10.751-14.079 0-7.747 4.816-14.079 10.751-14.079 5.934 0 10.751 6.307 10.751 14.079.025 7.747-4.817 14.079-10.751 14.079ZM404.951 408.659c4.519 0 8.07 2.855 9.858 7.598 0 0 3.004-1.987 4.419-3.451-2.433-5.811-8.293-9.461-14.277-9.461-9.236 0-16.735 8.641-16.735 19.293s7.499 19.293 16.735 19.293c5.041 0 9.584-2.582 12.638-6.654-2.11-1.887-4.096-3.576-4.096-3.576-2.061 3.005-5.14 4.917-8.567 4.917-6.207 0-11.272-6.282-11.272-13.98.025-7.722 5.09-13.979 11.297-13.979Z"/></g><g fill="#FFA5C3" clip-path="url(#l)"><path d="M649.969 989.27h11.769l3.923 15.67h5.214l-5.214-20.884h-9.187l14.376-15.693h-6.406l-14.475 15.569v-15.569h-5.215v36.547h5.215v-15.64ZM712.663 1004.91l15.668-26.068v26.068h5.214v-36.571h-5.214l-15.668 26.221v-26.196h-5.239v36.546h5.239ZM759.665 984.031h-15.791v-15.668h-5.214v36.547h5.214v-15.665h15.791v15.665h5.214v-36.547h-5.214v15.668ZM681.304 926.574h20.881v31.335h5.239v-36.55h-31.335v36.55h5.215v-31.335ZM644.78 957.935h5.214l2.16-7.673h13.507v7.648h5.214v-36.575h-15.543v.05h-.099l-6.754 23.638h-2.209l-1.49 5.214h2.185l-2.185 7.698Zm14.078-31.361h6.803v18.474h-12.017l5.214-18.474ZM764.606 921.335h-15.27v.05h-.074l-6.779 23.638h-2.21l-1.489 5.214h2.21l-2.21 7.673h5.214l2.16-7.673h13.532v7.648h5.214v-36.55h-.298Zm-16.958 23.688 5.214-18.474h6.828v18.474h-12.042ZM738.734 933.179v-.05c0-6.282-4.743-11.446-10.702-11.744h-15.394v36.55h5.214v-12.937l9.56-.025c6.207 0 11.272-5.239 11.272-11.769v-.025h.05Zm-11.968 6.679h-8.889v-13.333h8.889c3.526 0 6.381 2.979 6.381 6.654 0 3.7-2.855 6.679-6.381 6.679ZM754.152 1015.37h-15.394v36.55h5.214v-12.96l9.56-.03c6.207 0 11.272-5.24 11.272-11.77v-.05c.05-6.28-4.717-11.44-10.652-11.74Zm-1.266 18.45h-8.889v-13.34h8.889c3.526 0 6.381 2.98 6.381 6.66 0 3.7-2.855 6.68-6.381 6.68ZM693.607 1029.49v-14.15H675.233v36.55h13.359c6.207 0 11.272-5.24 11.272-11.77v-.08c0-4.62-2.557-8.61-6.257-10.55Zm-5.214-8.94v7.72h-7.921v-7.72h7.921Zm-.472 26.2h-7.449v-13.34h7.449c3.526 0 6.381 2.98 6.381 6.66 0 3.7-2.855 6.68-6.381 6.68ZM669.41 1046.73h-3.774v-31.34h-2.582v-.02h-13.06v31.36h-3.749l-1.515 5.21H660.422v.03h5.214v-.03h5.239l-1.465-5.21Zm-14.202 0v-26.12h5.214v26.12h-5.214ZM719.094 1014.35c-8.84 0-15.99 8.64-15.99 19.29 0 10.65 7.15 19.3 15.99 19.3 8.839 0 15.99-8.65 15.99-19.3s-7.151-19.29-15.99-19.29Zm0 33.37c-5.935 0-10.751-6.31-10.751-14.08 0-7.74 4.816-14.08 10.751-14.08 5.934 0 10.751 6.31 10.751 14.08.025 7.75-4.817 14.08-10.751 14.08ZM688.951 972.659c4.519 0 8.07 2.855 9.858 7.598 0 0 3.004-1.987 4.419-3.451-2.433-5.811-8.293-9.461-14.277-9.461-9.236 0-16.735 8.641-16.735 19.293s7.499 19.292 16.735 19.292c5.041 0 9.584-2.58 12.638-6.653-2.11-1.887-4.096-3.576-4.096-3.576-2.061 3.005-5.14 4.919-8.567 4.919-6.207 0-11.272-6.284-11.272-13.982.025-7.722 5.09-13.979 11.297-13.979Z"/></g><path fill="#FFA5C3" d="M0 564.136h282v282H0z"/><path fill="#058CD7" d="M282 564.136h282v282H282zM0 846.136h282v282H0z"/><path fill="#FFBE14" d="M282 846.136h282v282H282z"/><g fill="#058CD7" clip-path="url(#m)"><path d="M85.969 707.27h11.769l3.923 15.668h5.214l-5.214-20.882h-9.187l14.376-15.693h-6.406l-14.475 15.569v-15.569h-5.215v36.55h5.215V707.27ZM148.663 722.914l15.668-26.072v26.072h5.214v-36.575h-5.214l-15.668 26.221v-26.196h-5.239v36.55h5.239ZM195.665 702.031h-15.791v-15.668h-5.214v36.55h5.214v-15.668h15.791v15.668h5.214v-36.55h-5.214v15.668ZM117.304 644.574h20.881v31.335h5.239v-36.55h-31.335v36.55h5.215v-31.335ZM80.78 675.935h5.214l2.16-7.673h13.507v7.648h5.214v-36.575H91.332v.05h-.1l-6.753 23.638h-2.21l-1.49 5.214h2.186l-2.185 7.698Zm14.078-31.361h6.803v18.474H89.644l5.214-18.474ZM200.606 639.335h-15.27v.05h-.074l-6.779 23.638h-2.21l-1.489 5.214h2.21l-2.21 7.673h5.214l2.16-7.673h13.532v7.648h5.214v-36.55h-.298Zm-16.958 23.688 5.214-18.474h6.828v18.474h-12.042ZM174.734 651.179v-.05c0-6.282-4.743-11.446-10.702-11.744h-15.394v36.55h5.214v-12.937l9.56-.025c6.207 0 11.272-5.239 11.272-11.769v-.025h.05Zm-11.968 6.679h-8.889v-13.333h8.889c3.526 0 6.381 2.979 6.381 6.654 0 3.7-2.855 6.679-6.381 6.679ZM190.152 733.367h-15.394v36.55h5.214v-12.961l9.56-.025c6.207 0 11.272-5.239 11.272-11.769v-.05c.05-6.282-4.717-11.447-10.652-11.745Zm-1.266 18.449h-8.889v-13.334h8.889c3.526 0 6.381 2.98 6.381 6.655 0 3.699-2.855 6.679-6.381 6.679ZM129.607 747.49v-14.154H111.233v36.55h13.359c6.207 0 11.272-5.239 11.272-11.769V758.042c0-4.618-2.557-8.616-6.257-10.552Zm-5.214-8.939v7.722h-7.921v-7.722h7.921Zm-.472 26.196h-7.449v-13.334h7.449c3.526 0 6.381 2.979 6.381 6.654 0 3.7-2.855 6.68-6.381 6.68ZM105.41 764.728h-3.774v-31.336h-2.582v-.025H85.993v31.361h-3.748l-1.515 5.214H96.422v.025h5.214v-.025h5.239l-1.465-5.214Zm-14.202 0v-26.122h5.214v26.122h-5.214ZM155.094 732.349c-8.84 0-15.99 8.641-15.99 19.293s7.15 19.293 15.99 19.293c8.839 0 15.99-8.641 15.99-19.293s-7.151-19.293-15.99-19.293Zm0 33.372c-5.935 0-10.751-6.307-10.751-14.079 0-7.747 4.816-14.079 10.751-14.079 5.934 0 10.751 6.307 10.751 14.079.025 7.747-4.817 14.079-10.751 14.079ZM124.951 690.659c4.519 0 8.07 2.855 9.858 7.598 0 0 3.004-1.987 4.419-3.451-2.433-5.811-8.293-9.461-14.277-9.461-9.236 0-16.735 8.641-16.735 19.293s7.499 19.293 16.735 19.293c5.041 0 9.584-2.582 12.638-6.654-2.11-1.887-4.096-3.576-4.096-3.576-2.061 3.005-5.14 4.917-8.567 4.917-6.207 0-11.272-6.282-11.272-13.98.025-7.722 5.09-13.979 11.297-13.979Z"/></g><g fill="#FFBE14" clip-path="url(#n)"><path d="M367.969 707.27h11.769l3.923 15.668h5.214l-5.214-20.882h-9.187l14.376-15.693h-6.406l-14.475 15.569v-15.569h-5.215v36.55h5.215V707.27ZM430.663 722.914l15.668-26.072v26.072h5.214v-36.575h-5.214l-15.668 26.221v-26.196h-5.239v36.55h5.239ZM477.665 702.031h-15.791v-15.668h-5.214v36.55h5.214v-15.668h15.791v15.668h5.214v-36.55h-5.214v15.668ZM399.304 644.574h20.881v31.335h5.239v-36.55h-31.335v36.55h5.215v-31.335ZM362.78 675.935h5.214l2.16-7.673h13.507v7.648h5.214v-36.575h-15.543v.05h-.099l-6.754 23.638h-2.209l-1.49 5.214h2.185l-2.185 7.698Zm14.078-31.361h6.803v18.474h-12.017l5.214-18.474ZM482.606 639.335h-15.27v.05h-.074l-6.779 23.638h-2.21l-1.489 5.214h2.21l-2.21 7.673h5.214l2.16-7.673h13.532v7.648h5.214v-36.55h-.298Zm-16.958 23.688 5.214-18.474h6.828v18.474h-12.042ZM456.734 651.179v-.05c0-6.282-4.743-11.446-10.702-11.744h-15.394v36.55h5.214v-12.937l9.56-.025c6.207 0 11.272-5.239 11.272-11.769v-.025h.05Zm-11.968 6.679h-8.889v-13.333h8.889c3.526 0 6.381 2.979 6.381 6.654 0 3.7-2.855 6.679-6.381 6.679ZM472.152 733.367h-15.394v36.55h5.214v-12.961l9.56-.025c6.207 0 11.272-5.239 11.272-11.769v-.05c.05-6.282-4.717-11.447-10.652-11.745Zm-1.266 18.449h-8.889v-13.334h8.889c3.526 0 6.381 2.98 6.381 6.655 0 3.699-2.855 6.679-6.381 6.679ZM411.607 747.49v-14.154H393.233v36.55h13.359c6.207 0 11.272-5.239 11.272-11.769V758.042c0-4.618-2.557-8.616-6.257-10.552Zm-5.214-8.939v7.722h-7.921v-7.722h7.921Zm-.472 26.196h-7.449v-13.334h7.449c3.526 0 6.381 2.979 6.381 6.654 0 3.7-2.855 6.68-6.381 6.68ZM387.41 764.728h-3.774v-31.336h-2.582v-.025h-13.06v31.361h-3.749l-1.515 5.214H378.422v.025h5.214v-.025h5.239l-1.465-5.214Zm-14.202 0v-26.122h5.214v26.122h-5.214ZM437.094 732.349c-8.84 0-15.99 8.641-15.99 19.293s7.15 19.293 15.99 19.293c8.839 0 15.99-8.641 15.99-19.293s-7.151-19.293-15.99-19.293Zm0 33.372c-5.935 0-10.751-6.307-10.751-14.079 0-7.747 4.816-14.079 10.751-14.079 5.934 0 10.751 6.307 10.751 14.079.025 7.747-4.817 14.079-10.751 14.079ZM406.951 690.659c4.519 0 8.07 2.855 9.858 7.598 0 0 3.004-1.987 4.419-3.451-2.433-5.811-8.293-9.461-14.277-9.461-9.236 0-16.735 8.641-16.735 19.293s7.499 19.293 16.735 19.293c5.041 0 9.584-2.582 12.638-6.654-2.11-1.887-4.096-3.576-4.096-3.576-2.061 3.005-5.14 4.917-8.567 4.917-6.207 0-11.272-6.282-11.272-13.98.025-7.722 5.09-13.979 11.297-13.979Z"/></g><g fill="#FFA5C3" clip-path="url(#o)"><path d="M85.969 989.27h11.769l3.923 15.67h5.214l-5.214-20.884h-9.187l14.376-15.693h-6.406l-14.475 15.569v-15.569h-5.215v36.547h5.215v-15.64ZM148.663 1004.91l15.668-26.068v26.068h5.214v-36.571h-5.214l-15.668 26.221v-26.196h-5.239v36.546h5.239ZM195.665 984.031h-15.791v-15.668h-5.214v36.547h5.214v-15.665h15.791v15.665h5.214v-36.547h-5.214v15.668ZM117.304 926.574h20.881v31.335h5.239v-36.55h-31.335v36.55h5.215v-31.335ZM80.78 957.935h5.214l2.16-7.673h13.507v7.648h5.214v-36.575H91.332v.05h-.1l-6.753 23.638h-2.21l-1.49 5.214h2.186l-2.185 7.698Zm14.078-31.361h6.803v18.474H89.644l5.214-18.474ZM200.606 921.335h-15.27v.05h-.074l-6.779 23.638h-2.21l-1.489 5.214h2.21l-2.21 7.673h5.214l2.16-7.673h13.532v7.648h5.214v-36.55h-.298Zm-16.958 23.688 5.214-18.474h6.828v18.474h-12.042ZM174.734 933.179v-.05c0-6.282-4.743-11.446-10.702-11.744h-15.394v36.55h5.214v-12.937l9.56-.025c6.207 0 11.272-5.239 11.272-11.769v-.025h.05Zm-11.968 6.679h-8.889v-13.333h8.889c3.526 0 6.381 2.979 6.381 6.654 0 3.7-2.855 6.679-6.381 6.679ZM190.152 1015.37h-15.394v36.55h5.214v-12.96l9.56-.03c6.207 0 11.272-5.24 11.272-11.77v-.05c.05-6.28-4.717-11.44-10.652-11.74Zm-1.266 18.45h-8.889v-13.34h8.889c3.526 0 6.381 2.98 6.381 6.66 0 3.7-2.855 6.68-6.381 6.68ZM129.607 1029.49v-14.15H111.233v36.55h13.359c6.207 0 11.272-5.24 11.272-11.77v-.08c0-4.62-2.557-8.61-6.257-10.55Zm-5.214-8.94v7.72h-7.921v-7.72h7.921Zm-.472 26.2h-7.449v-13.34h7.449c3.526 0 6.381 2.98 6.381 6.66 0 3.7-2.855 6.68-6.381 6.68ZM105.41 1046.73h-3.774v-31.34h-2.582v-.02H85.993v31.36h-3.748l-1.515 5.21H96.422v.03h5.214v-.03h5.239l-1.465-5.21Zm-14.202 0v-26.12h5.214v26.12h-5.214ZM155.094 1014.35c-8.84 0-15.99 8.64-15.99 19.29 0 10.65 7.15 19.3 15.99 19.3 8.839 0 15.99-8.65 15.99-19.3s-7.151-19.29-15.99-19.29Zm0 33.37c-5.935 0-10.751-6.31-10.751-14.08 0-7.74 4.816-14.08 10.751-14.08 5.934 0 10.751 6.31 10.751 14.08.025 7.75-4.817 14.08-10.751 14.08ZM124.951 972.659c4.519 0 8.07 2.855 9.858 7.598 0 0 3.004-1.987 4.419-3.451-2.433-5.811-8.293-9.461-14.277-9.461-9.236 0-16.735 8.641-16.735 19.293s7.499 19.292 16.735 19.292c5.041 0 9.584-2.58 12.638-6.653-2.11-1.887-4.096-3.576-4.096-3.576-2.061 3.005-5.14 4.919-8.567 4.919-6.207 0-11.272-6.284-11.272-13.982.025-7.722 5.09-13.979 11.297-13.979Z"/></g><g fill="#0178BA" clip-path="url(#p)"><path d="M367.969 989.27h11.769l3.923 15.67h5.214l-5.214-20.884h-9.187l14.376-15.693h-6.406l-14.475 15.569v-15.569h-5.215v36.547h5.215v-15.64ZM430.663 1004.91l15.668-26.068v26.068h5.214v-36.571h-5.214l-15.668 26.221v-26.196h-5.239v36.546h5.239ZM477.665 984.031h-15.791v-15.668h-5.214v36.547h5.214v-15.665h15.791v15.665h5.214v-36.547h-5.214v15.668ZM399.304 926.574h20.881v31.335h5.239v-36.55h-31.335v36.55h5.215v-31.335ZM362.78 957.935h5.214l2.16-7.673h13.507v7.648h5.214v-36.575h-15.543v.05h-.099l-6.754 23.638h-2.209l-1.49 5.214h2.185l-2.185 7.698Zm14.078-31.361h6.803v18.474h-12.017l5.214-18.474ZM482.606 921.335h-15.27v.05h-.074l-6.779 23.638h-2.21l-1.489 5.214h2.21l-2.21 7.673h5.214l2.16-7.673h13.532v7.648h5.214v-36.55h-.298Zm-16.958 23.688 5.214-18.474h6.828v18.474h-12.042ZM456.734 933.179v-.05c0-6.282-4.743-11.446-10.702-11.744h-15.394v36.55h5.214v-12.937l9.56-.025c6.207 0 11.272-5.239 11.272-11.769v-.025h.05Zm-11.968 6.679h-8.889v-13.333h8.889c3.526 0 6.381 2.979 6.381 6.654 0 3.7-2.855 6.679-6.381 6.679ZM472.152 1015.37h-15.394v36.55h5.214v-12.96l9.56-.03c6.207 0 11.272-5.24 11.272-11.77v-.05c.05-6.28-4.717-11.44-10.652-11.74Zm-1.266 18.45h-8.889v-13.34h8.889c3.526 0 6.381 2.98 6.381 6.66 0 3.7-2.855 6.68-6.381 6.68ZM411.607 1029.49v-14.15H393.233v36.55h13.359c6.207 0 11.272-5.24 11.272-11.77v-.08c0-4.62-2.557-8.61-6.257-10.55Zm-5.214-8.94v7.72h-7.921v-7.72h7.921Zm-.472 26.2h-7.449v-13.34h7.449c3.526 0 6.381 2.98 6.381 6.66 0 3.7-2.855 6.68-6.381 6.68ZM387.41 1046.73h-3.774v-31.34h-2.582v-.02h-13.06v31.36h-3.749l-1.515 5.21H378.422v.03h5.214v-.03h5.239l-1.465-5.21Zm-14.202 0v-26.12h5.214v26.12h-5.214ZM437.094 1014.35c-8.84 0-15.99 8.64-15.99 19.29 0 10.65 7.15 19.3 15.99 19.3 8.839 0 15.99-8.65 15.99-19.3s-7.151-19.29-15.99-19.29Zm0 33.37c-5.935 0-10.751-6.31-10.751-14.08 0-7.74 4.816-14.08 10.751-14.08 5.934 0 10.751 6.31 10.751 14.08.025 7.75-4.817 14.08-10.751 14.08ZM406.951 972.659c4.519 0 8.07 2.855 9.858 7.598 0 0 3.004-1.987 4.419-3.451-2.433-5.811-8.293-9.461-14.277-9.461-9.236 0-16.735 8.641-16.735 19.293s7.499 19.292 16.735 19.292c5.041 0 9.584-2.58 12.638-6.653-2.11-1.887-4.096-3.576-4.096-3.576-2.061 3.005-5.14 4.919-8.567 4.919-6.207 0-11.272-6.284-11.272-13.982.025-7.722 5.09-13.979 11.297-13.979Z"/></g><defs><clipPath id="i"><path fill="#fff" d="M921.2 921.336h131.6v131.6H921.2z"/></clipPath><clipPath id="a"><path fill="#fff" d="M921.2 75.336h131.6v131.6H921.2z"/></clipPath><clipPath id="c"><path fill="#fff" d="M921.2 357.336h131.6v131.6H921.2z"/></clipPath><clipPath id="d"><path fill="#fff" d="M921.2 639.336h131.6v131.6H921.2z"/></clipPath><clipPath id="e"><path fill="#fff" d="M75.2 357.336h131.6v131.6H75.2z"/></clipPath><clipPath id="f"><path fill="#fff" d="M639.2 639.336h131.6v131.6H639.2z"/></clipPath><clipPath id="g"><path fill="#fff" d="M639.2 75.336h131.6v131.6H639.2z"/></clipPath><clipPath id="h"><path fill="#fff" d="M639.2 357.336h131.6v131.6H639.2z"/></clipPath><clipPath id="b"><path fill="#fff" d="M75.2 75.336h131.6v131.6H75.2z"/></clipPath><clipPath id="j"><path fill="#fff" d="M355.2 75.336h131.6v131.6H355.2z"/></clipPath><clipPath id="k"><path fill="#fff" d="M355.2 357.336h131.6v131.6H355.2z"/></clipPath><clipPath id="l"><path fill="#fff" d="M639.2 921.336h131.6v131.6H639.2z"/></clipPath><clipPath id="m"><path fill="#fff" d="M75.2 639.336h131.6v131.6H75.2z"/></clipPath><clipPath id="n"><path fill="#fff" d="M357.2 639.336h131.6v131.6H357.2z"/></clipPath><clipPath id="o"><path fill="#fff" d="M75.2 921.336h131.6v131.6H75.2z"/></clipPath><clipPath id="p"><path fill="#fff" d="M357.2 921.336h131.6v131.6H357.2z"/></clipPath></defs></svg>