<svg width="552" height="552" viewBox="0 0 552 552" fill="none" xmlns="http://www.w3.org/2000/svg">
<rect width="552" height="552" fill="#F2F6F9"/>
<path d="M155.761 339.455H157.864L162.807 351.528H162.977L167.92 339.455H170.023V354H168.375V342.949H168.233L163.688 354H162.097L157.551 342.949H157.409V354H155.761V339.455ZM176.537 354.256C175.846 354.256 175.219 354.125 174.655 353.865C174.092 353.6 173.644 353.219 173.313 352.722C172.981 352.22 172.816 351.614 172.816 350.903C172.816 350.278 172.939 349.772 173.185 349.384C173.431 348.991 173.76 348.683 174.172 348.46C174.584 348.238 175.039 348.072 175.536 347.963C176.038 347.849 176.542 347.759 177.049 347.693C177.712 347.608 178.249 347.544 178.661 347.501C179.078 347.454 179.381 347.376 179.57 347.267C179.764 347.158 179.861 346.969 179.861 346.699V346.642C179.861 345.941 179.669 345.397 179.286 345.009C178.907 344.62 178.332 344.426 177.56 344.426C176.76 344.426 176.132 344.601 175.678 344.952C175.223 345.302 174.904 345.676 174.719 346.074L173.128 345.506C173.412 344.843 173.791 344.327 174.265 343.957C174.743 343.583 175.264 343.323 175.827 343.176C176.395 343.025 176.954 342.949 177.503 342.949C177.854 342.949 178.256 342.991 178.711 343.077C179.17 343.157 179.613 343.325 180.039 343.581C180.47 343.837 180.827 344.223 181.111 344.739C181.395 345.255 181.537 345.946 181.537 346.812V354H179.861V352.523H179.776C179.662 352.759 179.473 353.013 179.208 353.283C178.943 353.553 178.59 353.782 178.15 353.972C177.709 354.161 177.172 354.256 176.537 354.256ZM176.793 352.75C177.456 352.75 178.015 352.62 178.469 352.359C178.928 352.099 179.274 351.763 179.506 351.351C179.743 350.939 179.861 350.506 179.861 350.051V348.517C179.79 348.602 179.634 348.68 179.392 348.751C179.156 348.818 178.881 348.877 178.569 348.929C178.261 348.976 177.96 349.019 177.667 349.057C177.378 349.09 177.143 349.118 176.963 349.142C176.528 349.199 176.121 349.291 175.742 349.419C175.368 349.542 175.065 349.729 174.833 349.98C174.605 350.226 174.492 350.562 174.492 350.989C174.492 351.571 174.707 352.011 175.138 352.31C175.574 352.603 176.125 352.75 176.793 352.75ZM184.597 358.091V343.091H186.216V344.824H186.415C186.538 344.634 186.708 344.393 186.926 344.099C187.149 343.801 187.466 343.536 187.878 343.304C188.295 343.067 188.858 342.949 189.568 342.949C190.487 342.949 191.296 343.179 191.997 343.638C192.698 344.097 193.245 344.748 193.638 345.591C194.031 346.434 194.227 347.428 194.227 348.574C194.227 349.729 194.031 350.731 193.638 351.578C193.245 352.421 192.7 353.074 192.004 353.538C191.308 353.998 190.506 354.227 189.597 354.227C188.896 354.227 188.335 354.111 187.913 353.879C187.492 353.643 187.168 353.375 186.94 353.077C186.713 352.774 186.538 352.523 186.415 352.324H186.273V358.091H184.597ZM186.244 348.545C186.244 349.369 186.365 350.096 186.607 350.726C186.848 351.351 187.201 351.841 187.665 352.196C188.129 352.546 188.697 352.722 189.369 352.722C190.07 352.722 190.655 352.537 191.124 352.168C191.597 351.794 191.952 351.292 192.189 350.662C192.43 350.027 192.551 349.322 192.551 348.545C192.551 347.778 192.433 347.087 192.196 346.472C191.964 345.851 191.611 345.361 191.138 345.001C190.669 344.637 190.08 344.455 189.369 344.455C188.688 344.455 188.115 344.627 187.651 344.973C187.187 345.314 186.836 345.792 186.599 346.408C186.363 347.018 186.244 347.731 186.244 348.545ZM196.784 354V343.091H198.46V347.835H199.568L203.489 343.091H205.648L201.244 348.347L205.705 354H203.545L199.966 349.398H198.46V354H196.784ZM209.202 351.528L214.458 343.091H216.39V354H214.714V345.562L209.487 354H207.526V343.091H209.202V351.528ZM219.46 358.091V343.091H221.079V344.824H221.278C221.401 344.634 221.572 344.393 221.789 344.099C222.012 343.801 222.329 343.536 222.741 343.304C223.158 343.067 223.721 342.949 224.431 342.949C225.35 342.949 226.16 343.179 226.86 343.638C227.561 344.097 228.108 344.748 228.501 345.591C228.894 346.434 229.091 347.428 229.091 348.574C229.091 349.729 228.894 350.731 228.501 351.578C228.108 352.421 227.564 353.074 226.868 353.538C226.172 353.998 225.369 354.227 224.46 354.227C223.759 354.227 223.198 354.111 222.777 353.879C222.355 353.643 222.031 353.375 221.804 353.077C221.576 352.774 221.401 352.523 221.278 352.324H221.136V358.091H219.46ZM221.108 348.545C221.108 349.369 221.228 350.096 221.47 350.726C221.711 351.351 222.064 351.841 222.528 352.196C222.992 352.546 223.56 352.722 224.233 352.722C224.933 352.722 225.518 352.537 225.987 352.168C226.46 351.794 226.815 351.292 227.052 350.662C227.294 350.027 227.414 349.322 227.414 348.545C227.414 347.778 227.296 347.087 227.059 346.472C226.827 345.851 226.475 345.361 226.001 345.001C225.532 344.637 224.943 344.455 224.233 344.455C223.551 344.455 222.978 344.627 222.514 344.973C222.05 345.314 221.699 345.792 221.463 346.408C221.226 347.018 221.108 347.731 221.108 348.545ZM236.079 354.227C235.094 354.227 234.23 353.993 233.487 353.524C232.748 353.055 232.171 352.4 231.754 351.557C231.342 350.714 231.136 349.729 231.136 348.602C231.136 347.466 231.342 346.474 231.754 345.626C232.171 344.779 232.748 344.121 233.487 343.652C234.23 343.183 235.094 342.949 236.079 342.949C237.064 342.949 237.926 343.183 238.664 343.652C239.408 344.121 239.985 344.779 240.397 345.626C240.814 346.474 241.022 347.466 241.022 348.602C241.022 349.729 240.814 350.714 240.397 351.557C239.985 352.4 239.408 353.055 238.664 353.524C237.926 353.993 237.064 354.227 236.079 354.227ZM236.079 352.722C236.827 352.722 237.443 352.53 237.926 352.146C238.409 351.763 238.766 351.259 238.998 350.634C239.23 350.009 239.346 349.331 239.346 348.602C239.346 347.873 239.23 347.194 238.998 346.564C238.766 345.934 238.409 345.425 237.926 345.037C237.443 344.649 236.827 344.455 236.079 344.455C235.331 344.455 234.716 344.649 234.233 345.037C233.75 345.425 233.392 345.934 233.16 346.564C232.928 347.194 232.812 347.873 232.812 348.602C232.812 349.331 232.928 350.009 233.16 350.634C233.392 351.259 233.75 351.763 234.233 352.146C234.716 352.53 235.331 352.722 236.079 352.722ZM243.581 354V343.091H248.041C249.215 343.091 250.148 343.356 250.839 343.886C251.531 344.417 251.876 345.117 251.876 345.989C251.876 346.652 251.68 347.165 251.287 347.53C250.894 347.89 250.39 348.134 249.774 348.261C250.177 348.318 250.567 348.46 250.946 348.688C251.33 348.915 251.647 349.227 251.898 349.625C252.149 350.018 252.274 350.501 252.274 351.074C252.274 351.633 252.132 352.132 251.848 352.572C251.564 353.013 251.157 353.361 250.626 353.616C250.096 353.872 249.462 354 248.723 354H243.581ZM245.172 352.466H248.723C249.301 352.466 249.753 352.329 250.08 352.054C250.406 351.779 250.57 351.405 250.57 350.932C250.57 350.368 250.406 349.926 250.08 349.604C249.753 349.277 249.301 349.114 248.723 349.114H245.172V352.466ZM245.172 347.665H248.041C248.491 347.665 248.877 347.603 249.199 347.48C249.521 347.352 249.767 347.172 249.938 346.94C250.113 346.704 250.2 346.424 250.2 346.102C250.2 345.643 250.009 345.283 249.625 345.023C249.241 344.758 248.714 344.625 248.041 344.625H245.172V347.665ZM258.022 354.256C257.33 354.256 256.703 354.125 256.14 353.865C255.576 353.6 255.129 353.219 254.797 352.722C254.466 352.22 254.3 351.614 254.3 350.903C254.3 350.278 254.423 349.772 254.669 349.384C254.916 348.991 255.245 348.683 255.657 348.46C256.069 348.238 256.523 348.072 257.02 347.963C257.522 347.849 258.026 347.759 258.533 347.693C259.196 347.608 259.733 347.544 260.145 347.501C260.562 347.454 260.865 347.376 261.054 347.267C261.248 347.158 261.346 346.969 261.346 346.699V346.642C261.346 345.941 261.154 345.397 260.77 345.009C260.391 344.62 259.816 344.426 259.044 344.426C258.244 344.426 257.617 344.601 257.162 344.952C256.708 345.302 256.388 345.676 256.203 346.074L254.613 345.506C254.897 344.843 255.275 344.327 255.749 343.957C256.227 343.583 256.748 343.323 257.311 343.176C257.88 343.025 258.438 342.949 258.988 342.949C259.338 342.949 259.74 342.991 260.195 343.077C260.654 343.157 261.097 343.325 261.523 343.581C261.954 343.837 262.311 344.223 262.596 344.739C262.88 345.255 263.022 345.946 263.022 346.812V354H261.346V352.523H261.26C261.147 352.759 260.957 353.013 260.692 353.283C260.427 353.553 260.074 353.782 259.634 353.972C259.194 354.161 258.656 354.256 258.022 354.256ZM258.277 352.75C258.94 352.75 259.499 352.62 259.953 352.359C260.413 352.099 260.758 351.763 260.99 351.351C261.227 350.939 261.346 350.506 261.346 350.051V348.517C261.275 348.602 261.118 348.68 260.877 348.751C260.64 348.818 260.365 348.877 260.053 348.929C259.745 348.976 259.444 349.019 259.151 349.057C258.862 349.09 258.628 349.118 258.448 349.142C258.012 349.199 257.605 349.291 257.226 349.419C256.852 349.542 256.549 349.729 256.317 349.98C256.09 350.226 255.976 350.562 255.976 350.989C255.976 351.571 256.192 352.011 256.623 352.31C257.058 352.603 257.61 352.75 258.277 352.75ZM273.382 347.778V349.341H267.359V347.778H273.382ZM267.757 343.091V354H266.081V343.091H267.757ZM274.661 343.091V354H272.984V343.091H274.661ZM285.023 347.778V349.341H279V347.778H285.023ZM279.398 343.091V354H277.722V343.091H279.398ZM286.301 343.091V354H284.625V343.091H286.301ZM290.811 347.04H293.936C295.214 347.04 296.192 347.364 296.869 348.013C297.546 348.661 297.885 349.483 297.885 350.477C297.885 351.131 297.733 351.725 297.43 352.26C297.127 352.79 296.682 353.214 296.095 353.531C295.508 353.844 294.788 354 293.936 354H289.362V343.091H291.038V352.438H293.936C294.599 352.438 295.143 352.262 295.57 351.912C295.996 351.562 296.209 351.112 296.209 350.562C296.209 349.985 295.996 349.514 295.57 349.149C295.143 348.785 294.599 348.602 293.936 348.602H290.811V347.04ZM299.618 354V343.091H301.294V354H299.618ZM306.038 351.528L311.294 343.091H313.226V354H311.55V345.562L306.322 354H304.362V343.091H306.038V351.528ZM310.186 339.455H311.749C311.749 340.222 311.483 340.849 310.953 341.337C310.423 341.824 309.703 342.068 308.794 342.068C307.899 342.068 307.187 341.824 306.656 341.337C306.131 340.849 305.868 340.222 305.868 339.455H307.43C307.43 339.824 307.532 340.148 307.736 340.428C307.944 340.707 308.297 340.847 308.794 340.847C309.291 340.847 309.646 340.707 309.859 340.428C310.077 340.148 310.186 339.824 310.186 339.455ZM326.353 354.227C325.33 354.227 324.449 353.986 323.711 353.503C322.972 353.02 322.404 352.355 322.006 351.507C321.608 350.66 321.409 349.691 321.409 348.602C321.409 347.494 321.613 346.517 322.02 345.669C322.432 344.817 323.005 344.152 323.739 343.673C324.478 343.19 325.339 342.949 326.324 342.949C327.091 342.949 327.783 343.091 328.398 343.375C329.014 343.659 329.518 344.057 329.911 344.568C330.304 345.08 330.548 345.676 330.642 346.358H328.966C328.838 345.861 328.554 345.42 328.114 345.037C327.678 344.649 327.091 344.455 326.353 344.455C325.699 344.455 325.126 344.625 324.634 344.966C324.146 345.302 323.765 345.778 323.49 346.393C323.221 347.004 323.086 347.722 323.086 348.545C323.086 349.388 323.218 350.122 323.483 350.747C323.753 351.372 324.132 351.857 324.62 352.203C325.112 352.549 325.69 352.722 326.353 352.722C326.788 352.722 327.184 352.646 327.539 352.494C327.894 352.343 328.194 352.125 328.441 351.841C328.687 351.557 328.862 351.216 328.966 350.818H330.642C330.548 351.462 330.313 352.042 329.939 352.558C329.57 353.07 329.08 353.477 328.469 353.78C327.863 354.078 327.158 354.227 326.353 354.227ZM333.093 354V343.091H341.672V354H339.996V344.653H334.769V354H333.093ZM346.409 351.528L351.665 343.091H353.597V354H351.921V345.562L346.694 354H344.733V343.091H346.409V351.528ZM361.099 354.227C360.076 354.227 359.195 353.986 358.457 353.503C357.718 353.02 357.15 352.355 356.752 351.507C356.354 350.66 356.156 349.691 356.156 348.602C356.156 347.494 356.359 346.517 356.766 345.669C357.178 344.817 357.751 344.152 358.485 343.673C359.224 343.19 360.085 342.949 361.07 342.949C361.837 342.949 362.529 343.091 363.144 343.375C363.76 343.659 364.264 344.057 364.657 344.568C365.05 345.08 365.294 345.676 365.388 346.358H363.712C363.585 345.861 363.3 345.42 362.86 345.037C362.424 344.649 361.837 344.455 361.099 344.455C360.445 344.455 359.872 344.625 359.38 344.966C358.892 345.302 358.511 345.778 358.237 346.393C357.967 347.004 357.832 347.722 357.832 348.545C357.832 349.388 357.964 350.122 358.229 350.747C358.499 351.372 358.878 351.857 359.366 352.203C359.858 352.549 360.436 352.722 361.099 352.722C361.534 352.722 361.93 352.646 362.285 352.494C362.64 352.343 362.941 352.125 363.187 351.841C363.433 351.557 363.608 351.216 363.712 350.818H365.388C365.294 351.462 365.059 352.042 364.685 352.558C364.316 353.07 363.826 353.477 363.215 353.78C362.609 354.078 361.904 354.227 361.099 354.227ZM372.271 354.227C371.286 354.227 370.422 353.993 369.678 353.524C368.94 353.055 368.362 352.4 367.945 351.557C367.533 350.714 367.327 349.729 367.327 348.602C367.327 347.466 367.533 346.474 367.945 345.626C368.362 344.779 368.94 344.121 369.678 343.652C370.422 343.183 371.286 342.949 372.271 342.949C373.255 342.949 374.117 343.183 374.856 343.652C375.599 344.121 376.177 344.779 376.589 345.626C377.005 346.474 377.214 347.466 377.214 348.602C377.214 349.729 377.005 350.714 376.589 351.557C376.177 352.4 375.599 353.055 374.856 353.524C374.117 353.993 373.255 354.227 372.271 354.227ZM372.271 352.722C373.019 352.722 373.634 352.53 374.117 352.146C374.6 351.763 374.958 351.259 375.19 350.634C375.422 350.009 375.538 349.331 375.538 348.602C375.538 347.873 375.422 347.194 375.19 346.564C374.958 345.934 374.6 345.425 374.117 345.037C373.634 344.649 373.019 344.455 372.271 344.455C371.522 344.455 370.907 344.649 370.424 345.037C369.941 345.425 369.584 345.934 369.352 346.564C369.12 347.194 369.004 347.873 369.004 348.602C369.004 349.331 369.12 350.009 369.352 350.634C369.584 351.259 369.941 351.763 370.424 352.146C370.907 352.53 371.522 352.722 372.271 352.722ZM379.772 354V343.091H381.449V347.835H382.556L386.477 343.091H388.636L384.233 348.347L388.693 354H386.534L382.954 349.398H381.449V354H379.772ZM391.736 354.114C391.386 354.114 391.085 353.988 390.834 353.737C390.583 353.486 390.458 353.186 390.458 352.835C390.458 352.485 390.583 352.184 390.834 351.933C391.085 351.682 391.386 351.557 391.736 351.557C392.087 351.557 392.387 351.682 392.638 351.933C392.889 352.184 393.015 352.485 393.015 352.835C393.015 353.067 392.955 353.28 392.837 353.474C392.723 353.669 392.569 353.825 392.375 353.943C392.186 354.057 391.973 354.114 391.736 354.114ZM391.736 346.017C391.386 346.017 391.085 345.892 390.834 345.641C390.583 345.39 390.458 345.089 390.458 344.739C390.458 344.388 390.583 344.088 390.834 343.837C391.085 343.586 391.386 343.46 391.736 343.46C392.087 343.46 392.387 343.586 392.638 343.837C392.889 344.088 393.015 344.388 393.015 344.739C393.015 344.971 392.955 345.184 392.837 345.378C392.723 345.572 392.569 345.728 392.375 345.847C392.186 345.96 391.973 346.017 391.736 346.017Z" fill="#0A2832"/>
<rect x="186" y="386.5" width="9" height="9" fill="#058C50"/>
<path d="M212.534 398V387.091H221.114V398H219.438V388.653H214.21V398H212.534ZM228.749 398.227C227.697 398.227 226.791 397.995 226.028 397.531C225.271 397.062 224.686 396.409 224.274 395.571C223.867 394.728 223.663 393.748 223.663 392.631C223.663 391.513 223.867 390.528 224.274 389.676C224.686 388.819 225.259 388.152 225.993 387.673C226.732 387.19 227.593 386.949 228.578 386.949C229.146 386.949 229.707 387.044 230.261 387.233C230.815 387.422 231.32 387.73 231.774 388.156C232.229 388.578 232.591 389.136 232.861 389.832C233.131 390.528 233.266 391.385 233.266 392.403V393.114H224.857V391.665H231.561C231.561 391.049 231.438 390.5 231.192 390.017C230.95 389.534 230.605 389.153 230.155 388.874C229.71 388.594 229.184 388.455 228.578 388.455C227.911 388.455 227.333 388.62 226.845 388.952C226.362 389.278 225.991 389.705 225.73 390.23C225.47 390.756 225.339 391.319 225.339 391.92V392.886C225.339 393.71 225.482 394.409 225.766 394.982C226.054 395.55 226.455 395.983 226.966 396.281C227.477 396.575 228.071 396.722 228.749 396.722C229.189 396.722 229.587 396.66 229.942 396.537C230.302 396.409 230.612 396.22 230.872 395.969C231.133 395.713 231.334 395.396 231.476 395.017L233.095 395.472C232.925 396.021 232.638 396.504 232.236 396.92C231.833 397.332 231.336 397.654 230.744 397.886C230.152 398.114 229.487 398.227 228.749 398.227ZM235.815 402.091V387.091H237.435V388.824H237.634C237.757 388.634 237.927 388.393 238.145 388.099C238.367 387.801 238.685 387.536 239.097 387.304C239.513 387.067 240.077 386.949 240.787 386.949C241.705 386.949 242.515 387.179 243.216 387.638C243.917 388.097 244.464 388.748 244.857 389.591C245.25 390.434 245.446 391.428 245.446 392.574C245.446 393.729 245.25 394.731 244.857 395.578C244.464 396.421 243.919 397.074 243.223 397.538C242.527 397.998 241.724 398.227 240.815 398.227C240.115 398.227 239.554 398.111 239.132 397.879C238.711 397.643 238.386 397.375 238.159 397.077C237.932 396.774 237.757 396.523 237.634 396.324H237.491V402.091H235.815ZM237.463 392.545C237.463 393.369 237.584 394.096 237.825 394.726C238.067 395.351 238.42 395.841 238.884 396.196C239.348 396.546 239.916 396.722 240.588 396.722C241.289 396.722 241.874 396.537 242.342 396.168C242.816 395.794 243.171 395.292 243.408 394.662C243.649 394.027 243.77 393.322 243.77 392.545C243.77 391.778 243.652 391.087 243.415 390.472C243.183 389.851 242.83 389.361 242.357 389.001C241.888 388.637 241.298 388.455 240.588 388.455C239.906 388.455 239.333 388.627 238.869 388.973C238.405 389.314 238.055 389.792 237.818 390.408C237.581 391.018 237.463 391.731 237.463 392.545ZM248.003 398V387.091H252.463C253.637 387.091 254.57 387.356 255.261 387.886C255.953 388.417 256.298 389.117 256.298 389.989C256.298 390.652 256.102 391.165 255.709 391.53C255.316 391.89 254.812 392.134 254.196 392.261C254.598 392.318 254.989 392.46 255.368 392.688C255.751 392.915 256.069 393.227 256.32 393.625C256.571 394.018 256.696 394.501 256.696 395.074C256.696 395.633 256.554 396.132 256.27 396.572C255.986 397.013 255.579 397.361 255.048 397.616C254.518 397.872 253.884 398 253.145 398H248.003ZM249.594 396.466H253.145C253.723 396.466 254.175 396.329 254.501 396.054C254.828 395.779 254.991 395.405 254.991 394.932C254.991 394.368 254.828 393.926 254.501 393.604C254.175 393.277 253.723 393.114 253.145 393.114H249.594V396.466ZM249.594 391.665H252.463C252.913 391.665 253.299 391.603 253.621 391.48C253.943 391.352 254.189 391.172 254.359 390.94C254.535 390.704 254.622 390.424 254.622 390.102C254.622 389.643 254.43 389.283 254.047 389.023C253.663 388.758 253.135 388.625 252.463 388.625H249.594V391.665ZM260.682 391.04H263.807C265.086 391.04 266.063 391.364 266.74 392.013C267.417 392.661 267.756 393.483 267.756 394.477C267.756 395.131 267.605 395.725 267.301 396.26C266.998 396.79 266.553 397.214 265.966 397.531C265.379 397.844 264.659 398 263.807 398H259.233V387.091H260.909V396.438H263.807C264.47 396.438 265.015 396.262 265.441 395.912C265.867 395.562 266.08 395.112 266.08 394.562C266.08 393.985 265.867 393.514 265.441 393.149C265.015 392.785 264.47 392.602 263.807 392.602H260.682V391.04ZM269.489 398V387.091H271.165V398H269.489ZM275.909 395.528L281.165 387.091H283.097V398H281.421V389.562L276.194 398H274.233V387.091H275.909V395.528ZM280.057 383.455H281.62C281.62 384.222 281.355 384.849 280.824 385.337C280.294 385.824 279.574 386.068 278.665 386.068C277.77 386.068 277.058 385.824 276.527 385.337C276.002 384.849 275.739 384.222 275.739 383.455H277.301C277.301 383.824 277.403 384.148 277.607 384.428C277.815 384.707 278.168 384.847 278.665 384.847C279.162 384.847 279.517 384.707 279.73 384.428C279.948 384.148 280.057 383.824 280.057 383.455ZM291.792 398V387.091H300.371V398H298.695V388.653H293.468V398H291.792ZM304.121 402.091C303.837 402.091 303.584 402.067 303.362 402.02C303.139 401.977 302.985 401.935 302.9 401.892L303.326 400.415C303.733 400.519 304.093 400.557 304.406 400.528C304.718 400.5 304.995 400.36 305.237 400.109C305.483 399.863 305.708 399.463 305.911 398.909L306.224 398.057L302.19 387.091H304.008L307.019 395.784H307.133L310.144 387.091H311.962L307.332 399.591C307.123 400.154 306.865 400.621 306.558 400.99C306.25 401.364 305.892 401.641 305.485 401.821C305.083 402.001 304.628 402.091 304.121 402.091ZM321.476 391.778V393.341H315.453V391.778H321.476ZM315.851 387.091V398H314.175V387.091H315.851ZM322.754 387.091V398H321.078V387.091H322.754ZM325.815 398V387.091H327.491V391.835H328.599L332.52 387.091H334.679L330.276 392.347L334.736 398H332.577L328.997 393.398H327.491V398H325.815ZM335.933 388.653V387.091H344.796V388.653H341.217V398H339.54V388.653H335.933Z" fill="#0A2832"/>
<rect x="186" y="430.5" width="9" height="9" fill="#058C50"/>
<path d="M212.534 442V431.091H216.994C218.169 431.091 219.101 431.356 219.793 431.886C220.484 432.417 220.83 433.117 220.83 433.989C220.83 434.652 220.633 435.165 220.24 435.53C219.847 435.89 219.343 436.134 218.727 436.261C219.13 436.318 219.52 436.46 219.899 436.688C220.283 436.915 220.6 437.227 220.851 437.625C221.102 438.018 221.227 438.501 221.227 439.074C221.227 439.633 221.085 440.132 220.801 440.572C220.517 441.013 220.11 441.361 219.58 441.616C219.049 441.872 218.415 442 217.676 442H212.534ZM214.125 440.466H217.676C218.254 440.466 218.706 440.329 219.033 440.054C219.359 439.779 219.523 439.405 219.523 438.932C219.523 438.368 219.359 437.926 219.033 437.604C218.706 437.277 218.254 437.114 217.676 437.114H214.125V440.466ZM214.125 435.665H216.994C217.444 435.665 217.83 435.603 218.152 435.48C218.474 435.352 218.72 435.172 218.891 434.94C219.066 434.704 219.153 434.424 219.153 434.102C219.153 433.643 218.962 433.283 218.578 433.023C218.195 432.758 217.667 432.625 216.994 432.625H214.125V435.665ZM223.14 432.653V431.091H232.003V432.653H228.424V442H226.748V432.653H223.14ZM238.314 442.227C237.329 442.227 236.465 441.993 235.721 441.524C234.983 441.055 234.405 440.4 233.988 439.557C233.576 438.714 233.37 437.729 233.37 436.602C233.37 435.466 233.576 434.474 233.988 433.626C234.405 432.779 234.983 432.121 235.721 431.652C236.465 431.183 237.329 430.949 238.314 430.949C239.298 430.949 240.16 431.183 240.899 431.652C241.642 432.121 242.22 432.779 242.632 433.626C243.048 434.474 243.257 435.466 243.257 436.602C243.257 437.729 243.048 438.714 242.632 439.557C242.22 440.4 241.642 441.055 240.899 441.524C240.16 441.993 239.298 442.227 238.314 442.227ZM238.314 440.722C239.062 440.722 239.677 440.53 240.16 440.146C240.643 439.763 241.001 439.259 241.233 438.634C241.465 438.009 241.581 437.331 241.581 436.602C241.581 435.873 241.465 435.194 241.233 434.564C241.001 433.934 240.643 433.425 240.16 433.037C239.677 432.649 239.062 432.455 238.314 432.455C237.565 432.455 236.95 432.649 236.467 433.037C235.984 433.425 235.627 433.934 235.395 434.564C235.163 435.194 235.047 435.873 235.047 436.602C235.047 437.331 235.163 438.009 235.395 438.634C235.627 439.259 235.984 439.763 236.467 440.146C236.95 440.53 237.565 440.722 238.314 440.722ZM245.815 446.091V431.091H247.435V432.824H247.634C247.757 432.634 247.927 432.393 248.145 432.099C248.367 431.801 248.685 431.536 249.097 431.304C249.513 431.067 250.077 430.949 250.787 430.949C251.705 430.949 252.515 431.179 253.216 431.638C253.917 432.097 254.464 432.748 254.857 433.591C255.25 434.434 255.446 435.428 255.446 436.574C255.446 437.729 255.25 438.731 254.857 439.578C254.464 440.421 253.919 441.074 253.223 441.538C252.527 441.998 251.724 442.227 250.815 442.227C250.115 442.227 249.554 442.111 249.132 441.879C248.711 441.643 248.386 441.375 248.159 441.077C247.932 440.774 247.757 440.523 247.634 440.324H247.491V446.091H245.815ZM247.463 436.545C247.463 437.369 247.584 438.096 247.825 438.726C248.067 439.351 248.42 439.841 248.884 440.196C249.348 440.546 249.916 440.722 250.588 440.722C251.289 440.722 251.874 440.537 252.342 440.168C252.816 439.794 253.171 439.292 253.408 438.662C253.649 438.027 253.77 437.322 253.77 436.545C253.77 435.778 253.652 435.087 253.415 434.472C253.183 433.851 252.83 433.361 252.357 433.001C251.888 432.637 251.298 432.455 250.588 432.455C249.906 432.455 249.333 432.627 248.869 432.973C248.405 433.314 248.055 433.792 247.818 434.408C247.581 435.018 247.463 435.731 247.463 436.545ZM262.435 442.227C261.45 442.227 260.586 441.993 259.842 441.524C259.104 441.055 258.526 440.4 258.109 439.557C257.697 438.714 257.491 437.729 257.491 436.602C257.491 435.466 257.697 434.474 258.109 433.626C258.526 432.779 259.104 432.121 259.842 431.652C260.586 431.183 261.45 430.949 262.435 430.949C263.42 430.949 264.281 431.183 265.02 431.652C265.763 432.121 266.341 432.779 266.753 433.626C267.17 434.474 267.378 435.466 267.378 436.602C267.378 437.729 267.17 438.714 266.753 439.557C266.341 440.4 265.763 441.055 265.02 441.524C264.281 441.993 263.42 442.227 262.435 442.227ZM262.435 440.722C263.183 440.722 263.798 440.53 264.281 440.146C264.764 439.763 265.122 439.259 265.354 438.634C265.586 438.009 265.702 437.331 265.702 436.602C265.702 435.873 265.586 435.194 265.354 434.564C265.122 433.934 264.764 433.425 264.281 433.037C263.798 432.649 263.183 432.455 262.435 432.455C261.687 432.455 261.071 432.649 260.588 433.037C260.105 433.425 259.748 433.934 259.516 434.564C259.284 435.194 259.168 435.873 259.168 436.602C259.168 437.331 259.284 438.009 259.516 438.634C259.748 439.259 260.105 439.763 260.588 440.146C261.071 440.53 261.687 440.722 262.435 440.722ZM271.613 439.528L276.868 431.091H278.8V442H277.124V433.562L271.897 442H269.936V431.091H271.613V439.528ZM275.76 427.455H277.323C277.323 428.222 277.058 428.849 276.527 429.337C275.997 429.824 275.277 430.068 274.368 430.068C273.473 430.068 272.761 429.824 272.23 429.337C271.705 428.849 271.442 428.222 271.442 427.455H273.005C273.005 427.824 273.106 428.148 273.31 428.428C273.518 428.707 273.871 428.847 274.368 428.847C274.865 428.847 275.221 428.707 275.434 428.428C275.651 428.148 275.76 427.824 275.76 427.455ZM287.495 442V431.091H296.075V442H294.398V432.653H289.171V442H287.495ZM299.825 446.091C299.54 446.091 299.287 446.067 299.065 446.02C298.842 445.977 298.688 445.935 298.603 445.892L299.029 444.415C299.436 444.519 299.796 444.557 300.109 444.528C300.421 444.5 300.698 444.36 300.94 444.109C301.186 443.863 301.411 443.463 301.614 442.909L301.927 442.057L297.893 431.091H299.711L302.722 439.784H302.836L305.847 431.091H307.665L303.035 443.591C302.826 444.154 302.568 444.621 302.261 444.99C301.953 445.364 301.595 445.641 301.188 445.821C300.786 446.001 300.331 446.091 299.825 446.091ZM317.179 435.778V437.341H311.156V435.778H317.179ZM311.554 431.091V442H309.878V431.091H311.554ZM318.457 431.091V442H316.781V431.091H318.457ZM321.518 442V431.091H323.195V435.835H324.303L328.223 431.091H330.382L325.979 436.347L330.439 442H328.28L324.7 437.398H323.195V442H321.518ZM331.636 432.653V431.091H340.499V432.653H336.92V442H335.244V432.653H331.636Z" fill="#0A2832"/>
<rect x="186" y="474.5" width="9" height="9" fill="#058C50"/>
<path d="M211.909 476.653V475.091H220.773V476.653H217.193V486H215.517V476.653H211.909ZM223.218 490.091V475.091H224.837V476.824H225.036C225.159 476.634 225.329 476.393 225.547 476.099C225.77 475.801 226.087 475.536 226.499 475.304C226.916 475.067 227.479 474.949 228.189 474.949C229.108 474.949 229.917 475.179 230.618 475.638C231.319 476.097 231.866 476.748 232.259 477.591C232.652 478.434 232.848 479.428 232.848 480.574C232.848 481.729 232.652 482.731 232.259 483.578C231.866 484.421 231.321 485.074 230.625 485.538C229.929 485.998 229.127 486.227 228.218 486.227C227.517 486.227 226.956 486.111 226.534 485.879C226.113 485.643 225.789 485.375 225.561 485.077C225.334 484.774 225.159 484.523 225.036 484.324H224.894V490.091H223.218ZM224.865 480.545C224.865 481.369 224.986 482.096 225.228 482.726C225.469 483.351 225.822 483.841 226.286 484.196C226.75 484.546 227.318 484.722 227.99 484.722C228.691 484.722 229.276 484.537 229.745 484.168C230.218 483.794 230.573 483.292 230.81 482.662C231.051 482.027 231.172 481.322 231.172 480.545C231.172 479.778 231.054 479.087 230.817 478.472C230.585 477.851 230.232 477.361 229.759 477.001C229.29 476.637 228.701 476.455 227.99 476.455C227.309 476.455 226.736 476.627 226.272 476.973C225.808 477.314 225.457 477.792 225.221 478.408C224.984 479.018 224.865 479.731 224.865 480.545ZM239.979 486.227C238.928 486.227 238.021 485.995 237.259 485.531C236.501 485.062 235.917 484.409 235.505 483.571C235.097 482.728 234.894 481.748 234.894 480.631C234.894 479.513 235.097 478.528 235.505 477.676C235.917 476.819 236.489 476.152 237.223 475.673C237.962 475.19 238.824 474.949 239.809 474.949C240.377 474.949 240.938 475.044 241.492 475.233C242.046 475.422 242.55 475.73 243.005 476.156C243.459 476.578 243.821 477.136 244.091 477.832C244.361 478.528 244.496 479.385 244.496 480.403V481.114H236.087V479.665H242.792C242.792 479.049 242.668 478.5 242.422 478.017C242.181 477.534 241.835 477.153 241.385 476.874C240.94 476.594 240.415 476.455 239.809 476.455C239.141 476.455 238.563 476.62 238.076 476.952C237.593 477.278 237.221 477.705 236.961 478.23C236.7 478.756 236.57 479.319 236.57 479.92V480.886C236.57 481.71 236.712 482.409 236.996 482.982C237.285 483.55 237.685 483.983 238.196 484.281C238.708 484.575 239.302 484.722 239.979 484.722C240.419 484.722 240.817 484.66 241.172 484.537C241.532 484.409 241.842 484.22 242.103 483.969C242.363 483.713 242.564 483.396 242.706 483.017L244.326 483.472C244.155 484.021 243.869 484.504 243.466 484.92C243.064 485.332 242.567 485.654 241.975 485.886C241.383 486.114 240.718 486.227 239.979 486.227ZM246.03 476.653V475.091H254.894V476.653H251.314V486H249.638V476.653H246.03ZM259.015 483.528L264.271 475.091H266.202V486H264.526V477.562L259.299 486H257.339V475.091H259.015V483.528ZM270.949 483.528L276.204 475.091H278.136V486H276.46V477.562L271.233 486H269.272V475.091H270.949V483.528ZM275.096 471.455H276.659C276.659 472.222 276.394 472.849 275.863 473.337C275.333 473.824 274.613 474.068 273.704 474.068C272.809 474.068 272.097 473.824 271.566 473.337C271.041 472.849 270.778 472.222 270.778 471.455H272.341C272.341 471.824 272.442 472.148 272.646 472.428C272.854 472.707 273.207 472.847 273.704 472.847C274.201 472.847 274.556 472.707 274.77 472.428C274.987 472.148 275.096 471.824 275.096 471.455ZM286.831 486V475.091H295.411V486H293.734V476.653H288.507V486H286.831ZM299.161 490.091C298.876 490.091 298.623 490.067 298.401 490.02C298.178 489.977 298.024 489.935 297.939 489.892L298.365 488.415C298.772 488.519 299.132 488.557 299.445 488.528C299.757 488.5 300.034 488.36 300.276 488.109C300.522 487.863 300.747 487.463 300.95 486.909L301.263 486.057L297.229 475.091H299.047L302.058 483.784H302.172L305.183 475.091H307.001L302.371 487.591C302.162 488.154 301.904 488.621 301.597 488.99C301.289 489.364 300.931 489.641 300.524 489.821C300.122 490.001 299.667 490.091 299.161 490.091ZM316.515 479.778V481.341H310.492V479.778H316.515ZM310.89 475.091V486H309.214V475.091H310.89ZM317.793 475.091V486H316.117V475.091H317.793ZM320.854 486V475.091H322.531V479.835H323.638L327.559 475.091H329.718L325.315 480.347L329.775 486H327.616L324.036 481.398H322.531V486H320.854ZM330.972 476.653V475.091H339.835V476.653H336.256V486H334.58V476.653H330.972Z" fill="#0A2832"/>
<path d="M156.761 96.4545H158.864L163.807 108.528H163.977L168.92 96.4545H171.023V111H169.375V99.9489H169.233L164.688 111H163.097L158.551 99.9489H158.409V111H156.761V96.4545ZM177.537 111.256C176.846 111.256 176.219 111.125 175.655 110.865C175.092 110.6 174.644 110.219 174.313 109.722C173.981 109.22 173.816 108.614 173.816 107.903C173.816 107.278 173.939 106.772 174.185 106.384C174.431 105.991 174.76 105.683 175.172 105.46C175.584 105.238 176.039 105.072 176.536 104.963C177.038 104.849 177.542 104.759 178.049 104.693C178.712 104.608 179.249 104.544 179.661 104.501C180.078 104.454 180.381 104.376 180.57 104.267C180.764 104.158 180.861 103.969 180.861 103.699V103.642C180.861 102.941 180.669 102.397 180.286 102.009C179.907 101.62 179.332 101.426 178.56 101.426C177.76 101.426 177.132 101.601 176.678 101.952C176.223 102.302 175.904 102.676 175.719 103.074L174.128 102.506C174.412 101.843 174.791 101.327 175.265 100.957C175.743 100.583 176.264 100.323 176.827 100.176C177.395 100.025 177.954 99.9489 178.503 99.9489C178.854 99.9489 179.256 99.9915 179.711 100.077C180.17 100.157 180.613 100.325 181.039 100.581C181.47 100.837 181.827 101.223 182.111 101.739C182.395 102.255 182.537 102.946 182.537 103.812V111H180.861V109.523H180.776C180.662 109.759 180.473 110.013 180.208 110.283C179.943 110.553 179.59 110.782 179.15 110.972C178.709 111.161 178.172 111.256 177.537 111.256ZM177.793 109.75C178.456 109.75 179.015 109.62 179.469 109.359C179.928 109.099 180.274 108.763 180.506 108.351C180.743 107.939 180.861 107.506 180.861 107.051V105.517C180.79 105.602 180.634 105.68 180.392 105.751C180.156 105.818 179.881 105.877 179.569 105.929C179.261 105.976 178.96 106.019 178.667 106.057C178.378 106.09 178.143 106.118 177.963 106.142C177.528 106.199 177.121 106.291 176.742 106.419C176.368 106.542 176.065 106.729 175.833 106.98C175.605 107.226 175.492 107.562 175.492 107.989C175.492 108.571 175.707 109.011 176.138 109.31C176.574 109.603 177.125 109.75 177.793 109.75ZM185.597 115.091V100.091H187.216V101.824H187.415C187.538 101.634 187.708 101.393 187.926 101.099C188.149 100.801 188.466 100.536 188.878 100.304C189.295 100.067 189.858 99.9489 190.568 99.9489C191.487 99.9489 192.296 100.179 192.997 100.638C193.698 101.097 194.245 101.748 194.638 102.591C195.031 103.434 195.227 104.428 195.227 105.574C195.227 106.729 195.031 107.731 194.638 108.578C194.245 109.421 193.7 110.074 193.004 110.538C192.308 110.998 191.506 111.227 190.597 111.227C189.896 111.227 189.335 111.111 188.913 110.879C188.492 110.643 188.168 110.375 187.94 110.077C187.713 109.774 187.538 109.523 187.415 109.324H187.273V115.091H185.597ZM187.244 105.545C187.244 106.369 187.365 107.096 187.607 107.726C187.848 108.351 188.201 108.841 188.665 109.196C189.129 109.546 189.697 109.722 190.369 109.722C191.07 109.722 191.655 109.537 192.124 109.168C192.597 108.794 192.952 108.292 193.189 107.662C193.43 107.027 193.551 106.322 193.551 105.545C193.551 104.778 193.433 104.087 193.196 103.472C192.964 102.851 192.611 102.361 192.138 102.001C191.669 101.637 191.08 101.455 190.369 101.455C189.688 101.455 189.115 101.627 188.651 101.973C188.187 102.314 187.836 102.792 187.599 103.408C187.363 104.018 187.244 104.731 187.244 105.545ZM197.784 111V100.091H199.46V104.835H200.568L204.489 100.091H206.648L202.244 105.347L206.705 111H204.545L200.966 106.398H199.46V111H197.784ZM210.202 108.528L215.458 100.091H217.39V111H215.714V102.562L210.487 111H208.526V100.091H210.202V108.528ZM220.46 115.091V100.091H222.079V101.824H222.278C222.401 101.634 222.572 101.393 222.789 101.099C223.012 100.801 223.329 100.536 223.741 100.304C224.158 100.067 224.721 99.9489 225.431 99.9489C226.35 99.9489 227.16 100.179 227.86 100.638C228.561 101.097 229.108 101.748 229.501 102.591C229.894 103.434 230.091 104.428 230.091 105.574C230.091 106.729 229.894 107.731 229.501 108.578C229.108 109.421 228.564 110.074 227.868 110.538C227.172 110.998 226.369 111.227 225.46 111.227C224.759 111.227 224.198 111.111 223.777 110.879C223.355 110.643 223.031 110.375 222.804 110.077C222.576 109.774 222.401 109.523 222.278 109.324H222.136V115.091H220.46ZM222.108 105.545C222.108 106.369 222.228 107.096 222.47 107.726C222.711 108.351 223.064 108.841 223.528 109.196C223.992 109.546 224.56 109.722 225.233 109.722C225.933 109.722 226.518 109.537 226.987 109.168C227.46 108.794 227.815 108.292 228.052 107.662C228.294 107.027 228.414 106.322 228.414 105.545C228.414 104.778 228.296 104.087 228.059 103.472C227.827 102.851 227.475 102.361 227.001 102.001C226.532 101.637 225.943 101.455 225.233 101.455C224.551 101.455 223.978 101.627 223.514 101.973C223.05 102.314 222.699 102.792 222.463 103.408C222.226 104.018 222.108 104.731 222.108 105.545ZM237.079 111.227C236.094 111.227 235.23 110.993 234.487 110.524C233.748 110.055 233.171 109.4 232.754 108.557C232.342 107.714 232.136 106.729 232.136 105.602C232.136 104.466 232.342 103.474 232.754 102.626C233.171 101.779 233.748 101.121 234.487 100.652C235.23 100.183 236.094 99.9489 237.079 99.9489C238.064 99.9489 238.926 100.183 239.664 100.652C240.408 101.121 240.985 101.779 241.397 102.626C241.814 103.474 242.022 104.466 242.022 105.602C242.022 106.729 241.814 107.714 241.397 108.557C240.985 109.4 240.408 110.055 239.664 110.524C238.926 110.993 238.064 111.227 237.079 111.227ZM237.079 109.722C237.827 109.722 238.443 109.53 238.926 109.146C239.409 108.763 239.766 108.259 239.998 107.634C240.23 107.009 240.346 106.331 240.346 105.602C240.346 104.873 240.23 104.194 239.998 103.564C239.766 102.934 239.409 102.425 238.926 102.037C238.443 101.649 237.827 101.455 237.079 101.455C236.331 101.455 235.716 101.649 235.233 102.037C234.75 102.425 234.392 102.934 234.16 103.564C233.928 104.194 233.812 104.873 233.812 105.602C233.812 106.331 233.928 107.009 234.16 107.634C234.392 108.259 234.75 108.763 235.233 109.146C235.716 109.53 236.331 109.722 237.079 109.722ZM244.581 111V100.091H249.041C250.215 100.091 251.148 100.356 251.839 100.886C252.531 101.417 252.876 102.117 252.876 102.989C252.876 103.652 252.68 104.165 252.287 104.53C251.894 104.89 251.39 105.134 250.774 105.261C251.177 105.318 251.567 105.46 251.946 105.688C252.33 105.915 252.647 106.227 252.898 106.625C253.149 107.018 253.274 107.501 253.274 108.074C253.274 108.633 253.132 109.132 252.848 109.572C252.564 110.013 252.157 110.361 251.626 110.616C251.096 110.872 250.462 111 249.723 111H244.581ZM246.172 109.466H249.723C250.301 109.466 250.753 109.329 251.08 109.054C251.406 108.779 251.57 108.405 251.57 107.932C251.57 107.368 251.406 106.926 251.08 106.604C250.753 106.277 250.301 106.114 249.723 106.114H246.172V109.466ZM246.172 104.665H249.041C249.491 104.665 249.877 104.603 250.199 104.48C250.521 104.352 250.767 104.172 250.938 103.94C251.113 103.704 251.2 103.424 251.2 103.102C251.2 102.643 251.009 102.283 250.625 102.023C250.241 101.758 249.714 101.625 249.041 101.625H246.172V104.665ZM259.022 111.256C258.33 111.256 257.703 111.125 257.14 110.865C256.576 110.6 256.129 110.219 255.797 109.722C255.466 109.22 255.3 108.614 255.3 107.903C255.3 107.278 255.423 106.772 255.669 106.384C255.916 105.991 256.245 105.683 256.657 105.46C257.069 105.238 257.523 105.072 258.02 104.963C258.522 104.849 259.026 104.759 259.533 104.693C260.196 104.608 260.733 104.544 261.145 104.501C261.562 104.454 261.865 104.376 262.054 104.267C262.248 104.158 262.346 103.969 262.346 103.699V103.642C262.346 102.941 262.154 102.397 261.77 102.009C261.391 101.62 260.816 101.426 260.044 101.426C259.244 101.426 258.617 101.601 258.162 101.952C257.708 102.302 257.388 102.676 257.203 103.074L255.613 102.506C255.897 101.843 256.275 101.327 256.749 100.957C257.227 100.583 257.748 100.323 258.311 100.176C258.88 100.025 259.438 99.9489 259.988 99.9489C260.338 99.9489 260.74 99.9915 261.195 100.077C261.654 100.157 262.097 100.325 262.523 100.581C262.954 100.837 263.311 101.223 263.596 101.739C263.88 102.255 264.022 102.946 264.022 103.812V111H262.346V109.523H262.26C262.147 109.759 261.957 110.013 261.692 110.283C261.427 110.553 261.074 110.782 260.634 110.972C260.194 111.161 259.656 111.256 259.022 111.256ZM259.277 109.75C259.94 109.75 260.499 109.62 260.953 109.359C261.413 109.099 261.758 108.763 261.99 108.351C262.227 107.939 262.346 107.506 262.346 107.051V105.517C262.275 105.602 262.118 105.68 261.877 105.751C261.64 105.818 261.365 105.877 261.053 105.929C260.745 105.976 260.444 106.019 260.151 106.057C259.862 106.09 259.628 106.118 259.448 106.142C259.012 106.199 258.605 106.291 258.226 106.419C257.852 106.542 257.549 106.729 257.317 106.98C257.09 107.226 256.976 107.562 256.976 107.989C256.976 108.571 257.192 109.011 257.623 109.31C258.058 109.603 258.61 109.75 259.277 109.75ZM274.382 104.778V106.341H268.359V104.778H274.382ZM268.757 100.091V111H267.081V100.091H268.757ZM275.661 100.091V111H273.984V100.091H275.661ZM286.023 104.778V106.341H280V104.778H286.023ZM280.398 100.091V111H278.722V100.091H280.398ZM287.301 100.091V111H285.625V100.091H287.301ZM291.811 104.04H294.936C296.214 104.04 297.192 104.364 297.869 105.013C298.546 105.661 298.885 106.483 298.885 107.477C298.885 108.131 298.733 108.725 298.43 109.26C298.127 109.79 297.682 110.214 297.095 110.531C296.508 110.844 295.788 111 294.936 111H290.362V100.091H292.038V109.438H294.936C295.599 109.438 296.143 109.262 296.57 108.912C296.996 108.562 297.209 108.112 297.209 107.562C297.209 106.985 296.996 106.514 296.57 106.149C296.143 105.785 295.599 105.602 294.936 105.602H291.811V104.04ZM300.618 111V100.091H302.294V111H300.618ZM307.038 108.528L312.294 100.091H314.226V111H312.55V102.562L307.322 111H305.362V100.091H307.038V108.528ZM311.186 96.4545H312.749C312.749 97.2216 312.483 97.849 311.953 98.3366C311.423 98.8243 310.703 99.0682 309.794 99.0682C308.899 99.0682 308.187 98.8243 307.656 98.3366C307.131 97.849 306.868 97.2216 306.868 96.4545H308.43C308.43 96.8239 308.532 97.1482 308.736 97.4276C308.944 97.7069 309.297 97.8466 309.794 97.8466C310.291 97.8466 310.646 97.7069 310.859 97.4276C311.077 97.1482 311.186 96.8239 311.186 96.4545ZM327.353 111.227C326.33 111.227 325.449 110.986 324.711 110.503C323.972 110.02 323.404 109.355 323.006 108.507C322.608 107.66 322.409 106.691 322.409 105.602C322.409 104.494 322.613 103.517 323.02 102.669C323.432 101.817 324.005 101.152 324.739 100.673C325.478 100.19 326.339 99.9489 327.324 99.9489C328.091 99.9489 328.783 100.091 329.398 100.375C330.014 100.659 330.518 101.057 330.911 101.568C331.304 102.08 331.548 102.676 331.642 103.358H329.966C329.838 102.861 329.554 102.42 329.114 102.037C328.678 101.649 328.091 101.455 327.353 101.455C326.699 101.455 326.126 101.625 325.634 101.966C325.146 102.302 324.765 102.778 324.49 103.393C324.221 104.004 324.086 104.722 324.086 105.545C324.086 106.388 324.218 107.122 324.483 107.747C324.753 108.372 325.132 108.857 325.62 109.203C326.112 109.549 326.69 109.722 327.353 109.722C327.788 109.722 328.184 109.646 328.539 109.494C328.894 109.343 329.194 109.125 329.441 108.841C329.687 108.557 329.862 108.216 329.966 107.818H331.642C331.548 108.462 331.313 109.042 330.939 109.558C330.57 110.07 330.08 110.477 329.469 110.78C328.863 111.078 328.158 111.227 327.353 111.227ZM334.093 111V100.091H342.672V111H340.996V101.653H335.769V111H334.093ZM347.409 108.528L352.665 100.091H354.597V111H352.921V102.562L347.694 111H345.733V100.091H347.409V108.528ZM362.099 111.227C361.076 111.227 360.195 110.986 359.457 110.503C358.718 110.02 358.15 109.355 357.752 108.507C357.354 107.66 357.156 106.691 357.156 105.602C357.156 104.494 357.359 103.517 357.766 102.669C358.178 101.817 358.751 101.152 359.485 100.673C360.224 100.19 361.085 99.9489 362.07 99.9489C362.837 99.9489 363.529 100.091 364.144 100.375C364.76 100.659 365.264 101.057 365.657 101.568C366.05 102.08 366.294 102.676 366.388 103.358H364.712C364.585 102.861 364.3 102.42 363.86 102.037C363.424 101.649 362.837 101.455 362.099 101.455C361.445 101.455 360.872 101.625 360.38 101.966C359.892 102.302 359.511 102.778 359.237 103.393C358.967 104.004 358.832 104.722 358.832 105.545C358.832 106.388 358.964 107.122 359.229 107.747C359.499 108.372 359.878 108.857 360.366 109.203C360.858 109.549 361.436 109.722 362.099 109.722C362.534 109.722 362.93 109.646 363.285 109.494C363.64 109.343 363.941 109.125 364.187 108.841C364.433 108.557 364.608 108.216 364.712 107.818H366.388C366.294 108.462 366.059 109.042 365.685 109.558C365.316 110.07 364.826 110.477 364.215 110.78C363.609 111.078 362.904 111.227 362.099 111.227ZM373.271 111.227C372.286 111.227 371.422 110.993 370.678 110.524C369.94 110.055 369.362 109.4 368.945 108.557C368.533 107.714 368.327 106.729 368.327 105.602C368.327 104.466 368.533 103.474 368.945 102.626C369.362 101.779 369.94 101.121 370.678 100.652C371.422 100.183 372.286 99.9489 373.271 99.9489C374.255 99.9489 375.117 100.183 375.856 100.652C376.599 101.121 377.177 101.779 377.589 102.626C378.005 103.474 378.214 104.466 378.214 105.602C378.214 106.729 378.005 107.714 377.589 108.557C377.177 109.4 376.599 110.055 375.856 110.524C375.117 110.993 374.255 111.227 373.271 111.227ZM373.271 109.722C374.019 109.722 374.634 109.53 375.117 109.146C375.6 108.763 375.958 108.259 376.19 107.634C376.422 107.009 376.538 106.331 376.538 105.602C376.538 104.873 376.422 104.194 376.19 103.564C375.958 102.934 375.6 102.425 375.117 102.037C374.634 101.649 374.019 101.455 373.271 101.455C372.522 101.455 371.907 101.649 371.424 102.037C370.941 102.425 370.584 102.934 370.352 103.564C370.12 104.194 370.004 104.873 370.004 105.602C370.004 106.331 370.12 107.009 370.352 107.634C370.584 108.259 370.941 108.763 371.424 109.146C371.907 109.53 372.522 109.722 373.271 109.722ZM380.772 111V100.091H382.449V104.835H383.556L387.477 100.091H389.636L385.233 105.347L389.693 111H387.534L383.954 106.398H382.449V111H380.772ZM392.736 111.114C392.386 111.114 392.085 110.988 391.834 110.737C391.583 110.486 391.458 110.186 391.458 109.835C391.458 109.485 391.583 109.184 391.834 108.933C392.085 108.682 392.386 108.557 392.736 108.557C393.087 108.557 393.387 108.682 393.638 108.933C393.889 109.184 394.015 109.485 394.015 109.835C394.015 110.067 393.955 110.28 393.837 110.474C393.723 110.669 393.569 110.825 393.375 110.943C393.186 111.057 392.973 111.114 392.736 111.114ZM392.736 103.017C392.386 103.017 392.085 102.892 391.834 102.641C391.583 102.39 391.458 102.089 391.458 101.739C391.458 101.388 391.583 101.088 391.834 100.837C392.085 100.586 392.386 100.46 392.736 100.46C393.087 100.46 393.387 100.586 393.638 100.837C393.889 101.088 394.015 101.388 394.015 101.739C394.015 101.971 393.955 102.184 393.837 102.378C393.723 102.572 393.569 102.728 393.375 102.847C393.186 102.96 392.973 103.017 392.736 103.017Z" fill="#0A2832"/>
<rect x="187" y="143.5" width="9" height="9" fill="#058C50"/>
<path d="M213.534 155V144.091H222.114V155H220.438V145.653H215.21V155H213.534ZM229.749 155.227C228.697 155.227 227.791 154.995 227.028 154.531C226.271 154.062 225.686 153.409 225.274 152.571C224.867 151.728 224.663 150.748 224.663 149.631C224.663 148.513 224.867 147.528 225.274 146.676C225.686 145.819 226.259 145.152 226.993 144.673C227.732 144.19 228.593 143.949 229.578 143.949C230.146 143.949 230.707 144.044 231.261 144.233C231.815 144.422 232.32 144.73 232.774 145.156C233.229 145.578 233.591 146.136 233.861 146.832C234.131 147.528 234.266 148.385 234.266 149.403V150.114H225.857V148.665H232.561C232.561 148.049 232.438 147.5 232.192 147.017C231.95 146.534 231.605 146.153 231.155 145.874C230.71 145.594 230.184 145.455 229.578 145.455C228.911 145.455 228.333 145.62 227.845 145.952C227.362 146.278 226.991 146.705 226.73 147.23C226.47 147.756 226.339 148.319 226.339 148.92V149.886C226.339 150.71 226.482 151.409 226.766 151.982C227.054 152.55 227.455 152.983 227.966 153.281C228.477 153.575 229.071 153.722 229.749 153.722C230.189 153.722 230.587 153.66 230.942 153.537C231.302 153.409 231.612 153.22 231.872 152.969C232.133 152.713 232.334 152.396 232.476 152.017L234.095 152.472C233.925 153.021 233.638 153.504 233.236 153.92C232.833 154.332 232.336 154.654 231.744 154.886C231.152 155.114 230.487 155.227 229.749 155.227ZM236.815 159.091V144.091H238.435V145.824H238.634C238.757 145.634 238.927 145.393 239.145 145.099C239.367 144.801 239.685 144.536 240.097 144.304C240.513 144.067 241.077 143.949 241.787 143.949C242.705 143.949 243.515 144.179 244.216 144.638C244.917 145.097 245.464 145.748 245.857 146.591C246.25 147.434 246.446 148.428 246.446 149.574C246.446 150.729 246.25 151.731 245.857 152.578C245.464 153.421 244.919 154.074 244.223 154.538C243.527 154.998 242.724 155.227 241.815 155.227C241.115 155.227 240.554 155.111 240.132 154.879C239.711 154.643 239.386 154.375 239.159 154.077C238.932 153.774 238.757 153.523 238.634 153.324H238.491V159.091H236.815ZM238.463 149.545C238.463 150.369 238.584 151.096 238.825 151.726C239.067 152.351 239.42 152.841 239.884 153.196C240.348 153.546 240.916 153.722 241.588 153.722C242.289 153.722 242.874 153.537 243.342 153.168C243.816 152.794 244.171 152.292 244.408 151.662C244.649 151.027 244.77 150.322 244.77 149.545C244.77 148.778 244.652 148.087 244.415 147.472C244.183 146.851 243.83 146.361 243.357 146.001C242.888 145.637 242.298 145.455 241.588 145.455C240.906 145.455 240.333 145.627 239.869 145.973C239.405 146.314 239.055 146.792 238.818 147.408C238.581 148.018 238.463 148.731 238.463 149.545ZM249.003 155V144.091H253.463C254.637 144.091 255.57 144.356 256.261 144.886C256.953 145.417 257.298 146.117 257.298 146.989C257.298 147.652 257.102 148.165 256.709 148.53C256.316 148.89 255.812 149.134 255.196 149.261C255.598 149.318 255.989 149.46 256.368 149.688C256.751 149.915 257.069 150.227 257.32 150.625C257.571 151.018 257.696 151.501 257.696 152.074C257.696 152.633 257.554 153.132 257.27 153.572C256.986 154.013 256.579 154.361 256.048 154.616C255.518 154.872 254.884 155 254.145 155H249.003ZM250.594 153.466H254.145C254.723 153.466 255.175 153.329 255.501 153.054C255.828 152.779 255.991 152.405 255.991 151.932C255.991 151.368 255.828 150.926 255.501 150.604C255.175 150.277 254.723 150.114 254.145 150.114H250.594V153.466ZM250.594 148.665H253.463C253.913 148.665 254.299 148.603 254.621 148.48C254.943 148.352 255.189 148.172 255.359 147.94C255.535 147.704 255.622 147.424 255.622 147.102C255.622 146.643 255.43 146.283 255.047 146.023C254.663 145.758 254.135 145.625 253.463 145.625H250.594V148.665ZM261.682 148.04H264.807C266.086 148.04 267.063 148.364 267.74 149.013C268.417 149.661 268.756 150.483 268.756 151.477C268.756 152.131 268.605 152.725 268.301 153.26C267.998 153.79 267.553 154.214 266.966 154.531C266.379 154.844 265.659 155 264.807 155H260.233V144.091H261.909V153.438H264.807C265.47 153.438 266.015 153.262 266.441 152.912C266.867 152.562 267.08 152.112 267.08 151.562C267.08 150.985 266.867 150.514 266.441 150.149C266.015 149.785 265.47 149.602 264.807 149.602H261.682V148.04ZM270.489 155V144.091H272.165V155H270.489ZM276.909 152.528L282.165 144.091H284.097V155H282.421V146.562L277.194 155H275.233V144.091H276.909V152.528ZM281.057 140.455H282.62C282.62 141.222 282.355 141.849 281.824 142.337C281.294 142.824 280.574 143.068 279.665 143.068C278.77 143.068 278.058 142.824 277.527 142.337C277.002 141.849 276.739 141.222 276.739 140.455H278.301C278.301 140.824 278.403 141.148 278.607 141.428C278.815 141.707 279.168 141.847 279.665 141.847C280.162 141.847 280.517 141.707 280.73 141.428C280.948 141.148 281.057 140.824 281.057 140.455ZM292.792 155V144.091H301.371V155H299.695V145.653H294.468V155H292.792ZM305.121 159.091C304.837 159.091 304.584 159.067 304.362 159.02C304.139 158.977 303.985 158.935 303.9 158.892L304.326 157.415C304.733 157.519 305.093 157.557 305.406 157.528C305.718 157.5 305.995 157.36 306.237 157.109C306.483 156.863 306.708 156.463 306.911 155.909L307.224 155.057L303.19 144.091H305.008L308.019 152.784H308.133L311.144 144.091H312.962L308.332 156.591C308.123 157.154 307.865 157.621 307.558 157.99C307.25 158.364 306.892 158.641 306.485 158.821C306.083 159.001 305.628 159.091 305.121 159.091ZM322.476 148.778V150.341H316.453V148.778H322.476ZM316.851 144.091V155H315.175V144.091H316.851ZM323.754 144.091V155H322.078V144.091H323.754ZM326.815 155V144.091H328.491V148.835H329.599L333.52 144.091H335.679L331.276 149.347L335.736 155H333.577L329.997 150.398H328.491V155H326.815ZM336.933 145.653V144.091H345.796V145.653H342.217V155H340.54V145.653H336.933Z" fill="#0A2832"/>
<rect x="187" y="187.5" width="9" height="9" fill="#058C50"/>
<path d="M213.534 199V188.091H217.994C219.169 188.091 220.101 188.356 220.793 188.886C221.484 189.417 221.83 190.117 221.83 190.989C221.83 191.652 221.633 192.165 221.24 192.53C220.847 192.89 220.343 193.134 219.727 193.261C220.13 193.318 220.52 193.46 220.899 193.688C221.283 193.915 221.6 194.227 221.851 194.625C222.102 195.018 222.227 195.501 222.227 196.074C222.227 196.633 222.085 197.132 221.801 197.572C221.517 198.013 221.11 198.361 220.58 198.616C220.049 198.872 219.415 199 218.676 199H213.534ZM215.125 197.466H218.676C219.254 197.466 219.706 197.329 220.033 197.054C220.359 196.779 220.523 196.405 220.523 195.932C220.523 195.368 220.359 194.926 220.033 194.604C219.706 194.277 219.254 194.114 218.676 194.114H215.125V197.466ZM215.125 192.665H217.994C218.444 192.665 218.83 192.603 219.152 192.48C219.474 192.352 219.72 192.172 219.891 191.94C220.066 191.704 220.153 191.424 220.153 191.102C220.153 190.643 219.962 190.283 219.578 190.023C219.195 189.758 218.667 189.625 217.994 189.625H215.125V192.665ZM224.14 189.653V188.091H233.003V189.653H229.424V199H227.748V189.653H224.14ZM239.314 199.227C238.329 199.227 237.465 198.993 236.721 198.524C235.983 198.055 235.405 197.4 234.988 196.557C234.576 195.714 234.37 194.729 234.37 193.602C234.37 192.466 234.576 191.474 234.988 190.626C235.405 189.779 235.983 189.121 236.721 188.652C237.465 188.183 238.329 187.949 239.314 187.949C240.298 187.949 241.16 188.183 241.899 188.652C242.642 189.121 243.22 189.779 243.632 190.626C244.048 191.474 244.257 192.466 244.257 193.602C244.257 194.729 244.048 195.714 243.632 196.557C243.22 197.4 242.642 198.055 241.899 198.524C241.16 198.993 240.298 199.227 239.314 199.227ZM239.314 197.722C240.062 197.722 240.677 197.53 241.16 197.146C241.643 196.763 242.001 196.259 242.233 195.634C242.465 195.009 242.581 194.331 242.581 193.602C242.581 192.873 242.465 192.194 242.233 191.564C242.001 190.934 241.643 190.425 241.16 190.037C240.677 189.649 240.062 189.455 239.314 189.455C238.565 189.455 237.95 189.649 237.467 190.037C236.984 190.425 236.627 190.934 236.395 191.564C236.163 192.194 236.047 192.873 236.047 193.602C236.047 194.331 236.163 195.009 236.395 195.634C236.627 196.259 236.984 196.763 237.467 197.146C237.95 197.53 238.565 197.722 239.314 197.722ZM246.815 203.091V188.091H248.435V189.824H248.634C248.757 189.634 248.927 189.393 249.145 189.099C249.367 188.801 249.685 188.536 250.097 188.304C250.513 188.067 251.077 187.949 251.787 187.949C252.705 187.949 253.515 188.179 254.216 188.638C254.917 189.097 255.464 189.748 255.857 190.591C256.25 191.434 256.446 192.428 256.446 193.574C256.446 194.729 256.25 195.731 255.857 196.578C255.464 197.421 254.919 198.074 254.223 198.538C253.527 198.998 252.724 199.227 251.815 199.227C251.115 199.227 250.554 199.111 250.132 198.879C249.711 198.643 249.386 198.375 249.159 198.077C248.932 197.774 248.757 197.523 248.634 197.324H248.491V203.091H246.815ZM248.463 193.545C248.463 194.369 248.584 195.096 248.825 195.726C249.067 196.351 249.42 196.841 249.884 197.196C250.348 197.546 250.916 197.722 251.588 197.722C252.289 197.722 252.874 197.537 253.342 197.168C253.816 196.794 254.171 196.292 254.408 195.662C254.649 195.027 254.77 194.322 254.77 193.545C254.77 192.778 254.652 192.087 254.415 191.472C254.183 190.851 253.83 190.361 253.357 190.001C252.888 189.637 252.298 189.455 251.588 189.455C250.906 189.455 250.333 189.627 249.869 189.973C249.405 190.314 249.055 190.792 248.818 191.408C248.581 192.018 248.463 192.731 248.463 193.545ZM263.435 199.227C262.45 199.227 261.586 198.993 260.842 198.524C260.104 198.055 259.526 197.4 259.109 196.557C258.697 195.714 258.491 194.729 258.491 193.602C258.491 192.466 258.697 191.474 259.109 190.626C259.526 189.779 260.104 189.121 260.842 188.652C261.586 188.183 262.45 187.949 263.435 187.949C264.42 187.949 265.281 188.183 266.02 188.652C266.763 189.121 267.341 189.779 267.753 190.626C268.17 191.474 268.378 192.466 268.378 193.602C268.378 194.729 268.17 195.714 267.753 196.557C267.341 197.4 266.763 198.055 266.02 198.524C265.281 198.993 264.42 199.227 263.435 199.227ZM263.435 197.722C264.183 197.722 264.798 197.53 265.281 197.146C265.764 196.763 266.122 196.259 266.354 195.634C266.586 195.009 266.702 194.331 266.702 193.602C266.702 192.873 266.586 192.194 266.354 191.564C266.122 190.934 265.764 190.425 265.281 190.037C264.798 189.649 264.183 189.455 263.435 189.455C262.687 189.455 262.071 189.649 261.588 190.037C261.105 190.425 260.748 190.934 260.516 191.564C260.284 192.194 260.168 192.873 260.168 193.602C260.168 194.331 260.284 195.009 260.516 195.634C260.748 196.259 261.105 196.763 261.588 197.146C262.071 197.53 262.687 197.722 263.435 197.722ZM272.613 196.528L277.868 188.091H279.8V199H278.124V190.562L272.897 199H270.936V188.091H272.613V196.528ZM276.76 184.455H278.323C278.323 185.222 278.058 185.849 277.527 186.337C276.997 186.824 276.277 187.068 275.368 187.068C274.473 187.068 273.761 186.824 273.23 186.337C272.705 185.849 272.442 185.222 272.442 184.455H274.005C274.005 184.824 274.106 185.148 274.31 185.428C274.518 185.707 274.871 185.847 275.368 185.847C275.865 185.847 276.221 185.707 276.434 185.428C276.651 185.148 276.76 184.824 276.76 184.455ZM288.495 199V188.091H297.075V199H295.398V189.653H290.171V199H288.495ZM300.825 203.091C300.54 203.091 300.287 203.067 300.065 203.02C299.842 202.977 299.688 202.935 299.603 202.892L300.029 201.415C300.436 201.519 300.796 201.557 301.109 201.528C301.421 201.5 301.698 201.36 301.94 201.109C302.186 200.863 302.411 200.463 302.614 199.909L302.927 199.057L298.893 188.091H300.711L303.722 196.784H303.836L306.847 188.091H308.665L304.035 200.591C303.826 201.154 303.568 201.621 303.261 201.99C302.953 202.364 302.595 202.641 302.188 202.821C301.786 203.001 301.331 203.091 300.825 203.091ZM318.179 192.778V194.341H312.156V192.778H318.179ZM312.554 188.091V199H310.878V188.091H312.554ZM319.457 188.091V199H317.781V188.091H319.457ZM322.518 199V188.091H324.195V192.835H325.303L329.223 188.091H331.382L326.979 193.347L331.439 199H329.28L325.7 194.398H324.195V199H322.518ZM332.636 189.653V188.091H341.499V189.653H337.92V199H336.244V189.653H332.636Z" fill="#0A2832"/>
<rect x="187" y="231.5" width="9" height="9" fill="#058C50"/>
<path d="M212.909 233.653V232.091H221.773V233.653H218.193V243H216.517V233.653H212.909ZM224.218 247.091V232.091H225.837V233.824H226.036C226.159 233.634 226.329 233.393 226.547 233.099C226.77 232.801 227.087 232.536 227.499 232.304C227.916 232.067 228.479 231.949 229.189 231.949C230.108 231.949 230.917 232.179 231.618 232.638C232.319 233.097 232.866 233.748 233.259 234.591C233.652 235.434 233.848 236.428 233.848 237.574C233.848 238.729 233.652 239.731 233.259 240.578C232.866 241.421 232.321 242.074 231.625 242.538C230.929 242.998 230.127 243.227 229.218 243.227C228.517 243.227 227.956 243.111 227.534 242.879C227.113 242.643 226.789 242.375 226.561 242.077C226.334 241.774 226.159 241.523 226.036 241.324H225.894V247.091H224.218ZM225.865 237.545C225.865 238.369 225.986 239.096 226.228 239.726C226.469 240.351 226.822 240.841 227.286 241.196C227.75 241.546 228.318 241.722 228.99 241.722C229.691 241.722 230.276 241.537 230.745 241.168C231.218 240.794 231.573 240.292 231.81 239.662C232.051 239.027 232.172 238.322 232.172 237.545C232.172 236.778 232.054 236.087 231.817 235.472C231.585 234.851 231.232 234.361 230.759 234.001C230.29 233.637 229.701 233.455 228.99 233.455C228.309 233.455 227.736 233.627 227.272 233.973C226.808 234.314 226.457 234.792 226.221 235.408C225.984 236.018 225.865 236.731 225.865 237.545ZM240.979 243.227C239.928 243.227 239.021 242.995 238.259 242.531C237.501 242.062 236.917 241.409 236.505 240.571C236.097 239.728 235.894 238.748 235.894 237.631C235.894 236.513 236.097 235.528 236.505 234.676C236.917 233.819 237.489 233.152 238.223 232.673C238.962 232.19 239.824 231.949 240.809 231.949C241.377 231.949 241.938 232.044 242.492 232.233C243.046 232.422 243.55 232.73 244.005 233.156C244.459 233.578 244.821 234.136 245.091 234.832C245.361 235.528 245.496 236.385 245.496 237.403V238.114H237.087V236.665H243.792C243.792 236.049 243.668 235.5 243.422 235.017C243.181 234.534 242.835 234.153 242.385 233.874C241.94 233.594 241.415 233.455 240.809 233.455C240.141 233.455 239.563 233.62 239.076 233.952C238.593 234.278 238.221 234.705 237.961 235.23C237.7 235.756 237.57 236.319 237.57 236.92V237.886C237.57 238.71 237.712 239.409 237.996 239.982C238.285 240.55 238.685 240.983 239.196 241.281C239.708 241.575 240.302 241.722 240.979 241.722C241.419 241.722 241.817 241.66 242.172 241.537C242.532 241.409 242.842 241.22 243.103 240.969C243.363 240.713 243.564 240.396 243.706 240.017L245.326 240.472C245.155 241.021 244.869 241.504 244.466 241.92C244.064 242.332 243.567 242.654 242.975 242.886C242.383 243.114 241.718 243.227 240.979 243.227ZM247.03 233.653V232.091H255.894V233.653H252.314V243H250.638V233.653H247.03ZM260.015 240.528L265.271 232.091H267.202V243H265.526V234.562L260.299 243H258.339V232.091H260.015V240.528ZM271.949 240.528L277.204 232.091H279.136V243H277.46V234.562L272.233 243H270.272V232.091H271.949V240.528ZM276.096 228.455H277.659C277.659 229.222 277.394 229.849 276.863 230.337C276.333 230.824 275.613 231.068 274.704 231.068C273.809 231.068 273.097 230.824 272.566 230.337C272.041 229.849 271.778 229.222 271.778 228.455H273.341C273.341 228.824 273.442 229.148 273.646 229.428C273.854 229.707 274.207 229.847 274.704 229.847C275.201 229.847 275.556 229.707 275.77 229.428C275.987 229.148 276.096 228.824 276.096 228.455ZM287.831 243V232.091H296.411V243H294.734V233.653H289.507V243H287.831ZM300.161 247.091C299.876 247.091 299.623 247.067 299.401 247.02C299.178 246.977 299.024 246.935 298.939 246.892L299.365 245.415C299.772 245.519 300.132 245.557 300.445 245.528C300.757 245.5 301.034 245.36 301.276 245.109C301.522 244.863 301.747 244.463 301.95 243.909L302.263 243.057L298.229 232.091H300.047L303.058 240.784H303.172L306.183 232.091H308.001L303.371 244.591C303.162 245.154 302.904 245.621 302.597 245.99C302.289 246.364 301.931 246.641 301.524 246.821C301.122 247.001 300.667 247.091 300.161 247.091ZM317.515 236.778V238.341H311.492V236.778H317.515ZM311.89 232.091V243H310.214V232.091H311.89ZM318.793 232.091V243H317.117V232.091H318.793ZM321.854 243V232.091H323.531V236.835H324.638L328.559 232.091H330.718L326.315 237.347L330.775 243H328.616L325.036 238.398H323.531V243H321.854ZM331.972 233.653V232.091H340.835V233.653H337.256V243H335.58V233.653H331.972Z" fill="#0A2832"/>
<path d="M155 90L155 251" stroke="#8ECBB0" stroke-width="1.5"/>
<path d="M186 118V250" stroke="#8ECBB0" stroke-width="1.5"/>
<path d="M197 118V250" stroke="#8ECBB0" stroke-width="1.5"/>
<path d="M212 118V250" stroke="#8ECBB0" stroke-width="1.5"/>
<path d="M396 90L396 250" stroke="#8ECBB0" stroke-width="1.5"/>
<path d="M155 118H395.5" stroke="#8ECBB0" stroke-width="1.5"/>
<path d="M155 162H395.5" stroke="#8ECBB0" stroke-width="1.5"/>
<path d="M155 134H395.5" stroke="#8ECBB0" stroke-width="1.5"/>
<path d="M155 143L212 143" stroke="#8ECBB0" stroke-width="1.5"/>
<path d="M155 153L212 153" stroke="#8ECBB0" stroke-width="1.5"/>
<path d="M155 178H395.5" stroke="#8ECBB0" stroke-width="1.5"/>
<path d="M155 206H395.5" stroke="#8ECBB0" stroke-width="1.5"/>
<path d="M155 222H395.5" stroke="#8ECBB0" stroke-width="1.5"/>
<path d="M154 90L397 90" stroke="#FF9F7E" stroke-width="1.5"/>
<path d="M154 250L397 250" stroke="#FF9F7E" stroke-width="1.5"/>
<path d="M155 90V58H396V90" stroke="#FF9F7E" stroke-width="1.5"/>
<path d="M396 250L396 282L155 282L155 250" stroke="#FF9F7E" stroke-width="1.5"/>
<path d="M138.438 121.273V130H137.382V122.381H137.33L135.2 123.795V122.722L137.382 121.273H138.438ZM143.846 130.119C143.488 130.114 143.13 130.045 142.772 129.915C142.414 129.784 142.088 129.564 141.792 129.254C141.497 128.942 141.259 128.52 141.08 127.989C140.901 127.455 140.812 126.784 140.812 125.977C140.812 125.205 140.884 124.52 141.029 123.923C141.174 123.324 141.384 122.82 141.66 122.411C141.936 121.999 142.268 121.686 142.657 121.473C143.049 121.26 143.491 121.153 143.982 121.153C144.471 121.153 144.906 121.251 145.286 121.447C145.67 121.641 145.982 121.911 146.224 122.257C146.465 122.604 146.622 123.003 146.693 123.455H145.653C145.556 123.062 145.369 122.737 145.09 122.479C144.812 122.22 144.443 122.091 143.982 122.091C143.306 122.091 142.774 122.385 142.384 122.973C141.998 123.561 141.803 124.386 141.801 125.449H141.869C142.028 125.207 142.217 125.001 142.436 124.831C142.657 124.658 142.901 124.524 143.169 124.43C143.436 124.337 143.718 124.29 144.017 124.29C144.517 124.29 144.974 124.415 145.389 124.665C145.803 124.912 146.136 125.254 146.386 125.692C146.636 126.126 146.761 126.625 146.761 127.188C146.761 127.727 146.64 128.222 146.399 128.67C146.157 129.116 145.818 129.472 145.38 129.736C144.945 129.997 144.434 130.125 143.846 130.119ZM143.846 129.182C144.204 129.182 144.525 129.092 144.809 128.913C145.096 128.734 145.322 128.494 145.487 128.193C145.654 127.892 145.738 127.557 145.738 127.188C145.738 126.827 145.657 126.499 145.495 126.203C145.336 125.905 145.116 125.668 144.835 125.491C144.556 125.315 144.238 125.227 143.88 125.227C143.61 125.227 143.359 125.281 143.126 125.389C142.893 125.494 142.688 125.639 142.512 125.824C142.339 126.009 142.203 126.22 142.103 126.459C142.004 126.695 141.954 126.943 141.954 127.205C141.954 127.551 142.035 127.875 142.197 128.176C142.362 128.477 142.586 128.72 142.87 128.905C143.157 129.089 143.482 129.182 143.846 129.182Z" fill="#738287"/>
<path d="M138.438 165.273V174H137.382V166.381H137.33L135.2 167.795V166.722L137.382 165.273H138.438ZM143.846 174.119C143.488 174.114 143.13 174.045 142.772 173.915C142.414 173.784 142.088 173.564 141.792 173.254C141.497 172.942 141.259 172.52 141.08 171.989C140.901 171.455 140.812 170.784 140.812 169.977C140.812 169.205 140.884 168.52 141.029 167.923C141.174 167.324 141.384 166.82 141.66 166.411C141.936 165.999 142.268 165.686 142.657 165.473C143.049 165.26 143.491 165.153 143.982 165.153C144.471 165.153 144.906 165.251 145.286 165.447C145.67 165.641 145.982 165.911 146.224 166.257C146.465 166.604 146.622 167.003 146.693 167.455H145.653C145.556 167.062 145.369 166.737 145.09 166.479C144.812 166.22 144.443 166.091 143.982 166.091C143.306 166.091 142.774 166.385 142.384 166.973C141.998 167.561 141.803 168.386 141.801 169.449H141.869C142.028 169.207 142.217 169.001 142.436 168.831C142.657 168.658 142.901 168.524 143.169 168.43C143.436 168.337 143.718 168.29 144.017 168.29C144.517 168.29 144.974 168.415 145.389 168.665C145.803 168.912 146.136 169.254 146.386 169.692C146.636 170.126 146.761 170.625 146.761 171.188C146.761 171.727 146.64 172.222 146.399 172.67C146.157 173.116 145.818 173.472 145.38 173.736C144.945 173.997 144.434 174.125 143.846 174.119ZM143.846 173.182C144.204 173.182 144.525 173.092 144.809 172.913C145.096 172.734 145.322 172.494 145.487 172.193C145.654 171.892 145.738 171.557 145.738 171.188C145.738 170.827 145.657 170.499 145.495 170.203C145.336 169.905 145.116 169.668 144.835 169.491C144.556 169.315 144.238 169.227 143.88 169.227C143.61 169.227 143.359 169.281 143.126 169.389C142.893 169.494 142.688 169.639 142.512 169.824C142.339 170.009 142.203 170.22 142.103 170.459C142.004 170.695 141.954 170.943 141.954 171.205C141.954 171.551 142.035 171.875 142.197 172.176C142.362 172.477 142.586 172.72 142.87 172.905C143.157 173.089 143.482 173.182 143.846 173.182Z" fill="#738287"/>
<path d="M167.899 297.119C167.337 297.119 166.835 297.023 166.395 296.83C165.957 296.636 165.609 296.368 165.351 296.024C165.095 295.678 164.956 295.276 164.933 294.818H166.007C166.03 295.099 166.126 295.342 166.297 295.547C166.467 295.749 166.69 295.905 166.966 296.016C167.241 296.126 167.547 296.182 167.882 296.182C168.257 296.182 168.589 296.116 168.879 295.986C169.169 295.855 169.396 295.673 169.561 295.44C169.726 295.207 169.808 294.938 169.808 294.631C169.808 294.31 169.729 294.027 169.57 293.783C169.411 293.536 169.178 293.342 168.871 293.203C168.564 293.064 168.189 292.994 167.746 292.994H167.047V292.057H167.746C168.092 292.057 168.396 291.994 168.658 291.869C168.922 291.744 169.128 291.568 169.276 291.341C169.426 291.114 169.501 290.847 169.501 290.54C169.501 290.244 169.436 289.987 169.305 289.768C169.175 289.55 168.99 289.379 168.751 289.257C168.516 289.135 168.237 289.074 167.916 289.074C167.615 289.074 167.331 289.129 167.064 289.24C166.8 289.348 166.584 289.506 166.416 289.713C166.249 289.918 166.158 290.165 166.143 290.455H165.121C165.138 289.997 165.276 289.597 165.534 289.253C165.793 288.906 166.131 288.636 166.548 288.443C166.969 288.25 167.43 288.153 167.933 288.153C168.473 288.153 168.936 288.263 169.322 288.482C169.709 288.697 170.006 288.983 170.213 289.338C170.42 289.693 170.524 290.077 170.524 290.489C170.524 290.98 170.395 291.399 170.136 291.746C169.881 292.092 169.533 292.332 169.092 292.466V292.534C169.643 292.625 170.074 292.859 170.384 293.237C170.693 293.612 170.848 294.077 170.848 294.631C170.848 295.105 170.719 295.531 170.46 295.909C170.205 296.284 169.855 296.58 169.412 296.795C168.969 297.011 168.464 297.119 167.899 297.119ZM172.591 297V296.233L175.472 293.08C175.81 292.71 176.088 292.389 176.307 292.116C176.526 291.841 176.688 291.582 176.793 291.341C176.901 291.097 176.955 290.841 176.955 290.574C176.955 290.267 176.881 290.001 176.733 289.777C176.588 289.553 176.389 289.379 176.136 289.257C175.884 289.135 175.599 289.074 175.284 289.074C174.949 289.074 174.656 289.143 174.406 289.283C174.159 289.419 173.967 289.611 173.831 289.858C173.697 290.105 173.631 290.395 173.631 290.727H172.625C172.625 290.216 172.743 289.767 172.979 289.381C173.214 288.994 173.536 288.693 173.942 288.477C174.351 288.261 174.81 288.153 175.318 288.153C175.83 288.153 176.283 288.261 176.678 288.477C177.072 288.693 177.382 288.984 177.607 289.351C177.831 289.717 177.943 290.125 177.943 290.574C177.943 290.895 177.885 291.209 177.768 291.516C177.655 291.82 177.456 292.159 177.172 292.534C176.891 292.906 176.5 293.361 176 293.898L174.04 295.994V296.062H178.097V297H172.591Z" fill="#738287"/>
<path d="M201.438 288.273V297H200.382V289.381H200.33L198.2 290.795V289.722L200.382 288.273H201.438ZM206.846 297.119C206.488 297.114 206.13 297.045 205.772 296.915C205.414 296.784 205.088 296.564 204.792 296.254C204.497 295.942 204.259 295.52 204.08 294.989C203.901 294.455 203.812 293.784 203.812 292.977C203.812 292.205 203.884 291.52 204.029 290.923C204.174 290.324 204.384 289.82 204.66 289.411C204.936 288.999 205.268 288.686 205.657 288.473C206.049 288.26 206.491 288.153 206.982 288.153C207.471 288.153 207.906 288.251 208.286 288.447C208.67 288.641 208.982 288.911 209.224 289.257C209.465 289.604 209.622 290.003 209.693 290.455H208.653C208.556 290.062 208.369 289.737 208.09 289.479C207.812 289.22 207.443 289.091 206.982 289.091C206.306 289.091 205.774 289.385 205.384 289.973C204.998 290.561 204.803 291.386 204.801 292.449H204.869C205.028 292.207 205.217 292.001 205.436 291.831C205.657 291.658 205.901 291.524 206.169 291.43C206.436 291.337 206.718 291.29 207.017 291.29C207.517 291.29 207.974 291.415 208.389 291.665C208.803 291.912 209.136 292.254 209.386 292.692C209.636 293.126 209.761 293.625 209.761 294.188C209.761 294.727 209.64 295.222 209.399 295.67C209.157 296.116 208.818 296.472 208.38 296.736C207.945 296.997 207.434 297.125 206.846 297.119ZM206.846 296.182C207.204 296.182 207.525 296.092 207.809 295.913C208.096 295.734 208.322 295.494 208.487 295.193C208.654 294.892 208.738 294.557 208.738 294.188C208.738 293.827 208.657 293.499 208.495 293.203C208.336 292.905 208.116 292.668 207.835 292.491C207.556 292.315 207.238 292.227 206.88 292.227C206.61 292.227 206.359 292.281 206.126 292.389C205.893 292.494 205.688 292.639 205.512 292.824C205.339 293.009 205.203 293.22 205.103 293.459C205.004 293.695 204.954 293.943 204.954 294.205C204.954 294.551 205.035 294.875 205.197 295.176C205.362 295.477 205.586 295.72 205.87 295.905C206.157 296.089 206.482 296.182 206.846 296.182Z" fill="#738287"/>
<path d="M135.073 196V195.233L137.954 192.08C138.292 191.71 138.57 191.389 138.789 191.116C139.008 190.841 139.17 190.582 139.275 190.341C139.383 190.097 139.437 189.841 139.437 189.574C139.437 189.267 139.363 189.001 139.215 188.777C139.07 188.553 138.872 188.379 138.619 188.257C138.366 188.135 138.082 188.074 137.767 188.074C137.431 188.074 137.139 188.143 136.889 188.283C136.642 188.419 136.45 188.611 136.313 188.858C136.18 189.105 136.113 189.395 136.113 189.727H135.107C135.107 189.216 135.225 188.767 135.461 188.381C135.697 187.994 136.018 187.693 136.424 187.477C136.833 187.261 137.292 187.153 137.801 187.153C138.312 187.153 138.765 187.261 139.16 187.477C139.555 187.693 139.865 187.984 140.089 188.351C140.313 188.717 140.426 189.125 140.426 189.574C140.426 189.895 140.367 190.209 140.251 190.516C140.137 190.82 139.938 191.159 139.654 191.534C139.373 191.906 138.982 192.361 138.482 192.898L136.522 194.994V195.062H140.579V196H135.073ZM145.134 196.119C144.549 196.119 144.032 196.016 143.583 195.808C143.137 195.598 142.789 195.31 142.539 194.943C142.289 194.574 142.166 194.153 142.169 193.682C142.166 193.312 142.238 192.972 142.386 192.659C142.534 192.344 142.735 192.081 142.991 191.871C143.249 191.658 143.538 191.523 143.856 191.466V191.415C143.438 191.307 143.106 191.072 142.859 190.712C142.612 190.348 142.49 189.935 142.492 189.472C142.49 189.028 142.602 188.632 142.829 188.283C143.056 187.933 143.369 187.658 143.767 187.456C144.167 187.254 144.623 187.153 145.134 187.153C145.64 187.153 146.092 187.254 146.49 187.456C146.887 187.658 147.2 187.933 147.427 188.283C147.657 188.632 147.774 189.028 147.776 189.472C147.774 189.935 147.647 190.348 147.397 190.712C147.15 191.072 146.822 191.307 146.413 191.415V191.466C146.728 191.523 147.012 191.658 147.265 191.871C147.518 192.081 147.72 192.344 147.87 192.659C148.021 192.972 148.097 193.312 148.1 193.682C148.097 194.153 147.97 194.574 147.717 194.943C147.467 195.31 147.119 195.598 146.673 195.808C146.23 196.016 145.717 196.119 145.134 196.119ZM145.134 195.182C145.529 195.182 145.87 195.118 146.157 194.99C146.444 194.862 146.666 194.682 146.822 194.449C146.978 194.216 147.058 193.943 147.061 193.631C147.058 193.301 146.972 193.01 146.805 192.757C146.637 192.504 146.409 192.305 146.119 192.161C145.832 192.016 145.504 191.943 145.134 191.943C144.762 191.943 144.43 192.016 144.137 192.161C143.847 192.305 143.619 192.504 143.451 192.757C143.286 193.01 143.205 193.301 143.208 193.631C143.205 193.943 143.281 194.216 143.434 194.449C143.59 194.682 143.813 194.862 144.103 194.99C144.393 195.118 144.737 195.182 145.134 195.182ZM145.134 191.04C145.447 191.04 145.724 190.977 145.965 190.852C146.21 190.727 146.401 190.553 146.541 190.328C146.68 190.104 146.751 189.841 146.754 189.54C146.751 189.244 146.681 188.987 146.545 188.768C146.409 188.547 146.22 188.376 145.978 188.257C145.737 188.135 145.455 188.074 145.134 188.074C144.808 188.074 144.522 188.135 144.278 188.257C144.034 188.376 143.845 188.547 143.711 188.768C143.578 188.987 143.512 189.244 143.515 189.54C143.512 189.841 143.579 190.104 143.715 190.328C143.855 190.553 144.046 190.727 144.291 190.852C144.535 190.977 144.816 191.04 145.134 191.04Z" fill="#738287"/>
<path d="M138.433 143.273V152H137.376V144.381H137.325L135.194 145.795V144.722L137.376 143.273H138.433ZM143.789 152.119C143.147 152.119 142.6 151.945 142.148 151.595C141.697 151.243 141.352 150.733 141.113 150.065C140.874 149.395 140.755 148.585 140.755 147.636C140.755 146.693 140.874 145.888 141.113 145.22C141.354 144.55 141.701 144.038 142.153 143.686C142.607 143.331 143.153 143.153 143.789 143.153C144.425 143.153 144.969 143.331 145.421 143.686C145.876 144.038 146.222 144.55 146.461 145.22C146.702 145.888 146.823 146.693 146.823 147.636C146.823 148.585 146.704 149.395 146.465 150.065C146.227 150.733 145.881 151.243 145.43 151.595C144.978 151.945 144.431 152.119 143.789 152.119ZM143.789 151.182C144.425 151.182 144.92 150.875 145.272 150.261C145.624 149.648 145.8 148.773 145.8 147.636C145.8 146.881 145.719 146.237 145.558 145.706C145.398 145.175 145.168 144.77 144.867 144.491C144.569 144.213 144.21 144.074 143.789 144.074C143.158 144.074 142.665 144.385 142.31 145.007C141.955 145.626 141.778 146.503 141.778 147.636C141.778 148.392 141.857 149.034 142.016 149.562C142.175 150.091 142.404 150.493 142.702 150.768C143.004 151.044 143.366 151.182 143.789 151.182Z" fill="#738287"/>
<path d="M137.899 78.1193C137.337 78.1193 136.835 78.0227 136.395 77.8295C135.957 77.6364 135.609 77.3679 135.351 77.0241C135.095 76.6776 134.956 76.2756 134.933 75.8182H136.007C136.03 76.0994 136.126 76.3423 136.297 76.5469C136.467 76.7486 136.69 76.9048 136.966 77.0156C137.241 77.1264 137.547 77.1818 137.882 77.1818C138.257 77.1818 138.589 77.1165 138.879 76.9858C139.169 76.8551 139.396 76.6733 139.561 76.4403C139.726 76.2074 139.808 75.9375 139.808 75.6307C139.808 75.3097 139.729 75.027 139.57 74.7827C139.411 74.5355 139.178 74.3423 138.871 74.2031C138.564 74.0639 138.189 73.9943 137.746 73.9943H137.047V73.0568H137.746C138.092 73.0568 138.396 72.9943 138.658 72.8693C138.922 72.7443 139.128 72.5682 139.276 72.3409C139.426 72.1136 139.501 71.8466 139.501 71.5398C139.501 71.2443 139.436 70.9872 139.305 70.7685C139.175 70.5497 138.99 70.3793 138.751 70.2571C138.516 70.1349 138.237 70.0739 137.916 70.0739C137.615 70.0739 137.331 70.1293 137.064 70.2401C136.8 70.348 136.584 70.5057 136.416 70.7131C136.249 70.9176 136.158 71.1648 136.143 71.4545H135.121C135.138 70.9972 135.276 70.5966 135.534 70.2528C135.793 69.9062 136.131 69.6364 136.548 69.4432C136.969 69.25 137.43 69.1534 137.933 69.1534C138.473 69.1534 138.936 69.2628 139.322 69.4815C139.709 69.6974 140.006 69.983 140.213 70.3381C140.42 70.6932 140.524 71.0767 140.524 71.4886C140.524 71.9801 140.395 72.3991 140.136 72.7457C139.881 73.0923 139.533 73.3324 139.092 73.4659V73.5341C139.643 73.625 140.074 73.8594 140.384 74.2372C140.693 74.6122 140.848 75.0767 140.848 75.6307C140.848 76.1051 140.719 76.5312 140.46 76.9091C140.205 77.2841 139.855 77.5795 139.412 77.7955C138.969 78.0114 138.464 78.1193 137.899 78.1193ZM142.591 78V77.233L145.472 74.0795C145.81 73.7102 146.088 73.3892 146.307 73.1165C146.526 72.8409 146.688 72.5824 146.793 72.3409C146.901 72.0966 146.955 71.8409 146.955 71.5739C146.955 71.267 146.881 71.0014 146.733 70.777C146.588 70.5526 146.389 70.3793 146.136 70.2571C145.884 70.1349 145.599 70.0739 145.284 70.0739C144.949 70.0739 144.656 70.1435 144.406 70.2827C144.159 70.419 143.967 70.6108 143.831 70.858C143.697 71.1051 143.631 71.3949 143.631 71.7273H142.625C142.625 71.2159 142.743 70.767 142.979 70.3807C143.214 69.9943 143.536 69.6932 143.942 69.4773C144.351 69.2614 144.81 69.1534 145.318 69.1534C145.83 69.1534 146.283 69.2614 146.678 69.4773C147.072 69.6932 147.382 69.9844 147.607 70.3509C147.831 70.7173 147.943 71.125 147.943 71.5739C147.943 71.8949 147.885 72.2088 147.768 72.5156C147.655 72.8196 147.456 73.1591 147.172 73.5341C146.891 73.9062 146.5 74.3608 146 74.8977L144.04 76.9943V77.0625H148.097V78H142.591Z" fill="#738287"/>
<path d="M137.899 270.119C137.337 270.119 136.835 270.023 136.395 269.83C135.957 269.636 135.609 269.368 135.351 269.024C135.095 268.678 134.956 268.276 134.933 267.818H136.007C136.03 268.099 136.126 268.342 136.297 268.547C136.467 268.749 136.69 268.905 136.966 269.016C137.241 269.126 137.547 269.182 137.882 269.182C138.257 269.182 138.589 269.116 138.879 268.986C139.169 268.855 139.396 268.673 139.561 268.44C139.726 268.207 139.808 267.938 139.808 267.631C139.808 267.31 139.729 267.027 139.57 266.783C139.411 266.536 139.178 266.342 138.871 266.203C138.564 266.064 138.189 265.994 137.746 265.994H137.047V265.057H137.746C138.092 265.057 138.396 264.994 138.658 264.869C138.922 264.744 139.128 264.568 139.276 264.341C139.426 264.114 139.501 263.847 139.501 263.54C139.501 263.244 139.436 262.987 139.305 262.768C139.175 262.55 138.99 262.379 138.751 262.257C138.516 262.135 138.237 262.074 137.916 262.074C137.615 262.074 137.331 262.129 137.064 262.24C136.8 262.348 136.584 262.506 136.416 262.713C136.249 262.918 136.158 263.165 136.143 263.455H135.121C135.138 262.997 135.276 262.597 135.534 262.253C135.793 261.906 136.131 261.636 136.548 261.443C136.969 261.25 137.43 261.153 137.933 261.153C138.473 261.153 138.936 261.263 139.322 261.482C139.709 261.697 140.006 261.983 140.213 262.338C140.42 262.693 140.524 263.077 140.524 263.489C140.524 263.98 140.395 264.399 140.136 264.746C139.881 265.092 139.533 265.332 139.092 265.466V265.534C139.643 265.625 140.074 265.859 140.384 266.237C140.693 266.612 140.848 267.077 140.848 267.631C140.848 268.105 140.719 268.531 140.46 268.909C140.205 269.284 139.855 269.58 139.412 269.795C138.969 270.011 138.464 270.119 137.899 270.119ZM142.591 270V269.233L145.472 266.08C145.81 265.71 146.088 265.389 146.307 265.116C146.526 264.841 146.688 264.582 146.793 264.341C146.901 264.097 146.955 263.841 146.955 263.574C146.955 263.267 146.881 263.001 146.733 262.777C146.588 262.553 146.389 262.379 146.136 262.257C145.884 262.135 145.599 262.074 145.284 262.074C144.949 262.074 144.656 262.143 144.406 262.283C144.159 262.419 143.967 262.611 143.831 262.858C143.697 263.105 143.631 263.395 143.631 263.727H142.625C142.625 263.216 142.743 262.767 142.979 262.381C143.214 261.994 143.536 261.693 143.942 261.477C144.351 261.261 144.81 261.153 145.318 261.153C145.83 261.153 146.283 261.261 146.678 261.477C147.072 261.693 147.382 261.984 147.607 262.351C147.831 262.717 147.943 263.125 147.943 263.574C147.943 263.895 147.885 264.209 147.768 264.516C147.655 264.82 147.456 265.159 147.172 265.534C146.891 265.906 146.5 266.361 146 266.898L144.04 268.994V269.062H148.097V270H142.591Z" fill="#738287"/>
<path d="M135.073 108V107.233L137.954 104.08C138.292 103.71 138.57 103.389 138.789 103.116C139.008 102.841 139.17 102.582 139.275 102.341C139.383 102.097 139.437 101.841 139.437 101.574C139.437 101.267 139.363 101.001 139.215 100.777C139.07 100.553 138.872 100.379 138.619 100.257C138.366 100.135 138.082 100.074 137.767 100.074C137.431 100.074 137.139 100.143 136.889 100.283C136.642 100.419 136.45 100.611 136.313 100.858C136.18 101.105 136.113 101.395 136.113 101.727H135.107C135.107 101.216 135.225 100.767 135.461 100.381C135.697 99.9943 136.018 99.6932 136.424 99.4773C136.833 99.2614 137.292 99.1534 137.801 99.1534C138.312 99.1534 138.765 99.2614 139.16 99.4773C139.555 99.6932 139.865 99.9844 140.089 100.351C140.313 100.717 140.426 101.125 140.426 101.574C140.426 101.895 140.367 102.209 140.251 102.516C140.137 102.82 139.938 103.159 139.654 103.534C139.373 103.906 138.982 104.361 138.482 104.898L136.522 106.994V107.062H140.579V108H135.073ZM145.134 108.119C144.549 108.119 144.032 108.016 143.583 107.808C143.137 107.598 142.789 107.31 142.539 106.943C142.289 106.574 142.166 106.153 142.169 105.682C142.166 105.312 142.238 104.972 142.386 104.659C142.534 104.344 142.735 104.081 142.991 103.871C143.249 103.658 143.538 103.523 143.856 103.466V103.415C143.438 103.307 143.106 103.072 142.859 102.712C142.612 102.348 142.49 101.935 142.492 101.472C142.49 101.028 142.602 100.632 142.829 100.283C143.056 99.9332 143.369 99.6577 143.767 99.456C144.167 99.2543 144.623 99.1534 145.134 99.1534C145.64 99.1534 146.092 99.2543 146.49 99.456C146.887 99.6577 147.2 99.9332 147.427 100.283C147.657 100.632 147.774 101.028 147.776 101.472C147.774 101.935 147.647 102.348 147.397 102.712C147.15 103.072 146.822 103.307 146.413 103.415V103.466C146.728 103.523 147.012 103.658 147.265 103.871C147.518 104.081 147.72 104.344 147.87 104.659C148.021 104.972 148.097 105.312 148.1 105.682C148.097 106.153 147.97 106.574 147.717 106.943C147.467 107.31 147.119 107.598 146.673 107.808C146.23 108.016 145.717 108.119 145.134 108.119ZM145.134 107.182C145.529 107.182 145.87 107.118 146.157 106.99C146.444 106.862 146.666 106.682 146.822 106.449C146.978 106.216 147.058 105.943 147.061 105.631C147.058 105.301 146.972 105.01 146.805 104.757C146.637 104.504 146.409 104.305 146.119 104.161C145.832 104.016 145.504 103.943 145.134 103.943C144.762 103.943 144.43 104.016 144.137 104.161C143.847 104.305 143.619 104.504 143.451 104.757C143.286 105.01 143.205 105.301 143.208 105.631C143.205 105.943 143.281 106.216 143.434 106.449C143.59 106.682 143.813 106.862 144.103 106.99C144.393 107.118 144.737 107.182 145.134 107.182ZM145.134 103.04C145.447 103.04 145.724 102.977 145.965 102.852C146.21 102.727 146.401 102.553 146.541 102.328C146.68 102.104 146.751 101.841 146.754 101.54C146.751 101.244 146.681 100.987 146.545 100.768C146.409 100.547 146.22 100.376 145.978 100.257C145.737 100.135 145.455 100.074 145.134 100.074C144.808 100.074 144.522 100.135 144.278 100.257C144.034 100.376 143.845 100.547 143.711 100.768C143.578 100.987 143.512 101.244 143.515 101.54C143.512 101.841 143.579 102.104 143.715 102.328C143.855 102.553 144.046 102.727 144.291 102.852C144.535 102.977 144.816 103.04 145.134 103.04Z" fill="#738287"/>
</svg>
