<svg width="220" height="135" viewBox="0 0 220 135" fill="none" xmlns="http://www.w3.org/2000/svg">
<path d="M9.375 22.9167H33.5125L24.1375 13.5417L27.0833 10.5958L41.4875 25L27.0833 39.4042L24.1375 36.4583L33.5125 27.0833H9.375V22.9167Z" fill="#0A2832"/>
<path d="M110 6.25001C106.132 6.25001 102.423 7.78646 99.688 10.5214C96.9531 13.2563 95.4167 16.9656 95.4167 20.8333C95.4167 26.7958 99.1292 32.5479 103.204 37.0042C105.289 39.2731 107.562 41.3612 110 43.2458C112.438 41.3626 114.711 39.276 116.796 37.0083C120.871 32.5479 124.583 26.7979 124.583 20.8333C124.583 16.9656 123.047 13.2563 120.312 10.5214C117.577 7.78646 113.868 6.25001 110 6.25001ZM110 48.3625L108.819 47.55L108.812 47.5458L108.8 47.5354L108.758 47.5063L108.602 47.3958C107.739 46.7688 106.896 46.1157 106.073 45.4375C103.963 43.7045 101.977 41.8263 100.129 39.8167C95.8708 35.1583 91.25 28.4104 91.25 20.8333C91.25 15.8605 93.2254 11.0914 96.7417 7.57509C100.258 4.05878 105.027 2.08334 110 2.08334C114.973 2.08334 119.742 4.05878 123.258 7.57509C126.775 11.0914 128.75 15.8605 128.75 20.8333C128.75 28.4104 124.129 35.1604 119.871 39.8167C117.458 42.441 114.811 44.8398 111.963 46.9833C111.725 47.1607 111.486 47.335 111.244 47.5063L111.2 47.5354L111.187 47.5458L111.183 47.5479L110 48.3625ZM110 16.6667C108.895 16.6667 107.835 17.1057 107.054 17.8871C106.272 18.6685 105.833 19.7283 105.833 20.8333C105.833 21.9384 106.272 22.9982 107.054 23.7796C107.835 24.561 108.895 25 110 25C111.105 25 112.165 24.561 112.946 23.7796C113.728 22.9982 114.167 21.9384 114.167 20.8333C114.167 19.7283 113.728 18.6685 112.946 17.8871C112.165 17.1057 111.105 16.6667 110 16.6667ZM101.667 20.8333C101.667 18.6232 102.545 16.5036 104.107 14.9408C105.67 13.378 107.79 12.5 110 12.5C112.21 12.5 114.33 13.378 115.893 14.9408C117.455 16.5036 118.333 18.6232 118.333 20.8333C118.333 23.0435 117.455 25.1631 115.893 26.7259C114.33 28.2887 112.21 29.1667 110 29.1667C107.79 29.1667 105.67 28.2887 104.107 26.7259C102.545 25.1631 101.667 23.0435 101.667 20.8333Z" fill="#0A2832"/>
<path d="M184.062 16.3257L195.521 27.784L206.979 16.3257L209.925 19.2715L195.521 33.6757L181.116 19.2715L184.062 16.3257Z" fill="#0A2832"/>
<path d="M43.6037 114.167C43.1018 117.638 41.3662 120.812 38.7147 123.108C36.0632 125.403 32.6734 126.667 29.1662 126.667H11.4579V122.5H29.1662C31.9289 122.5 34.5784 121.403 36.5319 119.449C38.4854 117.496 39.5829 114.846 39.5829 112.083C39.5829 109.321 38.4854 106.671 36.5319 104.718C34.5784 102.764 31.9289 101.667 29.1662 101.667H14.4037L19.612 106.875L16.6662 109.821L6.42871 99.5833L16.6662 89.3458L19.612 92.2917L14.4037 97.5H29.1662C33.0339 97.5 36.7433 99.0365 39.4782 101.771C42.2131 104.506 43.7495 108.216 43.7495 112.083V114.167H43.6037Z" fill="#0A2832"/>
<path d="M99.687 96.7417L110 107.054L120.312 96.7417L123.258 99.6875L112.945 110L123.258 120.313L120.31 123.258L109.997 112.946L99.687 123.258L96.7412 120.313L107.054 110L96.7412 99.6875L99.687 96.7417Z" fill="#0A2832"/>
<path d="M201.45 97.3C200.197 96.0236 198.704 95.0081 197.056 94.3122C195.408 93.6162 193.638 93.2537 191.85 93.2455C190.061 93.2373 188.288 93.5835 186.634 94.2643C184.98 94.945 183.477 95.9467 182.212 97.2116C180.947 98.4765 179.945 99.9794 179.265 101.634C178.584 103.288 178.238 105.06 178.246 106.849C178.254 108.638 178.617 110.407 179.313 112.055C180.008 113.703 181.024 115.197 182.3 116.45C184.848 118.951 188.28 120.345 191.85 120.329C195.42 120.312 198.839 118.887 201.363 116.362C203.887 113.838 205.313 110.419 205.329 106.849C205.345 103.279 203.951 99.8474 201.45 97.3ZM179.355 94.3542C182.548 91.1616 186.84 89.3095 191.354 89.1767C195.868 89.0439 200.261 90.6404 203.637 93.6397C207.012 96.639 209.115 100.815 209.514 105.312C209.913 109.81 208.579 114.291 205.784 117.838L216.919 128.973L213.973 131.919L202.838 120.783C199.29 123.568 194.813 124.894 190.321 124.491C185.829 124.088 181.66 121.986 178.665 118.615C175.669 115.243 174.072 110.856 174.201 106.348C174.329 101.839 176.172 97.5499 179.355 94.3542ZM193.959 98.5417V104.792H200.209V108.958H193.959V115.208H189.792V108.958H183.542V104.792H189.792V98.5417H193.959Z" fill="#0A2832"/>
</svg>
