<svg width="552" height="552" viewBox="0 0 552 552" fill="none" xmlns="http://www.w3.org/2000/svg">
<rect width="552" height="552" fill="#F2F6F9"/>
<path d="M162.761 354V339.455H164.523V345.932H172.278V339.455H174.04V354H172.278V347.494H164.523V354H162.761ZM178.418 358.091C178.134 358.091 177.881 358.067 177.658 358.02C177.436 357.977 177.282 357.935 177.197 357.892L177.623 356.415C178.03 356.519 178.39 356.557 178.702 356.528C179.015 356.5 179.292 356.36 179.533 356.109C179.78 355.863 180.004 355.463 180.208 354.909L180.521 354.057L176.487 343.091H178.305L181.316 351.784H181.43L184.441 343.091H186.259L181.629 355.591C181.42 356.154 181.162 356.621 180.854 356.99C180.547 357.364 180.189 357.641 179.782 357.821C179.379 358.001 178.925 358.091 178.418 358.091ZM194.438 351.727L198.244 343.091H199.835L195.119 354H193.756L189.125 343.091H190.688L194.438 351.727ZM190.148 343.091V354H188.472V343.091H190.148ZM198.727 354V343.091H200.403V354H198.727ZM208.045 354.227C206.994 354.227 206.088 353.995 205.325 353.531C204.568 353.062 203.983 352.409 203.571 351.571C203.164 350.728 202.96 349.748 202.96 348.631C202.96 347.513 203.164 346.528 203.571 345.676C203.983 344.819 204.556 344.152 205.29 343.673C206.028 343.19 206.89 342.949 207.875 342.949C208.443 342.949 209.004 343.044 209.558 343.233C210.112 343.422 210.616 343.73 211.071 344.156C211.526 344.578 211.888 345.136 212.158 345.832C212.428 346.528 212.562 347.385 212.562 348.403V349.114H204.153V347.665H210.858C210.858 347.049 210.735 346.5 210.489 346.017C210.247 345.534 209.902 345.153 209.452 344.874C209.007 344.594 208.481 344.455 207.875 344.455C207.207 344.455 206.63 344.62 206.142 344.952C205.659 345.278 205.287 345.705 205.027 346.23C204.767 346.756 204.636 347.319 204.636 347.92V348.886C204.636 349.71 204.778 350.409 205.062 350.982C205.351 351.55 205.751 351.983 206.263 352.281C206.774 352.575 207.368 352.722 208.045 352.722C208.486 352.722 208.884 352.66 209.239 352.537C209.598 352.409 209.909 352.22 210.169 351.969C210.429 351.713 210.631 351.396 210.773 351.017L212.392 351.472C212.222 352.021 211.935 352.504 211.533 352.92C211.13 353.332 210.633 353.654 210.041 353.886C209.449 354.114 208.784 354.227 208.045 354.227ZM215.112 358.091V343.091H216.732V344.824H216.93C217.054 344.634 217.224 344.393 217.442 344.099C217.664 343.801 217.982 343.536 218.393 343.304C218.81 343.067 219.374 342.949 220.084 342.949C221.002 342.949 221.812 343.179 222.513 343.638C223.214 344.097 223.76 344.748 224.153 345.591C224.546 346.434 224.743 347.428 224.743 348.574C224.743 349.729 224.546 350.731 224.153 351.578C223.76 352.421 223.216 353.074 222.52 353.538C221.824 353.998 221.021 354.227 220.112 354.227C219.411 354.227 218.85 354.111 218.429 353.879C218.008 353.643 217.683 353.375 217.456 353.077C217.229 352.774 217.054 352.523 216.93 352.324H216.788V358.091H215.112ZM216.76 348.545C216.76 349.369 216.881 350.096 217.122 350.726C217.364 351.351 217.716 351.841 218.18 352.196C218.644 352.546 219.213 352.722 219.885 352.722C220.586 352.722 221.17 352.537 221.639 352.168C222.113 351.794 222.468 351.292 222.705 350.662C222.946 350.027 223.067 349.322 223.067 348.545C223.067 347.778 222.948 347.087 222.712 346.472C222.48 345.851 222.127 345.361 221.653 345.001C221.185 344.637 220.595 344.455 219.885 344.455C219.203 344.455 218.63 344.627 218.166 344.973C217.702 345.314 217.352 345.792 217.115 346.408C216.878 347.018 216.76 347.731 216.76 348.545ZM231.732 354.227C230.747 354.227 229.883 353.993 229.139 353.524C228.401 353.055 227.823 352.4 227.406 351.557C226.994 350.714 226.788 349.729 226.788 348.602C226.788 347.466 226.994 346.474 227.406 345.626C227.823 344.779 228.401 344.121 229.139 343.652C229.883 343.183 230.747 342.949 231.732 342.949C232.716 342.949 233.578 343.183 234.317 343.652C235.06 344.121 235.638 344.779 236.05 345.626C236.466 346.474 236.675 347.466 236.675 348.602C236.675 349.729 236.466 350.714 236.05 351.557C235.638 352.4 235.06 353.055 234.317 353.524C233.578 353.993 232.716 354.227 231.732 354.227ZM231.732 352.722C232.48 352.722 233.095 352.53 233.578 352.146C234.061 351.763 234.419 351.259 234.651 350.634C234.883 350.009 234.999 349.331 234.999 348.602C234.999 347.873 234.883 347.194 234.651 346.564C234.419 345.934 234.061 345.425 233.578 345.037C233.095 344.649 232.48 344.455 231.732 344.455C230.983 344.455 230.368 344.649 229.885 345.037C229.402 345.425 229.045 345.934 228.812 346.564C228.58 347.194 228.464 347.873 228.464 348.602C228.464 349.331 228.58 350.009 228.812 350.634C229.045 351.259 229.402 351.763 229.885 352.146C230.368 352.53 230.983 352.722 231.732 352.722ZM239.233 354V343.091H243.694C244.868 343.091 245.801 343.356 246.492 343.886C247.183 344.417 247.529 345.117 247.529 345.989C247.529 346.652 247.332 347.165 246.939 347.53C246.546 347.89 246.042 348.134 245.426 348.261C245.829 348.318 246.22 348.46 246.598 348.688C246.982 348.915 247.299 349.227 247.55 349.625C247.801 350.018 247.926 350.501 247.926 351.074C247.926 351.633 247.784 352.132 247.5 352.572C247.216 353.013 246.809 353.361 246.279 353.616C245.748 353.872 245.114 354 244.375 354H239.233ZM240.824 352.466H244.375C244.953 352.466 245.405 352.329 245.732 352.054C246.059 351.779 246.222 351.405 246.222 350.932C246.222 350.368 246.059 349.926 245.732 349.604C245.405 349.277 244.953 349.114 244.375 349.114H240.824V352.466ZM240.824 347.665H243.694C244.143 347.665 244.529 347.603 244.851 347.48C245.173 347.352 245.419 347.172 245.59 346.94C245.765 346.704 245.853 346.424 245.853 346.102C245.853 345.643 245.661 345.283 245.277 345.023C244.894 344.758 244.366 344.625 243.694 344.625H240.824V347.665ZM253.674 354.256C252.983 354.256 252.355 354.125 251.792 353.865C251.228 353.6 250.781 353.219 250.45 352.722C250.118 352.22 249.952 351.614 249.952 350.903C249.952 350.278 250.076 349.772 250.322 349.384C250.568 348.991 250.897 348.683 251.309 348.46C251.721 348.238 252.175 348.072 252.673 347.963C253.174 347.849 253.679 347.759 254.185 347.693C254.848 347.608 255.386 347.544 255.798 347.501C256.214 347.454 256.517 347.376 256.707 347.267C256.901 347.158 256.998 346.969 256.998 346.699V346.642C256.998 345.941 256.806 345.397 256.423 345.009C256.044 344.62 255.469 344.426 254.697 344.426C253.897 344.426 253.269 344.601 252.815 344.952C252.36 345.302 252.04 345.676 251.856 346.074L250.265 345.506C250.549 344.843 250.928 344.327 251.401 343.957C251.879 343.583 252.4 343.323 252.964 343.176C253.532 343.025 254.091 342.949 254.64 342.949C254.99 342.949 255.393 342.991 255.847 343.077C256.307 343.157 256.749 343.325 257.175 343.581C257.606 343.837 257.964 344.223 258.248 344.739C258.532 345.255 258.674 345.946 258.674 346.812V354H256.998V352.523H256.913C256.799 352.759 256.61 353.013 256.344 353.283C256.079 353.553 255.727 353.782 255.286 353.972C254.846 354.161 254.308 354.256 253.674 354.256ZM253.93 352.75C254.593 352.75 255.151 352.62 255.606 352.359C256.065 352.099 256.411 351.763 256.643 351.351C256.879 350.939 256.998 350.506 256.998 350.051V348.517C256.927 348.602 256.771 348.68 256.529 348.751C256.292 348.818 256.018 348.877 255.705 348.929C255.397 348.976 255.097 349.019 254.803 349.057C254.514 349.09 254.28 349.118 254.1 349.142C253.665 349.199 253.257 349.291 252.879 349.419C252.504 349.542 252.201 349.729 251.969 349.98C251.742 350.226 251.629 350.562 251.629 350.989C251.629 351.571 251.844 352.011 252.275 352.31C252.71 352.603 253.262 352.75 253.93 352.75ZM269.034 347.778V349.341H263.012V347.778H269.034ZM263.409 343.091V354H261.733V343.091H263.409ZM270.313 343.091V354H268.637V343.091H270.313ZM280.675 347.778V349.341H274.652V347.778H280.675ZM275.05 343.091V354H273.374V343.091H275.05ZM281.953 343.091V354H280.277V343.091H281.953ZM286.463 347.04H289.588C290.867 347.04 291.845 347.364 292.522 348.013C293.199 348.661 293.537 349.483 293.537 350.477C293.537 351.131 293.386 351.725 293.083 352.26C292.78 352.79 292.335 353.214 291.748 353.531C291.16 353.844 290.441 354 289.588 354H285.015V343.091H286.691V352.438H289.588C290.251 352.438 290.796 352.262 291.222 351.912C291.648 351.562 291.861 351.112 291.861 350.562C291.861 349.985 291.648 349.514 291.222 349.149C290.796 348.785 290.251 348.602 289.588 348.602H286.463V347.04ZM295.27 354V343.091H296.946V354H295.27ZM301.691 351.528L306.946 343.091H308.878V354H307.202V345.562L301.975 354H300.015V343.091H301.691V351.528ZM305.838 339.455H307.401C307.401 340.222 307.136 340.849 306.605 341.337C306.075 341.824 305.355 342.068 304.446 342.068C303.551 342.068 302.839 341.824 302.309 341.337C301.783 340.849 301.52 340.222 301.52 339.455H303.083C303.083 339.824 303.185 340.148 303.388 340.428C303.596 340.707 303.949 340.847 304.446 340.847C304.944 340.847 305.299 340.707 305.512 340.428C305.73 340.148 305.838 339.824 305.838 339.455ZM322.005 354.227C320.982 354.227 320.102 353.986 319.363 353.503C318.624 353.02 318.056 352.355 317.658 351.507C317.261 350.66 317.062 349.691 317.062 348.602C317.062 347.494 317.265 346.517 317.673 345.669C318.085 344.817 318.657 344.152 319.391 343.673C320.13 343.19 320.992 342.949 321.977 342.949C322.744 342.949 323.435 343.091 324.05 343.375C324.666 343.659 325.17 344.057 325.563 344.568C325.956 345.08 326.2 345.676 326.295 346.358H324.619C324.491 345.861 324.207 345.42 323.766 345.037C323.331 344.649 322.744 344.455 322.005 344.455C321.352 344.455 320.779 344.625 320.286 344.966C319.799 345.302 319.417 345.778 319.143 346.393C318.873 347.004 318.738 347.722 318.738 348.545C318.738 349.388 318.871 350.122 319.136 350.747C319.406 351.372 319.784 351.857 320.272 352.203C320.764 352.549 321.342 352.722 322.005 352.722C322.441 352.722 322.836 352.646 323.191 352.494C323.546 352.343 323.847 352.125 324.093 351.841C324.339 351.557 324.514 351.216 324.619 350.818H326.295C326.2 351.462 325.966 352.042 325.592 352.558C325.222 353.07 324.732 353.477 324.121 353.78C323.515 354.078 322.81 354.227 322.005 354.227ZM328.745 354V343.091H337.325V354H335.648V344.653H330.421V354H328.745ZM342.062 351.528L347.317 343.091H349.249V354H347.573V345.562L342.346 354H340.386V343.091H342.062V351.528ZM356.751 354.227C355.728 354.227 354.848 353.986 354.109 353.503C353.37 353.02 352.802 352.355 352.404 351.507C352.007 350.66 351.808 349.691 351.808 348.602C351.808 347.494 352.011 346.517 352.419 345.669C352.831 344.817 353.404 344.152 354.137 343.673C354.876 343.19 355.738 342.949 356.723 342.949C357.49 342.949 358.181 343.091 358.797 343.375C359.412 343.659 359.916 344.057 360.309 344.568C360.702 345.08 360.946 345.676 361.041 346.358H359.365C359.237 345.861 358.953 345.42 358.512 345.037C358.077 344.649 357.49 344.455 356.751 344.455C356.098 344.455 355.525 344.625 355.032 344.966C354.545 345.302 354.163 345.778 353.889 346.393C353.619 347.004 353.484 347.722 353.484 348.545C353.484 349.388 353.617 350.122 353.882 350.747C354.152 351.372 354.53 351.857 355.018 352.203C355.511 352.549 356.088 352.722 356.751 352.722C357.187 352.722 357.582 352.646 357.937 352.494C358.292 352.343 358.593 352.125 358.839 351.841C359.085 351.557 359.261 351.216 359.365 350.818H361.041C360.946 351.462 360.712 352.042 360.338 352.558C359.968 353.07 359.478 353.477 358.868 353.78C358.261 354.078 357.556 354.227 356.751 354.227ZM367.923 354.227C366.938 354.227 366.074 353.993 365.331 353.524C364.592 353.055 364.014 352.4 363.598 351.557C363.186 350.714 362.98 349.729 362.98 348.602C362.98 347.466 363.186 346.474 363.598 345.626C364.014 344.779 364.592 344.121 365.331 343.652C366.074 343.183 366.938 342.949 367.923 342.949C368.908 342.949 369.77 343.183 370.508 343.652C371.252 344.121 371.829 344.779 372.241 345.626C372.658 346.474 372.866 347.466 372.866 348.602C372.866 349.729 372.658 350.714 372.241 351.557C371.829 352.4 371.252 353.055 370.508 353.524C369.77 353.993 368.908 354.227 367.923 354.227ZM367.923 352.722C368.671 352.722 369.287 352.53 369.77 352.146C370.252 351.763 370.61 351.259 370.842 350.634C371.074 350.009 371.19 349.331 371.19 348.602C371.19 347.873 371.074 347.194 370.842 346.564C370.61 345.934 370.252 345.425 369.77 345.037C369.287 344.649 368.671 344.455 367.923 344.455C367.175 344.455 366.559 344.649 366.076 345.037C365.593 345.425 365.236 345.934 365.004 346.564C364.772 347.194 364.656 347.873 364.656 348.602C364.656 349.331 364.772 350.009 365.004 350.634C365.236 351.259 365.593 351.763 366.076 352.146C366.559 352.53 367.175 352.722 367.923 352.722ZM375.425 354V343.091H377.101V347.835H378.209L382.129 343.091H384.288L379.885 348.347L384.345 354H382.186L378.607 349.398H377.101V354H375.425ZM387.388 354.114C387.038 354.114 386.737 353.988 386.487 353.737C386.236 353.486 386.11 353.186 386.11 352.835C386.11 352.485 386.236 352.184 386.487 351.933C386.737 351.682 387.038 351.557 387.388 351.557C387.739 351.557 388.04 351.682 388.29 351.933C388.541 352.184 388.667 352.485 388.667 352.835C388.667 353.067 388.608 353.28 388.489 353.474C388.376 353.669 388.222 353.825 388.028 353.943C387.838 354.057 387.625 354.114 387.388 354.114ZM387.388 346.017C387.038 346.017 386.737 345.892 386.487 345.641C386.236 345.39 386.11 345.089 386.11 344.739C386.11 344.388 386.236 344.088 386.487 343.837C386.737 343.586 387.038 343.46 387.388 343.46C387.739 343.46 388.04 343.586 388.29 343.837C388.541 344.088 388.667 344.388 388.667 344.739C388.667 344.971 388.608 345.184 388.489 345.378C388.376 345.572 388.222 345.728 388.028 345.847C387.838 345.96 387.625 346.017 387.388 346.017Z" fill="#0A2832"/>
<path d="M199.619 383.455V398H197.858V385.301H197.773L194.222 387.659V385.869L197.858 383.455H199.619ZM204.193 398.114C203.843 398.114 203.542 397.988 203.291 397.737C203.04 397.486 202.915 397.186 202.915 396.835C202.915 396.485 203.04 396.184 203.291 395.933C203.542 395.682 203.843 395.557 204.193 395.557C204.544 395.557 204.844 395.682 205.095 395.933C205.346 396.184 205.472 396.485 205.472 396.835C205.472 397.067 205.412 397.28 205.294 397.474C205.18 397.669 205.027 397.825 204.832 397.943C204.643 398.057 204.43 398.114 204.193 398.114Z" fill="#0A2832"/>
<path d="M224.534 398V387.091H233.114V398H231.438V388.653H226.21V398H224.534ZM240.749 398.227C239.697 398.227 238.791 397.995 238.028 397.531C237.271 397.062 236.686 396.409 236.274 395.571C235.867 394.728 235.663 393.748 235.663 392.631C235.663 391.513 235.867 390.528 236.274 389.676C236.686 388.819 237.259 388.152 237.993 387.673C238.732 387.19 239.593 386.949 240.578 386.949C241.146 386.949 241.707 387.044 242.261 387.233C242.815 387.422 243.32 387.73 243.774 388.156C244.229 388.578 244.591 389.136 244.861 389.832C245.131 390.528 245.266 391.385 245.266 392.403V393.114H236.857V391.665H243.561C243.561 391.049 243.438 390.5 243.192 390.017C242.95 389.534 242.605 389.153 242.155 388.874C241.71 388.594 241.184 388.455 240.578 388.455C239.911 388.455 239.333 388.62 238.845 388.952C238.362 389.278 237.991 389.705 237.73 390.23C237.47 390.756 237.339 391.319 237.339 391.92V392.886C237.339 393.71 237.482 394.409 237.766 394.982C238.054 395.55 238.455 395.983 238.966 396.281C239.477 396.575 240.071 396.722 240.749 396.722C241.189 396.722 241.587 396.66 241.942 396.537C242.302 396.409 242.612 396.22 242.872 395.969C243.133 395.713 243.334 395.396 243.476 395.017L245.095 395.472C244.925 396.021 244.638 396.504 244.236 396.92C243.833 397.332 243.336 397.654 242.744 397.886C242.152 398.114 241.487 398.227 240.749 398.227ZM247.815 402.091V387.091H249.435V388.824H249.634C249.757 388.634 249.927 388.393 250.145 388.099C250.367 387.801 250.685 387.536 251.097 387.304C251.513 387.067 252.077 386.949 252.787 386.949C253.705 386.949 254.515 387.179 255.216 387.638C255.917 388.097 256.464 388.748 256.857 389.591C257.25 390.434 257.446 391.428 257.446 392.574C257.446 393.729 257.25 394.731 256.857 395.578C256.464 396.421 255.919 397.074 255.223 397.538C254.527 397.998 253.724 398.227 252.815 398.227C252.115 398.227 251.554 398.111 251.132 397.879C250.711 397.643 250.386 397.375 250.159 397.077C249.932 396.774 249.757 396.523 249.634 396.324H249.491V402.091H247.815ZM249.463 392.545C249.463 393.369 249.584 394.096 249.825 394.726C250.067 395.351 250.42 395.841 250.884 396.196C251.348 396.546 251.916 396.722 252.588 396.722C253.289 396.722 253.874 396.537 254.342 396.168C254.816 395.794 255.171 395.292 255.408 394.662C255.649 394.027 255.77 393.322 255.77 392.545C255.77 391.778 255.652 391.087 255.415 390.472C255.183 389.851 254.83 389.361 254.357 389.001C253.888 388.637 253.298 388.455 252.588 388.455C251.906 388.455 251.333 388.627 250.869 388.973C250.405 389.314 250.055 389.792 249.818 390.408C249.581 391.018 249.463 391.731 249.463 392.545ZM260.003 398V387.091H264.463C265.637 387.091 266.57 387.356 267.261 387.886C267.953 388.417 268.298 389.117 268.298 389.989C268.298 390.652 268.102 391.165 267.709 391.53C267.316 391.89 266.812 392.134 266.196 392.261C266.598 392.318 266.989 392.46 267.368 392.688C267.751 392.915 268.069 393.227 268.32 393.625C268.571 394.018 268.696 394.501 268.696 395.074C268.696 395.633 268.554 396.132 268.27 396.572C267.986 397.013 267.579 397.361 267.048 397.616C266.518 397.872 265.884 398 265.145 398H260.003ZM261.594 396.466H265.145C265.723 396.466 266.175 396.329 266.501 396.054C266.828 395.779 266.991 395.405 266.991 394.932C266.991 394.368 266.828 393.926 266.501 393.604C266.175 393.277 265.723 393.114 265.145 393.114H261.594V396.466ZM261.594 391.665H264.463C264.913 391.665 265.299 391.603 265.621 391.48C265.943 391.352 266.189 391.172 266.359 390.94C266.535 390.704 266.622 390.424 266.622 390.102C266.622 389.643 266.43 389.283 266.047 389.023C265.663 388.758 265.135 388.625 264.463 388.625H261.594V391.665ZM272.682 391.04H275.807C277.086 391.04 278.063 391.364 278.74 392.013C279.417 392.661 279.756 393.483 279.756 394.477C279.756 395.131 279.605 395.725 279.301 396.26C278.998 396.79 278.553 397.214 277.966 397.531C277.379 397.844 276.659 398 275.807 398H271.233V387.091H272.909V396.438H275.807C276.47 396.438 277.015 396.262 277.441 395.912C277.867 395.562 278.08 395.112 278.08 394.562C278.08 393.985 277.867 393.514 277.441 393.149C277.015 392.785 276.47 392.602 275.807 392.602H272.682V391.04ZM281.489 398V387.091H283.165V398H281.489ZM287.909 395.528L293.165 387.091H295.097V398H293.421V389.562L288.194 398H286.233V387.091H287.909V395.528ZM292.057 383.455H293.62C293.62 384.222 293.355 384.849 292.824 385.337C292.294 385.824 291.574 386.068 290.665 386.068C289.77 386.068 289.058 385.824 288.527 385.337C288.002 384.849 287.739 384.222 287.739 383.455H289.301C289.301 383.824 289.403 384.148 289.607 384.428C289.815 384.707 290.168 384.847 290.665 384.847C291.162 384.847 291.517 384.707 291.73 384.428C291.948 384.148 292.057 383.824 292.057 383.455ZM303.792 398V387.091H312.371V398H310.695V388.653H305.468V398H303.792ZM316.121 402.091C315.837 402.091 315.584 402.067 315.362 402.02C315.139 401.977 314.985 401.935 314.9 401.892L315.326 400.415C315.733 400.519 316.093 400.557 316.406 400.528C316.718 400.5 316.995 400.36 317.237 400.109C317.483 399.863 317.708 399.463 317.911 398.909L318.224 398.057L314.19 387.091H316.008L319.019 395.784H319.133L322.144 387.091H323.962L319.332 399.591C319.123 400.154 318.865 400.621 318.558 400.99C318.25 401.364 317.892 401.641 317.485 401.821C317.083 402.001 316.628 402.091 316.121 402.091ZM333.476 391.778V393.341H327.453V391.778H333.476ZM327.851 387.091V398H326.175V387.091H327.851ZM334.754 387.091V398H333.078V387.091H334.754ZM337.815 398V387.091H339.491V391.835H340.599L344.52 387.091H346.679L342.276 392.347L346.736 398H344.577L340.997 393.398H339.491V398H337.815ZM347.933 388.653V387.091H356.796V388.653H353.217V398H351.54V388.653H347.933Z" fill="#0A2832"/>
<path d="M194.506 442V440.722L199.307 435.466C199.87 434.85 200.334 434.315 200.699 433.861C201.063 433.402 201.333 432.971 201.509 432.568C201.688 432.161 201.778 431.735 201.778 431.29C201.778 430.778 201.655 430.336 201.409 429.962C201.168 429.588 200.836 429.299 200.415 429.095C199.993 428.892 199.52 428.79 198.994 428.79C198.436 428.79 197.948 428.906 197.531 429.138C197.119 429.365 196.8 429.685 196.572 430.097C196.35 430.509 196.239 430.991 196.239 431.545H194.562C194.562 430.693 194.759 429.945 195.152 429.301C195.545 428.657 196.08 428.155 196.757 427.795C197.439 427.436 198.204 427.256 199.051 427.256C199.903 427.256 200.659 427.436 201.317 427.795C201.975 428.155 202.491 428.641 202.865 429.251C203.239 429.862 203.426 430.542 203.426 431.29C203.426 431.825 203.329 432.348 203.135 432.859C202.946 433.366 202.614 433.932 202.141 434.557C201.672 435.177 201.021 435.935 200.188 436.83L196.92 440.324V440.438H203.682V442H194.506ZM207.865 442.114C207.515 442.114 207.214 441.988 206.963 441.737C206.712 441.486 206.587 441.186 206.587 440.835C206.587 440.485 206.712 440.184 206.963 439.933C207.214 439.682 207.515 439.557 207.865 439.557C208.215 439.557 208.516 439.682 208.767 439.933C209.018 440.184 209.143 440.485 209.143 440.835C209.143 441.067 209.084 441.28 208.966 441.474C208.852 441.669 208.698 441.825 208.504 441.943C208.315 442.057 208.102 442.114 207.865 442.114Z" fill="#0A2832"/>
<path d="M228.534 442V431.091H232.994C234.169 431.091 235.101 431.356 235.793 431.886C236.484 432.417 236.83 433.117 236.83 433.989C236.83 434.652 236.633 435.165 236.24 435.53C235.847 435.89 235.343 436.134 234.727 436.261C235.13 436.318 235.52 436.46 235.899 436.688C236.283 436.915 236.6 437.227 236.851 437.625C237.102 438.018 237.227 438.501 237.227 439.074C237.227 439.633 237.085 440.132 236.801 440.572C236.517 441.013 236.11 441.361 235.58 441.616C235.049 441.872 234.415 442 233.676 442H228.534ZM230.125 440.466H233.676C234.254 440.466 234.706 440.329 235.033 440.054C235.359 439.779 235.523 439.405 235.523 438.932C235.523 438.368 235.359 437.926 235.033 437.604C234.706 437.277 234.254 437.114 233.676 437.114H230.125V440.466ZM230.125 435.665H232.994C233.444 435.665 233.83 435.603 234.152 435.48C234.474 435.352 234.72 435.172 234.891 434.94C235.066 434.704 235.153 434.424 235.153 434.102C235.153 433.643 234.962 433.283 234.578 433.023C234.195 432.758 233.667 432.625 232.994 432.625H230.125V435.665ZM239.14 432.653V431.091H248.003V432.653H244.424V442H242.748V432.653H239.14ZM254.314 442.227C253.329 442.227 252.465 441.993 251.721 441.524C250.983 441.055 250.405 440.4 249.988 439.557C249.576 438.714 249.37 437.729 249.37 436.602C249.37 435.466 249.576 434.474 249.988 433.626C250.405 432.779 250.983 432.121 251.721 431.652C252.465 431.183 253.329 430.949 254.314 430.949C255.298 430.949 256.16 431.183 256.899 431.652C257.642 432.121 258.22 432.779 258.632 433.626C259.048 434.474 259.257 435.466 259.257 436.602C259.257 437.729 259.048 438.714 258.632 439.557C258.22 440.4 257.642 441.055 256.899 441.524C256.16 441.993 255.298 442.227 254.314 442.227ZM254.314 440.722C255.062 440.722 255.677 440.53 256.16 440.146C256.643 439.763 257.001 439.259 257.233 438.634C257.465 438.009 257.581 437.331 257.581 436.602C257.581 435.873 257.465 435.194 257.233 434.564C257.001 433.934 256.643 433.425 256.16 433.037C255.677 432.649 255.062 432.455 254.314 432.455C253.565 432.455 252.95 432.649 252.467 433.037C251.984 433.425 251.627 433.934 251.395 434.564C251.163 435.194 251.047 435.873 251.047 436.602C251.047 437.331 251.163 438.009 251.395 438.634C251.627 439.259 251.984 439.763 252.467 440.146C252.95 440.53 253.565 440.722 254.314 440.722ZM261.815 446.091V431.091H263.435V432.824H263.634C263.757 432.634 263.927 432.393 264.145 432.099C264.367 431.801 264.685 431.536 265.097 431.304C265.513 431.067 266.077 430.949 266.787 430.949C267.705 430.949 268.515 431.179 269.216 431.638C269.917 432.097 270.464 432.748 270.857 433.591C271.25 434.434 271.446 435.428 271.446 436.574C271.446 437.729 271.25 438.731 270.857 439.578C270.464 440.421 269.919 441.074 269.223 441.538C268.527 441.998 267.724 442.227 266.815 442.227C266.115 442.227 265.554 442.111 265.132 441.879C264.711 441.643 264.386 441.375 264.159 441.077C263.932 440.774 263.757 440.523 263.634 440.324H263.491V446.091H261.815ZM263.463 436.545C263.463 437.369 263.584 438.096 263.825 438.726C264.067 439.351 264.42 439.841 264.884 440.196C265.348 440.546 265.916 440.722 266.588 440.722C267.289 440.722 267.874 440.537 268.342 440.168C268.816 439.794 269.171 439.292 269.408 438.662C269.649 438.027 269.77 437.322 269.77 436.545C269.77 435.778 269.652 435.087 269.415 434.472C269.183 433.851 268.83 433.361 268.357 433.001C267.888 432.637 267.298 432.455 266.588 432.455C265.906 432.455 265.333 432.627 264.869 432.973C264.405 433.314 264.055 433.792 263.818 434.408C263.581 435.018 263.463 435.731 263.463 436.545ZM278.435 442.227C277.45 442.227 276.586 441.993 275.842 441.524C275.104 441.055 274.526 440.4 274.109 439.557C273.697 438.714 273.491 437.729 273.491 436.602C273.491 435.466 273.697 434.474 274.109 433.626C274.526 432.779 275.104 432.121 275.842 431.652C276.586 431.183 277.45 430.949 278.435 430.949C279.42 430.949 280.281 431.183 281.02 431.652C281.763 432.121 282.341 432.779 282.753 433.626C283.17 434.474 283.378 435.466 283.378 436.602C283.378 437.729 283.17 438.714 282.753 439.557C282.341 440.4 281.763 441.055 281.02 441.524C280.281 441.993 279.42 442.227 278.435 442.227ZM278.435 440.722C279.183 440.722 279.798 440.53 280.281 440.146C280.764 439.763 281.122 439.259 281.354 438.634C281.586 438.009 281.702 437.331 281.702 436.602C281.702 435.873 281.586 435.194 281.354 434.564C281.122 433.934 280.764 433.425 280.281 433.037C279.798 432.649 279.183 432.455 278.435 432.455C277.687 432.455 277.071 432.649 276.588 433.037C276.105 433.425 275.748 433.934 275.516 434.564C275.284 435.194 275.168 435.873 275.168 436.602C275.168 437.331 275.284 438.009 275.516 438.634C275.748 439.259 276.105 439.763 276.588 440.146C277.071 440.53 277.687 440.722 278.435 440.722ZM287.613 439.528L292.868 431.091H294.8V442H293.124V433.562L287.897 442H285.936V431.091H287.613V439.528ZM291.76 427.455H293.323C293.323 428.222 293.058 428.849 292.527 429.337C291.997 429.824 291.277 430.068 290.368 430.068C289.473 430.068 288.761 429.824 288.23 429.337C287.705 428.849 287.442 428.222 287.442 427.455H289.005C289.005 427.824 289.106 428.148 289.31 428.428C289.518 428.707 289.871 428.847 290.368 428.847C290.865 428.847 291.221 428.707 291.434 428.428C291.651 428.148 291.76 427.824 291.76 427.455ZM303.495 442V431.091H312.075V442H310.398V432.653H305.171V442H303.495ZM315.825 446.091C315.54 446.091 315.287 446.067 315.065 446.02C314.842 445.977 314.688 445.935 314.603 445.892L315.029 444.415C315.436 444.519 315.796 444.557 316.109 444.528C316.421 444.5 316.698 444.36 316.94 444.109C317.186 443.863 317.411 443.463 317.614 442.909L317.927 442.057L313.893 431.091H315.711L318.722 439.784H318.836L321.847 431.091H323.665L319.035 443.591C318.826 444.154 318.568 444.621 318.261 444.99C317.953 445.364 317.595 445.641 317.188 445.821C316.786 446.001 316.331 446.091 315.825 446.091ZM333.179 435.778V437.341H327.156V435.778H333.179ZM327.554 431.091V442H325.878V431.091H327.554ZM334.457 431.091V442H332.781V431.091H334.457ZM337.518 442V431.091H339.195V435.835H340.303L344.223 431.091H346.382L341.979 436.347L346.439 442H344.28L340.7 437.398H339.195V442H337.518ZM347.636 432.653V431.091H356.499V432.653H352.92V442H351.244V432.653H347.636Z" fill="#0A2832"/>
<path d="M199.42 486.199C198.483 486.199 197.647 486.038 196.913 485.716C196.184 485.394 195.604 484.946 195.173 484.374C194.747 483.796 194.515 483.126 194.477 482.364H196.267C196.305 482.832 196.466 483.237 196.75 483.578C197.034 483.914 197.406 484.175 197.865 484.359C198.324 484.544 198.833 484.636 199.392 484.636C200.017 484.636 200.571 484.527 201.054 484.31C201.537 484.092 201.916 483.789 202.19 483.401C202.465 483.012 202.602 482.562 202.602 482.051C202.602 481.516 202.47 481.045 202.205 480.638C201.939 480.226 201.551 479.904 201.04 479.672C200.528 479.44 199.903 479.324 199.165 479.324H198V477.761H199.165C199.742 477.761 200.249 477.657 200.685 477.449C201.125 477.241 201.468 476.947 201.714 476.568C201.965 476.189 202.091 475.744 202.091 475.233C202.091 474.741 201.982 474.312 201.764 473.947C201.546 473.583 201.239 473.299 200.841 473.095C200.448 472.892 199.984 472.79 199.449 472.79C198.947 472.79 198.473 472.882 198.028 473.067C197.588 473.247 197.228 473.509 196.949 473.855C196.67 474.196 196.518 474.608 196.494 475.091H194.79C194.818 474.329 195.048 473.661 195.479 473.088C195.91 472.51 196.473 472.061 197.169 471.739C197.87 471.417 198.639 471.256 199.477 471.256C200.377 471.256 201.149 471.438 201.793 471.803C202.437 472.162 202.931 472.638 203.277 473.23C203.623 473.822 203.795 474.461 203.795 475.148C203.795 475.967 203.58 476.665 203.149 477.243C202.723 477.821 202.143 478.221 201.409 478.443V478.557C202.328 478.708 203.045 479.099 203.561 479.729C204.077 480.354 204.335 481.128 204.335 482.051C204.335 482.842 204.12 483.552 203.689 484.182C203.263 484.807 202.68 485.299 201.942 485.659C201.203 486.019 200.363 486.199 199.42 486.199ZM208.041 486.114C207.69 486.114 207.39 485.988 207.139 485.737C206.888 485.486 206.762 485.186 206.762 484.835C206.762 484.485 206.888 484.184 207.139 483.933C207.39 483.682 207.69 483.557 208.041 483.557C208.391 483.557 208.692 483.682 208.943 483.933C209.194 484.184 209.319 484.485 209.319 484.835C209.319 485.067 209.26 485.28 209.142 485.474C209.028 485.669 208.874 485.825 208.68 485.943C208.491 486.057 208.278 486.114 208.041 486.114Z" fill="#0A2832"/>
<path d="M227.909 476.653V475.091H236.773V476.653H233.193V486H231.517V476.653H227.909ZM239.218 490.091V475.091H240.837V476.824H241.036C241.159 476.634 241.329 476.393 241.547 476.099C241.77 475.801 242.087 475.536 242.499 475.304C242.916 475.067 243.479 474.949 244.189 474.949C245.108 474.949 245.917 475.179 246.618 475.638C247.319 476.097 247.866 476.748 248.259 477.591C248.652 478.434 248.848 479.428 248.848 480.574C248.848 481.729 248.652 482.731 248.259 483.578C247.866 484.421 247.321 485.074 246.625 485.538C245.929 485.998 245.127 486.227 244.218 486.227C243.517 486.227 242.956 486.111 242.534 485.879C242.113 485.643 241.789 485.375 241.561 485.077C241.334 484.774 241.159 484.523 241.036 484.324H240.894V490.091H239.218ZM240.865 480.545C240.865 481.369 240.986 482.096 241.228 482.726C241.469 483.351 241.822 483.841 242.286 484.196C242.75 484.546 243.318 484.722 243.99 484.722C244.691 484.722 245.276 484.537 245.745 484.168C246.218 483.794 246.573 483.292 246.81 482.662C247.051 482.027 247.172 481.322 247.172 480.545C247.172 479.778 247.054 479.087 246.817 478.472C246.585 477.851 246.232 477.361 245.759 477.001C245.29 476.637 244.701 476.455 243.99 476.455C243.309 476.455 242.736 476.627 242.272 476.973C241.808 477.314 241.457 477.792 241.221 478.408C240.984 479.018 240.865 479.731 240.865 480.545ZM255.979 486.227C254.928 486.227 254.021 485.995 253.259 485.531C252.501 485.062 251.917 484.409 251.505 483.571C251.097 482.728 250.894 481.748 250.894 480.631C250.894 479.513 251.097 478.528 251.505 477.676C251.917 476.819 252.489 476.152 253.223 475.673C253.962 475.19 254.824 474.949 255.809 474.949C256.377 474.949 256.938 475.044 257.492 475.233C258.046 475.422 258.55 475.73 259.005 476.156C259.459 476.578 259.821 477.136 260.091 477.832C260.361 478.528 260.496 479.385 260.496 480.403V481.114H252.087V479.665H258.792C258.792 479.049 258.668 478.5 258.422 478.017C258.181 477.534 257.835 477.153 257.385 476.874C256.94 476.594 256.415 476.455 255.809 476.455C255.141 476.455 254.563 476.62 254.076 476.952C253.593 477.278 253.221 477.705 252.961 478.23C252.7 478.756 252.57 479.319 252.57 479.92V480.886C252.57 481.71 252.712 482.409 252.996 482.982C253.285 483.55 253.685 483.983 254.196 484.281C254.708 484.575 255.302 484.722 255.979 484.722C256.419 484.722 256.817 484.66 257.172 484.537C257.532 484.409 257.842 484.22 258.103 483.969C258.363 483.713 258.564 483.396 258.706 483.017L260.326 483.472C260.155 484.021 259.869 484.504 259.466 484.92C259.064 485.332 258.567 485.654 257.975 485.886C257.383 486.114 256.718 486.227 255.979 486.227ZM262.03 476.653V475.091H270.894V476.653H267.314V486H265.638V476.653H262.03ZM275.015 483.528L280.271 475.091H282.202V486H280.526V477.562L275.299 486H273.339V475.091H275.015V483.528ZM286.949 483.528L292.204 475.091H294.136V486H292.46V477.562L287.233 486H285.272V475.091H286.949V483.528ZM291.096 471.455H292.659C292.659 472.222 292.394 472.849 291.863 473.337C291.333 473.824 290.613 474.068 289.704 474.068C288.809 474.068 288.097 473.824 287.566 473.337C287.041 472.849 286.778 472.222 286.778 471.455H288.341C288.341 471.824 288.442 472.148 288.646 472.428C288.854 472.707 289.207 472.847 289.704 472.847C290.201 472.847 290.556 472.707 290.77 472.428C290.987 472.148 291.096 471.824 291.096 471.455ZM302.831 486V475.091H311.411V486H309.734V476.653H304.507V486H302.831ZM315.161 490.091C314.876 490.091 314.623 490.067 314.401 490.02C314.178 489.977 314.024 489.935 313.939 489.892L314.365 488.415C314.772 488.519 315.132 488.557 315.445 488.528C315.757 488.5 316.034 488.36 316.276 488.109C316.522 487.863 316.747 487.463 316.95 486.909L317.263 486.057L313.229 475.091H315.047L318.058 483.784H318.172L321.183 475.091H323.001L318.371 487.591C318.162 488.154 317.904 488.621 317.597 488.99C317.289 489.364 316.931 489.641 316.524 489.821C316.122 490.001 315.667 490.091 315.161 490.091ZM332.515 479.778V481.341H326.492V479.778H332.515ZM326.89 475.091V486H325.214V475.091H326.89ZM333.793 475.091V486H332.117V475.091H333.793ZM336.854 486V475.091H338.531V479.835H339.638L343.559 475.091H345.718L341.315 480.347L345.775 486H343.616L340.036 481.398H338.531V486H336.854ZM346.972 476.653V475.091H355.835V476.653H352.256V486H350.58V476.653H346.972Z" fill="#0A2832"/>
<path d="M162.761 111V96.4545H164.523V102.932H172.278V96.4545H174.04V111H172.278V104.494H164.523V111H162.761ZM178.418 115.091C178.134 115.091 177.881 115.067 177.658 115.02C177.436 114.977 177.282 114.935 177.197 114.892L177.623 113.415C178.03 113.519 178.39 113.557 178.702 113.528C179.015 113.5 179.292 113.36 179.533 113.109C179.78 112.863 180.004 112.463 180.208 111.909L180.521 111.057L176.487 100.091H178.305L181.316 108.784H181.43L184.441 100.091H186.259L181.629 112.591C181.42 113.154 181.162 113.621 180.854 113.99C180.547 114.364 180.189 114.641 179.782 114.821C179.379 115.001 178.925 115.091 178.418 115.091ZM194.438 108.727L198.244 100.091H199.835L195.119 111H193.756L189.125 100.091H190.688L194.438 108.727ZM190.148 100.091V111H188.472V100.091H190.148ZM198.727 111V100.091H200.403V111H198.727ZM208.045 111.227C206.994 111.227 206.088 110.995 205.325 110.531C204.568 110.062 203.983 109.409 203.571 108.571C203.164 107.728 202.96 106.748 202.96 105.631C202.96 104.513 203.164 103.528 203.571 102.676C203.983 101.819 204.556 101.152 205.29 100.673C206.028 100.19 206.89 99.9489 207.875 99.9489C208.443 99.9489 209.004 100.044 209.558 100.233C210.112 100.422 210.616 100.73 211.071 101.156C211.526 101.578 211.888 102.136 212.158 102.832C212.428 103.528 212.562 104.385 212.562 105.403V106.114H204.153V104.665H210.858C210.858 104.049 210.735 103.5 210.489 103.017C210.247 102.534 209.902 102.153 209.452 101.874C209.007 101.594 208.481 101.455 207.875 101.455C207.207 101.455 206.63 101.62 206.142 101.952C205.659 102.278 205.287 102.705 205.027 103.23C204.767 103.756 204.636 104.319 204.636 104.92V105.886C204.636 106.71 204.778 107.409 205.062 107.982C205.351 108.55 205.751 108.983 206.263 109.281C206.774 109.575 207.368 109.722 208.045 109.722C208.486 109.722 208.884 109.66 209.239 109.537C209.598 109.409 209.909 109.22 210.169 108.969C210.429 108.713 210.631 108.396 210.773 108.017L212.392 108.472C212.222 109.021 211.935 109.504 211.533 109.92C211.13 110.332 210.633 110.654 210.041 110.886C209.449 111.114 208.784 111.227 208.045 111.227ZM215.112 115.091V100.091H216.732V101.824H216.93C217.054 101.634 217.224 101.393 217.442 101.099C217.664 100.801 217.982 100.536 218.393 100.304C218.81 100.067 219.374 99.9489 220.084 99.9489C221.002 99.9489 221.812 100.179 222.513 100.638C223.214 101.097 223.76 101.748 224.153 102.591C224.546 103.434 224.743 104.428 224.743 105.574C224.743 106.729 224.546 107.731 224.153 108.578C223.76 109.421 223.216 110.074 222.52 110.538C221.824 110.998 221.021 111.227 220.112 111.227C219.411 111.227 218.85 111.111 218.429 110.879C218.008 110.643 217.683 110.375 217.456 110.077C217.229 109.774 217.054 109.523 216.93 109.324H216.788V115.091H215.112ZM216.76 105.545C216.76 106.369 216.881 107.096 217.122 107.726C217.364 108.351 217.716 108.841 218.18 109.196C218.644 109.546 219.213 109.722 219.885 109.722C220.586 109.722 221.17 109.537 221.639 109.168C222.113 108.794 222.468 108.292 222.705 107.662C222.946 107.027 223.067 106.322 223.067 105.545C223.067 104.778 222.948 104.087 222.712 103.472C222.48 102.851 222.127 102.361 221.653 102.001C221.185 101.637 220.595 101.455 219.885 101.455C219.203 101.455 218.63 101.627 218.166 101.973C217.702 102.314 217.352 102.792 217.115 103.408C216.878 104.018 216.76 104.731 216.76 105.545ZM231.732 111.227C230.747 111.227 229.883 110.993 229.139 110.524C228.401 110.055 227.823 109.4 227.406 108.557C226.994 107.714 226.788 106.729 226.788 105.602C226.788 104.466 226.994 103.474 227.406 102.626C227.823 101.779 228.401 101.121 229.139 100.652C229.883 100.183 230.747 99.9489 231.732 99.9489C232.716 99.9489 233.578 100.183 234.317 100.652C235.06 101.121 235.638 101.779 236.05 102.626C236.466 103.474 236.675 104.466 236.675 105.602C236.675 106.729 236.466 107.714 236.05 108.557C235.638 109.4 235.06 110.055 234.317 110.524C233.578 110.993 232.716 111.227 231.732 111.227ZM231.732 109.722C232.48 109.722 233.095 109.53 233.578 109.146C234.061 108.763 234.419 108.259 234.651 107.634C234.883 107.009 234.999 106.331 234.999 105.602C234.999 104.873 234.883 104.194 234.651 103.564C234.419 102.934 234.061 102.425 233.578 102.037C233.095 101.649 232.48 101.455 231.732 101.455C230.983 101.455 230.368 101.649 229.885 102.037C229.402 102.425 229.045 102.934 228.812 103.564C228.58 104.194 228.464 104.873 228.464 105.602C228.464 106.331 228.58 107.009 228.812 107.634C229.045 108.259 229.402 108.763 229.885 109.146C230.368 109.53 230.983 109.722 231.732 109.722ZM239.233 111V100.091H243.694C244.868 100.091 245.801 100.356 246.492 100.886C247.183 101.417 247.529 102.117 247.529 102.989C247.529 103.652 247.332 104.165 246.939 104.53C246.546 104.89 246.042 105.134 245.426 105.261C245.829 105.318 246.22 105.46 246.598 105.688C246.982 105.915 247.299 106.227 247.55 106.625C247.801 107.018 247.926 107.501 247.926 108.074C247.926 108.633 247.784 109.132 247.5 109.572C247.216 110.013 246.809 110.361 246.279 110.616C245.748 110.872 245.114 111 244.375 111H239.233ZM240.824 109.466H244.375C244.953 109.466 245.405 109.329 245.732 109.054C246.059 108.779 246.222 108.405 246.222 107.932C246.222 107.368 246.059 106.926 245.732 106.604C245.405 106.277 244.953 106.114 244.375 106.114H240.824V109.466ZM240.824 104.665H243.694C244.143 104.665 244.529 104.603 244.851 104.48C245.173 104.352 245.419 104.172 245.59 103.94C245.765 103.704 245.853 103.424 245.853 103.102C245.853 102.643 245.661 102.283 245.277 102.023C244.894 101.758 244.366 101.625 243.694 101.625H240.824V104.665ZM253.674 111.256C252.983 111.256 252.355 111.125 251.792 110.865C251.228 110.6 250.781 110.219 250.45 109.722C250.118 109.22 249.952 108.614 249.952 107.903C249.952 107.278 250.076 106.772 250.322 106.384C250.568 105.991 250.897 105.683 251.309 105.46C251.721 105.238 252.175 105.072 252.673 104.963C253.174 104.849 253.679 104.759 254.185 104.693C254.848 104.608 255.386 104.544 255.798 104.501C256.214 104.454 256.517 104.376 256.707 104.267C256.901 104.158 256.998 103.969 256.998 103.699V103.642C256.998 102.941 256.806 102.397 256.423 102.009C256.044 101.62 255.469 101.426 254.697 101.426C253.897 101.426 253.269 101.601 252.815 101.952C252.36 102.302 252.04 102.676 251.856 103.074L250.265 102.506C250.549 101.843 250.928 101.327 251.401 100.957C251.879 100.583 252.4 100.323 252.964 100.176C253.532 100.025 254.091 99.9489 254.64 99.9489C254.99 99.9489 255.393 99.9915 255.847 100.077C256.307 100.157 256.749 100.325 257.175 100.581C257.606 100.837 257.964 101.223 258.248 101.739C258.532 102.255 258.674 102.946 258.674 103.812V111H256.998V109.523H256.913C256.799 109.759 256.61 110.013 256.344 110.283C256.079 110.553 255.727 110.782 255.286 110.972C254.846 111.161 254.308 111.256 253.674 111.256ZM253.93 109.75C254.593 109.75 255.151 109.62 255.606 109.359C256.065 109.099 256.411 108.763 256.643 108.351C256.879 107.939 256.998 107.506 256.998 107.051V105.517C256.927 105.602 256.771 105.68 256.529 105.751C256.292 105.818 256.018 105.877 255.705 105.929C255.397 105.976 255.097 106.019 254.803 106.057C254.514 106.09 254.28 106.118 254.1 106.142C253.665 106.199 253.257 106.291 252.879 106.419C252.504 106.542 252.201 106.729 251.969 106.98C251.742 107.226 251.629 107.562 251.629 107.989C251.629 108.571 251.844 109.011 252.275 109.31C252.71 109.603 253.262 109.75 253.93 109.75ZM269.034 104.778V106.341H263.012V104.778H269.034ZM263.409 100.091V111H261.733V100.091H263.409ZM270.313 100.091V111H268.637V100.091H270.313ZM280.675 104.778V106.341H274.652V104.778H280.675ZM275.05 100.091V111H273.374V100.091H275.05ZM281.953 100.091V111H280.277V100.091H281.953ZM286.463 104.04H289.588C290.867 104.04 291.845 104.364 292.522 105.013C293.199 105.661 293.537 106.483 293.537 107.477C293.537 108.131 293.386 108.725 293.083 109.26C292.78 109.79 292.335 110.214 291.748 110.531C291.16 110.844 290.441 111 289.588 111H285.015V100.091H286.691V109.438H289.588C290.251 109.438 290.796 109.262 291.222 108.912C291.648 108.562 291.861 108.112 291.861 107.562C291.861 106.985 291.648 106.514 291.222 106.149C290.796 105.785 290.251 105.602 289.588 105.602H286.463V104.04ZM295.27 111V100.091H296.946V111H295.27ZM301.691 108.528L306.946 100.091H308.878V111H307.202V102.562L301.975 111H300.015V100.091H301.691V108.528ZM305.838 96.4545H307.401C307.401 97.2216 307.136 97.849 306.605 98.3366C306.075 98.8243 305.355 99.0682 304.446 99.0682C303.551 99.0682 302.839 98.8243 302.309 98.3366C301.783 97.849 301.52 97.2216 301.52 96.4545H303.083C303.083 96.8239 303.185 97.1482 303.388 97.4276C303.596 97.7069 303.949 97.8466 304.446 97.8466C304.944 97.8466 305.299 97.7069 305.512 97.4276C305.73 97.1482 305.838 96.8239 305.838 96.4545ZM322.005 111.227C320.982 111.227 320.102 110.986 319.363 110.503C318.624 110.02 318.056 109.355 317.658 108.507C317.261 107.66 317.062 106.691 317.062 105.602C317.062 104.494 317.265 103.517 317.673 102.669C318.085 101.817 318.657 101.152 319.391 100.673C320.13 100.19 320.992 99.9489 321.977 99.9489C322.744 99.9489 323.435 100.091 324.05 100.375C324.666 100.659 325.17 101.057 325.563 101.568C325.956 102.08 326.2 102.676 326.295 103.358H324.619C324.491 102.861 324.207 102.42 323.766 102.037C323.331 101.649 322.744 101.455 322.005 101.455C321.352 101.455 320.779 101.625 320.286 101.966C319.799 102.302 319.417 102.778 319.143 103.393C318.873 104.004 318.738 104.722 318.738 105.545C318.738 106.388 318.871 107.122 319.136 107.747C319.406 108.372 319.784 108.857 320.272 109.203C320.764 109.549 321.342 109.722 322.005 109.722C322.441 109.722 322.836 109.646 323.191 109.494C323.546 109.343 323.847 109.125 324.093 108.841C324.339 108.557 324.514 108.216 324.619 107.818H326.295C326.2 108.462 325.966 109.042 325.592 109.558C325.222 110.07 324.732 110.477 324.121 110.78C323.515 111.078 322.81 111.227 322.005 111.227ZM328.745 111V100.091H337.325V111H335.648V101.653H330.421V111H328.745ZM342.062 108.528L347.317 100.091H349.249V111H347.573V102.562L342.346 111H340.386V100.091H342.062V108.528ZM356.751 111.227C355.728 111.227 354.848 110.986 354.109 110.503C353.37 110.02 352.802 109.355 352.404 108.507C352.007 107.66 351.808 106.691 351.808 105.602C351.808 104.494 352.011 103.517 352.419 102.669C352.831 101.817 353.404 101.152 354.137 100.673C354.876 100.19 355.738 99.9489 356.723 99.9489C357.49 99.9489 358.181 100.091 358.797 100.375C359.412 100.659 359.916 101.057 360.309 101.568C360.702 102.08 360.946 102.676 361.041 103.358H359.365C359.237 102.861 358.953 102.42 358.512 102.037C358.077 101.649 357.49 101.455 356.751 101.455C356.098 101.455 355.525 101.625 355.032 101.966C354.545 102.302 354.163 102.778 353.889 103.393C353.619 104.004 353.484 104.722 353.484 105.545C353.484 106.388 353.617 107.122 353.882 107.747C354.152 108.372 354.53 108.857 355.018 109.203C355.511 109.549 356.088 109.722 356.751 109.722C357.187 109.722 357.582 109.646 357.937 109.494C358.292 109.343 358.593 109.125 358.839 108.841C359.085 108.557 359.261 108.216 359.365 107.818H361.041C360.946 108.462 360.712 109.042 360.338 109.558C359.968 110.07 359.478 110.477 358.868 110.78C358.261 111.078 357.556 111.227 356.751 111.227ZM367.923 111.227C366.938 111.227 366.074 110.993 365.331 110.524C364.592 110.055 364.014 109.4 363.598 108.557C363.186 107.714 362.98 106.729 362.98 105.602C362.98 104.466 363.186 103.474 363.598 102.626C364.014 101.779 364.592 101.121 365.331 100.652C366.074 100.183 366.938 99.9489 367.923 99.9489C368.908 99.9489 369.77 100.183 370.508 100.652C371.252 101.121 371.829 101.779 372.241 102.626C372.658 103.474 372.866 104.466 372.866 105.602C372.866 106.729 372.658 107.714 372.241 108.557C371.829 109.4 371.252 110.055 370.508 110.524C369.77 110.993 368.908 111.227 367.923 111.227ZM367.923 109.722C368.671 109.722 369.287 109.53 369.77 109.146C370.252 108.763 370.61 108.259 370.842 107.634C371.074 107.009 371.19 106.331 371.19 105.602C371.19 104.873 371.074 104.194 370.842 103.564C370.61 102.934 370.252 102.425 369.77 102.037C369.287 101.649 368.671 101.455 367.923 101.455C367.175 101.455 366.559 101.649 366.076 102.037C365.593 102.425 365.236 102.934 365.004 103.564C364.772 104.194 364.656 104.873 364.656 105.602C364.656 106.331 364.772 107.009 365.004 107.634C365.236 108.259 365.593 108.763 366.076 109.146C366.559 109.53 367.175 109.722 367.923 109.722ZM375.425 111V100.091H377.101V104.835H378.209L382.129 100.091H384.288L379.885 105.347L384.345 111H382.186L378.607 106.398H377.101V111H375.425ZM387.388 111.114C387.038 111.114 386.737 110.988 386.487 110.737C386.236 110.486 386.11 110.186 386.11 109.835C386.11 109.485 386.236 109.184 386.487 108.933C386.737 108.682 387.038 108.557 387.388 108.557C387.739 108.557 388.04 108.682 388.29 108.933C388.541 109.184 388.667 109.485 388.667 109.835C388.667 110.067 388.608 110.28 388.489 110.474C388.376 110.669 388.222 110.825 388.028 110.943C387.838 111.057 387.625 111.114 387.388 111.114ZM387.388 103.017C387.038 103.017 386.737 102.892 386.487 102.641C386.236 102.39 386.11 102.089 386.11 101.739C386.11 101.388 386.236 101.088 386.487 100.837C386.737 100.586 387.038 100.46 387.388 100.46C387.739 100.46 388.04 100.586 388.29 100.837C388.541 101.088 388.667 101.388 388.667 101.739C388.667 101.971 388.608 102.184 388.489 102.378C388.376 102.572 388.222 102.728 388.028 102.847C387.838 102.96 387.625 103.017 387.388 103.017Z" fill="#0A2832"/>
<path d="M199.619 140.455V155H197.858V142.301H197.773L194.222 144.659V142.869L197.858 140.455H199.619ZM204.193 155.114C203.843 155.114 203.542 154.988 203.291 154.737C203.04 154.486 202.915 154.186 202.915 153.835C202.915 153.485 203.04 153.184 203.291 152.933C203.542 152.682 203.843 152.557 204.193 152.557C204.544 152.557 204.844 152.682 205.095 152.933C205.346 153.184 205.472 153.485 205.472 153.835C205.472 154.067 205.412 154.28 205.294 154.474C205.18 154.669 205.027 154.825 204.832 154.943C204.643 155.057 204.43 155.114 204.193 155.114Z" fill="#0A2832"/>
<path d="M224.534 155V144.091H233.114V155H231.438V145.653H226.21V155H224.534ZM240.749 155.227C239.697 155.227 238.791 154.995 238.028 154.531C237.271 154.062 236.686 153.409 236.274 152.571C235.867 151.728 235.663 150.748 235.663 149.631C235.663 148.513 235.867 147.528 236.274 146.676C236.686 145.819 237.259 145.152 237.993 144.673C238.732 144.19 239.593 143.949 240.578 143.949C241.146 143.949 241.707 144.044 242.261 144.233C242.815 144.422 243.32 144.73 243.774 145.156C244.229 145.578 244.591 146.136 244.861 146.832C245.131 147.528 245.266 148.385 245.266 149.403V150.114H236.857V148.665H243.561C243.561 148.049 243.438 147.5 243.192 147.017C242.95 146.534 242.605 146.153 242.155 145.874C241.71 145.594 241.184 145.455 240.578 145.455C239.911 145.455 239.333 145.62 238.845 145.952C238.362 146.278 237.991 146.705 237.73 147.23C237.47 147.756 237.339 148.319 237.339 148.92V149.886C237.339 150.71 237.482 151.409 237.766 151.982C238.054 152.55 238.455 152.983 238.966 153.281C239.477 153.575 240.071 153.722 240.749 153.722C241.189 153.722 241.587 153.66 241.942 153.537C242.302 153.409 242.612 153.22 242.872 152.969C243.133 152.713 243.334 152.396 243.476 152.017L245.095 152.472C244.925 153.021 244.638 153.504 244.236 153.92C243.833 154.332 243.336 154.654 242.744 154.886C242.152 155.114 241.487 155.227 240.749 155.227ZM247.815 159.091V144.091H249.435V145.824H249.634C249.757 145.634 249.927 145.393 250.145 145.099C250.367 144.801 250.685 144.536 251.097 144.304C251.513 144.067 252.077 143.949 252.787 143.949C253.705 143.949 254.515 144.179 255.216 144.638C255.917 145.097 256.464 145.748 256.857 146.591C257.25 147.434 257.446 148.428 257.446 149.574C257.446 150.729 257.25 151.731 256.857 152.578C256.464 153.421 255.919 154.074 255.223 154.538C254.527 154.998 253.724 155.227 252.815 155.227C252.115 155.227 251.554 155.111 251.132 154.879C250.711 154.643 250.386 154.375 250.159 154.077C249.932 153.774 249.757 153.523 249.634 153.324H249.491V159.091H247.815ZM249.463 149.545C249.463 150.369 249.584 151.096 249.825 151.726C250.067 152.351 250.42 152.841 250.884 153.196C251.348 153.546 251.916 153.722 252.588 153.722C253.289 153.722 253.874 153.537 254.342 153.168C254.816 152.794 255.171 152.292 255.408 151.662C255.649 151.027 255.77 150.322 255.77 149.545C255.77 148.778 255.652 148.087 255.415 147.472C255.183 146.851 254.83 146.361 254.357 146.001C253.888 145.637 253.298 145.455 252.588 145.455C251.906 145.455 251.333 145.627 250.869 145.973C250.405 146.314 250.055 146.792 249.818 147.408C249.581 148.018 249.463 148.731 249.463 149.545ZM260.003 155V144.091H264.463C265.637 144.091 266.57 144.356 267.261 144.886C267.953 145.417 268.298 146.117 268.298 146.989C268.298 147.652 268.102 148.165 267.709 148.53C267.316 148.89 266.812 149.134 266.196 149.261C266.598 149.318 266.989 149.46 267.368 149.688C267.751 149.915 268.069 150.227 268.32 150.625C268.571 151.018 268.696 151.501 268.696 152.074C268.696 152.633 268.554 153.132 268.27 153.572C267.986 154.013 267.579 154.361 267.048 154.616C266.518 154.872 265.884 155 265.145 155H260.003ZM261.594 153.466H265.145C265.723 153.466 266.175 153.329 266.501 153.054C266.828 152.779 266.991 152.405 266.991 151.932C266.991 151.368 266.828 150.926 266.501 150.604C266.175 150.277 265.723 150.114 265.145 150.114H261.594V153.466ZM261.594 148.665H264.463C264.913 148.665 265.299 148.603 265.621 148.48C265.943 148.352 266.189 148.172 266.359 147.94C266.535 147.704 266.622 147.424 266.622 147.102C266.622 146.643 266.43 146.283 266.047 146.023C265.663 145.758 265.135 145.625 264.463 145.625H261.594V148.665ZM272.682 148.04H275.807C277.086 148.04 278.063 148.364 278.74 149.013C279.417 149.661 279.756 150.483 279.756 151.477C279.756 152.131 279.605 152.725 279.301 153.26C278.998 153.79 278.553 154.214 277.966 154.531C277.379 154.844 276.659 155 275.807 155H271.233V144.091H272.909V153.438H275.807C276.47 153.438 277.015 153.262 277.441 152.912C277.867 152.562 278.08 152.112 278.08 151.562C278.08 150.985 277.867 150.514 277.441 150.149C277.015 149.785 276.47 149.602 275.807 149.602H272.682V148.04ZM281.489 155V144.091H283.165V155H281.489ZM287.909 152.528L293.165 144.091H295.097V155H293.421V146.562L288.194 155H286.233V144.091H287.909V152.528ZM292.057 140.455H293.62C293.62 141.222 293.355 141.849 292.824 142.337C292.294 142.824 291.574 143.068 290.665 143.068C289.77 143.068 289.058 142.824 288.527 142.337C288.002 141.849 287.739 141.222 287.739 140.455H289.301C289.301 140.824 289.403 141.148 289.607 141.428C289.815 141.707 290.168 141.847 290.665 141.847C291.162 141.847 291.517 141.707 291.73 141.428C291.948 141.148 292.057 140.824 292.057 140.455ZM303.792 155V144.091H312.371V155H310.695V145.653H305.468V155H303.792ZM316.121 159.091C315.837 159.091 315.584 159.067 315.362 159.02C315.139 158.977 314.985 158.935 314.9 158.892L315.326 157.415C315.733 157.519 316.093 157.557 316.406 157.528C316.718 157.5 316.995 157.36 317.237 157.109C317.483 156.863 317.708 156.463 317.911 155.909L318.224 155.057L314.19 144.091H316.008L319.019 152.784H319.133L322.144 144.091H323.962L319.332 156.591C319.123 157.154 318.865 157.621 318.558 157.99C318.25 158.364 317.892 158.641 317.485 158.821C317.083 159.001 316.628 159.091 316.121 159.091ZM333.476 148.778V150.341H327.453V148.778H333.476ZM327.851 144.091V155H326.175V144.091H327.851ZM334.754 144.091V155H333.078V144.091H334.754ZM337.815 155V144.091H339.491V148.835H340.599L344.52 144.091H346.679L342.276 149.347L346.736 155H344.577L340.997 150.398H339.491V155H337.815ZM347.933 145.653V144.091H356.796V145.653H353.217V155H351.54V145.653H347.933Z" fill="#0A2832"/>
<path d="M194.506 199V197.722L199.307 192.466C199.87 191.85 200.334 191.315 200.699 190.861C201.063 190.402 201.333 189.971 201.509 189.568C201.688 189.161 201.778 188.735 201.778 188.29C201.778 187.778 201.655 187.336 201.409 186.962C201.168 186.588 200.836 186.299 200.415 186.095C199.993 185.892 199.52 185.79 198.994 185.79C198.436 185.79 197.948 185.906 197.531 186.138C197.119 186.365 196.8 186.685 196.572 187.097C196.35 187.509 196.239 187.991 196.239 188.545H194.562C194.562 187.693 194.759 186.945 195.152 186.301C195.545 185.657 196.08 185.155 196.757 184.795C197.439 184.436 198.204 184.256 199.051 184.256C199.903 184.256 200.659 184.436 201.317 184.795C201.975 185.155 202.491 185.641 202.865 186.251C203.239 186.862 203.426 187.542 203.426 188.29C203.426 188.825 203.329 189.348 203.135 189.859C202.946 190.366 202.614 190.932 202.141 191.557C201.672 192.177 201.021 192.935 200.188 193.83L196.92 197.324V197.438H203.682V199H194.506ZM207.865 199.114C207.515 199.114 207.214 198.988 206.963 198.737C206.712 198.486 206.587 198.186 206.587 197.835C206.587 197.485 206.712 197.184 206.963 196.933C207.214 196.682 207.515 196.557 207.865 196.557C208.215 196.557 208.516 196.682 208.767 196.933C209.018 197.184 209.143 197.485 209.143 197.835C209.143 198.067 209.084 198.28 208.966 198.474C208.852 198.669 208.698 198.825 208.504 198.943C208.315 199.057 208.102 199.114 207.865 199.114Z" fill="#0A2832"/>
<path d="M228.534 199V188.091H232.994C234.169 188.091 235.101 188.356 235.793 188.886C236.484 189.417 236.83 190.117 236.83 190.989C236.83 191.652 236.633 192.165 236.24 192.53C235.847 192.89 235.343 193.134 234.727 193.261C235.13 193.318 235.52 193.46 235.899 193.688C236.283 193.915 236.6 194.227 236.851 194.625C237.102 195.018 237.227 195.501 237.227 196.074C237.227 196.633 237.085 197.132 236.801 197.572C236.517 198.013 236.11 198.361 235.58 198.616C235.049 198.872 234.415 199 233.676 199H228.534ZM230.125 197.466H233.676C234.254 197.466 234.706 197.329 235.033 197.054C235.359 196.779 235.523 196.405 235.523 195.932C235.523 195.368 235.359 194.926 235.033 194.604C234.706 194.277 234.254 194.114 233.676 194.114H230.125V197.466ZM230.125 192.665H232.994C233.444 192.665 233.83 192.603 234.152 192.48C234.474 192.352 234.72 192.172 234.891 191.94C235.066 191.704 235.153 191.424 235.153 191.102C235.153 190.643 234.962 190.283 234.578 190.023C234.195 189.758 233.667 189.625 232.994 189.625H230.125V192.665ZM239.14 189.653V188.091H248.003V189.653H244.424V199H242.748V189.653H239.14ZM254.314 199.227C253.329 199.227 252.465 198.993 251.721 198.524C250.983 198.055 250.405 197.4 249.988 196.557C249.576 195.714 249.37 194.729 249.37 193.602C249.37 192.466 249.576 191.474 249.988 190.626C250.405 189.779 250.983 189.121 251.721 188.652C252.465 188.183 253.329 187.949 254.314 187.949C255.298 187.949 256.16 188.183 256.899 188.652C257.642 189.121 258.22 189.779 258.632 190.626C259.048 191.474 259.257 192.466 259.257 193.602C259.257 194.729 259.048 195.714 258.632 196.557C258.22 197.4 257.642 198.055 256.899 198.524C256.16 198.993 255.298 199.227 254.314 199.227ZM254.314 197.722C255.062 197.722 255.677 197.53 256.16 197.146C256.643 196.763 257.001 196.259 257.233 195.634C257.465 195.009 257.581 194.331 257.581 193.602C257.581 192.873 257.465 192.194 257.233 191.564C257.001 190.934 256.643 190.425 256.16 190.037C255.677 189.649 255.062 189.455 254.314 189.455C253.565 189.455 252.95 189.649 252.467 190.037C251.984 190.425 251.627 190.934 251.395 191.564C251.163 192.194 251.047 192.873 251.047 193.602C251.047 194.331 251.163 195.009 251.395 195.634C251.627 196.259 251.984 196.763 252.467 197.146C252.95 197.53 253.565 197.722 254.314 197.722ZM261.815 203.091V188.091H263.435V189.824H263.634C263.757 189.634 263.927 189.393 264.145 189.099C264.367 188.801 264.685 188.536 265.097 188.304C265.513 188.067 266.077 187.949 266.787 187.949C267.705 187.949 268.515 188.179 269.216 188.638C269.917 189.097 270.464 189.748 270.857 190.591C271.25 191.434 271.446 192.428 271.446 193.574C271.446 194.729 271.25 195.731 270.857 196.578C270.464 197.421 269.919 198.074 269.223 198.538C268.527 198.998 267.724 199.227 266.815 199.227C266.115 199.227 265.554 199.111 265.132 198.879C264.711 198.643 264.386 198.375 264.159 198.077C263.932 197.774 263.757 197.523 263.634 197.324H263.491V203.091H261.815ZM263.463 193.545C263.463 194.369 263.584 195.096 263.825 195.726C264.067 196.351 264.42 196.841 264.884 197.196C265.348 197.546 265.916 197.722 266.588 197.722C267.289 197.722 267.874 197.537 268.342 197.168C268.816 196.794 269.171 196.292 269.408 195.662C269.649 195.027 269.77 194.322 269.77 193.545C269.77 192.778 269.652 192.087 269.415 191.472C269.183 190.851 268.83 190.361 268.357 190.001C267.888 189.637 267.298 189.455 266.588 189.455C265.906 189.455 265.333 189.627 264.869 189.973C264.405 190.314 264.055 190.792 263.818 191.408C263.581 192.018 263.463 192.731 263.463 193.545ZM278.435 199.227C277.45 199.227 276.586 198.993 275.842 198.524C275.104 198.055 274.526 197.4 274.109 196.557C273.697 195.714 273.491 194.729 273.491 193.602C273.491 192.466 273.697 191.474 274.109 190.626C274.526 189.779 275.104 189.121 275.842 188.652C276.586 188.183 277.45 187.949 278.435 187.949C279.42 187.949 280.281 188.183 281.02 188.652C281.763 189.121 282.341 189.779 282.753 190.626C283.17 191.474 283.378 192.466 283.378 193.602C283.378 194.729 283.17 195.714 282.753 196.557C282.341 197.4 281.763 198.055 281.02 198.524C280.281 198.993 279.42 199.227 278.435 199.227ZM278.435 197.722C279.183 197.722 279.798 197.53 280.281 197.146C280.764 196.763 281.122 196.259 281.354 195.634C281.586 195.009 281.702 194.331 281.702 193.602C281.702 192.873 281.586 192.194 281.354 191.564C281.122 190.934 280.764 190.425 280.281 190.037C279.798 189.649 279.183 189.455 278.435 189.455C277.687 189.455 277.071 189.649 276.588 190.037C276.105 190.425 275.748 190.934 275.516 191.564C275.284 192.194 275.168 192.873 275.168 193.602C275.168 194.331 275.284 195.009 275.516 195.634C275.748 196.259 276.105 196.763 276.588 197.146C277.071 197.53 277.687 197.722 278.435 197.722ZM287.613 196.528L292.868 188.091H294.8V199H293.124V190.562L287.897 199H285.936V188.091H287.613V196.528ZM291.76 184.455H293.323C293.323 185.222 293.058 185.849 292.527 186.337C291.997 186.824 291.277 187.068 290.368 187.068C289.473 187.068 288.761 186.824 288.23 186.337C287.705 185.849 287.442 185.222 287.442 184.455H289.005C289.005 184.824 289.106 185.148 289.31 185.428C289.518 185.707 289.871 185.847 290.368 185.847C290.865 185.847 291.221 185.707 291.434 185.428C291.651 185.148 291.76 184.824 291.76 184.455ZM303.495 199V188.091H312.075V199H310.398V189.653H305.171V199H303.495ZM315.825 203.091C315.54 203.091 315.287 203.067 315.065 203.02C314.842 202.977 314.688 202.935 314.603 202.892L315.029 201.415C315.436 201.519 315.796 201.557 316.109 201.528C316.421 201.5 316.698 201.36 316.94 201.109C317.186 200.863 317.411 200.463 317.614 199.909L317.927 199.057L313.893 188.091H315.711L318.722 196.784H318.836L321.847 188.091H323.665L319.035 200.591C318.826 201.154 318.568 201.621 318.261 201.99C317.953 202.364 317.595 202.641 317.188 202.821C316.786 203.001 316.331 203.091 315.825 203.091ZM333.179 192.778V194.341H327.156V192.778H333.179ZM327.554 188.091V199H325.878V188.091H327.554ZM334.457 188.091V199H332.781V188.091H334.457ZM337.518 199V188.091H339.195V192.835H340.303L344.223 188.091H346.382L341.979 193.347L346.439 199H344.28L340.7 194.398H339.195V199H337.518ZM347.636 189.653V188.091H356.499V189.653H352.92V199H351.244V189.653H347.636Z" fill="#0A2832"/>
<path d="M199.42 243.199C198.483 243.199 197.647 243.038 196.913 242.716C196.184 242.394 195.604 241.946 195.173 241.374C194.747 240.796 194.515 240.126 194.477 239.364H196.267C196.305 239.832 196.466 240.237 196.75 240.578C197.034 240.914 197.406 241.175 197.865 241.359C198.324 241.544 198.833 241.636 199.392 241.636C200.017 241.636 200.571 241.527 201.054 241.31C201.537 241.092 201.916 240.789 202.19 240.401C202.465 240.012 202.602 239.562 202.602 239.051C202.602 238.516 202.47 238.045 202.205 237.638C201.939 237.226 201.551 236.904 201.04 236.672C200.528 236.44 199.903 236.324 199.165 236.324H198V234.761H199.165C199.742 234.761 200.249 234.657 200.685 234.449C201.125 234.241 201.468 233.947 201.714 233.568C201.965 233.189 202.091 232.744 202.091 232.233C202.091 231.741 201.982 231.312 201.764 230.947C201.546 230.583 201.239 230.299 200.841 230.095C200.448 229.892 199.984 229.79 199.449 229.79C198.947 229.79 198.473 229.882 198.028 230.067C197.588 230.247 197.228 230.509 196.949 230.855C196.67 231.196 196.518 231.608 196.494 232.091H194.79C194.818 231.329 195.048 230.661 195.479 230.088C195.91 229.51 196.473 229.061 197.169 228.739C197.87 228.417 198.639 228.256 199.477 228.256C200.377 228.256 201.149 228.438 201.793 228.803C202.437 229.162 202.931 229.638 203.277 230.23C203.623 230.822 203.795 231.461 203.795 232.148C203.795 232.967 203.58 233.665 203.149 234.243C202.723 234.821 202.143 235.221 201.409 235.443V235.557C202.328 235.708 203.045 236.099 203.561 236.729C204.077 237.354 204.335 238.128 204.335 239.051C204.335 239.842 204.12 240.552 203.689 241.182C203.263 241.807 202.68 242.299 201.942 242.659C201.203 243.019 200.363 243.199 199.42 243.199ZM208.041 243.114C207.69 243.114 207.39 242.988 207.139 242.737C206.888 242.486 206.762 242.186 206.762 241.835C206.762 241.485 206.888 241.184 207.139 240.933C207.39 240.682 207.69 240.557 208.041 240.557C208.391 240.557 208.692 240.682 208.943 240.933C209.194 241.184 209.319 241.485 209.319 241.835C209.319 242.067 209.26 242.28 209.142 242.474C209.028 242.669 208.874 242.825 208.68 242.943C208.491 243.057 208.278 243.114 208.041 243.114Z" fill="#0A2832"/>
<path d="M227.909 233.653V232.091H236.773V233.653H233.193V243H231.517V233.653H227.909ZM239.218 247.091V232.091H240.837V233.824H241.036C241.159 233.634 241.329 233.393 241.547 233.099C241.77 232.801 242.087 232.536 242.499 232.304C242.916 232.067 243.479 231.949 244.189 231.949C245.108 231.949 245.917 232.179 246.618 232.638C247.319 233.097 247.866 233.748 248.259 234.591C248.652 235.434 248.848 236.428 248.848 237.574C248.848 238.729 248.652 239.731 248.259 240.578C247.866 241.421 247.321 242.074 246.625 242.538C245.929 242.998 245.127 243.227 244.218 243.227C243.517 243.227 242.956 243.111 242.534 242.879C242.113 242.643 241.789 242.375 241.561 242.077C241.334 241.774 241.159 241.523 241.036 241.324H240.894V247.091H239.218ZM240.865 237.545C240.865 238.369 240.986 239.096 241.228 239.726C241.469 240.351 241.822 240.841 242.286 241.196C242.75 241.546 243.318 241.722 243.99 241.722C244.691 241.722 245.276 241.537 245.745 241.168C246.218 240.794 246.573 240.292 246.81 239.662C247.051 239.027 247.172 238.322 247.172 237.545C247.172 236.778 247.054 236.087 246.817 235.472C246.585 234.851 246.232 234.361 245.759 234.001C245.29 233.637 244.701 233.455 243.99 233.455C243.309 233.455 242.736 233.627 242.272 233.973C241.808 234.314 241.457 234.792 241.221 235.408C240.984 236.018 240.865 236.731 240.865 237.545ZM255.979 243.227C254.928 243.227 254.021 242.995 253.259 242.531C252.501 242.062 251.917 241.409 251.505 240.571C251.097 239.728 250.894 238.748 250.894 237.631C250.894 236.513 251.097 235.528 251.505 234.676C251.917 233.819 252.489 233.152 253.223 232.673C253.962 232.19 254.824 231.949 255.809 231.949C256.377 231.949 256.938 232.044 257.492 232.233C258.046 232.422 258.55 232.73 259.005 233.156C259.459 233.578 259.821 234.136 260.091 234.832C260.361 235.528 260.496 236.385 260.496 237.403V238.114H252.087V236.665H258.792C258.792 236.049 258.668 235.5 258.422 235.017C258.181 234.534 257.835 234.153 257.385 233.874C256.94 233.594 256.415 233.455 255.809 233.455C255.141 233.455 254.563 233.62 254.076 233.952C253.593 234.278 253.221 234.705 252.961 235.23C252.7 235.756 252.57 236.319 252.57 236.92V237.886C252.57 238.71 252.712 239.409 252.996 239.982C253.285 240.55 253.685 240.983 254.196 241.281C254.708 241.575 255.302 241.722 255.979 241.722C256.419 241.722 256.817 241.66 257.172 241.537C257.532 241.409 257.842 241.22 258.103 240.969C258.363 240.713 258.564 240.396 258.706 240.017L260.326 240.472C260.155 241.021 259.869 241.504 259.466 241.92C259.064 242.332 258.567 242.654 257.975 242.886C257.383 243.114 256.718 243.227 255.979 243.227ZM262.03 233.653V232.091H270.894V233.653H267.314V243H265.638V233.653H262.03ZM275.015 240.528L280.271 232.091H282.202V243H280.526V234.562L275.299 243H273.339V232.091H275.015V240.528ZM286.949 240.528L292.204 232.091H294.136V243H292.46V234.562L287.233 243H285.272V232.091H286.949V240.528ZM291.096 228.455H292.659C292.659 229.222 292.394 229.849 291.863 230.337C291.333 230.824 290.613 231.068 289.704 231.068C288.809 231.068 288.097 230.824 287.566 230.337C287.041 229.849 286.778 229.222 286.778 228.455H288.341C288.341 228.824 288.442 229.148 288.646 229.428C288.854 229.707 289.207 229.847 289.704 229.847C290.201 229.847 290.556 229.707 290.77 229.428C290.987 229.148 291.096 228.824 291.096 228.455ZM302.831 243V232.091H311.411V243H309.734V233.653H304.507V243H302.831ZM315.161 247.091C314.876 247.091 314.623 247.067 314.401 247.02C314.178 246.977 314.024 246.935 313.939 246.892L314.365 245.415C314.772 245.519 315.132 245.557 315.445 245.528C315.757 245.5 316.034 245.36 316.276 245.109C316.522 244.863 316.747 244.463 316.95 243.909L317.263 243.057L313.229 232.091H315.047L318.058 240.784H318.172L321.183 232.091H323.001L318.371 244.591C318.162 245.154 317.904 245.621 317.597 245.99C317.289 246.364 316.931 246.641 316.524 246.821C316.122 247.001 315.667 247.091 315.161 247.091ZM332.515 236.778V238.341H326.492V236.778H332.515ZM326.89 232.091V243H325.214V232.091H326.89ZM333.793 232.091V243H332.117V232.091H333.793ZM336.854 243V232.091H338.531V236.835H339.638L343.559 232.091H345.718L341.315 237.347L345.775 243H343.616L340.036 238.398H338.531V243H336.854ZM346.972 233.653V232.091H355.835V233.653H352.256V243H350.58V233.653H346.972Z" fill="#0A2832"/>
<path d="M162 90L162 251" stroke="#8ECBB0" stroke-width="1.5"/>
<path d="M192 118V250" stroke="#8ECBB0" stroke-width="1.5"/>
<path d="M211 118V250" stroke="#8ECBB0" stroke-width="1.5"/>
<path d="M223 118V250" stroke="#8ECBB0" stroke-width="1.5"/>
<path d="M390 90L390 250" stroke="#8ECBB0" stroke-width="1.5"/>
<path d="M162 118H390" stroke="#8ECBB0" stroke-width="1.5"/>
<path d="M162 162H390" stroke="#8ECBB0" stroke-width="1.5"/>
<path d="M162 134H390" stroke="#8ECBB0" stroke-width="1.5"/>
<path d="M162 178H390" stroke="#8ECBB0" stroke-width="1.5"/>
<path d="M162 206H390" stroke="#8ECBB0" stroke-width="1.5"/>
<path d="M162 222H390" stroke="#8ECBB0" stroke-width="1.5"/>
<path d="M161 90L391 90" stroke="#FF9F7E" stroke-width="1.5"/>
<path d="M161 250L391 250" stroke="#FF9F7E" stroke-width="1.5"/>
<path d="M162 90V58H390V90" stroke="#FF9F7E" stroke-width="1.5"/>
<path d="M390 250L390 282L162 282L162 250" stroke="#FF9F7E" stroke-width="1.5"/>
<path d="M145.438 121.273V130H144.382V122.381H144.33L142.2 123.795V122.722L144.382 121.273H145.438ZM150.846 130.119C150.488 130.114 150.13 130.045 149.772 129.915C149.414 129.784 149.088 129.564 148.792 129.254C148.497 128.942 148.259 128.52 148.08 127.989C147.901 127.455 147.812 126.784 147.812 125.977C147.812 125.205 147.884 124.52 148.029 123.923C148.174 123.324 148.384 122.82 148.66 122.411C148.936 121.999 149.268 121.686 149.657 121.473C150.049 121.26 150.491 121.153 150.982 121.153C151.471 121.153 151.906 121.251 152.286 121.447C152.67 121.641 152.982 121.911 153.224 122.257C153.465 122.604 153.622 123.003 153.693 123.455H152.653C152.556 123.062 152.369 122.737 152.09 122.479C151.812 122.22 151.443 122.091 150.982 122.091C150.306 122.091 149.774 122.385 149.384 122.973C148.998 123.561 148.803 124.386 148.801 125.449H148.869C149.028 125.207 149.217 125.001 149.436 124.831C149.657 124.658 149.901 124.524 150.169 124.43C150.436 124.337 150.718 124.29 151.017 124.29C151.517 124.29 151.974 124.415 152.389 124.665C152.803 124.912 153.136 125.254 153.386 125.692C153.636 126.126 153.761 126.625 153.761 127.188C153.761 127.727 153.64 128.222 153.399 128.67C153.157 129.116 152.818 129.472 152.38 129.736C151.945 129.997 151.434 130.125 150.846 130.119ZM150.846 129.182C151.204 129.182 151.525 129.092 151.809 128.913C152.096 128.734 152.322 128.494 152.487 128.193C152.654 127.892 152.738 127.557 152.738 127.188C152.738 126.827 152.657 126.499 152.495 126.203C152.336 125.905 152.116 125.668 151.835 125.491C151.556 125.315 151.238 125.227 150.88 125.227C150.61 125.227 150.359 125.281 150.126 125.389C149.893 125.494 149.688 125.639 149.512 125.824C149.339 126.009 149.203 126.22 149.103 126.459C149.004 126.695 148.954 126.943 148.954 127.205C148.954 127.551 149.035 127.875 149.197 128.176C149.362 128.477 149.586 128.72 149.87 128.905C150.157 129.089 150.482 129.182 150.846 129.182Z" fill="#738287"/>
<path d="M145.438 166.273V175H144.382V167.381H144.33L142.2 168.795V167.722L144.382 166.273H145.438ZM150.846 175.119C150.488 175.114 150.13 175.045 149.772 174.915C149.414 174.784 149.088 174.564 148.792 174.254C148.497 173.942 148.259 173.52 148.08 172.989C147.901 172.455 147.812 171.784 147.812 170.977C147.812 170.205 147.884 169.52 148.029 168.923C148.174 168.324 148.384 167.82 148.66 167.411C148.936 166.999 149.268 166.686 149.657 166.473C150.049 166.26 150.491 166.153 150.982 166.153C151.471 166.153 151.906 166.251 152.286 166.447C152.67 166.641 152.982 166.911 153.224 167.257C153.465 167.604 153.622 168.003 153.693 168.455H152.653C152.556 168.062 152.369 167.737 152.09 167.479C151.812 167.22 151.443 167.091 150.982 167.091C150.306 167.091 149.774 167.385 149.384 167.973C148.998 168.561 148.803 169.386 148.801 170.449H148.869C149.028 170.207 149.217 170.001 149.436 169.831C149.657 169.658 149.901 169.524 150.169 169.43C150.436 169.337 150.718 169.29 151.017 169.29C151.517 169.29 151.974 169.415 152.389 169.665C152.803 169.912 153.136 170.254 153.386 170.692C153.636 171.126 153.761 171.625 153.761 172.188C153.761 172.727 153.64 173.222 153.399 173.67C153.157 174.116 152.818 174.472 152.38 174.736C151.945 174.997 151.434 175.125 150.846 175.119ZM150.846 174.182C151.204 174.182 151.525 174.092 151.809 173.913C152.096 173.734 152.322 173.494 152.487 173.193C152.654 172.892 152.738 172.557 152.738 172.188C152.738 171.827 152.657 171.499 152.495 171.203C152.336 170.905 152.116 170.668 151.835 170.491C151.556 170.315 151.238 170.227 150.88 170.227C150.61 170.227 150.359 170.281 150.126 170.389C149.893 170.494 149.688 170.639 149.512 170.824C149.339 171.009 149.203 171.22 149.103 171.459C149.004 171.695 148.954 171.943 148.954 172.205C148.954 172.551 149.035 172.875 149.197 173.176C149.362 173.477 149.586 173.72 149.87 173.905C150.157 174.089 150.482 174.182 150.846 174.182Z" fill="#738287"/>
<path d="M174.899 298.119C174.337 298.119 173.835 298.023 173.395 297.83C172.957 297.636 172.609 297.368 172.351 297.024C172.095 296.678 171.956 296.276 171.933 295.818H173.007C173.03 296.099 173.126 296.342 173.297 296.547C173.467 296.749 173.69 296.905 173.966 297.016C174.241 297.126 174.547 297.182 174.882 297.182C175.257 297.182 175.589 297.116 175.879 296.986C176.169 296.855 176.396 296.673 176.561 296.44C176.726 296.207 176.808 295.938 176.808 295.631C176.808 295.31 176.729 295.027 176.57 294.783C176.411 294.536 176.178 294.342 175.871 294.203C175.564 294.064 175.189 293.994 174.746 293.994H174.047V293.057H174.746C175.092 293.057 175.396 292.994 175.658 292.869C175.922 292.744 176.128 292.568 176.276 292.341C176.426 292.114 176.501 291.847 176.501 291.54C176.501 291.244 176.436 290.987 176.305 290.768C176.175 290.55 175.99 290.379 175.751 290.257C175.516 290.135 175.237 290.074 174.916 290.074C174.615 290.074 174.331 290.129 174.064 290.24C173.8 290.348 173.584 290.506 173.416 290.713C173.249 290.918 173.158 291.165 173.143 291.455H172.121C172.138 290.997 172.276 290.597 172.534 290.253C172.793 289.906 173.131 289.636 173.548 289.443C173.969 289.25 174.43 289.153 174.933 289.153C175.473 289.153 175.936 289.263 176.322 289.482C176.709 289.697 177.006 289.983 177.213 290.338C177.42 290.693 177.524 291.077 177.524 291.489C177.524 291.98 177.395 292.399 177.136 292.746C176.881 293.092 176.533 293.332 176.092 293.466V293.534C176.643 293.625 177.074 293.859 177.384 294.237C177.693 294.612 177.848 295.077 177.848 295.631C177.848 296.105 177.719 296.531 177.46 296.909C177.205 297.284 176.855 297.58 176.412 297.795C175.969 298.011 175.464 298.119 174.899 298.119ZM179.591 298V297.233L182.472 294.08C182.81 293.71 183.088 293.389 183.307 293.116C183.526 292.841 183.688 292.582 183.793 292.341C183.901 292.097 183.955 291.841 183.955 291.574C183.955 291.267 183.881 291.001 183.733 290.777C183.588 290.553 183.389 290.379 183.136 290.257C182.884 290.135 182.599 290.074 182.284 290.074C181.949 290.074 181.656 290.143 181.406 290.283C181.159 290.419 180.967 290.611 180.831 290.858C180.697 291.105 180.631 291.395 180.631 291.727H179.625C179.625 291.216 179.743 290.767 179.979 290.381C180.214 289.994 180.536 289.693 180.942 289.477C181.351 289.261 181.81 289.153 182.318 289.153C182.83 289.153 183.283 289.261 183.678 289.477C184.072 289.693 184.382 289.984 184.607 290.351C184.831 290.717 184.943 291.125 184.943 291.574C184.943 291.895 184.885 292.209 184.768 292.516C184.655 292.82 184.456 293.159 184.172 293.534C183.891 293.906 183.5 294.361 183 294.898L181.04 296.994V297.062H185.097V298H179.591Z" fill="#738287"/>
<path d="M215.438 289.273V298H214.382V290.381H214.33L212.2 291.795V290.722L214.382 289.273H215.438ZM220.846 298.119C220.488 298.114 220.13 298.045 219.772 297.915C219.414 297.784 219.088 297.564 218.792 297.254C218.497 296.942 218.259 296.52 218.08 295.989C217.901 295.455 217.812 294.784 217.812 293.977C217.812 293.205 217.884 292.52 218.029 291.923C218.174 291.324 218.384 290.82 218.66 290.411C218.936 289.999 219.268 289.686 219.657 289.473C220.049 289.26 220.491 289.153 220.982 289.153C221.471 289.153 221.906 289.251 222.286 289.447C222.67 289.641 222.982 289.911 223.224 290.257C223.465 290.604 223.622 291.003 223.693 291.455H222.653C222.556 291.062 222.369 290.737 222.09 290.479C221.812 290.22 221.443 290.091 220.982 290.091C220.306 290.091 219.774 290.385 219.384 290.973C218.998 291.561 218.803 292.386 218.801 293.449H218.869C219.028 293.207 219.217 293.001 219.436 292.831C219.657 292.658 219.901 292.524 220.169 292.43C220.436 292.337 220.718 292.29 221.017 292.29C221.517 292.29 221.974 292.415 222.389 292.665C222.803 292.912 223.136 293.254 223.386 293.692C223.636 294.126 223.761 294.625 223.761 295.188C223.761 295.727 223.64 296.222 223.399 296.67C223.157 297.116 222.818 297.472 222.38 297.736C221.945 297.997 221.434 298.125 220.846 298.119ZM220.846 297.182C221.204 297.182 221.525 297.092 221.809 296.913C222.096 296.734 222.322 296.494 222.487 296.193C222.654 295.892 222.738 295.557 222.738 295.188C222.738 294.827 222.657 294.499 222.495 294.203C222.336 293.905 222.116 293.668 221.835 293.491C221.556 293.315 221.238 293.227 220.88 293.227C220.61 293.227 220.359 293.281 220.126 293.389C219.893 293.494 219.688 293.639 219.512 293.824C219.339 294.009 219.203 294.22 219.103 294.459C219.004 294.695 218.954 294.943 218.954 295.205C218.954 295.551 219.035 295.875 219.197 296.176C219.362 296.477 219.586 296.72 219.87 296.905C220.157 297.089 220.482 297.182 220.846 297.182Z" fill="#738287"/>
<path d="M142.073 152V151.233L144.954 148.08C145.292 147.71 145.57 147.389 145.789 147.116C146.008 146.841 146.17 146.582 146.275 146.341C146.383 146.097 146.437 145.841 146.437 145.574C146.437 145.267 146.363 145.001 146.215 144.777C146.07 144.553 145.872 144.379 145.619 144.257C145.366 144.135 145.082 144.074 144.767 144.074C144.431 144.074 144.139 144.143 143.889 144.283C143.642 144.419 143.45 144.611 143.313 144.858C143.18 145.105 143.113 145.395 143.113 145.727H142.107C142.107 145.216 142.225 144.767 142.461 144.381C142.697 143.994 143.018 143.693 143.424 143.477C143.833 143.261 144.292 143.153 144.801 143.153C145.312 143.153 145.765 143.261 146.16 143.477C146.555 143.693 146.865 143.984 147.089 144.351C147.313 144.717 147.426 145.125 147.426 145.574C147.426 145.895 147.367 146.209 147.251 146.516C147.137 146.82 146.938 147.159 146.654 147.534C146.373 147.906 145.982 148.361 145.482 148.898L143.522 150.994V151.062H147.579V152H142.073ZM152.134 152.119C151.549 152.119 151.032 152.016 150.583 151.808C150.137 151.598 149.789 151.31 149.539 150.943C149.289 150.574 149.166 150.153 149.169 149.682C149.166 149.312 149.238 148.972 149.386 148.659C149.534 148.344 149.735 148.081 149.991 147.871C150.249 147.658 150.538 147.523 150.856 147.466V147.415C150.438 147.307 150.106 147.072 149.859 146.712C149.612 146.348 149.49 145.935 149.492 145.472C149.49 145.028 149.602 144.632 149.829 144.283C150.056 143.933 150.369 143.658 150.767 143.456C151.167 143.254 151.623 143.153 152.134 143.153C152.64 143.153 153.092 143.254 153.49 143.456C153.887 143.658 154.2 143.933 154.427 144.283C154.657 144.632 154.774 145.028 154.776 145.472C154.774 145.935 154.647 146.348 154.397 146.712C154.15 147.072 153.822 147.307 153.413 147.415V147.466C153.728 147.523 154.012 147.658 154.265 147.871C154.518 148.081 154.72 148.344 154.87 148.659C155.021 148.972 155.097 149.312 155.1 149.682C155.097 150.153 154.97 150.574 154.717 150.943C154.467 151.31 154.119 151.598 153.673 151.808C153.23 152.016 152.717 152.119 152.134 152.119ZM152.134 151.182C152.529 151.182 152.87 151.118 153.157 150.99C153.444 150.862 153.666 150.682 153.822 150.449C153.978 150.216 154.058 149.943 154.061 149.631C154.058 149.301 153.972 149.01 153.805 148.757C153.637 148.504 153.409 148.305 153.119 148.161C152.832 148.016 152.504 147.943 152.134 147.943C151.762 147.943 151.43 148.016 151.137 148.161C150.847 148.305 150.619 148.504 150.451 148.757C150.286 149.01 150.205 149.301 150.208 149.631C150.205 149.943 150.281 150.216 150.434 150.449C150.59 150.682 150.813 150.862 151.103 150.99C151.393 151.118 151.737 151.182 152.134 151.182ZM152.134 147.04C152.447 147.04 152.724 146.977 152.965 146.852C153.21 146.727 153.401 146.553 153.541 146.328C153.68 146.104 153.751 145.841 153.754 145.54C153.751 145.244 153.681 144.987 153.545 144.768C153.409 144.547 153.22 144.376 152.978 144.257C152.737 144.135 152.455 144.074 152.134 144.074C151.808 144.074 151.522 144.135 151.278 144.257C151.034 144.376 150.845 144.547 150.711 144.768C150.578 144.987 150.512 145.244 150.515 145.54C150.512 145.841 150.579 146.104 150.715 146.328C150.855 146.553 151.046 146.727 151.291 146.852C151.535 146.977 151.816 147.04 152.134 147.04Z" fill="#738287"/>
<path d="M144.899 78.1193C144.337 78.1193 143.835 78.0227 143.395 77.8295C142.957 77.6364 142.609 77.3679 142.351 77.0241C142.095 76.6776 141.956 76.2756 141.933 75.8182H143.007C143.03 76.0994 143.126 76.3423 143.297 76.5469C143.467 76.7486 143.69 76.9048 143.966 77.0156C144.241 77.1264 144.547 77.1818 144.882 77.1818C145.257 77.1818 145.589 77.1165 145.879 76.9858C146.169 76.8551 146.396 76.6733 146.561 76.4403C146.726 76.2074 146.808 75.9375 146.808 75.6307C146.808 75.3097 146.729 75.027 146.57 74.7827C146.411 74.5355 146.178 74.3423 145.871 74.2031C145.564 74.0639 145.189 73.9943 144.746 73.9943H144.047V73.0568H144.746C145.092 73.0568 145.396 72.9943 145.658 72.8693C145.922 72.7443 146.128 72.5682 146.276 72.3409C146.426 72.1136 146.501 71.8466 146.501 71.5398C146.501 71.2443 146.436 70.9872 146.305 70.7685C146.175 70.5497 145.99 70.3793 145.751 70.2571C145.516 70.1349 145.237 70.0739 144.916 70.0739C144.615 70.0739 144.331 70.1293 144.064 70.2401C143.8 70.348 143.584 70.5057 143.416 70.7131C143.249 70.9176 143.158 71.1648 143.143 71.4545H142.121C142.138 70.9972 142.276 70.5966 142.534 70.2528C142.793 69.9062 143.131 69.6364 143.548 69.4432C143.969 69.25 144.43 69.1534 144.933 69.1534C145.473 69.1534 145.936 69.2628 146.322 69.4815C146.709 69.6974 147.006 69.983 147.213 70.3381C147.42 70.6932 147.524 71.0767 147.524 71.4886C147.524 71.9801 147.395 72.3991 147.136 72.7457C146.881 73.0923 146.533 73.3324 146.092 73.4659V73.5341C146.643 73.625 147.074 73.8594 147.384 74.2372C147.693 74.6122 147.848 75.0767 147.848 75.6307C147.848 76.1051 147.719 76.5312 147.46 76.9091C147.205 77.2841 146.855 77.5795 146.412 77.7955C145.969 78.0114 145.464 78.1193 144.899 78.1193ZM149.591 78V77.233L152.472 74.0795C152.81 73.7102 153.088 73.3892 153.307 73.1165C153.526 72.8409 153.688 72.5824 153.793 72.3409C153.901 72.0966 153.955 71.8409 153.955 71.5739C153.955 71.267 153.881 71.0014 153.733 70.777C153.588 70.5526 153.389 70.3793 153.136 70.2571C152.884 70.1349 152.599 70.0739 152.284 70.0739C151.949 70.0739 151.656 70.1435 151.406 70.2827C151.159 70.419 150.967 70.6108 150.831 70.858C150.697 71.1051 150.631 71.3949 150.631 71.7273H149.625C149.625 71.2159 149.743 70.767 149.979 70.3807C150.214 69.9943 150.536 69.6932 150.942 69.4773C151.351 69.2614 151.81 69.1534 152.318 69.1534C152.83 69.1534 153.283 69.2614 153.678 69.4773C154.072 69.6932 154.382 69.9844 154.607 70.3509C154.831 70.7173 154.943 71.125 154.943 71.5739C154.943 71.8949 154.885 72.2088 154.768 72.5156C154.655 72.8196 154.456 73.1591 154.172 73.5341C153.891 73.9062 153.5 74.3608 153 74.8977L151.04 76.9943V77.0625H155.097V78H149.591Z" fill="#738287"/>
<path d="M144.899 270.119C144.337 270.119 143.835 270.023 143.395 269.83C142.957 269.636 142.609 269.368 142.351 269.024C142.095 268.678 141.956 268.276 141.933 267.818H143.007C143.03 268.099 143.126 268.342 143.297 268.547C143.467 268.749 143.69 268.905 143.966 269.016C144.241 269.126 144.547 269.182 144.882 269.182C145.257 269.182 145.589 269.116 145.879 268.986C146.169 268.855 146.396 268.673 146.561 268.44C146.726 268.207 146.808 267.938 146.808 267.631C146.808 267.31 146.729 267.027 146.57 266.783C146.411 266.536 146.178 266.342 145.871 266.203C145.564 266.064 145.189 265.994 144.746 265.994H144.047V265.057H144.746C145.092 265.057 145.396 264.994 145.658 264.869C145.922 264.744 146.128 264.568 146.276 264.341C146.426 264.114 146.501 263.847 146.501 263.54C146.501 263.244 146.436 262.987 146.305 262.768C146.175 262.55 145.99 262.379 145.751 262.257C145.516 262.135 145.237 262.074 144.916 262.074C144.615 262.074 144.331 262.129 144.064 262.24C143.8 262.348 143.584 262.506 143.416 262.713C143.249 262.918 143.158 263.165 143.143 263.455H142.121C142.138 262.997 142.276 262.597 142.534 262.253C142.793 261.906 143.131 261.636 143.548 261.443C143.969 261.25 144.43 261.153 144.933 261.153C145.473 261.153 145.936 261.263 146.322 261.482C146.709 261.697 147.006 261.983 147.213 262.338C147.42 262.693 147.524 263.077 147.524 263.489C147.524 263.98 147.395 264.399 147.136 264.746C146.881 265.092 146.533 265.332 146.092 265.466V265.534C146.643 265.625 147.074 265.859 147.384 266.237C147.693 266.612 147.848 267.077 147.848 267.631C147.848 268.105 147.719 268.531 147.46 268.909C147.205 269.284 146.855 269.58 146.412 269.795C145.969 270.011 145.464 270.119 144.899 270.119ZM149.591 270V269.233L152.472 266.08C152.81 265.71 153.088 265.389 153.307 265.116C153.526 264.841 153.688 264.582 153.793 264.341C153.901 264.097 153.955 263.841 153.955 263.574C153.955 263.267 153.881 263.001 153.733 262.777C153.588 262.553 153.389 262.379 153.136 262.257C152.884 262.135 152.599 262.074 152.284 262.074C151.949 262.074 151.656 262.143 151.406 262.283C151.159 262.419 150.967 262.611 150.831 262.858C150.697 263.105 150.631 263.395 150.631 263.727H149.625C149.625 263.216 149.743 262.767 149.979 262.381C150.214 261.994 150.536 261.693 150.942 261.477C151.351 261.261 151.81 261.153 152.318 261.153C152.83 261.153 153.283 261.261 153.678 261.477C154.072 261.693 154.382 261.984 154.607 262.351C154.831 262.717 154.943 263.125 154.943 263.574C154.943 263.895 154.885 264.209 154.768 264.516C154.655 264.82 154.456 265.159 154.172 265.534C153.891 265.906 153.5 266.361 153 266.898L151.04 268.994V269.062H155.097V270H149.591Z" fill="#738287"/>
<path d="M142.073 108V107.233L144.954 104.08C145.292 103.71 145.57 103.389 145.789 103.116C146.008 102.841 146.17 102.582 146.275 102.341C146.383 102.097 146.437 101.841 146.437 101.574C146.437 101.267 146.363 101.001 146.215 100.777C146.07 100.553 145.872 100.379 145.619 100.257C145.366 100.135 145.082 100.074 144.767 100.074C144.431 100.074 144.139 100.143 143.889 100.283C143.642 100.419 143.45 100.611 143.313 100.858C143.18 101.105 143.113 101.395 143.113 101.727H142.107C142.107 101.216 142.225 100.767 142.461 100.381C142.697 99.9943 143.018 99.6932 143.424 99.4773C143.833 99.2614 144.292 99.1534 144.801 99.1534C145.312 99.1534 145.765 99.2614 146.16 99.4773C146.555 99.6932 146.865 99.9844 147.089 100.351C147.313 100.717 147.426 101.125 147.426 101.574C147.426 101.895 147.367 102.209 147.251 102.516C147.137 102.82 146.938 103.159 146.654 103.534C146.373 103.906 145.982 104.361 145.482 104.898L143.522 106.994V107.062H147.579V108H142.073ZM152.134 108.119C151.549 108.119 151.032 108.016 150.583 107.808C150.137 107.598 149.789 107.31 149.539 106.943C149.289 106.574 149.166 106.153 149.169 105.682C149.166 105.312 149.238 104.972 149.386 104.659C149.534 104.344 149.735 104.081 149.991 103.871C150.249 103.658 150.538 103.523 150.856 103.466V103.415C150.438 103.307 150.106 103.072 149.859 102.712C149.612 102.348 149.49 101.935 149.492 101.472C149.49 101.028 149.602 100.632 149.829 100.283C150.056 99.9332 150.369 99.6577 150.767 99.456C151.167 99.2543 151.623 99.1534 152.134 99.1534C152.64 99.1534 153.092 99.2543 153.49 99.456C153.887 99.6577 154.2 99.9332 154.427 100.283C154.657 100.632 154.774 101.028 154.776 101.472C154.774 101.935 154.647 102.348 154.397 102.712C154.15 103.072 153.822 103.307 153.413 103.415V103.466C153.728 103.523 154.012 103.658 154.265 103.871C154.518 104.081 154.72 104.344 154.87 104.659C155.021 104.972 155.097 105.312 155.1 105.682C155.097 106.153 154.97 106.574 154.717 106.943C154.467 107.31 154.119 107.598 153.673 107.808C153.23 108.016 152.717 108.119 152.134 108.119ZM152.134 107.182C152.529 107.182 152.87 107.118 153.157 106.99C153.444 106.862 153.666 106.682 153.822 106.449C153.978 106.216 154.058 105.943 154.061 105.631C154.058 105.301 153.972 105.01 153.805 104.757C153.637 104.504 153.409 104.305 153.119 104.161C152.832 104.016 152.504 103.943 152.134 103.943C151.762 103.943 151.43 104.016 151.137 104.161C150.847 104.305 150.619 104.504 150.451 104.757C150.286 105.01 150.205 105.301 150.208 105.631C150.205 105.943 150.281 106.216 150.434 106.449C150.59 106.682 150.813 106.862 151.103 106.99C151.393 107.118 151.737 107.182 152.134 107.182ZM152.134 103.04C152.447 103.04 152.724 102.977 152.965 102.852C153.21 102.727 153.401 102.553 153.541 102.328C153.68 102.104 153.751 101.841 153.754 101.54C153.751 101.244 153.681 100.987 153.545 100.768C153.409 100.547 153.22 100.376 152.978 100.257C152.737 100.135 152.455 100.074 152.134 100.074C151.808 100.074 151.522 100.135 151.278 100.257C151.034 100.376 150.845 100.547 150.711 100.768C150.578 100.987 150.512 101.244 150.515 101.54C150.512 101.841 150.579 102.104 150.715 102.328C150.855 102.553 151.046 102.727 151.291 102.852C151.535 102.977 151.816 103.04 152.134 103.04Z" fill="#738287"/>
</svg>
