<svg xmlns="http://www.w3.org/2000/svg" width="448" height="159" fill="none"><path fill="#82C5EB" d="M144.608.136h88.022v158.081h-88.022z"/><path fill="#82C5EB" d="M230.834.136h216.463v32.335H230.834zM230.834 126.78h216.463v31.437H230.834z"/><path fill="#0A2832" fill-rule="evenodd" d="M144.279.15h.329v43.947h-6.275v-9.195H122.1l-2.624 9.254H113.2l2.656-9.254h-2.686l1.823-6.27h2.662L125.811.21h.089V.136h18.379V.15Zm-5.946 6.285v22.197h-14.455l6.294-22.197h8.161ZM31.468.151h-.339V.145H12.751V.21h-.11L4.504 28.632H1.823l-1.794 6.27h2.68L.06 44.156h6.276l2.618-9.254h16.24v9.195h6.275V.15Zm-6.276 28.481V6.445h-8.189l-6.276 22.187h14.465ZM70.96.17v.01h4.467v43.947h-6.275V6.438H44.019v37.688h-6.275V.18h4.827V.17h28.39Zm10.773 100.454.03.017 18.856-31.343v31.313h6.276V56.665h-6.276L81.733 88.22V56.695h-6.276v43.946h6.276v-.017ZM6.305 56.695v18.743l17.423-18.743h7.71l-17.32 18.886h11.009l.065-.018 6.276 25.108h-6.276L20.464 81.85H6.305v18.791H.029V56.695h6.276Zm113.022 0h-6.276v43.946h6.276v-18.85h19.006v18.85h6.275V56.695h-6.275v18.827h-19.006V56.695ZM81.762.21H100.26c7.173.359 12.88 6.568 12.85 14.121v.06c0 7.852-6.096 14.151-13.567 14.151l-11.505.023v15.591h-6.276V.21Zm6.276 22.182V6.39h10.668c4.244 0 7.681 3.583 7.681 8.001 0 4.419-3.437 8.001-7.68 8.001h-10.67Zm27.971 90.788h-2.839v43.946h6.276v-15.561l11.535-.023c7.471 0 13.567-6.299 13.567-14.151v-.09c0-7.523-5.707-13.733-12.85-14.121h-15.689Zm3.437 6.18v16.002h10.698c4.244 0 7.681-3.582 7.681-8.001 0-4.418-3.437-8.001-7.681-8.001h-10.698Zm-76.114 15.608v16.002h8.964c4.244 0 7.68-3.583 7.68-8.001 0-4.419-3.436-8.001-7.68-8.001h-8.964Zm0 22.171v.041h-6.276v-43.946h3.278v-.002h12.548v-.022h6.276v17.029c4.464 2.315 7.542 7.115 7.542 12.64v.09c0 7.851-6.096 14.151-13.567 14.151l-9.801.019Zm9.55-28.351h-9.55v-9.287h9.55v9.287ZM8.188 113.24H6.335v37.676H1.823L0 157.186H31.498l-1.793-6.27h-4.543V113.24h-3.108v-.01H8.188v.01Zm10.699 6.259v31.417H12.61v-31.417h6.276Zm70.286-1.214c7.142 0 12.94 7.583 12.94 16.928 0 9.315-5.797 16.927-12.94 16.927-7.142 0-12.94-7.583-12.94-16.927 0-9.315 5.798-16.928 12.94-16.928Zm0-6.269c-10.639 0-19.245 10.389-19.245 23.197s8.606 23.197 19.245 23.197c10.639 0 19.245-10.389 19.245-23.197s-8.606-23.197-19.245-23.197Zm-35.98-16.54c4.125 0 7.83-2.298 10.31-5.91 0 0 2.391 2.03 4.931 4.298-3.675 4.896-9.144 8.001-15.21 8.001-11.117 0-20.142-10.39-20.142-23.197 0-12.807 9.025-23.197 20.141-23.197 7.202 0 14.255 4.389 17.184 11.375-1.704 1.761-5.32 4.15-5.32 4.15-2.151-5.703-6.425-9.136-11.864-9.136-7.5 0-13.597 7.553-13.597 16.808 0 9.255 6.096 16.808 13.568 16.808Z" clip-rule="evenodd"/><path fill="#F2F6F9" fill-rule="evenodd" d="M188.614 31.574v-.339h.005V12.857h-.065v-.11L160.132 4.61V1.93L153.863.136v2.68l-9.255-2.65v6.276l9.255 2.618v16.239h-9.195v6.275h43.946ZM160.132 25.3h22.188v-8.19l-22.188-6.276V25.3ZM232.625 63.01v-.338h.005V44.293h-.065v-.11l-28.421-8.136v-2.682l-6.27-1.793v2.68l-9.255-2.65v6.276l9.255 2.618v16.24h-9.195v6.275h43.946Zm-28.481-6.275h22.187v-8.189l-22.187-6.276v14.465Z" clip-rule="evenodd"/><path fill="#0A2832" d="M434.244 117.251c-1.614 0-3.068-.288-4.362-.863-1.282-.586-2.3-1.448-3.052-2.587-.74-1.139-1.111-2.543-1.111-4.213 0-1.437.266-2.626.796-3.566a6.16 6.16 0 0 1 2.173-2.255c.918-.564 1.952-.99 3.102-1.277a25.048 25.048 0 0 1 3.599-.647c1.493-.155 2.703-.293 3.632-.415.929-.133 1.603-.332 2.024-.597.431-.276.646-.702.646-1.277v-.1c0-1.25-.37-2.217-1.111-2.902-.741-.686-1.808-1.029-3.201-1.029-1.471 0-2.637.321-3.5.963-.851.64-1.426 1.398-1.724 2.272l-5.606-.796c.442-1.548 1.172-2.842 2.189-3.882 1.017-1.05 2.261-1.835 3.732-2.355 1.47-.53 3.096-.796 4.876-.796 1.227 0 2.449.144 3.665.431 1.217.288 2.328.763 3.334 1.427 1.006.652 1.814 1.542 2.422 2.67.619 1.128.929 2.538.929 4.23v17.05h-5.772v-3.5h-.199c-.365.708-.879 1.371-1.543 1.99-.652.609-1.476 1.101-2.471 1.477-.984.365-2.14.547-3.467.547Zm1.559-4.412c1.206 0 2.251-.238 3.135-.713.885-.487 1.565-1.128 2.04-1.924.487-.796.73-1.664.73-2.604v-3.002c-.188.155-.509.298-.962.431-.442.133-.94.249-1.493.348-.553.1-1.1.188-1.642.266-.542.077-1.011.144-1.409.199-.896.122-1.698.321-2.405.597-.708.276-1.267.663-1.676 1.161-.409.487-.613 1.117-.613 1.891 0 1.106.403 1.94 1.21 2.504.808.564 1.836.846 3.085.846ZM397.722 126.29V91.26h5.905v4.214h.348c.31-.62.746-1.277 1.31-1.974.564-.708 1.327-1.31 2.289-1.808.962-.508 2.189-.763 3.682-.763 1.968 0 3.743.503 5.324 1.51 1.593.995 2.853 2.47 3.782 4.428.94 1.946 1.41 4.334 1.41 7.165 0 2.798-.459 5.175-1.377 7.132-.918 1.957-2.167 3.45-3.748 4.478-1.582 1.028-3.373 1.543-5.374 1.543-1.46 0-2.671-.244-3.632-.73-.962-.487-1.736-1.073-2.323-1.758-.574-.697-1.022-1.355-1.343-1.974h-.249v13.567h-6.004Zm5.888-22.291c0 1.647.232 3.09.697 4.329.475 1.238 1.155 2.206 2.04 2.902.895.686 1.979 1.029 3.251 1.029 1.327 0 2.438-.354 3.333-1.062.896-.719 1.571-1.697 2.024-2.936.464-1.249.696-2.67.696-4.262 0-1.581-.226-2.986-.68-4.213-.453-1.227-1.127-2.19-2.023-2.886-.896-.697-2.012-1.045-3.35-1.045-1.283 0-2.372.337-3.268 1.012-.895.674-1.575 1.62-2.04 2.836-.453 1.216-.68 2.648-.68 4.296ZM381.315 117.234c-2.554 0-4.76-.53-6.618-1.592-1.846-1.072-3.267-2.587-4.262-4.544-.996-1.969-1.493-4.285-1.493-6.95 0-2.62.497-4.92 1.493-6.9 1.006-1.99 2.41-3.538 4.212-4.644 1.803-1.116 3.92-1.675 6.353-1.675 1.57 0 3.052.254 4.445.763a10.041 10.041 0 0 1 3.715 2.322c1.084 1.05 1.935 2.389 2.554 4.014.619 1.614.929 3.538.929 5.772v1.841h-20.882v-4.047h15.127c-.011-1.15-.26-2.173-.747-3.069a5.42 5.42 0 0 0-2.04-2.14c-.862-.519-1.868-.779-3.018-.779-1.228 0-2.306.299-3.235.896a6.17 6.17 0 0 0-2.172 2.322c-.509.951-.769 1.996-.78 3.135v3.533c0 1.481.271 2.753.813 3.814.542 1.051 1.299 1.858 2.272 2.422.973.553 2.112.829 3.417.829.873 0 1.664-.121 2.372-.365a5.26 5.26 0 0 0 1.841-1.111 4.625 4.625 0 0 0 1.177-1.808l5.606.63a8.745 8.745 0 0 1-2.023 3.882c-.984 1.094-2.245 1.946-3.782 2.554-1.537.597-3.295.895-5.274.895ZM360.031 101.512v4.926h-13.567v-4.926h13.567Zm-11.71-10.25v25.476h-5.788V91.262h5.788Zm15.641 0v25.476h-5.772V91.262h5.772ZM315.46 96.188v-4.926h22.292v4.926h-8.243v20.55h-5.805v-20.55h-8.244ZM289.077 126.29V91.26h5.904v4.214h.349c.309-.62.746-1.277 1.31-1.974.564-.708 1.327-1.31 2.289-1.808.962-.508 2.189-.763 3.682-.763 1.968 0 3.743.503 5.324 1.51 1.592.995 2.853 2.47 3.781 4.428.94 1.946 1.41 4.334 1.41 7.165 0 2.798-.459 5.175-1.376 7.132-.918 1.957-2.168 3.45-3.749 4.478-1.581 1.028-3.372 1.543-5.374 1.543-1.459 0-2.67-.244-3.632-.73-.962-.487-1.736-1.073-2.322-1.758-.575-.697-1.023-1.355-1.343-1.974h-.249v13.567h-6.004Zm5.888-22.291c0 1.647.232 3.09.696 4.329.476 1.238 1.156 2.206 2.04 2.902.896.686 1.98 1.029 3.251 1.029 1.327 0 2.438-.354 3.334-1.062.896-.719 1.57-1.697 2.023-2.936.465-1.249.697-2.67.697-4.262 0-1.581-.227-2.986-.68-4.213-.453-1.227-1.128-2.19-2.024-2.886-.895-.697-2.012-1.045-3.35-1.045-1.283 0-2.372.337-3.267 1.012-.896.674-1.576 1.62-2.04 2.836-.454 1.216-.68 2.648-.68 4.296ZM269.588 117.251c-1.614 0-3.068-.288-4.362-.863-1.283-.586-2.3-1.448-3.052-2.587-.741-1.139-1.111-2.543-1.111-4.213 0-1.437.265-2.626.796-3.566a6.16 6.16 0 0 1 2.173-2.255c.918-.564 1.951-.99 3.101-1.277a25.062 25.062 0 0 1 3.6-.647c1.492-.155 2.703-.293 3.632-.415.929-.133 1.603-.332 2.023-.597.432-.276.647-.702.647-1.277v-.1c0-1.25-.37-2.217-1.111-2.902-.741-.686-1.808-1.029-3.201-1.029-1.471 0-2.637.321-3.5.963-.851.64-1.426 1.398-1.725 2.272l-5.606-.796c.443-1.548 1.172-2.842 2.19-3.882 1.017-1.05 2.261-1.835 3.731-2.355 1.471-.53 3.096-.796 4.877-.796 1.227 0 2.449.144 3.665.431 1.216.288 2.328.763 3.334 1.427 1.006.652 1.813 1.542 2.421 2.67.62 1.128.929 2.538.929 4.23v17.05h-5.772v-3.5h-.199c-.365.708-.879 1.371-1.542 1.99-.653.609-1.476 1.101-2.471 1.477-.985.365-2.14.547-3.467.547Zm1.559-4.412c1.205 0 2.25-.238 3.135-.713.885-.487 1.565-1.128 2.04-1.924.486-.796.73-1.664.73-2.604v-3.002c-.188.155-.509.298-.962.431-.443.133-.94.249-1.493.348-.553.1-1.1.188-1.642.266-.542.077-1.012.144-1.41.199a10.54 10.54 0 0 0-2.405.597c-.707.276-1.266.663-1.675 1.161-.409.487-.614 1.117-.614 1.891 0 1.106.404 1.94 1.211 2.504.807.564 1.836.846 3.085.846ZM234.571 116.738V91.262h21.512v25.476h-5.788v-20.55h-9.985v20.55h-5.739ZM398.452 66.439V40.963h21.512v25.476h-5.788v-20.55h-9.985v20.55h-5.739ZM375.916 58.312l10.2-17.35h6.17V66.44h-5.805V49.073L376.314 66.44h-6.187V40.963h5.789v17.349ZM343.055 45.889v-4.926h22.292v4.926h-8.244v20.55h-5.805v-20.55h-8.243ZM328.559 66.936c-2.488 0-4.644-.548-6.468-1.643-1.825-1.094-3.24-2.626-4.246-4.594-.995-1.968-1.493-4.268-1.493-6.9 0-2.631.498-4.937 1.493-6.916 1.006-1.979 2.421-3.516 4.246-4.61 1.824-1.095 3.98-1.643 6.468-1.643s4.644.548 6.469 1.642c1.824 1.095 3.234 2.632 4.229 4.611 1.006 1.98 1.509 4.285 1.509 6.916 0 2.632-.503 4.932-1.509 6.9-.995 1.968-2.405 3.5-4.229 4.594-1.825 1.095-3.981 1.642-6.469 1.642Zm.033-4.81c1.349 0 2.477-.37 3.384-1.112.907-.752 1.581-1.758 2.023-3.018.454-1.26.68-2.665.68-4.213 0-1.56-.226-2.969-.68-4.23-.442-1.271-1.116-2.283-2.023-3.035-.907-.752-2.035-1.127-3.384-1.127-1.382 0-2.532.376-3.449 1.127-.907.752-1.587 1.764-2.041 3.036-.442 1.26-.663 2.67-.663 4.229 0 1.548.221 2.952.663 4.213.454 1.26 1.134 2.267 2.041 3.018.917.741 2.067 1.112 3.449 1.112ZM313.682 40.963v4.926h-10.98v20.55h-5.871V40.963h16.851ZM279.528 66.936c-2.488 0-4.645-.548-6.469-1.643-1.824-1.094-3.24-2.626-4.246-4.594-.995-1.968-1.493-4.268-1.493-6.9 0-2.631.498-4.937 1.493-6.916 1.006-1.979 2.422-3.516 4.246-4.61 1.824-1.095 3.981-1.643 6.469-1.643 2.487 0 4.644.548 6.468 1.642 1.824 1.095 3.234 2.632 4.229 4.611 1.007 1.98 1.51 4.285 1.51 6.916 0 2.632-.503 4.932-1.51 6.9-.995 1.968-2.405 3.5-4.229 4.594-1.824 1.095-3.981 1.642-6.468 1.642Zm.033-4.81c1.349 0 2.476-.37 3.383-1.112.907-.752 1.581-1.758 2.024-3.018.453-1.26.68-2.665.68-4.213 0-1.56-.227-2.969-.68-4.23-.443-1.271-1.117-2.283-2.024-3.035-.907-.752-2.034-1.127-3.383-1.127-1.382 0-2.532.376-3.45 1.127-.907.752-1.587 1.764-2.04 3.036-.443 1.26-.664 2.67-.664 4.229 0 1.548.221 2.952.664 4.213.453 1.26 1.133 2.267 2.04 3.018.918.741 2.068 1.112 3.45 1.112ZM232.631 66.439V61.33l.962-.05c1.305-.077 2.338-.547 3.101-1.41.774-.862 1.344-2.25 1.709-4.162.376-1.913.624-4.479.746-7.696l.564-15.541h22.258v33.968h-6.02v-28.91h-10.499l-.531 12.39c-.155 3.715-.564 6.795-1.227 9.238-.653 2.444-1.725 4.269-3.218 5.474-1.482 1.205-3.544 1.808-6.187 1.808h-1.658Z"/></svg>