<svg xmlns="http://www.w3.org/2000/svg" width="216" height="341" fill="none"><path fill="#0A2832" fill-rule="evenodd" d="M179.308.15h.33v43.947h-6.276v-9.195h-16.233l-2.624 9.254h-6.275l2.655-9.254H148.2l1.823-6.27h2.661L160.841.21h.089V.136h18.378V.15Zm-5.946 6.285v22.197h-14.455l6.295-22.197h8.16ZM66.497.15h-.339V.145H47.78V.21h-.11l-8.137 28.422h-2.681l-1.793 6.27h2.68l-2.65 9.254h6.276l2.617-9.255h16.24v9.195h6.275V.15Zm-6.276 28.482V6.444h-8.188l-6.277 22.188h14.465ZM105.99.17v.01h4.467v43.947h-6.276V6.438H79.049v37.688h-6.276V.18H77.6V.17h28.39Zm10.772 100.454.029.017 18.857-31.343v31.313h6.276V56.665h-6.276L116.762 88.22V56.695h-6.276v43.946h6.276v-.017ZM41.334 56.695v18.743l17.424-18.743h7.71l-17.32 18.886h11.008l.065-.018 6.276 25.108h-6.276L55.494 81.85h-14.16v18.791H35.06V56.695h6.275Zm113.022 0h-6.276v43.946h6.276v-18.85h19.006v18.85h6.276V56.695h-6.276v18.827h-19.006V56.695ZM116.792.21h18.498c7.172.359 12.88 6.568 12.85 14.121v.06c0 7.852-6.097 14.151-13.568 14.151l-11.505.023v15.591h-6.275V.21Zm6.275 22.182V6.39h10.669c4.243 0 7.68 3.583 7.68 8.001 0 4.419-3.437 8.001-7.68 8.001h-10.669Zm27.972 90.788H148.2v43.946h6.275v-15.561l11.535-.023c7.471 0 13.568-6.299 13.568-14.151v-.09c0-7.523-5.708-13.733-12.85-14.121h-15.689Zm3.436 6.18v16.002h10.699c4.243 0 7.68-3.582 7.68-8.001 0-4.418-3.437-8.001-7.68-8.001h-10.699Zm-76.114 15.607v16.003h8.965c4.243 0 7.68-3.583 7.68-8.001 0-4.419-3.437-8.002-7.68-8.002H78.36Zm0 22.172v.041h-6.276v-43.946h3.279v-.002h12.548v-.022h6.275v17.029c4.464 2.315 7.543 7.115 7.543 12.64v.09c0 7.851-6.097 14.151-13.568 14.151l-9.801.019Zm9.55-28.351h-9.55v-9.287h9.55v9.287ZM43.218 113.24h-1.853v37.676h-4.512l-1.823 6.27H66.527l-1.793-6.27H60.19V113.24h-3.108v-.01H43.217v.01Zm10.699 6.259v31.417H47.64v-31.417h6.276Zm70.287-1.214c7.142 0 12.939 7.583 12.939 16.928 0 9.315-5.797 16.927-12.939 16.927-7.143 0-12.94-7.583-12.94-16.927 0-9.315 5.797-16.928 12.94-16.928Zm0-6.269c-10.639 0-19.246 10.389-19.246 23.197s8.607 23.197 19.246 23.197c10.638 0 19.245-10.389 19.245-23.197s-8.607-23.197-19.245-23.197Zm-35.98-16.54c4.124 0 7.83-2.298 10.31-5.91 0 0 2.39 2.03 4.931 4.298-3.676 4.896-9.145 8.001-15.211 8.001-11.117 0-20.142-10.39-20.142-23.197 0-12.807 9.025-23.197 20.142-23.197 7.202 0 14.254 4.389 17.183 11.375-1.703 1.761-5.319 4.15-5.319 4.15-2.152-5.703-6.425-9.136-11.864-9.136-7.501 0-13.597 7.553-13.597 16.808 0 9.255 6.096 16.808 13.567 16.808Z" clip-rule="evenodd"/><path fill="#82C5EB" d="M0 158.217h214.667v88.022H0zM0 .136h35.029v158.081H0zM179.638.136h35.029v158.081h-35.029z"/><path fill="#F2F6F9" fill-rule="evenodd" d="M66.468 202.233h-.339v-.005H47.75v.065h-.11l-8.136 28.422h-2.682l-1.793 6.269h2.68l-2.65 9.255h6.276l2.618-9.255h16.24v9.195h6.275v-43.946Zm-6.276 28.482v-22.188h-8.189l-6.276 22.188h14.465ZM97.904 158.222h-.338v-.005H79.187v.065h-.11l-8.137 28.422H68.26l-1.793 6.269h2.68l-2.65 9.255h6.276l2.618-9.255h16.239v9.195h6.275v-43.946Zm-6.275 28.482v-22.188h-8.19l-6.276 22.188H91.63Z" clip-rule="evenodd"/><path fill="#0A2832" d="M201.614 331.02c-1.615 0-3.069-.288-4.363-.863-1.282-.586-2.299-1.448-3.051-2.587-.741-1.139-1.112-2.544-1.112-4.213 0-1.438.266-2.626.796-3.566a6.162 6.162 0 0 1 2.173-2.256c.918-.564 1.952-.989 3.102-1.277a25.352 25.352 0 0 1 3.599-.647c1.493-.155 2.703-.293 3.632-.414.929-.133 1.604-.332 2.024-.597.431-.277.647-.703.647-1.278v-.099c0-1.25-.371-2.217-1.112-2.903-.741-.685-1.808-1.028-3.201-1.028-1.47 0-2.637.321-3.499.962-.852.641-1.427 1.399-1.725 2.272l-5.606-.796c.442-1.548 1.172-2.842 2.189-3.881 1.017-1.05 2.261-1.835 3.732-2.355 1.47-.531 3.096-.796 4.876-.796 1.227 0 2.449.144 3.666.431 1.216.287 2.327.763 3.333 1.426 1.007.653 1.814 1.543 2.422 2.671.619 1.128.929 2.537.929 4.229v17.05h-5.772v-3.499h-.199c-.365.707-.879 1.371-1.543 1.99-.652.608-1.476 1.1-2.471 1.476-.984.365-2.14.548-3.466.548Zm1.559-4.412c1.205 0 2.25-.238 3.134-.714.885-.486 1.565-1.127 2.04-1.923.487-.797.73-1.665.73-2.604v-3.002c-.188.154-.508.298-.962.431-.442.132-.94.249-1.493.348-.552.1-1.1.188-1.642.265-.541.078-1.011.144-1.409.199-.896.122-1.698.321-2.405.598-.708.276-1.266.663-1.675 1.161-.41.486-.614 1.116-.614 1.89 0 1.106.403 1.941 1.211 2.505.807.564 1.835.846 3.085.846ZM165.091 340.059v-35.03h5.905v4.213h.348c.31-.619.747-1.277 1.31-1.973.564-.708 1.327-1.311 2.289-1.808.962-.509 2.19-.763 3.682-.763 1.969 0 3.743.503 5.324 1.509 1.593.995 2.853 2.471 3.782 4.428.94 1.947 1.41 4.335 1.41 7.166 0 2.797-.459 5.174-1.377 7.132-.918 1.957-2.167 3.449-3.748 4.478-1.581 1.028-3.373 1.542-5.374 1.542-1.46 0-2.67-.243-3.632-.73-.962-.486-1.736-1.072-2.322-1.758-.575-.696-1.023-1.354-1.344-1.973h-.249v13.567h-6.004Zm5.888-22.292c0 1.648.232 3.091.697 4.329.475 1.239 1.155 2.206 2.04 2.903.896.685 1.979 1.028 3.251 1.028 1.327 0 2.438-.354 3.334-1.061.895-.719 1.57-1.698 2.023-2.936.464-1.249.697-2.67.697-4.263 0-1.581-.227-2.985-.68-4.212-.454-1.228-1.128-2.19-2.024-2.886-.896-.697-2.012-1.045-3.35-1.045-1.283 0-2.372.337-3.268 1.011-.895.675-1.575 1.62-2.04 2.837-.453 1.216-.68 2.648-.68 4.295ZM148.684 331.003c-2.555 0-4.761-.531-6.618-1.592-1.847-1.073-3.268-2.588-4.263-4.545-.995-1.968-1.492-4.285-1.492-6.949 0-2.621.497-4.921 1.492-6.9 1.006-1.99 2.411-3.538 4.213-4.644 1.802-1.117 3.92-1.675 6.352-1.675 1.571 0 3.052.254 4.445.763a10.032 10.032 0 0 1 3.716 2.322c1.083 1.05 1.935 2.388 2.554 4.014.619 1.614.929 3.538.929 5.771v1.841H139.13v-4.047h15.126c-.011-1.149-.259-2.172-.746-3.068a5.412 5.412 0 0 0-2.04-2.139c-.862-.52-1.869-.78-3.019-.78-1.227 0-2.305.299-3.234.896a6.172 6.172 0 0 0-2.173 2.322c-.508.951-.768 1.995-.779 3.134v3.533c0 1.482.271 2.753.813 3.815.541 1.05 1.299 1.858 2.272 2.421.973.553 2.112.83 3.417.83.873 0 1.664-.122 2.371-.365a5.256 5.256 0 0 0 1.841-1.111 4.63 4.63 0 0 0 1.178-1.808l5.606.63a8.733 8.733 0 0 1-2.024 3.881c-.984 1.095-2.244 1.946-3.781 2.554-1.537.597-3.295.896-5.274.896ZM127.4 315.28v4.926h-13.567v-4.926H127.4Zm-11.71-10.25v25.476h-5.788V305.03h5.788Zm15.641 0v25.476h-5.772V305.03h5.772ZM82.83 309.956v-4.926h22.291v4.926h-8.243v20.55h-5.805v-20.55H82.83ZM56.446 340.059v-35.03h5.904v4.213h.349c.31-.619.746-1.277 1.31-1.973.564-.708 1.327-1.311 2.289-1.808.962-.509 2.19-.763 3.682-.763 1.968 0 3.743.503 5.324 1.509 1.592.995 2.853 2.471 3.781 4.428.94 1.947 1.41 4.335 1.41 7.166 0 2.797-.459 5.174-1.376 7.132-.918 1.957-2.168 3.449-3.749 4.478-1.58 1.028-3.372 1.542-5.374 1.542-1.46 0-2.67-.243-3.632-.73-.962-.486-1.736-1.072-2.322-1.758-.575-.696-1.023-1.354-1.343-1.973h-.25v13.567h-6.003Zm5.888-22.292c0 1.648.232 3.091.696 4.329.476 1.239 1.156 2.206 2.04 2.903.896.685 1.98 1.028 3.251 1.028 1.327 0 2.438-.354 3.334-1.061.896-.719 1.57-1.698 2.023-2.936.465-1.249.697-2.67.697-4.263 0-1.581-.227-2.985-.68-4.212-.453-1.228-1.128-2.19-2.023-2.886-.896-.697-2.013-1.045-3.35-1.045-1.283 0-2.373.337-3.268 1.011-.896.675-1.576 1.62-2.04 2.837-.454 1.216-.68 2.648-.68 4.295ZM36.957 331.02c-1.614 0-3.068-.288-4.362-.863-1.282-.586-2.3-1.448-3.052-2.587-.74-1.139-1.11-2.544-1.11-4.213 0-1.438.265-2.626.795-3.566a6.16 6.16 0 0 1 2.173-2.256c.918-.564 1.952-.989 3.102-1.277a25.344 25.344 0 0 1 3.599-.647c1.492-.155 2.703-.293 3.632-.414.929-.133 1.603-.332 2.023-.597.432-.277.647-.703.647-1.278v-.099c0-1.25-.37-2.217-1.11-2.903-.742-.685-1.809-1.028-3.202-1.028-1.47 0-2.637.321-3.5.962-.851.641-1.426 1.399-1.725 2.272l-5.606-.796c.443-1.548 1.172-2.842 2.19-3.881 1.017-1.05 2.261-1.835 3.732-2.355 1.47-.531 3.096-.796 4.876-.796 1.227 0 2.449.144 3.665.431 1.217.287 2.328.763 3.334 1.426 1.006.653 1.813 1.543 2.422 2.671.619 1.128.928 2.537.928 4.229v17.05h-5.772v-3.499h-.199c-.364.707-.879 1.371-1.542 1.99-.652.608-1.476 1.1-2.471 1.476-.984.365-2.14.548-3.467.548Zm1.56-4.412c1.205 0 2.25-.238 3.134-.714.885-.486 1.565-1.127 2.04-1.923.487-.797.73-1.665.73-2.604v-3.002c-.188.154-.509.298-.962.431-.442.132-.94.249-1.493.348-.553.1-1.1.188-1.642.265-.542.078-1.011.144-1.41.199-.895.122-1.697.321-2.405.598-.707.276-1.266.663-1.675 1.161-.409.486-.613 1.116-.613 1.89 0 1.106.403 1.941 1.21 2.505.808.564 1.836.846 3.085.846ZM1.94 330.506V305.03h21.512v25.476h-5.788v-20.55H7.679v20.55H1.94ZM165.821 280.207v-25.476h21.512v25.476h-5.788v-20.55h-9.985v20.55h-5.739ZM143.285 272.08l10.2-17.349h6.17v25.476h-5.805v-17.365l-10.167 17.365h-6.186v-25.476h5.788v17.349ZM110.424 259.657v-4.926h22.292v4.926h-8.243v20.55h-5.806v-20.55h-8.243ZM95.928 280.705c-2.487 0-4.644-.548-6.468-1.642-1.825-1.095-3.24-2.627-4.246-4.595-.995-1.968-1.493-4.268-1.493-6.899 0-2.632.498-4.937 1.493-6.917 1.006-1.979 2.421-3.516 4.246-4.611 1.824-1.094 3.98-1.642 6.468-1.642s4.644.548 6.469 1.642c1.824 1.095 3.234 2.632 4.229 4.611 1.006 1.98 1.51 4.285 1.51 6.917 0 2.631-.504 4.931-1.51 6.899-.995 1.968-2.405 3.5-4.229 4.595-1.825 1.094-3.98 1.642-6.469 1.642Zm.034-4.81c1.349 0 2.476-.371 3.383-1.112.907-.751 1.581-1.758 2.024-3.018.453-1.261.68-2.665.68-4.213 0-1.559-.227-2.969-.68-4.229-.443-1.272-1.117-2.284-2.024-3.036-.907-.751-2.034-1.127-3.383-1.127-1.383 0-2.533.376-3.45 1.127-.907.752-1.587 1.764-2.04 3.036-.443 1.26-.664 2.67-.664 4.229 0 1.548.221 2.952.664 4.213.453 1.26 1.133 2.267 2.04 3.018.917.741 2.067 1.112 3.45 1.112ZM81.05 254.731v4.926H70.072v20.55H64.2v-25.476h16.85ZM46.897 280.705c-2.488 0-4.644-.548-6.469-1.642-1.824-1.095-3.24-2.627-4.246-4.595-.995-1.968-1.492-4.268-1.492-6.899 0-2.632.497-4.937 1.492-6.917 1.006-1.979 2.422-3.516 4.246-4.611 1.825-1.094 3.98-1.642 6.469-1.642 2.488 0 4.644.548 6.468 1.642 1.825 1.095 3.234 2.632 4.23 4.611 1.006 1.98 1.509 4.285 1.509 6.917 0 2.631-.503 4.931-1.51 6.899-.995 1.968-2.404 3.5-4.229 4.595-1.824 1.094-3.98 1.642-6.468 1.642Zm.033-4.81c1.349 0 2.477-.371 3.383-1.112.907-.751 1.581-1.758 2.024-3.018.453-1.261.68-2.665.68-4.213 0-1.559-.227-2.969-.68-4.229-.443-1.272-1.117-2.284-2.024-3.036-.906-.751-2.034-1.127-3.383-1.127-1.382 0-2.532.376-3.45 1.127-.907.752-1.587 1.764-2.04 3.036-.442 1.26-.663 2.67-.663 4.229 0 1.548.22 2.952.663 4.213.453 1.26 1.133 2.267 2.04 3.018.918.741 2.068 1.112 3.45 1.112ZM0 280.207v-5.108l.962-.05c1.305-.077 2.339-.547 3.102-1.41.774-.862 1.343-2.25 1.708-4.163.376-1.913.625-4.478.746-7.696l.564-15.541H29.34v33.968h-6.02v-28.909h-10.5l-.53 12.39c-.155 3.715-.564 6.794-1.227 9.238-.653 2.444-1.725 4.268-3.218 5.473-1.482 1.205-3.544 1.808-6.186 1.808H0Z"/></svg>