<svg width="220" height="135" viewBox="0 0 220 135" fill="none" xmlns="http://www.w3.org/2000/svg">
<path d="M15.625 11.4583C15.625 8.97192 16.6127 6.58736 18.3709 4.8292C20.129 3.07105 22.5136 2.08333 25 2.08333C27.4864 2.08333 29.871 3.07105 31.6291 4.8292C33.3873 6.58736 34.375 8.97192 34.375 11.4583V14.5833H43.75V47.9167H6.25V14.5833H15.625V11.4583ZM15.625 18.75H10.4167V43.75H39.5833V18.75H34.375V25H30.2083V18.75H19.7917V25H15.625V18.75ZM30.2083 14.5833V11.4583C30.2083 10.077 29.6596 8.75223 28.6828 7.77548C27.7061 6.79873 26.3813 6.25 25 6.25C23.6187 6.25 22.2939 6.79873 21.3172 7.77548C20.3404 8.75223 19.7917 10.077 19.7917 11.4583V14.5833H30.2083Z" fill="#0A2832"/>
<path d="M126.667 6.06876V37.5C126.666 38.8266 126.244 40.1185 125.46 41.1889C124.676 42.2593 123.572 43.0525 122.308 43.4539C121.043 43.8552 119.684 43.8438 118.427 43.4213C117.169 42.9988 116.079 42.1872 115.313 41.1038C114.547 40.0205 114.146 38.7216 114.168 37.3952C114.189 36.0688 114.632 34.7836 115.433 33.7257C116.233 32.6678 117.349 31.892 118.62 31.5106C119.891 31.1292 121.25 31.162 122.5 31.6042V21.0146L101.667 22.75V39.5833C101.666 40.9099 101.244 42.2019 100.46 43.2722C99.6762 44.3426 98.5722 45.1359 97.3078 45.5372C96.0434 45.9385 94.6841 45.9271 93.4265 45.5046C92.169 45.0822 91.0786 44.2705 90.3129 43.1872C89.5473 42.1038 89.1463 40.8049 89.1678 39.4785C89.1894 38.1521 89.6324 36.867 90.4328 35.8091C91.2332 34.7512 92.3495 33.9754 93.6201 33.594C94.8906 33.2125 96.2496 33.2453 97.5003 33.6875V8.50001L126.667 6.06876ZM97.5003 39.5833C97.5003 39.0308 97.2808 38.5009 96.8901 38.1102C96.4994 37.7195 95.9695 37.5 95.417 37.5C94.8645 37.5 94.3346 37.7195 93.9439 38.1102C93.5532 38.5009 93.3337 39.0308 93.3337 39.5833C93.3337 40.1359 93.5532 40.6658 93.9439 41.0565C94.3346 41.4472 94.8645 41.6667 95.417 41.6667C95.9695 41.6667 96.4994 41.4472 96.8901 41.0565C97.2808 40.6658 97.5003 40.1359 97.5003 39.5833ZM101.667 18.5688L122.5 16.8333V10.5979L101.667 12.3333V18.5688ZM122.5 37.5C122.5 36.9475 122.281 36.4176 121.89 36.0269C121.499 35.6362 120.97 35.4167 120.417 35.4167C119.864 35.4167 119.335 35.6362 118.944 36.0269C118.553 36.4176 118.334 36.9475 118.334 37.5C118.334 38.0525 118.553 38.5824 118.944 38.9731C119.335 39.3638 119.864 39.5833 120.417 39.5833C120.97 39.5833 121.499 39.3638 121.89 38.9731C122.281 38.5824 122.5 38.0525 122.5 37.5Z" fill="#0A2832"/>
<path d="M200.167 2.08333H211.667V6.25H203.292L201.938 10.8792H211.813L209.288 47.9167H182.952L181.14 21.4125C177.24 20.5479 174.167 17.1646 174.167 12.9625C174.167 8.12916 178.154 4.28333 182.982 4.28333C187.092 4.28333 190.592 7.06875 191.544 10.8792H197.594L200.167 2.08333ZM196.375 15.0458H184.886L185.377 22.3L193.85 23.6771L196.375 15.0458ZM194.992 28.0833L185.669 26.5687L186.844 43.75H205.394L206.334 29.9667L195 28.0854L194.992 28.0833ZM206.619 25.7917L207.352 15.0458H200.717L197.992 24.3583L206.619 25.7917ZM187.107 10.8771C186.704 10.1365 186.107 9.51934 185.38 9.09149C184.654 8.66365 183.825 8.4412 182.982 8.44791C180.375 8.45 178.334 10.5104 178.334 12.9625C178.334 14.6229 179.334 16.1354 180.836 16.9125L180.425 10.8792L187.107 10.8771Z" fill="#0A2832"/>
<path d="M18.7858 90.0063C20.515 88.1563 22.6817 87.0833 25.0004 87.0833C27.3192 87.0833 29.4858 88.1563 31.215 90.0063C34.5546 93.5813 38.1838 98.6938 41.2067 104.133C44.2233 109.56 46.7254 115.467 47.6921 120.642C48.0046 122.319 48.0442 124.033 47.4671 125.708C46.8838 127.404 45.7421 128.842 44.0796 130.09C43.315 130.663 42.1629 131.042 41.0733 131.323C39.8858 131.629 38.415 131.906 36.7671 132.135C33.465 132.6 29.3129 132.906 25.0067 132.917H24.9963C20.6879 132.906 16.5379 132.6 13.2338 132.135C11.7845 131.944 10.3469 131.673 8.9275 131.323C7.84 131.042 6.68584 130.663 5.92125 130.09C4.25875 128.84 3.11917 127.402 2.53375 125.708C1.95667 124.033 1.99625 122.319 2.30875 120.642C3.27542 115.469 5.7775 109.558 8.79417 104.133C11.8171 98.6958 15.4463 93.5792 18.7858 90.0063ZM25.0004 91.25C24.0379 91.25 22.9213 91.6854 21.8317 92.8521C18.7692 96.1271 15.3317 100.946 12.4358 106.158C9.52958 111.383 7.25667 116.848 6.40458 121.408C6.17125 122.658 6.20875 123.585 6.47334 124.35C6.72959 125.094 7.27125 125.892 8.42334 126.758C8.41917 126.754 8.41709 126.754 8.42334 126.758C8.44625 126.771 8.55667 126.833 8.8025 126.929C9.08792 127.04 9.47542 127.16 9.96917 127.29C10.9567 127.544 12.2608 127.792 13.8129 128.01L14.5838 128.115V112.083H35.4171V128.113C35.6796 128.079 35.9379 128.046 36.1879 128.008C37.4813 127.839 38.7645 127.599 40.0317 127.29C40.427 127.191 40.8165 127.071 41.1983 126.929C41.4442 126.833 41.5525 126.771 41.5754 126.758C41.5817 126.754 41.5817 126.754 41.5754 126.758C42.7275 125.892 43.2713 125.094 43.5275 124.35C43.7921 123.585 43.8296 122.658 43.5963 121.406C42.7421 116.848 40.4713 111.385 37.565 106.156C34.6692 100.948 31.2317 96.1271 28.1692 92.8521C27.0796 91.6854 25.9629 91.25 25.0004 91.25ZM31.2504 128.521V116.25H18.7504V128.521C20.7213 128.66 22.8358 128.744 25.0004 128.75C27.0858 128.745 29.1703 128.668 31.2504 128.521ZM22.9129 95.6833H27.0879V99.8583H22.9129V95.6833ZM17.2838 104.14H21.4567V108.315H17.2838V104.14ZM28.5442 104.14H32.7171V108.315H28.5442V104.14Z" fill="#0A2832"/>
<path d="M110 91.25C105.027 91.25 100.258 93.2255 96.7414 96.7418C93.2251 100.258 91.2497 105.027 91.2497 110C91.2497 120.425 98.9893 128.535 109.277 128.535H109.283C109.185 128.369 109.075 128.198 108.958 128.01L108.916 127.944C108.083 126.617 107.437 124.89 107.556 122.996C107.679 121.033 108.608 119.129 110.502 117.546C112.652 115.748 115.216 115.704 117.206 115.781C117.654 115.8 118.075 115.823 118.473 115.844C120.052 115.929 121.302 115.998 122.529 115.667C126.387 114.625 128.531 112.063 128.754 108.744C129.423 98.7917 120.656 91.25 110 91.25ZM87.083 110C87.083 97.3438 97.3434 87.0833 110 87.0833C122.356 87.0833 133.787 96.0125 132.912 109.021C132.552 114.367 128.937 118.252 123.614 119.688C121.673 120.213 119.589 120.09 117.973 119.996C117.639 119.975 117.327 119.956 117.041 119.946C115.131 119.871 114.021 120.035 113.177 120.74C112.079 121.658 111.76 122.531 111.714 123.256C111.664 124.048 111.935 124.915 112.443 125.725L112.5 125.815C112.7 126.133 112.991 126.594 113.233 127.075C113.483 127.573 113.812 128.333 113.837 129.185C113.862 129.737 113.74 130.286 113.483 130.776C113.227 131.265 112.846 131.678 112.379 131.973C111.493 132.546 110.381 132.702 109.275 132.702C96.5538 132.702 87.083 122.588 87.083 110ZM105.312 99.5917C105.312 98.4866 105.751 97.4268 106.533 96.6454C107.314 95.864 108.374 95.425 109.479 95.425C110.584 95.425 111.644 95.864 112.425 96.6454C113.207 97.4268 113.646 98.4866 113.646 99.5917C113.646 100.697 113.207 101.757 112.425 102.538C111.644 103.319 110.584 103.758 109.479 103.758C108.374 103.758 107.314 103.319 106.533 102.538C105.751 101.757 105.312 100.697 105.312 99.5917ZM95.4788 105.842C95.4788 104.737 95.9178 103.677 96.6992 102.895C97.4806 102.114 98.5404 101.675 99.6455 101.675C100.751 101.675 101.81 102.114 102.592 102.895C103.373 103.677 103.812 104.737 103.812 105.842C103.812 106.947 103.373 108.007 102.592 108.788C101.81 109.569 100.751 110.008 99.6455 110.008C98.5404 110.008 97.4806 109.569 96.6992 108.788C95.9178 108.007 95.4788 106.947 95.4788 105.842ZM115.246 105.842C115.246 104.737 115.684 103.677 116.466 102.895C117.247 102.114 118.307 101.675 119.412 101.675C120.517 101.675 121.577 102.114 122.358 102.895C123.14 103.677 123.579 104.737 123.579 105.842C123.579 106.947 123.14 108.007 122.358 108.788C121.577 109.569 120.517 110.008 119.412 110.008C118.307 110.008 117.247 109.569 116.466 108.788C115.684 108.007 115.246 106.947 115.246 105.842Z" fill="#0A2832"/>
<path d="M185.625 87.0833H204.375V93.3333H215.834V97.5H211.607L210.565 132.917H179.436L178.394 97.5H174.167V93.3333H185.625V87.0833ZM189.792 93.3333H200.209V91.25H189.792V93.3333ZM182.563 97.5L183.482 128.75H206.519L207.438 97.5H182.563ZM197.084 101.667V124.583H192.917V101.667H197.084Z" fill="#0A2832"/>
</svg>
