<svg width="552" height="276" viewBox="0 0 552 276" fill="none" xmlns="http://www.w3.org/2000/svg">
<rect width="552" height="276" fill="#F2F6F9"/>
<path d="M276 129H467" stroke="#8ECBB0" stroke-width="1.5"/>
<g clip-path="url(#clip0_964_3217)">
<rect x="38.75" y="142.75" width="20.5" height="20.5" fill="#058C50" stroke="#058C50" stroke-width="1.5"/>
<path d="M57.9851 148.378L47.3801 158.985L41.0161 152.621L42.4301 151.207L47.3801 156.157L56.5721 146.964L57.9851 148.378Z" fill="white"/>
</g>
<path d="M77.9659 147.017V145.455H88.875V147.017H84.3011V160H82.5398V147.017H77.9659ZM94.358 160.227C93.3068 160.227 92.4001 159.995 91.6378 159.531C90.8802 159.062 90.2955 158.409 89.8835 157.571C89.4763 156.728 89.2727 155.748 89.2727 154.631C89.2727 153.513 89.4763 152.528 89.8835 151.676C90.2955 150.819 90.8684 150.152 91.6023 149.673C92.3409 149.19 93.2027 148.949 94.1875 148.949C94.7557 148.949 95.3168 149.044 95.8707 149.233C96.4247 149.422 96.929 149.73 97.3835 150.156C97.8381 150.578 98.2003 151.136 98.4702 151.832C98.7401 152.528 98.875 153.385 98.875 154.403V155.114H90.4659V153.665H97.1705C97.1705 153.049 97.0473 152.5 96.8011 152.017C96.5597 151.534 96.214 151.153 95.7642 150.874C95.3191 150.594 94.7936 150.455 94.1875 150.455C93.5199 150.455 92.9422 150.62 92.4545 150.952C91.9716 151.278 91.5999 151.705 91.3395 152.23C91.0791 152.756 90.9489 153.319 90.9489 153.92V154.886C90.9489 155.71 91.0909 156.409 91.375 156.982C91.6638 157.55 92.0639 157.983 92.5753 158.281C93.0866 158.575 93.6809 158.722 94.358 158.722C94.7983 158.722 95.196 158.66 95.5511 158.537C95.911 158.409 96.2211 158.22 96.4815 157.969C96.742 157.713 96.9432 157.396 97.0852 157.017L98.7045 157.472C98.5341 158.021 98.2476 158.504 97.8452 158.92C97.4427 159.332 96.9455 159.654 96.3537 159.886C95.7618 160.114 95.0966 160.227 94.358 160.227ZM101.425 160V149.091H103.101V153.835H104.209L108.129 149.091H110.288L105.885 154.347L110.345 160H108.186L104.607 155.398H103.101V160H101.425ZM116.15 160.227C115.127 160.227 114.246 159.986 113.507 159.503C112.769 159.02 112.201 158.355 111.803 157.507C111.405 156.66 111.206 155.691 111.206 154.602C111.206 153.494 111.41 152.517 111.817 151.669C112.229 150.817 112.802 150.152 113.536 149.673C114.275 149.19 115.136 148.949 116.121 148.949C116.888 148.949 117.579 149.091 118.195 149.375C118.81 149.659 119.315 150.057 119.708 150.568C120.101 151.08 120.345 151.676 120.439 152.358H118.763C118.635 151.861 118.351 151.42 117.911 151.037C117.475 150.649 116.888 150.455 116.15 150.455C115.496 150.455 114.923 150.625 114.431 150.966C113.943 151.302 113.562 151.778 113.287 152.393C113.017 153.004 112.882 153.722 112.882 154.545C112.882 155.388 113.015 156.122 113.28 156.747C113.55 157.372 113.929 157.857 114.417 158.203C114.909 158.549 115.487 158.722 116.15 158.722C116.585 158.722 116.98 158.646 117.336 158.494C117.691 158.343 117.991 158.125 118.238 157.841C118.484 157.557 118.659 157.216 118.763 156.818H120.439C120.345 157.462 120.11 158.042 119.736 158.558C119.367 159.07 118.877 159.477 118.266 159.78C117.66 160.078 116.954 160.227 116.15 160.227ZM122.03 150.653V149.091H130.894V150.653H127.314V160H125.638V150.653H122.03ZM147.373 149.091V160H145.697V149.091H147.373ZM146.719 154.29V155.852C146.341 155.994 145.964 156.12 145.59 156.229C145.216 156.333 144.823 156.416 144.411 156.477C143.999 156.534 143.547 156.562 143.055 156.562C141.819 156.562 140.827 156.229 140.079 155.561C139.335 154.893 138.964 153.892 138.964 152.557V149.062H140.64V152.557C140.64 153.116 140.746 153.575 140.96 153.935C141.173 154.295 141.461 154.562 141.826 154.737C142.191 154.912 142.6 155 143.055 155C143.765 155 144.406 154.936 144.979 154.808C145.557 154.676 146.137 154.503 146.719 154.29ZM155.022 160.227C153.971 160.227 153.064 159.995 152.302 159.531C151.544 159.062 150.96 158.409 150.548 157.571C150.14 156.728 149.937 155.748 149.937 154.631C149.937 153.513 150.14 152.528 150.548 151.676C150.96 150.819 151.532 150.152 152.266 149.673C153.005 149.19 153.867 148.949 154.852 148.949C155.42 148.949 155.981 149.044 156.535 149.233C157.089 149.422 157.593 149.73 158.048 150.156C158.502 150.578 158.864 151.136 159.134 151.832C159.404 152.528 159.539 153.385 159.539 154.403V155.114H151.13V153.665H157.835C157.835 153.049 157.711 152.5 157.465 152.017C157.224 151.534 156.878 151.153 156.428 150.874C155.983 150.594 155.458 150.455 154.852 150.455C154.184 150.455 153.606 150.62 153.119 150.952C152.636 151.278 152.264 151.705 152.004 152.23C151.743 152.756 151.613 153.319 151.613 153.92V154.886C151.613 155.71 151.755 156.409 152.039 156.982C152.328 157.55 152.728 157.983 153.239 158.281C153.751 158.575 154.345 158.722 155.022 158.722C155.462 158.722 155.86 158.66 156.215 158.537C156.575 158.409 156.885 158.22 157.146 157.969C157.406 157.713 157.607 157.396 157.749 157.017L159.369 157.472C159.198 158.021 158.912 158.504 158.509 158.92C158.107 159.332 157.61 159.654 157.018 159.886C156.426 160.114 155.761 160.227 155.022 160.227ZM162.089 160V149.091H163.765V153.835H164.873L168.793 149.091H170.952L166.549 154.347L171.009 160H168.85L165.271 155.398H163.765V160H162.089ZM180.928 145L181.78 146.023C181.448 146.345 181.065 146.57 180.629 146.697C180.194 146.825 179.701 146.903 179.152 146.932C178.603 146.96 177.992 146.989 177.32 147.017C176.562 147.045 175.935 147.23 175.438 147.571C174.94 147.912 174.557 148.404 174.287 149.048C174.017 149.692 173.844 150.483 173.768 151.42H173.911C174.28 150.739 174.791 150.237 175.445 149.915C176.098 149.593 176.799 149.432 177.547 149.432C178.399 149.432 179.166 149.631 179.848 150.028C180.53 150.426 181.07 151.016 181.467 151.797C181.865 152.578 182.064 153.542 182.064 154.688C182.064 155.829 181.86 156.813 181.453 157.642C181.051 158.471 180.485 159.11 179.756 159.56C179.031 160.005 178.181 160.227 177.206 160.227C176.231 160.227 175.376 159.998 174.642 159.538C173.908 159.074 173.338 158.388 172.93 157.479C172.523 156.565 172.32 155.436 172.32 154.091V152.926C172.32 150.497 172.732 148.655 173.555 147.401C174.384 146.146 175.629 145.497 177.291 145.455C177.878 145.436 178.402 145.431 178.861 145.44C179.32 145.45 179.72 145.429 180.061 145.376C180.402 145.324 180.691 145.199 180.928 145ZM177.206 158.722C177.864 158.722 178.43 158.556 178.903 158.224C179.382 157.893 179.749 157.427 180.004 156.825C180.26 156.219 180.388 155.507 180.388 154.688C180.388 153.892 180.258 153.215 179.997 152.656C179.741 152.098 179.375 151.671 178.896 151.378C178.418 151.084 177.845 150.938 177.178 150.938C176.69 150.938 176.252 151.02 175.864 151.186C175.475 151.352 175.144 151.596 174.869 151.918C174.595 152.24 174.382 152.633 174.23 153.097C174.083 153.561 174.005 154.091 173.996 154.688C173.996 155.909 174.282 156.887 174.855 157.621C175.428 158.355 176.212 158.722 177.206 158.722ZM189.06 160.227C188.075 160.227 187.211 159.993 186.467 159.524C185.729 159.055 185.151 158.4 184.734 157.557C184.322 156.714 184.116 155.729 184.116 154.602C184.116 153.466 184.322 152.474 184.734 151.626C185.151 150.779 185.729 150.121 186.467 149.652C187.211 149.183 188.075 148.949 189.06 148.949C190.045 148.949 190.906 149.183 191.645 149.652C192.388 150.121 192.966 150.779 193.378 151.626C193.795 152.474 194.003 153.466 194.003 154.602C194.003 155.729 193.795 156.714 193.378 157.557C192.966 158.4 192.388 159.055 191.645 159.524C190.906 159.993 190.045 160.227 189.06 160.227ZM189.06 158.722C189.808 158.722 190.423 158.53 190.906 158.146C191.389 157.763 191.747 157.259 191.979 156.634C192.211 156.009 192.327 155.331 192.327 154.602C192.327 153.873 192.211 153.194 191.979 152.564C191.747 151.934 191.389 151.425 190.906 151.037C190.423 150.649 189.808 150.455 189.06 150.455C188.312 150.455 187.696 150.649 187.213 151.037C186.73 151.425 186.373 151.934 186.141 152.564C185.909 153.194 185.793 153.873 185.793 154.602C185.793 155.331 185.909 156.009 186.141 156.634C186.373 157.259 186.73 157.763 187.213 158.146C187.696 158.53 188.312 158.722 189.06 158.722ZM196.561 160V149.091H198.238V153.835H199.346L203.266 149.091H205.425L201.022 154.347L205.482 160H203.323L199.743 155.398H198.238V160H196.561ZM211.286 160.227C210.263 160.227 209.383 159.986 208.644 159.503C207.906 159.02 207.337 158.355 206.94 157.507C206.542 156.66 206.343 155.691 206.343 154.602C206.343 153.494 206.547 152.517 206.954 151.669C207.366 150.817 207.939 150.152 208.673 149.673C209.411 149.19 210.273 148.949 211.258 148.949C212.025 148.949 212.716 149.091 213.332 149.375C213.947 149.659 214.451 150.057 214.844 150.568C215.237 151.08 215.481 151.676 215.576 152.358H213.9C213.772 151.861 213.488 151.42 213.048 151.037C212.612 150.649 212.025 150.455 211.286 150.455C210.633 150.455 210.06 150.625 209.567 150.966C209.08 151.302 208.699 151.778 208.424 152.393C208.154 153.004 208.019 153.722 208.019 154.545C208.019 155.388 208.152 156.122 208.417 156.747C208.687 157.372 209.066 157.857 209.553 158.203C210.046 158.549 210.623 158.722 211.286 158.722C211.722 158.722 212.117 158.646 212.472 158.494C212.827 158.343 213.128 158.125 213.374 157.841C213.621 157.557 213.796 157.216 213.9 156.818H215.576C215.481 157.462 215.247 158.042 214.873 158.558C214.504 159.07 214.013 159.477 213.403 159.78C212.797 160.078 212.091 160.227 211.286 160.227ZM221.237 160.256C220.545 160.256 219.918 160.125 219.354 159.865C218.791 159.6 218.344 159.219 218.012 158.722C217.681 158.22 217.515 157.614 217.515 156.903C217.515 156.278 217.638 155.772 217.884 155.384C218.13 154.991 218.46 154.683 218.871 154.46C219.283 154.238 219.738 154.072 220.235 153.963C220.737 153.849 221.241 153.759 221.748 153.693C222.411 153.608 222.948 153.544 223.36 153.501C223.777 153.454 224.08 153.376 224.269 153.267C224.463 153.158 224.56 152.969 224.56 152.699V152.642C224.56 151.941 224.369 151.397 223.985 151.009C223.606 150.62 223.031 150.426 222.259 150.426C221.459 150.426 220.832 150.601 220.377 150.952C219.923 151.302 219.603 151.676 219.418 152.074L217.827 151.506C218.112 150.843 218.49 150.327 218.964 149.957C219.442 149.583 219.963 149.323 220.526 149.176C221.094 149.025 221.653 148.949 222.202 148.949C222.553 148.949 222.955 148.991 223.41 149.077C223.869 149.157 224.312 149.325 224.738 149.581C225.169 149.837 225.526 150.223 225.81 150.739C226.094 151.255 226.237 151.946 226.237 152.812V160H224.56V158.523H224.475C224.362 158.759 224.172 159.013 223.907 159.283C223.642 159.553 223.289 159.782 222.849 159.972C222.408 160.161 221.871 160.256 221.237 160.256ZM221.492 158.75C222.155 158.75 222.714 158.62 223.168 158.359C223.628 158.099 223.973 157.763 224.205 157.351C224.442 156.939 224.56 156.506 224.56 156.051V154.517C224.489 154.602 224.333 154.68 224.092 154.751C223.855 154.818 223.58 154.877 223.268 154.929C222.96 154.976 222.659 155.019 222.366 155.057C222.077 155.09 221.843 155.118 221.663 155.142C221.227 155.199 220.82 155.291 220.441 155.419C220.067 155.542 219.764 155.729 219.532 155.98C219.305 156.226 219.191 156.562 219.191 156.989C219.191 157.571 219.406 158.011 219.837 158.31C220.273 158.603 220.825 158.75 221.492 158.75Z" fill="#0A2832"/>
<g clip-path="url(#clip1_964_3217)">
<rect x="277.75" y="142.75" width="20.5" height="20.5" fill="#058C50" stroke="#058C50" stroke-width="1.5"/>
<path d="M296.985 148.378L286.38 158.985L280.016 152.621L281.43 151.207L286.38 156.157L295.572 146.964L296.985 148.378Z" fill="white"/>
</g>
<path d="M316.966 147.017V145.455H327.875V147.017H323.301V160H321.54V147.017H316.966ZM333.358 160.227C332.307 160.227 331.4 159.995 330.638 159.531C329.88 159.062 329.295 158.409 328.884 157.571C328.476 156.728 328.273 155.748 328.273 154.631C328.273 153.513 328.476 152.528 328.884 151.676C329.295 150.819 329.868 150.152 330.602 149.673C331.341 149.19 332.203 148.949 333.188 148.949C333.756 148.949 334.317 149.044 334.871 149.233C335.425 149.422 335.929 149.73 336.384 150.156C336.838 150.578 337.2 151.136 337.47 151.832C337.74 152.528 337.875 153.385 337.875 154.403V155.114H329.466V153.665H336.17C336.17 153.049 336.047 152.5 335.801 152.017C335.56 151.534 335.214 151.153 334.764 150.874C334.319 150.594 333.794 150.455 333.188 150.455C332.52 150.455 331.942 150.62 331.455 150.952C330.972 151.278 330.6 151.705 330.339 152.23C330.079 152.756 329.949 153.319 329.949 153.92V154.886C329.949 155.71 330.091 156.409 330.375 156.982C330.664 157.55 331.064 157.983 331.575 158.281C332.087 158.575 332.681 158.722 333.358 158.722C333.798 158.722 334.196 158.66 334.551 158.537C334.911 158.409 335.221 158.22 335.482 157.969C335.742 157.713 335.943 157.396 336.085 157.017L337.705 157.472C337.534 158.021 337.248 158.504 336.845 158.92C336.443 159.332 335.946 159.654 335.354 159.886C334.762 160.114 334.097 160.227 333.358 160.227ZM340.425 160V149.091H342.101V153.835H343.209L347.129 149.091H349.288L344.885 154.347L349.345 160H347.186L343.607 155.398H342.101V160H340.425ZM355.15 160.227C354.127 160.227 353.246 159.986 352.507 159.503C351.769 159.02 351.201 158.355 350.803 157.507C350.405 156.66 350.206 155.691 350.206 154.602C350.206 153.494 350.41 152.517 350.817 151.669C351.229 150.817 351.802 150.152 352.536 149.673C353.275 149.19 354.136 148.949 355.121 148.949C355.888 148.949 356.579 149.091 357.195 149.375C357.81 149.659 358.315 150.057 358.708 150.568C359.101 151.08 359.345 151.676 359.439 152.358H357.763C357.635 151.861 357.351 151.42 356.911 151.037C356.475 150.649 355.888 150.455 355.15 150.455C354.496 150.455 353.923 150.625 353.431 150.966C352.943 151.302 352.562 151.778 352.287 152.393C352.017 153.004 351.882 153.722 351.882 154.545C351.882 155.388 352.015 156.122 352.28 156.747C352.55 157.372 352.929 157.857 353.417 158.203C353.909 158.549 354.487 158.722 355.15 158.722C355.585 158.722 355.98 158.646 356.336 158.494C356.691 158.343 356.991 158.125 357.238 157.841C357.484 157.557 357.659 157.216 357.763 156.818H359.439C359.345 157.462 359.11 158.042 358.736 158.558C358.367 159.07 357.877 159.477 357.266 159.78C356.66 160.078 355.954 160.227 355.15 160.227ZM361.03 150.653V149.091H369.894V150.653H366.314V160H364.638V150.653H361.03ZM386.373 149.091V160H384.697V149.091H386.373ZM385.719 154.29V155.852C385.341 155.994 384.964 156.12 384.59 156.229C384.216 156.333 383.823 156.416 383.411 156.477C382.999 156.534 382.547 156.562 382.055 156.562C380.819 156.562 379.827 156.229 379.079 155.561C378.335 154.893 377.964 153.892 377.964 152.557V149.062H379.64V152.557C379.64 153.116 379.746 153.575 379.96 153.935C380.173 154.295 380.461 154.562 380.826 154.737C381.191 154.912 381.6 155 382.055 155C382.765 155 383.406 154.936 383.979 154.808C384.557 154.676 385.137 154.503 385.719 154.29ZM394.022 160.227C392.971 160.227 392.064 159.995 391.302 159.531C390.544 159.062 389.96 158.409 389.548 157.571C389.14 156.728 388.937 155.748 388.937 154.631C388.937 153.513 389.14 152.528 389.548 151.676C389.96 150.819 390.532 150.152 391.266 149.673C392.005 149.19 392.867 148.949 393.852 148.949C394.42 148.949 394.981 149.044 395.535 149.233C396.089 149.422 396.593 149.73 397.048 150.156C397.502 150.578 397.864 151.136 398.134 151.832C398.404 152.528 398.539 153.385 398.539 154.403V155.114H390.13V153.665H396.835C396.835 153.049 396.711 152.5 396.465 152.017C396.224 151.534 395.878 151.153 395.428 150.874C394.983 150.594 394.458 150.455 393.852 150.455C393.184 150.455 392.606 150.62 392.119 150.952C391.636 151.278 391.264 151.705 391.004 152.23C390.743 152.756 390.613 153.319 390.613 153.92V154.886C390.613 155.71 390.755 156.409 391.039 156.982C391.328 157.55 391.728 157.983 392.239 158.281C392.751 158.575 393.345 158.722 394.022 158.722C394.462 158.722 394.86 158.66 395.215 158.537C395.575 158.409 395.885 158.22 396.146 157.969C396.406 157.713 396.607 157.396 396.749 157.017L398.369 157.472C398.198 158.021 397.912 158.504 397.509 158.92C397.107 159.332 396.61 159.654 396.018 159.886C395.426 160.114 394.761 160.227 394.022 160.227ZM401.089 160V149.091H402.765V153.835H403.873L407.793 149.091H409.952L405.549 154.347L410.009 160H407.85L404.271 155.398H402.765V160H401.089ZM419.928 145L420.78 146.023C420.448 146.345 420.065 146.57 419.629 146.697C419.194 146.825 418.701 146.903 418.152 146.932C417.603 146.96 416.992 146.989 416.32 147.017C415.562 147.045 414.935 147.23 414.438 147.571C413.94 147.912 413.557 148.404 413.287 149.048C413.017 149.692 412.844 150.483 412.768 151.42H412.911C413.28 150.739 413.791 150.237 414.445 149.915C415.098 149.593 415.799 149.432 416.547 149.432C417.399 149.432 418.166 149.631 418.848 150.028C419.53 150.426 420.07 151.016 420.467 151.797C420.865 152.578 421.064 153.542 421.064 154.688C421.064 155.829 420.86 156.813 420.453 157.642C420.051 158.471 419.485 159.11 418.756 159.56C418.031 160.005 417.181 160.227 416.206 160.227C415.231 160.227 414.376 159.998 413.642 159.538C412.908 159.074 412.338 158.388 411.93 157.479C411.523 156.565 411.32 155.436 411.32 154.091V152.926C411.32 150.497 411.732 148.655 412.555 147.401C413.384 146.146 414.629 145.497 416.291 145.455C416.878 145.436 417.402 145.431 417.861 145.44C418.32 145.45 418.72 145.429 419.061 145.376C419.402 145.324 419.691 145.199 419.928 145ZM416.206 158.722C416.864 158.722 417.43 158.556 417.903 158.224C418.382 157.893 418.749 157.427 419.004 156.825C419.26 156.219 419.388 155.507 419.388 154.688C419.388 153.892 419.258 153.215 418.997 152.656C418.741 152.098 418.375 151.671 417.896 151.378C417.418 151.084 416.845 150.938 416.178 150.938C415.69 150.938 415.252 151.02 414.864 151.186C414.475 151.352 414.144 151.596 413.869 151.918C413.595 152.24 413.382 152.633 413.23 153.097C413.083 153.561 413.005 154.091 412.996 154.688C412.996 155.909 413.282 156.887 413.855 157.621C414.428 158.355 415.212 158.722 416.206 158.722ZM428.06 160.227C427.075 160.227 426.211 159.993 425.467 159.524C424.729 159.055 424.151 158.4 423.734 157.557C423.322 156.714 423.116 155.729 423.116 154.602C423.116 153.466 423.322 152.474 423.734 151.626C424.151 150.779 424.729 150.121 425.467 149.652C426.211 149.183 427.075 148.949 428.06 148.949C429.045 148.949 429.906 149.183 430.645 149.652C431.388 150.121 431.966 150.779 432.378 151.626C432.795 152.474 433.003 153.466 433.003 154.602C433.003 155.729 432.795 156.714 432.378 157.557C431.966 158.4 431.388 159.055 430.645 159.524C429.906 159.993 429.045 160.227 428.06 160.227ZM428.06 158.722C428.808 158.722 429.423 158.53 429.906 158.146C430.389 157.763 430.747 157.259 430.979 156.634C431.211 156.009 431.327 155.331 431.327 154.602C431.327 153.873 431.211 153.194 430.979 152.564C430.747 151.934 430.389 151.425 429.906 151.037C429.423 150.649 428.808 150.455 428.06 150.455C427.312 150.455 426.696 150.649 426.213 151.037C425.73 151.425 425.373 151.934 425.141 152.564C424.909 153.194 424.793 153.873 424.793 154.602C424.793 155.331 424.909 156.009 425.141 156.634C425.373 157.259 425.73 157.763 426.213 158.146C426.696 158.53 427.312 158.722 428.06 158.722ZM435.561 160V149.091H437.238V153.835H438.346L442.266 149.091H444.425L440.022 154.347L444.482 160H442.323L438.743 155.398H437.238V160H435.561ZM450.286 160.227C449.263 160.227 448.383 159.986 447.644 159.503C446.906 159.02 446.337 158.355 445.94 157.507C445.542 156.66 445.343 155.691 445.343 154.602C445.343 153.494 445.547 152.517 445.954 151.669C446.366 150.817 446.939 150.152 447.673 149.673C448.411 149.19 449.273 148.949 450.258 148.949C451.025 148.949 451.716 149.091 452.332 149.375C452.947 149.659 453.451 150.057 453.844 150.568C454.237 151.08 454.481 151.676 454.576 152.358H452.9C452.772 151.861 452.488 151.42 452.048 151.037C451.612 150.649 451.025 150.455 450.286 150.455C449.633 150.455 449.06 150.625 448.567 150.966C448.08 151.302 447.699 151.778 447.424 152.393C447.154 153.004 447.019 153.722 447.019 154.545C447.019 155.388 447.152 156.122 447.417 156.747C447.687 157.372 448.066 157.857 448.553 158.203C449.046 158.549 449.623 158.722 450.286 158.722C450.722 158.722 451.117 158.646 451.472 158.494C451.827 158.343 452.128 158.125 452.374 157.841C452.621 157.557 452.796 157.216 452.9 156.818H454.576C454.481 157.462 454.247 158.042 453.873 158.558C453.504 159.07 453.013 159.477 452.403 159.78C451.797 160.078 451.091 160.227 450.286 160.227ZM460.237 160.256C459.545 160.256 458.918 160.125 458.354 159.865C457.791 159.6 457.344 159.219 457.012 158.722C456.681 158.22 456.515 157.614 456.515 156.903C456.515 156.278 456.638 155.772 456.884 155.384C457.13 154.991 457.46 154.683 457.871 154.46C458.283 154.238 458.738 154.072 459.235 153.963C459.737 153.849 460.241 153.759 460.748 153.693C461.411 153.608 461.948 153.544 462.36 153.501C462.777 153.454 463.08 153.376 463.269 153.267C463.463 153.158 463.56 152.969 463.56 152.699V152.642C463.56 151.941 463.369 151.397 462.985 151.009C462.606 150.62 462.031 150.426 461.259 150.426C460.459 150.426 459.832 150.601 459.377 150.952C458.923 151.302 458.603 151.676 458.418 152.074L456.827 151.506C457.112 150.843 457.49 150.327 457.964 149.957C458.442 149.583 458.963 149.323 459.526 149.176C460.094 149.025 460.653 148.949 461.202 148.949C461.553 148.949 461.955 148.991 462.41 149.077C462.869 149.157 463.312 149.325 463.738 149.581C464.169 149.837 464.526 150.223 464.81 150.739C465.094 151.255 465.237 151.946 465.237 152.812V160H463.56V158.523H463.475C463.362 158.759 463.172 159.013 462.907 159.283C462.642 159.553 462.289 159.782 461.849 159.972C461.408 160.161 460.871 160.256 460.237 160.256ZM460.492 158.75C461.155 158.75 461.714 158.62 462.168 158.359C462.628 158.099 462.973 157.763 463.205 157.351C463.442 156.939 463.56 156.506 463.56 156.051V154.517C463.489 154.602 463.333 154.68 463.092 154.751C462.855 154.818 462.58 154.877 462.268 154.929C461.96 154.976 461.659 155.019 461.366 155.057C461.077 155.09 460.843 155.118 460.663 155.142C460.227 155.199 459.82 155.291 459.441 155.419C459.067 155.542 458.764 155.729 458.532 155.98C458.305 156.226 458.191 156.562 458.191 156.989C458.191 157.571 458.406 158.011 458.837 158.31C459.273 158.603 459.825 158.75 460.492 158.75Z" fill="#0A2832"/>
<path d="M43.4631 114.199C42.4877 114.199 41.6165 114.031 40.8494 113.695C40.0871 113.358 39.4834 112.892 39.0384 112.295C38.598 111.694 38.3613 110.998 38.3281 110.207H40.5582C40.5866 110.638 40.7311 111.012 40.9915 111.33C41.2566 111.642 41.6023 111.884 42.0284 112.054C42.4545 112.224 42.928 112.31 43.4489 112.31C44.0218 112.31 44.5284 112.21 44.9688 112.011C45.4138 111.812 45.7618 111.536 46.0128 111.18C46.2637 110.821 46.3892 110.406 46.3892 109.938C46.3892 109.45 46.2637 109.021 46.0128 108.652C45.7666 108.278 45.4044 107.984 44.9261 107.771C44.4527 107.558 43.8797 107.452 43.2074 107.452H41.9787V105.662H43.2074C43.7472 105.662 44.2206 105.565 44.6278 105.371C45.0398 105.177 45.3617 104.907 45.5938 104.561C45.8258 104.211 45.9418 103.801 45.9418 103.332C45.9418 102.883 45.84 102.492 45.6364 102.161C45.4375 101.824 45.1534 101.562 44.7841 101.372C44.4195 101.183 43.9886 101.088 43.4915 101.088C43.018 101.088 42.5753 101.176 42.1634 101.351C41.7562 101.521 41.4247 101.768 41.169 102.089C40.9134 102.407 40.776 102.788 40.7571 103.233H38.6335C38.6572 102.447 38.8892 101.756 39.3295 101.159C39.7746 100.562 40.3617 100.096 41.0909 99.7599C41.8201 99.4238 42.6297 99.2557 43.5199 99.2557C44.4527 99.2557 45.2576 99.438 45.9347 99.8026C46.6165 100.162 47.142 100.643 47.5114 101.244C47.8854 101.846 48.0701 102.504 48.0653 103.219C48.0701 104.033 47.8428 104.724 47.3835 105.293C46.929 105.861 46.3229 106.242 45.5653 106.436V106.55C46.5313 106.696 47.2794 107.08 47.8097 107.7C48.3447 108.321 48.6098 109.09 48.6051 110.009C48.6098 110.809 48.3873 111.526 47.9375 112.161C47.4924 112.795 46.884 113.295 46.1122 113.659C45.3404 114.019 44.4574 114.199 43.4631 114.199ZM54.4929 114.241C53.8016 114.241 53.1766 114.114 52.6179 113.858C52.0592 113.598 51.6165 113.221 51.2898 112.729C50.9678 112.236 50.8068 111.633 50.8068 110.918C50.8068 110.302 50.9252 109.795 51.1619 109.398C51.3987 109 51.7183 108.685 52.1207 108.453C52.5232 108.221 52.973 108.046 53.4702 107.928C53.9673 107.809 54.474 107.719 54.9901 107.658C55.6435 107.582 56.1738 107.52 56.581 107.473C56.9882 107.421 57.2841 107.338 57.4688 107.224C57.6534 107.111 57.7457 106.926 57.7457 106.67V106.621C57.7457 106 57.5705 105.52 57.2202 105.179C56.8745 104.838 56.3584 104.668 55.6719 104.668C54.9569 104.668 54.3935 104.826 53.9815 105.143C53.5743 105.456 53.2926 105.804 53.1364 106.188L51.1406 105.733C51.3774 105.07 51.723 104.535 52.1776 104.128C52.6368 103.716 53.1648 103.418 53.7614 103.233C54.358 103.044 54.9853 102.949 55.6435 102.949C56.0791 102.949 56.5407 103.001 57.0284 103.105C57.5208 103.205 57.9801 103.389 58.4062 103.659C58.8371 103.929 59.1899 104.315 59.4645 104.817C59.7391 105.314 59.8764 105.96 59.8764 106.756V114H57.8026V112.509H57.7173C57.58 112.783 57.3741 113.053 57.0994 113.318C56.8248 113.583 56.4721 113.804 56.0412 113.979C55.6103 114.154 55.0942 114.241 54.4929 114.241ZM54.9545 112.537C55.5417 112.537 56.0436 112.421 56.4602 112.189C56.8816 111.957 57.2012 111.654 57.419 111.28C57.6416 110.901 57.7528 110.496 57.7528 110.065V108.659C57.6771 108.735 57.5303 108.806 57.3125 108.872C57.0994 108.934 56.8556 108.988 56.581 109.036C56.3063 109.078 56.0388 109.118 55.7784 109.156C55.518 109.189 55.3002 109.218 55.125 109.241C54.7131 109.294 54.3366 109.381 53.9957 109.504C53.6596 109.627 53.3897 109.805 53.1861 110.037C52.9872 110.264 52.8878 110.567 52.8878 110.946C52.8878 111.472 53.0819 111.869 53.4702 112.139C53.8584 112.404 54.3532 112.537 54.9545 112.537ZM69.6793 103.091V104.923H64.8001V114H62.7049V103.091H69.6793ZM76.011 114.22C74.9883 114.22 74.0958 113.986 73.3335 113.517C72.5711 113.048 71.9793 112.393 71.5579 111.55C71.1365 110.707 70.9258 109.722 70.9258 108.595C70.9258 107.464 71.1365 106.474 71.5579 105.626C71.9793 104.779 72.5711 104.121 73.3335 103.652C74.0958 103.183 74.9883 102.949 76.011 102.949C77.0337 102.949 77.9263 103.183 78.6886 103.652C79.4509 104.121 80.0427 104.779 80.4641 105.626C80.8855 106.474 81.0962 107.464 81.0962 108.595C81.0962 109.722 80.8855 110.707 80.4641 111.55C80.0427 112.393 79.4509 113.048 78.6886 113.517C77.9263 113.986 77.0337 114.22 76.011 114.22ZM76.0181 112.438C76.681 112.438 77.2302 112.262 77.6658 111.912C78.1014 111.562 78.4234 111.095 78.6317 110.513C78.8448 109.93 78.9513 109.289 78.9513 108.588C78.9513 107.892 78.8448 107.253 78.6317 106.67C78.4234 106.083 78.1014 105.612 77.6658 105.257C77.2302 104.902 76.681 104.724 76.0181 104.724C75.3505 104.724 74.7965 104.902 74.3562 105.257C73.9206 105.612 73.5962 106.083 73.3832 106.67C73.1748 107.253 73.0707 107.892 73.0707 108.588C73.0707 109.289 73.1748 109.93 73.3832 110.513C73.5962 111.095 73.9206 111.562 74.3562 111.912C74.7965 112.262 75.3505 112.438 76.0181 112.438ZM82.6072 114L82.6001 112.161H82.9908C83.2938 112.161 83.5471 112.097 83.7507 111.969C83.959 111.836 84.1295 111.614 84.2621 111.301C84.3946 110.989 84.4964 110.558 84.5675 110.009C84.6385 109.455 84.6906 108.759 84.7237 107.92L84.9155 103.091H92.5291V114H90.4482V104.923H86.8828L86.7124 108.631C86.6697 109.53 86.5774 110.316 86.4354 110.989C86.2981 111.661 86.0968 112.222 85.8317 112.672C85.5665 113.117 85.2256 113.451 84.8089 113.673C84.3923 113.891 83.8857 114 83.2891 114H82.6072ZM99.9563 114.22C98.9336 114.22 98.0411 113.986 97.2788 113.517C96.5165 113.048 95.9246 112.393 95.5032 111.55C95.0818 110.707 94.8711 109.722 94.8711 108.595C94.8711 107.464 95.0818 106.474 95.5032 105.626C95.9246 104.779 96.5165 104.121 97.2788 103.652C98.0411 103.183 98.9336 102.949 99.9563 102.949C100.979 102.949 101.872 103.183 102.634 103.652C103.396 104.121 103.988 104.779 104.409 105.626C104.831 106.474 105.042 107.464 105.042 108.595C105.042 109.722 104.831 110.707 104.409 111.55C103.988 112.393 103.396 113.048 102.634 113.517C101.872 113.986 100.979 114.22 99.9563 114.22ZM99.9634 112.438C100.626 112.438 101.176 112.262 101.611 111.912C102.047 111.562 102.369 111.095 102.577 110.513C102.79 109.93 102.897 109.289 102.897 108.588C102.897 107.892 102.79 107.253 102.577 106.67C102.369 106.083 102.047 105.612 101.611 105.257C101.176 104.902 100.626 104.724 99.9634 104.724C99.2958 104.724 98.7418 104.902 98.3015 105.257C97.8659 105.612 97.5415 106.083 97.3285 106.67C97.1201 107.253 97.016 107.892 97.016 108.588C97.016 109.289 97.1201 109.93 97.3285 110.513C97.5415 111.095 97.8659 111.562 98.3015 111.912C98.7418 112.262 99.2958 112.438 99.9634 112.438ZM107.412 114V103.091H111.936C113.167 103.091 114.143 103.354 114.862 103.879C115.582 104.4 115.942 105.108 115.942 106.003C115.942 106.642 115.738 107.149 115.331 107.523C114.924 107.897 114.384 108.148 113.712 108.276C114.199 108.332 114.647 108.479 115.054 108.716C115.461 108.948 115.788 109.26 116.034 109.653C116.285 110.046 116.411 110.515 116.411 111.06C116.411 111.637 116.261 112.149 115.963 112.594C115.665 113.034 115.232 113.38 114.663 113.631C114.1 113.877 113.42 114 112.625 114H107.412ZM109.408 112.224H112.625C113.151 112.224 113.563 112.099 113.861 111.848C114.159 111.597 114.308 111.256 114.308 110.825C114.308 110.319 114.159 109.921 113.861 109.632C113.563 109.339 113.151 109.192 112.625 109.192H109.408V112.224ZM109.408 107.636H111.957C112.355 107.636 112.696 107.58 112.98 107.466C113.269 107.352 113.489 107.191 113.641 106.983C113.797 106.77 113.875 106.519 113.875 106.23C113.875 105.809 113.702 105.48 113.357 105.243C113.011 105.006 112.537 104.888 111.936 104.888H109.408V107.636ZM123.335 114.22C122.313 114.22 121.42 113.986 120.658 113.517C119.895 113.048 119.304 112.393 118.882 111.55C118.461 110.707 118.25 109.722 118.25 108.595C118.25 107.464 118.461 106.474 118.882 105.626C119.304 104.779 119.895 104.121 120.658 103.652C121.42 103.183 122.313 102.949 123.335 102.949C124.358 102.949 125.25 103.183 126.013 103.652C126.775 104.121 127.367 104.779 127.788 105.626C128.21 106.474 128.42 107.464 128.42 108.595C128.42 109.722 128.21 110.707 127.788 111.55C127.367 112.393 126.775 113.048 126.013 113.517C125.25 113.986 124.358 114.22 123.335 114.22ZM123.342 112.438C124.005 112.438 124.554 112.262 124.99 111.912C125.426 111.562 125.748 111.095 125.956 110.513C126.169 109.93 126.276 109.289 126.276 108.588C126.276 107.892 126.169 107.253 125.956 106.67C125.748 106.083 125.426 105.612 124.99 105.257C124.554 104.902 124.005 104.724 123.342 104.724C122.675 104.724 122.121 104.902 121.68 105.257C121.245 105.612 120.92 106.083 120.707 106.67C120.499 107.253 120.395 107.892 120.395 108.588C120.395 109.289 120.499 109.93 120.707 110.513C120.92 111.095 121.245 111.562 121.68 111.912C122.121 112.262 122.675 112.438 123.342 112.438ZM130.791 114V103.091H132.914V107.665H133.937L137.538 103.091H140.166L135.94 108.396L140.216 114H137.581L134.292 109.639H132.914V114H130.791Z" fill="#0A2832"/>
<path d="M21.0497 165.273V174H19.9929V166.381H19.9418L17.8111 167.795V166.722L19.9929 165.273H21.0497ZM23.5597 174V173.233L26.4403 170.08C26.7784 169.71 27.0568 169.389 27.2756 169.116C27.4943 168.841 27.6563 168.582 27.7614 168.341C27.8693 168.097 27.9233 167.841 27.9233 167.574C27.9233 167.267 27.8494 167.001 27.7017 166.777C27.5568 166.553 27.358 166.379 27.1051 166.257C26.8523 166.135 26.5682 166.074 26.2528 166.074C25.9176 166.074 25.625 166.143 25.375 166.283C25.1278 166.419 24.9361 166.611 24.7997 166.858C24.6662 167.105 24.5994 167.395 24.5994 167.727H23.5938C23.5938 167.216 23.7116 166.767 23.9474 166.381C24.1832 165.994 24.5043 165.693 24.9105 165.477C25.3196 165.261 25.7784 165.153 26.2869 165.153C26.7983 165.153 27.2514 165.261 27.6463 165.477C28.0412 165.693 28.3509 165.984 28.5753 166.351C28.7997 166.717 28.9119 167.125 28.9119 167.574C28.9119 167.895 28.8537 168.209 28.7372 168.516C28.6236 168.82 28.4247 169.159 28.1406 169.534C27.8594 169.906 27.4688 170.361 26.9688 170.898L25.0085 172.994V173.062H29.0653V174H23.5597Z" fill="#738287"/>
<path d="M526.05 117.273V126H524.993V118.381H524.942L522.811 119.795V118.722L524.993 117.273H526.05ZM528.56 126V125.233L531.44 122.08C531.778 121.71 532.057 121.389 532.276 121.116C532.494 120.841 532.656 120.582 532.761 120.341C532.869 120.097 532.923 119.841 532.923 119.574C532.923 119.267 532.849 119.001 532.702 118.777C532.557 118.553 532.358 118.379 532.105 118.257C531.852 118.135 531.568 118.074 531.253 118.074C530.918 118.074 530.625 118.143 530.375 118.283C530.128 118.419 529.936 118.611 529.8 118.858C529.666 119.105 529.599 119.395 529.599 119.727H528.594C528.594 119.216 528.712 118.767 528.947 118.381C529.183 117.994 529.504 117.693 529.911 117.477C530.32 117.261 530.778 117.153 531.287 117.153C531.798 117.153 532.251 117.261 532.646 117.477C533.041 117.693 533.351 117.984 533.575 118.351C533.8 118.717 533.912 119.125 533.912 119.574C533.912 119.895 533.854 120.209 533.737 120.516C533.624 120.82 533.425 121.159 533.141 121.534C532.859 121.906 532.469 122.361 531.969 122.898L530.009 124.994V125.062H534.065V126H528.56Z" fill="#738287"/>
<path d="M17.0147 157V156.233L19.8954 153.08C20.2335 152.71 20.5119 152.389 20.7306 152.116C20.9494 151.841 21.1113 151.582 21.2164 151.341C21.3244 151.097 21.3784 150.841 21.3784 150.574C21.3784 150.267 21.3045 150.001 21.1568 149.777C21.0119 149.553 20.813 149.379 20.5602 149.257C20.3074 149.135 20.0233 149.074 19.7079 149.074C19.3727 149.074 19.0801 149.143 18.8301 149.283C18.5829 149.419 18.3912 149.611 18.2548 149.858C18.1213 150.105 18.0545 150.395 18.0545 150.727H17.0488C17.0488 150.216 17.1667 149.767 17.4025 149.381C17.6383 148.994 17.9593 148.693 18.3656 148.477C18.7747 148.261 19.2335 148.153 19.742 148.153C20.2534 148.153 20.7065 148.261 21.1014 148.477C21.4963 148.693 21.8059 148.984 22.0304 149.351C22.2548 149.717 22.367 150.125 22.367 150.574C22.367 150.895 22.3088 151.209 22.1923 151.516C22.0787 151.82 21.8798 152.159 21.5957 152.534C21.3145 152.906 20.9238 153.361 20.4238 153.898L18.4636 155.994V156.062H22.5204V157H17.0147ZM23.8883 155.21V154.341L27.7235 148.273H28.3542V149.619H27.9281L25.0304 154.205V154.273H30.1951V155.21H23.8883ZM27.9963 157V154.946V154.541V148.273H29.002V157H27.9963Z" fill="#738287"/>
<path d="M41.0147 192V191.233L43.8954 188.08C44.2335 187.71 44.5119 187.389 44.7306 187.116C44.9494 186.841 45.1113 186.582 45.2164 186.341C45.3244 186.097 45.3784 185.841 45.3784 185.574C45.3784 185.267 45.3045 185.001 45.1568 184.777C45.0119 184.553 44.813 184.379 44.5602 184.257C44.3074 184.135 44.0233 184.074 43.7079 184.074C43.3727 184.074 43.0801 184.143 42.8301 184.283C42.5829 184.419 42.3912 184.611 42.2548 184.858C42.1213 185.105 42.0545 185.395 42.0545 185.727H41.0488C41.0488 185.216 41.1667 184.767 41.4025 184.381C41.6383 183.994 41.9593 183.693 42.3656 183.477C42.7747 183.261 43.2335 183.153 43.742 183.153C44.2534 183.153 44.7065 183.261 45.1014 183.477C45.4963 183.693 45.8059 183.984 46.0304 184.351C46.2548 184.717 46.367 185.125 46.367 185.574C46.367 185.895 46.3088 186.209 46.1923 186.516C46.0787 186.82 45.8798 187.159 45.5957 187.534C45.3145 187.906 44.9238 188.361 44.4238 188.898L42.4636 190.994V191.062H46.5204V192H41.0147ZM47.8883 190.21V189.341L51.7235 183.273H52.3542V184.619H51.9281L49.0304 189.205V189.273H54.1951V190.21H47.8883ZM51.9963 192V189.946V189.541V183.273H53.002V192H51.9963Z" fill="#738287"/>
<path d="M65.4384 183.273V192H64.3816V184.381H64.3304L62.1998 185.795V184.722L64.3816 183.273H65.4384ZM70.8461 192.119C70.4881 192.114 70.1301 192.045 69.7722 191.915C69.4142 191.784 69.0875 191.564 68.7921 191.254C68.4966 190.942 68.2594 190.52 68.0804 189.989C67.9015 189.455 67.812 188.784 67.812 187.977C67.812 187.205 67.8844 186.52 68.0293 185.923C68.1742 185.324 68.3844 184.82 68.66 184.411C68.9355 183.999 69.2679 183.686 69.6571 183.473C70.0492 183.26 70.4909 183.153 70.9824 183.153C71.4711 183.153 71.9057 183.251 72.2864 183.447C72.6699 183.641 72.9824 183.911 73.2239 184.257C73.4654 184.604 73.6216 185.003 73.6926 185.455H72.6529C72.5563 185.062 72.3688 184.737 72.0904 184.479C71.812 184.22 71.4426 184.091 70.9824 184.091C70.3063 184.091 69.7736 184.385 69.3844 184.973C68.998 185.561 68.8034 186.386 68.8006 187.449H68.8688C69.0279 187.207 69.2168 187.001 69.4355 186.831C69.6571 186.658 69.9015 186.524 70.1685 186.43C70.4355 186.337 70.7182 186.29 71.0165 186.29C71.5165 186.29 71.9739 186.415 72.3887 186.665C72.8034 186.912 73.1358 187.254 73.3858 187.692C73.6358 188.126 73.7608 188.625 73.7608 189.188C73.7608 189.727 73.6401 190.222 73.3986 190.67C73.1571 191.116 72.8176 191.472 72.3801 191.736C71.9455 191.997 71.4341 192.125 70.8461 192.119ZM70.8461 191.182C71.204 191.182 71.525 191.092 71.8091 190.913C72.0961 190.734 72.3219 190.494 72.4867 190.193C72.6543 189.892 72.7381 189.557 72.7381 189.188C72.7381 188.827 72.6571 188.499 72.4952 188.203C72.3361 187.905 72.1159 187.668 71.8347 187.491C71.5563 187.315 71.2381 187.227 70.8801 187.227C70.6103 187.227 70.3588 187.281 70.1259 187.389C69.8929 187.494 69.6884 187.639 69.5123 187.824C69.339 188.009 69.2026 188.22 69.1032 188.459C69.0037 188.695 68.954 188.943 68.954 189.205C68.954 189.551 69.035 189.875 69.1969 190.176C69.3617 190.477 69.5861 190.72 69.8702 190.905C70.1571 191.089 70.4824 191.182 70.8461 191.182Z" fill="#738287"/>
<path d="M245.152 190.21V189.341L248.987 183.273H249.618V184.619H249.192L246.294 189.205V189.273H251.459V190.21H245.152ZM249.26 192V189.946V189.541V183.273H250.266V192H249.26ZM255.851 192.119C255.266 192.119 254.749 192.016 254.3 191.808C253.854 191.598 253.506 191.31 253.256 190.943C253.006 190.574 252.882 190.153 252.885 189.682C252.882 189.312 252.955 188.972 253.103 188.659C253.25 188.344 253.452 188.081 253.708 187.871C253.966 187.658 254.255 187.523 254.573 187.466V187.415C254.155 187.307 253.823 187.072 253.576 186.712C253.328 186.348 253.206 185.935 253.209 185.472C253.206 185.028 253.319 184.632 253.546 184.283C253.773 183.933 254.086 183.658 254.483 183.456C254.884 183.254 255.34 183.153 255.851 183.153C256.357 183.153 256.809 183.254 257.206 183.456C257.604 183.658 257.917 183.933 258.144 184.283C258.374 184.632 258.49 185.028 258.493 185.472C258.49 185.935 258.364 186.348 258.114 186.712C257.867 187.072 257.539 187.307 257.13 187.415V187.466C257.445 187.523 257.729 187.658 257.982 187.871C258.235 188.081 258.436 188.344 258.587 188.659C258.738 188.972 258.814 189.312 258.817 189.682C258.814 190.153 258.686 190.574 258.434 190.943C258.184 191.31 257.836 191.598 257.39 191.808C256.946 192.016 256.434 192.119 255.851 192.119ZM255.851 191.182C256.246 191.182 256.587 191.118 256.874 190.99C257.161 190.862 257.382 190.682 257.539 190.449C257.695 190.216 257.775 189.943 257.777 189.631C257.775 189.301 257.689 189.01 257.522 188.757C257.354 188.504 257.125 188.305 256.836 188.161C256.549 188.016 256.221 187.943 255.851 187.943C255.479 187.943 255.147 188.016 254.854 188.161C254.564 188.305 254.336 188.504 254.168 188.757C254.003 189.01 253.922 189.301 253.925 189.631C253.922 189.943 253.998 190.216 254.151 190.449C254.307 190.682 254.53 190.862 254.82 190.99C255.11 191.118 255.453 191.182 255.851 191.182ZM255.851 187.04C256.164 187.04 256.441 186.977 256.682 186.852C256.926 186.727 257.118 186.553 257.257 186.328C257.397 186.104 257.468 185.841 257.471 185.54C257.468 185.244 257.398 184.987 257.262 184.768C257.125 184.547 256.936 184.376 256.695 184.257C256.453 184.135 256.172 184.074 255.851 184.074C255.525 184.074 255.239 184.135 254.995 184.257C254.75 184.376 254.561 184.547 254.428 184.768C254.294 184.987 254.229 185.244 254.232 185.54C254.229 185.841 254.296 186.104 254.432 186.328C254.571 186.553 254.763 186.727 255.007 186.852C255.252 186.977 255.533 187.04 255.851 187.04Z" fill="#738287"/>
<path d="M522.015 109V108.233L524.895 105.08C525.233 104.71 525.512 104.389 525.731 104.116C525.949 103.841 526.111 103.582 526.216 103.341C526.324 103.097 526.378 102.841 526.378 102.574C526.378 102.267 526.305 102.001 526.157 101.777C526.012 101.553 525.813 101.379 525.56 101.257C525.307 101.135 525.023 101.074 524.708 101.074C524.373 101.074 524.08 101.143 523.83 101.283C523.583 101.419 523.391 101.611 523.255 101.858C523.121 102.105 523.055 102.395 523.055 102.727H522.049C522.049 102.216 522.167 101.767 522.403 101.381C522.638 100.994 522.959 100.693 523.366 100.477C523.775 100.261 524.233 100.153 524.742 100.153C525.253 100.153 525.706 100.261 526.101 100.477C526.496 100.693 526.806 100.984 527.03 101.351C527.255 101.717 527.367 102.125 527.367 102.574C527.367 102.895 527.309 103.209 527.192 103.516C527.079 103.82 526.88 104.159 526.596 104.534C526.314 104.906 525.924 105.361 525.424 105.898L523.464 107.994V108.062H527.52V109H522.015ZM528.888 107.21V106.341L532.724 100.273H533.354V101.619H532.928L530.03 106.205V106.273H535.195V107.21H528.888ZM532.996 109V106.946V106.541V100.273H534.002V109H532.996Z" fill="#738287"/>
<path d="M21.0497 131.273V140H19.9929V132.381H19.9418L17.8111 133.795V132.722L19.9929 131.273H21.0497ZM23.5597 140V139.233L26.4403 136.08C26.7784 135.71 27.0568 135.389 27.2756 135.116C27.4943 134.841 27.6563 134.582 27.7614 134.341C27.8693 134.097 27.9233 133.841 27.9233 133.574C27.9233 133.267 27.8494 133.001 27.7017 132.777C27.5568 132.553 27.358 132.379 27.1051 132.257C26.8523 132.135 26.5682 132.074 26.2528 132.074C25.9176 132.074 25.625 132.143 25.375 132.283C25.1278 132.419 24.9361 132.611 24.7997 132.858C24.6662 133.105 24.5994 133.395 24.5994 133.727H23.5938C23.5938 133.216 23.7116 132.767 23.9474 132.381C24.1832 131.994 24.5043 131.693 24.9105 131.477C25.3196 131.261 25.7784 131.153 26.2869 131.153C26.7983 131.153 27.2514 131.261 27.6463 131.477C28.0412 131.693 28.3509 131.984 28.5753 132.351C28.7997 132.717 28.9119 133.125 28.9119 133.574C28.9119 133.895 28.8537 134.209 28.7372 134.516C28.6236 134.82 28.4247 135.159 28.1406 135.534C27.8594 135.906 27.4688 136.361 26.9688 136.898L25.0085 138.994V139.062H29.0653V140H23.5597Z" fill="#738287"/>
<path d="M526.05 83.2727V92H524.993V84.3807H524.942L522.811 85.7955V84.7216L524.993 83.2727H526.05ZM528.56 92V91.233L531.44 88.0795C531.778 87.7102 532.057 87.3892 532.276 87.1165C532.494 86.8409 532.656 86.5824 532.761 86.3409C532.869 86.0966 532.923 85.8409 532.923 85.5739C532.923 85.267 532.849 85.0014 532.702 84.777C532.557 84.5526 532.358 84.3793 532.105 84.2571C531.852 84.1349 531.568 84.0739 531.253 84.0739C530.918 84.0739 530.625 84.1435 530.375 84.2827C530.128 84.419 529.936 84.6108 529.8 84.858C529.666 85.1051 529.599 85.3949 529.599 85.7273H528.594C528.594 85.2159 528.712 84.767 528.947 84.3807C529.183 83.9943 529.504 83.6932 529.911 83.4773C530.32 83.2614 530.778 83.1534 531.287 83.1534C531.798 83.1534 532.251 83.2614 532.646 83.4773C533.041 83.6932 533.351 83.9844 533.575 84.3509C533.8 84.7173 533.912 85.125 533.912 85.5739C533.912 85.8949 533.854 86.2088 533.737 86.5156C533.624 86.8196 533.425 87.1591 533.141 87.5341C532.859 87.9062 532.469 88.3608 531.969 88.8977L530.009 90.9943V91.0625H534.065V92H528.56Z" fill="#738287"/>
<path d="M515 129V81H37V177.5" stroke="#8ECBB0" stroke-width="1.5"/>
<path d="M37 93H515" stroke="#8ECBB0" stroke-width="1.5"/>
<path d="M37 117H515" stroke="#8ECBB0" stroke-width="1.5"/>
<path d="M37 129H228" stroke="#8ECBB0" stroke-width="1.5"/>
<path d="M37 141H228" stroke="#8ECBB0" stroke-width="1.5"/>
<path d="M37 165H228" stroke="#8ECBB0" stroke-width="1.5"/>
<path d="M37 177H228" stroke="#8ECBB0" stroke-width="1.5"/>
<path d="M276 141H467" stroke="#8ECBB0" stroke-width="1.5"/>
<path d="M276 165H467" stroke="#8ECBB0" stroke-width="1.5"/>
<path d="M276 177H467" stroke="#8ECBB0" stroke-width="1.5"/>
<rect x="228" y="129" width="48" height="48" stroke="#FF9F7E" stroke-width="1.5"/>
<rect x="467" y="129" width="48" height="48" stroke="#FF9F7E" stroke-width="1.5"/>
<path d="M61 117V177" stroke="#8ECBB0" stroke-width="1.5"/>
<path d="M77 117V177" stroke="#8ECBB0" stroke-width="1.5"/>
<path d="M300 117V176.5" stroke="#8ECBB0" stroke-width="1.5"/>
<path d="M316 117V176.5" stroke="#8ECBB0" stroke-width="1.5"/>
<defs>
<clipPath id="clip0_964_3217">
<rect width="24" height="24" fill="white" transform="translate(37 141)"/>
</clipPath>
<clipPath id="clip1_964_3217">
<rect width="24" height="24" fill="white" transform="translate(276 141)"/>
</clipPath>
</defs>
</svg>
