<svg width="552" height="276" viewBox="0 0 552 276" fill="none" xmlns="http://www.w3.org/2000/svg">
<rect width="552" height="276" fill="#F2F6F9"/>
<g clip-path="url(#clip0_964_3216)">
<rect x="159.75" y="119.75" width="20.5" height="20.5" fill="#058C50" stroke="#058C50" stroke-width="1.5"/>
<path d="M178.985 125.378L168.38 135.985L162.016 129.621L163.43 128.207L168.38 133.157L177.572 123.964L178.985 125.378Z" fill="white"/>
</g>
<path d="M198.966 124.017V122.455H209.875V124.017H205.301V137H203.54V124.017H198.966ZM215.358 137.227C214.307 137.227 213.4 136.995 212.638 136.531C211.88 136.062 211.295 135.409 210.884 134.571C210.476 133.728 210.273 132.748 210.273 131.631C210.273 130.513 210.476 129.528 210.884 128.676C211.295 127.819 211.868 127.152 212.602 126.673C213.341 126.19 214.203 125.949 215.188 125.949C215.756 125.949 216.317 126.044 216.871 126.233C217.425 126.422 217.929 126.73 218.384 127.156C218.838 127.578 219.2 128.136 219.47 128.832C219.74 129.528 219.875 130.385 219.875 131.403V132.114H211.466V130.665H218.17C218.17 130.049 218.047 129.5 217.801 129.017C217.56 128.534 217.214 128.153 216.764 127.874C216.319 127.594 215.794 127.455 215.188 127.455C214.52 127.455 213.942 127.62 213.455 127.952C212.972 128.278 212.6 128.705 212.339 129.23C212.079 129.756 211.949 130.319 211.949 130.92V131.886C211.949 132.71 212.091 133.409 212.375 133.982C212.664 134.55 213.064 134.983 213.575 135.281C214.087 135.575 214.681 135.722 215.358 135.722C215.798 135.722 216.196 135.66 216.551 135.537C216.911 135.409 217.221 135.22 217.482 134.969C217.742 134.713 217.943 134.396 218.085 134.017L219.705 134.472C219.534 135.021 219.248 135.504 218.845 135.92C218.443 136.332 217.946 136.654 217.354 136.886C216.762 137.114 216.097 137.227 215.358 137.227ZM222.425 137V126.091H224.101V130.835H225.209L229.129 126.091H231.288L226.885 131.347L231.345 137H229.186L225.607 132.398H224.101V137H222.425ZM237.15 137.227C236.127 137.227 235.246 136.986 234.507 136.503C233.769 136.02 233.201 135.355 232.803 134.507C232.405 133.66 232.206 132.691 232.206 131.602C232.206 130.494 232.41 129.517 232.817 128.669C233.229 127.817 233.802 127.152 234.536 126.673C235.275 126.19 236.136 125.949 237.121 125.949C237.888 125.949 238.579 126.091 239.195 126.375C239.81 126.659 240.315 127.057 240.708 127.568C241.101 128.08 241.345 128.676 241.439 129.358H239.763C239.635 128.861 239.351 128.42 238.911 128.037C238.475 127.649 237.888 127.455 237.15 127.455C236.496 127.455 235.923 127.625 235.431 127.966C234.943 128.302 234.562 128.778 234.287 129.393C234.017 130.004 233.882 130.722 233.882 131.545C233.882 132.388 234.015 133.122 234.28 133.747C234.55 134.372 234.929 134.857 235.417 135.203C235.909 135.549 236.487 135.722 237.15 135.722C237.585 135.722 237.98 135.646 238.336 135.494C238.691 135.343 238.991 135.125 239.238 134.841C239.484 134.557 239.659 134.216 239.763 133.818H241.439C241.345 134.462 241.11 135.042 240.736 135.558C240.367 136.07 239.877 136.477 239.266 136.78C238.66 137.078 237.954 137.227 237.15 137.227ZM243.03 127.653V126.091H251.894V127.653H248.314V137H246.638V127.653H243.03ZM268.373 126.091V137H266.697V126.091H268.373ZM267.719 131.29V132.852C267.341 132.994 266.964 133.12 266.59 133.229C266.216 133.333 265.823 133.416 265.411 133.477C264.999 133.534 264.547 133.562 264.055 133.562C262.819 133.562 261.827 133.229 261.079 132.561C260.335 131.893 259.964 130.892 259.964 129.557V126.062H261.64V129.557C261.64 130.116 261.746 130.575 261.96 130.935C262.173 131.295 262.461 131.562 262.826 131.737C263.191 131.912 263.6 132 264.055 132C264.765 132 265.406 131.936 265.979 131.808C266.557 131.676 267.137 131.503 267.719 131.29ZM276.022 137.227C274.971 137.227 274.064 136.995 273.302 136.531C272.544 136.062 271.96 135.409 271.548 134.571C271.14 133.728 270.937 132.748 270.937 131.631C270.937 130.513 271.14 129.528 271.548 128.676C271.96 127.819 272.532 127.152 273.266 126.673C274.005 126.19 274.867 125.949 275.852 125.949C276.42 125.949 276.981 126.044 277.535 126.233C278.089 126.422 278.593 126.73 279.048 127.156C279.502 127.578 279.864 128.136 280.134 128.832C280.404 129.528 280.539 130.385 280.539 131.403V132.114H272.13V130.665H278.835C278.835 130.049 278.711 129.5 278.465 129.017C278.224 128.534 277.878 128.153 277.428 127.874C276.983 127.594 276.458 127.455 275.852 127.455C275.184 127.455 274.606 127.62 274.119 127.952C273.636 128.278 273.264 128.705 273.004 129.23C272.743 129.756 272.613 130.319 272.613 130.92V131.886C272.613 132.71 272.755 133.409 273.039 133.982C273.328 134.55 273.728 134.983 274.239 135.281C274.751 135.575 275.345 135.722 276.022 135.722C276.462 135.722 276.86 135.66 277.215 135.537C277.575 135.409 277.885 135.22 278.146 134.969C278.406 134.713 278.607 134.396 278.749 134.017L280.369 134.472C280.198 135.021 279.912 135.504 279.509 135.92C279.107 136.332 278.61 136.654 278.018 136.886C277.426 137.114 276.761 137.227 276.022 137.227ZM283.089 137V126.091H284.765V130.835H285.873L289.793 126.091H291.952L287.549 131.347L292.009 137H289.85L286.271 132.398H284.765V137H283.089ZM301.928 122L302.78 123.023C302.448 123.345 302.065 123.57 301.629 123.697C301.194 123.825 300.701 123.903 300.152 123.932C299.603 123.96 298.992 123.989 298.32 124.017C297.562 124.045 296.935 124.23 296.438 124.571C295.94 124.912 295.557 125.404 295.287 126.048C295.017 126.692 294.844 127.483 294.768 128.42H294.911C295.28 127.739 295.791 127.237 296.445 126.915C297.098 126.593 297.799 126.432 298.547 126.432C299.399 126.432 300.166 126.631 300.848 127.028C301.53 127.426 302.07 128.016 302.467 128.797C302.865 129.578 303.064 130.542 303.064 131.688C303.064 132.829 302.86 133.813 302.453 134.642C302.051 135.471 301.485 136.11 300.756 136.56C300.031 137.005 299.181 137.227 298.206 137.227C297.231 137.227 296.376 136.998 295.642 136.538C294.908 136.074 294.338 135.388 293.93 134.479C293.523 133.565 293.32 132.436 293.32 131.091V129.926C293.32 127.497 293.732 125.655 294.555 124.401C295.384 123.146 296.629 122.497 298.291 122.455C298.878 122.436 299.402 122.431 299.861 122.44C300.32 122.45 300.72 122.429 301.061 122.376C301.402 122.324 301.691 122.199 301.928 122ZM298.206 135.722C298.864 135.722 299.43 135.556 299.903 135.224C300.382 134.893 300.749 134.427 301.004 133.825C301.26 133.219 301.388 132.507 301.388 131.688C301.388 130.892 301.258 130.215 300.997 129.656C300.741 129.098 300.375 128.671 299.896 128.378C299.418 128.084 298.845 127.938 298.178 127.938C297.69 127.938 297.252 128.02 296.864 128.186C296.475 128.352 296.144 128.596 295.869 128.918C295.595 129.24 295.382 129.633 295.23 130.097C295.083 130.561 295.005 131.091 294.996 131.688C294.996 132.909 295.282 133.887 295.855 134.621C296.428 135.355 297.212 135.722 298.206 135.722ZM310.06 137.227C309.075 137.227 308.211 136.993 307.467 136.524C306.729 136.055 306.151 135.4 305.734 134.557C305.322 133.714 305.116 132.729 305.116 131.602C305.116 130.466 305.322 129.474 305.734 128.626C306.151 127.779 306.729 127.121 307.467 126.652C308.211 126.183 309.075 125.949 310.06 125.949C311.045 125.949 311.906 126.183 312.645 126.652C313.388 127.121 313.966 127.779 314.378 128.626C314.795 129.474 315.003 130.466 315.003 131.602C315.003 132.729 314.795 133.714 314.378 134.557C313.966 135.4 313.388 136.055 312.645 136.524C311.906 136.993 311.045 137.227 310.06 137.227ZM310.06 135.722C310.808 135.722 311.423 135.53 311.906 135.146C312.389 134.763 312.747 134.259 312.979 133.634C313.211 133.009 313.327 132.331 313.327 131.602C313.327 130.873 313.211 130.194 312.979 129.564C312.747 128.934 312.389 128.425 311.906 128.037C311.423 127.649 310.808 127.455 310.06 127.455C309.312 127.455 308.696 127.649 308.213 128.037C307.73 128.425 307.373 128.934 307.141 129.564C306.909 130.194 306.793 130.873 306.793 131.602C306.793 132.331 306.909 133.009 307.141 133.634C307.373 134.259 307.73 134.763 308.213 135.146C308.696 135.53 309.312 135.722 310.06 135.722ZM317.561 137V126.091H319.238V130.835H320.346L324.266 126.091H326.425L322.022 131.347L326.482 137H324.323L320.743 132.398H319.238V137H317.561ZM332.286 137.227C331.263 137.227 330.383 136.986 329.644 136.503C328.906 136.02 328.337 135.355 327.94 134.507C327.542 133.66 327.343 132.691 327.343 131.602C327.343 130.494 327.547 129.517 327.954 128.669C328.366 127.817 328.939 127.152 329.673 126.673C330.411 126.19 331.273 125.949 332.258 125.949C333.025 125.949 333.716 126.091 334.332 126.375C334.947 126.659 335.451 127.057 335.844 127.568C336.237 128.08 336.481 128.676 336.576 129.358H334.9C334.772 128.861 334.488 128.42 334.048 128.037C333.612 127.649 333.025 127.455 332.286 127.455C331.633 127.455 331.06 127.625 330.567 127.966C330.08 128.302 329.699 128.778 329.424 129.393C329.154 130.004 329.019 130.722 329.019 131.545C329.019 132.388 329.152 133.122 329.417 133.747C329.687 134.372 330.066 134.857 330.553 135.203C331.046 135.549 331.623 135.722 332.286 135.722C332.722 135.722 333.117 135.646 333.472 135.494C333.827 135.343 334.128 135.125 334.374 134.841C334.621 134.557 334.796 134.216 334.9 133.818H336.576C336.481 134.462 336.247 135.042 335.873 135.558C335.504 136.07 335.013 136.477 334.403 136.78C333.797 137.078 333.091 137.227 332.286 137.227ZM342.237 137.256C341.545 137.256 340.918 137.125 340.354 136.865C339.791 136.6 339.344 136.219 339.012 135.722C338.681 135.22 338.515 134.614 338.515 133.903C338.515 133.278 338.638 132.772 338.884 132.384C339.13 131.991 339.46 131.683 339.871 131.46C340.283 131.238 340.738 131.072 341.235 130.963C341.737 130.849 342.241 130.759 342.748 130.693C343.411 130.608 343.948 130.544 344.36 130.501C344.777 130.454 345.08 130.376 345.269 130.267C345.463 130.158 345.56 129.969 345.56 129.699V129.642C345.56 128.941 345.369 128.397 344.985 128.009C344.606 127.62 344.031 127.426 343.259 127.426C342.459 127.426 341.832 127.601 341.377 127.952C340.923 128.302 340.603 128.676 340.418 129.074L338.827 128.506C339.112 127.843 339.49 127.327 339.964 126.957C340.442 126.583 340.963 126.323 341.526 126.176C342.094 126.025 342.653 125.949 343.202 125.949C343.553 125.949 343.955 125.991 344.41 126.077C344.869 126.157 345.312 126.325 345.738 126.581C346.169 126.837 346.526 127.223 346.81 127.739C347.094 128.255 347.237 128.946 347.237 129.812V137H345.56V135.523H345.475C345.362 135.759 345.172 136.013 344.907 136.283C344.642 136.553 344.289 136.782 343.849 136.972C343.408 137.161 342.871 137.256 342.237 137.256ZM342.492 135.75C343.155 135.75 343.714 135.62 344.168 135.359C344.628 135.099 344.973 134.763 345.205 134.351C345.442 133.939 345.56 133.506 345.56 133.051V131.517C345.489 131.602 345.333 131.68 345.092 131.751C344.855 131.818 344.58 131.877 344.268 131.929C343.96 131.976 343.659 132.019 343.366 132.057C343.077 132.09 342.843 132.118 342.663 132.142C342.227 132.199 341.82 132.291 341.441 132.419C341.067 132.542 340.764 132.729 340.532 132.98C340.305 133.226 340.191 133.562 340.191 133.989C340.191 134.571 340.406 135.011 340.837 135.31C341.273 135.603 341.825 135.75 342.492 135.75Z" fill="#0A2832"/>
<g clip-path="url(#clip1_964_3216)">
<rect x="159.75" y="167.75" width="20.5" height="20.5" fill="#058C50" stroke="#058C50" stroke-width="1.5"/>
<path d="M178.985 173.378L168.38 183.985L162.016 177.621L163.43 176.207L168.38 181.157L177.572 171.964L178.985 173.378Z" fill="white"/>
</g>
<path d="M198.966 172.017V170.455H209.875V172.017H205.301V185H203.54V172.017H198.966ZM215.358 185.227C214.307 185.227 213.4 184.995 212.638 184.531C211.88 184.062 211.295 183.409 210.884 182.571C210.476 181.728 210.273 180.748 210.273 179.631C210.273 178.513 210.476 177.528 210.884 176.676C211.295 175.819 211.868 175.152 212.602 174.673C213.341 174.19 214.203 173.949 215.188 173.949C215.756 173.949 216.317 174.044 216.871 174.233C217.425 174.422 217.929 174.73 218.384 175.156C218.838 175.578 219.2 176.136 219.47 176.832C219.74 177.528 219.875 178.385 219.875 179.403V180.114H211.466V178.665H218.17C218.17 178.049 218.047 177.5 217.801 177.017C217.56 176.534 217.214 176.153 216.764 175.874C216.319 175.594 215.794 175.455 215.188 175.455C214.52 175.455 213.942 175.62 213.455 175.952C212.972 176.278 212.6 176.705 212.339 177.23C212.079 177.756 211.949 178.319 211.949 178.92V179.886C211.949 180.71 212.091 181.409 212.375 181.982C212.664 182.55 213.064 182.983 213.575 183.281C214.087 183.575 214.681 183.722 215.358 183.722C215.798 183.722 216.196 183.66 216.551 183.537C216.911 183.409 217.221 183.22 217.482 182.969C217.742 182.713 217.943 182.396 218.085 182.017L219.705 182.472C219.534 183.021 219.248 183.504 218.845 183.92C218.443 184.332 217.946 184.654 217.354 184.886C216.762 185.114 216.097 185.227 215.358 185.227ZM222.425 185V174.091H224.101V178.835H225.209L229.129 174.091H231.288L226.885 179.347L231.345 185H229.186L225.607 180.398H224.101V185H222.425ZM237.15 185.227C236.127 185.227 235.246 184.986 234.507 184.503C233.769 184.02 233.201 183.355 232.803 182.507C232.405 181.66 232.206 180.691 232.206 179.602C232.206 178.494 232.41 177.517 232.817 176.669C233.229 175.817 233.802 175.152 234.536 174.673C235.275 174.19 236.136 173.949 237.121 173.949C237.888 173.949 238.579 174.091 239.195 174.375C239.81 174.659 240.315 175.057 240.708 175.568C241.101 176.08 241.345 176.676 241.439 177.358H239.763C239.635 176.861 239.351 176.42 238.911 176.037C238.475 175.649 237.888 175.455 237.15 175.455C236.496 175.455 235.923 175.625 235.431 175.966C234.943 176.302 234.562 176.778 234.287 177.393C234.017 178.004 233.882 178.722 233.882 179.545C233.882 180.388 234.015 181.122 234.28 181.747C234.55 182.372 234.929 182.857 235.417 183.203C235.909 183.549 236.487 183.722 237.15 183.722C237.585 183.722 237.98 183.646 238.336 183.494C238.691 183.343 238.991 183.125 239.238 182.841C239.484 182.557 239.659 182.216 239.763 181.818H241.439C241.345 182.462 241.11 183.042 240.736 183.558C240.367 184.07 239.877 184.477 239.266 184.78C238.66 185.078 237.954 185.227 237.15 185.227ZM243.03 175.653V174.091H251.894V175.653H248.314V185H246.638V175.653H243.03ZM268.373 174.091V185H266.697V174.091H268.373ZM267.719 179.29V180.852C267.341 180.994 266.964 181.12 266.59 181.229C266.216 181.333 265.823 181.416 265.411 181.477C264.999 181.534 264.547 181.562 264.055 181.562C262.819 181.562 261.827 181.229 261.079 180.561C260.335 179.893 259.964 178.892 259.964 177.557V174.062H261.64V177.557C261.64 178.116 261.746 178.575 261.96 178.935C262.173 179.295 262.461 179.562 262.826 179.737C263.191 179.912 263.6 180 264.055 180C264.765 180 265.406 179.936 265.979 179.808C266.557 179.676 267.137 179.503 267.719 179.29ZM276.022 185.227C274.971 185.227 274.064 184.995 273.302 184.531C272.544 184.062 271.96 183.409 271.548 182.571C271.14 181.728 270.937 180.748 270.937 179.631C270.937 178.513 271.14 177.528 271.548 176.676C271.96 175.819 272.532 175.152 273.266 174.673C274.005 174.19 274.867 173.949 275.852 173.949C276.42 173.949 276.981 174.044 277.535 174.233C278.089 174.422 278.593 174.73 279.048 175.156C279.502 175.578 279.864 176.136 280.134 176.832C280.404 177.528 280.539 178.385 280.539 179.403V180.114H272.13V178.665H278.835C278.835 178.049 278.711 177.5 278.465 177.017C278.224 176.534 277.878 176.153 277.428 175.874C276.983 175.594 276.458 175.455 275.852 175.455C275.184 175.455 274.606 175.62 274.119 175.952C273.636 176.278 273.264 176.705 273.004 177.23C272.743 177.756 272.613 178.319 272.613 178.92V179.886C272.613 180.71 272.755 181.409 273.039 181.982C273.328 182.55 273.728 182.983 274.239 183.281C274.751 183.575 275.345 183.722 276.022 183.722C276.462 183.722 276.86 183.66 277.215 183.537C277.575 183.409 277.885 183.22 278.146 182.969C278.406 182.713 278.607 182.396 278.749 182.017L280.369 182.472C280.198 183.021 279.912 183.504 279.509 183.92C279.107 184.332 278.61 184.654 278.018 184.886C277.426 185.114 276.761 185.227 276.022 185.227ZM283.089 185V174.091H284.765V178.835H285.873L289.793 174.091H291.952L287.549 179.347L292.009 185H289.85L286.271 180.398H284.765V185H283.089ZM301.928 170L302.78 171.023C302.448 171.345 302.065 171.57 301.629 171.697C301.194 171.825 300.701 171.903 300.152 171.932C299.603 171.96 298.992 171.989 298.32 172.017C297.562 172.045 296.935 172.23 296.438 172.571C295.94 172.912 295.557 173.404 295.287 174.048C295.017 174.692 294.844 175.483 294.768 176.42H294.911C295.28 175.739 295.791 175.237 296.445 174.915C297.098 174.593 297.799 174.432 298.547 174.432C299.399 174.432 300.166 174.631 300.848 175.028C301.53 175.426 302.07 176.016 302.467 176.797C302.865 177.578 303.064 178.542 303.064 179.688C303.064 180.829 302.86 181.813 302.453 182.642C302.051 183.471 301.485 184.11 300.756 184.56C300.031 185.005 299.181 185.227 298.206 185.227C297.231 185.227 296.376 184.998 295.642 184.538C294.908 184.074 294.338 183.388 293.93 182.479C293.523 181.565 293.32 180.436 293.32 179.091V177.926C293.32 175.497 293.732 173.655 294.555 172.401C295.384 171.146 296.629 170.497 298.291 170.455C298.878 170.436 299.402 170.431 299.861 170.44C300.32 170.45 300.72 170.429 301.061 170.376C301.402 170.324 301.691 170.199 301.928 170ZM298.206 183.722C298.864 183.722 299.43 183.556 299.903 183.224C300.382 182.893 300.749 182.427 301.004 181.825C301.26 181.219 301.388 180.507 301.388 179.688C301.388 178.892 301.258 178.215 300.997 177.656C300.741 177.098 300.375 176.671 299.896 176.378C299.418 176.084 298.845 175.938 298.178 175.938C297.69 175.938 297.252 176.02 296.864 176.186C296.475 176.352 296.144 176.596 295.869 176.918C295.595 177.24 295.382 177.633 295.23 178.097C295.083 178.561 295.005 179.091 294.996 179.688C294.996 180.909 295.282 181.887 295.855 182.621C296.428 183.355 297.212 183.722 298.206 183.722ZM310.06 185.227C309.075 185.227 308.211 184.993 307.467 184.524C306.729 184.055 306.151 183.4 305.734 182.557C305.322 181.714 305.116 180.729 305.116 179.602C305.116 178.466 305.322 177.474 305.734 176.626C306.151 175.779 306.729 175.121 307.467 174.652C308.211 174.183 309.075 173.949 310.06 173.949C311.045 173.949 311.906 174.183 312.645 174.652C313.388 175.121 313.966 175.779 314.378 176.626C314.795 177.474 315.003 178.466 315.003 179.602C315.003 180.729 314.795 181.714 314.378 182.557C313.966 183.4 313.388 184.055 312.645 184.524C311.906 184.993 311.045 185.227 310.06 185.227ZM310.06 183.722C310.808 183.722 311.423 183.53 311.906 183.146C312.389 182.763 312.747 182.259 312.979 181.634C313.211 181.009 313.327 180.331 313.327 179.602C313.327 178.873 313.211 178.194 312.979 177.564C312.747 176.934 312.389 176.425 311.906 176.037C311.423 175.649 310.808 175.455 310.06 175.455C309.312 175.455 308.696 175.649 308.213 176.037C307.73 176.425 307.373 176.934 307.141 177.564C306.909 178.194 306.793 178.873 306.793 179.602C306.793 180.331 306.909 181.009 307.141 181.634C307.373 182.259 307.73 182.763 308.213 183.146C308.696 183.53 309.312 183.722 310.06 183.722ZM317.561 185V174.091H319.238V178.835H320.346L324.266 174.091H326.425L322.022 179.347L326.482 185H324.323L320.743 180.398H319.238V185H317.561ZM332.286 185.227C331.263 185.227 330.383 184.986 329.644 184.503C328.906 184.02 328.337 183.355 327.94 182.507C327.542 181.66 327.343 180.691 327.343 179.602C327.343 178.494 327.547 177.517 327.954 176.669C328.366 175.817 328.939 175.152 329.673 174.673C330.411 174.19 331.273 173.949 332.258 173.949C333.025 173.949 333.716 174.091 334.332 174.375C334.947 174.659 335.451 175.057 335.844 175.568C336.237 176.08 336.481 176.676 336.576 177.358H334.9C334.772 176.861 334.488 176.42 334.048 176.037C333.612 175.649 333.025 175.455 332.286 175.455C331.633 175.455 331.06 175.625 330.567 175.966C330.08 176.302 329.699 176.778 329.424 177.393C329.154 178.004 329.019 178.722 329.019 179.545C329.019 180.388 329.152 181.122 329.417 181.747C329.687 182.372 330.066 182.857 330.553 183.203C331.046 183.549 331.623 183.722 332.286 183.722C332.722 183.722 333.117 183.646 333.472 183.494C333.827 183.343 334.128 183.125 334.374 182.841C334.621 182.557 334.796 182.216 334.9 181.818H336.576C336.481 182.462 336.247 183.042 335.873 183.558C335.504 184.07 335.013 184.477 334.403 184.78C333.797 185.078 333.091 185.227 332.286 185.227ZM342.237 185.256C341.545 185.256 340.918 185.125 340.354 184.865C339.791 184.6 339.344 184.219 339.012 183.722C338.681 183.22 338.515 182.614 338.515 181.903C338.515 181.278 338.638 180.772 338.884 180.384C339.13 179.991 339.46 179.683 339.871 179.46C340.283 179.238 340.738 179.072 341.235 178.963C341.737 178.849 342.241 178.759 342.748 178.693C343.411 178.608 343.948 178.544 344.36 178.501C344.777 178.454 345.08 178.376 345.269 178.267C345.463 178.158 345.56 177.969 345.56 177.699V177.642C345.56 176.941 345.369 176.397 344.985 176.009C344.606 175.62 344.031 175.426 343.259 175.426C342.459 175.426 341.832 175.601 341.377 175.952C340.923 176.302 340.603 176.676 340.418 177.074L338.827 176.506C339.112 175.843 339.49 175.327 339.964 174.957C340.442 174.583 340.963 174.323 341.526 174.176C342.094 174.025 342.653 173.949 343.202 173.949C343.553 173.949 343.955 173.991 344.41 174.077C344.869 174.157 345.312 174.325 345.738 174.581C346.169 174.837 346.526 175.223 346.81 175.739C347.094 176.255 347.237 176.946 347.237 177.812V185H345.56V183.523H345.475C345.362 183.759 345.172 184.013 344.907 184.283C344.642 184.553 344.289 184.782 343.849 184.972C343.408 185.161 342.871 185.256 342.237 185.256ZM342.492 183.75C343.155 183.75 343.714 183.62 344.168 183.359C344.628 183.099 344.973 182.763 345.205 182.351C345.442 181.939 345.56 181.506 345.56 181.051V179.517C345.489 179.602 345.333 179.68 345.092 179.751C344.855 179.818 344.58 179.877 344.268 179.929C343.96 179.976 343.659 180.019 343.366 180.057C343.077 180.09 342.843 180.118 342.663 180.142C342.227 180.199 341.82 180.291 341.441 180.419C341.067 180.542 340.764 180.729 340.532 180.98C340.305 181.226 340.191 181.562 340.191 181.989C340.191 182.571 340.406 183.011 340.837 183.31C341.273 183.603 341.825 183.75 342.492 183.75Z" fill="#0A2832"/>
<path d="M366.152 214.21V213.341L369.987 207.273H370.618V208.619H370.192L367.294 213.205V213.273H372.459V214.21H366.152ZM370.26 216V213.946V213.541V207.273H371.266V216H370.26ZM376.851 216.119C376.266 216.119 375.749 216.016 375.3 215.808C374.854 215.598 374.506 215.31 374.256 214.943C374.006 214.574 373.882 214.153 373.885 213.682C373.882 213.312 373.955 212.972 374.103 212.659C374.25 212.344 374.452 212.081 374.708 211.871C374.966 211.658 375.255 211.523 375.573 211.466V211.415C375.155 211.307 374.823 211.072 374.576 210.712C374.328 210.348 374.206 209.935 374.209 209.472C374.206 209.028 374.319 208.632 374.546 208.283C374.773 207.933 375.086 207.658 375.483 207.456C375.884 207.254 376.34 207.153 376.851 207.153C377.357 207.153 377.809 207.254 378.206 207.456C378.604 207.658 378.917 207.933 379.144 208.283C379.374 208.632 379.49 209.028 379.493 209.472C379.49 209.935 379.364 210.348 379.114 210.712C378.867 211.072 378.539 211.307 378.13 211.415V211.466C378.445 211.523 378.729 211.658 378.982 211.871C379.235 212.081 379.436 212.344 379.587 212.659C379.738 212.972 379.814 213.312 379.817 213.682C379.814 214.153 379.686 214.574 379.434 214.943C379.184 215.31 378.836 215.598 378.39 215.808C377.946 216.016 377.434 216.119 376.851 216.119ZM376.851 215.182C377.246 215.182 377.587 215.118 377.874 214.99C378.161 214.862 378.382 214.682 378.539 214.449C378.695 214.216 378.775 213.943 378.777 213.631C378.775 213.301 378.689 213.01 378.522 212.757C378.354 212.504 378.125 212.305 377.836 212.161C377.549 212.016 377.221 211.943 376.851 211.943C376.479 211.943 376.147 212.016 375.854 212.161C375.564 212.305 375.336 212.504 375.168 212.757C375.003 213.01 374.922 213.301 374.925 213.631C374.922 213.943 374.998 214.216 375.151 214.449C375.307 214.682 375.53 214.862 375.82 214.99C376.11 215.118 376.453 215.182 376.851 215.182ZM376.851 211.04C377.164 211.04 377.441 210.977 377.682 210.852C377.926 210.727 378.118 210.553 378.257 210.328C378.397 210.104 378.468 209.841 378.471 209.54C378.468 209.244 378.398 208.987 378.262 208.768C378.125 208.547 377.936 208.376 377.695 208.257C377.453 208.135 377.172 208.074 376.851 208.074C376.525 208.074 376.239 208.135 375.995 208.257C375.75 208.376 375.561 208.547 375.428 208.768C375.294 208.987 375.229 209.244 375.232 209.54C375.229 209.841 375.296 210.104 375.432 210.328C375.571 210.553 375.763 210.727 376.007 210.852C376.252 210.977 376.533 211.04 376.851 211.04Z" fill="#738287"/>
<path d="M407.05 94.2727V103H405.993V95.3807H405.942L403.811 96.7955V95.7216L405.993 94.2727H407.05ZM409.56 103V102.233L412.44 99.0795C412.778 98.7102 413.057 98.3892 413.276 98.1165C413.494 97.8409 413.656 97.5824 413.761 97.3409C413.869 97.0966 413.923 96.8409 413.923 96.5739C413.923 96.267 413.849 96.0014 413.702 95.777C413.557 95.5526 413.358 95.3793 413.105 95.2571C412.852 95.1349 412.568 95.0739 412.253 95.0739C411.918 95.0739 411.625 95.1435 411.375 95.2827C411.128 95.419 410.936 95.6108 410.8 95.858C410.666 96.1051 410.599 96.3949 410.599 96.7273H409.594C409.594 96.2159 409.712 95.767 409.947 95.3807C410.183 94.9943 410.504 94.6932 410.911 94.4773C411.32 94.2614 411.778 94.1534 412.287 94.1534C412.798 94.1534 413.251 94.2614 413.646 94.4773C414.041 94.6932 414.351 94.9844 414.575 95.3509C414.8 95.7173 414.912 96.125 414.912 96.5739C414.912 96.8949 414.854 97.2088 414.737 97.5156C414.624 97.8196 414.425 98.1591 414.141 98.5341C413.859 98.9062 413.469 99.3608 412.969 99.8977L411.009 101.994V102.062H415.065V103H409.56Z" fill="#738287"/>
<path d="M141.05 142.273V151H139.993V143.381H139.942L137.811 144.795V143.722L139.993 142.273H141.05ZM143.56 151V150.233L146.44 147.08C146.778 146.71 147.057 146.389 147.276 146.116C147.494 145.841 147.656 145.582 147.761 145.341C147.869 145.097 147.923 144.841 147.923 144.574C147.923 144.267 147.849 144.001 147.702 143.777C147.557 143.553 147.358 143.379 147.105 143.257C146.852 143.135 146.568 143.074 146.253 143.074C145.918 143.074 145.625 143.143 145.375 143.283C145.128 143.419 144.936 143.611 144.8 143.858C144.666 144.105 144.599 144.395 144.599 144.727H143.594C143.594 144.216 143.712 143.767 143.947 143.381C144.183 142.994 144.504 142.693 144.911 142.477C145.32 142.261 145.778 142.153 146.287 142.153C146.798 142.153 147.251 142.261 147.646 142.477C148.041 142.693 148.351 142.984 148.575 143.351C148.8 143.717 148.912 144.125 148.912 144.574C148.912 144.895 148.854 145.209 148.737 145.516C148.624 145.82 148.425 146.159 148.141 146.534C147.859 146.906 147.469 147.361 146.969 147.898L145.009 149.994V150.062H149.065V151H143.56Z" fill="#738287"/>
<path d="M403.015 86V85.233L405.895 82.0795C406.233 81.7102 406.512 81.3892 406.731 81.1165C406.949 80.8409 407.111 80.5824 407.216 80.3409C407.324 80.0966 407.378 79.8409 407.378 79.5739C407.378 79.267 407.305 79.0014 407.157 78.777C407.012 78.5526 406.813 78.3793 406.56 78.2571C406.307 78.1349 406.023 78.0739 405.708 78.0739C405.373 78.0739 405.08 78.1435 404.83 78.2827C404.583 78.419 404.391 78.6108 404.255 78.858C404.121 79.1051 404.055 79.3949 404.055 79.7273H403.049C403.049 79.2159 403.167 78.767 403.403 78.3807C403.638 77.9943 403.959 77.6932 404.366 77.4773C404.775 77.2614 405.233 77.1534 405.742 77.1534C406.253 77.1534 406.706 77.2614 407.101 77.4773C407.496 77.6932 407.806 77.9844 408.03 78.3509C408.255 78.7173 408.367 79.125 408.367 79.5739C408.367 79.8949 408.309 80.2088 408.192 80.5156C408.079 80.8196 407.88 81.1591 407.596 81.5341C407.314 81.9062 406.924 82.3608 406.424 82.8977L404.464 84.9943V85.0625H408.52V86H403.015ZM409.888 84.2102V83.3409L413.724 77.2727H414.354V78.6193H413.928L411.03 83.2045V83.2727H416.195V84.2102H409.888ZM413.996 86V83.946V83.5412V77.2727H415.002V86H413.996Z" fill="#738287"/>
<path d="M137.015 134V133.233L139.895 130.08C140.233 129.71 140.512 129.389 140.731 129.116C140.949 128.841 141.111 128.582 141.216 128.341C141.324 128.097 141.378 127.841 141.378 127.574C141.378 127.267 141.305 127.001 141.157 126.777C141.012 126.553 140.813 126.379 140.56 126.257C140.307 126.135 140.023 126.074 139.708 126.074C139.373 126.074 139.08 126.143 138.83 126.283C138.583 126.419 138.391 126.611 138.255 126.858C138.121 127.105 138.055 127.395 138.055 127.727H137.049C137.049 127.216 137.167 126.767 137.403 126.381C137.638 125.994 137.959 125.693 138.366 125.477C138.775 125.261 139.233 125.153 139.742 125.153C140.253 125.153 140.706 125.261 141.101 125.477C141.496 125.693 141.806 125.984 142.03 126.351C142.255 126.717 142.367 127.125 142.367 127.574C142.367 127.895 142.309 128.209 142.192 128.516C142.079 128.82 141.88 129.159 141.596 129.534C141.314 129.906 140.924 130.361 140.424 130.898L138.464 132.994V133.062H142.52V134H137.015ZM143.888 132.21V131.341L147.724 125.273H148.354V126.619H147.928L145.03 131.205V131.273H150.195V132.21H143.888ZM147.996 134V131.946V131.541V125.273H149.002V134H147.996Z" fill="#738287"/>
<path d="M407.05 60.2727V69H405.993V61.3807H405.942L403.811 62.7955V61.7216L405.993 60.2727H407.05ZM409.56 69V68.233L412.44 65.0795C412.778 64.7102 413.057 64.3892 413.276 64.1165C413.494 63.8409 413.656 63.5824 413.761 63.3409C413.869 63.0966 413.923 62.8409 413.923 62.5739C413.923 62.267 413.849 62.0014 413.702 61.777C413.557 61.5526 413.358 61.3793 413.105 61.2571C412.852 61.1349 412.568 61.0739 412.253 61.0739C411.918 61.0739 411.625 61.1435 411.375 61.2827C411.128 61.419 410.936 61.6108 410.8 61.858C410.666 62.1051 410.599 62.3949 410.599 62.7273H409.594C409.594 62.2159 409.712 61.767 409.947 61.3807C410.183 60.9943 410.504 60.6932 410.911 60.4773C411.32 60.2614 411.778 60.1534 412.287 60.1534C412.798 60.1534 413.251 60.2614 413.646 60.4773C414.041 60.6932 414.351 60.9844 414.575 61.3509C414.8 61.7173 414.912 62.125 414.912 62.5739C414.912 62.8949 414.854 63.2088 414.737 63.5156C414.624 63.8196 414.425 64.1591 414.141 64.5341C413.859 64.9062 413.469 65.3608 412.969 65.8977L411.009 67.9943V68.0625H415.065V69H409.56Z" fill="#738287"/>
<path d="M141.05 108.273V117H139.993V109.381H139.942L137.811 110.795V109.722L139.993 108.273H141.05ZM143.56 117V116.233L146.44 113.08C146.778 112.71 147.057 112.389 147.276 112.116C147.494 111.841 147.656 111.582 147.761 111.341C147.869 111.097 147.923 110.841 147.923 110.574C147.923 110.267 147.849 110.001 147.702 109.777C147.557 109.553 147.358 109.379 147.105 109.257C146.852 109.135 146.568 109.074 146.253 109.074C145.918 109.074 145.625 109.143 145.375 109.283C145.128 109.419 144.936 109.611 144.8 109.858C144.666 110.105 144.599 110.395 144.599 110.727H143.594C143.594 110.216 143.712 109.767 143.947 109.381C144.183 108.994 144.504 108.693 144.911 108.477C145.32 108.261 145.778 108.153 146.287 108.153C146.798 108.153 147.251 108.261 147.646 108.477C148.041 108.693 148.351 108.984 148.575 109.351C148.8 109.717 148.912 110.125 148.912 110.574C148.912 110.895 148.854 111.209 148.737 111.516C148.624 111.82 148.425 112.159 148.141 112.534C147.859 112.906 147.469 113.361 146.969 113.898L145.009 115.994V116.062H149.065V117H143.56Z" fill="#738287"/>
<path d="M163.015 216V215.233L165.895 212.08C166.233 211.71 166.512 211.389 166.731 211.116C166.949 210.841 167.111 210.582 167.216 210.341C167.324 210.097 167.378 209.841 167.378 209.574C167.378 209.267 167.305 209.001 167.157 208.777C167.012 208.553 166.813 208.379 166.56 208.257C166.307 208.135 166.023 208.074 165.708 208.074C165.373 208.074 165.08 208.143 164.83 208.283C164.583 208.419 164.391 208.611 164.255 208.858C164.121 209.105 164.055 209.395 164.055 209.727H163.049C163.049 209.216 163.167 208.767 163.403 208.381C163.638 207.994 163.959 207.693 164.366 207.477C164.775 207.261 165.233 207.153 165.742 207.153C166.253 207.153 166.706 207.261 167.101 207.477C167.496 207.693 167.806 207.984 168.03 208.351C168.255 208.717 168.367 209.125 168.367 209.574C168.367 209.895 168.309 210.209 168.192 210.516C168.079 210.82 167.88 211.159 167.596 211.534C167.314 211.906 166.924 212.361 166.424 212.898L164.464 214.994V215.062H168.52V216H163.015ZM169.888 214.21V213.341L173.724 207.273H174.354V208.619H173.928L171.03 213.205V213.273H176.195V214.21H169.888ZM173.996 216V213.946V213.541V207.273H175.002V216H173.996Z" fill="#738287"/>
<path d="M187.438 207.273V216H186.382V208.381H186.33L184.2 209.795V208.722L186.382 207.273H187.438ZM192.846 216.119C192.488 216.114 192.13 216.045 191.772 215.915C191.414 215.784 191.088 215.564 190.792 215.254C190.497 214.942 190.259 214.52 190.08 213.989C189.901 213.455 189.812 212.784 189.812 211.977C189.812 211.205 189.884 210.52 190.029 209.923C190.174 209.324 190.384 208.82 190.66 208.411C190.936 207.999 191.268 207.686 191.657 207.473C192.049 207.26 192.491 207.153 192.982 207.153C193.471 207.153 193.906 207.251 194.286 207.447C194.67 207.641 194.982 207.911 195.224 208.257C195.465 208.604 195.622 209.003 195.693 209.455H194.653C194.556 209.062 194.369 208.737 194.09 208.479C193.812 208.22 193.443 208.091 192.982 208.091C192.306 208.091 191.774 208.385 191.384 208.973C190.998 209.561 190.803 210.386 190.801 211.449H190.869C191.028 211.207 191.217 211.001 191.436 210.831C191.657 210.658 191.901 210.524 192.169 210.43C192.436 210.337 192.718 210.29 193.017 210.29C193.517 210.29 193.974 210.415 194.389 210.665C194.803 210.912 195.136 211.254 195.386 211.692C195.636 212.126 195.761 212.625 195.761 213.188C195.761 213.727 195.64 214.222 195.399 214.67C195.157 215.116 194.818 215.472 194.38 215.736C193.945 215.997 193.434 216.125 192.846 216.119ZM192.846 215.182C193.204 215.182 193.525 215.092 193.809 214.913C194.096 214.734 194.322 214.494 194.487 214.193C194.654 213.892 194.738 213.557 194.738 213.188C194.738 212.827 194.657 212.499 194.495 212.203C194.336 211.905 194.116 211.668 193.835 211.491C193.556 211.315 193.238 211.227 192.88 211.227C192.61 211.227 192.359 211.281 192.126 211.389C191.893 211.494 191.688 211.639 191.512 211.824C191.339 212.009 191.203 212.22 191.103 212.459C191.004 212.695 190.954 212.943 190.954 213.205C190.954 213.551 191.035 213.875 191.197 214.176C191.362 214.477 191.586 214.72 191.87 214.905C192.157 215.089 192.482 215.182 192.846 215.182Z" fill="#738287"/>
<path d="M164.463 91.1989C163.488 91.1989 162.616 91.0308 161.849 90.6946C161.087 90.3584 160.483 89.892 160.038 89.2955C159.598 88.6941 159.361 87.9981 159.328 87.2074H161.558C161.587 87.6383 161.731 88.0123 161.991 88.3295C162.257 88.642 162.602 88.8835 163.028 89.054C163.455 89.2244 163.928 89.3097 164.449 89.3097C165.022 89.3097 165.528 89.2102 165.969 89.0114C166.414 88.8125 166.762 88.5355 167.013 88.1804C167.264 87.8205 167.389 87.4062 167.389 86.9375C167.389 86.4498 167.264 86.0213 167.013 85.652C166.767 85.2779 166.404 84.9844 165.926 84.7713C165.453 84.5582 164.88 84.4517 164.207 84.4517H162.979V82.6619H164.207C164.747 82.6619 165.221 82.5649 165.628 82.3707C166.04 82.1766 166.362 81.9067 166.594 81.5611C166.826 81.2107 166.942 80.8011 166.942 80.3324C166.942 79.8826 166.84 79.492 166.636 79.1605C166.438 78.8243 166.153 78.5616 165.784 78.3722C165.42 78.1828 164.989 78.0881 164.491 78.0881C164.018 78.0881 163.575 78.1757 163.163 78.3509C162.756 78.5213 162.425 78.7675 162.169 79.0895C161.913 79.4067 161.776 79.7879 161.757 80.233H159.634C159.657 79.447 159.889 78.7557 160.33 78.1591C160.775 77.5625 161.362 77.0961 162.091 76.7599C162.82 76.4238 163.63 76.2557 164.52 76.2557C165.453 76.2557 166.258 76.438 166.935 76.8026C167.616 77.1624 168.142 77.643 168.511 78.2443C168.885 78.8456 169.07 79.5038 169.065 80.2188C169.07 81.0331 168.843 81.7244 168.384 82.2926C167.929 82.8608 167.323 83.242 166.565 83.4361V83.5497C167.531 83.6965 168.279 84.08 168.81 84.7003C169.345 85.3205 169.61 86.09 169.605 87.0085C169.61 87.8087 169.387 88.526 168.938 89.1605C168.492 89.795 167.884 90.2945 167.112 90.6591C166.34 91.0189 165.457 91.1989 164.463 91.1989ZM175.493 91.2415C174.802 91.2415 174.177 91.1136 173.618 90.858C173.059 90.5975 172.616 90.2211 172.29 89.7287C171.968 89.2363 171.807 88.6326 171.807 87.9176C171.807 87.3021 171.925 86.7955 172.162 86.3977C172.399 86 172.718 85.6851 173.121 85.4531C173.523 85.2211 173.973 85.0459 174.47 84.9276C174.967 84.8092 175.474 84.7192 175.99 84.6577C176.643 84.5819 177.174 84.5204 177.581 84.473C177.988 84.4209 178.284 84.3381 178.469 84.2244C178.653 84.1108 178.746 83.9261 178.746 83.6705V83.6207C178.746 83.0005 178.571 82.5199 178.22 82.179C177.875 81.8381 177.358 81.6676 176.672 81.6676C175.957 81.6676 175.393 81.8262 174.982 82.1435C174.574 82.456 174.293 82.804 174.136 83.1875L172.141 82.733C172.377 82.0701 172.723 81.535 173.178 81.1278C173.637 80.7159 174.165 80.4176 174.761 80.233C175.358 80.0436 175.985 79.9489 176.643 79.9489C177.079 79.9489 177.541 80.0009 178.028 80.1051C178.521 80.2045 178.98 80.3892 179.406 80.6591C179.837 80.929 180.19 81.3149 180.464 81.8168C180.739 82.3139 180.876 82.9602 180.876 83.7557V91H178.803V89.5085H178.717C178.58 89.7831 178.374 90.053 178.099 90.3182C177.825 90.5833 177.472 90.8035 177.041 90.9787C176.61 91.1539 176.094 91.2415 175.493 91.2415ZM175.955 89.5369C176.542 89.5369 177.044 89.4209 177.46 89.1889C177.882 88.9569 178.201 88.6539 178.419 88.2798C178.642 87.901 178.753 87.4962 178.753 87.0653V85.6591C178.677 85.7348 178.53 85.8059 178.312 85.8722C178.099 85.9337 177.856 85.9882 177.581 86.0355C177.306 86.0781 177.039 86.1184 176.778 86.1562C176.518 86.1894 176.3 86.2178 176.125 86.2415C175.713 86.2936 175.337 86.3812 174.996 86.5043C174.66 86.6274 174.39 86.8049 174.186 87.0369C173.987 87.2642 173.888 87.5672 173.888 87.946C173.888 88.4716 174.082 88.8693 174.47 89.1392C174.858 89.4044 175.353 89.5369 175.955 89.5369ZM190.679 80.0909V81.9233H185.8V91H183.705V80.0909H190.679ZM197.011 91.2202C195.988 91.2202 195.096 90.9858 194.333 90.517C193.571 90.0483 192.979 89.3925 192.558 88.5497C192.136 87.7069 191.926 86.7221 191.926 85.5952C191.926 84.4635 192.136 83.474 192.558 82.6264C192.979 81.7789 193.571 81.1207 194.333 80.652C195.096 80.1832 195.988 79.9489 197.011 79.9489C198.034 79.9489 198.926 80.1832 199.689 80.652C200.451 81.1207 201.043 81.7789 201.464 82.6264C201.886 83.474 202.096 84.4635 202.096 85.5952C202.096 86.7221 201.886 87.7069 201.464 88.5497C201.043 89.3925 200.451 90.0483 199.689 90.517C198.926 90.9858 198.034 91.2202 197.011 91.2202ZM197.018 89.4375C197.681 89.4375 198.23 89.2623 198.666 88.9119C199.101 88.5616 199.423 88.0952 199.632 87.5128C199.845 86.9304 199.951 86.2888 199.951 85.5881C199.951 84.892 199.845 84.2528 199.632 83.6705C199.423 83.0833 199.101 82.6122 198.666 82.2571C198.23 81.902 197.681 81.7244 197.018 81.7244C196.35 81.7244 195.797 81.902 195.356 82.2571C194.921 82.6122 194.596 83.0833 194.383 83.6705C194.175 84.2528 194.071 84.892 194.071 85.5881C194.071 86.2888 194.175 86.9304 194.383 87.5128C194.596 88.0952 194.921 88.5616 195.356 88.9119C195.797 89.2623 196.35 89.4375 197.018 89.4375ZM203.607 91L203.6 89.1605H203.991C204.294 89.1605 204.547 89.0966 204.751 88.9688C204.959 88.8362 205.129 88.6136 205.262 88.3011C205.395 87.9886 205.496 87.5578 205.567 87.0085C205.638 86.4545 205.691 85.7585 205.724 84.9205L205.915 80.0909H213.529V91H211.448V81.9233H207.883L207.712 85.6307C207.67 86.5303 207.577 87.3163 207.435 87.9886C207.298 88.661 207.097 89.2221 206.832 89.6719C206.567 90.117 206.226 90.4508 205.809 90.6733C205.392 90.8911 204.886 91 204.289 91H203.607ZM220.956 91.2202C219.934 91.2202 219.041 90.9858 218.279 90.517C217.516 90.0483 216.925 89.3925 216.503 88.5497C216.082 87.7069 215.871 86.7221 215.871 85.5952C215.871 84.4635 216.082 83.474 216.503 82.6264C216.925 81.7789 217.516 81.1207 218.279 80.652C219.041 80.1832 219.934 79.9489 220.956 79.9489C221.979 79.9489 222.872 80.1832 223.634 80.652C224.396 81.1207 224.988 81.7789 225.409 82.6264C225.831 83.474 226.042 84.4635 226.042 85.5952C226.042 86.7221 225.831 87.7069 225.409 88.5497C224.988 89.3925 224.396 90.0483 223.634 90.517C222.872 90.9858 221.979 91.2202 220.956 91.2202ZM220.963 89.4375C221.626 89.4375 222.176 89.2623 222.611 88.9119C223.047 88.5616 223.369 88.0952 223.577 87.5128C223.79 86.9304 223.897 86.2888 223.897 85.5881C223.897 84.892 223.79 84.2528 223.577 83.6705C223.369 83.0833 223.047 82.6122 222.611 82.2571C222.176 81.902 221.626 81.7244 220.963 81.7244C220.296 81.7244 219.742 81.902 219.301 82.2571C218.866 82.6122 218.542 83.0833 218.328 83.6705C218.12 84.2528 218.016 84.892 218.016 85.5881C218.016 86.2888 218.12 86.9304 218.328 87.5128C218.542 88.0952 218.866 88.5616 219.301 88.9119C219.742 89.2623 220.296 89.4375 220.963 89.4375ZM228.412 91V80.0909H232.936C234.167 80.0909 235.143 80.3537 235.862 80.8793C236.582 81.4001 236.942 82.108 236.942 83.0028C236.942 83.642 236.738 84.1487 236.331 84.5227C235.924 84.8968 235.384 85.1477 234.712 85.2756C235.199 85.3324 235.647 85.4792 236.054 85.7159C236.461 85.9479 236.788 86.2604 237.034 86.6534C237.285 87.0464 237.411 87.5152 237.411 88.0597C237.411 88.6373 237.261 89.1487 236.963 89.5938C236.665 90.0341 236.232 90.3797 235.663 90.6307C235.1 90.8769 234.42 91 233.625 91H228.412ZM230.408 89.2244H233.625C234.151 89.2244 234.563 89.099 234.861 88.848C235.159 88.5971 235.308 88.2562 235.308 87.8253C235.308 87.3187 235.159 86.9209 234.861 86.6321C234.563 86.3385 234.151 86.1918 233.625 86.1918H230.408V89.2244ZM230.408 84.6364H232.957C233.355 84.6364 233.696 84.5795 233.98 84.4659C234.269 84.3523 234.489 84.1913 234.641 83.983C234.797 83.7699 234.875 83.5189 234.875 83.2301C234.875 82.8087 234.702 82.4796 234.357 82.2429C234.011 82.0062 233.537 81.8878 232.936 81.8878H230.408V84.6364ZM244.335 91.2202C243.313 91.2202 242.42 90.9858 241.658 90.517C240.895 90.0483 240.304 89.3925 239.882 88.5497C239.461 87.7069 239.25 86.7221 239.25 85.5952C239.25 84.4635 239.461 83.474 239.882 82.6264C240.304 81.7789 240.895 81.1207 241.658 80.652C242.42 80.1832 243.313 79.9489 244.335 79.9489C245.358 79.9489 246.25 80.1832 247.013 80.652C247.775 81.1207 248.367 81.7789 248.788 82.6264C249.21 83.474 249.42 84.4635 249.42 85.5952C249.42 86.7221 249.21 87.7069 248.788 88.5497C248.367 89.3925 247.775 90.0483 247.013 90.517C246.25 90.9858 245.358 91.2202 244.335 91.2202ZM244.342 89.4375C245.005 89.4375 245.554 89.2623 245.99 88.9119C246.426 88.5616 246.748 88.0952 246.956 87.5128C247.169 86.9304 247.276 86.2888 247.276 85.5881C247.276 84.892 247.169 84.2528 246.956 83.6705C246.748 83.0833 246.426 82.6122 245.99 82.2571C245.554 81.902 245.005 81.7244 244.342 81.7244C243.675 81.7244 243.121 81.902 242.68 82.2571C242.245 82.6122 241.92 83.0833 241.707 83.6705C241.499 84.2528 241.395 84.892 241.395 85.5881C241.395 86.2888 241.499 86.9304 241.707 87.5128C241.92 88.0952 242.245 88.5616 242.68 88.9119C243.121 89.2623 243.675 89.4375 244.342 89.4375ZM251.791 91V80.0909H253.914V84.6648H254.937L258.538 80.0909H261.166L256.94 85.3963L261.216 91H258.581L255.292 86.6392H253.914V91H251.791Z" fill="#0A2832"/>
<line x1="158" y1="93.25" x2="397" y2="93.25" stroke="#8ECBB0" stroke-width="1.5"/>
<line x1="158" y1="69.25" x2="397" y2="69.25" stroke="#8ECBB0" stroke-width="1.5"/>
<line x1="158" y1="57.25" x2="397" y2="57.25" stroke="#8ECBB0" stroke-width="1.5"/>
<line x1="158" y1="105.25" x2="349" y2="105.25" stroke="#8ECBB0" stroke-width="1.5"/>
<line x1="349" y1="105.25" x2="397" y2="105.25" stroke="#FF9F7E" stroke-width="1.5"/>
<line x1="349" y1="201.25" x2="397" y2="201.25" stroke="#FF9F7E" stroke-width="1.5"/>
<line x1="158" y1="117.25" x2="349" y2="117.25" stroke="#8ECBB0" stroke-width="1.5"/>
<line x1="158" y1="142.25" x2="349" y2="142.25" stroke="#8ECBB0" stroke-width="1.5"/>
<line x1="158" y1="190.25" x2="349" y2="190.25" stroke="#8ECBB0" stroke-width="1.5"/>
<line x1="158" y1="153.25" x2="349" y2="153.25" stroke="#8ECBB0" stroke-width="1.5"/>
<line x1="182.75" y1="106" x2="182.75" y2="202" stroke="#8ECBB0" stroke-width="1.5"/>
<line x1="157.75" y1="57" x2="157.75" y2="202" stroke="#8ECBB0" stroke-width="1.5"/>
<line x1="396.75" y1="57" x2="396.75" y2="105" stroke="#8ECBB0" stroke-width="1.5"/>
<line x1="198.75" y1="106" x2="198.75" y2="202" stroke="#8ECBB0" stroke-width="1.5"/>
<line x1="349.75" y1="106" x2="349.75" y2="202" stroke="#FF9F7E" stroke-width="1.5"/>
<line x1="349" y1="153.25" x2="396" y2="153.25" stroke="#FF9F7E" stroke-width="1.5"/>
<line x1="158" y1="201.25" x2="349" y2="201.25" stroke="#8ECBB0" stroke-width="1.5"/>
<line x1="158" y1="165.25" x2="349" y2="165.25" stroke="#8ECBB0" stroke-width="1.5"/>
<line x1="396.75" y1="105" x2="396.75" y2="202" stroke="#FF9F7E" stroke-width="1.5"/>
<defs>
<clipPath id="clip0_964_3216">
<rect width="24" height="24" fill="white" transform="translate(158 118)"/>
</clipPath>
<clipPath id="clip1_964_3216">
<rect width="24" height="24" fill="white" transform="translate(158 166)"/>
</clipPath>
</defs>
</svg>
