<svg xmlns="http://www.w3.org/2000/svg" width="217" height="235" fill="none"><path fill="#058CD7" d="M.696 32.558V25.03h1.342c.458-.385.885-.932 1.283-1.641.398-.71.736-1.667 1.014-2.874.279-1.206.47-2.754.577-4.643l.477-8.6h12.558V25.03h2.307v7.497h-2.943v-4.892H3.64v4.922H.696Zm4.962-7.527h9.346V9.917h-6.83l-.319 5.956a35.166 35.166 0 0 1-.427 3.878c-.193 1.147-.441 2.16-.746 3.042-.298.875-.64 1.621-1.024 2.238Zm16.52 2.605-.01-2.575h.547c.424 0 .78-.09 1.064-.269.292-.186.53-.497.716-.935.186-.437.328-1.04.428-1.81.099-.775.172-1.75.218-2.923l.269-6.761h10.659v15.273h-2.913V14.928h-4.992l-.239 5.19c-.06 1.26-.189 2.36-.387 3.302-.193.941-.474 1.727-.846 2.356-.37.623-.848 1.09-1.431 1.402-.584.305-1.293.458-2.128.458h-.955Zm26.964 0V14.899h-3.66c-.868 0-1.544.202-2.028.606-.484.404-.726.935-.726 1.591 0 .65.222 1.173.666 1.571.451.391 1.081.587 1.89.587h4.723v2.406h-4.723c-1.127 0-2.102-.186-2.924-.557-.815-.378-1.445-.911-1.889-1.6-.437-.69-.656-1.506-.656-2.447 0-.961.225-1.79.676-2.486.458-.702 1.11-1.246 1.959-1.63.855-.385 1.866-.577 3.033-.577h6.453v15.273h-2.794Zm-10.023 0 4.305-7.716h3.043l-4.305 7.716h-3.043Zm22.693 4.405v-6.98h1.243c.318-.292.586-.64.805-1.045.225-.404.414-.884.567-1.441.159-.557.291-1.207.398-1.95.106-.748.198-1.603.278-2.564l.477-5.698h10.38v12.698h2.348v6.98h-2.904v-4.405H64.755v4.405h-2.943Zm4.425-6.98h6.82V14.909h-4.812l-.318 3.152c-.153 1.604-.345 2.996-.577 4.176-.232 1.173-.603 2.114-1.113 2.824Zm17.89-1.591 6.731-11.107h3.202v15.273h-2.913V16.519l-6.702 11.117h-3.232V12.363h2.914V23.47Zm12.439 8.57v-6.98h1.243c.318-.291.586-.64.805-1.044.225-.404.414-.884.567-1.441.159-.557.291-1.207.398-1.95.106-.748.198-1.603.278-2.564l.477-5.698h10.381v12.698h2.346v6.98h-2.903v-4.405h-10.65v4.405h-2.942Zm4.424-6.98h6.821V14.91h-4.812l-.318 3.152c-.153 1.604-.345 2.996-.577 4.176-.232 1.173-.603 2.114-1.114 2.824Zm14.003 2.576 5.916-7.816-5.847-7.457h3.461l4.723 6.344h1.064v-6.344h2.973v6.344h1.034l4.723-6.344h3.46l-5.817 7.457 5.887 7.816h-3.53l-4.763-6.364h-.994v6.364h-2.973v-6.364h-.995l-4.792 6.364h-3.53Zm27.513-4.166 6.731-11.107h3.202v15.273h-2.913V16.519l-6.702 11.117h-3.232V12.363h2.914V23.47Zm12.036-8.542v-2.565h12.886v2.565h-4.981v12.708h-2.904V14.928h-5.001Zm19.764 13.046c-.967 0-1.842-.18-2.625-.537a4.42 4.42 0 0 1-1.859-1.581c-.451-.69-.676-1.535-.676-2.536 0-.861.166-1.57.497-2.127a3.675 3.675 0 0 1 1.342-1.323 7.023 7.023 0 0 1 1.89-.736 18.798 18.798 0 0 1 2.127-.378l2.228-.258c.57-.073.984-.189 1.243-.348.258-.16.387-.418.387-.776v-.07c0-.868-.245-1.54-.735-2.018-.484-.477-1.207-.716-2.168-.716-1.001 0-1.79.223-2.366.667-.571.437-.965.924-1.184 1.461l-2.794-.636c.332-.928.816-1.677 1.452-2.247a5.888 5.888 0 0 1 2.217-1.253 8.66 8.66 0 0 1 2.635-.398 9.3 9.3 0 0 1 1.939.219c.69.14 1.333.398 1.929.776.603.377 1.097.918 1.482 1.62.384.696.576 1.601.576 2.715v10.142h-2.903v-2.088h-.119c-.193.384-.481.762-.865 1.133-.385.371-.879.68-1.482.925s-1.326.368-2.168.368Zm.647-2.387c.822 0 1.524-.162 2.108-.487.59-.325 1.037-.749 1.342-1.273.312-.53.467-1.097.467-1.7V20.16c-.106.106-.311.205-.616.298-.298.086-.64.162-1.024.229-.385.06-.759.116-1.124.169-.364.046-.669.086-.915.119a7.393 7.393 0 0 0-1.581.368c-.47.172-.848.42-1.133.745-.278.319-.418.743-.418 1.273 0 .736.272 1.293.816 1.67.543.372 1.236.557 2.078.557Zm9.647 2.049-.01-2.575h.547c.424 0 .779-.09 1.064-.269.292-.186.53-.497.716-.935.186-.437.328-1.04.427-1.81.1-.775.173-1.75.219-2.923l.269-6.761h10.659v15.273h-2.914V14.928h-4.991l-.239 5.19c-.059 1.26-.189 2.36-.387 3.302-.193.941-.474 1.727-.846 2.356-.371.623-.848 1.09-1.431 1.402-.584.305-1.293.458-2.128.458h-.955Zm22.3.338c-.968 0-1.843-.18-2.625-.537a4.42 4.42 0 0 1-1.859-1.581c-.451-.69-.676-1.535-.676-2.536 0-.861.165-1.57.497-2.127a3.667 3.667 0 0 1 1.342-1.323 7.016 7.016 0 0 1 1.889-.736 18.815 18.815 0 0 1 2.128-.378l2.228-.258c.57-.073.984-.189 1.242-.348.259-.16.388-.418.388-.776v-.07c0-.868-.245-1.54-.736-2.018-.484-.477-1.206-.716-2.167-.716-1.001 0-1.79.223-2.367.667-.57.437-.964.924-1.183 1.461l-2.794-.636c.331-.928.815-1.677 1.452-2.247a5.888 5.888 0 0 1 2.217-1.253 8.656 8.656 0 0 1 2.635-.398 9.3 9.3 0 0 1 1.939.219c.689.14 1.332.398 1.929.776.603.377 1.097.918 1.481 1.62.385.696.577 1.601.577 2.715v10.142h-2.903v-2.088h-.12c-.192.384-.48.762-.865 1.133-.384.371-.878.68-1.481.925-.603.245-1.326.368-2.168.368Zm.647-2.387c.821 0 1.524-.162 2.107-.487.59-.325 1.038-.749 1.343-1.273.311-.53.467-1.097.467-1.7V20.16c-.106.106-.311.205-.616.298-.299.086-.64.162-1.024.229-.385.06-.759.116-1.124.169-.365.046-.67.086-.915.119a7.365 7.365 0 0 0-1.581.368c-.47.172-.848.42-1.133.745-.279.319-.418.743-.418 1.273 0 .736.272 1.293.815 1.67.544.372 1.237.557 2.079.557ZM85.108 85.636v-1.79l6.721-7.358a46.668 46.668 0 0 0 1.95-2.247c.51-.643.888-1.246 1.133-1.81.252-.57.378-1.166.378-1.79 0-.716-.173-1.335-.517-1.859a3.354 3.354 0 0 0-1.392-1.213c-.59-.285-1.253-.428-1.989-.428-.782 0-1.465.163-2.048.488A3.354 3.354 0 0 0 88 68.97c-.311.577-.467 1.253-.467 2.028h-2.347c0-1.193.276-2.24.826-3.142a5.734 5.734 0 0 1 2.247-2.108c.954-.503 2.025-.755 3.212-.755 1.193 0 2.25.252 3.172.755a5.683 5.683 0 0 1 2.167 2.039c.524.855.786 1.806.786 2.853 0 .75-.136 1.482-.408 2.198-.265.71-.73 1.501-1.392 2.376-.656.869-1.568 1.93-2.734 3.182l-4.574 4.892v.16h9.465v2.187H85.108Zm16.038-4.176V79.43l8.949-14.159h1.472v3.142h-.995l-6.761 10.699v.16h12.051v2.187h-14.716Zm9.586 4.176V65.272h2.346v20.364h-2.346Zm16.771 5.727v-21h2.267v2.426h.279c.172-.265.411-.603.716-1.014.311-.418.755-.789 1.332-1.114.583-.331 1.372-.497 2.366-.497 1.286 0 2.42.322 3.401.965.981.643 1.747 1.554 2.297 2.734s.825 2.572.825 4.176c0 1.618-.275 3.02-.825 4.206-.55 1.18-1.313 2.095-2.287 2.744-.974.643-2.098.965-3.371.965-.981 0-1.766-.162-2.356-.487-.59-.332-1.044-.706-1.363-1.124a14.933 14.933 0 0 1-.735-1.054h-.199v8.074h-2.347Zm2.307-13.364c0 1.154.169 2.171.507 3.053.338.875.832 1.561 1.482 2.058.649.49 1.445.736 2.386.736.981 0 1.8-.259 2.456-.776.663-.523 1.16-1.226 1.491-2.108.339-.888.508-1.876.508-2.963 0-1.073-.166-2.041-.498-2.903-.324-.868-.818-1.555-1.481-2.058-.656-.51-1.482-.766-2.476-.766-.955 0-1.757.242-2.406.726-.65.477-1.14 1.147-1.472 2.008-.331.856-.497 1.853-.497 2.993Zm15.877-7.636 3.659 6.244 3.659-6.244h2.705l-4.932 7.636 4.932 7.637h-2.705l-3.659-5.926-3.659 5.926h-2.705l4.853-7.637-4.853-7.636h2.705Z"/><path stroke="#058CD7" stroke-width="2" d="M73 87.636H35M73 61.636H35M70 71.636l-8-8-8 8M54 77.636l8 8 8-8M62 63.636l.001 21.047"/><path fill="#0A2832" d="M0 86.636h3.388L4.797 81.6h8.761v5.015h3.376v-23.98H6.801l-.008.027-4.396 15.51H.965L0 81.601h1.42L0 86.636Zm9.138-20.572h4.413v12.11H5.76l3.377-12.11Z"/><path fill="#058CD7" d="M.696 174.558v-7.527h1.342c.458-.385.885-.932 1.283-1.641.398-.709.736-1.667 1.014-2.874.279-1.206.47-2.754.577-4.643l.477-8.601h12.558v17.759h2.307v7.497h-2.943v-4.892H3.64v4.922H.696Zm4.962-7.527h9.346v-15.114h-6.83l-.319 5.956a35.187 35.187 0 0 1-.427 3.878c-.193 1.147-.441 2.161-.746 3.042-.298.875-.64 1.621-1.024 2.238Zm16.52 2.605-.01-2.576h.547c.424 0 .78-.089 1.064-.268.292-.186.53-.497.716-.935.186-.437.328-1.04.428-1.809.099-.776.172-1.75.218-2.924l.269-6.761h10.659v15.273h-2.913v-12.708h-4.992l-.239 5.191c-.06 1.259-.189 2.36-.387 3.301-.193.941-.474 1.727-.846 2.356-.37.623-.848 1.091-1.431 1.402-.584.305-1.293.458-2.128.458h-.955Zm26.964 0v-12.737h-3.66c-.868 0-1.544.202-2.028.606-.484.404-.726.935-.726 1.591 0 .65.222 1.173.666 1.571.451.391 1.081.587 1.89.587h4.723v2.406h-4.723c-1.127 0-2.102-.186-2.924-.557-.815-.378-1.445-.911-1.889-1.601-.437-.689-.656-1.505-.656-2.446 0-.961.225-1.79.676-2.486.458-.702 1.11-1.246 1.959-1.63.855-.385 1.866-.577 3.033-.577h6.453v15.273h-2.794Zm-10.023 0 4.305-7.716h3.043l-4.305 7.716h-3.043Zm24.184 0v-15.273h12.46v15.273h-2.914v-12.708h-6.652v12.708h-2.894Zm23.016.308c-1.505 0-2.8-.322-3.888-.965-1.08-.649-1.915-1.561-2.505-2.734-.584-1.18-.875-2.562-.875-4.146 0-1.565.291-2.943.875-4.137.59-1.193 1.412-2.124 2.466-2.794 1.06-.669 2.3-1.004 3.718-1.004.862 0 1.697.143 2.506.428a6.066 6.066 0 0 1 2.178 1.342c.643.61 1.15 1.402 1.521 2.376.371.968.557 2.145.557 3.53v1.054h-12.14v-2.227h9.227c0-.782-.16-1.475-.478-2.078a3.606 3.606 0 0 0-1.342-1.442c-.57-.351-1.24-.527-2.009-.527-.835 0-1.564.206-2.187.617a4.13 4.13 0 0 0-1.432 1.591 4.588 4.588 0 0 0-.497 2.117v1.74c0 1.021.179 1.89.537 2.606.364.715.871 1.262 1.521 1.64.65.371 1.409.557 2.277.557a4.73 4.73 0 0 0 1.541-.239 3.328 3.328 0 0 0 1.203-.735c.338-.325.597-.726.776-1.204l2.814.508a5.097 5.097 0 0 1-1.213 2.177c-.577.617-1.303 1.097-2.178 1.442-.868.338-1.86.507-2.973.507Zm22.111-15.581v15.273h-2.903v-15.273h2.903Zm-1.262 7.09v2.565c-.458.185-.942.351-1.452.497-.511.139-1.047.249-1.611.328-.563.08-1.15.119-1.76.119-1.889 0-3.39-.46-4.504-1.382-1.114-.928-1.67-2.346-1.67-4.255v-4.992h2.893v4.992c0 .722.133 1.309.398 1.76.265.45.643.782 1.133.994.491.212 1.074.318 1.75.318.895 0 1.72-.083 2.476-.248a19.64 19.64 0 0 0 2.347-.696Zm9.662 8.521c-.968 0-1.843-.179-2.625-.537a4.426 4.426 0 0 1-1.859-1.581c-.451-.689-.677-1.535-.677-2.536 0-.861.166-1.571.498-2.127a3.662 3.662 0 0 1 1.342-1.323 7.007 7.007 0 0 1 1.889-.736 19.116 19.116 0 0 1 2.128-.378l2.227-.258c.57-.073.985-.189 1.243-.348.259-.159.388-.418.388-.776v-.069c0-.869-.245-1.541-.736-2.019-.484-.477-1.206-.716-2.168-.716-1 0-1.789.222-2.366.667-.57.437-.964.924-1.183 1.461l-2.794-.636c.331-.928.815-1.677 1.451-2.247a5.882 5.882 0 0 1 2.218-1.253 8.657 8.657 0 0 1 2.635-.398c.61 0 1.256.073 1.939.219a5.694 5.694 0 0 1 1.929.775c.603.378 1.097.919 1.481 1.621.385.696.577 1.601.577 2.715v10.142h-2.904v-2.088h-.119c-.192.384-.48.762-.865 1.133-.384.371-.878.68-1.481.925-.604.245-1.326.368-2.168.368Zm.646-2.387c.822 0 1.525-.162 2.108-.487.59-.325 1.038-.749 1.342-1.272a3.303 3.303 0 0 0 .468-1.701v-1.969c-.106.107-.312.206-.617.299a9.522 9.522 0 0 1-1.024.228c-.384.06-.759.116-1.123.169l-.915.12a7.33 7.33 0 0 0-1.581.368c-.471.172-.849.421-1.134.745-.278.319-.417.743-.417 1.273 0 .736.272 1.293.815 1.671.544.371 1.236.556 2.078.556Zm8.957-10.659v-2.565h12.886v2.565h-4.982v12.708h-2.903v-12.708h-5.001Zm18.944 8.542 6.731-11.107h3.202v15.273h-2.913v-11.117l-6.702 11.117h-3.232v-15.273h2.914v11.107ZM93.744 227.636l9.108-18.017v-.159h-10.5v-2.188h13.046v2.307l-9.069 18.057h-2.585Zm23.275 0v-15.273h2.267v2.386h.199c.318-.815.832-1.448 1.541-1.899.709-.457 1.561-.686 2.555-.686 1.008 0 1.846.229 2.516.686.676.451 1.203 1.084 1.581 1.899h.159a4.454 4.454 0 0 1 1.76-1.879c.782-.471 1.72-.706 2.814-.706 1.365 0 2.482.428 3.351 1.283.868.848 1.302 2.171 1.302 3.967v10.222h-2.346v-10.222c0-1.127-.309-1.932-.925-2.416-.617-.484-1.342-.726-2.178-.726-1.073 0-1.905.325-2.495.975-.59.643-.885 1.458-.885 2.446v9.943h-2.387v-10.46c0-.869-.281-1.568-.845-2.098-.563-.537-1.289-.806-2.177-.806-.61 0-1.18.163-1.711.487a3.678 3.678 0 0 0-1.272 1.353c-.318.57-.478 1.229-.478 1.978v9.546h-2.346Zm24.336 0v-15.273h2.267v2.386h.199c.318-.815.832-1.448 1.541-1.899.709-.457 1.561-.686 2.555-.686 1.008 0 1.846.229 2.516.686.676.451 1.203 1.084 1.581 1.899h.159a4.454 4.454 0 0 1 1.76-1.879c.782-.471 1.72-.706 2.814-.706 1.365 0 2.482.428 3.351 1.283.868.848 1.302 2.171 1.302 3.967v10.222h-2.346v-10.222c0-1.127-.309-1.932-.925-2.416-.617-.484-1.342-.726-2.178-.726-1.074 0-1.905.325-2.495.975-.59.643-.885 1.458-.885 2.446v9.943h-2.387v-10.46c0-.869-.281-1.568-.845-2.098-.563-.537-1.289-.806-2.177-.806-.61 0-1.18.163-1.711.487a3.678 3.678 0 0 0-1.272 1.353c-.319.57-.478 1.229-.478 1.978v9.546h-2.346Z"/><path stroke="#058CD7" stroke-width="2" d="M73 230.636H35M73 204.636H35M70 214.636l-8-8-8 8M54 220.636l8 8 8-8M62 206.636l.001 21.047"/><path fill="#0A2832" d="M0 229.636h3.388l1.409-5.035h8.761v5.015h3.376v-23.98H6.801l-.008.027-4.396 15.51H.965L0 224.601h1.42L0 229.636Zm9.138-20.572h4.413v12.109H5.76l3.377-12.109Z"/></svg>