<svg width="217" height="235" viewBox="0 0 217 235" fill="none" xmlns="http://www.w3.org/2000/svg">
<path d="M0.696023 32.5576V25.0306H2.03835C2.49574 24.6462 2.9233 24.0993 3.32102 23.39C3.71875 22.6807 4.05682 21.7229 4.33523 20.5164C4.61364 19.31 4.80587 17.7622 4.91193 15.873L5.3892 7.27211H17.9474V25.0306H20.2543V32.5278H17.3111V27.6357H3.6392V32.5576H0.696023ZM5.65767 25.0306H15.0043V9.91699H8.1733L7.85511 15.873C7.76894 17.3114 7.62642 18.604 7.42756 19.7508C7.23532 20.8976 6.98674 21.9118 6.68182 22.7934C6.38352 23.6684 6.04214 24.4142 5.65767 25.0306ZM22.1783 27.6357L22.1683 25.0605H22.7152C23.1394 25.0605 23.4941 24.971 23.7791 24.792C24.0708 24.6064 24.3094 24.2948 24.495 23.8573C24.6806 23.4198 24.8232 22.8166 24.9226 22.0477C25.022 21.2721 25.0949 20.2977 25.1413 19.1244L25.4098 12.363H36.0689V27.6357H33.1555V14.9284H28.1641L27.9254 20.1187C27.8658 21.3782 27.7365 22.4785 27.5376 23.4198C27.3454 24.3611 27.0637 25.1466 26.6925 25.7764C26.3213 26.3995 25.844 26.8668 25.2607 27.1784C24.6773 27.4833 23.968 27.6357 23.1328 27.6357H22.1783ZM49.1417 27.6357V14.8985H45.4826C44.6142 14.8985 43.9381 15.1007 43.4542 15.5051C42.9703 15.9094 42.7283 16.4397 42.7283 17.096C42.7283 17.7456 42.9504 18.2693 43.3945 18.667C43.8453 19.0581 44.475 19.2536 45.2837 19.2536H50.0067V21.6599H45.2837C44.1568 21.6599 43.1824 21.4743 42.3604 21.1031C41.5451 20.7252 40.9154 20.1916 40.4712 19.5022C40.0337 18.8128 39.815 17.9975 39.815 17.0562C39.815 16.095 40.0404 15.2664 40.4911 14.5704C40.9485 13.8677 41.6014 13.3242 42.4499 12.9397C43.305 12.5552 44.3159 12.363 45.4826 12.363H51.9357V27.6357H49.1417ZM39.119 27.6357L43.4244 19.9198H46.467L42.1616 27.6357H39.119ZM61.8118 32.0406V25.0605H63.0547C63.3729 24.7688 63.6413 24.4208 63.8601 24.0164C64.0855 23.6121 64.2744 23.1315 64.4268 22.5747C64.5859 22.0178 64.7185 21.3682 64.8246 20.6258C64.9306 19.8767 65.0234 19.0216 65.103 18.0605L65.5803 12.363H75.9609V25.0605H78.3075V32.0406H75.4041V27.6357H64.755V32.0406H61.8118ZM66.2365 25.0605H73.0575V14.9085H68.245L67.9268 18.0605C67.7744 19.6646 67.5821 21.0567 67.3501 22.2366C67.1181 23.4099 66.7469 24.3512 66.2365 25.0605ZM84.1268 23.4695L90.8583 12.363H94.06V27.6357H91.1467V16.5193L84.445 27.6357H81.2134V12.363H84.1268V23.4695ZM96.5657 32.0406V25.0605H97.8086C98.1268 24.7688 98.3952 24.4208 98.614 24.0164C98.8394 23.6121 99.0283 23.1315 99.1808 22.5747C99.3398 22.0178 99.4724 21.3682 99.5785 20.6258C99.6845 19.8767 99.7773 19.0216 99.8569 18.0605L100.334 12.363H110.715V25.0605H113.061V32.0406H110.158V27.6357H99.5089V32.0406H96.5657ZM100.99 25.0605H107.811V14.9085H102.999L102.681 18.0605C102.528 19.6646 102.336 21.0567 102.104 22.2366C101.872 23.4099 101.501 24.3512 100.99 25.0605ZM114.993 27.6357L120.909 19.8204L115.062 12.363H118.523L123.246 18.7068H124.31V12.363H127.283V18.7068H128.317L133.04 12.363H136.5L130.683 19.8204L136.57 27.6357H133.04L128.277 21.2721H127.283V27.6357H124.31V21.2721H123.315L118.523 27.6357H114.993ZM142.506 23.4695L149.237 12.363H152.439V27.6357H149.526V16.5193L142.824 27.6357H139.592V12.363H142.506V23.4695ZM154.542 14.9284V12.363H167.428V14.9284H162.447V27.6357H159.543V14.9284H154.542ZM174.306 27.9738C173.339 27.9738 172.464 27.7948 171.681 27.4369C170.899 27.0723 170.279 26.5453 169.822 25.8559C169.371 25.1665 169.146 24.3213 169.146 23.3204C169.146 22.4587 169.312 21.7494 169.643 21.1926C169.975 20.6357 170.422 20.1949 170.985 19.8701C171.549 19.5453 172.179 19.3 172.875 19.1343C173.571 18.9686 174.28 18.8427 175.002 18.7565C175.917 18.6504 176.66 18.5642 177.23 18.498C177.8 18.425 178.214 18.309 178.473 18.1499C178.731 17.9909 178.86 17.7323 178.86 17.3744V17.3048C178.86 16.4364 178.615 15.7636 178.125 15.2863C177.641 14.809 176.918 14.5704 175.957 14.5704C174.956 14.5704 174.167 14.7925 173.591 15.2366C173.02 15.6741 172.626 16.1613 172.407 16.6982L169.613 16.0619C169.945 15.1338 170.429 14.3848 171.065 13.8147C171.708 13.238 172.447 12.8204 173.282 12.5619C174.118 12.2967 174.996 12.1642 175.917 12.1642C176.527 12.1642 177.173 12.2371 177.856 12.3829C178.546 12.5221 179.189 12.7806 179.785 13.1585C180.388 13.5363 180.882 14.0766 181.267 14.7792C181.651 15.4752 181.843 16.3801 181.843 17.4937V27.6357H178.94V25.5477H178.821C178.628 25.9321 178.34 26.31 177.956 26.6812C177.571 27.0524 177.077 27.3606 176.474 27.6059C175.871 27.8512 175.148 27.9738 174.306 27.9738ZM174.953 25.5874C175.775 25.5874 176.477 25.425 177.061 25.1002C177.651 24.7754 178.098 24.3512 178.403 23.8275C178.715 23.2972 178.87 22.7304 178.87 22.1272V20.1585C178.764 20.2645 178.559 20.364 178.254 20.4568C177.956 20.5429 177.614 20.6192 177.23 20.6855C176.845 20.7451 176.471 20.8015 176.106 20.8545C175.742 20.9009 175.437 20.9407 175.191 20.9738C174.615 21.0467 174.088 21.1694 173.61 21.3417C173.14 21.5141 172.762 21.7626 172.477 22.0874C172.199 22.4056 172.059 22.8299 172.059 23.3602C172.059 24.096 172.331 24.6528 172.875 25.0306C173.418 25.4018 174.111 25.5874 174.953 25.5874ZM184.6 27.6357L184.59 25.0605H185.137C185.561 25.0605 185.916 24.971 186.201 24.792C186.493 24.6064 186.731 24.2948 186.917 23.8573C187.103 23.4198 187.245 22.8166 187.344 22.0477C187.444 21.2721 187.517 20.2977 187.563 19.1244L187.832 12.363H198.491V27.6357H195.577V14.9284H190.586L190.347 20.1187C190.288 21.3782 190.158 22.4785 189.96 23.4198C189.767 24.3611 189.486 25.1466 189.114 25.7764C188.743 26.3995 188.266 26.8668 187.683 27.1784C187.099 27.4833 186.39 27.6357 185.555 27.6357H184.6ZM206.9 27.9738C205.932 27.9738 205.057 27.7948 204.275 27.4369C203.493 27.0723 202.873 26.5453 202.416 25.8559C201.965 25.1665 201.74 24.3213 201.74 23.3204C201.74 22.4587 201.905 21.7494 202.237 21.1926C202.568 20.6357 203.016 20.1949 203.579 19.8701C204.143 19.5453 204.772 19.3 205.468 19.1343C206.164 18.9686 206.874 18.8427 207.596 18.7565C208.511 18.6504 209.253 18.5642 209.824 18.498C210.394 18.425 210.808 18.309 211.066 18.1499C211.325 17.9909 211.454 17.7323 211.454 17.3744V17.3048C211.454 16.4364 211.209 15.7636 210.718 15.2863C210.234 14.809 209.512 14.5704 208.551 14.5704C207.55 14.5704 206.761 14.7925 206.184 15.2366C205.614 15.6741 205.22 16.1613 205.001 16.6982L202.207 16.0619C202.538 15.1338 203.022 14.3848 203.659 13.8147C204.302 13.238 205.041 12.8204 205.876 12.5619C206.711 12.2967 207.59 12.1642 208.511 12.1642C209.121 12.1642 209.767 12.2371 210.45 12.3829C211.139 12.5221 211.782 12.7806 212.379 13.1585C212.982 13.5363 213.476 14.0766 213.86 14.7792C214.245 15.4752 214.437 16.3801 214.437 17.4937V27.6357H211.534V25.5477H211.414C211.222 25.9321 210.934 26.31 210.549 26.6812C210.165 27.0524 209.671 27.3606 209.068 27.6059C208.465 27.8512 207.742 27.9738 206.9 27.9738ZM207.547 25.5874C208.368 25.5874 209.071 25.425 209.654 25.1002C210.244 24.7754 210.692 24.3512 210.997 23.8275C211.308 23.2972 211.464 22.7304 211.464 22.1272V20.1585C211.358 20.2645 211.153 20.364 210.848 20.4568C210.549 20.5429 210.208 20.6192 209.824 20.6855C209.439 20.7451 209.065 20.8015 208.7 20.8545C208.335 20.9009 208.03 20.9407 207.785 20.9738C207.208 21.0467 206.681 21.1694 206.204 21.3417C205.734 21.5141 205.356 21.7626 205.071 22.0874C204.792 22.4056 204.653 22.8299 204.653 23.3602C204.653 24.096 204.925 24.6528 205.468 25.0306C206.012 25.4018 206.705 25.5874 207.547 25.5874Z" fill="#058CD7"/>
<path d="M85.108 85.6357V83.846L91.8295 76.488C92.6184 75.6263 93.268 74.8772 93.7784 74.2409C94.2888 73.5979 94.6667 72.9946 94.9119 72.4312C95.1638 71.8611 95.2898 71.2645 95.2898 70.6414C95.2898 69.9255 95.1174 69.3057 94.7727 68.782C94.4347 68.2584 93.9706 67.854 93.3807 67.569C92.7907 67.2839 92.1278 67.1414 91.392 67.1414C90.6098 67.1414 89.9271 67.3038 89.3438 67.6286C88.767 67.9468 88.3196 68.3943 88.0014 68.971C87.6899 69.5477 87.5341 70.2238 87.5341 70.9994H85.1875C85.1875 69.8062 85.4626 68.7588 86.0128 67.8573C86.563 66.9558 87.312 66.2532 88.2599 65.7494C89.2145 65.2456 90.285 64.9937 91.4716 64.9937C92.6648 64.9937 93.7221 65.2456 94.6435 65.7494C95.5649 66.2532 96.2874 66.9326 96.8111 67.7877C97.3348 68.6428 97.5966 69.5941 97.5966 70.6414C97.5966 71.3905 97.4607 72.123 97.1889 72.8389C96.9238 73.5481 96.4598 74.3403 95.7969 75.2153C95.1406 76.0837 94.2292 77.1443 93.0625 78.3971L88.4886 83.2892V83.4482H97.9545V85.6357H85.108ZM101.146 81.4596V79.4312L110.095 65.2721H111.567V68.4142H110.572L103.811 79.113V79.2721H115.862V81.4596H101.146ZM110.732 85.6357V80.8431V79.8985V65.2721H113.078V85.6357H110.732ZM127.503 91.363V70.363H129.77V72.7892H130.049C130.221 72.524 130.46 72.1859 130.765 71.7749C131.076 71.3573 131.52 70.9861 132.097 70.6613C132.68 70.3299 133.469 70.1642 134.463 70.1642C135.749 70.1642 136.883 70.4856 137.864 71.1286C138.845 71.7716 139.611 72.6831 140.161 73.863C140.711 75.0429 140.986 76.435 140.986 78.0392C140.986 79.6566 140.711 81.0586 140.161 82.2451C139.611 83.425 138.848 84.3398 137.874 84.9894C136.9 85.6324 135.776 85.9539 134.503 85.9539C133.522 85.9539 132.737 85.7915 132.147 85.4667C131.557 85.1353 131.103 84.7607 130.784 84.3431C130.466 83.9189 130.221 83.5676 130.049 83.2892H129.85V91.363H127.503ZM129.81 77.9994C129.81 79.1528 129.979 80.1703 130.317 81.0519C130.655 81.9269 131.149 82.613 131.799 83.1102C132.448 83.6007 133.244 83.846 134.185 83.846C135.166 83.846 135.985 83.5874 136.641 83.0704C137.304 82.5467 137.801 81.8441 138.132 80.9624C138.471 80.0742 138.64 79.0865 138.64 77.9994C138.64 76.9255 138.474 75.9577 138.142 75.096C137.818 74.2276 137.324 73.5415 136.661 73.0377C136.005 72.5273 135.179 72.2721 134.185 72.2721C133.23 72.2721 132.428 72.5141 131.779 72.998C131.129 73.4752 130.639 74.1447 130.307 75.0065C129.976 75.8616 129.81 76.8592 129.81 77.9994ZM145.687 70.363L149.346 76.6073L153.005 70.363H155.71L150.778 77.9994L155.71 85.6357H153.005L149.346 79.7096L145.687 85.6357H142.982L147.835 77.9994L142.982 70.363H145.687Z" fill="#058CD7"/>
<line x1="73" y1="87.6357" x2="35" y2="87.6357" stroke="#058CD7" stroke-width="2"/>
<line x1="73" y1="61.6357" x2="35" y2="61.6357" stroke="#058CD7" stroke-width="2"/>
<path d="M62 62L62.0011 88" stroke="#058CD7" stroke-width="2"/>
<path d="M0 86.6357H3.38828L4.79665 81.6012H13.558V86.6162H16.9342V62.6357H6.85132H6.8018L6.79345 62.6626L2.39712 78.1733H0.964636L0 81.6012H1.42043L0 86.6357ZM9.13751 66.0636H13.5507V78.1733H5.76129L9.13751 66.0636Z" fill="#0A2832"/>
<path d="M0.696023 174.558V167.031H2.03835C2.49574 166.646 2.9233 166.099 3.32102 165.39C3.71875 164.681 4.05682 163.723 4.33523 162.516C4.61364 161.31 4.80587 159.762 4.91193 157.873L5.3892 149.272H17.9474V167.031H20.2543V174.528H17.3111V169.636H3.6392V174.558H0.696023ZM5.65767 167.031H15.0043V151.917H8.1733L7.85511 157.873C7.76894 159.311 7.62642 160.604 7.42756 161.751C7.23532 162.898 6.98674 163.912 6.68182 164.793C6.38352 165.668 6.04214 166.414 5.65767 167.031ZM22.1783 169.636L22.1683 167.06H22.7152C23.1394 167.06 23.4941 166.971 23.7791 166.792C24.0708 166.606 24.3094 166.295 24.495 165.857C24.6806 165.42 24.8232 164.817 24.9226 164.048C25.022 163.272 25.0949 162.298 25.1413 161.124L25.4098 154.363H36.0689V169.636H33.1555V156.928H28.1641L27.9254 162.119C27.8658 163.378 27.7365 164.479 27.5376 165.42C27.3454 166.361 27.0637 167.147 26.6925 167.776C26.3213 168.399 25.844 168.867 25.2607 169.178C24.6773 169.483 23.968 169.636 23.1328 169.636H22.1783ZM49.1417 169.636V156.899H45.4826C44.6142 156.899 43.9381 157.101 43.4542 157.505C42.9703 157.909 42.7283 158.44 42.7283 159.096C42.7283 159.746 42.9504 160.269 43.3945 160.667C43.8453 161.058 44.475 161.254 45.2837 161.254H50.0067V163.66H45.2837C44.1568 163.66 43.1824 163.474 42.3604 163.103C41.5451 162.725 40.9154 162.192 40.4712 161.502C40.0337 160.813 39.815 159.997 39.815 159.056C39.815 158.095 40.0404 157.266 40.4911 156.57C40.9485 155.868 41.6014 155.324 42.4499 154.94C43.305 154.555 44.3159 154.363 45.4826 154.363H51.9357V169.636H49.1417ZM39.119 169.636L43.4244 161.92H46.467L42.1616 169.636H39.119ZM63.3033 169.636V154.363H75.7621V169.636H72.8487V156.928H66.1967V169.636H63.3033ZM86.3192 169.944C84.8145 169.944 83.5186 169.622 82.4315 168.979C81.351 168.33 80.5157 167.418 79.9258 166.245C79.3424 165.065 79.0508 163.683 79.0508 162.099C79.0508 160.534 79.3424 159.156 79.9258 157.962C80.5157 156.769 81.3377 155.838 82.3917 155.168C83.4523 154.499 84.6919 154.164 86.1104 154.164C86.9722 154.164 87.8074 154.307 88.6161 154.592C89.4248 154.877 90.1507 155.324 90.7937 155.934C91.4367 156.544 91.9438 157.336 92.315 158.31C92.6862 159.278 92.8718 160.455 92.8718 161.84V162.894H80.7312V160.667H89.9585C89.9585 159.885 89.7994 159.192 89.4812 158.589C89.163 157.979 88.7156 157.498 88.1388 157.147C87.5688 156.796 86.8993 156.62 86.1303 156.62C85.2951 156.62 84.5659 156.826 83.9428 157.237C83.3263 157.641 82.8491 158.171 82.511 158.828C82.1796 159.477 82.0138 160.183 82.0138 160.945V162.685C82.0138 163.706 82.1928 164.575 82.5508 165.291C82.9154 166.006 83.4225 166.553 84.0721 166.931C84.7217 167.302 85.4807 167.488 86.3491 167.488C86.9125 167.488 87.4263 167.408 87.8903 167.249C88.3543 167.084 88.7553 166.838 89.0934 166.514C89.4315 166.189 89.69 165.788 89.869 165.31L92.6829 165.818C92.4575 166.646 92.0531 167.372 91.4698 167.995C90.8931 168.612 90.1673 169.092 89.2923 169.437C88.4239 169.775 87.4329 169.944 86.3192 169.944ZM108.43 154.363V169.636H105.527V154.363H108.43ZM107.168 161.453V164.018C106.71 164.203 106.226 164.369 105.716 164.515C105.205 164.654 104.669 164.764 104.105 164.843C103.542 164.923 102.955 164.962 102.345 164.962C100.456 164.962 98.9545 164.502 97.8409 163.58C96.7273 162.652 96.1705 161.234 96.1705 159.325V154.333H99.0639V159.325C99.0639 160.047 99.1965 160.634 99.4616 161.085C99.7268 161.535 100.105 161.867 100.595 162.079C101.086 162.291 101.669 162.397 102.345 162.397C103.24 162.397 104.065 162.314 104.821 162.149C105.583 161.976 106.366 161.744 107.168 161.453ZM116.83 169.974C115.862 169.974 114.987 169.795 114.205 169.437C113.423 169.072 112.803 168.545 112.346 167.856C111.895 167.167 111.669 166.321 111.669 165.32C111.669 164.459 111.835 163.749 112.167 163.193C112.498 162.636 112.945 162.195 113.509 161.87C114.072 161.545 114.702 161.3 115.398 161.134C116.094 160.969 116.803 160.843 117.526 160.756C118.441 160.65 119.183 160.564 119.753 160.498C120.323 160.425 120.738 160.309 120.996 160.15C121.255 159.991 121.384 159.732 121.384 159.374V159.305C121.384 158.436 121.139 157.764 120.648 157.286C120.164 156.809 119.442 156.57 118.48 156.57C117.48 156.57 116.691 156.792 116.114 157.237C115.544 157.674 115.15 158.161 114.931 158.698L112.137 158.062C112.468 157.134 112.952 156.385 113.588 155.815C114.231 155.238 114.971 154.82 115.806 154.562C116.641 154.297 117.519 154.164 118.441 154.164C119.051 154.164 119.697 154.237 120.38 154.383C121.069 154.522 121.712 154.781 122.309 155.158C122.912 155.536 123.406 156.077 123.79 156.779C124.175 157.475 124.367 158.38 124.367 159.494V169.636H121.463V167.548H121.344C121.152 167.932 120.864 168.31 120.479 168.681C120.095 169.052 119.601 169.361 118.998 169.606C118.394 169.851 117.672 169.974 116.83 169.974ZM117.476 167.587C118.298 167.587 119.001 167.425 119.584 167.1C120.174 166.775 120.622 166.351 120.926 165.828C121.238 165.297 121.394 164.73 121.394 164.127V162.158C121.288 162.265 121.082 162.364 120.777 162.457C120.479 162.543 120.138 162.619 119.753 162.685C119.369 162.745 118.994 162.801 118.63 162.854C118.265 162.901 117.96 162.941 117.715 162.974C117.138 163.047 116.611 163.169 116.134 163.342C115.663 163.514 115.285 163.763 115 164.087C114.722 164.406 114.583 164.83 114.583 165.36C114.583 166.096 114.855 166.653 115.398 167.031C115.942 167.402 116.634 167.587 117.476 167.587ZM126.433 156.928V154.363H139.319V156.928H134.337V169.636H131.434V156.928H126.433ZM145.377 165.47L152.108 154.363H155.31V169.636H152.397V158.519L145.695 169.636H142.463V154.363H145.377V165.47Z" fill="#058CD7"/>
<path d="M93.7443 227.636L102.852 209.619V209.46H92.3523V207.272H105.398V209.579L96.3295 227.636H93.7443ZM117.019 227.636V212.363H119.286V214.749H119.485C119.803 213.934 120.317 213.301 121.026 212.85C121.735 212.393 122.587 212.164 123.581 212.164C124.589 212.164 125.427 212.393 126.097 212.85C126.773 213.301 127.3 213.934 127.678 214.749H127.837C128.228 213.961 128.815 213.334 129.597 212.87C130.379 212.399 131.317 212.164 132.411 212.164C133.776 212.164 134.893 212.592 135.762 213.447C136.63 214.295 137.064 215.618 137.064 217.414V227.636H134.718V217.414C134.718 216.287 134.409 215.482 133.793 214.998C133.176 214.514 132.451 214.272 131.615 214.272C130.542 214.272 129.71 214.597 129.12 215.247C128.53 215.89 128.235 216.705 128.235 217.693V227.636H125.848V217.176C125.848 216.307 125.567 215.608 125.003 215.078C124.44 214.541 123.714 214.272 122.826 214.272C122.216 214.272 121.646 214.435 121.115 214.759C120.592 215.084 120.167 215.535 119.843 216.112C119.525 216.682 119.365 217.341 119.365 218.09V227.636H117.019ZM141.355 227.636V212.363H143.622V214.749H143.821C144.139 213.934 144.653 213.301 145.362 212.85C146.071 212.393 146.923 212.164 147.917 212.164C148.925 212.164 149.763 212.393 150.433 212.85C151.109 213.301 151.636 213.934 152.014 214.749H152.173C152.564 213.961 153.151 213.334 153.933 212.87C154.715 212.399 155.653 212.164 156.747 212.164C158.112 212.164 159.229 212.592 160.098 213.447C160.966 214.295 161.4 215.618 161.4 217.414V227.636H159.054V217.414C159.054 216.287 158.745 215.482 158.129 214.998C157.512 214.514 156.787 214.272 155.951 214.272C154.877 214.272 154.046 214.597 153.456 215.247C152.866 215.89 152.571 216.705 152.571 217.693V227.636H150.184V217.176C150.184 216.307 149.903 215.608 149.339 215.078C148.776 214.541 148.05 214.272 147.162 214.272C146.552 214.272 145.982 214.435 145.451 214.759C144.928 215.084 144.503 215.535 144.179 216.112C143.86 216.682 143.701 217.341 143.701 218.09V227.636H141.355Z" fill="#058CD7"/>
<line x1="73" y1="230.636" x2="35" y2="230.636" stroke="#058CD7" stroke-width="2"/>
<line x1="73" y1="204.636" x2="35" y2="204.636" stroke="#058CD7" stroke-width="2"/>
<path d="M62 205L62.1274 230.336" stroke="#058CD7" stroke-width="2"/>
<path d="M0 229.636H3.38828L4.79665 224.601H13.558V229.616H16.9342V205.636H6.85132H6.8018L6.79345 205.663L2.39712 221.173H0.964636L0 224.601H1.42043L0 229.636ZM9.13751 209.064H13.5507V221.173H5.76129L9.13751 209.064Z" fill="#0A2832"/>
</svg>
