<svg width="1128" height="276" viewBox="0 0 1128 276" fill="none" xmlns="http://www.w3.org/2000/svg">
<rect width="1128" height="276" fill="#F2F6F9"/>
<rect x="96" y="75" width="834" height="42" fill="#B4DDF3"/>
<rect x="96" y="117" width="864" height="42" fill="#B4DDF3"/>
<rect x="96" y="159" width="369" height="42" fill="#B4DDF3"/>
<path d="M98.8182 108V84.7273H106.955C108.576 84.7273 109.913 85.0076 110.966 85.5682C112.019 86.1212 112.803 86.8674 113.318 87.8068C113.833 88.7386 114.091 89.7727 114.091 90.9091C114.091 91.9091 113.913 92.7348 113.557 93.3864C113.208 94.0379 112.746 94.553 112.17 94.9318C111.602 95.3106 110.985 95.5909 110.318 95.7727V96C111.03 96.0455 111.746 96.2955 112.466 96.75C113.186 97.2045 113.788 97.8561 114.273 98.7045C114.758 99.553 115 100.591 115 101.818C115 102.985 114.735 104.034 114.205 104.966C113.674 105.898 112.837 106.636 111.693 107.182C110.549 107.727 109.061 108 107.227 108H98.8182ZM101.636 105.5H107.227C109.068 105.5 110.375 105.144 111.148 104.432C111.928 103.712 112.318 102.841 112.318 101.818C112.318 101.03 112.117 100.303 111.716 99.6364C111.314 98.9621 110.742 98.4242 110 98.0227C109.258 97.6136 108.379 97.4091 107.364 97.4091H101.636V105.5ZM101.636 94.9545H106.864C107.712 94.9545 108.477 94.7879 109.159 94.4545C109.848 94.1212 110.394 93.6515 110.795 93.0455C111.205 92.4394 111.409 91.7273 111.409 90.9091C111.409 89.8864 111.053 89.0189 110.341 88.3068C109.629 87.5871 108.5 87.2273 106.955 87.2273H101.636V94.9545ZM121.585 96.8636H126.585C128.631 96.8636 130.195 97.3826 131.278 98.4205C132.362 99.4583 132.903 100.773 132.903 102.364C132.903 103.409 132.661 104.36 132.176 105.216C131.691 106.064 130.979 106.742 130.04 107.25C129.1 107.75 127.949 108 126.585 108H119.267V90.5455H121.949V105.5H126.585C127.646 105.5 128.517 105.22 129.199 104.659C129.881 104.098 130.222 103.379 130.222 102.5C130.222 101.576 129.881 100.822 129.199 100.239C128.517 99.6553 127.646 99.3636 126.585 99.3636H121.585V96.8636ZM135.676 108V90.5455H138.358V108H135.676ZM143.267 114.545V90.5455H145.858V93.3182H146.176C146.373 93.0152 146.646 92.6288 146.994 92.1591C147.35 91.6818 147.858 91.2576 148.517 90.8864C149.184 90.5076 150.085 90.3182 151.222 90.3182C152.691 90.3182 153.987 90.6856 155.108 91.4205C156.229 92.1553 157.104 93.197 157.733 94.5455C158.362 95.8939 158.676 97.4848 158.676 99.3182C158.676 101.167 158.362 102.769 157.733 104.125C157.104 105.473 156.233 106.519 155.119 107.261C154.006 107.996 152.722 108.364 151.267 108.364C150.146 108.364 149.248 108.178 148.574 107.807C147.9 107.428 147.381 107 147.017 106.523C146.653 106.038 146.373 105.636 146.176 105.318H145.949V114.545H143.267ZM145.903 99.2727C145.903 100.591 146.097 101.754 146.483 102.761C146.869 103.761 147.434 104.545 148.176 105.114C148.919 105.674 149.828 105.955 150.903 105.955C152.025 105.955 152.96 105.659 153.71 105.068C154.468 104.47 155.036 103.667 155.415 102.659C155.801 101.644 155.994 100.515 155.994 99.2727C155.994 98.0455 155.805 96.9394 155.426 95.9545C155.055 94.9621 154.491 94.178 153.733 93.6023C152.983 93.0189 152.04 92.7273 150.903 92.7273C149.813 92.7273 148.896 93.0038 148.153 93.5568C147.411 94.1023 146.85 94.8674 146.472 95.8523C146.093 96.8295 145.903 97.9697 145.903 99.2727ZM167.903 108.409C166.797 108.409 165.794 108.201 164.892 107.784C163.991 107.36 163.275 106.75 162.744 105.955C162.214 105.152 161.949 104.182 161.949 103.045C161.949 102.045 162.146 101.235 162.54 100.614C162.934 99.9848 163.46 99.4924 164.119 99.1364C164.778 98.7803 165.506 98.5152 166.301 98.3409C167.104 98.1591 167.911 98.0152 168.722 97.9091C169.782 97.7727 170.642 97.6705 171.301 97.6023C171.968 97.5265 172.453 97.4015 172.756 97.2273C173.066 97.053 173.222 96.75 173.222 96.3182V96.2273C173.222 95.1061 172.915 94.2348 172.301 93.6136C171.695 92.9924 170.775 92.6818 169.54 92.6818C168.259 92.6818 167.256 92.9621 166.528 93.5227C165.801 94.0833 165.29 94.6818 164.994 95.3182L162.449 94.4091C162.903 93.3485 163.509 92.5227 164.267 91.9318C165.032 91.3333 165.866 90.9167 166.767 90.6818C167.676 90.4394 168.57 90.3182 169.449 90.3182C170.009 90.3182 170.653 90.3864 171.381 90.5227C172.116 90.6515 172.824 90.9205 173.506 91.3295C174.195 91.7386 174.767 92.3561 175.222 93.1818C175.676 94.0076 175.903 95.1136 175.903 96.5V108H173.222V105.636H173.085C172.903 106.015 172.6 106.42 172.176 106.852C171.752 107.284 171.188 107.652 170.483 107.955C169.778 108.258 168.919 108.409 167.903 108.409ZM168.312 106C169.373 106 170.267 105.792 170.994 105.375C171.729 104.958 172.282 104.42 172.653 103.761C173.032 103.102 173.222 102.409 173.222 101.682V99.2273C173.108 99.3636 172.858 99.4886 172.472 99.6023C172.093 99.7083 171.653 99.803 171.153 99.8864C170.661 99.9621 170.18 100.03 169.71 100.091C169.248 100.144 168.873 100.189 168.585 100.227C167.888 100.318 167.237 100.466 166.631 100.67C166.032 100.867 165.547 101.167 165.176 101.568C164.813 101.962 164.631 102.5 164.631 103.182C164.631 104.114 164.975 104.818 165.665 105.295C166.362 105.765 167.244 106 168.312 106ZM180.798 108V90.5455H187.935C189.813 90.5455 191.306 90.9697 192.412 91.8182C193.518 92.6667 194.071 93.7879 194.071 95.1818C194.071 96.2424 193.757 97.0644 193.128 97.6477C192.499 98.2235 191.692 98.6136 190.707 98.8182C191.351 98.9091 191.976 99.1364 192.582 99.5C193.196 99.8636 193.704 100.364 194.105 101C194.507 101.629 194.707 102.402 194.707 103.318C194.707 104.212 194.48 105.011 194.026 105.716C193.571 106.42 192.92 106.977 192.071 107.386C191.223 107.795 190.207 108 189.026 108H180.798ZM183.344 105.545H189.026C189.95 105.545 190.673 105.326 191.196 104.886C191.719 104.447 191.98 103.848 191.98 103.091C191.98 102.189 191.719 101.481 191.196 100.966C190.673 100.443 189.95 100.182 189.026 100.182H183.344V105.545ZM183.344 97.8636H187.935C188.654 97.8636 189.272 97.7652 189.787 97.5682C190.302 97.3636 190.696 97.0758 190.969 96.7045C191.249 96.3258 191.389 95.8788 191.389 95.3636C191.389 94.6288 191.082 94.053 190.469 93.6364C189.855 93.2121 189.01 93 187.935 93H183.344V97.8636ZM210.449 98.0455V100.545H200.812V98.0455H210.449ZM201.449 90.5455V108H198.767V90.5455H201.449ZM212.494 90.5455V108H209.812V90.5455H212.494ZM220.074 104.045L228.483 90.5455H231.574V108H228.892V94.5L220.528 108H217.392V90.5455H220.074V104.045ZM236.486 108V90.5455H243.622C245.501 90.5455 246.993 90.9697 248.099 91.8182C249.205 92.6667 249.759 93.7879 249.759 95.1818C249.759 96.2424 249.444 97.0644 248.815 97.6477C248.187 98.2235 247.38 98.6136 246.395 98.8182C247.039 98.9091 247.664 99.1364 248.27 99.5C248.884 99.8636 249.391 100.364 249.793 101C250.194 101.629 250.395 102.402 250.395 103.318C250.395 104.212 250.168 105.011 249.713 105.716C249.259 106.42 248.607 106.977 247.759 107.386C246.91 107.795 245.895 108 244.713 108H236.486ZM239.031 105.545H244.713C245.637 105.545 246.361 105.326 246.884 104.886C247.406 104.447 247.668 103.848 247.668 103.091C247.668 102.189 247.406 101.481 246.884 100.966C246.361 100.443 245.637 100.182 244.713 100.182H239.031V105.545ZM239.031 97.8636H243.622C244.342 97.8636 244.959 97.7652 245.474 97.5682C245.99 97.3636 246.384 97.0758 246.656 96.7045C246.937 96.3258 247.077 95.8788 247.077 95.3636C247.077 94.6288 246.77 94.053 246.156 93.6364C245.543 93.2121 244.698 93 243.622 93H239.031V97.8636ZM259.591 108.409C258.485 108.409 257.481 108.201 256.58 107.784C255.678 107.36 254.962 106.75 254.432 105.955C253.902 105.152 253.636 104.182 253.636 103.045C253.636 102.045 253.833 101.235 254.227 100.614C254.621 99.9848 255.148 99.4924 255.807 99.1364C256.466 98.7803 257.193 98.5152 257.989 98.3409C258.792 98.1591 259.598 98.0152 260.409 97.9091C261.47 97.7727 262.33 97.6705 262.989 97.6023C263.655 97.5265 264.14 97.4015 264.443 97.2273C264.754 97.053 264.909 96.75 264.909 96.3182V96.2273C264.909 95.1061 264.602 94.2348 263.989 93.6136C263.383 92.9924 262.462 92.6818 261.227 92.6818C259.947 92.6818 258.943 92.9621 258.216 93.5227C257.489 94.0833 256.977 94.6818 256.682 95.3182L254.136 94.4091C254.591 93.3485 255.197 92.5227 255.955 91.9318C256.72 91.3333 257.553 90.9167 258.455 90.6818C259.364 90.4394 260.258 90.3182 261.136 90.3182C261.697 90.3182 262.341 90.3864 263.068 90.5227C263.803 90.6515 264.511 90.9205 265.193 91.3295C265.883 91.7386 266.455 92.3561 266.909 93.1818C267.364 94.0076 267.591 95.1136 267.591 96.5V108H264.909V105.636H264.773C264.591 106.015 264.288 106.42 263.864 106.852C263.439 107.284 262.875 107.652 262.17 107.955C261.466 108.258 260.606 108.409 259.591 108.409ZM260 106C261.061 106 261.955 105.792 262.682 105.375C263.417 104.958 263.97 104.42 264.341 103.761C264.72 103.102 264.909 102.409 264.909 101.682V99.2273C264.795 99.3636 264.545 99.4886 264.159 99.6023C263.78 99.7083 263.341 99.803 262.841 99.8864C262.348 99.9621 261.867 100.03 261.398 100.091C260.936 100.144 260.561 100.189 260.273 100.227C259.576 100.318 258.924 100.466 258.318 100.67C257.72 100.867 257.235 101.167 256.864 101.568C256.5 101.962 256.318 102.5 256.318 103.182C256.318 104.114 256.663 104.818 257.352 105.295C258.049 105.765 258.932 106 260 106ZM284.168 98.0455V100.545H274.531V98.0455H284.168ZM275.168 90.5455V108H272.486V90.5455H275.168ZM286.213 90.5455V108H283.531V90.5455H286.213ZM293.793 104.045L302.202 90.5455H305.293V108H302.611V94.5L294.247 108H291.111V90.5455H293.793V104.045ZM317.523 108.364C315.841 108.364 314.39 107.992 313.17 107.25C311.958 106.5 311.023 105.455 310.364 104.114C309.712 102.765 309.386 101.197 309.386 99.4091C309.386 97.6212 309.712 96.0455 310.364 94.6818C311.023 93.3106 311.939 92.2424 313.114 91.4773C314.295 90.7045 315.674 90.3182 317.25 90.3182C318.159 90.3182 319.057 90.4697 319.943 90.7727C320.83 91.0758 321.636 91.5682 322.364 92.25C323.091 92.9242 323.67 93.8182 324.102 94.9318C324.534 96.0455 324.75 97.4167 324.75 99.0455V100.182H311.295V97.8636H322.023C322.023 96.8788 321.826 96 321.432 95.2273C321.045 94.4545 320.492 93.8447 319.773 93.3977C319.061 92.9508 318.22 92.7273 317.25 92.7273C316.182 92.7273 315.258 92.9924 314.477 93.5227C313.705 94.0455 313.11 94.7273 312.693 95.5682C312.277 96.4091 312.068 97.3106 312.068 98.2727V99.8182C312.068 101.136 312.295 102.254 312.75 103.17C313.212 104.08 313.852 104.773 314.67 105.25C315.489 105.72 316.439 105.955 317.523 105.955C318.227 105.955 318.864 105.856 319.432 105.659C320.008 105.455 320.504 105.152 320.92 104.75C321.337 104.341 321.659 103.833 321.886 103.227L324.477 103.955C324.205 104.833 323.746 105.606 323.102 106.273C322.458 106.932 321.663 107.447 320.716 107.818C319.769 108.182 318.705 108.364 317.523 108.364ZM336.83 93.0455V90.5455H351.011V93.0455H345.284V108H342.602V93.0455H336.83ZM361.335 108.364C359.653 108.364 358.203 107.992 356.983 107.25C355.771 106.5 354.835 105.455 354.176 104.114C353.525 102.765 353.199 101.197 353.199 99.4091C353.199 97.6212 353.525 96.0455 354.176 94.6818C354.835 93.3106 355.752 92.2424 356.926 91.4773C358.108 90.7045 359.487 90.3182 361.062 90.3182C361.972 90.3182 362.869 90.4697 363.756 90.7727C364.642 91.0758 365.449 91.5682 366.176 92.25C366.903 92.9242 367.483 93.8182 367.915 94.9318C368.347 96.0455 368.562 97.4167 368.562 99.0455V100.182H355.108V97.8636H365.835C365.835 96.8788 365.638 96 365.244 95.2273C364.858 94.4545 364.305 93.8447 363.585 93.3977C362.873 92.9508 362.032 92.7273 361.062 92.7273C359.994 92.7273 359.07 92.9924 358.29 93.5227C357.517 94.0455 356.922 94.7273 356.506 95.5682C356.089 96.4091 355.881 97.3106 355.881 98.2727V99.8182C355.881 101.136 356.108 102.254 356.562 103.17C357.025 104.08 357.665 104.773 358.483 105.25C359.301 105.72 360.252 105.955 361.335 105.955C362.04 105.955 362.676 105.856 363.244 105.659C363.82 105.455 364.316 105.152 364.733 104.75C365.15 104.341 365.472 103.833 365.699 103.227L368.29 103.955C368.017 104.833 367.559 105.606 366.915 106.273C366.271 106.932 365.475 107.447 364.528 107.818C363.581 108.182 362.517 108.364 361.335 108.364ZM372.642 108V90.5455H375.324V98.1364H377.097L383.369 90.5455H386.824L379.778 98.9545L386.915 108H383.46L377.733 100.636H375.324V108H372.642ZM396.202 108.364C394.565 108.364 393.156 107.977 391.974 107.205C390.793 106.432 389.884 105.367 389.247 104.011C388.611 102.655 388.293 101.106 388.293 99.3636C388.293 97.5909 388.618 96.0265 389.27 94.6705C389.929 93.3068 390.846 92.2424 392.02 91.4773C393.202 90.7045 394.58 90.3182 396.156 90.3182C397.384 90.3182 398.49 90.5455 399.474 91C400.459 91.4545 401.266 92.0909 401.895 92.9091C402.524 93.7273 402.914 94.6818 403.065 95.7727H400.384C400.179 94.9773 399.724 94.2727 399.02 93.6591C398.323 93.0379 397.384 92.7273 396.202 92.7273C395.156 92.7273 394.24 93 393.452 93.5455C392.671 94.0833 392.062 94.8447 391.622 95.8295C391.19 96.8068 390.974 97.9545 390.974 99.2727C390.974 100.621 391.187 101.795 391.611 102.795C392.043 103.795 392.649 104.572 393.429 105.125C394.217 105.678 395.141 105.955 396.202 105.955C396.899 105.955 397.531 105.833 398.099 105.591C398.668 105.348 399.149 105 399.543 104.545C399.937 104.091 400.217 103.545 400.384 102.909H403.065C402.914 103.939 402.539 104.867 401.94 105.693C401.349 106.511 400.565 107.163 399.588 107.648C398.618 108.125 397.49 108.364 396.202 108.364ZM405.611 93.0455V90.5455H419.793V93.0455H414.065V108H411.384V93.0455H405.611ZM427.935 108.409C426.829 108.409 425.825 108.201 424.923 107.784C424.022 107.36 423.306 106.75 422.776 105.955C422.245 105.152 421.98 104.182 421.98 103.045C421.98 102.045 422.177 101.235 422.571 100.614C422.965 99.9848 423.491 99.4924 424.151 99.1364C424.81 98.7803 425.537 98.5152 426.332 98.3409C427.135 98.1591 427.942 98.0152 428.753 97.9091C429.813 97.7727 430.673 97.6705 431.332 97.6023C431.999 97.5265 432.484 97.4015 432.787 97.2273C433.098 97.053 433.253 96.75 433.253 96.3182V96.2273C433.253 95.1061 432.946 94.2348 432.332 93.6136C431.726 92.9924 430.806 92.6818 429.571 92.6818C428.291 92.6818 427.287 92.9621 426.56 93.5227C425.832 94.0833 425.321 94.6818 425.026 95.3182L422.48 94.4091C422.935 93.3485 423.541 92.5227 424.298 91.9318C425.063 91.3333 425.897 90.9167 426.798 90.6818C427.707 90.4394 428.601 90.3182 429.48 90.3182C430.041 90.3182 430.685 90.3864 431.412 90.5227C432.147 90.6515 432.855 90.9205 433.537 91.3295C434.226 91.7386 434.798 92.3561 435.253 93.1818C435.707 94.0076 435.935 95.1136 435.935 96.5V108H433.253V105.636H433.116C432.935 106.015 432.632 106.42 432.207 106.852C431.783 107.284 431.219 107.652 430.514 107.955C429.81 108.258 428.95 108.409 427.935 108.409ZM428.344 106C429.404 106 430.298 105.792 431.026 105.375C431.76 104.958 432.313 104.42 432.685 103.761C433.063 103.102 433.253 102.409 433.253 101.682V99.2273C433.139 99.3636 432.889 99.4886 432.503 99.6023C432.124 99.7083 431.685 99.803 431.185 99.8864C430.692 99.9621 430.211 100.03 429.741 100.091C429.279 100.144 428.904 100.189 428.616 100.227C427.92 100.318 427.268 100.466 426.662 100.67C426.063 100.867 425.579 101.167 425.207 101.568C424.844 101.962 424.662 102.5 424.662 103.182C424.662 104.114 425.007 104.818 425.696 105.295C426.393 105.765 427.276 106 428.344 106ZM449.83 108V90.5455H463.557V108H460.875V93.0455H452.511V108H449.83ZM475.545 108.364C473.97 108.364 472.587 107.989 471.398 107.239C470.216 106.489 469.292 105.439 468.625 104.091C467.966 102.742 467.636 101.167 467.636 99.3636C467.636 97.5455 467.966 95.9583 468.625 94.6023C469.292 93.2462 470.216 92.1932 471.398 91.4432C472.587 90.6932 473.97 90.3182 475.545 90.3182C477.121 90.3182 478.5 90.6932 479.682 91.4432C480.871 92.1932 481.795 93.2462 482.455 94.6023C483.121 95.9583 483.455 97.5455 483.455 99.3636C483.455 101.167 483.121 102.742 482.455 104.091C481.795 105.439 480.871 106.489 479.682 107.239C478.5 107.989 477.121 108.364 475.545 108.364ZM475.545 105.955C476.742 105.955 477.727 105.648 478.5 105.034C479.273 104.42 479.845 103.614 480.216 102.614C480.587 101.614 480.773 100.53 480.773 99.3636C480.773 98.197 480.587 97.1098 480.216 96.1023C479.845 95.0947 479.273 94.2803 478.5 93.6591C477.727 93.0379 476.742 92.7273 475.545 92.7273C474.348 92.7273 473.364 93.0379 472.591 93.6591C471.818 94.2803 471.246 95.0947 470.875 96.1023C470.504 97.1098 470.318 98.197 470.318 99.3636C470.318 100.53 470.504 101.614 470.875 102.614C471.246 103.614 471.818 104.42 472.591 105.034C473.364 105.648 474.348 105.955 475.545 105.955ZM495.003 108V105.5H495.639C496.162 105.5 496.598 105.398 496.946 105.193C497.295 104.981 497.575 104.614 497.787 104.091C498.007 103.561 498.173 102.826 498.287 101.886C498.408 100.939 498.495 99.7348 498.548 98.2727L498.866 90.5455H510.503V108H507.821V93.0455H501.412L501.139 99.2727C501.079 100.705 500.95 101.966 500.753 103.057C500.563 104.14 500.272 105.049 499.878 105.784C499.491 106.519 498.976 107.072 498.332 107.443C497.688 107.814 496.882 108 495.912 108H495.003ZM522.741 108.364C521.06 108.364 519.609 107.992 518.389 107.25C517.177 106.5 516.241 105.455 515.582 104.114C514.931 102.765 514.605 101.197 514.605 99.4091C514.605 97.6212 514.931 96.0455 515.582 94.6818C516.241 93.3106 517.158 92.2424 518.332 91.4773C519.514 90.7045 520.893 90.3182 522.469 90.3182C523.378 90.3182 524.276 90.4697 525.162 90.7727C526.048 91.0758 526.855 91.5682 527.582 92.25C528.31 92.9242 528.889 93.8182 529.321 94.9318C529.753 96.0455 529.969 97.4167 529.969 99.0455V100.182H516.514V97.8636H527.241C527.241 96.8788 527.045 96 526.651 95.2273C526.264 94.4545 525.711 93.8447 524.991 93.3977C524.279 92.9508 523.438 92.7273 522.469 92.7273C521.401 92.7273 520.476 92.9924 519.696 93.5227C518.923 94.0455 518.329 94.7273 517.912 95.5682C517.495 96.4091 517.287 97.3106 517.287 98.2727V99.8182C517.287 101.136 517.514 102.254 517.969 103.17C518.431 104.08 519.071 104.773 519.889 105.25C520.707 105.72 521.658 105.955 522.741 105.955C523.446 105.955 524.082 105.856 524.651 105.659C525.226 105.455 525.723 105.152 526.139 104.75C526.556 104.341 526.878 103.833 527.105 103.227L529.696 103.955C529.423 104.833 528.965 105.606 528.321 106.273C527.677 106.932 526.882 107.447 525.935 107.818C524.988 108.182 523.923 108.364 522.741 108.364ZM534.048 108V90.5455H541.185C543.063 90.5455 544.556 90.9697 545.662 91.8182C546.768 92.6667 547.321 93.7879 547.321 95.1818C547.321 96.2424 547.007 97.0644 546.378 97.6477C545.749 98.2235 544.942 98.6136 543.957 98.8182C544.601 98.9091 545.226 99.1364 545.832 99.5C546.446 99.8636 546.954 100.364 547.355 101C547.757 101.629 547.957 102.402 547.957 103.318C547.957 104.212 547.73 105.011 547.276 105.716C546.821 106.42 546.17 106.977 545.321 107.386C544.473 107.795 543.457 108 542.276 108H534.048ZM536.594 105.545H542.276C543.2 105.545 543.923 105.326 544.446 104.886C544.969 104.447 545.23 103.848 545.23 103.091C545.23 102.189 544.969 101.481 544.446 100.966C543.923 100.443 543.2 100.182 542.276 100.182H536.594V105.545ZM536.594 97.8636H541.185C541.904 97.8636 542.522 97.7652 543.037 97.5682C543.552 97.3636 543.946 97.0758 544.219 96.7045C544.499 96.3258 544.639 95.8788 544.639 95.3636C544.639 94.6288 544.332 94.053 543.719 93.6364C543.105 93.2121 542.26 93 541.185 93H536.594V97.8636ZM559.108 108.364C557.532 108.364 556.15 107.989 554.96 107.239C553.778 106.489 552.854 105.439 552.188 104.091C551.528 102.742 551.199 101.167 551.199 99.3636C551.199 97.5455 551.528 95.9583 552.188 94.6023C552.854 93.2462 553.778 92.1932 554.96 91.4432C556.15 90.6932 557.532 90.3182 559.108 90.3182C560.684 90.3182 562.063 90.6932 563.244 91.4432C564.434 92.1932 565.358 93.2462 566.017 94.6023C566.684 95.9583 567.017 97.5455 567.017 99.3636C567.017 101.167 566.684 102.742 566.017 104.091C565.358 105.439 564.434 106.489 563.244 107.239C562.063 107.989 560.684 108.364 559.108 108.364ZM559.108 105.955C560.305 105.955 561.29 105.648 562.062 105.034C562.835 104.42 563.407 103.614 563.778 102.614C564.15 101.614 564.335 100.53 564.335 99.3636C564.335 98.197 564.15 97.1098 563.778 96.1023C563.407 95.0947 562.835 94.2803 562.062 93.6591C561.29 93.0379 560.305 92.7273 559.108 92.7273C557.911 92.7273 556.926 93.0379 556.153 93.6591C555.381 94.2803 554.809 95.0947 554.438 96.1023C554.066 97.1098 553.881 98.197 553.881 99.3636C553.881 100.53 554.066 101.614 554.438 102.614C554.809 103.614 555.381 104.42 556.153 105.034C556.926 105.648 557.911 105.955 559.108 105.955ZM580.656 104.364L586.747 90.5455H589.293L581.747 108H579.565L572.156 90.5455H574.656L580.656 104.364ZM573.793 90.5455V108H571.111V90.5455H573.793ZM587.52 108V90.5455H590.202V108H587.52ZM596.213 114.545C595.759 114.545 595.353 114.508 594.997 114.432C594.641 114.364 594.395 114.295 594.259 114.227L594.94 111.864C595.592 112.03 596.168 112.091 596.668 112.045C597.168 112 597.611 111.777 597.997 111.375C598.391 110.981 598.751 110.341 599.077 109.455L599.577 108.091L593.122 90.5455H596.031L600.849 104.455H601.031L605.849 90.5455H608.759L601.349 110.545C601.016 111.447 600.603 112.193 600.111 112.784C599.618 113.383 599.046 113.826 598.395 114.114C597.751 114.402 597.024 114.545 596.213 114.545ZM621.298 108V90.5455H623.98V98.1364H625.753L632.026 90.5455H635.48L628.435 98.9545L635.571 108H632.116L626.389 100.636H623.98V108H621.298ZM638.486 114.545V90.5455H641.077V93.3182H641.395C641.592 93.0152 641.865 92.6288 642.213 92.1591C642.569 91.6818 643.077 91.2576 643.736 90.8864C644.402 90.5076 645.304 90.3182 646.44 90.3182C647.91 90.3182 649.205 90.6856 650.327 91.4205C651.448 92.1553 652.323 93.197 652.952 94.5455C653.58 95.8939 653.895 97.4848 653.895 99.3182C653.895 101.167 653.58 102.769 652.952 104.125C652.323 105.473 651.452 106.519 650.338 107.261C649.224 107.996 647.94 108.364 646.486 108.364C645.365 108.364 644.467 108.178 643.793 107.807C643.118 107.428 642.599 107 642.236 106.523C641.872 106.038 641.592 105.636 641.395 105.318H641.168V114.545H638.486ZM641.122 99.2727C641.122 100.591 641.315 101.754 641.702 102.761C642.088 103.761 642.652 104.545 643.395 105.114C644.137 105.674 645.046 105.955 646.122 105.955C647.243 105.955 648.179 105.659 648.929 105.068C649.687 104.47 650.255 103.667 650.634 102.659C651.02 101.644 651.213 100.515 651.213 99.2727C651.213 98.0455 651.024 96.9394 650.645 95.9545C650.274 94.9621 649.709 94.178 648.952 93.6023C648.202 93.0189 647.259 92.7273 646.122 92.7273C645.031 92.7273 644.115 93.0038 643.372 93.5568C642.63 94.1023 642.069 94.8674 641.69 95.8523C641.312 96.8295 641.122 97.9697 641.122 99.2727ZM663.122 108.409C662.016 108.409 661.012 108.201 660.111 107.784C659.209 107.36 658.493 106.75 657.963 105.955C657.433 105.152 657.168 104.182 657.168 103.045C657.168 102.045 657.365 101.235 657.759 100.614C658.152 99.9848 658.679 99.4924 659.338 99.1364C659.997 98.7803 660.724 98.5152 661.52 98.3409C662.323 98.1591 663.13 98.0152 663.94 97.9091C665.001 97.7727 665.861 97.6705 666.52 97.6023C667.187 97.5265 667.671 97.4015 667.974 97.2273C668.285 97.053 668.44 96.75 668.44 96.3182V96.2273C668.44 95.1061 668.134 94.2348 667.52 93.6136C666.914 92.9924 665.993 92.6818 664.759 92.6818C663.478 92.6818 662.474 92.9621 661.747 93.5227C661.02 94.0833 660.509 94.6818 660.213 95.3182L657.668 94.4091C658.122 93.3485 658.728 92.5227 659.486 91.9318C660.251 91.3333 661.084 90.9167 661.986 90.6818C662.895 90.4394 663.789 90.3182 664.668 90.3182C665.228 90.3182 665.872 90.3864 666.599 90.5227C667.334 90.6515 668.043 90.9205 668.724 91.3295C669.414 91.7386 669.986 92.3561 670.44 93.1818C670.895 94.0076 671.122 95.1136 671.122 96.5V108H668.44V105.636H668.304C668.122 106.015 667.819 106.42 667.395 106.852C666.971 107.284 666.406 107.652 665.702 107.955C664.997 108.258 664.137 108.409 663.122 108.409ZM663.531 106C664.592 106 665.486 105.792 666.213 105.375C666.948 104.958 667.501 104.42 667.872 103.761C668.251 103.102 668.44 102.409 668.44 101.682V99.2273C668.327 99.3636 668.077 99.4886 667.69 99.6023C667.312 99.7083 666.872 99.803 666.372 99.8864C665.88 99.9621 665.399 100.03 664.929 100.091C664.467 100.144 664.092 100.189 663.804 100.227C663.107 100.318 662.455 100.466 661.849 100.67C661.251 100.867 660.766 101.167 660.395 101.568C660.031 101.962 659.849 102.5 659.849 103.182C659.849 104.114 660.194 104.818 660.884 105.295C661.58 105.765 662.463 106 663.531 106ZM684.381 98.1818V100.682H675.153V98.1818H684.381ZM677.426 90.5455V108H674.744V90.5455H677.426ZM689.744 108.364C688.169 108.364 686.786 107.989 685.597 107.239C684.415 106.489 683.491 105.439 682.824 104.091C682.165 102.742 681.835 101.167 681.835 99.3636C681.835 97.5455 682.165 95.9583 682.824 94.6023C683.491 93.2462 684.415 92.1932 685.597 91.4432C686.786 90.6932 688.169 90.3182 689.744 90.3182C691.32 90.3182 692.699 90.6932 693.881 91.4432C695.07 92.1932 695.994 93.2462 696.653 94.6023C697.32 95.9583 697.653 97.5455 697.653 99.3636C697.653 101.167 697.32 102.742 696.653 104.091C695.994 105.439 695.07 106.489 693.881 107.239C692.699 107.989 691.32 108.364 689.744 108.364ZM689.744 105.955C690.941 105.955 691.926 105.648 692.699 105.034C693.472 104.42 694.044 103.614 694.415 102.614C694.786 101.614 694.972 100.53 694.972 99.3636C694.972 98.197 694.786 97.1098 694.415 96.1023C694.044 95.0947 693.472 94.2803 692.699 93.6591C691.926 93.0379 690.941 92.7273 689.744 92.7273C688.547 92.7273 687.563 93.0379 686.79 93.6591C686.017 94.2803 685.445 95.0947 685.074 96.1023C684.703 97.1098 684.517 98.197 684.517 99.3636C684.517 100.53 684.703 101.614 685.074 102.614C685.445 103.614 686.017 104.42 686.79 105.034C687.563 105.648 688.547 105.955 689.744 105.955ZM718.108 108.364C716.532 108.364 715.15 107.989 713.96 107.239C712.778 106.489 711.854 105.439 711.188 104.091C710.528 102.742 710.199 101.167 710.199 99.3636C710.199 97.5455 710.528 95.9583 711.188 94.6023C711.854 93.2462 712.778 92.1932 713.96 91.4432C715.15 90.6932 716.532 90.3182 718.108 90.3182C719.684 90.3182 721.063 90.6932 722.244 91.4432C723.434 92.1932 724.358 93.2462 725.017 94.6023C725.684 95.9583 726.017 97.5455 726.017 99.3636C726.017 101.167 725.684 102.742 725.017 104.091C724.358 105.439 723.434 106.489 722.244 107.239C721.063 107.989 719.684 108.364 718.108 108.364ZM718.108 105.955C719.305 105.955 720.29 105.648 721.062 105.034C721.835 104.42 722.407 103.614 722.778 102.614C723.15 101.614 723.335 100.53 723.335 99.3636C723.335 98.197 723.15 97.1098 722.778 96.1023C722.407 95.0947 721.835 94.2803 721.062 93.6591C720.29 93.0379 719.305 92.7273 718.108 92.7273C716.911 92.7273 715.926 93.0379 715.153 93.6591C714.381 94.2803 713.809 95.0947 713.438 96.1023C713.066 97.1098 712.881 98.197 712.881 99.3636C712.881 100.53 713.066 101.614 713.438 102.614C713.809 103.614 714.381 104.42 715.153 105.034C715.926 105.648 716.911 105.955 718.108 105.955ZM743.065 84L744.429 85.6364C743.899 86.1515 743.285 86.5114 742.588 86.7159C741.891 86.9205 741.103 87.0455 740.224 87.0909C739.346 87.1364 738.368 87.1818 737.293 87.2273C736.08 87.2727 735.077 87.5682 734.281 88.1136C733.486 88.6591 732.872 89.447 732.44 90.4773C732.009 91.5076 731.732 92.7727 731.611 94.2727H731.838C732.429 93.1818 733.247 92.3788 734.293 91.8636C735.338 91.3485 736.459 91.0909 737.656 91.0909C739.02 91.0909 740.247 91.4091 741.338 92.0455C742.429 92.6818 743.293 93.625 743.929 94.875C744.565 96.125 744.884 97.6667 744.884 99.5C744.884 101.326 744.558 102.902 743.906 104.227C743.262 105.553 742.357 106.576 741.19 107.295C740.031 108.008 738.671 108.364 737.111 108.364C735.55 108.364 734.183 107.996 733.009 107.261C731.834 106.519 730.921 105.42 730.27 103.966C729.618 102.504 729.293 100.697 729.293 98.5455V96.6818C729.293 92.7955 729.952 89.8485 731.27 87.8409C732.596 85.8333 734.588 84.7955 737.247 84.7273C738.187 84.697 739.024 84.6894 739.759 84.7045C740.493 84.7197 741.134 84.6856 741.679 84.6023C742.224 84.5189 742.687 84.3182 743.065 84ZM737.111 105.955C738.164 105.955 739.069 105.689 739.827 105.159C740.592 104.629 741.179 103.883 741.588 102.92C741.997 101.951 742.202 100.811 742.202 99.5C742.202 98.2273 741.993 97.1439 741.577 96.25C741.168 95.3561 740.58 94.6742 739.815 94.2045C739.05 93.7348 738.134 93.5 737.065 93.5C736.285 93.5 735.584 93.6326 734.963 93.8977C734.342 94.1629 733.812 94.553 733.372 95.0682C732.933 95.5833 732.592 96.2121 732.349 96.9545C732.115 97.697 731.99 98.5455 731.974 99.5C731.974 101.455 732.433 103.019 733.349 104.193C734.266 105.367 735.52 105.955 737.111 105.955ZM756.304 108.364C754.622 108.364 753.171 107.992 751.952 107.25C750.74 106.5 749.804 105.455 749.145 104.114C748.493 102.765 748.168 101.197 748.168 99.4091C748.168 97.6212 748.493 96.0455 749.145 94.6818C749.804 93.3106 750.721 92.2424 751.895 91.4773C753.077 90.7045 754.455 90.3182 756.031 90.3182C756.94 90.3182 757.838 90.4697 758.724 90.7727C759.611 91.0758 760.418 91.5682 761.145 92.25C761.872 92.9242 762.452 93.8182 762.884 94.9318C763.315 96.0455 763.531 97.4167 763.531 99.0455V100.182H750.077V97.8636H760.804C760.804 96.8788 760.607 96 760.213 95.2273C759.827 94.4545 759.274 93.8447 758.554 93.3977C757.842 92.9508 757.001 92.7273 756.031 92.7273C754.963 92.7273 754.039 92.9924 753.259 93.5227C752.486 94.0455 751.891 94.7273 751.474 95.5682C751.058 96.4091 750.849 97.3106 750.849 98.2727V99.8182C750.849 101.136 751.077 102.254 751.531 103.17C751.993 104.08 752.634 104.773 753.452 105.25C754.27 105.72 755.221 105.955 756.304 105.955C757.009 105.955 757.645 105.856 758.213 105.659C758.789 105.455 759.285 105.152 759.702 104.75C760.118 104.341 760.44 103.833 760.668 103.227L763.259 103.955C762.986 104.833 762.527 105.606 761.884 106.273C761.24 106.932 760.444 107.447 759.497 107.818C758.55 108.182 757.486 108.364 756.304 108.364ZM774.702 108.364C773.065 108.364 771.656 107.977 770.474 107.205C769.293 106.432 768.384 105.367 767.747 104.011C767.111 102.655 766.793 101.106 766.793 99.3636C766.793 97.5909 767.118 96.0265 767.77 94.6705C768.429 93.3068 769.346 92.2424 770.52 91.4773C771.702 90.7045 773.08 90.3182 774.656 90.3182C775.884 90.3182 776.99 90.5455 777.974 91C778.959 91.4545 779.766 92.0909 780.395 92.9091C781.024 93.7273 781.414 94.6818 781.565 95.7727H778.884C778.679 94.9773 778.224 94.2727 777.52 93.6591C776.823 93.0379 775.884 92.7273 774.702 92.7273C773.656 92.7273 772.74 93 771.952 93.5455C771.171 94.0833 770.562 94.8447 770.122 95.8295C769.69 96.8068 769.474 97.9545 769.474 99.2727C769.474 100.621 769.687 101.795 770.111 102.795C770.543 103.795 771.149 104.572 771.929 105.125C772.717 105.678 773.641 105.955 774.702 105.955C775.399 105.955 776.031 105.833 776.599 105.591C777.168 105.348 777.649 105 778.043 104.545C778.437 104.091 778.717 103.545 778.884 102.909H781.565C781.414 103.939 781.039 104.867 780.44 105.693C779.849 106.511 779.065 107.163 778.088 107.648C777.118 108.125 775.99 108.364 774.702 108.364ZM785.486 108V90.5455H799.213V108H796.531V93.0455H788.168V108H785.486ZM811.429 108.364C809.747 108.364 808.296 107.992 807.077 107.25C805.865 106.5 804.929 105.455 804.27 104.114C803.618 102.765 803.293 101.197 803.293 99.4091C803.293 97.6212 803.618 96.0455 804.27 94.6818C804.929 93.3106 805.846 92.2424 807.02 91.4773C808.202 90.7045 809.58 90.3182 811.156 90.3182C812.065 90.3182 812.963 90.4697 813.849 90.7727C814.736 91.0758 815.543 91.5682 816.27 92.25C816.997 92.9242 817.577 93.8182 818.009 94.9318C818.44 96.0455 818.656 97.4167 818.656 99.0455V100.182H805.202V97.8636H815.929C815.929 96.8788 815.732 96 815.338 95.2273C814.952 94.4545 814.399 93.8447 813.679 93.3977C812.967 92.9508 812.126 92.7273 811.156 92.7273C810.088 92.7273 809.164 92.9924 808.384 93.5227C807.611 94.0455 807.016 94.7273 806.599 95.5682C806.183 96.4091 805.974 97.3106 805.974 98.2727V99.8182C805.974 101.136 806.202 102.254 806.656 103.17C807.118 104.08 807.759 104.773 808.577 105.25C809.395 105.72 810.346 105.955 811.429 105.955C812.134 105.955 812.77 105.856 813.338 105.659C813.914 105.455 814.41 105.152 814.827 104.75C815.243 104.341 815.565 103.833 815.793 103.227L818.384 103.955C818.111 104.833 817.652 105.606 817.009 106.273C816.365 106.932 815.569 107.447 814.622 107.818C813.675 108.182 812.611 108.364 811.429 108.364ZM836.19 90.5455V108H833.509V90.5455H836.19ZM835.145 98.8636V101.364C834.539 101.591 833.937 101.792 833.338 101.966C832.74 102.133 832.111 102.265 831.452 102.364C830.793 102.455 830.069 102.5 829.281 102.5C827.304 102.5 825.717 101.966 824.52 100.898C823.33 99.8295 822.736 98.2273 822.736 96.0909V90.5H825.418V96.0909C825.418 96.9848 825.588 97.7197 825.929 98.2955C826.27 98.8712 826.732 99.2992 827.315 99.5795C827.899 99.8598 828.554 100 829.281 100C830.418 100 831.444 99.8977 832.361 99.6932C833.285 99.4811 834.213 99.2045 835.145 98.8636ZM843.793 104.045L852.202 90.5455H855.293V108H852.611V94.5L844.247 108H841.111V90.5455H843.793V104.045ZM860.205 108V90.5455H867.341C869.22 90.5455 870.712 90.9697 871.818 91.8182C872.924 92.6667 873.477 93.7879 873.477 95.1818C873.477 96.2424 873.163 97.0644 872.534 97.6477C871.905 98.2235 871.098 98.6136 870.114 98.8182C870.758 98.9091 871.383 99.1364 871.989 99.5C872.602 99.8636 873.11 100.364 873.511 101C873.913 101.629 874.114 102.402 874.114 103.318C874.114 104.212 873.886 105.011 873.432 105.716C872.977 106.42 872.326 106.977 871.477 107.386C870.629 107.795 869.614 108 868.432 108H860.205ZM862.75 105.545H868.432C869.356 105.545 870.08 105.326 870.602 104.886C871.125 104.447 871.386 103.848 871.386 103.091C871.386 102.189 871.125 101.481 870.602 100.966C870.08 100.443 869.356 100.182 868.432 100.182H862.75V105.545ZM862.75 97.8636H867.341C868.061 97.8636 868.678 97.7652 869.193 97.5682C869.708 97.3636 870.102 97.0758 870.375 96.7045C870.655 96.3258 870.795 95.8788 870.795 95.3636C870.795 94.6288 870.489 94.053 869.875 93.6364C869.261 93.2121 868.417 93 867.341 93H862.75V97.8636ZM883.31 108.409C882.204 108.409 881.2 108.201 880.298 107.784C879.397 107.36 878.681 106.75 878.151 105.955C877.62 105.152 877.355 104.182 877.355 103.045C877.355 102.045 877.552 101.235 877.946 100.614C878.34 99.9848 878.866 99.4924 879.526 99.1364C880.185 98.7803 880.912 98.5152 881.707 98.3409C882.51 98.1591 883.317 98.0152 884.128 97.9091C885.188 97.7727 886.048 97.6705 886.707 97.6023C887.374 97.5265 887.859 97.4015 888.162 97.2273C888.473 97.053 888.628 96.75 888.628 96.3182V96.2273C888.628 95.1061 888.321 94.2348 887.707 93.6136C887.101 92.9924 886.181 92.6818 884.946 92.6818C883.666 92.6818 882.662 92.9621 881.935 93.5227C881.207 94.0833 880.696 94.6818 880.401 95.3182L877.855 94.4091C878.31 93.3485 878.916 92.5227 879.673 91.9318C880.438 91.3333 881.272 90.9167 882.173 90.6818C883.082 90.4394 883.976 90.3182 884.855 90.3182C885.416 90.3182 886.06 90.3864 886.787 90.5227C887.522 90.6515 888.23 90.9205 888.912 91.3295C889.601 91.7386 890.173 92.3561 890.628 93.1818C891.082 94.0076 891.31 95.1136 891.31 96.5V108H888.628V105.636H888.491C888.31 106.015 888.007 106.42 887.582 106.852C887.158 107.284 886.594 107.652 885.889 107.955C885.185 108.258 884.325 108.409 883.31 108.409ZM883.719 106C884.779 106 885.673 105.792 886.401 105.375C887.135 104.958 887.688 104.42 888.06 103.761C888.438 103.102 888.628 102.409 888.628 101.682V99.2273C888.514 99.3636 888.264 99.4886 887.878 99.6023C887.499 99.7083 887.06 99.803 886.56 99.8864C886.067 99.9621 885.586 100.03 885.116 100.091C884.654 100.144 884.279 100.189 883.991 100.227C883.295 100.318 882.643 100.466 882.037 100.67C881.438 100.867 880.954 101.167 880.582 101.568C880.219 101.962 880.037 102.5 880.037 103.182C880.037 104.114 880.382 104.818 881.071 105.295C881.768 105.765 882.651 106 883.719 106ZM903.523 108.364C901.841 108.364 900.39 107.992 899.17 107.25C897.958 106.5 897.023 105.455 896.364 104.114C895.712 102.765 895.386 101.197 895.386 99.4091C895.386 97.6212 895.712 96.0455 896.364 94.6818C897.023 93.3106 897.939 92.2424 899.114 91.4773C900.295 90.7045 901.674 90.3182 903.25 90.3182C904.159 90.3182 905.057 90.4697 905.943 90.7727C906.83 91.0758 907.636 91.5682 908.364 92.25C909.091 92.9242 909.67 93.8182 910.102 94.9318C910.534 96.0455 910.75 97.4167 910.75 99.0455V100.182H897.295V97.8636H908.023C908.023 96.8788 907.826 96 907.432 95.2273C907.045 94.4545 906.492 93.8447 905.773 93.3977C905.061 92.9508 904.22 92.7273 903.25 92.7273C902.182 92.7273 901.258 92.9924 900.477 93.5227C899.705 94.0455 899.11 94.7273 898.693 95.5682C898.277 96.4091 898.068 97.3106 898.068 98.2727V99.8182C898.068 101.136 898.295 102.254 898.75 103.17C899.212 104.08 899.852 104.773 900.67 105.25C901.489 105.72 902.439 105.955 903.523 105.955C904.227 105.955 904.864 105.856 905.432 105.659C906.008 105.455 906.504 105.152 906.92 104.75C907.337 104.341 907.659 103.833 907.886 103.227L910.477 103.955C910.205 104.833 909.746 105.606 909.102 106.273C908.458 106.932 907.663 107.447 906.716 107.818C905.769 108.182 904.705 108.364 903.523 108.364ZM913.205 93.0455V90.5455H927.386V93.0455H921.659V108H918.977V93.0455H913.205ZM105.545 150.364C103.97 150.364 102.587 149.989 101.398 149.239C100.216 148.489 99.2917 147.439 98.625 146.091C97.9659 144.742 97.6364 143.167 97.6364 141.364C97.6364 139.545 97.9659 137.958 98.625 136.602C99.2917 135.246 100.216 134.193 101.398 133.443C102.587 132.693 103.97 132.318 105.545 132.318C107.121 132.318 108.5 132.693 109.682 133.443C110.871 134.193 111.795 135.246 112.455 136.602C113.121 137.958 113.455 139.545 113.455 141.364C113.455 143.167 113.121 144.742 112.455 146.091C111.795 147.439 110.871 148.489 109.682 149.239C108.5 149.989 107.121 150.364 105.545 150.364ZM105.545 147.955C106.742 147.955 107.727 147.648 108.5 147.034C109.273 146.42 109.845 145.614 110.216 144.614C110.587 143.614 110.773 142.53 110.773 141.364C110.773 140.197 110.587 139.11 110.216 138.102C109.845 137.095 109.273 136.28 108.5 135.659C107.727 135.038 106.742 134.727 105.545 134.727C104.348 134.727 103.364 135.038 102.591 135.659C101.818 136.28 101.246 137.095 100.875 138.102C100.504 139.11 100.318 140.197 100.318 141.364C100.318 142.53 100.504 143.614 100.875 144.614C101.246 145.614 101.818 146.42 102.591 147.034C103.364 147.648 104.348 147.955 105.545 147.955ZM117.548 150V132.545H131.276V150H128.594V135.045H120.23V150H117.548ZM133.798 135.045V132.545H147.98V135.045H142.253V150H139.571V135.045H133.798ZM154.574 146.045L162.983 132.545H166.074V150H163.392V136.5L155.028 150H151.892V132.545H154.574V146.045ZM180.531 146.364L186.622 132.545H189.168L181.622 150H179.44L172.031 132.545H174.531L180.531 146.364ZM173.668 132.545V150H170.986V132.545H173.668ZM187.395 150V132.545H190.077V150H187.395ZM200.122 150.409C199.016 150.409 198.012 150.201 197.111 149.784C196.209 149.36 195.493 148.75 194.963 147.955C194.433 147.152 194.168 146.182 194.168 145.045C194.168 144.045 194.365 143.235 194.759 142.614C195.152 141.985 195.679 141.492 196.338 141.136C196.997 140.78 197.724 140.515 198.52 140.341C199.323 140.159 200.13 140.015 200.94 139.909C202.001 139.773 202.861 139.67 203.52 139.602C204.187 139.527 204.671 139.402 204.974 139.227C205.285 139.053 205.44 138.75 205.44 138.318V138.227C205.44 137.106 205.134 136.235 204.52 135.614C203.914 134.992 202.993 134.682 201.759 134.682C200.478 134.682 199.474 134.962 198.747 135.523C198.02 136.083 197.509 136.682 197.213 137.318L194.668 136.409C195.122 135.348 195.728 134.523 196.486 133.932C197.251 133.333 198.084 132.917 198.986 132.682C199.895 132.439 200.789 132.318 201.668 132.318C202.228 132.318 202.872 132.386 203.599 132.523C204.334 132.652 205.043 132.92 205.724 133.33C206.414 133.739 206.986 134.356 207.44 135.182C207.895 136.008 208.122 137.114 208.122 138.5V150H205.44V147.636H205.304C205.122 148.015 204.819 148.42 204.395 148.852C203.971 149.284 203.406 149.652 202.702 149.955C201.997 150.258 201.137 150.409 200.122 150.409ZM200.531 148C201.592 148 202.486 147.792 203.213 147.375C203.948 146.958 204.501 146.42 204.872 145.761C205.251 145.102 205.44 144.409 205.44 143.682V141.227C205.327 141.364 205.077 141.489 204.69 141.602C204.312 141.708 203.872 141.803 203.372 141.886C202.88 141.962 202.399 142.03 201.929 142.091C201.467 142.144 201.092 142.189 200.804 142.227C200.107 142.318 199.455 142.466 198.849 142.67C198.251 142.867 197.766 143.167 197.395 143.568C197.031 143.962 196.849 144.5 196.849 145.182C196.849 146.114 197.194 146.818 197.884 147.295C198.58 147.765 199.463 148 200.531 148ZM211.472 150V147.5H212.108C212.631 147.5 213.066 147.398 213.415 147.193C213.763 146.981 214.044 146.614 214.256 146.091C214.475 145.561 214.642 144.826 214.756 143.886C214.877 142.939 214.964 141.735 215.017 140.273L215.335 132.545H226.972V150H224.29V135.045H217.881L217.608 141.273C217.547 142.705 217.419 143.966 217.222 145.057C217.032 146.14 216.741 147.049 216.347 147.784C215.96 148.519 215.445 149.072 214.801 149.443C214.157 149.814 213.35 150 212.381 150H211.472ZM234.21 138.864H239.21C241.256 138.864 242.82 139.383 243.903 140.42C244.987 141.458 245.528 142.773 245.528 144.364C245.528 145.409 245.286 146.36 244.801 147.216C244.316 148.064 243.604 148.742 242.665 149.25C241.725 149.75 240.574 150 239.21 150H231.892V132.545H234.574V147.5H239.21C240.271 147.5 241.142 147.22 241.824 146.659C242.506 146.098 242.847 145.379 242.847 144.5C242.847 143.576 242.506 142.822 241.824 142.239C241.142 141.655 240.271 141.364 239.21 141.364H234.21V138.864ZM261.293 140.045V142.545H251.656V140.045H261.293ZM252.293 132.545V150H249.611V132.545H252.293ZM263.338 132.545V150H260.656V132.545H263.338ZM269.338 156.545C268.884 156.545 268.478 156.508 268.122 156.432C267.766 156.364 267.52 156.295 267.384 156.227L268.065 153.864C268.717 154.03 269.293 154.091 269.793 154.045C270.293 154 270.736 153.777 271.122 153.375C271.516 152.981 271.876 152.341 272.202 151.455L272.702 150.091L266.247 132.545H269.156L273.974 146.455H274.156L278.974 132.545H281.884L274.474 152.545C274.141 153.447 273.728 154.193 273.236 154.784C272.743 155.383 272.171 155.826 271.52 156.114C270.876 156.402 270.149 156.545 269.338 156.545ZM293.787 140.182V142.682H284.56V140.182H293.787ZM286.832 132.545V150H284.151V132.545H286.832ZM299.151 150.364C297.575 150.364 296.192 149.989 295.003 149.239C293.821 148.489 292.897 147.439 292.23 146.091C291.571 144.742 291.241 143.167 291.241 141.364C291.241 139.545 291.571 137.958 292.23 136.602C292.897 135.246 293.821 134.193 295.003 133.443C296.192 132.693 297.575 132.318 299.151 132.318C300.726 132.318 302.105 132.693 303.287 133.443C304.476 134.193 305.401 135.246 306.06 136.602C306.726 137.958 307.06 139.545 307.06 141.364C307.06 143.167 306.726 144.742 306.06 146.091C305.401 147.439 304.476 148.489 303.287 149.239C302.105 149.989 300.726 150.364 299.151 150.364ZM299.151 147.955C300.348 147.955 301.332 147.648 302.105 147.034C302.878 146.42 303.45 145.614 303.821 144.614C304.192 143.614 304.378 142.53 304.378 141.364C304.378 140.197 304.192 139.11 303.821 138.102C303.45 137.095 302.878 136.28 302.105 135.659C301.332 135.038 300.348 134.727 299.151 134.727C297.954 134.727 296.969 135.038 296.196 135.659C295.423 136.28 294.851 137.095 294.48 138.102C294.109 139.11 293.923 140.197 293.923 141.364C293.923 142.53 294.109 143.614 294.48 144.614C294.851 145.614 295.423 146.42 296.196 147.034C296.969 147.648 297.954 147.955 299.151 147.955ZM333.878 132.545V150H331.196V132.545H333.878ZM332.832 140.864V143.364C332.226 143.591 331.624 143.792 331.026 143.966C330.427 144.133 329.798 144.265 329.139 144.364C328.48 144.455 327.757 144.5 326.969 144.5C324.991 144.5 323.404 143.966 322.207 142.898C321.018 141.83 320.423 140.227 320.423 138.091V132.5H323.105V138.091C323.105 138.985 323.276 139.72 323.616 140.295C323.957 140.871 324.42 141.299 325.003 141.58C325.586 141.86 326.241 142 326.969 142C328.105 142 329.132 141.898 330.048 141.693C330.973 141.481 331.901 141.205 332.832 140.864ZM341.48 146.045L349.889 132.545H352.98V150H350.298V136.5L341.935 150H338.798V132.545H341.48V146.045ZM355.517 135.045V132.545H369.699V135.045H363.972V150H361.29V135.045H355.517ZM377.841 150.409C376.735 150.409 375.731 150.201 374.83 149.784C373.928 149.36 373.212 148.75 372.682 147.955C372.152 147.152 371.886 146.182 371.886 145.045C371.886 144.045 372.083 143.235 372.477 142.614C372.871 141.985 373.398 141.492 374.057 141.136C374.716 140.78 375.443 140.515 376.239 140.341C377.042 140.159 377.848 140.015 378.659 139.909C379.72 139.773 380.58 139.67 381.239 139.602C381.905 139.527 382.39 139.402 382.693 139.227C383.004 139.053 383.159 138.75 383.159 138.318V138.227C383.159 137.106 382.852 136.235 382.239 135.614C381.633 134.992 380.712 134.682 379.477 134.682C378.197 134.682 377.193 134.962 376.466 135.523C375.739 136.083 375.227 136.682 374.932 137.318L372.386 136.409C372.841 135.348 373.447 134.523 374.205 133.932C374.97 133.333 375.803 132.917 376.705 132.682C377.614 132.439 378.508 132.318 379.386 132.318C379.947 132.318 380.591 132.386 381.318 132.523C382.053 132.652 382.761 132.92 383.443 133.33C384.133 133.739 384.705 134.356 385.159 135.182C385.614 136.008 385.841 137.114 385.841 138.5V150H383.159V147.636H383.023C382.841 148.015 382.538 148.42 382.114 148.852C381.689 149.284 381.125 149.652 380.42 149.955C379.716 150.258 378.856 150.409 377.841 150.409ZM378.25 148C379.311 148 380.205 147.792 380.932 147.375C381.667 146.958 382.22 146.42 382.591 145.761C382.97 145.102 383.159 144.409 383.159 143.682V141.227C383.045 141.364 382.795 141.489 382.409 141.602C382.03 141.708 381.591 141.803 381.091 141.886C380.598 141.962 380.117 142.03 379.648 142.091C379.186 142.144 378.811 142.189 378.523 142.227C377.826 142.318 377.174 142.466 376.568 142.67C375.97 142.867 375.485 143.167 375.114 143.568C374.75 143.962 374.568 144.5 374.568 145.182C374.568 146.114 374.913 146.818 375.602 147.295C376.299 147.765 377.182 148 378.25 148ZM403.69 126L405.054 127.636C404.524 128.152 403.91 128.511 403.213 128.716C402.516 128.92 401.728 129.045 400.849 129.091C399.971 129.136 398.993 129.182 397.918 129.227C396.705 129.273 395.702 129.568 394.906 130.114C394.111 130.659 393.497 131.447 393.065 132.477C392.634 133.508 392.357 134.773 392.236 136.273H392.463C393.054 135.182 393.872 134.379 394.918 133.864C395.963 133.348 397.084 133.091 398.281 133.091C399.645 133.091 400.872 133.409 401.963 134.045C403.054 134.682 403.918 135.625 404.554 136.875C405.19 138.125 405.509 139.667 405.509 141.5C405.509 143.326 405.183 144.902 404.531 146.227C403.887 147.553 402.982 148.576 401.815 149.295C400.656 150.008 399.296 150.364 397.736 150.364C396.175 150.364 394.808 149.996 393.634 149.261C392.459 148.519 391.546 147.42 390.895 145.966C390.243 144.504 389.918 142.697 389.918 140.545V138.682C389.918 134.795 390.577 131.848 391.895 129.841C393.221 127.833 395.213 126.795 397.872 126.727C398.812 126.697 399.649 126.689 400.384 126.705C401.118 126.72 401.759 126.686 402.304 126.602C402.849 126.519 403.312 126.318 403.69 126ZM397.736 147.955C398.789 147.955 399.694 147.689 400.452 147.159C401.217 146.629 401.804 145.883 402.213 144.92C402.622 143.951 402.827 142.811 402.827 141.5C402.827 140.227 402.618 139.144 402.202 138.25C401.793 137.356 401.205 136.674 400.44 136.205C399.675 135.735 398.759 135.5 397.69 135.5C396.91 135.5 396.209 135.633 395.588 135.898C394.967 136.163 394.437 136.553 393.997 137.068C393.558 137.583 393.217 138.212 392.974 138.955C392.74 139.697 392.615 140.545 392.599 141.5C392.599 143.455 393.058 145.019 393.974 146.193C394.891 147.367 396.145 147.955 397.736 147.955ZM416.929 150.364C415.247 150.364 413.796 149.992 412.577 149.25C411.365 148.5 410.429 147.455 409.77 146.114C409.118 144.765 408.793 143.197 408.793 141.409C408.793 139.621 409.118 138.045 409.77 136.682C410.429 135.311 411.346 134.242 412.52 133.477C413.702 132.705 415.08 132.318 416.656 132.318C417.565 132.318 418.463 132.47 419.349 132.773C420.236 133.076 421.043 133.568 421.77 134.25C422.497 134.924 423.077 135.818 423.509 136.932C423.94 138.045 424.156 139.417 424.156 141.045V142.182H410.702V139.864H421.429C421.429 138.879 421.232 138 420.838 137.227C420.452 136.455 419.899 135.845 419.179 135.398C418.467 134.951 417.626 134.727 416.656 134.727C415.588 134.727 414.664 134.992 413.884 135.523C413.111 136.045 412.516 136.727 412.099 137.568C411.683 138.409 411.474 139.311 411.474 140.273V141.818C411.474 143.136 411.702 144.254 412.156 145.17C412.618 146.08 413.259 146.773 414.077 147.25C414.895 147.72 415.846 147.955 416.929 147.955C417.634 147.955 418.27 147.856 418.838 147.659C419.414 147.455 419.91 147.152 420.327 146.75C420.743 146.341 421.065 145.833 421.293 145.227L423.884 145.955C423.611 146.833 423.152 147.606 422.509 148.273C421.865 148.932 421.069 149.447 420.122 149.818C419.175 150.182 418.111 150.364 416.929 150.364ZM426.69 150V147.5H427.327C427.849 147.5 428.285 147.398 428.634 147.193C428.982 146.981 429.262 146.614 429.474 146.091C429.694 145.561 429.861 144.826 429.974 143.886C430.096 142.939 430.183 141.735 430.236 140.273L430.554 132.545H442.19V150H439.509V135.045H433.099L432.827 141.273C432.766 142.705 432.637 143.966 432.44 145.057C432.251 146.14 431.959 147.049 431.565 147.784C431.179 148.519 430.664 149.072 430.02 149.443C429.376 149.814 428.569 150 427.599 150H426.69ZM449.429 138.864H454.429C456.474 138.864 458.039 139.383 459.122 140.42C460.205 141.458 460.747 142.773 460.747 144.364C460.747 145.409 460.505 146.36 460.02 147.216C459.535 148.064 458.823 148.742 457.884 149.25C456.944 149.75 455.793 150 454.429 150H447.111V132.545H449.793V147.5H454.429C455.49 147.5 456.361 147.22 457.043 146.659C457.724 146.098 458.065 145.379 458.065 144.5C458.065 143.576 457.724 142.822 457.043 142.239C456.361 141.655 455.49 141.364 454.429 141.364H449.429V138.864ZM476.511 140.045V142.545H466.875V140.045H476.511ZM467.511 132.545V150H464.83V132.545H467.511ZM478.557 132.545V150H475.875V132.545H478.557ZM490.545 150.364C488.97 150.364 487.587 149.989 486.398 149.239C485.216 148.489 484.292 147.439 483.625 146.091C482.966 144.742 482.636 143.167 482.636 141.364C482.636 139.545 482.966 137.958 483.625 136.602C484.292 135.246 485.216 134.193 486.398 133.443C487.587 132.693 488.97 132.318 490.545 132.318C492.121 132.318 493.5 132.693 494.682 133.443C495.871 134.193 496.795 135.246 497.455 136.602C498.121 137.958 498.455 139.545 498.455 141.364C498.455 143.167 498.121 144.742 497.455 146.091C496.795 147.439 495.871 148.489 494.682 149.239C493.5 149.989 492.121 150.364 490.545 150.364ZM490.545 147.955C491.742 147.955 492.727 147.648 493.5 147.034C494.273 146.42 494.845 145.614 495.216 144.614C495.587 143.614 495.773 142.53 495.773 141.364C495.773 140.197 495.587 139.11 495.216 138.102C494.845 137.095 494.273 136.28 493.5 135.659C492.727 135.038 491.742 134.727 490.545 134.727C489.348 134.727 488.364 135.038 487.591 135.659C486.818 136.28 486.246 137.095 485.875 138.102C485.504 139.11 485.318 140.197 485.318 141.364C485.318 142.53 485.504 143.614 485.875 144.614C486.246 145.614 486.818 146.42 487.591 147.034C488.364 147.648 489.348 147.955 490.545 147.955ZM509.639 150.364C508.003 150.364 506.594 149.977 505.412 149.205C504.23 148.432 503.321 147.367 502.685 146.011C502.048 144.655 501.73 143.106 501.73 141.364C501.73 139.591 502.056 138.027 502.707 136.67C503.366 135.307 504.283 134.242 505.457 133.477C506.639 132.705 508.018 132.318 509.594 132.318C510.821 132.318 511.927 132.545 512.912 133C513.897 133.455 514.704 134.091 515.332 134.909C515.961 135.727 516.351 136.682 516.503 137.773H513.821C513.616 136.977 513.162 136.273 512.457 135.659C511.76 135.038 510.821 134.727 509.639 134.727C508.594 134.727 507.677 135 506.889 135.545C506.109 136.083 505.499 136.845 505.06 137.83C504.628 138.807 504.412 139.955 504.412 141.273C504.412 142.621 504.624 143.795 505.048 144.795C505.48 145.795 506.086 146.572 506.866 147.125C507.654 147.678 508.579 147.955 509.639 147.955C510.336 147.955 510.969 147.833 511.537 147.591C512.105 147.348 512.586 147 512.98 146.545C513.374 146.091 513.654 145.545 513.821 144.909H516.503C516.351 145.939 515.976 146.867 515.378 147.693C514.787 148.511 514.003 149.163 513.026 149.648C512.056 150.125 510.927 150.364 509.639 150.364ZM519.048 135.045V132.545H533.23V135.045H527.503V150H524.821V135.045H519.048ZM539.46 138.864H544.46C546.506 138.864 548.07 139.383 549.153 140.42C550.237 141.458 550.778 142.773 550.778 144.364C550.778 145.409 550.536 146.36 550.051 147.216C549.566 148.064 548.854 148.742 547.915 149.25C546.975 149.75 545.824 150 544.46 150H537.142V132.545H539.824V147.5H544.46C545.521 147.5 546.392 147.22 547.074 146.659C547.756 146.098 548.097 145.379 548.097 144.5C548.097 143.576 547.756 142.822 547.074 142.239C546.392 141.655 545.521 141.364 544.46 141.364H539.46V138.864ZM566.543 146.045L574.952 132.545H578.043V150H575.361V136.5L566.997 150H563.861V132.545H566.543V146.045ZM591.955 150V132.545H599.091C600.97 132.545 602.462 132.97 603.568 133.818C604.674 134.667 605.227 135.788 605.227 137.182C605.227 138.242 604.913 139.064 604.284 139.648C603.655 140.223 602.848 140.614 601.864 140.818C602.508 140.909 603.133 141.136 603.739 141.5C604.352 141.864 604.86 142.364 605.261 143C605.663 143.629 605.864 144.402 605.864 145.318C605.864 146.212 605.636 147.011 605.182 147.716C604.727 148.42 604.076 148.977 603.227 149.386C602.379 149.795 601.364 150 600.182 150H591.955ZM594.5 147.545H600.182C601.106 147.545 601.83 147.326 602.352 146.886C602.875 146.447 603.136 145.848 603.136 145.091C603.136 144.189 602.875 143.481 602.352 142.966C601.83 142.443 601.106 142.182 600.182 142.182H594.5V147.545ZM594.5 139.864H599.091C599.811 139.864 600.428 139.765 600.943 139.568C601.458 139.364 601.852 139.076 602.125 138.705C602.405 138.326 602.545 137.879 602.545 137.364C602.545 136.629 602.239 136.053 601.625 135.636C601.011 135.212 600.167 135 599.091 135H594.5V139.864ZM617.014 150.364C615.438 150.364 614.056 149.989 612.866 149.239C611.685 148.489 610.76 147.439 610.094 146.091C609.435 144.742 609.105 143.167 609.105 141.364C609.105 139.545 609.435 137.958 610.094 136.602C610.76 135.246 611.685 134.193 612.866 133.443C614.056 132.693 615.438 132.318 617.014 132.318C618.59 132.318 619.969 132.693 621.151 133.443C622.34 134.193 623.264 135.246 623.923 136.602C624.59 137.958 624.923 139.545 624.923 141.364C624.923 143.167 624.59 144.742 623.923 146.091C623.264 147.439 622.34 148.489 621.151 149.239C619.969 149.989 618.59 150.364 617.014 150.364ZM617.014 147.955C618.211 147.955 619.196 147.648 619.969 147.034C620.741 146.42 621.313 145.614 621.685 144.614C622.056 143.614 622.241 142.53 622.241 141.364C622.241 140.197 622.056 139.11 621.685 138.102C621.313 137.095 620.741 136.28 619.969 135.659C619.196 135.038 618.211 134.727 617.014 134.727C615.817 134.727 614.832 135.038 614.06 135.659C613.287 136.28 612.715 137.095 612.344 138.102C611.973 139.11 611.787 140.197 611.787 141.364C611.787 142.53 611.973 143.614 612.344 144.614C612.715 145.614 613.287 146.42 614.06 147.034C614.832 147.648 615.817 147.955 617.014 147.955ZM636.108 150.364C634.472 150.364 633.063 149.977 631.881 149.205C630.699 148.432 629.79 147.367 629.153 146.011C628.517 144.655 628.199 143.106 628.199 141.364C628.199 139.591 628.525 138.027 629.176 136.67C629.835 135.307 630.752 134.242 631.926 133.477C633.108 132.705 634.487 132.318 636.062 132.318C637.29 132.318 638.396 132.545 639.381 133C640.366 133.455 641.172 134.091 641.801 134.909C642.43 135.727 642.82 136.682 642.972 137.773H640.29C640.085 136.977 639.631 136.273 638.926 135.659C638.229 135.038 637.29 134.727 636.108 134.727C635.063 134.727 634.146 135 633.358 135.545C632.578 136.083 631.968 136.845 631.528 137.83C631.097 138.807 630.881 139.955 630.881 141.273C630.881 142.621 631.093 143.795 631.517 144.795C631.949 145.795 632.555 146.572 633.335 147.125C634.123 147.678 635.047 147.955 636.108 147.955C636.805 147.955 637.438 147.833 638.006 147.591C638.574 147.348 639.055 147 639.449 146.545C639.843 146.091 640.123 145.545 640.29 144.909H642.972C642.82 145.939 642.445 146.867 641.847 147.693C641.256 148.511 640.472 149.163 639.494 149.648C638.525 150.125 637.396 150.364 636.108 150.364ZM646.892 150V132.545H660.619V150H657.938V135.045H649.574V150H646.892ZM665.517 156.545V132.545H668.108V135.318H668.426C668.623 135.015 668.896 134.629 669.244 134.159C669.6 133.682 670.108 133.258 670.767 132.886C671.434 132.508 672.335 132.318 673.472 132.318C674.941 132.318 676.237 132.686 677.358 133.42C678.479 134.155 679.354 135.197 679.983 136.545C680.612 137.894 680.926 139.485 680.926 141.318C680.926 143.167 680.612 144.769 679.983 146.125C679.354 147.473 678.483 148.519 677.369 149.261C676.256 149.996 674.972 150.364 673.517 150.364C672.396 150.364 671.498 150.178 670.824 149.807C670.15 149.428 669.631 149 669.267 148.523C668.903 148.038 668.623 147.636 668.426 147.318H668.199V156.545H665.517ZM668.153 141.273C668.153 142.591 668.347 143.754 668.733 144.761C669.119 145.761 669.684 146.545 670.426 147.114C671.169 147.674 672.078 147.955 673.153 147.955C674.275 147.955 675.21 147.659 675.96 147.068C676.718 146.47 677.286 145.667 677.665 144.659C678.051 143.644 678.244 142.515 678.244 141.273C678.244 140.045 678.055 138.939 677.676 137.955C677.305 136.962 676.741 136.178 675.983 135.602C675.233 135.019 674.29 134.727 673.153 134.727C672.063 134.727 671.146 135.004 670.403 135.557C669.661 136.102 669.1 136.867 668.722 137.852C668.343 138.83 668.153 139.97 668.153 141.273ZM687.699 146.045L696.108 132.545H699.199V150H696.517V136.5L688.153 150H685.017V132.545H687.699V146.045ZM714.611 150V135H709.974C708.929 135 708.107 135.242 707.509 135.727C706.91 136.212 706.611 136.879 706.611 137.727C706.611 138.561 706.88 139.216 707.418 139.693C707.963 140.17 708.709 140.409 709.656 140.409H715.293V142.909H709.656C708.474 142.909 707.455 142.701 706.599 142.284C705.743 141.867 705.084 141.273 704.622 140.5C704.16 139.72 703.929 138.795 703.929 137.727C703.929 136.652 704.171 135.727 704.656 134.955C705.141 134.182 705.834 133.587 706.736 133.17C707.645 132.754 708.724 132.545 709.974 132.545H717.156V150H714.611ZM702.974 150L707.929 141.318H710.838L705.884 150H702.974ZM719.705 135.045V132.545H733.886V135.045H728.159V150H725.477V135.045H719.705ZM740.48 146.045L748.889 132.545H751.98V150H749.298V136.5L740.935 150H737.798V132.545H740.48V146.045ZM764.21 150.364C762.528 150.364 761.078 149.992 759.858 149.25C758.646 148.5 757.71 147.455 757.051 146.114C756.4 144.765 756.074 143.197 756.074 141.409C756.074 139.621 756.4 138.045 757.051 136.682C757.71 135.311 758.627 134.242 759.801 133.477C760.983 132.705 762.362 132.318 763.938 132.318C764.847 132.318 765.744 132.47 766.631 132.773C767.517 133.076 768.324 133.568 769.051 134.25C769.778 134.924 770.358 135.818 770.79 136.932C771.222 138.045 771.438 139.417 771.438 141.045V142.182H757.983V139.864H768.71C768.71 138.879 768.513 138 768.119 137.227C767.733 136.455 767.18 135.845 766.46 135.398C765.748 134.951 764.907 134.727 763.938 134.727C762.869 134.727 761.945 134.992 761.165 135.523C760.392 136.045 759.797 136.727 759.381 137.568C758.964 138.409 758.756 139.311 758.756 140.273V141.818C758.756 143.136 758.983 144.254 759.438 145.17C759.9 146.08 760.54 146.773 761.358 147.25C762.176 147.72 763.127 147.955 764.21 147.955C764.915 147.955 765.551 147.856 766.119 147.659C766.695 147.455 767.191 147.152 767.608 146.75C768.025 146.341 768.347 145.833 768.574 145.227L771.165 145.955C770.892 146.833 770.434 147.606 769.79 148.273C769.146 148.932 768.35 149.447 767.403 149.818C766.456 150.182 765.392 150.364 764.21 150.364ZM784.517 150V132.545H798.244V150H795.562V135.045H787.199V150H784.517ZM803.142 156.545V132.545H805.733V135.318H806.051C806.248 135.015 806.521 134.629 806.869 134.159C807.225 133.682 807.733 133.258 808.392 132.886C809.059 132.508 809.96 132.318 811.097 132.318C812.566 132.318 813.862 132.686 814.983 133.42C816.104 134.155 816.979 135.197 817.608 136.545C818.237 137.894 818.551 139.485 818.551 141.318C818.551 143.167 818.237 144.769 817.608 146.125C816.979 147.473 816.108 148.519 814.994 149.261C813.881 149.996 812.597 150.364 811.142 150.364C810.021 150.364 809.123 150.178 808.449 149.807C807.775 149.428 807.256 149 806.892 148.523C806.528 148.038 806.248 147.636 806.051 147.318H805.824V156.545H803.142ZM805.778 141.273C805.778 142.591 805.972 143.754 806.358 144.761C806.744 145.761 807.309 146.545 808.051 147.114C808.794 147.674 809.703 147.955 810.778 147.955C811.9 147.955 812.835 147.659 813.585 147.068C814.343 146.47 814.911 145.667 815.29 144.659C815.676 143.644 815.869 142.515 815.869 141.273C815.869 140.045 815.68 138.939 815.301 137.955C814.93 136.962 814.366 136.178 813.608 135.602C812.858 135.019 811.915 134.727 810.778 134.727C809.688 134.727 808.771 135.004 808.028 135.557C807.286 136.102 806.725 136.867 806.347 137.852C805.968 138.83 805.778 139.97 805.778 141.273ZM825.324 146.045L833.733 132.545H836.824V150H834.142V136.5L825.778 150H822.642V132.545H825.324V146.045ZM850.736 156.545V132.545H853.327V135.318H853.645C853.842 135.015 854.115 134.629 854.463 134.159C854.819 133.682 855.327 133.258 855.986 132.886C856.652 132.508 857.554 132.318 858.69 132.318C860.16 132.318 861.455 132.686 862.577 133.42C863.698 134.155 864.573 135.197 865.202 136.545C865.83 137.894 866.145 139.485 866.145 141.318C866.145 143.167 865.83 144.769 865.202 146.125C864.573 147.473 863.702 148.519 862.588 149.261C861.474 149.996 860.19 150.364 858.736 150.364C857.615 150.364 856.717 150.178 856.043 149.807C855.368 149.428 854.849 149 854.486 148.523C854.122 148.038 853.842 147.636 853.645 147.318H853.418V156.545H850.736ZM853.372 141.273C853.372 142.591 853.565 143.754 853.952 144.761C854.338 145.761 854.902 146.545 855.645 147.114C856.387 147.674 857.296 147.955 858.372 147.955C859.493 147.955 860.429 147.659 861.179 147.068C861.937 146.47 862.505 145.667 862.884 144.659C863.27 143.644 863.463 142.515 863.463 141.273C863.463 140.045 863.274 138.939 862.895 137.955C862.524 136.962 861.959 136.178 861.202 135.602C860.452 135.019 859.509 134.727 858.372 134.727C857.281 134.727 856.365 135.004 855.622 135.557C854.88 136.102 854.319 136.867 853.94 137.852C853.562 138.83 853.372 139.97 853.372 141.273ZM875.372 150.409C874.266 150.409 873.262 150.201 872.361 149.784C871.459 149.36 870.743 148.75 870.213 147.955C869.683 147.152 869.418 146.182 869.418 145.045C869.418 144.045 869.615 143.235 870.009 142.614C870.402 141.985 870.929 141.492 871.588 141.136C872.247 140.78 872.974 140.515 873.77 140.341C874.573 140.159 875.38 140.015 876.19 139.909C877.251 139.773 878.111 139.67 878.77 139.602C879.437 139.527 879.921 139.402 880.224 139.227C880.535 139.053 880.69 138.75 880.69 138.318V138.227C880.69 137.106 880.384 136.235 879.77 135.614C879.164 134.992 878.243 134.682 877.009 134.682C875.728 134.682 874.724 134.962 873.997 135.523C873.27 136.083 872.759 136.682 872.463 137.318L869.918 136.409C870.372 135.348 870.978 134.523 871.736 133.932C872.501 133.333 873.334 132.917 874.236 132.682C875.145 132.439 876.039 132.318 876.918 132.318C877.478 132.318 878.122 132.386 878.849 132.523C879.584 132.652 880.293 132.92 880.974 133.33C881.664 133.739 882.236 134.356 882.69 135.182C883.145 136.008 883.372 137.114 883.372 138.5V150H880.69V147.636H880.554C880.372 148.015 880.069 148.42 879.645 148.852C879.221 149.284 878.656 149.652 877.952 149.955C877.247 150.258 876.387 150.409 875.372 150.409ZM875.781 148C876.842 148 877.736 147.792 878.463 147.375C879.198 146.958 879.751 146.42 880.122 145.761C880.501 145.102 880.69 144.409 880.69 143.682V141.227C880.577 141.364 880.327 141.489 879.94 141.602C879.562 141.708 879.122 141.803 878.622 141.886C878.13 141.962 877.649 142.03 877.179 142.091C876.717 142.144 876.342 142.189 876.054 142.227C875.357 142.318 874.705 142.466 874.099 142.67C873.501 142.867 873.016 143.167 872.645 143.568C872.281 143.962 872.099 144.5 872.099 145.182C872.099 146.114 872.444 146.818 873.134 147.295C873.83 147.765 874.713 148 875.781 148ZM901.222 126L902.585 127.636C902.055 128.152 901.441 128.511 900.744 128.716C900.047 128.92 899.259 129.045 898.381 129.091C897.502 129.136 896.525 129.182 895.449 129.227C894.237 129.273 893.233 129.568 892.438 130.114C891.642 130.659 891.028 131.447 890.597 132.477C890.165 133.508 889.888 134.773 889.767 136.273H889.994C890.585 135.182 891.403 134.379 892.449 133.864C893.494 133.348 894.616 133.091 895.812 133.091C897.176 133.091 898.403 133.409 899.494 134.045C900.585 134.682 901.449 135.625 902.085 136.875C902.722 138.125 903.04 139.667 903.04 141.5C903.04 143.326 902.714 144.902 902.062 146.227C901.419 147.553 900.513 148.576 899.347 149.295C898.188 150.008 896.828 150.364 895.267 150.364C893.706 150.364 892.339 149.996 891.165 149.261C889.991 148.519 889.078 147.42 888.426 145.966C887.775 144.504 887.449 142.697 887.449 140.545V138.682C887.449 134.795 888.108 131.848 889.426 129.841C890.752 127.833 892.744 126.795 895.403 126.727C896.343 126.697 897.18 126.689 897.915 126.705C898.65 126.72 899.29 126.686 899.835 126.602C900.381 126.519 900.843 126.318 901.222 126ZM895.267 147.955C896.32 147.955 897.225 147.689 897.983 147.159C898.748 146.629 899.335 145.883 899.744 144.92C900.153 143.951 900.358 142.811 900.358 141.5C900.358 140.227 900.15 139.144 899.733 138.25C899.324 137.356 898.737 136.674 897.972 136.205C897.206 135.735 896.29 135.5 895.222 135.5C894.441 135.5 893.741 135.633 893.119 135.898C892.498 136.163 891.968 136.553 891.528 137.068C891.089 137.583 890.748 138.212 890.506 138.955C890.271 139.697 890.146 140.545 890.131 141.5C890.131 143.455 890.589 145.019 891.506 146.193C892.422 147.367 893.676 147.955 895.267 147.955ZM914.233 150.364C912.657 150.364 911.275 149.989 910.085 149.239C908.903 148.489 907.979 147.439 907.312 146.091C906.653 144.742 906.324 143.167 906.324 141.364C906.324 139.545 906.653 137.958 907.312 136.602C907.979 135.246 908.903 134.193 910.085 133.443C911.275 132.693 912.657 132.318 914.233 132.318C915.809 132.318 917.188 132.693 918.369 133.443C919.559 134.193 920.483 135.246 921.142 136.602C921.809 137.958 922.142 139.545 922.142 141.364C922.142 143.167 921.809 144.742 921.142 146.091C920.483 147.439 919.559 148.489 918.369 149.239C917.188 149.989 915.809 150.364 914.233 150.364ZM914.233 147.955C915.43 147.955 916.415 147.648 917.188 147.034C917.96 146.42 918.532 145.614 918.903 144.614C919.275 143.614 919.46 142.53 919.46 141.364C919.46 140.197 919.275 139.11 918.903 138.102C918.532 137.095 917.96 136.28 917.188 135.659C916.415 135.038 915.43 134.727 914.233 134.727C913.036 134.727 912.051 135.038 911.278 135.659C910.506 136.28 909.934 137.095 909.562 138.102C909.191 139.11 909.006 140.197 909.006 141.364C909.006 142.53 909.191 143.614 909.562 144.614C909.934 145.614 910.506 146.42 911.278 147.034C912.051 147.648 913.036 147.955 914.233 147.955ZM923.955 135.045V132.545H938.136V135.045H932.409V150H929.727V135.045H923.955ZM948.46 150.364C946.778 150.364 945.328 149.992 944.108 149.25C942.896 148.5 941.96 147.455 941.301 146.114C940.65 144.765 940.324 143.197 940.324 141.409C940.324 139.621 940.65 138.045 941.301 136.682C941.96 135.311 942.877 134.242 944.051 133.477C945.233 132.705 946.612 132.318 948.188 132.318C949.097 132.318 949.994 132.47 950.881 132.773C951.767 133.076 952.574 133.568 953.301 134.25C954.028 134.924 954.608 135.818 955.04 136.932C955.472 138.045 955.688 139.417 955.688 141.045V142.182H942.233V139.864H952.96C952.96 138.879 952.763 138 952.369 137.227C951.983 136.455 951.43 135.845 950.71 135.398C949.998 134.951 949.157 134.727 948.188 134.727C947.119 134.727 946.195 134.992 945.415 135.523C944.642 136.045 944.047 136.727 943.631 137.568C943.214 138.409 943.006 139.311 943.006 140.273V141.818C943.006 143.136 943.233 144.254 943.688 145.17C944.15 146.08 944.79 146.773 945.608 147.25C946.426 147.72 947.377 147.955 948.46 147.955C949.165 147.955 949.801 147.856 950.369 147.659C950.945 147.455 951.441 147.152 951.858 146.75C952.275 146.341 952.597 145.833 952.824 145.227L955.415 145.955C955.142 146.833 954.684 147.606 954.04 148.273C953.396 148.932 952.6 149.447 951.653 149.818C950.706 150.182 949.642 150.364 948.46 150.364ZM105.545 192.364C103.909 192.364 102.5 191.977 101.318 191.205C100.136 190.432 99.2273 189.367 98.5909 188.011C97.9545 186.655 97.6364 185.106 97.6364 183.364C97.6364 181.591 97.9621 180.027 98.6136 178.67C99.2727 177.307 100.189 176.242 101.364 175.477C102.545 174.705 103.924 174.318 105.5 174.318C106.727 174.318 107.833 174.545 108.818 175C109.803 175.455 110.61 176.091 111.239 176.909C111.867 177.727 112.258 178.682 112.409 179.773H109.727C109.523 178.977 109.068 178.273 108.364 177.659C107.667 177.038 106.727 176.727 105.545 176.727C104.5 176.727 103.583 177 102.795 177.545C102.015 178.083 101.405 178.845 100.966 179.83C100.534 180.807 100.318 181.955 100.318 183.273C100.318 184.621 100.53 185.795 100.955 186.795C101.386 187.795 101.992 188.572 102.773 189.125C103.561 189.678 104.485 189.955 105.545 189.955C106.242 189.955 106.875 189.833 107.443 189.591C108.011 189.348 108.492 189 108.886 188.545C109.28 188.091 109.561 187.545 109.727 186.909H112.409C112.258 187.939 111.883 188.867 111.284 189.693C110.693 190.511 109.909 191.163 108.932 191.648C107.962 192.125 106.833 192.364 105.545 192.364ZM124.33 177.045V174.545H138.511V177.045H132.784V192H130.102V177.045H124.33ZM148.835 192.364C147.153 192.364 145.703 191.992 144.483 191.25C143.271 190.5 142.335 189.455 141.676 188.114C141.025 186.765 140.699 185.197 140.699 183.409C140.699 181.621 141.025 180.045 141.676 178.682C142.335 177.311 143.252 176.242 144.426 175.477C145.608 174.705 146.987 174.318 148.562 174.318C149.472 174.318 150.369 174.47 151.256 174.773C152.142 175.076 152.949 175.568 153.676 176.25C154.403 176.924 154.983 177.818 155.415 178.932C155.847 180.045 156.062 181.417 156.062 183.045V184.182H142.608V181.864H153.335C153.335 180.879 153.138 180 152.744 179.227C152.358 178.455 151.805 177.845 151.085 177.398C150.373 176.951 149.532 176.727 148.562 176.727C147.494 176.727 146.57 176.992 145.79 177.523C145.017 178.045 144.422 178.727 144.006 179.568C143.589 180.409 143.381 181.311 143.381 182.273V183.818C143.381 185.136 143.608 186.254 144.062 187.17C144.525 188.08 145.165 188.773 145.983 189.25C146.801 189.72 147.752 189.955 148.835 189.955C149.54 189.955 150.176 189.856 150.744 189.659C151.32 189.455 151.816 189.152 152.233 188.75C152.65 188.341 152.972 187.833 153.199 187.227L155.79 187.955C155.517 188.833 155.059 189.606 154.415 190.273C153.771 190.932 152.975 191.447 152.028 191.818C151.081 192.182 150.017 192.364 148.835 192.364ZM160.142 192V174.545H162.824V182.136H164.597L170.869 174.545H174.324L167.278 182.955L174.415 192H170.96L165.233 184.636H162.824V192H160.142ZM183.702 192.364C182.065 192.364 180.656 191.977 179.474 191.205C178.293 190.432 177.384 189.367 176.747 188.011C176.111 186.655 175.793 185.106 175.793 183.364C175.793 181.591 176.118 180.027 176.77 178.67C177.429 177.307 178.346 176.242 179.52 175.477C180.702 174.705 182.08 174.318 183.656 174.318C184.884 174.318 185.99 174.545 186.974 175C187.959 175.455 188.766 176.091 189.395 176.909C190.024 177.727 190.414 178.682 190.565 179.773H187.884C187.679 178.977 187.224 178.273 186.52 177.659C185.823 177.038 184.884 176.727 183.702 176.727C182.656 176.727 181.74 177 180.952 177.545C180.171 178.083 179.562 178.845 179.122 179.83C178.69 180.807 178.474 181.955 178.474 183.273C178.474 184.621 178.687 185.795 179.111 186.795C179.543 187.795 180.149 188.572 180.929 189.125C181.717 189.678 182.641 189.955 183.702 189.955C184.399 189.955 185.031 189.833 185.599 189.591C186.168 189.348 186.649 189 187.043 188.545C187.437 188.091 187.717 187.545 187.884 186.909H190.565C190.414 187.939 190.039 188.867 189.44 189.693C188.849 190.511 188.065 191.163 187.088 191.648C186.118 192.125 184.99 192.364 183.702 192.364ZM193.111 177.045V174.545H207.293V177.045H201.565V192H198.884V177.045H193.111ZM217.389 192.364C215.813 192.364 214.431 191.989 213.241 191.239C212.06 190.489 211.135 189.439 210.469 188.091C209.81 186.742 209.48 185.167 209.48 183.364C209.48 181.545 209.81 179.958 210.469 178.602C211.135 177.246 212.06 176.193 213.241 175.443C214.431 174.693 215.813 174.318 217.389 174.318C218.965 174.318 220.344 174.693 221.526 175.443C222.715 176.193 223.639 177.246 224.298 178.602C224.965 179.958 225.298 181.545 225.298 183.364C225.298 185.167 224.965 186.742 224.298 188.091C223.639 189.439 222.715 190.489 221.526 191.239C220.344 191.989 218.965 192.364 217.389 192.364ZM217.389 189.955C218.586 189.955 219.571 189.648 220.344 189.034C221.116 188.42 221.688 187.614 222.06 186.614C222.431 185.614 222.616 184.53 222.616 183.364C222.616 182.197 222.431 181.11 222.06 180.102C221.688 179.095 221.116 178.28 220.344 177.659C219.571 177.038 218.586 176.727 217.389 176.727C216.192 176.727 215.207 177.038 214.435 177.659C213.662 178.28 213.09 179.095 212.719 180.102C212.348 181.11 212.162 182.197 212.162 183.364C212.162 184.53 212.348 185.614 212.719 186.614C213.09 187.614 213.662 188.42 214.435 189.034C215.207 189.648 216.192 189.955 217.389 189.955ZM229.392 192V174.545H236.528C238.407 174.545 239.9 174.97 241.006 175.818C242.112 176.667 242.665 177.788 242.665 179.182C242.665 180.242 242.35 181.064 241.722 181.648C241.093 182.223 240.286 182.614 239.301 182.818C239.945 182.909 240.57 183.136 241.176 183.5C241.79 183.864 242.297 184.364 242.699 185C243.1 185.629 243.301 186.402 243.301 187.318C243.301 188.212 243.074 189.011 242.619 189.716C242.165 190.42 241.513 190.977 240.665 191.386C239.816 191.795 238.801 192 237.619 192H229.392ZM231.938 189.545H237.619C238.544 189.545 239.267 189.326 239.79 188.886C240.313 188.447 240.574 187.848 240.574 187.091C240.574 186.189 240.313 185.481 239.79 184.966C239.267 184.443 238.544 184.182 237.619 184.182H231.938V189.545ZM231.938 181.864H236.528C237.248 181.864 237.866 181.765 238.381 181.568C238.896 181.364 239.29 181.076 239.562 180.705C239.843 180.326 239.983 179.879 239.983 179.364C239.983 178.629 239.676 178.053 239.062 177.636C238.449 177.212 237.604 177 236.528 177H231.938V181.864ZM249.679 180.864H254.679C256.724 180.864 258.289 181.383 259.372 182.42C260.455 183.458 260.997 184.773 260.997 186.364C260.997 187.409 260.755 188.36 260.27 189.216C259.785 190.064 259.073 190.742 258.134 191.25C257.194 191.75 256.043 192 254.679 192H247.361V174.545H250.043V189.5H254.679C255.74 189.5 256.611 189.22 257.293 188.659C257.974 188.098 258.315 187.379 258.315 186.5C258.315 185.576 257.974 184.822 257.293 184.239C256.611 183.655 255.74 183.364 254.679 183.364H249.679V180.864ZM263.77 192V174.545H266.452V192H263.77ZM280.906 188.364L286.997 174.545H289.543L281.997 192H279.815L272.406 174.545H274.906L280.906 188.364ZM274.043 174.545V192H271.361V174.545H274.043ZM287.77 192V174.545H290.452V192H287.77ZM298.043 188.045L306.452 174.545H309.543V192H306.861V178.5L298.497 192H295.361V174.545H298.043V188.045ZM336.409 168L337.773 169.636C337.242 170.152 336.629 170.511 335.932 170.716C335.235 170.92 334.447 171.045 333.568 171.091C332.689 171.136 331.712 171.182 330.636 171.227C329.424 171.273 328.42 171.568 327.625 172.114C326.83 172.659 326.216 173.447 325.784 174.477C325.352 175.508 325.076 176.773 324.955 178.273H325.182C325.773 177.182 326.591 176.379 327.636 175.864C328.682 175.348 329.803 175.091 331 175.091C332.364 175.091 333.591 175.409 334.682 176.045C335.773 176.682 336.636 177.625 337.273 178.875C337.909 180.125 338.227 181.667 338.227 183.5C338.227 185.326 337.902 186.902 337.25 188.227C336.606 189.553 335.701 190.576 334.534 191.295C333.375 192.008 332.015 192.364 330.455 192.364C328.894 192.364 327.527 191.996 326.352 191.261C325.178 190.519 324.265 189.42 323.614 187.966C322.962 186.504 322.636 184.697 322.636 182.545V180.682C322.636 176.795 323.295 173.848 324.614 171.841C325.939 169.833 327.932 168.795 330.591 168.727C331.53 168.697 332.367 168.689 333.102 168.705C333.837 168.72 334.477 168.686 335.023 168.602C335.568 168.519 336.03 168.318 336.409 168ZM330.455 189.955C331.508 189.955 332.413 189.689 333.17 189.159C333.936 188.629 334.523 187.883 334.932 186.92C335.341 185.951 335.545 184.811 335.545 183.5C335.545 182.227 335.337 181.144 334.92 180.25C334.511 179.356 333.924 178.674 333.159 178.205C332.394 177.735 331.477 177.5 330.409 177.5C329.629 177.5 328.928 177.633 328.307 177.898C327.686 178.163 327.155 178.553 326.716 179.068C326.277 179.583 325.936 180.212 325.693 180.955C325.458 181.697 325.333 182.545 325.318 183.5C325.318 185.455 325.777 187.019 326.693 188.193C327.61 189.367 328.864 189.955 330.455 189.955ZM340.784 192V189.5H341.42C341.943 189.5 342.379 189.398 342.727 189.193C343.076 188.981 343.356 188.614 343.568 188.091C343.788 187.561 343.955 186.826 344.068 185.886C344.189 184.939 344.277 183.735 344.33 182.273L344.648 174.545H356.284V192H353.602V177.045H347.193L346.92 183.273C346.86 184.705 346.731 185.966 346.534 187.057C346.345 188.14 346.053 189.049 345.659 189.784C345.273 190.519 344.758 191.072 344.114 191.443C343.47 191.814 342.663 192 341.693 192H340.784ZM368.295 192.364C366.72 192.364 365.337 191.989 364.148 191.239C362.966 190.489 362.042 189.439 361.375 188.091C360.716 186.742 360.386 185.167 360.386 183.364C360.386 181.545 360.716 179.958 361.375 178.602C362.042 177.246 362.966 176.193 364.148 175.443C365.337 174.693 366.72 174.318 368.295 174.318C369.871 174.318 371.25 174.693 372.432 175.443C373.621 176.193 374.545 177.246 375.205 178.602C375.871 179.958 376.205 181.545 376.205 183.364C376.205 185.167 375.871 186.742 375.205 188.091C374.545 189.439 373.621 190.489 372.432 191.239C371.25 191.989 369.871 192.364 368.295 192.364ZM368.295 189.955C369.492 189.955 370.477 189.648 371.25 189.034C372.023 188.42 372.595 187.614 372.966 186.614C373.337 185.614 373.523 184.53 373.523 183.364C373.523 182.197 373.337 181.11 372.966 180.102C372.595 179.095 372.023 178.28 371.25 177.659C370.477 177.038 369.492 176.727 368.295 176.727C367.098 176.727 366.114 177.038 365.341 177.659C364.568 178.28 363.996 179.095 363.625 180.102C363.254 181.11 363.068 182.197 363.068 183.364C363.068 184.53 363.254 185.614 363.625 186.614C363.996 187.614 364.568 188.42 365.341 189.034C366.114 189.648 367.098 189.955 368.295 189.955ZM380.298 192V174.545H382.98V182.136H384.753L391.026 174.545H394.48L387.435 182.955L394.571 192H391.116L385.389 184.636H382.98V192H380.298ZM402.622 192.409C401.516 192.409 400.512 192.201 399.611 191.784C398.709 191.36 397.993 190.75 397.463 189.955C396.933 189.152 396.668 188.182 396.668 187.045C396.668 186.045 396.865 185.235 397.259 184.614C397.652 183.985 398.179 183.492 398.838 183.136C399.497 182.78 400.224 182.515 401.02 182.341C401.823 182.159 402.63 182.015 403.44 181.909C404.501 181.773 405.361 181.67 406.02 181.602C406.687 181.527 407.171 181.402 407.474 181.227C407.785 181.053 407.94 180.75 407.94 180.318V180.227C407.94 179.106 407.634 178.235 407.02 177.614C406.414 176.992 405.493 176.682 404.259 176.682C402.978 176.682 401.974 176.962 401.247 177.523C400.52 178.083 400.009 178.682 399.713 179.318L397.168 178.409C397.622 177.348 398.228 176.523 398.986 175.932C399.751 175.333 400.584 174.917 401.486 174.682C402.395 174.439 403.289 174.318 404.168 174.318C404.728 174.318 405.372 174.386 406.099 174.523C406.834 174.652 407.543 174.92 408.224 175.33C408.914 175.739 409.486 176.356 409.94 177.182C410.395 178.008 410.622 179.114 410.622 180.5V192H407.94V189.636H407.804C407.622 190.015 407.319 190.42 406.895 190.852C406.471 191.284 405.906 191.652 405.202 191.955C404.497 192.258 403.637 192.409 402.622 192.409ZM403.031 190C404.092 190 404.986 189.792 405.713 189.375C406.448 188.958 407.001 188.42 407.372 187.761C407.751 187.102 407.94 186.409 407.94 185.682V183.227C407.827 183.364 407.577 183.489 407.19 183.602C406.812 183.708 406.372 183.803 405.872 183.886C405.38 183.962 404.899 184.03 404.429 184.091C403.967 184.144 403.592 184.189 403.304 184.227C402.607 184.318 401.955 184.466 401.349 184.67C400.751 184.867 400.266 185.167 399.895 185.568C399.531 185.962 399.349 186.5 399.349 187.182C399.349 188.114 399.694 188.818 400.384 189.295C401.08 189.765 401.963 190 403.031 190ZM425.062 188.364L431.153 174.545H433.699L426.153 192H423.972L416.562 174.545H419.062L425.062 188.364ZM418.199 174.545V192H415.517V174.545H418.199ZM431.926 192V174.545H434.608V192H431.926ZM442.199 188.045L450.608 174.545H453.699V192H451.017V178.5L442.653 192H439.517V174.545H442.199V188.045ZM460.565 192.182C460.005 192.182 459.524 191.981 459.122 191.58C458.721 191.178 458.52 190.697 458.52 190.136C458.52 189.576 458.721 189.095 459.122 188.693C459.524 188.292 460.005 188.091 460.565 188.091C461.126 188.091 461.607 188.292 462.009 188.693C462.41 189.095 462.611 189.576 462.611 190.136C462.611 190.508 462.516 190.848 462.327 191.159C462.145 191.47 461.899 191.72 461.588 191.909C461.285 192.091 460.944 192.182 460.565 192.182Z" fill="#0A2832"/>
<path d="M96 75V201" stroke="#058CD7" stroke-width="1.5"/>
</svg>
