<svg width="552" height="552" viewBox="0 0 552 552" fill="none" xmlns="http://www.w3.org/2000/svg">
<rect width="552" height="552" fill="#F2F6F9"/>
<rect x="110.25" y="99.25" width="330.5" height="39.5" stroke="#058CD7" stroke-width="1.5"/>
<path d="M111 102.5H118.146L122.646 119H138.419L143.051 105.102L145.898 106.052L140.58 122H122.67L121.92 125H144V128H118.08L119.949 120.516L115.854 105.5H111V102.5ZM132 104V108.5H136.5V111.5H132V116H129V111.5H124.5V108.5H129V104H132ZM117 132.5C117 131.704 117.316 130.941 117.879 130.379C118.441 129.816 119.204 129.5 120 129.5C120.796 129.5 121.559 129.816 122.121 130.379C122.684 130.941 123 131.704 123 132.5C123 133.296 122.684 134.059 122.121 134.621C121.559 135.184 120.796 135.5 120 135.5C119.204 135.5 118.441 135.184 117.879 134.621C117.316 134.059 117 133.296 117 132.5ZM138 132.5C138 131.704 138.316 130.941 138.879 130.379C139.441 129.816 140.204 129.5 141 129.5C141.796 129.5 142.559 129.816 143.121 130.379C143.684 130.941 144 131.704 144 132.5C144 133.296 143.684 134.059 143.121 134.621C142.559 135.184 141.796 135.5 141 135.5C140.204 135.5 139.441 135.184 138.879 134.621C138.316 134.059 138 133.296 138 132.5Z" fill="#0A2832"/>
<path d="M147 100V138" stroke="#058CD7" stroke-width="1.5"/>
<path d="M163 100V138" stroke="#058CD7" stroke-width="1.5"/>
<path d="M163.696 133.922V126.395H165.038C165.496 126.01 165.923 125.464 166.321 124.754C166.719 124.045 167.057 123.087 167.335 121.881C167.614 120.674 167.806 119.126 167.912 117.237L168.389 108.636H180.947V126.395H183.254V133.892H180.311V129H166.639V133.922H163.696ZM168.658 126.395H178.004V111.281H171.173L170.855 117.237C170.769 118.676 170.626 119.968 170.428 121.115C170.235 122.262 169.987 123.276 169.682 124.158C169.384 125.033 169.042 125.778 168.658 126.395ZM192.815 129.308C191.383 129.308 190.133 128.98 189.066 128.324C187.999 127.668 187.17 126.75 186.58 125.57C185.99 124.39 185.695 123.011 185.695 121.433C185.695 119.849 185.99 118.464 186.58 117.277C187.17 116.09 187.999 115.169 189.066 114.513C190.133 113.857 191.383 113.528 192.815 113.528C194.246 113.528 195.496 113.857 196.563 114.513C197.63 115.169 198.459 116.09 199.049 117.277C199.639 118.464 199.934 119.849 199.934 121.433C199.934 123.011 199.639 124.39 199.049 125.57C198.459 126.75 197.63 127.668 196.563 128.324C195.496 128.98 194.246 129.308 192.815 129.308ZM192.825 126.812C193.753 126.812 194.522 126.567 195.131 126.077C195.741 125.586 196.192 124.933 196.484 124.118C196.782 123.303 196.931 122.404 196.931 121.423C196.931 120.449 196.782 119.554 196.484 118.739C196.192 117.917 195.741 117.257 195.131 116.76C194.522 116.263 193.753 116.014 192.825 116.014C191.89 116.014 191.114 116.263 190.498 116.76C189.888 117.257 189.434 117.917 189.136 118.739C188.844 119.554 188.698 120.449 188.698 121.423C188.698 122.404 188.844 123.303 189.136 124.118C189.434 124.933 189.888 125.586 190.498 126.077C191.114 126.567 191.89 126.812 192.825 126.812ZM215.035 108.04L216.268 109.919C215.811 110.337 215.29 110.635 214.707 110.814C214.13 110.986 213.464 111.096 212.708 111.142C211.953 111.182 211.088 111.218 210.113 111.251C209.013 111.285 208.108 111.523 207.399 111.967C206.69 112.405 206.143 113.054 205.758 113.916C205.38 114.771 205.135 115.845 205.022 117.138H205.211C205.708 116.19 206.398 115.481 207.279 115.01C208.168 114.539 209.165 114.304 210.272 114.304C211.505 114.304 212.602 114.586 213.564 115.149C214.525 115.713 215.28 116.538 215.831 117.625C216.387 118.705 216.666 120.028 216.666 121.592C216.666 123.177 216.374 124.545 215.791 125.699C215.214 126.852 214.399 127.744 213.345 128.374C212.297 128.997 211.061 129.308 209.636 129.308C208.211 129.308 206.968 128.987 205.907 128.344C204.853 127.694 204.035 126.733 203.451 125.46C202.875 124.187 202.586 122.616 202.586 120.747V119.236C202.586 115.742 203.209 113.114 204.456 111.351C205.702 109.588 207.565 108.683 210.044 108.636C210.846 108.616 211.562 108.613 212.191 108.626C212.821 108.633 213.371 108.603 213.842 108.537C214.319 108.464 214.717 108.298 215.035 108.04ZM209.646 126.812C210.475 126.812 211.187 126.604 211.784 126.186C212.387 125.762 212.851 125.162 213.176 124.386C213.501 123.611 213.663 122.696 213.663 121.642C213.663 120.608 213.501 119.73 213.176 119.007C212.851 118.285 212.387 117.734 211.784 117.357C211.181 116.972 210.458 116.78 209.616 116.78C208.993 116.78 208.436 116.889 207.946 117.108C207.455 117.32 207.034 117.635 206.683 118.053C206.338 118.47 206.07 118.981 205.877 119.584C205.692 120.18 205.592 120.866 205.579 121.642C205.579 123.22 205.94 124.476 206.663 125.411C207.392 126.345 208.386 126.812 209.646 126.812ZM224.431 129.338C223.464 129.338 222.589 129.159 221.806 128.801C221.024 128.437 220.404 127.91 219.947 127.22C219.496 126.531 219.271 125.686 219.271 124.685C219.271 123.823 219.437 123.114 219.768 122.557C220.1 122 220.547 121.559 221.11 121.234C221.674 120.91 222.304 120.664 223 120.499C223.696 120.333 224.405 120.207 225.127 120.121C226.042 120.015 226.785 119.929 227.355 119.862C227.925 119.789 228.339 119.673 228.598 119.514C228.856 119.355 228.985 119.097 228.985 118.739V118.669C228.985 117.801 228.74 117.128 228.25 116.651C227.766 116.173 227.043 115.935 226.082 115.935C225.081 115.935 224.292 116.157 223.716 116.601C223.145 117.038 222.751 117.526 222.532 118.062L219.738 117.426C220.07 116.498 220.554 115.749 221.19 115.179C221.833 114.602 222.572 114.185 223.407 113.926C224.243 113.661 225.121 113.528 226.042 113.528C226.652 113.528 227.298 113.601 227.981 113.747C228.671 113.886 229.314 114.145 229.91 114.523C230.513 114.901 231.007 115.441 231.392 116.143C231.776 116.839 231.968 117.744 231.968 118.858V129H229.065V126.912H228.946C228.753 127.296 228.465 127.674 228.081 128.045C227.696 128.417 227.202 128.725 226.599 128.97C225.996 129.215 225.273 129.338 224.431 129.338ZM225.078 126.952C225.9 126.952 226.602 126.789 227.186 126.464C227.776 126.14 228.223 125.715 228.528 125.192C228.84 124.661 228.995 124.095 228.995 123.491V121.523C228.889 121.629 228.684 121.728 228.379 121.821C228.081 121.907 227.739 121.983 227.355 122.05C226.97 122.109 226.596 122.166 226.231 122.219C225.867 122.265 225.562 122.305 225.316 122.338C224.74 122.411 224.213 122.534 223.735 122.706C223.265 122.878 222.887 123.127 222.602 123.452C222.324 123.77 222.184 124.194 222.184 124.724C222.184 125.46 222.456 126.017 223 126.395C223.543 126.766 224.236 126.952 225.078 126.952ZM235.928 129V113.727H242.262C243.986 113.727 245.351 114.095 246.359 114.831C247.366 115.56 247.87 116.551 247.87 117.804C247.87 118.699 247.585 119.408 247.015 119.932C246.445 120.455 245.689 120.807 244.748 120.986C245.431 121.065 246.057 121.271 246.627 121.602C247.197 121.927 247.655 122.365 247.999 122.915C248.351 123.465 248.526 124.121 248.526 124.884C248.526 125.692 248.317 126.408 247.9 127.031C247.482 127.648 246.876 128.132 246.08 128.483C245.291 128.828 244.34 129 243.227 129H235.928ZM238.722 126.514H243.227C243.962 126.514 244.539 126.339 244.957 125.987C245.374 125.636 245.583 125.159 245.583 124.555C245.583 123.846 245.374 123.289 244.957 122.885C244.539 122.474 243.962 122.268 243.227 122.268H238.722V126.514ZM238.722 120.091H242.292C242.849 120.091 243.326 120.011 243.724 119.852C244.128 119.693 244.436 119.468 244.648 119.176C244.867 118.878 244.977 118.527 244.977 118.122C244.977 117.532 244.735 117.071 244.251 116.74C243.767 116.409 243.104 116.243 242.262 116.243H238.722V120.091ZM254.701 124.834L261.433 113.727H264.634V129H261.721V117.884L255.019 129H251.788V113.727H254.701V124.834ZM266.737 116.293V113.727H279.624V116.293H274.642V129H271.739V116.293H266.737ZM285.005 118.977H289.44C291.309 118.977 292.748 119.441 293.755 120.369C294.763 121.297 295.267 122.494 295.267 123.959C295.267 124.913 295.041 125.772 294.591 126.534C294.14 127.296 293.48 127.9 292.612 128.344C291.743 128.781 290.686 129 289.44 129H282.768V113.727H285.681V126.435H289.44C290.295 126.435 290.998 126.213 291.548 125.768C292.098 125.318 292.373 124.744 292.373 124.048C292.373 123.312 292.098 122.713 291.548 122.249C290.998 121.778 290.295 121.543 289.44 121.543H285.005V118.977ZM306.01 129V113.727H312.344C314.068 113.727 315.433 114.095 316.441 114.831C317.448 115.56 317.952 116.551 317.952 117.804C317.952 118.699 317.667 119.408 317.097 119.932C316.527 120.455 315.771 120.807 314.83 120.986C315.513 121.065 316.139 121.271 316.709 121.602C317.279 121.927 317.737 122.365 318.081 122.915C318.433 123.465 318.608 124.121 318.608 124.884C318.608 125.692 318.4 126.408 317.982 127.031C317.564 127.648 316.958 128.132 316.162 128.483C315.373 128.828 314.422 129 313.309 129H306.01ZM308.804 126.514H313.309C314.044 126.514 314.621 126.339 315.039 125.987C315.456 125.636 315.665 125.159 315.665 124.555C315.665 123.846 315.456 123.289 315.039 122.885C314.621 122.474 314.044 122.268 313.309 122.268H308.804V126.514ZM308.804 120.091H312.374C312.931 120.091 313.408 120.011 313.806 119.852C314.21 119.693 314.518 119.468 314.73 119.176C314.949 118.878 315.059 118.527 315.059 118.122C315.059 117.532 314.817 117.071 314.333 116.74C313.849 116.409 313.186 116.243 312.344 116.243H308.804V120.091ZM329.28 129V113.727H332.253V120.131H333.685L338.726 113.727H342.405L336.489 121.155L342.474 129H338.786L334.182 122.895H332.253V129H329.28ZM350.588 129.308C349.156 129.308 347.907 128.98 346.839 128.324C345.772 127.668 344.944 126.75 344.354 125.57C343.764 124.39 343.469 123.011 343.469 121.433C343.469 119.849 343.764 118.464 344.354 117.277C344.944 116.09 345.772 115.169 346.839 114.513C347.907 113.857 349.156 113.528 350.588 113.528C352.02 113.528 353.269 113.857 354.337 114.513C355.404 115.169 356.232 116.09 356.822 117.277C357.412 118.464 357.707 119.849 357.707 121.433C357.707 123.011 357.412 124.39 356.822 125.57C356.232 126.75 355.404 127.668 354.337 128.324C353.269 128.98 352.02 129.308 350.588 129.308ZM350.598 126.812C351.526 126.812 352.295 126.567 352.905 126.077C353.515 125.586 353.965 124.933 354.257 124.118C354.555 123.303 354.705 122.404 354.705 121.423C354.705 120.449 354.555 119.554 354.257 118.739C353.965 117.917 353.515 117.257 352.905 116.76C352.295 116.263 351.526 116.014 350.598 116.014C349.663 116.014 348.888 116.263 348.271 116.76C347.661 117.257 347.207 117.917 346.909 118.739C346.617 119.554 346.472 120.449 346.472 121.423C346.472 122.404 346.617 123.303 346.909 124.118C347.207 124.933 347.661 125.586 348.271 126.077C348.888 126.567 349.663 126.812 350.598 126.812ZM361.026 134.727V113.727H363.929V116.203H364.178C364.35 115.885 364.599 115.517 364.924 115.099C365.248 114.682 365.699 114.317 366.276 114.006C366.853 113.688 367.615 113.528 368.563 113.528C369.796 113.528 370.896 113.84 371.864 114.463C372.832 115.086 373.591 115.984 374.141 117.158C374.698 118.331 374.976 119.743 374.976 121.393C374.976 123.044 374.701 124.459 374.151 125.639C373.601 126.812 372.845 127.717 371.884 128.354C370.923 128.983 369.826 129.298 368.593 129.298C367.665 129.298 366.906 129.143 366.316 128.831C365.732 128.519 365.275 128.155 364.944 127.737C364.612 127.32 364.357 126.948 364.178 126.624H363.999V134.727H361.026ZM363.939 121.364C363.939 122.437 364.095 123.379 364.407 124.188C364.718 124.996 365.169 125.629 365.759 126.087C366.349 126.537 367.071 126.763 367.926 126.763C368.815 126.763 369.557 126.527 370.154 126.057C370.75 125.58 371.201 124.933 371.506 124.118C371.818 123.303 371.973 122.384 371.973 121.364C371.973 120.356 371.821 119.451 371.516 118.649C371.218 117.847 370.767 117.214 370.164 116.75C369.567 116.286 368.821 116.054 367.926 116.054C367.065 116.054 366.336 116.276 365.739 116.72C365.149 117.164 364.702 117.784 364.397 118.58C364.092 119.375 363.939 120.303 363.939 121.364ZM377.402 124.963H380.445C380.485 125.586 380.766 126.067 381.29 126.405C381.82 126.743 382.507 126.912 383.348 126.912C384.203 126.912 384.933 126.73 385.536 126.365C386.139 125.994 386.441 125.42 386.441 124.645C386.441 124.181 386.325 123.777 386.093 123.432C385.867 123.08 385.546 122.809 385.128 122.616C384.717 122.424 384.23 122.328 383.667 122.328H381.181V119.991H383.667C384.508 119.991 385.138 119.799 385.556 119.415C385.973 119.03 386.182 118.55 386.182 117.973C386.182 117.35 385.957 116.849 385.506 116.472C385.062 116.087 384.442 115.895 383.647 115.895C382.838 115.895 382.165 116.077 381.628 116.442C381.091 116.8 380.81 117.264 380.783 117.834H377.78C377.8 116.979 378.059 116.23 378.556 115.587C379.06 114.937 379.736 114.433 380.584 114.075C381.439 113.711 382.41 113.528 383.498 113.528C384.631 113.528 385.612 113.711 386.441 114.075C387.269 114.44 387.909 114.944 388.36 115.587C388.817 116.23 389.046 116.969 389.046 117.804C389.046 118.646 388.794 119.335 388.29 119.872C387.793 120.402 387.143 120.784 386.341 121.016V121.175C386.931 121.214 387.455 121.393 387.912 121.712C388.37 122.03 388.728 122.451 388.986 122.974C389.245 123.498 389.374 124.091 389.374 124.754C389.374 125.689 389.115 126.498 388.598 127.18C388.088 127.863 387.379 128.39 386.471 128.761C385.569 129.126 384.538 129.308 383.378 129.308C382.251 129.308 381.24 129.133 380.346 128.781C379.457 128.423 378.751 127.92 378.228 127.27C377.711 126.62 377.435 125.851 377.402 124.963ZM395.357 124.834L402.089 113.727H405.29V129H402.377V117.884L395.675 129H392.444V113.727H395.357V124.834ZM419.638 120.081V122.656H411.366V120.081H419.638ZM412.201 113.727V129H409.288V113.727H412.201ZM421.717 113.727V129H418.813V113.727H421.717ZM427.026 134.727C426.582 134.727 426.178 134.691 425.813 134.618C425.449 134.552 425.177 134.479 424.998 134.399L425.714 131.963C426.257 132.109 426.741 132.172 427.165 132.152C427.59 132.132 427.964 131.973 428.289 131.675C428.621 131.376 428.912 130.889 429.164 130.213L429.532 129.199L423.944 113.727H427.126L430.994 125.58H431.153L435.021 113.727H438.212L431.918 131.038C431.627 131.834 431.255 132.507 430.805 133.057C430.354 133.614 429.817 134.031 429.194 134.31C428.571 134.588 427.848 134.727 427.026 134.727Z" fill="#0A2832"/>
<rect x="110.25" y="200.125" width="278.5" height="31" stroke="#058CD7" stroke-width="1.5"/>
<path d="M111 202.792H116.558L120.058 215.625H132.326L135.928 204.816L138.143 205.554L134.007 217.958H120.077L119.493 220.292H136.667V222.625H116.507L117.96 216.804L114.775 205.125H111V202.792ZM127.333 203.958V207.458H130.833V209.792H127.333V213.292H125V209.792H121.5V207.458H125V203.958H127.333ZM115.667 226.125C115.667 225.506 115.912 224.913 116.35 224.475C116.788 224.037 117.381 223.792 118 223.792C118.619 223.792 119.212 224.037 119.65 224.475C120.088 224.913 120.333 225.506 120.333 226.125C120.333 226.744 120.088 227.337 119.65 227.775C119.212 228.212 118.619 228.458 118 228.458C117.381 228.458 116.788 228.212 116.35 227.775C115.912 227.337 115.667 226.744 115.667 226.125ZM132 226.125C132 225.506 132.246 224.913 132.683 224.475C133.121 224.037 133.714 223.792 134.333 223.792C134.952 223.792 135.546 224.037 135.983 224.475C136.421 224.913 136.667 225.506 136.667 226.125C136.667 226.744 136.421 227.337 135.983 227.775C135.546 228.212 134.952 228.458 134.333 228.458C133.714 228.458 133.121 228.212 132.683 227.775C132.246 227.337 132 226.744 132 226.125Z" fill="#0A2832"/>
<path d="M139 200.875V230.375" stroke="#058CD7" stroke-width="1.5"/>
<path d="M151 200.875V230.375" stroke="#058CD7" stroke-width="1.5"/>
<path d="M151.597 228.844V222.392H152.747C153.139 222.062 153.506 221.594 153.847 220.986C154.188 220.378 154.477 219.557 154.716 218.523C154.955 217.489 155.119 216.162 155.21 214.543L155.619 207.17H166.384V222.392H168.361V228.818H165.838V224.625H154.119V228.844H151.597ZM155.849 222.392H163.861V209.438H158.006L157.733 214.543C157.659 215.776 157.537 216.884 157.366 217.866C157.202 218.849 156.989 219.719 156.727 220.474C156.472 221.224 156.179 221.864 155.849 222.392ZM176.555 224.889C175.328 224.889 174.257 224.608 173.342 224.045C172.428 223.483 171.717 222.696 171.212 221.685C170.706 220.673 170.453 219.491 170.453 218.139C170.453 216.781 170.706 215.594 171.212 214.577C171.717 213.56 172.428 212.77 173.342 212.207C174.257 211.645 175.328 211.364 176.555 211.364C177.783 211.364 178.854 211.645 179.768 212.207C180.683 212.77 181.393 213.56 181.899 214.577C182.405 215.594 182.658 216.781 182.658 218.139C182.658 219.491 182.405 220.673 181.899 221.685C181.393 222.696 180.683 223.483 179.768 224.045C178.854 224.608 177.783 224.889 176.555 224.889ZM176.564 222.75C177.359 222.75 178.018 222.54 178.541 222.119C179.064 221.699 179.45 221.139 179.7 220.44C179.956 219.741 180.084 218.972 180.084 218.131C180.084 217.295 179.956 216.528 179.7 215.83C179.45 215.125 179.064 214.56 178.541 214.134C178.018 213.707 177.359 213.494 176.564 213.494C175.763 213.494 175.098 213.707 174.57 214.134C174.047 214.56 173.658 215.125 173.402 215.83C173.152 216.528 173.027 217.295 173.027 218.131C173.027 218.972 173.152 219.741 173.402 220.44C173.658 221.139 174.047 221.699 174.57 222.119C175.098 222.54 175.763 222.75 176.564 222.75ZM195.602 206.659L196.658 208.27C196.266 208.628 195.82 208.884 195.32 209.037C194.826 209.185 194.255 209.278 193.607 209.318C192.96 209.352 192.218 209.384 191.383 209.412C190.44 209.44 189.664 209.645 189.056 210.026C188.448 210.401 187.979 210.957 187.65 211.696C187.326 212.429 187.116 213.349 187.019 214.457H187.181C187.607 213.645 188.198 213.037 188.954 212.634C189.715 212.23 190.57 212.028 191.519 212.028C192.576 212.028 193.516 212.27 194.34 212.753C195.164 213.236 195.812 213.943 196.283 214.875C196.761 215.801 196.999 216.935 196.999 218.276C196.999 219.634 196.749 220.807 196.249 221.795C195.755 222.784 195.056 223.548 194.153 224.088C193.255 224.622 192.195 224.889 190.974 224.889C189.752 224.889 188.687 224.614 187.778 224.062C186.874 223.506 186.173 222.682 185.673 221.591C185.178 220.5 184.931 219.153 184.931 217.551V216.256C184.931 213.261 185.465 211.009 186.533 209.497C187.602 207.986 189.198 207.21 191.323 207.17C192.011 207.153 192.624 207.151 193.164 207.162C193.704 207.168 194.175 207.142 194.579 207.085C194.988 207.023 195.329 206.881 195.602 206.659ZM190.982 222.75C191.692 222.75 192.303 222.571 192.815 222.213C193.332 221.849 193.729 221.335 194.008 220.67C194.286 220.006 194.425 219.222 194.425 218.318C194.425 217.432 194.286 216.679 194.008 216.06C193.729 215.44 193.332 214.969 192.815 214.645C192.298 214.315 191.678 214.151 190.957 214.151C190.423 214.151 189.945 214.244 189.525 214.432C189.104 214.614 188.744 214.884 188.442 215.241C188.147 215.599 187.917 216.037 187.752 216.554C187.593 217.065 187.508 217.653 187.496 218.318C187.496 219.67 187.806 220.747 188.425 221.548C189.05 222.349 189.903 222.75 190.982 222.75ZM203.656 224.915C202.826 224.915 202.076 224.761 201.406 224.455C200.735 224.142 200.204 223.69 199.812 223.099C199.425 222.509 199.232 221.784 199.232 220.926C199.232 220.187 199.374 219.58 199.658 219.102C199.942 218.625 200.326 218.247 200.809 217.969C201.292 217.69 201.832 217.48 202.428 217.338C203.025 217.196 203.633 217.088 204.252 217.014C205.036 216.923 205.673 216.849 206.161 216.793C206.65 216.73 207.005 216.631 207.227 216.494C207.448 216.358 207.559 216.136 207.559 215.83V215.77C207.559 215.026 207.349 214.449 206.928 214.04C206.513 213.631 205.894 213.426 205.07 213.426C204.212 213.426 203.536 213.616 203.042 213.997C202.553 214.372 202.215 214.79 202.028 215.25L199.633 214.705C199.917 213.909 200.332 213.267 200.877 212.778C201.428 212.284 202.062 211.926 202.778 211.705C203.494 211.477 204.246 211.364 205.036 211.364C205.559 211.364 206.113 211.426 206.698 211.551C207.289 211.67 207.84 211.892 208.352 212.216C208.869 212.54 209.292 213.003 209.621 213.605C209.951 214.202 210.116 214.977 210.116 215.932V224.625H207.627V222.835H207.525C207.36 223.165 207.113 223.489 206.783 223.807C206.454 224.125 206.031 224.389 205.513 224.599C204.996 224.81 204.377 224.915 203.656 224.915ZM204.21 222.869C204.914 222.869 205.516 222.73 206.016 222.452C206.522 222.173 206.906 221.81 207.167 221.361C207.434 220.906 207.567 220.42 207.567 219.903V218.216C207.477 218.307 207.3 218.392 207.039 218.472C206.783 218.545 206.491 218.611 206.161 218.668C205.832 218.719 205.511 218.767 205.198 218.812C204.886 218.852 204.624 218.886 204.414 218.915C203.92 218.977 203.468 219.082 203.059 219.23C202.656 219.378 202.332 219.591 202.087 219.869C201.849 220.142 201.729 220.506 201.729 220.96C201.729 221.591 201.962 222.068 202.428 222.392C202.894 222.71 203.488 222.869 204.21 222.869ZM213.51 224.625V211.534H218.939C220.416 211.534 221.587 211.849 222.45 212.48C223.314 213.105 223.746 213.955 223.746 215.028C223.746 215.795 223.501 216.403 223.013 216.852C222.524 217.301 221.876 217.602 221.07 217.756C221.655 217.824 222.192 218 222.68 218.284C223.169 218.562 223.561 218.937 223.857 219.409C224.158 219.881 224.308 220.443 224.308 221.097C224.308 221.79 224.129 222.403 223.771 222.938C223.413 223.466 222.893 223.881 222.212 224.182C221.536 224.477 220.72 224.625 219.766 224.625H213.51ZM215.905 222.494H219.766C220.396 222.494 220.891 222.344 221.249 222.043C221.607 221.741 221.786 221.332 221.786 220.815C221.786 220.207 221.607 219.73 221.249 219.384C220.891 219.031 220.396 218.855 219.766 218.855H215.905V222.494ZM215.905 216.989H218.964C219.442 216.989 219.851 216.92 220.192 216.784C220.538 216.648 220.803 216.455 220.984 216.205C221.172 215.949 221.266 215.648 221.266 215.301C221.266 214.795 221.058 214.401 220.643 214.116C220.229 213.832 219.661 213.69 218.939 213.69H215.905V216.989ZM229.601 221.054L235.371 211.534H238.115V224.625H235.618V215.097L229.874 224.625H227.104V211.534H229.601V221.054ZM239.918 213.733V211.534H250.963V213.733H246.693V224.625H244.205V213.733H239.918ZM255.576 216.034H259.377C260.979 216.034 262.212 216.432 263.076 217.227C263.94 218.023 264.371 219.048 264.371 220.304C264.371 221.122 264.178 221.858 263.792 222.511C263.406 223.165 262.84 223.682 262.096 224.062C261.352 224.438 260.445 224.625 259.377 224.625H253.658V211.534H256.156V222.426H259.377C260.11 222.426 260.712 222.236 261.184 221.855C261.656 221.469 261.891 220.977 261.891 220.381C261.891 219.75 261.656 219.236 261.184 218.838C260.712 218.435 260.11 218.233 259.377 218.233H255.576V216.034ZM273.58 224.625V211.534H279.009C280.487 211.534 281.657 211.849 282.521 212.48C283.384 213.105 283.816 213.955 283.816 215.028C283.816 215.795 283.572 216.403 283.083 216.852C282.594 217.301 281.947 217.602 281.14 217.756C281.725 217.824 282.262 218 282.751 218.284C283.239 218.562 283.631 218.937 283.927 219.409C284.228 219.881 284.379 220.443 284.379 221.097C284.379 221.79 284.2 222.403 283.842 222.938C283.484 223.466 282.964 223.881 282.282 224.182C281.606 224.477 280.79 224.625 279.836 224.625H273.58ZM275.975 222.494H279.836C280.467 222.494 280.961 222.344 281.319 222.043C281.677 221.741 281.856 221.332 281.856 220.815C281.856 220.207 281.677 219.73 281.319 219.384C280.961 219.031 280.467 218.855 279.836 218.855H275.975V222.494ZM275.975 216.989H279.035C279.512 216.989 279.921 216.92 280.262 216.784C280.609 216.648 280.873 216.455 281.055 216.205C281.242 215.949 281.336 215.648 281.336 215.301C281.336 214.795 281.129 214.401 280.714 214.116C280.299 213.832 279.731 213.69 279.009 213.69H275.975V216.989ZM293.526 224.625V211.534H296.074V217.023H297.301L301.622 211.534H304.776L299.705 217.901L304.835 224.625H301.673L297.727 219.392H296.074V224.625H293.526ZM311.79 224.889C310.563 224.889 309.491 224.608 308.577 224.045C307.662 223.483 306.952 222.696 306.446 221.685C305.94 220.673 305.688 219.491 305.688 218.139C305.688 216.781 305.94 215.594 306.446 214.577C306.952 213.56 307.662 212.77 308.577 212.207C309.491 211.645 310.563 211.364 311.79 211.364C313.017 211.364 314.088 211.645 315.003 212.207C315.918 212.77 316.628 213.56 317.134 214.577C317.639 215.594 317.892 216.781 317.892 218.139C317.892 219.491 317.639 220.673 317.134 221.685C316.628 222.696 315.918 223.483 315.003 224.045C314.088 224.608 313.017 224.889 311.79 224.889ZM311.798 222.75C312.594 222.75 313.253 222.54 313.776 222.119C314.298 221.699 314.685 221.139 314.935 220.44C315.19 219.741 315.318 218.972 315.318 218.131C315.318 217.295 315.19 216.528 314.935 215.83C314.685 215.125 314.298 214.56 313.776 214.134C313.253 213.707 312.594 213.494 311.798 213.494C310.997 213.494 310.332 213.707 309.804 214.134C309.281 214.56 308.892 215.125 308.636 215.83C308.386 216.528 308.261 217.295 308.261 218.131C308.261 218.972 308.386 219.741 308.636 220.44C308.892 221.139 309.281 221.699 309.804 222.119C310.332 222.54 310.997 222.75 311.798 222.75ZM320.737 229.534V211.534H323.225V213.656H323.438C323.586 213.384 323.799 213.068 324.077 212.71C324.356 212.352 324.742 212.04 325.237 211.773C325.731 211.5 326.384 211.364 327.197 211.364C328.254 211.364 329.197 211.631 330.026 212.165C330.856 212.699 331.506 213.469 331.978 214.474C332.455 215.48 332.694 216.69 332.694 218.105C332.694 219.52 332.458 220.733 331.987 221.744C331.515 222.75 330.867 223.526 330.043 224.071C329.219 224.611 328.279 224.881 327.222 224.881C326.427 224.881 325.776 224.747 325.271 224.48C324.771 224.213 324.379 223.901 324.094 223.543C323.81 223.185 323.592 222.866 323.438 222.588H323.285V229.534H320.737ZM323.234 218.08C323.234 219 323.367 219.807 323.634 220.5C323.901 221.193 324.288 221.736 324.793 222.128C325.299 222.514 325.918 222.707 326.651 222.707C327.413 222.707 328.049 222.506 328.56 222.102C329.072 221.693 329.458 221.139 329.719 220.44C329.987 219.741 330.12 218.955 330.12 218.08C330.12 217.216 329.989 216.44 329.728 215.753C329.472 215.065 329.086 214.523 328.569 214.125C328.058 213.727 327.418 213.528 326.651 213.528C325.913 213.528 325.288 213.719 324.776 214.099C324.271 214.48 323.887 215.011 323.626 215.693C323.364 216.375 323.234 217.17 323.234 218.08ZM334.773 221.165H337.381C337.415 221.699 337.657 222.111 338.106 222.401C338.56 222.69 339.148 222.835 339.87 222.835C340.603 222.835 341.228 222.679 341.745 222.366C342.262 222.048 342.521 221.557 342.521 220.892C342.521 220.494 342.421 220.148 342.222 219.852C342.029 219.551 341.754 219.318 341.396 219.153C341.043 218.989 340.626 218.906 340.143 218.906H338.012V216.903H340.143C340.864 216.903 341.404 216.739 341.762 216.409C342.12 216.08 342.299 215.668 342.299 215.173C342.299 214.639 342.106 214.21 341.719 213.886C341.339 213.557 340.808 213.392 340.126 213.392C339.433 213.392 338.856 213.548 338.396 213.861C337.935 214.168 337.694 214.565 337.671 215.054H335.097C335.114 214.321 335.336 213.679 335.762 213.128C336.194 212.571 336.773 212.139 337.501 211.832C338.234 211.52 339.066 211.364 339.998 211.364C340.969 211.364 341.81 211.52 342.521 211.832C343.231 212.145 343.779 212.577 344.165 213.128C344.558 213.679 344.754 214.312 344.754 215.028C344.754 215.75 344.538 216.341 344.106 216.801C343.68 217.256 343.123 217.582 342.435 217.781V217.918C342.941 217.952 343.39 218.105 343.782 218.378C344.174 218.651 344.481 219.011 344.702 219.46C344.924 219.909 345.035 220.418 345.035 220.986C345.035 221.787 344.813 222.48 344.37 223.065C343.933 223.651 343.325 224.102 342.546 224.42C341.773 224.733 340.89 224.889 339.896 224.889C338.93 224.889 338.063 224.739 337.296 224.438C336.535 224.131 335.93 223.699 335.481 223.142C335.038 222.585 334.802 221.926 334.773 221.165ZM350.163 221.054L355.933 211.534H358.678V224.625H356.18V215.097L350.436 224.625H347.666V211.534H350.163V221.054ZM370.976 216.98V219.188H363.885V216.98H370.976ZM364.601 211.534V224.625H362.104V211.534H364.601ZM372.757 211.534V224.625H370.268V211.534H372.757ZM377.308 229.534C376.928 229.534 376.581 229.503 376.268 229.44C375.956 229.384 375.723 229.321 375.57 229.253L376.183 227.165C376.649 227.29 377.064 227.344 377.428 227.327C377.791 227.31 378.112 227.173 378.391 226.918C378.675 226.662 378.925 226.244 379.141 225.665L379.456 224.795L374.666 211.534H377.393L380.709 221.693H380.845L384.161 211.534H386.896L381.501 226.372C381.251 227.054 380.933 227.631 380.547 228.102C380.161 228.58 379.7 228.938 379.166 229.176C378.632 229.415 378.013 229.534 377.308 229.534Z" fill="#0A2832"/>
<rect x="110.25" y="292.5" width="235.5" height="25.5" stroke="#058CD7" stroke-width="1.5"/>
<path d="M111 294.25H115.764L118.764 305.25H129.279L132.367 295.985L134.265 296.618L130.72 307.25H118.78L118.28 309.25H133V311.25H115.72L116.966 306.261L114.236 296.25H111V294.25ZM125 295.25V298.25H128V300.25H125V303.25H123V300.25H120V298.25H123V295.25H125ZM115 314.25C115 313.72 115.211 313.211 115.586 312.836C115.961 312.461 116.47 312.25 117 312.25C117.53 312.25 118.039 312.461 118.414 312.836C118.789 313.211 119 313.72 119 314.25C119 314.78 118.789 315.289 118.414 315.664C118.039 316.039 117.53 316.25 117 316.25C116.47 316.25 115.961 316.039 115.586 315.664C115.211 315.289 115 314.78 115 314.25ZM129 314.25C129 313.72 129.211 313.211 129.586 312.836C129.961 312.461 130.47 312.25 131 312.25C131.53 312.25 132.039 312.461 132.414 312.836C132.789 313.211 133 313.72 133 314.25C133 314.78 132.789 315.289 132.414 315.664C132.039 316.039 131.53 316.25 131 316.25C130.47 316.25 129.961 316.039 129.586 315.664C129.211 315.289 129 314.78 129 314.25Z" fill="#0A2832"/>
<path d="M135 293.25V317.25" stroke="#058CD7" stroke-width="1.5"/>
<path d="M147 293.25V317.25" stroke="#058CD7" stroke-width="1.5"/>
<path d="M147.497 315.766V310.389H148.456C148.783 310.115 149.088 309.724 149.372 309.217C149.656 308.711 149.898 308.027 150.097 307.165C150.295 306.303 150.433 305.197 150.509 303.848L150.849 297.705H159.82V310.389H161.467V315.744H159.365V312.25H149.599V315.766H147.497ZM151.041 310.389H157.717V299.594H152.838L152.611 303.848C152.549 304.875 152.447 305.799 152.305 306.618C152.168 307.437 151.991 308.161 151.773 308.791C151.56 309.416 151.316 309.949 151.041 310.389ZM168.296 312.47C167.273 312.47 166.381 312.236 165.619 311.767C164.856 311.298 164.264 310.643 163.843 309.8C163.422 308.957 163.211 307.972 163.211 306.845C163.211 305.714 163.422 304.724 163.843 303.876C164.264 303.029 164.856 302.371 165.619 301.902C166.381 301.433 167.273 301.199 168.296 301.199C169.319 301.199 170.211 301.433 170.974 301.902C171.736 302.371 172.328 303.029 172.749 303.876C173.171 304.724 173.381 305.714 173.381 306.845C173.381 307.972 173.171 308.957 172.749 309.8C172.328 310.643 171.736 311.298 170.974 311.767C170.211 312.236 169.319 312.47 168.296 312.47ZM168.303 310.688C168.966 310.688 169.515 310.512 169.951 310.162C170.387 309.812 170.709 309.345 170.917 308.763C171.13 308.18 171.237 307.539 171.237 306.838C171.237 306.142 171.13 305.503 170.917 304.92C170.709 304.333 170.387 303.862 169.951 303.507C169.515 303.152 168.966 302.974 168.303 302.974C167.636 302.974 167.082 303.152 166.641 303.507C166.206 303.862 165.881 304.333 165.668 304.92C165.46 305.503 165.356 306.142 165.356 306.838C165.356 307.539 165.46 308.18 165.668 308.763C165.881 309.345 166.206 309.812 166.641 310.162C167.082 310.512 167.636 310.688 168.303 310.688ZM184.168 297.278L185.049 298.621C184.722 298.919 184.35 299.132 183.934 299.26C183.522 299.383 183.046 299.461 182.506 299.494C181.966 299.523 181.348 299.549 180.652 299.572C179.866 299.596 179.22 299.767 178.713 300.084C178.207 300.396 177.816 300.86 177.542 301.476C177.272 302.087 177.096 302.854 177.016 303.777H177.151C177.506 303.1 177.998 302.593 178.628 302.257C179.263 301.921 179.975 301.753 180.766 301.753C181.647 301.753 182.43 301.954 183.117 302.357C183.803 302.759 184.343 303.348 184.736 304.125C185.134 304.897 185.333 305.841 185.333 306.959C185.333 308.09 185.124 309.068 184.708 309.892C184.296 310.716 183.713 311.353 182.961 311.803C182.212 312.248 181.329 312.47 180.311 312.47C179.293 312.47 178.406 312.241 177.648 311.781C176.895 311.317 176.31 310.631 175.894 309.722C175.482 308.812 175.276 307.69 175.276 306.355V305.276C175.276 302.78 175.721 300.903 176.611 299.643C177.501 298.384 178.832 297.738 180.603 297.705C181.176 297.69 181.687 297.688 182.137 297.697C182.587 297.702 182.98 297.681 183.316 297.634C183.657 297.581 183.941 297.463 184.168 297.278ZM180.319 310.688C180.91 310.688 181.419 310.538 181.846 310.24C182.276 309.937 182.608 309.509 182.84 308.955C183.072 308.401 183.188 307.747 183.188 306.994C183.188 306.256 183.072 305.628 182.84 305.112C182.608 304.596 182.276 304.203 181.846 303.933C181.415 303.659 180.899 303.521 180.297 303.521C179.852 303.521 179.454 303.599 179.104 303.756C178.754 303.907 178.453 304.132 178.202 304.43C177.956 304.729 177.764 305.093 177.627 305.524C177.494 305.95 177.423 306.44 177.414 306.994C177.414 308.121 177.672 309.018 178.188 309.686C178.709 310.354 179.419 310.688 180.319 310.688ZM190.88 312.491C190.188 312.491 189.563 312.364 189.005 312.108C188.446 311.848 188.003 311.471 187.676 310.979C187.355 310.486 187.194 309.883 187.194 309.168C187.194 308.552 187.312 308.045 187.549 307.648C187.785 307.25 188.105 306.935 188.507 306.703C188.91 306.471 189.36 306.296 189.857 306.178C190.354 306.059 190.861 305.969 191.377 305.908C192.03 305.832 192.56 305.77 192.968 305.723C193.375 305.671 193.671 305.588 193.855 305.474C194.04 305.361 194.132 305.176 194.132 304.92V304.871C194.132 304.25 193.957 303.77 193.607 303.429C193.261 303.088 192.745 302.918 192.059 302.918C191.344 302.918 190.78 303.076 190.368 303.393C189.961 303.706 189.679 304.054 189.523 304.438L187.527 303.983C187.764 303.32 188.11 302.785 188.564 302.378C189.024 301.966 189.551 301.668 190.148 301.483C190.745 301.294 191.372 301.199 192.03 301.199C192.466 301.199 192.927 301.251 193.415 301.355C193.908 301.455 194.367 301.639 194.793 301.909C195.224 302.179 195.577 302.565 195.851 303.067C196.126 303.564 196.263 304.21 196.263 305.006V312.25H194.189V310.759H194.104C193.967 311.033 193.761 311.303 193.486 311.568C193.212 311.833 192.859 312.054 192.428 312.229C191.997 312.404 191.481 312.491 190.88 312.491ZM191.341 310.787C191.928 310.787 192.43 310.671 192.847 310.439C193.268 310.207 193.588 309.904 193.806 309.53C194.028 309.151 194.14 308.746 194.14 308.315V306.909C194.064 306.985 193.917 307.056 193.699 307.122C193.486 307.184 193.242 307.238 192.968 307.286C192.693 307.328 192.426 307.368 192.165 307.406C191.905 307.439 191.687 307.468 191.512 307.491C191.1 307.544 190.723 307.631 190.382 307.754C190.046 307.877 189.776 308.055 189.573 308.287C189.374 308.514 189.275 308.817 189.275 309.196C189.275 309.722 189.469 310.119 189.857 310.389C190.245 310.654 190.74 310.787 191.341 310.787ZM199.092 312.25V301.341H203.616C204.847 301.341 205.822 301.604 206.542 302.129C207.262 302.65 207.621 303.358 207.621 304.253C207.621 304.892 207.418 305.399 207.011 305.773C206.603 306.147 206.064 306.398 205.391 306.526C205.879 306.582 206.326 306.729 206.734 306.966C207.141 307.198 207.468 307.51 207.714 307.903C207.965 308.296 208.09 308.765 208.09 309.31C208.09 309.887 207.941 310.399 207.643 310.844C207.344 311.284 206.911 311.63 206.343 311.881C205.78 312.127 205.1 312.25 204.305 312.25H199.092ZM201.087 310.474H204.305C204.83 310.474 205.242 310.349 205.54 310.098C205.839 309.847 205.988 309.506 205.988 309.075C205.988 308.569 205.839 308.171 205.54 307.882C205.242 307.589 204.83 307.442 204.305 307.442H201.087V310.474ZM201.087 305.886H203.637C204.035 305.886 204.376 305.83 204.66 305.716C204.949 305.602 205.169 305.441 205.32 305.233C205.477 305.02 205.555 304.769 205.555 304.48C205.555 304.059 205.382 303.73 205.036 303.493C204.691 303.256 204.217 303.138 203.616 303.138H201.087V305.886ZM212.501 309.274L217.309 301.341H219.596V312.25H217.515V304.31L212.728 312.25H210.42V301.341H212.501V309.274ZM221.098 303.173V301.341H230.303V303.173H226.744V312.25H224.67V303.173H221.098ZM234.147 305.091H237.314C238.65 305.091 239.677 305.422 240.397 306.085C241.116 306.748 241.476 307.603 241.476 308.649C241.476 309.331 241.315 309.944 240.993 310.489C240.671 311.033 240.2 311.464 239.58 311.781C238.96 312.094 238.204 312.25 237.314 312.25H232.549V301.341H234.63V310.418H237.314C237.925 310.418 238.427 310.259 238.82 309.942C239.213 309.62 239.409 309.21 239.409 308.713C239.409 308.187 239.213 307.759 238.82 307.428C238.427 307.091 237.925 306.923 237.314 306.923H234.147V305.091ZM249.15 312.25V301.341H253.674C254.905 301.341 255.881 301.604 256.6 302.129C257.32 302.65 257.68 303.358 257.68 304.253C257.68 304.892 257.476 305.399 257.069 305.773C256.662 306.147 256.122 306.398 255.45 306.526C255.938 306.582 256.385 306.729 256.792 306.966C257.199 307.198 257.526 307.51 257.772 307.903C258.023 308.296 258.149 308.765 258.149 309.31C258.149 309.887 258 310.399 257.701 310.844C257.403 311.284 256.97 311.63 256.402 311.881C255.838 312.127 255.159 312.25 254.363 312.25H249.15ZM251.146 310.474H254.363C254.889 310.474 255.301 310.349 255.599 310.098C255.897 309.847 256.047 309.506 256.047 309.075C256.047 308.569 255.897 308.171 255.599 307.882C255.301 307.589 254.889 307.442 254.363 307.442H251.146V310.474ZM251.146 305.886H253.696C254.093 305.886 254.434 305.83 254.718 305.716C255.007 305.602 255.227 305.441 255.379 305.233C255.535 305.02 255.613 304.769 255.613 304.48C255.613 304.059 255.44 303.73 255.095 303.493C254.749 303.256 254.276 303.138 253.674 303.138H251.146V305.886ZM265.771 312.25V301.341H267.895V305.915H268.918L272.518 301.341H275.146L270.92 306.646L275.196 312.25H272.561L269.273 307.889H267.895V312.25H265.771ZM280.991 312.47C279.969 312.47 279.076 312.236 278.314 311.767C277.552 311.298 276.96 310.643 276.538 309.8C276.117 308.957 275.906 307.972 275.906 306.845C275.906 305.714 276.117 304.724 276.538 303.876C276.96 303.029 277.552 302.371 278.314 301.902C279.076 301.433 279.969 301.199 280.991 301.199C282.014 301.199 282.907 301.433 283.669 301.902C284.431 302.371 285.023 303.029 285.445 303.876C285.866 304.724 286.077 305.714 286.077 306.845C286.077 307.972 285.866 308.957 285.445 309.8C285.023 310.643 284.431 311.298 283.669 311.767C282.907 312.236 282.014 312.47 280.991 312.47ZM280.999 310.688C281.661 310.688 282.211 310.512 282.646 310.162C283.082 309.812 283.404 309.345 283.612 308.763C283.825 308.18 283.932 307.539 283.932 306.838C283.932 306.142 283.825 305.503 283.612 304.92C283.404 304.333 283.082 303.862 282.646 303.507C282.211 303.152 281.661 302.974 280.999 302.974C280.331 302.974 279.777 303.152 279.337 303.507C278.901 303.862 278.577 304.333 278.364 304.92C278.155 305.503 278.051 306.142 278.051 306.838C278.051 307.539 278.155 308.18 278.364 308.763C278.577 309.345 278.901 309.812 279.337 310.162C279.777 310.512 280.331 310.688 280.999 310.688ZM288.447 316.341V301.341H290.521V303.109H290.699C290.822 302.882 290.999 302.619 291.231 302.321C291.463 302.023 291.785 301.762 292.197 301.54C292.609 301.312 293.154 301.199 293.831 301.199C294.711 301.199 295.497 301.421 296.189 301.866C296.88 302.312 297.422 302.953 297.815 303.791C298.213 304.629 298.412 305.638 298.412 306.817C298.412 307.996 298.215 309.007 297.822 309.849C297.429 310.687 296.889 311.334 296.203 311.788C295.516 312.238 294.733 312.463 293.852 312.463C293.189 312.463 292.647 312.352 292.225 312.129C291.809 311.907 291.482 311.646 291.245 311.348C291.009 311.05 290.826 310.785 290.699 310.553H290.571V316.341H288.447ZM290.528 306.795C290.528 307.562 290.639 308.235 290.862 308.812C291.084 309.39 291.406 309.842 291.828 310.169C292.249 310.491 292.765 310.652 293.376 310.652C294.011 310.652 294.541 310.484 294.967 310.148C295.393 309.807 295.715 309.345 295.933 308.763C296.155 308.18 296.267 307.525 296.267 306.795C296.267 306.076 296.158 305.429 295.94 304.857C295.727 304.284 295.405 303.831 294.974 303.5C294.548 303.169 294.015 303.003 293.376 303.003C292.761 303.003 292.24 303.161 291.814 303.479C291.392 303.796 291.073 304.239 290.855 304.807C290.637 305.375 290.528 306.038 290.528 306.795ZM300.145 309.366H302.318C302.346 309.812 302.547 310.155 302.922 310.396C303.3 310.638 303.79 310.759 304.392 310.759C305.002 310.759 305.523 310.628 305.954 310.368C306.385 310.103 306.6 309.693 306.6 309.139C306.6 308.808 306.518 308.519 306.352 308.273C306.191 308.022 305.961 307.828 305.663 307.69C305.369 307.553 305.021 307.484 304.619 307.484H302.843V305.815H304.619C305.22 305.815 305.67 305.678 305.968 305.403C306.267 305.129 306.416 304.786 306.416 304.374C306.416 303.929 306.255 303.571 305.933 303.301C305.616 303.027 305.173 302.889 304.605 302.889C304.027 302.889 303.547 303.019 303.163 303.28C302.779 303.536 302.578 303.867 302.559 304.274H300.414C300.429 303.663 300.613 303.128 300.968 302.669C301.328 302.205 301.811 301.845 302.417 301.589C303.028 301.329 303.722 301.199 304.498 301.199C305.308 301.199 306.009 301.329 306.6 301.589C307.192 301.85 307.649 302.21 307.971 302.669C308.298 303.128 308.461 303.656 308.461 304.253C308.461 304.854 308.281 305.347 307.922 305.73C307.566 306.109 307.102 306.381 306.529 306.547V306.661C306.951 306.689 307.325 306.817 307.652 307.044C307.978 307.271 308.234 307.572 308.419 307.946C308.603 308.32 308.696 308.744 308.696 309.217C308.696 309.885 308.511 310.463 308.142 310.95C307.777 311.438 307.27 311.814 306.622 312.08C305.978 312.34 305.242 312.47 304.413 312.47C303.608 312.47 302.886 312.345 302.247 312.094C301.612 311.838 301.108 311.478 300.734 311.014C300.365 310.55 300.168 310.001 300.145 309.366ZM312.969 309.274L317.778 301.341H320.065V312.25H317.984V304.31L313.197 312.25H310.888V301.341H312.969V309.274ZM330.313 305.879V307.719H324.404V305.879H330.313ZM325.001 301.341V312.25H322.92V301.341H325.001ZM331.798 301.341V312.25H329.724V301.341H331.798ZM335.59 316.341C335.273 316.341 334.984 316.315 334.724 316.263C334.463 316.215 334.269 316.163 334.141 316.107L334.653 314.366C335.041 314.471 335.387 314.516 335.69 314.501C335.993 314.487 336.26 314.374 336.492 314.161C336.729 313.947 336.937 313.599 337.117 313.116L337.38 312.392L333.388 301.341H335.661L338.424 309.807H338.538L341.3 301.341H343.58L339.085 313.706C338.876 314.274 338.611 314.755 338.289 315.148C337.967 315.545 337.584 315.844 337.138 316.043C336.693 316.241 336.177 316.341 335.59 316.341Z" fill="#0A2832"/>
<rect x="110.25" y="379.375" width="187.5" height="18.5" stroke="#058CD7" stroke-width="1.5"/>
<path d="M111 381.292H114.176L116.176 388.625H123.186L125.245 382.448L126.51 382.87L124.147 389.958H116.187L115.853 391.292H125.667V392.625H114.147L114.977 389.299L113.157 382.625H111V381.292ZM120.333 381.958V383.958H122.333V385.292H120.333V387.292H119V385.292H117V383.958H119V381.958H120.333ZM113.667 394.625C113.667 394.271 113.807 393.932 114.057 393.682C114.307 393.432 114.646 393.292 115 393.292C115.354 393.292 115.693 393.432 115.943 393.682C116.193 393.932 116.333 394.271 116.333 394.625C116.333 394.979 116.193 395.318 115.943 395.568C115.693 395.818 115.354 395.958 115 395.958C114.646 395.958 114.307 395.818 114.057 395.568C113.807 395.318 113.667 394.979 113.667 394.625ZM123 394.625C123 394.271 123.14 393.932 123.391 393.682C123.641 393.432 123.98 393.292 124.333 393.292C124.687 393.292 125.026 393.432 125.276 393.682C125.526 393.932 125.667 394.271 125.667 394.625C125.667 394.979 125.526 395.318 125.276 395.568C125.026 395.818 124.687 395.958 124.333 395.958C123.98 395.958 123.641 395.818 123.391 395.568C123.14 395.318 123 394.979 123 394.625Z" fill="#0A2832"/>
<path d="M127 380.125V397.125" stroke="#058CD7" stroke-width="1.5"/>
<path d="M139 380.125V397.125" stroke="#058CD7" stroke-width="1.5"/>
<path d="M139.398 396.938V392.636H140.165C140.426 392.417 140.67 392.104 140.898 391.699C141.125 391.294 141.318 390.746 141.477 390.057C141.636 389.367 141.746 388.483 141.807 387.403L142.08 382.489H149.256V392.636H150.574V396.92H148.892V394.125H141.08V396.938H139.398ZM142.233 392.636H147.574V384H143.67L143.489 387.403C143.439 388.225 143.358 388.964 143.244 389.619C143.134 390.275 142.992 390.854 142.818 391.358C142.648 391.858 142.453 392.284 142.233 392.636ZM156.037 394.301C155.219 394.301 154.505 394.114 153.895 393.739C153.285 393.364 152.812 392.839 152.474 392.165C152.137 391.491 151.969 390.703 151.969 389.801C151.969 388.896 152.137 388.104 152.474 387.426C152.812 386.748 153.285 386.222 153.895 385.847C154.505 385.472 155.219 385.284 156.037 385.284C156.855 385.284 157.569 385.472 158.179 385.847C158.789 386.222 159.262 386.748 159.599 387.426C159.937 388.104 160.105 388.896 160.105 389.801C160.105 390.703 159.937 391.491 159.599 392.165C159.262 392.839 158.789 393.364 158.179 393.739C157.569 394.114 156.855 394.301 156.037 394.301ZM156.043 392.875C156.573 392.875 157.012 392.735 157.361 392.455C157.709 392.174 157.967 391.801 158.134 391.335C158.304 390.869 158.389 390.356 158.389 389.795C158.389 389.239 158.304 388.727 158.134 388.261C157.967 387.792 157.709 387.415 157.361 387.131C157.012 386.847 156.573 386.705 156.043 386.705C155.509 386.705 155.065 386.847 154.713 387.131C154.365 387.415 154.105 387.792 153.935 388.261C153.768 388.727 153.685 389.239 153.685 389.795C153.685 390.356 153.768 390.869 153.935 391.335C154.105 391.801 154.365 392.174 154.713 392.455C155.065 392.735 155.509 392.875 156.043 392.875ZM168.734 382.148L169.439 383.222C169.178 383.46 168.88 383.631 168.547 383.733C168.217 383.831 167.837 383.894 167.405 383.92C166.973 383.943 166.479 383.964 165.922 383.983C165.293 384.002 164.776 384.138 164.371 384.392C163.965 384.642 163.653 385.013 163.433 385.506C163.217 385.994 163.077 386.608 163.013 387.347H163.121C163.405 386.805 163.799 386.4 164.303 386.131C164.81 385.862 165.38 385.727 166.013 385.727C166.717 385.727 167.344 385.888 167.893 386.21C168.443 386.532 168.875 387.004 169.189 387.625C169.507 388.242 169.666 388.998 169.666 389.892C169.666 390.797 169.5 391.58 169.166 392.239C168.837 392.898 168.371 393.407 167.768 393.767C167.17 394.123 166.464 394.301 165.649 394.301C164.835 394.301 164.125 394.117 163.518 393.75C162.916 393.379 162.448 392.83 162.115 392.102C161.786 391.375 161.621 390.477 161.621 389.409V388.545C161.621 386.549 161.977 385.047 162.689 384.04C163.401 383.032 164.465 382.515 165.882 382.489C166.34 382.477 166.75 382.475 167.109 382.483C167.469 382.487 167.784 382.47 168.053 382.432C168.325 382.39 168.553 382.295 168.734 382.148ZM165.655 392.875C166.128 392.875 166.536 392.756 166.876 392.517C167.221 392.275 167.486 391.932 167.672 391.489C167.857 391.045 167.95 390.523 167.95 389.92C167.95 389.33 167.857 388.828 167.672 388.415C167.486 388.002 167.221 387.687 166.876 387.472C166.532 387.252 166.119 387.142 165.638 387.142C165.282 387.142 164.964 387.205 164.683 387.33C164.403 387.451 164.162 387.631 163.962 387.869C163.765 388.108 163.611 388.4 163.501 388.744C163.395 389.085 163.339 389.477 163.331 389.92C163.331 390.822 163.537 391.54 163.95 392.074C164.367 392.608 164.935 392.875 165.655 392.875ZM174.104 394.318C173.551 394.318 173.051 394.216 172.604 394.011C172.157 393.803 171.803 393.502 171.541 393.108C171.284 392.714 171.155 392.231 171.155 391.659C171.155 391.167 171.25 390.761 171.439 390.443C171.628 390.125 171.884 389.873 172.206 389.688C172.528 389.502 172.888 389.362 173.286 389.267C173.683 389.172 174.089 389.1 174.501 389.051C175.024 388.991 175.448 388.941 175.774 388.903C176.1 388.862 176.337 388.795 176.484 388.705C176.632 388.614 176.706 388.466 176.706 388.261V388.222C176.706 387.725 176.566 387.341 176.286 387.068C176.009 386.795 175.596 386.659 175.047 386.659C174.475 386.659 174.024 386.786 173.695 387.04C173.369 387.29 173.143 387.568 173.018 387.875L171.422 387.511C171.611 386.981 171.888 386.553 172.251 386.227C172.619 385.898 173.041 385.659 173.518 385.511C173.996 385.36 174.498 385.284 175.024 385.284C175.373 385.284 175.742 385.326 176.132 385.409C176.526 385.489 176.893 385.636 177.234 385.852C177.579 386.068 177.861 386.377 178.081 386.778C178.301 387.176 178.411 387.693 178.411 388.33V394.125H176.751V392.932H176.683C176.573 393.152 176.409 393.367 176.189 393.58C175.969 393.792 175.687 393.968 175.342 394.108C174.998 394.248 174.585 394.318 174.104 394.318ZM174.473 392.955C174.943 392.955 175.344 392.862 175.678 392.676C176.015 392.491 176.27 392.248 176.445 391.949C176.623 391.646 176.712 391.322 176.712 390.977V389.852C176.651 389.913 176.534 389.97 176.359 390.023C176.189 390.072 175.994 390.116 175.774 390.153C175.554 390.187 175.34 390.22 175.132 390.25C174.924 390.277 174.75 390.299 174.609 390.318C174.28 390.36 173.979 390.43 173.706 390.528C173.437 390.627 173.221 390.769 173.058 390.955C172.899 391.136 172.82 391.379 172.82 391.682C172.82 392.102 172.975 392.42 173.286 392.636C173.596 392.848 173.992 392.955 174.473 392.955ZM180.673 394.125V385.398H184.293C185.277 385.398 186.058 385.608 186.634 386.028C187.209 386.445 187.497 387.011 187.497 387.727C187.497 388.239 187.334 388.644 187.009 388.943C186.683 389.242 186.251 389.443 185.713 389.545C186.103 389.591 186.461 389.708 186.787 389.898C187.113 390.083 187.374 390.333 187.571 390.648C187.772 390.962 187.872 391.337 187.872 391.773C187.872 392.235 187.753 392.644 187.514 393C187.276 393.352 186.929 393.629 186.474 393.83C186.024 394.027 185.48 394.125 184.844 394.125H180.673ZM182.27 392.705H184.844C185.264 392.705 185.594 392.604 185.832 392.403C186.071 392.203 186.19 391.93 186.19 391.585C186.19 391.18 186.071 390.862 185.832 390.631C185.594 390.396 185.264 390.278 184.844 390.278H182.27V392.705ZM182.27 389.034H184.31C184.628 389.034 184.901 388.989 185.128 388.898C185.359 388.807 185.535 388.678 185.656 388.511C185.781 388.341 185.844 388.14 185.844 387.909C185.844 387.572 185.705 387.309 185.429 387.119C185.152 386.93 184.774 386.835 184.293 386.835H182.27V389.034ZM191.401 391.744L195.247 385.398H197.077V394.125H195.412V387.773L191.582 394.125H189.736V385.398H191.401V391.744ZM198.278 386.864V385.398H205.642V386.864H202.795V394.125H201.136V386.864H198.278ZM208.717 388.398H211.251C212.32 388.398 213.142 388.663 213.717 389.193C214.293 389.723 214.581 390.407 214.581 391.244C214.581 391.79 214.452 392.28 214.195 392.716C213.937 393.152 213.56 393.496 213.064 393.75C212.568 394 211.964 394.125 211.251 394.125H207.439V385.398H209.104V392.659H211.251C211.74 392.659 212.142 392.532 212.456 392.278C212.77 392.021 212.928 391.693 212.928 391.295C212.928 390.875 212.77 390.532 212.456 390.267C212.142 389.998 211.74 389.864 211.251 389.864H208.717V388.398ZM220.72 394.125V385.398H224.339C225.324 385.398 226.105 385.608 226.68 386.028C227.256 386.445 227.544 387.011 227.544 387.727C227.544 388.239 227.381 388.644 227.055 388.943C226.73 389.242 226.298 389.443 225.76 389.545C226.15 389.591 226.508 389.708 226.834 389.898C227.16 390.083 227.421 390.333 227.618 390.648C227.819 390.962 227.919 391.337 227.919 391.773C227.919 392.235 227.8 392.644 227.561 393C227.322 393.352 226.976 393.629 226.521 393.83C226.071 394.027 225.527 394.125 224.891 394.125H220.72ZM222.317 392.705H224.891C225.311 392.705 225.641 392.604 225.879 392.403C226.118 392.203 226.237 391.93 226.237 391.585C226.237 391.18 226.118 390.862 225.879 390.631C225.641 390.396 225.311 390.278 224.891 390.278H222.317V392.705ZM222.317 389.034H224.357C224.675 389.034 224.947 388.989 225.175 388.898C225.406 388.807 225.582 388.678 225.703 388.511C225.828 388.341 225.891 388.14 225.891 387.909C225.891 387.572 225.752 387.309 225.476 387.119C225.199 386.93 224.821 386.835 224.339 386.835H222.317V389.034ZM234.017 394.125V385.398H235.716V389.057H236.534L239.415 385.398H241.517L238.136 389.642L241.557 394.125H239.449L236.818 390.636H235.716V394.125H234.017ZM246.193 394.301C245.375 394.301 244.661 394.114 244.051 393.739C243.441 393.364 242.968 392.839 242.631 392.165C242.294 391.491 242.125 390.703 242.125 389.801C242.125 388.896 242.294 388.104 242.631 387.426C242.968 386.748 243.441 386.222 244.051 385.847C244.661 385.472 245.375 385.284 246.193 385.284C247.011 385.284 247.725 385.472 248.335 385.847C248.945 386.222 249.419 386.748 249.756 387.426C250.093 388.104 250.261 388.896 250.261 389.801C250.261 390.703 250.093 391.491 249.756 392.165C249.419 392.839 248.945 393.364 248.335 393.739C247.725 394.114 247.011 394.301 246.193 394.301ZM246.199 392.875C246.729 392.875 247.169 392.735 247.517 392.455C247.866 392.174 248.123 391.801 248.29 391.335C248.46 390.869 248.545 390.356 248.545 389.795C248.545 389.239 248.46 388.727 248.29 388.261C248.123 387.792 247.866 387.415 247.517 387.131C247.169 386.847 246.729 386.705 246.199 386.705C245.665 386.705 245.222 386.847 244.869 387.131C244.521 387.415 244.261 387.792 244.091 388.261C243.924 388.727 243.841 389.239 243.841 389.795C243.841 390.356 243.924 390.869 244.091 391.335C244.261 391.801 244.521 392.174 244.869 392.455C245.222 392.735 245.665 392.875 246.199 392.875ZM252.158 397.398V385.398H253.817V386.812H253.959C254.057 386.631 254.199 386.42 254.385 386.182C254.571 385.943 254.828 385.735 255.158 385.557C255.487 385.375 255.923 385.284 256.464 385.284C257.169 385.284 257.798 385.462 258.351 385.818C258.904 386.174 259.338 386.687 259.652 387.358C259.97 388.028 260.129 388.835 260.129 389.778C260.129 390.722 259.972 391.53 259.658 392.205C259.343 392.875 258.911 393.392 258.362 393.756C257.813 394.116 257.186 394.295 256.482 394.295C255.951 394.295 255.518 394.206 255.18 394.028C254.847 393.85 254.586 393.642 254.396 393.403C254.207 393.165 254.061 392.953 253.959 392.767H253.857V397.398H252.158ZM253.822 389.761C253.822 390.375 253.911 390.913 254.089 391.375C254.268 391.837 254.525 392.199 254.862 392.46C255.199 392.718 255.612 392.847 256.101 392.847C256.608 392.847 257.033 392.712 257.374 392.443C257.714 392.17 257.972 391.801 258.146 391.335C258.324 390.869 258.413 390.345 258.413 389.761C258.413 389.186 258.326 388.669 258.152 388.21C257.982 387.752 257.724 387.39 257.379 387.125C257.038 386.86 256.612 386.727 256.101 386.727C255.608 386.727 255.192 386.854 254.851 387.108C254.514 387.362 254.258 387.716 254.084 388.17C253.91 388.625 253.822 389.155 253.822 389.761ZM261.516 391.818H263.254C263.277 392.174 263.438 392.449 263.737 392.642C264.04 392.835 264.432 392.932 264.913 392.932C265.402 392.932 265.819 392.828 266.163 392.619C266.508 392.407 266.68 392.08 266.68 391.636C266.68 391.371 266.614 391.14 266.482 390.943C266.353 390.742 266.169 390.587 265.93 390.477C265.696 390.367 265.417 390.312 265.095 390.312H263.675V388.977H265.095C265.576 388.977 265.936 388.867 266.175 388.648C266.413 388.428 266.533 388.153 266.533 387.824C266.533 387.468 266.404 387.182 266.146 386.966C265.893 386.746 265.538 386.636 265.084 386.636C264.622 386.636 264.237 386.741 263.93 386.949C263.624 387.153 263.463 387.419 263.447 387.744H261.732C261.743 387.256 261.891 386.828 262.175 386.46C262.463 386.089 262.849 385.801 263.334 385.597C263.822 385.388 264.377 385.284 264.999 385.284C265.646 385.284 266.207 385.388 266.68 385.597C267.154 385.805 267.519 386.093 267.777 386.46C268.038 386.828 268.169 387.25 268.169 387.727C268.169 388.208 268.025 388.602 267.737 388.909C267.453 389.212 267.082 389.43 266.624 389.562V389.653C266.961 389.676 267.26 389.778 267.521 389.96C267.783 390.142 267.987 390.383 268.135 390.682C268.283 390.981 268.357 391.32 268.357 391.699C268.357 392.233 268.209 392.695 267.913 393.085C267.622 393.475 267.216 393.777 266.697 393.989C266.182 394.197 265.593 394.301 264.93 394.301C264.286 394.301 263.709 394.201 263.197 394C262.69 393.795 262.286 393.508 261.987 393.136C261.692 392.765 261.535 392.326 261.516 391.818ZM271.776 391.744L275.622 385.398H277.452V394.125H275.787V387.773L271.957 394.125H270.111V385.398H271.776V391.744ZM285.651 389.028V390.5H280.923V389.028H285.651ZM281.401 385.398V394.125H279.736V385.398H281.401ZM286.838 385.398V394.125H285.179V385.398H286.838ZM289.872 397.398C289.618 397.398 289.387 397.377 289.179 397.335C288.971 397.297 288.815 397.256 288.713 397.21L289.122 395.818C289.433 395.902 289.709 395.938 289.952 395.926C290.194 395.915 290.408 395.824 290.594 395.653C290.783 395.483 290.95 395.205 291.094 394.818L291.304 394.239L288.111 385.398H289.929L292.139 392.17H292.23L294.44 385.398H296.264L292.668 395.29C292.501 395.744 292.289 396.129 292.031 396.443C291.774 396.761 291.467 397 291.111 397.159C290.755 397.318 290.342 397.398 289.872 397.398Z" fill="#0A2832"/>
<rect x="110.25" y="459.25" width="140.5" height="13.5" stroke="#058CD7" stroke-width="1.5"/>
<g clip-path="url(#clip0_1431_4158)">
<path d="M111 460.5H113.382L114.882 466H120.14L121.684 461.368L122.633 461.684L120.86 467H114.89L114.64 468H122V469H113.36L113.983 466.506L112.618 461.5H111V460.5ZM118 461V462.5H119.5V463.5H118V465H117V463.5H115.5V462.5H117V461H118ZM113 470.5C113 470.235 113.105 469.98 113.293 469.793C113.48 469.605 113.735 469.5 114 469.5C114.265 469.5 114.52 469.605 114.707 469.793C114.895 469.98 115 470.235 115 470.5C115 470.765 114.895 471.02 114.707 471.207C114.52 471.395 114.265 471.5 114 471.5C113.735 471.5 113.48 471.395 113.293 471.207C113.105 471.02 113 470.765 113 470.5ZM120 470.5C120 470.235 120.105 469.98 120.293 469.793C120.48 469.605 120.735 469.5 121 469.5C121.265 469.5 121.52 469.605 121.707 469.793C121.895 469.98 122 470.235 122 470.5C122 470.765 121.895 471.02 121.707 471.207C121.52 471.395 121.265 471.5 121 471.5C120.735 471.5 120.48 471.395 120.293 471.207C120.105 471.02 120 470.765 120 470.5Z" fill="#0A2832"/>
</g>
<path d="M123 460V472" stroke="#058CD7" stroke-width="1.5"/>
<path d="M131 460V472" stroke="#058CD7" stroke-width="1.5"/>
<path d="M131.298 472.109V468.884H131.874C132.07 468.719 132.253 468.484 132.423 468.18C132.594 467.876 132.739 467.466 132.858 466.949C132.977 466.432 133.06 465.768 133.105 464.959L133.31 461.273H138.692V468.884H139.68V472.097H138.419V470H132.56V472.109H131.298ZM133.425 468.884H137.43V462.406H134.503L134.366 464.959C134.33 465.575 134.268 466.129 134.183 466.621C134.101 467.112 133.994 467.547 133.864 467.925C133.736 468.3 133.589 468.619 133.425 468.884ZM143.778 470.132C143.164 470.132 142.629 469.991 142.171 469.71C141.714 469.429 141.359 469.036 141.106 468.53C140.853 468.024 140.727 467.433 140.727 466.757C140.727 466.078 140.853 465.484 141.106 464.976C141.359 464.467 141.714 464.072 142.171 463.791C142.629 463.51 143.164 463.369 143.778 463.369C144.391 463.369 144.927 463.51 145.384 463.791C145.842 464.072 146.197 464.467 146.45 464.976C146.702 465.484 146.829 466.078 146.829 466.757C146.829 467.433 146.702 468.024 146.45 468.53C146.197 469.036 145.842 469.429 145.384 469.71C144.927 469.991 144.391 470.132 143.778 470.132ZM143.782 469.062C144.18 469.062 144.509 468.957 144.771 468.747C145.032 468.537 145.225 468.257 145.35 467.908C145.478 467.558 145.542 467.173 145.542 466.753C145.542 466.335 145.478 465.952 145.35 465.602C145.225 465.25 145.032 464.967 144.771 464.754C144.509 464.541 144.18 464.435 143.782 464.435C143.381 464.435 143.049 464.541 142.785 464.754C142.523 464.967 142.329 465.25 142.201 465.602C142.076 465.952 142.013 466.335 142.013 466.753C142.013 467.173 142.076 467.558 142.201 467.908C142.329 468.257 142.523 468.537 142.785 468.747C143.049 468.957 143.381 469.062 143.782 469.062ZM153.301 461.017L153.829 461.822C153.633 462.001 153.41 462.129 153.16 462.206C152.913 462.28 152.627 462.327 152.304 462.347C151.98 462.364 151.609 462.379 151.191 462.393C150.72 462.408 150.332 462.51 150.028 462.7C149.724 462.888 149.49 463.166 149.325 463.536C149.163 463.902 149.058 464.362 149.01 464.916H149.091C149.304 464.51 149.599 464.206 149.977 464.004C150.358 463.803 150.785 463.702 151.26 463.702C151.788 463.702 152.258 463.822 152.67 464.064C153.082 464.305 153.406 464.659 153.642 465.125C153.88 465.588 154 466.155 154 466.825C154 467.504 153.875 468.091 153.625 468.585C153.377 469.08 153.028 469.462 152.576 469.732C152.127 469.999 151.598 470.132 150.987 470.132C150.376 470.132 149.843 469.994 149.389 469.719C148.937 469.44 148.586 469.028 148.336 468.483C148.089 467.937 147.966 467.264 147.966 466.463V465.815C147.966 464.318 148.233 463.192 148.767 462.436C149.301 461.68 150.099 461.293 151.162 461.273C151.505 461.264 151.812 461.263 152.082 461.268C152.352 461.271 152.588 461.259 152.789 461.23C152.994 461.199 153.164 461.128 153.301 461.017ZM150.991 469.062C151.346 469.062 151.652 468.973 151.907 468.794C152.166 468.612 152.365 468.355 152.504 468.023C152.643 467.69 152.713 467.298 152.713 466.847C152.713 466.403 152.643 466.027 152.504 465.717C152.365 465.408 152.166 465.172 151.907 465.01C151.649 464.845 151.339 464.763 150.978 464.763C150.711 464.763 150.473 464.81 150.262 464.903C150.052 464.994 149.872 465.129 149.721 465.308C149.574 465.487 149.458 465.706 149.376 465.964C149.297 466.22 149.254 466.514 149.248 466.847C149.248 467.523 149.403 468.061 149.713 468.462C150.025 468.862 150.451 469.062 150.991 469.062ZM157.328 470.145C156.913 470.145 156.538 470.068 156.203 469.915C155.868 469.759 155.602 469.533 155.406 469.237C155.213 468.942 155.116 468.58 155.116 468.151C155.116 467.781 155.187 467.477 155.329 467.239C155.471 467 155.663 466.811 155.904 466.672C156.146 466.533 156.416 466.428 156.714 466.357C157.012 466.286 157.316 466.232 157.626 466.195C158.018 466.149 158.336 466.112 158.581 466.084C158.825 466.053 159.002 466.003 159.113 465.935C159.224 465.866 159.279 465.756 159.279 465.602V465.572C159.279 465.2 159.174 464.912 158.964 464.707C158.757 464.503 158.447 464.401 158.035 464.401C157.606 464.401 157.268 464.496 157.021 464.686C156.777 464.874 156.608 465.082 156.514 465.312L155.316 465.04C155.458 464.642 155.666 464.321 155.939 464.077C156.214 463.83 156.531 463.651 156.889 463.54C157.247 463.426 157.623 463.369 158.018 463.369C158.279 463.369 158.556 463.401 158.849 463.463C159.145 463.523 159.42 463.634 159.676 463.795C159.934 463.957 160.146 464.189 160.311 464.49C160.475 464.788 160.558 465.176 160.558 465.653V470H159.314V469.105H159.262C159.18 469.27 159.056 469.432 158.892 469.591C158.727 469.75 158.515 469.882 158.257 469.987C157.998 470.092 157.689 470.145 157.328 470.145ZM157.605 469.122C157.957 469.122 158.258 469.053 158.508 468.913C158.761 468.774 158.953 468.592 159.083 468.368C159.217 468.141 159.284 467.898 159.284 467.639V466.795C159.238 466.841 159.15 466.884 159.02 466.923C158.892 466.96 158.745 466.993 158.581 467.021C158.416 467.047 158.255 467.071 158.099 467.094C157.943 467.114 157.812 467.131 157.707 467.145C157.46 467.176 157.234 467.229 157.029 467.303C156.828 467.376 156.666 467.483 156.544 467.622C156.424 467.759 156.365 467.94 156.365 468.168C156.365 468.483 156.481 468.722 156.714 468.884C156.947 469.043 157.244 469.122 157.605 469.122ZM162.255 470V463.455H164.969C165.708 463.455 166.293 463.612 166.725 463.928C167.157 464.24 167.373 464.665 167.373 465.202C167.373 465.585 167.251 465.889 167.006 466.114C166.762 466.338 166.438 466.489 166.035 466.565C166.327 466.599 166.596 466.687 166.84 466.83C167.085 466.969 167.281 467.156 167.428 467.392C167.579 467.628 167.654 467.909 167.654 468.236C167.654 468.582 167.565 468.889 167.386 469.156C167.207 469.42 166.947 469.628 166.606 469.778C166.268 469.926 165.86 470 165.383 470H162.255ZM163.452 468.935H165.383C165.698 468.935 165.945 468.859 166.124 468.709C166.303 468.558 166.393 468.354 166.393 468.095C166.393 467.791 166.303 467.553 166.124 467.379C165.945 467.203 165.698 467.115 165.383 467.115H163.452V468.935ZM163.452 466.182H164.982C165.221 466.182 165.425 466.148 165.596 466.08C165.769 466.011 165.901 465.915 165.992 465.79C166.086 465.662 166.133 465.511 166.133 465.338C166.133 465.085 166.029 464.888 165.822 464.746C165.614 464.604 165.33 464.533 164.969 464.533H163.452V466.182ZM170.3 468.214L173.185 463.455H174.558V470H173.309V465.236L170.437 470H169.052V463.455H170.3V468.214ZM175.459 464.554V463.455H180.982V464.554H178.847V470H177.602V464.554H175.459ZM183.288 465.705H185.189C185.99 465.705 186.606 465.903 187.038 466.301C187.47 466.699 187.686 467.212 187.686 467.839C187.686 468.249 187.589 468.616 187.396 468.943C187.203 469.27 186.92 469.528 186.548 469.719C186.176 469.906 185.723 470 185.189 470H182.329V463.455H183.578V468.901H185.189C185.555 468.901 185.856 468.805 186.092 468.615C186.328 468.422 186.446 468.176 186.446 467.878C186.446 467.562 186.328 467.305 186.092 467.107C185.856 466.905 185.555 466.804 185.189 466.804H183.288V465.705ZM192.29 470V463.455H195.005C195.743 463.455 196.328 463.612 196.76 463.928C197.192 464.24 197.408 464.665 197.408 465.202C197.408 465.585 197.286 465.889 197.042 466.114C196.797 466.338 196.473 466.489 196.07 466.565C196.363 466.599 196.631 466.687 196.875 466.83C197.12 466.969 197.316 467.156 197.463 467.392C197.614 467.628 197.689 467.909 197.689 468.236C197.689 468.582 197.6 468.889 197.421 469.156C197.242 469.42 196.982 469.628 196.641 469.778C196.303 469.926 195.895 470 195.418 470H192.29ZM193.488 468.935H195.418C195.733 468.935 195.98 468.859 196.159 468.709C196.338 468.558 196.428 468.354 196.428 468.095C196.428 467.791 196.338 467.553 196.159 467.379C195.98 467.203 195.733 467.115 195.418 467.115H193.488V468.935ZM193.488 466.182H195.017C195.256 466.182 195.461 466.148 195.631 466.08C195.804 466.011 195.936 465.915 196.027 465.79C196.121 465.662 196.168 465.511 196.168 465.338C196.168 465.085 196.064 464.888 195.857 464.746C195.65 464.604 195.365 464.533 195.005 464.533H193.488V466.182ZM202.263 470V463.455H203.537V466.199H204.151L206.311 463.455H207.888L205.352 466.638L207.918 470H206.337L204.364 467.384H203.537V470H202.263ZM211.395 470.132C210.781 470.132 210.246 469.991 209.788 469.71C209.331 469.429 208.976 469.036 208.723 468.53C208.47 468.024 208.344 467.433 208.344 466.757C208.344 466.078 208.47 465.484 208.723 464.976C208.976 464.467 209.331 464.072 209.788 463.791C210.246 463.51 210.781 463.369 211.395 463.369C212.009 463.369 212.544 463.51 213.001 463.791C213.459 464.072 213.814 464.467 214.067 464.976C214.32 465.484 214.446 466.078 214.446 466.757C214.446 467.433 214.32 468.024 214.067 468.53C213.814 469.036 213.459 469.429 213.001 469.71C212.544 469.991 212.009 470.132 211.395 470.132ZM211.399 469.062C211.797 469.062 212.126 468.957 212.388 468.747C212.649 468.537 212.842 468.257 212.967 467.908C213.095 467.558 213.159 467.173 213.159 466.753C213.159 466.335 213.095 465.952 212.967 465.602C212.842 465.25 212.649 464.967 212.388 464.754C212.126 464.541 211.797 464.435 211.399 464.435C210.999 464.435 210.666 464.541 210.402 464.754C210.141 464.967 209.946 465.25 209.818 465.602C209.693 465.952 209.631 466.335 209.631 466.753C209.631 467.173 209.693 467.558 209.818 467.908C209.946 468.257 210.141 468.537 210.402 468.747C210.666 468.957 210.999 469.062 211.399 469.062ZM215.868 472.455V463.455H217.113V464.516H217.219C217.293 464.379 217.4 464.222 217.539 464.043C217.678 463.864 217.871 463.707 218.118 463.574C218.365 463.438 218.692 463.369 219.098 463.369C219.627 463.369 220.098 463.503 220.513 463.77C220.928 464.037 221.253 464.422 221.489 464.925C221.728 465.428 221.847 466.033 221.847 466.74C221.847 467.447 221.729 468.054 221.493 468.56C221.257 469.062 220.934 469.45 220.522 469.723C220.11 469.993 219.64 470.128 219.111 470.128C218.713 470.128 218.388 470.061 218.135 469.928C217.885 469.794 217.689 469.638 217.547 469.459C217.405 469.28 217.296 469.121 217.219 468.982H217.142V472.455H215.868ZM217.117 466.727C217.117 467.187 217.184 467.591 217.317 467.938C217.451 468.284 217.644 468.555 217.897 468.751C218.15 468.945 218.459 469.041 218.826 469.041C219.206 469.041 219.525 468.94 219.78 468.739C220.036 468.534 220.229 468.257 220.36 467.908C220.493 467.558 220.56 467.165 220.56 466.727C220.56 466.295 220.495 465.908 220.364 465.564C220.236 465.22 220.043 464.949 219.784 464.75C219.529 464.551 219.209 464.452 218.826 464.452C218.456 464.452 218.144 464.547 217.888 464.737C217.635 464.928 217.444 465.193 217.313 465.534C217.182 465.875 217.117 466.273 217.117 466.727ZM222.887 468.27H224.191C224.208 468.537 224.328 468.743 224.553 468.888C224.78 469.033 225.074 469.105 225.435 469.105C225.801 469.105 226.114 469.027 226.373 468.871C226.631 468.712 226.76 468.466 226.76 468.134C226.76 467.935 226.711 467.761 226.611 467.614C226.515 467.463 226.377 467.347 226.198 467.264C226.022 467.182 225.813 467.141 225.571 467.141H224.506V466.139H225.571C225.932 466.139 226.202 466.057 226.381 465.892C226.56 465.727 226.65 465.521 226.65 465.274C226.65 465.007 226.553 464.793 226.36 464.631C226.169 464.466 225.904 464.384 225.563 464.384C225.216 464.384 224.928 464.462 224.698 464.618C224.468 464.771 224.347 464.97 224.336 465.214H223.049C223.057 464.848 223.168 464.527 223.381 464.251C223.597 463.973 223.887 463.757 224.25 463.604C224.617 463.447 225.033 463.369 225.499 463.369C225.985 463.369 226.405 463.447 226.76 463.604C227.115 463.76 227.39 463.976 227.583 464.251C227.779 464.527 227.877 464.844 227.877 465.202C227.877 465.562 227.769 465.858 227.553 466.088C227.34 466.315 227.061 466.479 226.718 466.578V466.646C226.971 466.663 227.195 466.74 227.391 466.876C227.587 467.013 227.74 467.193 227.851 467.418C227.962 467.642 228.017 467.896 228.017 468.18C228.017 468.581 227.907 468.928 227.685 469.22C227.466 469.513 227.162 469.739 226.773 469.898C226.387 470.054 225.945 470.132 225.448 470.132C224.965 470.132 224.532 470.057 224.148 469.906C223.767 469.753 223.465 469.537 223.24 469.259C223.019 468.98 222.901 468.651 222.887 468.27ZM230.582 468.214L233.467 463.455H234.839V470H233.59V465.236L230.718 470H229.333V463.455H230.582V468.214ZM240.988 466.178V467.281H237.442V466.178H240.988ZM237.8 463.455V470H236.552V463.455H237.8ZM241.879 463.455V470H240.634V463.455H241.879ZM244.154 472.455C243.964 472.455 243.79 472.439 243.634 472.408C243.478 472.379 243.362 472.348 243.285 472.314L243.592 471.27C243.825 471.332 244.032 471.359 244.214 471.351C244.396 471.342 244.556 471.274 244.695 471.146C244.837 471.018 244.962 470.81 245.07 470.52L245.228 470.085L242.833 463.455H244.197L245.854 468.534H245.923L247.58 463.455H248.948L246.251 470.874C246.126 471.214 245.967 471.503 245.773 471.739C245.58 471.977 245.35 472.156 245.083 472.276C244.816 472.395 244.506 472.455 244.154 472.455Z" fill="#0A2832"/>
<path d="M92.2878 123.119C91.7253 123.119 91.2239 123.023 90.7836 122.83C90.3461 122.636 89.998 122.368 89.7395 122.024C89.4838 121.678 89.3446 121.276 89.3219 120.818H90.3958C90.4185 121.099 90.5151 121.342 90.6855 121.547C90.856 121.749 91.079 121.905 91.3546 122.016C91.6301 122.126 91.9355 122.182 92.2708 122.182C92.6458 122.182 92.9782 122.116 93.2679 121.986C93.5577 121.855 93.785 121.673 93.9498 121.44C94.1145 121.207 94.1969 120.938 94.1969 120.631C94.1969 120.31 94.1174 120.027 93.9583 119.783C93.7992 119.536 93.5662 119.342 93.2594 119.203C92.9526 119.064 92.5776 118.994 92.1344 118.994H91.4355V118.057H92.1344C92.481 118.057 92.785 117.994 93.0463 117.869C93.3105 117.744 93.5165 117.568 93.6642 117.341C93.8148 117.114 93.8901 116.847 93.8901 116.54C93.8901 116.244 93.8248 115.987 93.6941 115.768C93.5634 115.55 93.3787 115.379 93.1401 115.257C92.9043 115.135 92.6259 115.074 92.3049 115.074C92.0037 115.074 91.7196 115.129 91.4526 115.24C91.1884 115.348 90.9725 115.506 90.8049 115.713C90.6373 115.918 90.5463 116.165 90.5321 116.455H89.5094C89.5265 115.997 89.6642 115.597 89.9228 115.253C90.1813 114.906 90.5194 114.636 90.937 114.443C91.3574 114.25 91.8191 114.153 92.3219 114.153C92.8617 114.153 93.3248 114.263 93.7111 114.482C94.0975 114.697 94.3944 114.983 94.6017 115.338C94.8091 115.693 94.9128 116.077 94.9128 116.489C94.9128 116.98 94.7836 117.399 94.525 117.746C94.2694 118.092 93.9213 118.332 93.481 118.466V118.534C94.0321 118.625 94.4625 118.859 94.7722 119.237C95.0819 119.612 95.2367 120.077 95.2367 120.631C95.2367 121.105 95.1074 121.531 94.8489 121.909C94.5932 122.284 94.2438 122.58 93.8006 122.795C93.3574 123.011 92.8532 123.119 92.2878 123.119ZM99.8773 123.119C99.5194 123.114 99.1614 123.045 98.8034 122.915C98.4455 122.784 98.1188 122.564 97.8233 122.254C97.5279 121.942 97.2907 121.52 97.1117 120.989C96.9327 120.455 96.8432 119.784 96.8432 118.977C96.8432 118.205 96.9157 117.52 97.0605 116.923C97.2054 116.324 97.4157 115.82 97.6912 115.411C97.9668 114.999 98.2992 114.686 98.6884 114.473C99.0804 114.26 99.5222 114.153 100.014 114.153C100.502 114.153 100.937 114.251 101.318 114.447C101.701 114.641 102.014 114.911 102.255 115.257C102.497 115.604 102.653 116.003 102.724 116.455H101.684C101.588 116.062 101.4 115.737 101.122 115.479C100.843 115.22 100.474 115.091 100.014 115.091C99.3375 115.091 98.8049 115.385 98.4157 115.973C98.0293 116.561 97.8347 117.386 97.8319 118.449H97.9C98.0591 118.207 98.248 118.001 98.4668 117.831C98.6884 117.658 98.9327 117.524 99.1998 117.43C99.4668 117.337 99.7495 117.29 100.048 117.29C100.548 117.29 101.005 117.415 101.42 117.665C101.835 117.912 102.167 118.254 102.417 118.692C102.667 119.126 102.792 119.625 102.792 120.188C102.792 120.727 102.671 121.222 102.43 121.67C102.188 122.116 101.849 122.472 101.411 122.736C100.977 122.997 100.465 123.125 99.8773 123.119ZM99.8773 122.182C100.235 122.182 100.556 122.092 100.84 121.913C101.127 121.734 101.353 121.494 101.518 121.193C101.686 120.892 101.769 120.557 101.769 120.188C101.769 119.827 101.688 119.499 101.526 119.203C101.367 118.905 101.147 118.668 100.866 118.491C100.588 118.315 100.269 118.227 99.9114 118.227C99.6415 118.227 99.3901 118.281 99.1571 118.389C98.9242 118.494 98.7196 118.639 98.5435 118.824C98.3702 119.009 98.2338 119.22 98.1344 119.459C98.035 119.695 97.9853 119.943 97.9853 120.205C97.9853 120.551 98.0662 120.875 98.2282 121.176C98.3929 121.477 98.6174 121.72 98.9015 121.905C99.1884 122.089 99.5137 122.182 99.8773 122.182Z" fill="#738287"/>
<path d="M90.0733 220V219.233L92.954 216.08C93.2921 215.71 93.5705 215.389 93.7892 215.116C94.008 214.841 94.1699 214.582 94.275 214.341C94.383 214.097 94.437 213.841 94.437 213.574C94.437 213.267 94.3631 213.001 94.2154 212.777C94.0705 212.553 93.8716 212.379 93.6188 212.257C93.3659 212.135 93.0819 212.074 92.7665 212.074C92.4313 212.074 92.1387 212.143 91.8887 212.283C91.6415 212.419 91.4498 212.611 91.3134 212.858C91.1799 213.105 91.1131 213.395 91.1131 213.727H90.1074C90.1074 213.216 90.2253 212.767 90.4611 212.381C90.6969 211.994 91.0179 211.693 91.4242 211.477C91.8333 211.261 92.2921 211.153 92.8006 211.153C93.312 211.153 93.7651 211.261 94.16 211.477C94.5549 211.693 94.8645 211.984 95.089 212.351C95.3134 212.717 95.4256 213.125 95.4256 213.574C95.4256 213.895 95.3674 214.209 95.2509 214.516C95.1373 214.82 94.9384 215.159 94.6543 215.534C94.373 215.906 93.9824 216.361 93.4824 216.898L91.5222 218.994V219.062H95.579V220H90.0733ZM100.134 220.119C99.5492 220.119 99.0321 220.016 98.5833 219.808C98.1373 219.598 97.7892 219.31 97.5392 218.943C97.2892 218.574 97.1657 218.153 97.1685 217.682C97.1657 217.312 97.2381 216.972 97.3858 216.659C97.5336 216.344 97.7353 216.081 97.9909 215.871C98.2495 215.658 98.5378 215.523 98.856 215.466V215.415C98.4384 215.307 98.106 215.072 97.8588 214.712C97.6117 214.348 97.4895 213.935 97.4924 213.472C97.4895 213.028 97.6017 212.632 97.829 212.283C98.0563 211.933 98.3688 211.658 98.7665 211.456C99.1671 211.254 99.623 211.153 100.134 211.153C100.64 211.153 101.092 211.254 101.49 211.456C101.887 211.658 102.2 211.933 102.427 212.283C102.657 212.632 102.774 213.028 102.776 213.472C102.774 213.935 102.647 214.348 102.397 214.712C102.15 215.072 101.822 215.307 101.413 215.415V215.466C101.728 215.523 102.012 215.658 102.265 215.871C102.518 216.081 102.72 216.344 102.87 216.659C103.021 216.972 103.097 217.312 103.1 217.682C103.097 218.153 102.97 218.574 102.717 218.943C102.467 219.31 102.119 219.598 101.673 219.808C101.23 220.016 100.717 220.119 100.134 220.119ZM100.134 219.182C100.529 219.182 100.87 219.118 101.157 218.99C101.444 218.862 101.666 218.682 101.822 218.449C101.978 218.216 102.058 217.943 102.061 217.631C102.058 217.301 101.972 217.01 101.805 216.757C101.637 216.504 101.409 216.305 101.119 216.161C100.832 216.016 100.504 215.943 100.134 215.943C99.7623 215.943 99.4299 216.016 99.1373 216.161C98.8475 216.305 98.6188 216.504 98.4512 216.757C98.2864 217.01 98.2054 217.301 98.2083 217.631C98.2054 217.943 98.2807 218.216 98.4341 218.449C98.5904 218.682 98.8134 218.862 99.1032 218.99C99.3929 219.118 99.7367 219.182 100.134 219.182ZM100.134 215.04C100.447 215.04 100.724 214.977 100.965 214.852C101.21 214.727 101.401 214.553 101.541 214.328C101.68 214.104 101.751 213.841 101.754 213.54C101.751 213.244 101.681 212.987 101.545 212.768C101.409 212.547 101.22 212.376 100.978 212.257C100.737 212.135 100.455 212.074 100.134 212.074C99.8077 212.074 99.5222 212.135 99.2779 212.257C99.0336 212.376 98.8446 212.547 98.7111 212.768C98.5776 212.987 98.5123 213.244 98.5151 213.54C98.5123 213.841 98.579 214.104 98.7154 214.328C98.8546 214.553 99.0463 214.727 99.2907 214.852C99.535 214.977 99.8162 215.04 100.134 215.04Z" fill="#738287"/>
<path d="M90.0147 309V308.233L92.8954 305.08C93.2335 304.71 93.5119 304.389 93.7306 304.116C93.9494 303.841 94.1113 303.582 94.2164 303.341C94.3244 303.097 94.3784 302.841 94.3784 302.574C94.3784 302.267 94.3045 302.001 94.1568 301.777C94.0119 301.553 93.813 301.379 93.5602 301.257C93.3074 301.135 93.0233 301.074 92.7079 301.074C92.3727 301.074 92.0801 301.143 91.8301 301.283C91.5829 301.419 91.3912 301.611 91.2548 301.858C91.1213 302.105 91.0545 302.395 91.0545 302.727H90.0488C90.0488 302.216 90.1667 301.767 90.4025 301.381C90.6383 300.994 90.9593 300.693 91.3656 300.477C91.7747 300.261 92.2335 300.153 92.742 300.153C93.2534 300.153 93.7065 300.261 94.1014 300.477C94.4963 300.693 94.8059 300.984 95.0304 301.351C95.2548 301.717 95.367 302.125 95.367 302.574C95.367 302.895 95.3088 303.209 95.1923 303.516C95.0787 303.82 94.8798 304.159 94.5957 304.534C94.3145 304.906 93.9238 305.361 93.4238 305.898L91.4636 307.994V308.062H95.5204V309H90.0147ZM96.8883 307.21V306.341L100.724 300.273H101.354V301.619H100.928L98.0304 306.205V306.273H103.195V307.21H96.8883ZM100.996 309V306.946V306.541V300.273H102.002V309H100.996Z" fill="#738287"/>
<path d="M93.4384 383.273V392H92.3816V384.381H92.3304L90.1998 385.795V384.722L92.3816 383.273H93.4384ZM98.8461 392.119C98.4881 392.114 98.1301 392.045 97.7722 391.915C97.4142 391.784 97.0875 391.564 96.7921 391.254C96.4966 390.942 96.2594 390.52 96.0804 389.989C95.9015 389.455 95.812 388.784 95.812 387.977C95.812 387.205 95.8844 386.52 96.0293 385.923C96.1742 385.324 96.3844 384.82 96.66 384.411C96.9355 383.999 97.2679 383.686 97.6571 383.473C98.0492 383.26 98.4909 383.153 98.9824 383.153C99.4711 383.153 99.9057 383.251 100.286 383.447C100.67 383.641 100.982 383.911 101.224 384.257C101.465 384.604 101.622 385.003 101.693 385.455H100.653C100.556 385.062 100.369 384.737 100.09 384.479C99.812 384.22 99.4426 384.091 98.9824 384.091C98.3063 384.091 97.7736 384.385 97.3844 384.973C96.998 385.561 96.8034 386.386 96.8006 387.449H96.8688C97.0279 387.207 97.2168 387.001 97.4355 386.831C97.6571 386.658 97.9015 386.524 98.1685 386.43C98.4355 386.337 98.7182 386.29 99.0165 386.29C99.5165 386.29 99.9739 386.415 100.389 386.665C100.803 386.912 101.136 387.254 101.386 387.692C101.636 388.126 101.761 388.625 101.761 389.188C101.761 389.727 101.64 390.222 101.399 390.67C101.157 391.116 100.818 391.472 100.38 391.736C99.9455 391.997 99.4341 392.125 98.8461 392.119ZM98.8461 391.182C99.204 391.182 99.525 391.092 99.8091 390.913C100.096 390.734 100.322 390.494 100.487 390.193C100.654 389.892 100.738 389.557 100.738 389.188C100.738 388.827 100.657 388.499 100.495 388.203C100.336 387.905 100.116 387.668 99.8347 387.491C99.5563 387.315 99.2381 387.227 98.8801 387.227C98.6103 387.227 98.3588 387.281 98.1259 387.389C97.8929 387.494 97.6884 387.639 97.5123 387.824C97.339 388.009 97.2026 388.22 97.1032 388.459C97.0037 388.695 96.954 388.943 96.954 389.205C96.954 389.551 97.035 389.875 97.1969 390.176C97.3617 390.477 97.5861 390.72 97.8702 390.905C98.1571 391.089 98.4824 391.182 98.8461 391.182Z" fill="#738287"/>
<path d="M94.0497 462.273V471H92.9929V463.381H92.9418L90.8111 464.795V463.722L92.9929 462.273H94.0497ZM96.5597 471V470.233L99.4403 467.08C99.7784 466.71 100.057 466.389 100.276 466.116C100.494 465.841 100.656 465.582 100.761 465.341C100.869 465.097 100.923 464.841 100.923 464.574C100.923 464.267 100.849 464.001 100.702 463.777C100.557 463.553 100.358 463.379 100.105 463.257C99.8523 463.135 99.5682 463.074 99.2528 463.074C98.9176 463.074 98.625 463.143 98.375 463.283C98.1278 463.419 97.9361 463.611 97.7997 463.858C97.6662 464.105 97.5994 464.395 97.5994 464.727H96.5938C96.5938 464.216 96.7116 463.767 96.9474 463.381C97.1832 462.994 97.5043 462.693 97.9105 462.477C98.3196 462.261 98.7784 462.153 99.2869 462.153C99.7983 462.153 100.251 462.261 100.646 462.477C101.041 462.693 101.351 462.984 101.575 463.351C101.8 463.717 101.912 464.125 101.912 464.574C101.912 464.895 101.854 465.209 101.737 465.516C101.624 465.82 101.425 466.159 101.141 466.534C100.859 466.906 100.469 467.361 99.9688 467.898L98.0085 469.994V470.062H102.065V471H96.5597Z" fill="#738287"/>
<path d="M114.05 444.273V453H112.993V445.381H112.942L110.811 446.795V445.722L112.993 444.273H114.05ZM116.56 453V452.233L119.44 449.08C119.778 448.71 120.057 448.389 120.276 448.116C120.494 447.841 120.656 447.582 120.761 447.341C120.869 447.097 120.923 446.841 120.923 446.574C120.923 446.267 120.849 446.001 120.702 445.777C120.557 445.553 120.358 445.379 120.105 445.257C119.852 445.135 119.568 445.074 119.253 445.074C118.918 445.074 118.625 445.143 118.375 445.283C118.128 445.419 117.936 445.611 117.8 445.858C117.666 446.105 117.599 446.395 117.599 446.727H116.594C116.594 446.216 116.712 445.767 116.947 445.381C117.183 444.994 117.504 444.693 117.911 444.477C118.32 444.261 118.778 444.153 119.287 444.153C119.798 444.153 120.251 444.261 120.646 444.477C121.041 444.693 121.351 444.984 121.575 445.351C121.8 445.717 121.912 446.125 121.912 446.574C121.912 446.895 121.854 447.209 121.737 447.516C121.624 447.82 121.425 448.159 121.141 448.534C120.859 448.906 120.469 449.361 119.969 449.898L118.009 451.994V452.062H122.065V453H116.56Z" fill="#738287"/>
<path d="M125.288 93.1193C124.725 93.1193 124.224 93.0227 123.784 92.8295C123.346 92.6364 122.998 92.3679 122.74 92.0241C122.484 91.6776 122.345 91.2756 122.322 90.8182H123.396C123.419 91.0994 123.515 91.3423 123.686 91.5469C123.856 91.7486 124.079 91.9048 124.355 92.0156C124.63 92.1264 124.936 92.1818 125.271 92.1818C125.646 92.1818 125.978 92.1165 126.268 91.9858C126.558 91.8551 126.785 91.6733 126.95 91.4403C127.115 91.2074 127.197 90.9375 127.197 90.6307C127.197 90.3097 127.117 90.027 126.958 89.7827C126.799 89.5355 126.566 89.3423 126.259 89.2031C125.953 89.0639 125.578 88.9943 125.134 88.9943H124.436V88.0568H125.134C125.481 88.0568 125.785 87.9943 126.046 87.8693C126.311 87.7443 126.517 87.5682 126.664 87.3409C126.815 87.1136 126.89 86.8466 126.89 86.5398C126.89 86.2443 126.825 85.9872 126.694 85.7685C126.563 85.5497 126.379 85.3793 126.14 85.2571C125.904 85.1349 125.626 85.0739 125.305 85.0739C125.004 85.0739 124.72 85.1293 124.453 85.2401C124.188 85.348 123.972 85.5057 123.805 85.7131C123.637 85.9176 123.546 86.1648 123.532 86.4545H122.509C122.526 85.9972 122.664 85.5966 122.923 85.2528C123.181 84.9062 123.519 84.6364 123.937 84.4432C124.357 84.25 124.819 84.1534 125.322 84.1534C125.862 84.1534 126.325 84.2628 126.711 84.4815C127.097 84.6974 127.394 84.983 127.602 85.3381C127.809 85.6932 127.913 86.0767 127.913 86.4886C127.913 86.9801 127.784 87.3991 127.525 87.7457C127.269 88.0923 126.921 88.3324 126.481 88.4659V88.5341C127.032 88.625 127.463 88.8594 127.772 89.2372C128.082 89.6122 128.237 90.0767 128.237 90.6307C128.237 91.1051 128.107 91.5312 127.849 91.9091C127.593 92.2841 127.244 92.5795 126.801 92.7955C126.357 93.0114 125.853 93.1193 125.288 93.1193ZM132.877 93.1193C132.519 93.1136 132.161 93.0455 131.803 92.9148C131.445 92.7841 131.119 92.5639 130.823 92.2543C130.528 91.9418 130.291 91.5199 130.112 90.9886C129.933 90.4545 129.843 89.7841 129.843 88.9773C129.843 88.2045 129.916 87.5199 130.061 86.9233C130.205 86.3239 130.416 85.8196 130.691 85.4105C130.967 84.9986 131.299 84.6861 131.688 84.473C132.08 84.2599 132.522 84.1534 133.014 84.1534C133.502 84.1534 133.937 84.2514 134.318 84.4474C134.701 84.6406 135.014 84.9105 135.255 85.2571C135.497 85.6037 135.653 86.0028 135.724 86.4545H134.684C134.588 86.0625 134.4 85.7372 134.122 85.4787C133.843 85.2202 133.474 85.0909 133.014 85.0909C132.338 85.0909 131.805 85.3849 131.416 85.973C131.029 86.5611 130.835 87.3864 130.832 88.4489H130.9C131.059 88.2074 131.248 88.0014 131.467 87.831C131.688 87.6577 131.933 87.5241 132.2 87.4304C132.467 87.3366 132.749 87.2898 133.048 87.2898C133.548 87.2898 134.005 87.4148 134.42 87.6648C134.835 87.9119 135.167 88.2543 135.417 88.6918C135.667 89.1264 135.792 89.625 135.792 90.1875C135.792 90.7273 135.671 91.2216 135.43 91.6705C135.188 92.1165 134.849 92.4716 134.411 92.7358C133.977 92.9972 133.465 93.125 132.877 93.1193ZM132.877 92.1818C133.235 92.1818 133.556 92.0923 133.84 91.9134C134.127 91.7344 134.353 91.4943 134.518 91.1932C134.686 90.892 134.769 90.5568 134.769 90.1875C134.769 89.8267 134.688 89.4986 134.526 89.2031C134.367 88.9048 134.147 88.6676 133.866 88.4915C133.588 88.3153 133.269 88.2273 132.911 88.2273C132.642 88.2273 132.39 88.2812 132.157 88.3892C131.924 88.4943 131.72 88.6392 131.544 88.8239C131.37 89.0085 131.234 89.2202 131.134 89.4588C131.035 89.6946 130.985 89.9432 130.985 90.2045C130.985 90.5511 131.066 90.875 131.228 91.1761C131.393 91.4773 131.617 91.7202 131.901 91.9048C132.188 92.0895 132.514 92.1818 132.877 92.1818Z" fill="#738287"/>
<path d="M118.073 194V193.233L120.954 190.08C121.292 189.71 121.57 189.389 121.789 189.116C122.008 188.841 122.17 188.582 122.275 188.341C122.383 188.097 122.437 187.841 122.437 187.574C122.437 187.267 122.363 187.001 122.215 186.777C122.07 186.553 121.872 186.379 121.619 186.257C121.366 186.135 121.082 186.074 120.767 186.074C120.431 186.074 120.139 186.143 119.889 186.283C119.642 186.419 119.45 186.611 119.313 186.858C119.18 187.105 119.113 187.395 119.113 187.727H118.107C118.107 187.216 118.225 186.767 118.461 186.381C118.697 185.994 119.018 185.693 119.424 185.477C119.833 185.261 120.292 185.153 120.801 185.153C121.312 185.153 121.765 185.261 122.16 185.477C122.555 185.693 122.865 185.984 123.089 186.351C123.313 186.717 123.426 187.125 123.426 187.574C123.426 187.895 123.367 188.209 123.251 188.516C123.137 188.82 122.938 189.159 122.654 189.534C122.373 189.906 121.982 190.361 121.482 190.898L119.522 192.994V193.062H123.579V194H118.073ZM128.134 194.119C127.549 194.119 127.032 194.016 126.583 193.808C126.137 193.598 125.789 193.31 125.539 192.943C125.289 192.574 125.166 192.153 125.169 191.682C125.166 191.312 125.238 190.972 125.386 190.659C125.534 190.344 125.735 190.081 125.991 189.871C126.249 189.658 126.538 189.523 126.856 189.466V189.415C126.438 189.307 126.106 189.072 125.859 188.712C125.612 188.348 125.49 187.935 125.492 187.472C125.49 187.028 125.602 186.632 125.829 186.283C126.056 185.933 126.369 185.658 126.767 185.456C127.167 185.254 127.623 185.153 128.134 185.153C128.64 185.153 129.092 185.254 129.49 185.456C129.887 185.658 130.2 185.933 130.427 186.283C130.657 186.632 130.774 187.028 130.776 187.472C130.774 187.935 130.647 188.348 130.397 188.712C130.15 189.072 129.822 189.307 129.413 189.415V189.466C129.728 189.523 130.012 189.658 130.265 189.871C130.518 190.081 130.72 190.344 130.87 190.659C131.021 190.972 131.097 191.312 131.1 191.682C131.097 192.153 130.97 192.574 130.717 192.943C130.467 193.31 130.119 193.598 129.673 193.808C129.23 194.016 128.717 194.119 128.134 194.119ZM128.134 193.182C128.529 193.182 128.87 193.118 129.157 192.99C129.444 192.862 129.666 192.682 129.822 192.449C129.978 192.216 130.058 191.943 130.061 191.631C130.058 191.301 129.972 191.01 129.805 190.757C129.637 190.504 129.409 190.305 129.119 190.161C128.832 190.016 128.504 189.943 128.134 189.943C127.762 189.943 127.43 190.016 127.137 190.161C126.847 190.305 126.619 190.504 126.451 190.757C126.286 191.01 126.205 191.301 126.208 191.631C126.205 191.943 126.281 192.216 126.434 192.449C126.59 192.682 126.813 192.862 127.103 192.99C127.393 193.118 127.737 193.182 128.134 193.182ZM128.134 189.04C128.447 189.04 128.724 188.977 128.965 188.852C129.21 188.727 129.401 188.553 129.541 188.328C129.68 188.104 129.751 187.841 129.754 187.54C129.751 187.244 129.681 186.987 129.545 186.768C129.409 186.547 129.22 186.376 128.978 186.257C128.737 186.135 128.455 186.074 128.134 186.074C127.808 186.074 127.522 186.135 127.278 186.257C127.034 186.376 126.845 186.547 126.711 186.768C126.578 186.987 126.512 187.244 126.515 187.54C126.512 187.841 126.579 188.104 126.715 188.328C126.855 188.553 127.046 188.727 127.291 188.852C127.535 188.977 127.816 189.04 128.134 189.04Z" fill="#738287"/>
<path d="M117.015 286V285.233L119.895 282.08C120.233 281.71 120.512 281.389 120.731 281.116C120.949 280.841 121.111 280.582 121.216 280.341C121.324 280.097 121.378 279.841 121.378 279.574C121.378 279.267 121.305 279.001 121.157 278.777C121.012 278.553 120.813 278.379 120.56 278.257C120.307 278.135 120.023 278.074 119.708 278.074C119.373 278.074 119.08 278.143 118.83 278.283C118.583 278.419 118.391 278.611 118.255 278.858C118.121 279.105 118.055 279.395 118.055 279.727H117.049C117.049 279.216 117.167 278.767 117.403 278.381C117.638 277.994 117.959 277.693 118.366 277.477C118.775 277.261 119.233 277.153 119.742 277.153C120.253 277.153 120.706 277.261 121.101 277.477C121.496 277.693 121.806 277.984 122.03 278.351C122.255 278.717 122.367 279.125 122.367 279.574C122.367 279.895 122.309 280.209 122.192 280.516C122.079 280.82 121.88 281.159 121.596 281.534C121.314 281.906 120.924 282.361 120.424 282.898L118.464 284.994V285.062H122.52V286H117.015ZM123.888 284.21V283.341L127.724 277.273H128.354V278.619H127.928L125.03 283.205V283.273H130.195V284.21H123.888ZM127.996 286V283.946V283.541V277.273H129.002V286H127.996Z" fill="#738287"/>
<path d="M115.438 364.273V373H114.382V365.381H114.33L112.2 366.795V365.722L114.382 364.273H115.438ZM120.846 373.119C120.488 373.114 120.13 373.045 119.772 372.915C119.414 372.784 119.088 372.564 118.792 372.254C118.497 371.942 118.259 371.52 118.08 370.989C117.901 370.455 117.812 369.784 117.812 368.977C117.812 368.205 117.884 367.52 118.029 366.923C118.174 366.324 118.384 365.82 118.66 365.411C118.936 364.999 119.268 364.686 119.657 364.473C120.049 364.26 120.491 364.153 120.982 364.153C121.471 364.153 121.906 364.251 122.286 364.447C122.67 364.641 122.982 364.911 123.224 365.257C123.465 365.604 123.622 366.003 123.693 366.455H122.653C122.556 366.062 122.369 365.737 122.09 365.479C121.812 365.22 121.443 365.091 120.982 365.091C120.306 365.091 119.774 365.385 119.384 365.973C118.998 366.561 118.803 367.386 118.801 368.449H118.869C119.028 368.207 119.217 368.001 119.436 367.831C119.657 367.658 119.901 367.524 120.169 367.43C120.436 367.337 120.718 367.29 121.017 367.29C121.517 367.29 121.974 367.415 122.389 367.665C122.803 367.912 123.136 368.254 123.386 368.692C123.636 369.126 123.761 369.625 123.761 370.188C123.761 370.727 123.64 371.222 123.399 371.67C123.157 372.116 122.818 372.472 122.38 372.736C121.945 372.997 121.434 373.125 120.846 373.119ZM120.846 372.182C121.204 372.182 121.525 372.092 121.809 371.913C122.096 371.734 122.322 371.494 122.487 371.193C122.654 370.892 122.738 370.557 122.738 370.188C122.738 369.827 122.657 369.499 122.495 369.203C122.336 368.905 122.116 368.668 121.835 368.491C121.556 368.315 121.238 368.227 120.88 368.227C120.61 368.227 120.359 368.281 120.126 368.389C119.893 368.494 119.688 368.639 119.512 368.824C119.339 369.009 119.203 369.22 119.103 369.459C119.004 369.695 118.954 369.943 118.954 370.205C118.954 370.551 119.035 370.875 119.197 371.176C119.362 371.477 119.586 371.72 119.87 371.905C120.157 372.089 120.482 372.182 120.846 372.182Z" fill="#738287"/>
<path d="M152.438 146.273V155H151.382V147.381H151.33L149.2 148.795V147.722L151.382 146.273H152.438ZM157.846 155.119C157.488 155.114 157.13 155.045 156.772 154.915C156.414 154.784 156.088 154.564 155.792 154.254C155.497 153.942 155.259 153.52 155.08 152.989C154.901 152.455 154.812 151.784 154.812 150.977C154.812 150.205 154.884 149.52 155.029 148.923C155.174 148.324 155.384 147.82 155.66 147.411C155.936 146.999 156.268 146.686 156.657 146.473C157.049 146.26 157.491 146.153 157.982 146.153C158.471 146.153 158.906 146.251 159.286 146.447C159.67 146.641 159.982 146.911 160.224 147.257C160.465 147.604 160.622 148.003 160.693 148.455H159.653C159.556 148.062 159.369 147.737 159.09 147.479C158.812 147.22 158.443 147.091 157.982 147.091C157.306 147.091 156.774 147.385 156.384 147.973C155.998 148.561 155.803 149.386 155.801 150.449H155.869C156.028 150.207 156.217 150.001 156.436 149.831C156.657 149.658 156.901 149.524 157.169 149.43C157.436 149.337 157.718 149.29 158.017 149.29C158.517 149.29 158.974 149.415 159.389 149.665C159.803 149.912 160.136 150.254 160.386 150.692C160.636 151.126 160.761 151.625 160.761 152.188C160.761 152.727 160.64 153.222 160.399 153.67C160.157 154.116 159.818 154.472 159.38 154.736C158.945 154.997 158.434 155.125 157.846 155.119ZM157.846 154.182C158.204 154.182 158.525 154.092 158.809 153.913C159.096 153.734 159.322 153.494 159.487 153.193C159.654 152.892 159.738 152.557 159.738 152.188C159.738 151.827 159.657 151.499 159.495 151.203C159.336 150.905 159.116 150.668 158.835 150.491C158.556 150.315 158.238 150.227 157.88 150.227C157.61 150.227 157.359 150.281 157.126 150.389C156.893 150.494 156.688 150.639 156.512 150.824C156.339 151.009 156.203 151.22 156.103 151.459C156.004 151.695 155.954 151.943 155.954 152.205C155.954 152.551 156.035 152.875 156.197 153.176C156.362 153.477 156.586 153.72 156.87 153.905C157.157 154.089 157.482 154.182 157.846 154.182Z" fill="#738287"/>
<path d="M143.05 238.273V247H141.993V239.381H141.942L139.811 240.795V239.722L141.993 238.273H143.05ZM145.56 247V246.233L148.44 243.08C148.778 242.71 149.057 242.389 149.276 242.116C149.494 241.841 149.656 241.582 149.761 241.341C149.869 241.097 149.923 240.841 149.923 240.574C149.923 240.267 149.849 240.001 149.702 239.777C149.557 239.553 149.358 239.379 149.105 239.257C148.852 239.135 148.568 239.074 148.253 239.074C147.918 239.074 147.625 239.143 147.375 239.283C147.128 239.419 146.936 239.611 146.8 239.858C146.666 240.105 146.599 240.395 146.599 240.727H145.594C145.594 240.216 145.712 239.767 145.947 239.381C146.183 238.994 146.504 238.693 146.911 238.477C147.32 238.261 147.778 238.153 148.287 238.153C148.798 238.153 149.251 238.261 149.646 238.477C150.041 238.693 150.351 238.984 150.575 239.351C150.8 239.717 150.912 240.125 150.912 240.574C150.912 240.895 150.854 241.209 150.737 241.516C150.624 241.82 150.425 242.159 150.141 242.534C149.859 242.906 149.469 243.361 148.969 243.898L147.009 245.994V246.062H151.065V247H145.56Z" fill="#738287"/>
<path d="M139.05 325.273V334H137.993V326.381H137.942L135.811 327.795V326.722L137.993 325.273H139.05ZM141.56 334V333.233L144.44 330.08C144.778 329.71 145.057 329.389 145.276 329.116C145.494 328.841 145.656 328.582 145.761 328.341C145.869 328.097 145.923 327.841 145.923 327.574C145.923 327.267 145.849 327.001 145.702 326.777C145.557 326.553 145.358 326.379 145.105 326.257C144.852 326.135 144.568 326.074 144.253 326.074C143.918 326.074 143.625 326.143 143.375 326.283C143.128 326.419 142.936 326.611 142.8 326.858C142.666 327.105 142.599 327.395 142.599 327.727H141.594C141.594 327.216 141.712 326.767 141.947 326.381C142.183 325.994 142.504 325.693 142.911 325.477C143.32 325.261 143.778 325.153 144.287 325.153C144.798 325.153 145.251 325.261 145.646 325.477C146.041 325.693 146.351 325.984 146.575 326.351C146.8 326.717 146.912 327.125 146.912 327.574C146.912 327.895 146.854 328.209 146.737 328.516C146.624 328.82 146.425 329.159 146.141 329.534C145.859 329.906 145.469 330.361 144.969 330.898L143.009 332.994V333.062H147.065V334H141.56Z" fill="#738287"/>
<path d="M130.05 404.273V413H128.993V405.381H128.942L126.811 406.795V405.722L128.993 404.273H130.05ZM132.56 413V412.233L135.44 409.08C135.778 408.71 136.057 408.389 136.276 408.116C136.494 407.841 136.656 407.582 136.761 407.341C136.869 407.097 136.923 406.841 136.923 406.574C136.923 406.267 136.849 406.001 136.702 405.777C136.557 405.553 136.358 405.379 136.105 405.257C135.852 405.135 135.568 405.074 135.253 405.074C134.918 405.074 134.625 405.143 134.375 405.283C134.128 405.419 133.936 405.611 133.8 405.858C133.666 406.105 133.599 406.395 133.599 406.727H132.594C132.594 406.216 132.712 405.767 132.947 405.381C133.183 404.994 133.504 404.693 133.911 404.477C134.32 404.261 134.778 404.153 135.287 404.153C135.798 404.153 136.251 404.261 136.646 404.477C137.041 404.693 137.351 404.984 137.575 405.351C137.8 405.717 137.912 406.125 137.912 406.574C137.912 406.895 137.854 407.209 137.737 407.516C137.624 407.82 137.425 408.159 137.141 408.534C136.859 408.906 136.469 409.361 135.969 409.898L134.009 411.994V412.062H138.065V413H132.56Z" fill="#738287"/>
<path d="M127.002 488.119C126.416 488.119 125.899 488.016 125.45 487.808C125.004 487.598 124.656 487.31 124.406 486.943C124.156 486.574 124.033 486.153 124.036 485.682C124.033 485.312 124.105 484.972 124.253 484.659C124.401 484.344 124.602 484.081 124.858 483.871C125.117 483.658 125.405 483.523 125.723 483.466V483.415C125.306 483.307 124.973 483.072 124.726 482.712C124.479 482.348 124.357 481.935 124.36 481.472C124.357 481.028 124.469 480.632 124.696 480.283C124.923 479.933 125.236 479.658 125.634 479.456C126.034 479.254 126.49 479.153 127.002 479.153C127.507 479.153 127.959 479.254 128.357 479.456C128.754 479.658 129.067 479.933 129.294 480.283C129.524 480.632 129.641 481.028 129.644 481.472C129.641 481.935 129.514 482.348 129.264 482.712C129.017 483.072 128.689 483.307 128.28 483.415V483.466C128.595 483.523 128.879 483.658 129.132 483.871C129.385 484.081 129.587 484.344 129.737 484.659C129.888 484.972 129.965 485.312 129.968 485.682C129.965 486.153 129.837 486.574 129.584 486.943C129.334 487.31 128.986 487.598 128.54 487.808C128.097 488.016 127.584 488.119 127.002 488.119ZM127.002 487.182C127.396 487.182 127.737 487.118 128.024 486.99C128.311 486.862 128.533 486.682 128.689 486.449C128.845 486.216 128.925 485.943 128.928 485.631C128.925 485.301 128.84 485.01 128.672 484.757C128.504 484.504 128.276 484.305 127.986 484.161C127.699 484.016 127.371 483.943 127.002 483.943C126.629 483.943 126.297 484.016 126.004 484.161C125.715 484.305 125.486 484.504 125.318 484.757C125.154 485.01 125.073 485.301 125.075 485.631C125.073 485.943 125.148 486.216 125.301 486.449C125.458 486.682 125.681 486.862 125.97 486.99C126.26 487.118 126.604 487.182 127.002 487.182ZM127.002 483.04C127.314 483.04 127.591 482.977 127.833 482.852C128.077 482.727 128.269 482.553 128.408 482.328C128.547 482.104 128.618 481.841 128.621 481.54C128.618 481.244 128.548 480.987 128.412 480.768C128.276 480.547 128.087 480.376 127.845 480.257C127.604 480.135 127.323 480.074 127.002 480.074C126.675 480.074 126.389 480.135 126.145 480.257C125.901 480.376 125.712 480.547 125.578 480.768C125.445 480.987 125.379 481.244 125.382 481.54C125.379 481.841 125.446 482.104 125.583 482.328C125.722 482.553 125.914 482.727 126.158 482.852C126.402 482.977 126.683 483.04 127.002 483.04Z" fill="#738287"/>
<defs>
<clipPath id="clip0_1431_4158">
<rect width="12" height="12" fill="white" transform="translate(111 460)"/>
</clipPath>
</defs>
</svg>
