<svg width="220" height="135" viewBox="0 0 220 135" fill="none" xmlns="http://www.w3.org/2000/svg">
<path d="M25.0018 7.95415C27.5335 5.73069 30.8308 4.57926 34.1962 4.74346C37.5616 4.90765 40.7312 6.37459 43.0344 8.83393C45.3376 11.2933 46.5937 14.5521 46.5371 17.9211C46.4805 21.29 45.1155 24.5048 42.731 26.8854L31.8476 37.7708L24.9997 44.6146L9.83306 29.45L7.27056 26.8833C4.89324 24.5012 3.53449 21.2886 3.48113 17.9236C3.42776 14.5586 4.68394 11.3045 6.98452 8.84821C9.28511 6.39191 12.4501 4.9256 15.8114 4.75879C19.1726 4.59197 22.4672 5.73771 24.9997 7.95415H25.0018ZM31.8456 31.8812L39.7851 23.9396C40.6032 23.1215 41.2521 22.1504 41.6948 21.0816C42.1375 20.0128 42.3653 18.8673 42.3653 17.7104C42.3653 16.5535 42.1375 15.408 41.6948 14.3392C41.2521 13.2704 40.6032 12.2993 39.7851 11.4812C38.9671 10.6632 37.996 10.0143 36.9272 9.5716C35.8584 9.12889 34.7128 8.90103 33.556 8.90103C32.3991 8.90103 31.2536 9.12889 30.1848 9.5716C29.116 10.0143 28.1448 10.6632 27.3268 11.4812L24.9997 13.8062L22.6726 11.4791C21.0206 9.82707 18.7799 8.89894 16.4435 8.89894C14.1071 8.89894 11.8664 9.82707 10.2143 11.4791C8.56223 13.1312 7.6341 15.3719 7.6341 17.7083C7.6341 20.0447 8.56223 22.2854 10.2143 23.9375L12.781 26.5041L24.9997 38.7229L31.8435 31.8791L31.8456 31.8812Z" fill="#0A2832"/>
<path d="M110 8.33332C108.066 8.33332 106.211 9.10155 104.844 10.469C103.477 11.8365 102.708 13.6911 102.708 15.625C102.708 17.5589 103.477 19.4135 104.844 20.781C106.211 22.1484 108.066 22.9167 110 22.9167C111.934 22.9167 113.789 22.1484 115.156 20.781C116.523 19.4135 117.292 17.5589 117.292 15.625C117.292 13.6911 116.523 11.8365 115.156 10.469C113.789 9.10155 111.934 8.33332 110 8.33332ZM98.5417 15.625C98.5417 12.5861 99.7489 9.67158 101.898 7.52272C104.047 5.37387 106.961 4.16666 110 4.16666C113.039 4.16666 115.953 5.37387 118.102 7.52272C120.251 9.67158 121.458 12.5861 121.458 15.625C121.458 18.6639 120.251 21.5784 118.102 23.7273C115.953 25.8761 113.039 27.0833 110 27.0833C106.961 27.0833 104.047 25.8761 101.898 23.7273C99.7489 21.5784 98.5417 18.6639 98.5417 15.625ZM91.25 39.5833C91.25 36.8207 92.3475 34.1711 94.301 32.2176C96.2545 30.2641 98.904 29.1667 101.667 29.1667H118.333C121.096 29.1667 123.746 30.2641 125.699 32.2176C127.653 34.1711 128.75 36.8207 128.75 39.5833V45.8333H91.25V39.5833ZM101.667 33.3333C100.009 33.3333 98.4194 33.9918 97.2472 35.1639C96.0751 36.336 95.4167 37.9257 95.4167 39.5833V41.6667H124.583V39.5833C124.583 37.9257 123.925 36.336 122.753 35.1639C121.581 33.9918 119.991 33.3333 118.333 33.3333H101.667Z" fill="#0A2832"/>
<path d="M195 6.25001C192.537 6.25001 190.099 6.73499 187.824 7.67727C185.55 8.61954 183.483 10.0007 181.741 11.7418C180 13.4829 178.619 15.5498 177.677 17.8247C176.735 20.0996 176.25 22.5377 176.25 25C176.25 27.4623 176.735 29.9005 177.677 32.1753C178.619 34.4502 180 36.5172 181.741 38.2583C183.483 39.9994 185.55 41.3805 187.824 42.3228C190.099 43.265 192.537 43.75 195 43.75C199.972 43.75 204.742 41.7746 208.258 38.2583C211.774 34.742 213.75 29.9728 213.75 25C213.75 20.0272 211.774 15.2581 208.258 11.7418C204.742 8.22545 199.972 6.25001 195 6.25001ZM172.083 25C172.083 12.3438 182.343 2.08334 195 2.08334C207.656 2.08334 217.916 12.3438 217.916 25C217.916 37.6563 207.656 47.9167 195 47.9167C182.343 47.9167 172.083 37.6563 172.083 25ZM188.75 16.6667V25H184.583V16.6667H188.75ZM205.416 16.6667V25H201.25V16.6667H205.416ZM188.541 28.4042L189.583 30.2063C190.671 32.0833 192.687 33.3333 195 33.3333C197.312 33.3333 199.333 32.0813 200.416 30.2083L201.458 28.4042L205.064 30.4896L204.023 32.2938C203.108 33.8775 201.793 35.1924 200.209 36.1064C198.625 37.0203 196.828 37.501 195 37.5C193.171 37.5004 191.375 37.0192 189.791 36.1049C188.208 35.1906 186.893 33.8755 185.979 32.2917L184.935 30.4896L188.541 28.4042Z" fill="#0A2832"/>
<path d="M25.004 95.0375C27.5357 92.814 30.833 91.6626 34.1984 91.8268C37.5638 91.991 40.7334 93.4579 43.0366 95.9173C45.3398 98.3766 46.5959 101.635 46.5393 105.004C46.4827 108.373 45.1177 111.588 42.7332 113.969L31.8478 124.854L24.9998 131.698L9.83318 116.533L7.27068 113.967C4.88688 111.586 3.52268 108.371 3.46664 105.002C3.4106 101.634 4.66711 98.3751 6.9704 95.9162C9.27368 93.4573 12.4431 91.9908 15.8083 91.8268C19.1735 91.6628 22.4726 92.8142 25.004 95.0375Z" fill="#0A2832"/>
<path d="M108.959 93.3333C107.025 93.3333 105.17 94.1016 103.803 95.469C102.435 96.8365 101.667 98.6911 101.667 100.625C101.667 102.559 102.435 104.414 103.803 105.781C105.17 107.148 107.025 107.917 108.959 107.917C110.893 107.917 112.747 107.148 114.115 105.781C115.482 104.414 116.25 102.559 116.25 100.625C116.25 98.6911 115.482 96.8365 114.115 95.469C112.747 94.1016 110.893 93.3333 108.959 93.3333ZM97.5003 100.625C97.5003 97.5861 98.7075 94.6716 100.856 92.5227C103.005 90.3739 105.92 89.1667 108.959 89.1667C111.998 89.1667 114.912 90.3739 117.061 92.5227C119.21 94.6716 120.417 97.5861 120.417 100.625C120.417 103.664 119.21 106.578 117.061 108.727C114.912 110.876 111.998 112.083 108.959 112.083C105.92 112.083 103.005 110.876 100.856 108.727C98.7075 106.578 97.5003 103.664 97.5003 100.625ZM124.584 112.083V120.417H132.917V124.583H124.584V132.917H120.417V124.583H112.084V120.417H120.417V112.083H124.584ZM101.667 118.333C99.4569 118.333 97.3372 119.211 95.7744 120.774C94.2116 122.337 93.3337 124.457 93.3337 126.667H110.104V130.833H89.167V126.667C89.167 123.351 90.484 120.172 92.8282 117.828C95.1724 115.484 98.3518 114.167 101.667 114.167H110V118.333H101.667Z" fill="#0A2832"/>
<path d="M195 91.25C192.537 91.25 190.099 91.735 187.824 92.6773C185.55 93.6195 183.483 95.0006 181.741 96.7417C180 98.4828 178.619 100.55 177.677 102.825C176.735 105.1 176.25 107.538 176.25 110C176.25 112.462 176.735 114.9 177.677 117.175C178.619 119.45 180 121.517 181.741 123.258C183.483 124.999 185.55 126.38 187.824 127.323C190.099 128.265 192.537 128.75 195 128.75C199.972 128.75 204.742 126.775 208.258 123.258C211.774 119.742 213.75 114.973 213.75 110C213.75 105.027 211.774 100.258 208.258 96.7417C204.742 93.2254 199.972 91.25 195 91.25ZM172.083 110C172.083 97.3437 182.343 87.0833 195 87.0833C207.656 87.0833 217.916 97.3437 217.916 110C217.916 122.656 207.656 132.917 195 132.917C182.343 132.917 172.083 122.656 172.083 110ZM184.102 101.946L191.318 106.112L189.235 109.721L182.018 105.554L184.102 101.946ZM207.985 105.554L200.768 109.721L198.685 106.112L205.902 101.946L207.985 105.554ZM185.979 117.29C186.893 115.706 188.208 114.391 189.792 113.478C191.375 112.564 193.171 112.083 195 112.083C196.828 112.083 198.625 112.564 200.208 113.478C201.792 114.393 203.107 115.708 204.021 117.292L205.064 119.094L201.458 121.179L200.416 119.377C199.869 118.425 199.079 117.635 198.128 117.086C197.177 116.537 196.098 116.248 195 116.25C193.902 116.249 192.823 116.538 191.872 117.086C190.922 117.635 190.132 118.424 189.583 119.375L188.541 121.179L184.935 119.094L185.979 117.29Z" fill="#0A2832"/>
</svg>
