<svg xmlns="http://www.w3.org/2000/svg" width="224" height="224" fill="none"><path fill="#0A2832" d="m49.477 144.546 13.59-6.408 13.06 15.955 6.02-2.838-17.39-21.274-10.607 5.002 8.056-25.947-7.397 3.488-8.238 25.857-8.477-17.976-6.02 2.839 19.9 42.203 6.02-2.839-8.517-18.062ZM130.386 128.475l3.896-38.634 14.195 30.105 6.02-2.839-19.913-42.232-6.02 2.838-3.815 38.807-14.262-30.248-6.05 2.852 19.9 42.204 6.049-2.853ZM173.289 78.773l-18.234 8.597-8.53-18.091-6.021 2.839 19.9 42.203 6.021-2.839-8.531-18.091 18.234-8.598 8.531 18.092 6.02-2.839-19.899-42.204-6.021 2.84 8.53 18.09ZM51.525 55.092l24.11-11.37 17.061 36.184 6.05-2.853-19.9-42.203-4.3 2.027-1.749.825-24.111 11.369-1.405.662-4.616 2.177 19.9 42.203 6.02-2.839-17.06-36.182ZM26.425 111.189l6.02-2.839-1.682-10.036 15.596-7.354 4.164 8.831 6.02-2.839L36.63 54.72l-.315.149-17.632 8.313.027.058-.114.054 5.071 30.972-2.552 1.203 1.12 6.832 2.522-1.19 1.668 10.078Zm-.818-43.876 7.855-3.705L43.52 84.94l-13.876 6.542-4.037-24.17ZM144.859 3.69l-17.632 8.313.027.057-.086.04 5.043 30.986-2.552 1.203 1.119 6.832 2.552-1.203 1.625 10.062 6.021-2.839-1.683-10.035 15.625-7.367 4.164 8.83 6.021-2.839-19.9-42.203-.344.162Zm-6.685 36.584-4.037-24.17 7.884-3.717 10.058 21.33-13.905 6.557ZM121.434 31.451l-.013-.029-.014-.028c-3.42-7.254-11.708-10.636-18.751-7.735l-15.052 7.097-2.723 1.284 19.899 42.203 6.021-2.838-7.043-14.938 11.024-5.233c7.168-3.38 10.164-12.187 6.608-19.727l-.013-.029.057-.027ZM111.252 45.68l-10.264 4.84-7.26-15.396 10.264-4.84c4.071-1.92 8.991-.034 10.992 4.21 2.014 4.272.339 9.267-3.732 11.186ZM183.984 117.957l-15.051 7.097-2.724 1.284 19.899 42.203 6.021-2.838-7.057-14.967 11.025-5.233c7.167-3.379 10.163-12.187 6.608-19.727l-.014-.029-.013-.028c-3.363-7.281-11.679-10.649-18.694-7.762Zm8.582 21.991-10.263 4.84-7.26-15.396 10.264-4.84c4.071-1.919 8.99-.033 10.991 4.21 2.014 4.272.34 9.267-3.732 11.186ZM122.81 166.812l-7.706-16.343-3.039 1.433-2.981 1.406-9.146 4.312-2.896 1.366-3.153 1.487 19.899 42.203 6.021-2.839 9.404-4.434c7.167-3.379 10.163-12.186 6.608-19.727l-.014-.029-.013-.028-.014-.029c-2.514-5.333-7.644-8.556-12.97-8.778Zm-10.887-7.483 4.204 8.917-9.146 4.312-4.204-8.917 9.146-4.312Zm13.717 30.504-8.601 4.056-7.259-15.396 8.601-4.056c4.071-1.919 8.99-.033 10.991 4.21 2.014 4.272.339 9.267-3.732 11.186ZM103.209 200.306l-4.358 2.055-17.06-36.183-2.982 1.406-.014-.029-9.06 4.272-4.243 2.001-1.777.838 17.074 36.211-4.33 2.041 1.09 6.846 6.079-2.866 6.02-2.839 6.021-2.839.014.029 6.02-2.839-.013-.028 6.049-2.853-4.53-5.223Zm-16.4 7.732-14.221-30.161 6.02-2.839 14.222 30.161-6.02 2.839ZM142.948 135.869c-10.206 4.812-13.759 18.683-7.959 30.983 5.799 12.3 18.761 18.384 28.967 13.571 10.207-4.812 13.759-18.683 7.96-30.982-5.8-12.3-18.761-18.384-28.968-13.572Zm18.169 38.534c-6.852 3.23-15.847-1.429-20.079-10.403-4.218-8.946-2.103-18.879 4.749-22.11 6.852-3.231 15.848 1.429 20.079 10.403 4.247 8.932 2.103 18.879-4.749 22.11ZM85.445 104.141c5.218-2.46 10.873-1.096 15.519 3.407 0 0 2.388-3.93 3.224-6.392-5.973-5.384-14.726-6.408-21.636-3.15-10.665 5.028-14.619 19.088-8.819 31.388 5.8 12.3 19.162 18.195 29.827 13.166 5.82-2.744 9.661-8.2 10.97-14.565-3.464-1.03-6.677-1.898-6.677-1.898-.744 4.591-3.258 8.475-7.214 10.341-7.168 3.379-16.436-1.117-20.627-10.005-4.176-8.93-1.734-18.912 5.433-22.292Z"/></svg>