<svg xmlns="http://www.w3.org/2000/svg" width="168" height="169" fill="none"><g stroke="#0A2832" stroke-width="1.364" clip-path="url(#a)"><path d="M13.747 86.543h-.682v19.969H7.773V61.217h5.292v20.927l1.181-1.27 18.278-19.657h6.331L21.55 80.107l-1.046 1.143h12.744l6.316 25.294h-5.251l-4.879-19.485-.13-.516H13.748ZM93.397 106.513h-5.62V61.217H93.1v35.23l1.267-2.12 19.802-33.142h5.588v45.328h-5.293v-35.06l-1.266 2.108-19.802 32.952ZM153.785 81.218h.682V61.216h5.293v45.296h-5.293V86.511H132.944V106.512h-5.292V61.217h5.292v20.001H153.785ZM53.75 6.505h-.683v40.003h-5.292V1.212h38.638v45.296h-5.325V6.505H53.75ZM9.912 36.713H8.027l1.512-5.293H12.36l.142-.494 8.48-29.682h.294V1.18h18.479v45.328h-5.293v-9.763H16.021l-.14.497-2.618 9.298H8.025l2.543-8.959.247-.868h-.903ZM25.095 6.505h-.516l-.14.497-6.656 23.583-.245.867h16.924V6.505h-9.367ZM129.949 36.713h-1.917l1.512-5.293H132.365l.141-.494 8.512-29.682h.263V1.18h18.51v45.296h-5.292v-9.763h-18.473l-.14.497-2.618 9.298h-5.234l2.57-8.924.251-.87h-.906Zm7.839-6.16-.245.867h16.956V6.473H144.584l-.14.497-6.656 23.583ZM100.406 30.025l-.68.002V46.54h-5.293V1.244H113.386c7.017.36 12.683 6.301 12.984 13.693h-.051V15.65c0 7.987-6.186 14.343-13.708 14.343h-.002l-12.203.032Zm-.649-5.88v.682H111.787c4.906 0 8.828-4.138 8.828-9.208 0-5.04-3.924-9.177-8.828-9.177H99.757v17.703ZM133.75 149.971l-.68.002v16.544h-5.292v-45.296h18.953c7.181.37 12.994 6.636 12.933 14.306v.069c0 7.986-6.186 14.343-13.709 14.343h-.001l-12.204.032Zm-.648-5.88v.682h12.029c4.906 0 8.828-4.138 8.828-9.209 0-5.04-3.923-9.176-8.828-9.176h-12.029v17.703ZM68.774 138.568v.413l.366.191c4.498 2.355 7.622 7.226 7.622 12.868v.095c0 7.986-6.187 14.343-13.709 14.343H46.682v-45.296H68.774v17.386Zm-5.293-11.411v-.682H52.006V137.697H63.481V127.157Zm-11.475 33.442v.681h10.192c4.905 0 8.827-4.138 8.827-9.208 0-5.041-3.924-9.177-8.828-9.177H52.006V160.599ZM33.067 160.574v.682h4.983l1.487 5.293H33.067v.032h-5.293v-.032H7.968l1.537-5.293h4.956V121.221H29.77v.032h3.297v39.321Zm-13.313 0v.682h8.02v-34.71h-8.02v34.028ZM116.399 143.868c-.001-5.097-1.579-9.738-4.162-13.12-2.583-3.382-6.2-5.533-10.245-5.533-4.046 0-7.663 2.16-10.245 5.546-2.583 3.385-4.162 8.027-4.162 13.108 0 5.097 1.58 9.739 4.162 13.121 2.583 3.382 6.2 5.534 10.245 5.534 4.046 0 7.67-2.16 10.257-5.546 2.586-3.385 4.166-8.027 4.15-13.11Zm0 0v.001h-.682l.682-.002v.001Zm-34.138.001c0-13.348 8.938-23.947 19.731-23.947 10.793 0 19.731 10.599 19.731 23.947 0 13.348-8.938 23.948-19.731 23.948-10.793 0-19.731-10.6-19.731-23.948ZM63.48 102.392c4.4 0 8.334-2.327 11.057-5.957a306.431 306.431 0 0 1 4.181 3.65c-3.778 4.763-9.22 7.727-15.206 7.727-11.327 0-20.682-10.632-20.682-23.948s9.355-23.947 20.682-23.947c7.23 0 14.317 4.329 17.415 11.24-.856.818-2.046 1.744-3.09 2.51a63.42 63.42 0 0 1-1.423 1.01c-2.453-5.787-7.053-9.34-12.902-9.34-8.43 0-15.071 8.436-15.104 18.525v.002c0 10.059 6.642 18.528 15.072 18.528Z"/></g><defs><clipPath id="a"><path fill="#fff" d="M0 .5h168v168H0z"/></clipPath></defs></svg>