<svg xmlns="http://www.w3.org/2000/svg" width="195" height="169" fill="none"><path fill="#0A2832" d="M47.654 86.798h15.02l5.006 19.994h6.654L67.68 80.143H55.956l18.346-20.026h-8.175L47.654 79.985V60.117H41v46.644h6.654V86.798ZM127.662 106.761l19.994-33.271v33.271h6.654V60.086h-6.654l-19.994 33.462v-33.43h-6.686v46.643h6.686ZM187.644 80.112h-20.153V60.117h-6.654v46.644h6.654V86.766h20.153v19.995h6.654V60.117h-6.654v19.995ZM47.64 6.788h26.647v39.989h6.686V.133H40.985v46.644h6.654V6.787ZM1.03 46.81h6.653l2.757-9.792h17.237v9.76h6.654V.103H14.496v.063h-.127L5.751 30.332H2.93l-1.902 6.654h2.789L1.029 46.81ZM18.994 6.788h8.682v23.575H12.341l6.654-23.575ZM153.946.103h-19.487v.063h-.095l-8.651 30.166h-2.82l-1.901 6.654h2.82l-2.82 9.792h6.654l2.757-9.792h17.269v9.76h6.654V.103h-.38Zm-21.642 30.229 6.654-23.575h8.714v23.575h-15.368ZM120.93 15.217v-.064c0-8.016-6.052-14.607-13.657-14.987H87.628v46.643h6.654v-16.51l12.199-.03c7.922 0 14.386-6.687 14.386-15.02v-.032h.063Zm-15.273 8.524H94.314V6.725h11.343c4.5 0 8.144 3.802 8.144 8.492 0 4.721-3.644 8.524-8.144 8.524ZM140.606 120.101H120.961v46.643h6.654v-16.54l12.199-.032c7.922 0 14.386-6.686 14.386-15.02v-.063c.063-8.017-6.021-14.608-13.594-14.988Zm-1.616 23.544h-11.343v-17.016h11.343c4.5 0 8.144 3.802 8.144 8.492 0 4.721-3.644 8.524-8.144 8.524ZM64.466 138.194v-18.062H41.018v46.644h17.047c7.922 0 14.386-6.686 14.386-15.02v-.095c0-5.894-3.264-10.995-7.985-13.467Zm-6.654-11.407v9.854H47.704v-9.854h10.108Zm-.602 33.429h-9.506v-17.015h9.506c4.499 0 8.143 3.802 8.143 8.492 0 4.721-3.644 8.523-8.143 8.523ZM32.463 160.122h-4.817v-39.989h-3.295v-.032H7.684v40.021H2.9l-1.933 6.654h20.025v.032h6.654v-.032h6.686l-1.87-6.654Zm-18.125 0v-33.335h6.654v33.335h-6.654ZM95.866 118.802c-11.28 0-20.406 11.027-20.406 24.621 0 13.593 9.126 24.62 20.406 24.62s20.405-11.027 20.405-24.62c0-13.594-9.125-24.621-20.405-24.621Zm0 42.587c-7.573 0-13.72-8.048-13.72-17.966 0-9.887 6.147-17.967 13.72-17.967s13.72 8.049 13.72 17.967c.031 9.886-6.147 17.966-13.72 17.966ZM97.402 65.599c5.767 0 10.298 3.644 12.58 9.696 0 0 3.834-2.535 5.64-4.404-3.106-7.415-10.583-12.073-18.22-12.073-11.787 0-21.356 11.027-21.356 24.62 0 13.594 9.57 24.622 21.356 24.622 6.433 0 12.231-3.296 16.128-8.493a312.152 312.152 0 0 0-5.228-4.563c-2.63 3.835-6.559 6.275-10.931 6.275-7.922 0-14.386-8.017-14.386-17.84.032-9.855 6.496-17.84 14.417-17.84Z"/></svg>