<svg xmlns="http://www.w3.org/2000/svg" width="208" height="140" fill="none"><g fill="#0A2832" clip-path="url(#a)"><path d="M16.96 71.802h18.537l6.179 16.56h8.212L41.676 66.29h-14.47L49.85 49.705H39.76L16.96 66.159V49.705H8.748v38.63h8.213V71.802ZM115.706 88.335l24.676-27.555v27.555h8.212V49.68h-8.212l-24.676 27.713V49.705h-8.252v38.63h8.252ZM189.736 66.264h-24.872v-16.56h-8.213v38.631h8.213v-16.56h24.872v16.56h8.212v-38.63h-8.212v16.56ZM66.314 5.536h32.889v33.12h8.251V.024H58.102v38.63h8.212V5.536ZM8.788 38.682H17l3.403-8.11h21.274v8.084h8.212V-.001H25.41v.053h-.157L14.615 25.035h-3.48l-2.347 5.512h3.441l-3.44 8.135ZM30.962 5.536h10.715v19.526H22.749l8.213-19.526ZM197.517-.001h-24.05v.053h-.118l-10.676 24.983h-3.48l-2.347 5.512h3.481l-3.481 8.109h8.213l3.402-8.11h21.313v8.084h8.212V-.001h-.469Zm-26.71 25.036L179.02 5.51h10.754v19.525h-18.967ZM156.768 12.518v-.053c0-6.64-7.469-12.098-16.855-12.413h-24.246v38.63h8.212V25.01l15.056-.026c9.777 0 17.755-5.537 17.755-12.44v-.025h.078Zm-18.849 7.059h-14V5.484h14c5.553 0 10.05 3.15 10.05 7.034 0 3.91-4.497 7.059-10.05 7.059ZM181.052 99.384h-24.246v38.63h8.213v-13.699l15.056-.026c9.776 0 17.754-5.537 17.754-12.44v-.052c.078-6.64-7.43-12.098-16.777-12.413Zm-1.994 19.499h-14V104.79h14c5.553 0 10.05 3.149 10.05 7.033 0 3.911-4.497 7.06-10.05 7.06ZM87.08 114.369v-14.96H58.141v38.631h21.04c9.776 0 17.754-5.537 17.754-12.439v-.079c0-4.881-4.028-9.106-9.855-11.153Zm-8.212-9.448v8.162H66.393v-8.162h12.475Zm-.743 27.687H66.393v-14.093h11.732c5.553 0 10.05 3.149 10.05 7.033 0 3.911-4.497 7.06-10.05 7.06ZM47.582 132.529h-5.944V99.41H37.57v-.026H17v33.145h-5.906l-2.385 5.512h24.715v.026h8.213v-.026h8.251l-2.307-5.512Zm-22.369 0v-27.608h8.212v27.608h-8.212ZM125.834 98.308c-13.922 0-25.185 9.132-25.185 20.391 0 11.258 11.263 20.391 25.185 20.391 13.922 0 25.185-9.133 25.185-20.391 0-11.259-11.263-20.391-25.185-20.391Zm0 35.271c-9.346 0-16.933-6.666-16.933-14.88 0-8.188 7.587-14.88 16.933-14.88 9.347 0 16.933 6.666 16.933 14.88.039 8.188-7.586 14.88-16.933 14.88ZM78.359 54.244c7.117 0 12.71 3.018 15.525 8.03 0 0 4.732-2.099 6.961-3.647-3.832-6.141-13.061-10-22.486-10C63.81 48.628 52 57.762 52 69.02c0 11.259 11.81 20.391 26.358 20.391 7.939 0 15.095-2.729 19.905-7.033-3.324-1.994-6.452-3.779-6.452-3.779-3.246 3.176-8.096 5.196-13.492 5.196-9.777 0-17.755-6.64-17.755-14.775.04-8.162 8.017-14.775 17.794-14.775Z"/></g><defs><clipPath id="a"><path fill="#fff" d="M0 0h207.273v139.091H0z"/></clipPath></defs></svg>